%TF.GenerationSoftware,KiCad,Pcbnew,9.0.5*%
%TF.CreationDate,2025-12-12T18:36:18-08:00*%
%TF.ProjectId,Current_sensing_INA228_board,43757272-656e-4745-9f73-656e73696e67,rev?*%
%TF.SameCoordinates,Original*%
%TF.FileFunction,Copper,L2,Bot*%
%TF.FilePolarity,Positive*%
%FSLAX46Y46*%
G04 Gerber Fmt 4.6, Leading zero omitted, Abs format (unit mm)*
G04 Created by KiCad (PCBNEW 9.0.5) date 2025-12-12 18:36:18*
%MOMM*%
%LPD*%
G01*
G04 APERTURE LIST*
%TA.AperFunction,ComponentPad*%
%ADD10C,2.000000*%
%TD*%
%TA.AperFunction,ComponentPad*%
%ADD11C,2.032000*%
%TD*%
%TA.AperFunction,ComponentPad*%
%ADD12C,1.524000*%
%TD*%
%TA.AperFunction,ViaPad*%
%ADD13C,0.600000*%
%TD*%
G04 APERTURE END LIST*
D10*
%TO.P,TP7,1,1*%
%TO.N,+3.3V*%
X142500000Y-102750000D03*
%TD*%
%TO.P,TP6,1,1*%
%TO.N,Net-(J3-Pin_6)*%
X140000000Y-91250000D03*
%TD*%
D11*
%TO.P,J1,1,1*%
%TO.N,/IN+*%
X121960000Y-114500000D03*
%TO.P,J1,2,2*%
X124500000Y-114500000D03*
%TO.P,J1,3,3*%
X127040000Y-114500000D03*
%TO.P,J1,4,4*%
X121960000Y-111960000D03*
%TO.P,J1,5,5*%
X124500000Y-111960000D03*
%TO.P,J1,6,6*%
X127040000Y-111960000D03*
%TO.P,J1,7,7*%
X121960000Y-109420000D03*
%TO.P,J1,8,8*%
X124500000Y-109420000D03*
%TO.P,J1,9,9*%
X127040000Y-109420000D03*
%TD*%
D10*
%TO.P,TP3,1,1*%
%TO.N,GND*%
X123750000Y-91750000D03*
%TD*%
D11*
%TO.P,J2,1,1*%
%TO.N,/IN-*%
X145539500Y-114443100D03*
%TO.P,J2,2,2*%
X148079500Y-114443100D03*
%TO.P,J2,3,3*%
X150619500Y-114443100D03*
%TO.P,J2,4,4*%
X145539500Y-111903100D03*
%TO.P,J2,5,5*%
X148079500Y-111903100D03*
%TO.P,J2,6,6*%
X150619500Y-111903100D03*
%TO.P,J2,7,7*%
X145539500Y-109363100D03*
%TO.P,J2,8,8*%
X148079500Y-109363100D03*
%TO.P,J2,9,9*%
X150619500Y-109363100D03*
%TD*%
D10*
%TO.P,TP5,1,1*%
%TO.N,Net-(J3-Pin_4)*%
X130250000Y-91750000D03*
%TD*%
%TO.P,TP4,1,1*%
%TO.N,Net-(J3-Pin_5)*%
X135000000Y-88750000D03*
%TD*%
D12*
%TO.P,J3,1,Pin_1*%
%TO.N,+3.3V*%
X146182999Y-85660401D03*
%TO.P,J3,2,Pin_2*%
%TO.N,GND*%
X146182999Y-88660400D03*
%TO.P,J3,3,Pin_3*%
%TO.N,unconnected-(J3-Pin_3-Pad3)*%
X146182999Y-91660399D03*
%TO.P,J3,4,Pin_4*%
%TO.N,Net-(J3-Pin_4)*%
X143183000Y-85660401D03*
%TO.P,J3,5,Pin_5*%
%TO.N,Net-(J3-Pin_5)*%
X143183000Y-88660400D03*
%TO.P,J3,6,Pin_6*%
%TO.N,Net-(J3-Pin_6)*%
X143183000Y-91660399D03*
%TD*%
D10*
%TO.P,TP1,1,1*%
%TO.N,/IN+*%
X132500000Y-107500000D03*
%TD*%
%TO.P,TP2,1,1*%
%TO.N,/IN-*%
X140750000Y-107500000D03*
%TD*%
D13*
%TO.N,GND*%
X140070000Y-99000000D03*
X132250000Y-104250000D03*
X140000000Y-94500000D03*
%TD*%
%TA.AperFunction,Conductor*%
%TO.N,GND*%
G36*
X157192539Y-82269685D02*
G01*
X157238294Y-82322489D01*
X157249500Y-82374000D01*
X157249500Y-94626000D01*
X157229815Y-94693039D01*
X157177011Y-94738794D01*
X157125500Y-94750000D01*
X146715686Y-94750000D01*
X146946078Y-106500000D01*
X154126000Y-106500000D01*
X154134685Y-106502550D01*
X154143647Y-106501262D01*
X154167687Y-106512240D01*
X154193039Y-106519685D01*
X154198966Y-106526525D01*
X154207203Y-106530287D01*
X154221492Y-106552521D01*
X154238794Y-106572489D01*
X154241081Y-106583003D01*
X154244977Y-106589065D01*
X154250000Y-106624000D01*
X154250000Y-106672185D01*
X154249500Y-106679815D01*
X154249500Y-117125500D01*
X154229815Y-117192539D01*
X154177011Y-117238294D01*
X154125500Y-117249500D01*
X118624500Y-117249500D01*
X118557461Y-117229815D01*
X118511706Y-117177011D01*
X118500500Y-117125500D01*
X118500500Y-109300649D01*
X120443500Y-109300649D01*
X120443500Y-109539350D01*
X120480841Y-109775111D01*
X120480841Y-109775112D01*
X120480842Y-109775115D01*
X120554605Y-110002134D01*
X120662973Y-110214819D01*
X120803279Y-110407933D01*
X120972067Y-110576721D01*
X120972070Y-110576723D01*
X120989908Y-110589684D01*
X121032572Y-110645015D01*
X121038550Y-110714629D01*
X121005942Y-110776423D01*
X120989908Y-110790316D01*
X120972070Y-110803276D01*
X120972064Y-110803281D01*
X120803281Y-110972064D01*
X120803281Y-110972065D01*
X120803279Y-110972067D01*
X120754976Y-111038550D01*
X120662973Y-111165180D01*
X120554606Y-111377863D01*
X120480841Y-111604887D01*
X120480841Y-111604888D01*
X120443500Y-111840649D01*
X120443500Y-112079350D01*
X120480841Y-112315111D01*
X120480841Y-112315112D01*
X120480842Y-112315115D01*
X120554605Y-112542134D01*
X120662973Y-112754819D01*
X120803279Y-112947933D01*
X120972067Y-113116721D01*
X120972070Y-113116723D01*
X120989908Y-113129684D01*
X121032572Y-113185015D01*
X121038550Y-113254629D01*
X121005942Y-113316423D01*
X120989908Y-113330316D01*
X120972070Y-113343276D01*
X120972064Y-113343281D01*
X120803281Y-113512064D01*
X120803281Y-113512065D01*
X120803279Y-113512067D01*
X120754976Y-113578550D01*
X120662973Y-113705180D01*
X120554606Y-113917863D01*
X120480841Y-114144887D01*
X120480841Y-114144888D01*
X120443500Y-114380649D01*
X120443500Y-114619350D01*
X120480841Y-114855111D01*
X120480841Y-114855112D01*
X120480842Y-114855115D01*
X120554605Y-115082134D01*
X120662973Y-115294819D01*
X120803279Y-115487933D01*
X120972067Y-115656721D01*
X121165181Y-115797027D01*
X121377866Y-115905395D01*
X121604885Y-115979158D01*
X121840649Y-116016500D01*
X121840650Y-116016500D01*
X122079350Y-116016500D01*
X122079351Y-116016500D01*
X122315115Y-115979158D01*
X122542134Y-115905395D01*
X122754819Y-115797027D01*
X122947933Y-115656721D01*
X123116721Y-115487933D01*
X123129682Y-115470092D01*
X123185010Y-115427428D01*
X123254623Y-115421447D01*
X123316419Y-115454052D01*
X123330314Y-115470088D01*
X123343279Y-115487933D01*
X123512067Y-115656721D01*
X123705181Y-115797027D01*
X123917866Y-115905395D01*
X124144885Y-115979158D01*
X124380649Y-116016500D01*
X124380650Y-116016500D01*
X124619350Y-116016500D01*
X124619351Y-116016500D01*
X124855115Y-115979158D01*
X125082134Y-115905395D01*
X125294819Y-115797027D01*
X125487933Y-115656721D01*
X125656721Y-115487933D01*
X125669682Y-115470092D01*
X125725010Y-115427428D01*
X125794623Y-115421447D01*
X125856419Y-115454052D01*
X125870314Y-115470088D01*
X125883279Y-115487933D01*
X126052067Y-115656721D01*
X126245181Y-115797027D01*
X126457866Y-115905395D01*
X126684885Y-115979158D01*
X126920649Y-116016500D01*
X126920650Y-116016500D01*
X127159350Y-116016500D01*
X127159351Y-116016500D01*
X127395115Y-115979158D01*
X127622134Y-115905395D01*
X127834819Y-115797027D01*
X128027933Y-115656721D01*
X128196721Y-115487933D01*
X128337027Y-115294819D01*
X128445395Y-115082134D01*
X128519158Y-114855115D01*
X128556500Y-114619351D01*
X128556500Y-114380649D01*
X128519158Y-114144885D01*
X128445395Y-113917866D01*
X128337027Y-113705181D01*
X128196721Y-113512067D01*
X128027933Y-113343279D01*
X128010092Y-113330317D01*
X127967428Y-113274990D01*
X127961447Y-113205377D01*
X127994052Y-113143581D01*
X128010091Y-113129684D01*
X128027933Y-113116721D01*
X128196721Y-112947933D01*
X128337027Y-112754819D01*
X128445395Y-112542134D01*
X128519158Y-112315115D01*
X128556500Y-112079351D01*
X128556500Y-111840649D01*
X128519158Y-111604885D01*
X128445395Y-111377866D01*
X128337027Y-111165181D01*
X128196721Y-110972067D01*
X128027933Y-110803279D01*
X128010092Y-110790317D01*
X127967428Y-110734990D01*
X127961447Y-110665377D01*
X127994052Y-110603581D01*
X128010091Y-110589684D01*
X128027933Y-110576721D01*
X128196721Y-110407933D01*
X128337027Y-110214819D01*
X128445395Y-110002134D01*
X128519158Y-109775115D01*
X128556500Y-109539351D01*
X128556500Y-109300649D01*
X128547488Y-109243749D01*
X144023000Y-109243749D01*
X144023000Y-109482450D01*
X144060341Y-109718211D01*
X144060341Y-109718212D01*
X144060342Y-109718215D01*
X144134105Y-109945234D01*
X144242473Y-110157919D01*
X144382779Y-110351033D01*
X144551567Y-110519821D01*
X144551570Y-110519823D01*
X144569408Y-110532784D01*
X144612072Y-110588115D01*
X144618050Y-110657729D01*
X144585442Y-110719523D01*
X144569408Y-110733416D01*
X144551570Y-110746376D01*
X144551564Y-110746381D01*
X144382781Y-110915164D01*
X144382781Y-110915165D01*
X144382779Y-110915167D01*
X144334476Y-110981650D01*
X144242473Y-111108280D01*
X144134106Y-111320963D01*
X144060341Y-111547987D01*
X144060341Y-111547988D01*
X144023000Y-111783749D01*
X144023000Y-112022450D01*
X144060341Y-112258211D01*
X144060341Y-112258212D01*
X144060342Y-112258215D01*
X144134105Y-112485234D01*
X144242473Y-112697919D01*
X144382779Y-112891033D01*
X144551567Y-113059821D01*
X144551570Y-113059823D01*
X144569408Y-113072784D01*
X144612072Y-113128115D01*
X144618050Y-113197729D01*
X144585442Y-113259523D01*
X144569408Y-113273416D01*
X144551570Y-113286376D01*
X144551564Y-113286381D01*
X144382781Y-113455164D01*
X144382781Y-113455165D01*
X144382779Y-113455167D01*
X144334476Y-113521650D01*
X144242473Y-113648280D01*
X144134106Y-113860963D01*
X144060341Y-114087987D01*
X144060341Y-114087988D01*
X144023000Y-114323749D01*
X144023000Y-114562450D01*
X144060341Y-114798211D01*
X144060341Y-114798212D01*
X144060342Y-114798215D01*
X144134105Y-115025234D01*
X144242473Y-115237919D01*
X144382779Y-115431033D01*
X144551567Y-115599821D01*
X144744681Y-115740127D01*
X144957366Y-115848495D01*
X145184385Y-115922258D01*
X145420149Y-115959600D01*
X145420150Y-115959600D01*
X145658850Y-115959600D01*
X145658851Y-115959600D01*
X145894615Y-115922258D01*
X146121634Y-115848495D01*
X146334319Y-115740127D01*
X146527433Y-115599821D01*
X146696221Y-115431033D01*
X146709182Y-115413192D01*
X146764510Y-115370528D01*
X146834123Y-115364547D01*
X146895919Y-115397152D01*
X146909814Y-115413188D01*
X146922779Y-115431033D01*
X147091567Y-115599821D01*
X147284681Y-115740127D01*
X147497366Y-115848495D01*
X147724385Y-115922258D01*
X147960149Y-115959600D01*
X147960150Y-115959600D01*
X148198850Y-115959600D01*
X148198851Y-115959600D01*
X148434615Y-115922258D01*
X148661634Y-115848495D01*
X148874319Y-115740127D01*
X149067433Y-115599821D01*
X149236221Y-115431033D01*
X149249182Y-115413192D01*
X149304510Y-115370528D01*
X149374123Y-115364547D01*
X149435919Y-115397152D01*
X149449814Y-115413188D01*
X149462779Y-115431033D01*
X149631567Y-115599821D01*
X149824681Y-115740127D01*
X150037366Y-115848495D01*
X150264385Y-115922258D01*
X150500149Y-115959600D01*
X150500150Y-115959600D01*
X150738850Y-115959600D01*
X150738851Y-115959600D01*
X150974615Y-115922258D01*
X151201634Y-115848495D01*
X151414319Y-115740127D01*
X151607433Y-115599821D01*
X151776221Y-115431033D01*
X151916527Y-115237919D01*
X152024895Y-115025234D01*
X152098658Y-114798215D01*
X152136000Y-114562451D01*
X152136000Y-114323749D01*
X152098658Y-114087985D01*
X152024895Y-113860966D01*
X151916527Y-113648281D01*
X151776221Y-113455167D01*
X151607433Y-113286379D01*
X151589592Y-113273417D01*
X151546928Y-113218090D01*
X151540947Y-113148477D01*
X151573552Y-113086681D01*
X151589591Y-113072784D01*
X151607433Y-113059821D01*
X151776221Y-112891033D01*
X151916527Y-112697919D01*
X152024895Y-112485234D01*
X152098658Y-112258215D01*
X152136000Y-112022451D01*
X152136000Y-111783749D01*
X152098658Y-111547985D01*
X152024895Y-111320966D01*
X151916527Y-111108281D01*
X151776221Y-110915167D01*
X151607433Y-110746379D01*
X151589592Y-110733417D01*
X151546928Y-110678090D01*
X151540947Y-110608477D01*
X151573552Y-110546681D01*
X151589591Y-110532784D01*
X151607433Y-110519821D01*
X151776221Y-110351033D01*
X151916527Y-110157919D01*
X152024895Y-109945234D01*
X152098658Y-109718215D01*
X152136000Y-109482451D01*
X152136000Y-109243749D01*
X152098658Y-109007985D01*
X152024895Y-108780966D01*
X151916527Y-108568281D01*
X151776221Y-108375167D01*
X151607433Y-108206379D01*
X151414319Y-108066073D01*
X151201634Y-107957705D01*
X150974615Y-107883942D01*
X150974613Y-107883941D01*
X150974611Y-107883941D01*
X150768954Y-107851368D01*
X150738851Y-107846600D01*
X150500149Y-107846600D01*
X150470046Y-107851368D01*
X150264388Y-107883941D01*
X150264387Y-107883941D01*
X150037363Y-107957706D01*
X149824680Y-108066073D01*
X149746365Y-108122973D01*
X149631567Y-108206379D01*
X149631565Y-108206381D01*
X149631564Y-108206381D01*
X149462781Y-108375164D01*
X149462776Y-108375170D01*
X149449816Y-108393008D01*
X149394485Y-108435672D01*
X149324871Y-108441650D01*
X149263077Y-108409042D01*
X149249184Y-108393008D01*
X149236223Y-108375170D01*
X149236218Y-108375164D01*
X149067435Y-108206381D01*
X149067433Y-108206379D01*
X148874319Y-108066073D01*
X148661634Y-107957705D01*
X148434615Y-107883942D01*
X148434613Y-107883941D01*
X148434611Y-107883941D01*
X148228954Y-107851368D01*
X148198851Y-107846600D01*
X147960149Y-107846600D01*
X147930046Y-107851368D01*
X147724388Y-107883941D01*
X147724387Y-107883941D01*
X147497363Y-107957706D01*
X147284680Y-108066073D01*
X147206365Y-108122973D01*
X147091567Y-108206379D01*
X147091565Y-108206381D01*
X147091564Y-108206381D01*
X146922781Y-108375164D01*
X146922776Y-108375170D01*
X146909816Y-108393008D01*
X146854485Y-108435672D01*
X146784871Y-108441650D01*
X146723077Y-108409042D01*
X146709184Y-108393008D01*
X146696223Y-108375170D01*
X146696218Y-108375164D01*
X146527435Y-108206381D01*
X146527433Y-108206379D01*
X146334319Y-108066073D01*
X146121634Y-107957705D01*
X145894615Y-107883942D01*
X145894613Y-107883941D01*
X145894611Y-107883941D01*
X145688954Y-107851368D01*
X145658851Y-107846600D01*
X145420149Y-107846600D01*
X145390046Y-107851368D01*
X145184388Y-107883941D01*
X145184387Y-107883941D01*
X144957363Y-107957706D01*
X144744680Y-108066073D01*
X144666365Y-108122973D01*
X144551567Y-108206379D01*
X144551565Y-108206381D01*
X144551564Y-108206381D01*
X144382781Y-108375164D01*
X144382781Y-108375165D01*
X144382779Y-108375167D01*
X144334476Y-108441650D01*
X144242473Y-108568280D01*
X144134106Y-108780963D01*
X144060341Y-109007987D01*
X144060341Y-109007988D01*
X144023000Y-109243749D01*
X128547488Y-109243749D01*
X128519158Y-109064885D01*
X128445395Y-108837866D01*
X128337027Y-108625181D01*
X128196721Y-108432067D01*
X128027933Y-108263279D01*
X127834819Y-108122973D01*
X127622134Y-108014605D01*
X127395115Y-107940842D01*
X127395113Y-107940841D01*
X127395111Y-107940841D01*
X127230498Y-107914768D01*
X127159351Y-107903500D01*
X126920649Y-107903500D01*
X126865995Y-107912156D01*
X126684888Y-107940841D01*
X126684887Y-107940841D01*
X126457863Y-108014606D01*
X126245180Y-108122973D01*
X126135002Y-108203022D01*
X126052067Y-108263279D01*
X126052065Y-108263281D01*
X126052064Y-108263281D01*
X125883281Y-108432064D01*
X125883276Y-108432070D01*
X125870316Y-108449908D01*
X125814985Y-108492572D01*
X125745371Y-108498550D01*
X125683577Y-108465942D01*
X125669684Y-108449908D01*
X125656723Y-108432070D01*
X125656718Y-108432064D01*
X125487935Y-108263281D01*
X125487933Y-108263279D01*
X125294819Y-108122973D01*
X125082134Y-108014605D01*
X124855115Y-107940842D01*
X124855113Y-107940841D01*
X124855111Y-107940841D01*
X124690498Y-107914768D01*
X124619351Y-107903500D01*
X124380649Y-107903500D01*
X124325995Y-107912156D01*
X124144888Y-107940841D01*
X124144887Y-107940841D01*
X123917863Y-108014606D01*
X123705180Y-108122973D01*
X123595002Y-108203022D01*
X123512067Y-108263279D01*
X123512065Y-108263281D01*
X123512064Y-108263281D01*
X123343281Y-108432064D01*
X123343276Y-108432070D01*
X123330316Y-108449908D01*
X123274985Y-108492572D01*
X123205371Y-108498550D01*
X123143577Y-108465942D01*
X123129684Y-108449908D01*
X123116723Y-108432070D01*
X123116718Y-108432064D01*
X122947935Y-108263281D01*
X122947933Y-108263279D01*
X122754819Y-108122973D01*
X122542134Y-108014605D01*
X122315115Y-107940842D01*
X122315113Y-107940841D01*
X122315111Y-107940841D01*
X122150498Y-107914768D01*
X122079351Y-107903500D01*
X121840649Y-107903500D01*
X121785995Y-107912156D01*
X121604888Y-107940841D01*
X121604887Y-107940841D01*
X121377863Y-108014606D01*
X121165180Y-108122973D01*
X121055002Y-108203022D01*
X120972067Y-108263279D01*
X120972065Y-108263281D01*
X120972064Y-108263281D01*
X120803281Y-108432064D01*
X120803281Y-108432065D01*
X120803279Y-108432067D01*
X120754976Y-108498550D01*
X120662973Y-108625180D01*
X120554606Y-108837863D01*
X120480841Y-109064887D01*
X120480841Y-109064888D01*
X120443500Y-109300649D01*
X118500500Y-109300649D01*
X118500500Y-107381902D01*
X130999500Y-107381902D01*
X130999500Y-107618097D01*
X131036446Y-107851368D01*
X131109433Y-108075996D01*
X131175867Y-108206379D01*
X131216657Y-108286433D01*
X131355483Y-108477510D01*
X131522490Y-108644517D01*
X131713567Y-108783343D01*
X131812991Y-108834002D01*
X131924003Y-108890566D01*
X131924005Y-108890566D01*
X131924008Y-108890568D01*
X132044412Y-108929689D01*
X132148631Y-108963553D01*
X132381903Y-109000500D01*
X132381908Y-109000500D01*
X132618097Y-109000500D01*
X132851368Y-108963553D01*
X133075992Y-108890568D01*
X133286433Y-108783343D01*
X133477510Y-108644517D01*
X133644517Y-108477510D01*
X133783343Y-108286433D01*
X133890568Y-108075992D01*
X133963553Y-107851368D01*
X133964308Y-107846600D01*
X134000500Y-107618097D01*
X134000500Y-107381902D01*
X139249500Y-107381902D01*
X139249500Y-107618097D01*
X139286446Y-107851368D01*
X139359433Y-108075996D01*
X139425867Y-108206379D01*
X139466657Y-108286433D01*
X139605483Y-108477510D01*
X139772490Y-108644517D01*
X139963567Y-108783343D01*
X140062991Y-108834002D01*
X140174003Y-108890566D01*
X140174005Y-108890566D01*
X140174008Y-108890568D01*
X140294412Y-108929689D01*
X140398631Y-108963553D01*
X140631903Y-109000500D01*
X140631908Y-109000500D01*
X140868097Y-109000500D01*
X141101368Y-108963553D01*
X141325992Y-108890568D01*
X141536433Y-108783343D01*
X141727510Y-108644517D01*
X141894517Y-108477510D01*
X142033343Y-108286433D01*
X142140568Y-108075992D01*
X142213553Y-107851368D01*
X142214308Y-107846600D01*
X142250500Y-107618097D01*
X142250500Y-107381902D01*
X142213553Y-107148631D01*
X142140566Y-106924003D01*
X142033342Y-106713566D01*
X141894517Y-106522490D01*
X141727510Y-106355483D01*
X141536433Y-106216657D01*
X141325996Y-106109433D01*
X141101368Y-106036446D01*
X140868097Y-105999500D01*
X140868092Y-105999500D01*
X140631908Y-105999500D01*
X140631903Y-105999500D01*
X140398631Y-106036446D01*
X140174003Y-106109433D01*
X139963566Y-106216657D01*
X139871417Y-106283608D01*
X139772490Y-106355483D01*
X139772488Y-106355485D01*
X139772487Y-106355485D01*
X139605485Y-106522487D01*
X139605485Y-106522488D01*
X139605483Y-106522490D01*
X139561518Y-106583003D01*
X139466657Y-106713566D01*
X139359433Y-106924003D01*
X139286446Y-107148631D01*
X139249500Y-107381902D01*
X134000500Y-107381902D01*
X133963553Y-107148631D01*
X133890566Y-106924003D01*
X133783342Y-106713566D01*
X133644517Y-106522490D01*
X133477510Y-106355483D01*
X133286433Y-106216657D01*
X133075996Y-106109433D01*
X132851368Y-106036446D01*
X132618097Y-105999500D01*
X132618092Y-105999500D01*
X132381908Y-105999500D01*
X132381903Y-105999500D01*
X132148631Y-106036446D01*
X131924003Y-106109433D01*
X131713566Y-106216657D01*
X131621417Y-106283608D01*
X131522490Y-106355483D01*
X131522488Y-106355485D01*
X131522487Y-106355485D01*
X131355485Y-106522487D01*
X131355485Y-106522488D01*
X131355483Y-106522490D01*
X131311518Y-106583003D01*
X131216657Y-106713566D01*
X131109433Y-106924003D01*
X131036446Y-107148631D01*
X130999500Y-107381902D01*
X118500500Y-107381902D01*
X118500500Y-107124000D01*
X118520185Y-107056961D01*
X118572989Y-107011206D01*
X118624500Y-107000000D01*
X126000000Y-107000000D01*
X126000000Y-102631902D01*
X140999500Y-102631902D01*
X140999500Y-102868097D01*
X141036446Y-103101368D01*
X141109433Y-103325996D01*
X141216657Y-103536433D01*
X141355483Y-103727510D01*
X141522490Y-103894517D01*
X141713567Y-104033343D01*
X141812991Y-104084002D01*
X141924003Y-104140566D01*
X141924005Y-104140566D01*
X141924008Y-104140568D01*
X142044412Y-104179689D01*
X142148631Y-104213553D01*
X142381903Y-104250500D01*
X142381908Y-104250500D01*
X142618097Y-104250500D01*
X142851368Y-104213553D01*
X143075992Y-104140568D01*
X143286433Y-104033343D01*
X143477510Y-103894517D01*
X143644517Y-103727510D01*
X143783343Y-103536433D01*
X143890568Y-103325992D01*
X143963553Y-103101368D01*
X144000500Y-102868097D01*
X144000500Y-102631902D01*
X143963553Y-102398631D01*
X143890566Y-102174003D01*
X143783342Y-101963566D01*
X143644517Y-101772490D01*
X143477510Y-101605483D01*
X143286433Y-101466657D01*
X143075996Y-101359433D01*
X142851368Y-101286446D01*
X142618097Y-101249500D01*
X142618092Y-101249500D01*
X142381908Y-101249500D01*
X142381903Y-101249500D01*
X142148631Y-101286446D01*
X141924003Y-101359433D01*
X141713566Y-101466657D01*
X141604550Y-101545862D01*
X141522490Y-101605483D01*
X141522488Y-101605485D01*
X141522487Y-101605485D01*
X141355485Y-101772487D01*
X141355485Y-101772488D01*
X141355483Y-101772490D01*
X141295862Y-101854550D01*
X141216657Y-101963566D01*
X141109433Y-102174003D01*
X141036446Y-102398631D01*
X140999500Y-102631902D01*
X126000000Y-102631902D01*
X126000000Y-95000000D01*
X115624500Y-95000000D01*
X115557461Y-94980315D01*
X115511706Y-94927511D01*
X115500500Y-94876000D01*
X115500500Y-91631947D01*
X122250000Y-91631947D01*
X122250000Y-91868052D01*
X122286934Y-92101247D01*
X122359897Y-92325802D01*
X122467087Y-92536174D01*
X122527338Y-92619104D01*
X122527340Y-92619105D01*
X123267037Y-91879408D01*
X123284075Y-91942993D01*
X123349901Y-92057007D01*
X123442993Y-92150099D01*
X123557007Y-92215925D01*
X123620590Y-92232962D01*
X122880893Y-92972658D01*
X122963828Y-93032914D01*
X123174197Y-93140102D01*
X123398752Y-93213065D01*
X123398751Y-93213065D01*
X123631948Y-93250000D01*
X123868052Y-93250000D01*
X124101247Y-93213065D01*
X124325802Y-93140102D01*
X124536163Y-93032918D01*
X124536169Y-93032914D01*
X124619104Y-92972658D01*
X124619105Y-92972658D01*
X123879408Y-92232962D01*
X123942993Y-92215925D01*
X124057007Y-92150099D01*
X124150099Y-92057007D01*
X124215925Y-91942993D01*
X124232962Y-91879409D01*
X124972658Y-92619105D01*
X124972658Y-92619104D01*
X125032914Y-92536169D01*
X125032918Y-92536163D01*
X125140102Y-92325802D01*
X125213065Y-92101247D01*
X125250000Y-91868052D01*
X125250000Y-91631947D01*
X125249993Y-91631902D01*
X128749500Y-91631902D01*
X128749500Y-91868097D01*
X128786446Y-92101368D01*
X128859433Y-92325996D01*
X128965082Y-92533342D01*
X128966657Y-92536433D01*
X129105483Y-92727510D01*
X129272490Y-92894517D01*
X129463567Y-93033343D01*
X129562991Y-93084002D01*
X129674003Y-93140566D01*
X129674005Y-93140566D01*
X129674008Y-93140568D01*
X129794412Y-93179689D01*
X129898631Y-93213553D01*
X130131903Y-93250500D01*
X130131908Y-93250500D01*
X130368097Y-93250500D01*
X130601368Y-93213553D01*
X130602870Y-93213065D01*
X130825992Y-93140568D01*
X131036433Y-93033343D01*
X131227510Y-92894517D01*
X131394517Y-92727510D01*
X131533343Y-92536433D01*
X131640568Y-92325992D01*
X131713553Y-92101368D01*
X131723838Y-92036433D01*
X131750500Y-91868097D01*
X131750500Y-91631902D01*
X131713553Y-91398631D01*
X131641140Y-91175769D01*
X131640568Y-91174008D01*
X131640566Y-91174005D01*
X131640566Y-91174003D01*
X131619114Y-91131902D01*
X138499500Y-91131902D01*
X138499500Y-91368097D01*
X138536446Y-91601368D01*
X138609433Y-91825996D01*
X138716657Y-92036433D01*
X138855483Y-92227510D01*
X139022490Y-92394517D01*
X139213567Y-92533343D01*
X139312991Y-92584002D01*
X139424003Y-92640566D01*
X139424005Y-92640566D01*
X139424008Y-92640568D01*
X139544412Y-92679689D01*
X139648631Y-92713553D01*
X139881903Y-92750500D01*
X139881908Y-92750500D01*
X140118097Y-92750500D01*
X140351368Y-92713553D01*
X140575992Y-92640568D01*
X140786433Y-92533343D01*
X140977510Y-92394517D01*
X141144517Y-92227510D01*
X141283343Y-92036433D01*
X141390568Y-91825992D01*
X141463553Y-91601368D01*
X141469941Y-91561038D01*
X141920500Y-91561038D01*
X141920500Y-91759759D01*
X141951587Y-91956036D01*
X142012993Y-92145028D01*
X142012994Y-92145031D01*
X142103213Y-92322093D01*
X142220019Y-92482863D01*
X142360536Y-92623380D01*
X142521306Y-92740186D01*
X142608149Y-92784434D01*
X142698367Y-92830404D01*
X142698370Y-92830405D01*
X142792866Y-92861108D01*
X142887364Y-92891812D01*
X143083639Y-92922899D01*
X143083640Y-92922899D01*
X143282360Y-92922899D01*
X143282361Y-92922899D01*
X143478636Y-92891812D01*
X143667632Y-92830404D01*
X143844694Y-92740186D01*
X144005464Y-92623380D01*
X144145981Y-92482863D01*
X144262787Y-92322093D01*
X144353005Y-92145031D01*
X144414413Y-91956035D01*
X144445500Y-91759760D01*
X144445500Y-91561038D01*
X144920499Y-91561038D01*
X144920499Y-91759759D01*
X144951586Y-91956036D01*
X145012992Y-92145028D01*
X145012993Y-92145031D01*
X145103212Y-92322093D01*
X145220018Y-92482863D01*
X145360535Y-92623380D01*
X145521305Y-92740186D01*
X145608148Y-92784434D01*
X145698366Y-92830404D01*
X145698369Y-92830405D01*
X145792865Y-92861108D01*
X145887363Y-92891812D01*
X146083638Y-92922899D01*
X146083639Y-92922899D01*
X146282359Y-92922899D01*
X146282360Y-92922899D01*
X146478635Y-92891812D01*
X146667631Y-92830404D01*
X146844693Y-92740186D01*
X147005463Y-92623380D01*
X147145980Y-92482863D01*
X147262786Y-92322093D01*
X147353004Y-92145031D01*
X147414412Y-91956035D01*
X147445499Y-91759760D01*
X147445499Y-91561038D01*
X147414412Y-91364763D01*
X147353004Y-91175767D01*
X147353004Y-91175766D01*
X147262785Y-90998704D01*
X147145980Y-90837935D01*
X147005463Y-90697418D01*
X146844693Y-90580612D01*
X146667631Y-90490393D01*
X146667628Y-90490392D01*
X146478636Y-90428986D01*
X146380497Y-90413442D01*
X146282360Y-90397899D01*
X146083638Y-90397899D01*
X146018213Y-90408261D01*
X145887361Y-90428986D01*
X145698369Y-90490392D01*
X145698366Y-90490393D01*
X145521304Y-90580612D01*
X145360532Y-90697420D01*
X145220020Y-90837932D01*
X145103212Y-90998704D01*
X145012993Y-91175766D01*
X145012992Y-91175769D01*
X144951586Y-91364761D01*
X144920499Y-91561038D01*
X144445500Y-91561038D01*
X144414413Y-91364763D01*
X144353005Y-91175767D01*
X144353005Y-91175766D01*
X144262786Y-90998704D01*
X144145981Y-90837935D01*
X144005464Y-90697418D01*
X143844694Y-90580612D01*
X143667632Y-90490393D01*
X143667629Y-90490392D01*
X143478637Y-90428986D01*
X143380498Y-90413442D01*
X143282361Y-90397899D01*
X143083639Y-90397899D01*
X143018214Y-90408261D01*
X142887362Y-90428986D01*
X142698370Y-90490392D01*
X142698367Y-90490393D01*
X142521305Y-90580612D01*
X142360533Y-90697420D01*
X142220021Y-90837932D01*
X142103213Y-90998704D01*
X142012994Y-91175766D01*
X142012993Y-91175769D01*
X141951587Y-91364761D01*
X141920500Y-91561038D01*
X141469941Y-91561038D01*
X141473785Y-91536768D01*
X141500500Y-91368097D01*
X141500500Y-91131902D01*
X141463553Y-90898631D01*
X141390566Y-90674003D01*
X141297012Y-90490394D01*
X141283343Y-90463567D01*
X141144517Y-90272490D01*
X140977510Y-90105483D01*
X140786433Y-89966657D01*
X140575996Y-89859433D01*
X140351368Y-89786446D01*
X140118097Y-89749500D01*
X140118092Y-89749500D01*
X139881908Y-89749500D01*
X139881903Y-89749500D01*
X139648631Y-89786446D01*
X139424003Y-89859433D01*
X139213566Y-89966657D01*
X139121783Y-90033342D01*
X139022490Y-90105483D01*
X139022488Y-90105485D01*
X139022487Y-90105485D01*
X138855485Y-90272487D01*
X138855485Y-90272488D01*
X138855483Y-90272490D01*
X138845343Y-90286447D01*
X138716657Y-90463566D01*
X138609433Y-90674003D01*
X138536446Y-90898631D01*
X138499500Y-91131902D01*
X131619114Y-91131902D01*
X131584002Y-91062991D01*
X131533343Y-90963567D01*
X131394517Y-90772490D01*
X131227510Y-90605483D01*
X131036433Y-90466657D01*
X131030367Y-90463566D01*
X130825996Y-90359433D01*
X130601368Y-90286446D01*
X130368097Y-90249500D01*
X130368092Y-90249500D01*
X130131908Y-90249500D01*
X130131903Y-90249500D01*
X129898631Y-90286446D01*
X129674003Y-90359433D01*
X129463566Y-90466657D01*
X129380047Y-90527338D01*
X129272490Y-90605483D01*
X129272488Y-90605485D01*
X129272487Y-90605485D01*
X129105485Y-90772487D01*
X129105485Y-90772488D01*
X129105483Y-90772490D01*
X129057934Y-90837935D01*
X128966657Y-90963566D01*
X128859433Y-91174003D01*
X128786446Y-91398631D01*
X128749500Y-91631902D01*
X125249993Y-91631902D01*
X125213065Y-91398752D01*
X125140102Y-91174197D01*
X125032914Y-90963828D01*
X124972658Y-90880894D01*
X124972658Y-90880893D01*
X124232962Y-91620590D01*
X124215925Y-91557007D01*
X124150099Y-91442993D01*
X124057007Y-91349901D01*
X123942993Y-91284075D01*
X123879409Y-91267037D01*
X124619105Y-90527340D01*
X124619104Y-90527338D01*
X124536174Y-90467087D01*
X124325802Y-90359897D01*
X124101247Y-90286934D01*
X124101248Y-90286934D01*
X123868052Y-90250000D01*
X123631948Y-90250000D01*
X123398752Y-90286934D01*
X123174197Y-90359897D01*
X122963830Y-90467084D01*
X122880894Y-90527340D01*
X123620591Y-91267037D01*
X123557007Y-91284075D01*
X123442993Y-91349901D01*
X123349901Y-91442993D01*
X123284075Y-91557007D01*
X123267037Y-91620591D01*
X122527340Y-90880894D01*
X122467084Y-90963830D01*
X122359897Y-91174197D01*
X122286934Y-91398752D01*
X122250000Y-91631947D01*
X115500500Y-91631947D01*
X115500500Y-88631902D01*
X133499500Y-88631902D01*
X133499500Y-88868097D01*
X133536446Y-89101368D01*
X133609433Y-89325996D01*
X133671048Y-89446921D01*
X133716657Y-89536433D01*
X133855483Y-89727510D01*
X134022490Y-89894517D01*
X134213567Y-90033343D01*
X134312991Y-90084002D01*
X134424003Y-90140566D01*
X134424005Y-90140566D01*
X134424008Y-90140568D01*
X134544412Y-90179689D01*
X134648631Y-90213553D01*
X134881903Y-90250500D01*
X134881908Y-90250500D01*
X135118097Y-90250500D01*
X135351368Y-90213553D01*
X135575992Y-90140568D01*
X135786433Y-90033343D01*
X135977510Y-89894517D01*
X136144517Y-89727510D01*
X136283343Y-89536433D01*
X136390568Y-89325992D01*
X136463553Y-89101368D01*
X136478447Y-89007330D01*
X136500500Y-88868097D01*
X136500500Y-88631902D01*
X136491577Y-88575565D01*
X136489276Y-88561039D01*
X141920500Y-88561039D01*
X141920500Y-88759760D01*
X141951587Y-88956037D01*
X142012993Y-89145029D01*
X142012994Y-89145032D01*
X142103076Y-89321825D01*
X142103213Y-89322094D01*
X142220019Y-89482864D01*
X142360536Y-89623381D01*
X142521306Y-89740187D01*
X142539584Y-89749500D01*
X142698367Y-89830405D01*
X142698370Y-89830406D01*
X142787705Y-89859432D01*
X142887364Y-89891813D01*
X143083639Y-89922900D01*
X143083640Y-89922900D01*
X143282360Y-89922900D01*
X143282361Y-89922900D01*
X143478636Y-89891813D01*
X143667632Y-89830405D01*
X143844694Y-89740187D01*
X144005464Y-89623381D01*
X144145981Y-89482864D01*
X144262787Y-89322094D01*
X144353005Y-89145032D01*
X144414413Y-88956036D01*
X144445500Y-88759761D01*
X144445500Y-88561078D01*
X144920999Y-88561078D01*
X144920999Y-88759721D01*
X144952074Y-88955920D01*
X144952074Y-88955923D01*
X145013456Y-89144837D01*
X145103640Y-89321832D01*
X145130729Y-89359115D01*
X145130730Y-89359116D01*
X145693503Y-88796342D01*
X145709618Y-88856481D01*
X145776497Y-88972320D01*
X145871079Y-89066902D01*
X145986918Y-89133781D01*
X146047056Y-89149894D01*
X145484282Y-89712668D01*
X145484282Y-89712669D01*
X145521566Y-89739758D01*
X145698561Y-89829942D01*
X145887476Y-89891324D01*
X146083678Y-89922400D01*
X146282320Y-89922400D01*
X146478519Y-89891324D01*
X146478522Y-89891324D01*
X146667436Y-89829942D01*
X146844424Y-89739762D01*
X146881715Y-89712668D01*
X146318941Y-89149894D01*
X146379080Y-89133781D01*
X146494919Y-89066902D01*
X146589501Y-88972320D01*
X146656380Y-88856481D01*
X146672494Y-88796342D01*
X147235267Y-89359115D01*
X147262361Y-89321825D01*
X147352541Y-89144837D01*
X147413923Y-88955923D01*
X147413923Y-88955920D01*
X147444999Y-88759721D01*
X147444999Y-88561082D01*
X147444738Y-88559435D01*
X147444738Y-88559432D01*
X147442307Y-88544085D01*
X148708501Y-88544085D01*
X148708501Y-88776714D01*
X148720532Y-88868092D01*
X148738864Y-89007330D01*
X148768966Y-89119674D01*
X148799069Y-89232020D01*
X148888084Y-89446921D01*
X148888089Y-89446932D01*
X149004388Y-89648366D01*
X149004399Y-89648382D01*
X149145997Y-89832917D01*
X149146003Y-89832924D01*
X149310476Y-89997397D01*
X149310482Y-89997402D01*
X149495027Y-90139008D01*
X149495034Y-90139012D01*
X149696468Y-90255311D01*
X149696473Y-90255313D01*
X149696476Y-90255315D01*
X149803929Y-90299823D01*
X149911380Y-90344331D01*
X149911381Y-90344331D01*
X149911383Y-90344332D01*
X150136071Y-90404537D01*
X150366694Y-90434900D01*
X150366701Y-90434900D01*
X150599301Y-90434900D01*
X150599308Y-90434900D01*
X150829931Y-90404537D01*
X151054619Y-90344332D01*
X151269526Y-90255315D01*
X151470975Y-90139008D01*
X151655520Y-89997402D01*
X151820003Y-89832919D01*
X151961609Y-89648374D01*
X152077916Y-89446925D01*
X152166933Y-89232018D01*
X152227138Y-89007330D01*
X152257501Y-88776707D01*
X152257501Y-88544093D01*
X152227138Y-88313470D01*
X152166933Y-88088782D01*
X152129622Y-87998706D01*
X152077917Y-87873878D01*
X152077912Y-87873867D01*
X151961613Y-87672433D01*
X151961609Y-87672426D01*
X151912272Y-87608129D01*
X151820004Y-87487882D01*
X151819998Y-87487875D01*
X151655525Y-87323402D01*
X151655518Y-87323396D01*
X151470983Y-87181798D01*
X151470981Y-87181796D01*
X151470975Y-87181792D01*
X151470970Y-87181789D01*
X151470967Y-87181787D01*
X151269533Y-87065488D01*
X151269522Y-87065483D01*
X151054621Y-86976468D01*
X150942275Y-86946365D01*
X150829931Y-86916263D01*
X150778681Y-86909515D01*
X150599315Y-86885900D01*
X150599308Y-86885900D01*
X150366694Y-86885900D01*
X150366686Y-86885900D01*
X150161695Y-86912889D01*
X150136071Y-86916263D01*
X150111298Y-86922901D01*
X149911380Y-86976468D01*
X149696479Y-87065483D01*
X149696468Y-87065488D01*
X149495034Y-87181787D01*
X149495018Y-87181798D01*
X149310483Y-87323396D01*
X149310476Y-87323402D01*
X149146003Y-87487875D01*
X149145997Y-87487882D01*
X149004399Y-87672417D01*
X149004388Y-87672433D01*
X148888089Y-87873867D01*
X148888084Y-87873878D01*
X148799069Y-88088779D01*
X148738864Y-88313471D01*
X148708501Y-88544085D01*
X147442307Y-88544085D01*
X147413923Y-88364879D01*
X147413923Y-88364876D01*
X147352541Y-88175962D01*
X147262357Y-87998967D01*
X147235267Y-87961683D01*
X146672493Y-88524457D01*
X146656380Y-88464319D01*
X146589501Y-88348480D01*
X146494919Y-88253898D01*
X146379080Y-88187019D01*
X146318941Y-88170904D01*
X146881715Y-87608131D01*
X146881714Y-87608130D01*
X146844431Y-87581041D01*
X146667436Y-87490857D01*
X146478521Y-87429475D01*
X146282320Y-87398400D01*
X146083678Y-87398400D01*
X145887478Y-87429475D01*
X145887475Y-87429475D01*
X145698561Y-87490857D01*
X145521563Y-87581043D01*
X145484282Y-87608129D01*
X145484281Y-87608130D01*
X146047057Y-88170904D01*
X145986918Y-88187019D01*
X145871079Y-88253898D01*
X145776497Y-88348480D01*
X145709618Y-88464319D01*
X145693503Y-88524457D01*
X145130729Y-87961682D01*
X145130728Y-87961683D01*
X145103642Y-87998964D01*
X145013456Y-88175962D01*
X144952074Y-88364876D01*
X144952074Y-88364879D01*
X144920999Y-88561078D01*
X144445500Y-88561078D01*
X144445500Y-88561039D01*
X144414413Y-88364764D01*
X144353005Y-88175768D01*
X144353005Y-88175767D01*
X144307035Y-88085549D01*
X144262787Y-87998706D01*
X144145981Y-87837936D01*
X144005464Y-87697419D01*
X143844694Y-87580613D01*
X143667632Y-87490394D01*
X143667629Y-87490393D01*
X143478637Y-87428987D01*
X143380498Y-87413443D01*
X143282361Y-87397900D01*
X143083639Y-87397900D01*
X143018214Y-87408262D01*
X142887362Y-87428987D01*
X142698370Y-87490393D01*
X142698367Y-87490394D01*
X142521305Y-87580613D01*
X142360533Y-87697421D01*
X142220021Y-87837933D01*
X142103213Y-87998705D01*
X142012994Y-88175767D01*
X142012993Y-88175770D01*
X141951587Y-88364762D01*
X141920500Y-88561039D01*
X136489276Y-88561039D01*
X136463553Y-88398631D01*
X136416526Y-88253898D01*
X136390568Y-88174008D01*
X136390566Y-88174005D01*
X136390566Y-88174003D01*
X136301380Y-87998967D01*
X136283343Y-87963567D01*
X136144517Y-87772490D01*
X135977510Y-87605483D01*
X135786433Y-87466657D01*
X135575996Y-87359433D01*
X135351368Y-87286446D01*
X135118097Y-87249500D01*
X135118092Y-87249500D01*
X134881908Y-87249500D01*
X134881903Y-87249500D01*
X134648631Y-87286446D01*
X134424003Y-87359433D01*
X134213566Y-87466657D01*
X134104550Y-87545862D01*
X134022490Y-87605483D01*
X134022488Y-87605485D01*
X134022487Y-87605485D01*
X133855485Y-87772487D01*
X133855485Y-87772488D01*
X133855483Y-87772490D01*
X133807936Y-87837933D01*
X133716657Y-87963566D01*
X133609433Y-88174003D01*
X133536446Y-88398631D01*
X133499500Y-88631902D01*
X115500500Y-88631902D01*
X115500500Y-85561040D01*
X141920500Y-85561040D01*
X141920500Y-85759761D01*
X141951587Y-85956038D01*
X142012993Y-86145030D01*
X142012994Y-86145033D01*
X142103213Y-86322095D01*
X142220019Y-86482865D01*
X142360536Y-86623382D01*
X142521306Y-86740188D01*
X142608149Y-86784436D01*
X142698367Y-86830406D01*
X142698370Y-86830407D01*
X142792866Y-86861110D01*
X142887364Y-86891814D01*
X143083639Y-86922901D01*
X143083640Y-86922901D01*
X143282360Y-86922901D01*
X143282361Y-86922901D01*
X143478636Y-86891814D01*
X143667632Y-86830406D01*
X143844694Y-86740188D01*
X144005464Y-86623382D01*
X144145981Y-86482865D01*
X144262787Y-86322095D01*
X144353005Y-86145033D01*
X144414413Y-85956037D01*
X144445500Y-85759762D01*
X144445500Y-85561040D01*
X144920499Y-85561040D01*
X144920499Y-85759761D01*
X144951586Y-85956038D01*
X145012992Y-86145030D01*
X145012993Y-86145033D01*
X145103212Y-86322095D01*
X145220018Y-86482865D01*
X145360535Y-86623382D01*
X145521305Y-86740188D01*
X145608148Y-86784436D01*
X145698366Y-86830406D01*
X145698369Y-86830407D01*
X145792865Y-86861110D01*
X145887363Y-86891814D01*
X146083638Y-86922901D01*
X146083639Y-86922901D01*
X146282359Y-86922901D01*
X146282360Y-86922901D01*
X146478635Y-86891814D01*
X146667631Y-86830406D01*
X146844693Y-86740188D01*
X147005463Y-86623382D01*
X147145980Y-86482865D01*
X147262786Y-86322095D01*
X147353004Y-86145033D01*
X147414412Y-85956037D01*
X147445499Y-85759762D01*
X147445499Y-85561040D01*
X147414412Y-85364765D01*
X147353004Y-85175769D01*
X147353004Y-85175768D01*
X147262785Y-84998706D01*
X147145980Y-84837937D01*
X147005463Y-84697420D01*
X146844693Y-84580614D01*
X146667631Y-84490395D01*
X146667628Y-84490394D01*
X146478636Y-84428988D01*
X146380497Y-84413444D01*
X146282360Y-84397901D01*
X146083638Y-84397901D01*
X146018213Y-84408263D01*
X145887361Y-84428988D01*
X145698369Y-84490394D01*
X145698366Y-84490395D01*
X145521304Y-84580614D01*
X145360532Y-84697422D01*
X145220020Y-84837934D01*
X145103212Y-84998706D01*
X145012993Y-85175768D01*
X145012992Y-85175771D01*
X144951586Y-85364763D01*
X144920499Y-85561040D01*
X144445500Y-85561040D01*
X144414413Y-85364765D01*
X144353005Y-85175769D01*
X144353005Y-85175768D01*
X144262786Y-84998706D01*
X144145981Y-84837937D01*
X144005464Y-84697420D01*
X143844694Y-84580614D01*
X143667632Y-84490395D01*
X143667629Y-84490394D01*
X143478637Y-84428988D01*
X143380498Y-84413444D01*
X143282361Y-84397901D01*
X143083639Y-84397901D01*
X143018214Y-84408263D01*
X142887362Y-84428988D01*
X142698370Y-84490394D01*
X142698367Y-84490395D01*
X142521305Y-84580614D01*
X142360533Y-84697422D01*
X142220021Y-84837934D01*
X142103213Y-84998706D01*
X142012994Y-85175768D01*
X142012993Y-85175771D01*
X141951587Y-85364763D01*
X141920500Y-85561040D01*
X115500500Y-85561040D01*
X115500500Y-82374000D01*
X115520185Y-82306961D01*
X115572989Y-82261206D01*
X115624500Y-82250000D01*
X157125500Y-82250000D01*
X157192539Y-82269685D01*
G37*
%TD.AperFunction*%
%TD*%
M02*
