ISO-10303-21;
HEADER;
FILE_DESCRIPTION((''),'2;1');
FILE_NAME('2125280200','2020-12-11T',('gga'),(''),
'PRO/ENGINEER BY PARAMETRIC TECHNOLOGY CORPORATION, 2016010',
'PRO/ENGINEER BY PARAMETRIC TECHNOLOGY CORPORATION, 2016010','');
FILE_SCHEMA(('CONFIG_CONTROL_DESIGN'));
ENDSEC;
DATA;
#1=DIRECTION('',(-1.E0,0.E0,0.E0));
#2=VECTOR('',#1,3.85E0);
#3=CARTESIAN_POINT('',(1.925E0,0.E0,0.E0));
#4=LINE('',#3,#2);
#5=DIRECTION('',(0.E0,1.E0,0.E0));
#6=VECTOR('',#5,6.86E0);
#7=CARTESIAN_POINT('',(-1.925E0,0.E0,0.E0));
#8=LINE('',#7,#6);
#9=DIRECTION('',(1.E0,0.E0,0.E0));
#10=VECTOR('',#9,3.85E0);
#11=CARTESIAN_POINT('',(-1.925E0,6.86E0,0.E0));
#12=LINE('',#11,#10);
#13=DIRECTION('',(0.E0,-1.E0,0.E0));
#14=VECTOR('',#13,6.86E0);
#15=CARTESIAN_POINT('',(1.925E0,6.86E0,0.E0));
#16=LINE('',#15,#14);
#17=DIRECTION('',(1.E0,0.E0,0.E0));
#18=VECTOR('',#17,1.89E0);
#19=CARTESIAN_POINT('',(-1.27E0,6.6E-1,0.E0));
#20=LINE('',#19,#18);
#21=DIRECTION('',(-7.071067811865E-1,-7.071067811865E-1,0.E0));
#22=VECTOR('',#21,9.192388155425E-1);
#23=CARTESIAN_POINT('',(1.27E0,1.31E0,0.E0));
#24=LINE('',#23,#22);
#25=DIRECTION('',(-1.E0,0.E0,0.E0));
#26=VECTOR('',#25,2.54E0);
#27=CARTESIAN_POINT('',(1.27E0,6.2E0,0.E0));
#28=LINE('',#27,#26);
#29=DIRECTION('',(0.E0,-1.E0,0.E0));
#30=VECTOR('',#29,1.89E0);
#31=CARTESIAN_POINT('',(-1.27E0,6.2E0,0.E0));
#32=LINE('',#31,#30);
#33=DIRECTION('',(-7.071067811865E-1,7.071067811865E-1,0.E0));
#34=VECTOR('',#33,9.192388155425E-1);
#35=CARTESIAN_POINT('',(-6.2E-1,3.66E0,0.E0));
#36=LINE('',#35,#34);
#37=DIRECTION('',(1.E0,0.E0,0.E0));
#38=VECTOR('',#37,1.1825E0);
#39=CARTESIAN_POINT('',(-6.2E-1,3.66E0,0.E0));
#40=LINE('',#39,#38);
#41=DIRECTION('',(0.E0,-1.E0,0.E0));
#42=VECTOR('',#41,4.6E-1);
#43=CARTESIAN_POINT('',(5.625E-1,3.66E0,0.E0));
#44=LINE('',#43,#42);
#45=DIRECTION('',(-1.E0,0.E0,0.E0));
#46=VECTOR('',#45,1.8325E0);
#47=CARTESIAN_POINT('',(5.625E-1,3.2E0,0.E0));
#48=LINE('',#47,#46);
#49=DIRECTION('',(0.E0,-1.E0,0.E0));
#50=VECTOR('',#49,2.54E0);
#51=CARTESIAN_POINT('',(-1.27E0,3.2E0,0.E0));
#52=LINE('',#51,#50);
#53=DIRECTION('',(0.E0,0.E0,-1.E0));
#54=VECTOR('',#53,9.91E0);
#55=CARTESIAN_POINT('',(1.925E0,0.E0,0.E0));
#56=LINE('',#55,#54);
#57=DIRECTION('',(0.E0,0.E0,-1.E0));
#58=VECTOR('',#57,6.46E0);
#59=CARTESIAN_POINT('',(4.75E-1,0.E0,-1.6E0));
#60=LINE('',#59,#58);
#61=DIRECTION('',(1.E0,0.E0,0.E0));
#62=VECTOR('',#61,1.E0);
#63=CARTESIAN_POINT('',(4.75E-1,0.E0,-8.06E0));
#64=LINE('',#63,#62);
#65=DIRECTION('',(0.E0,0.E0,1.E0));
#66=VECTOR('',#65,6.46E0);
#67=CARTESIAN_POINT('',(1.475E0,0.E0,-8.06E0));
#68=LINE('',#67,#66);
#69=DIRECTION('',(-1.E0,0.E0,0.E0));
#70=VECTOR('',#69,1.E0);
#71=CARTESIAN_POINT('',(1.475E0,0.E0,-1.6E0));
#72=LINE('',#71,#70);
#73=DIRECTION('',(0.E0,0.E0,1.E0));
#74=VECTOR('',#73,6.46E0);
#75=CARTESIAN_POINT('',(-4.75E-1,0.E0,-8.06E0));
#76=LINE('',#75,#74);
#77=DIRECTION('',(-1.E0,0.E0,0.E0));
#78=VECTOR('',#77,1.E0);
#79=CARTESIAN_POINT('',(-4.75E-1,0.E0,-1.6E0));
#80=LINE('',#79,#78);
#81=DIRECTION('',(0.E0,0.E0,-1.E0));
#82=VECTOR('',#81,6.46E0);
#83=CARTESIAN_POINT('',(-1.475E0,0.E0,-1.6E0));
#84=LINE('',#83,#82);
#85=DIRECTION('',(1.E0,0.E0,0.E0));
#86=VECTOR('',#85,1.E0);
#87=CARTESIAN_POINT('',(-1.475E0,0.E0,-8.06E0));
#88=LINE('',#87,#86);
#89=DIRECTION('',(0.E0,0.E0,1.E0));
#90=VECTOR('',#89,6.4E-1);
#91=CARTESIAN_POINT('',(3.2E-1,0.E0,-9.22E0));
#92=LINE('',#91,#90);
#93=DIRECTION('',(-1.E0,0.E0,0.E0));
#94=VECTOR('',#93,6.4E-1);
#95=CARTESIAN_POINT('',(3.2E-1,0.E0,-8.58E0));
#96=LINE('',#95,#94);
#97=DIRECTION('',(0.E0,0.E0,1.E0));
#98=VECTOR('',#97,6.4E-1);
#99=CARTESIAN_POINT('',(-3.2E-1,0.E0,-9.22E0));
#100=LINE('',#99,#98);
#101=DIRECTION('',(-1.E0,0.E0,0.E0));
#102=VECTOR('',#101,6.4E-1);
#103=CARTESIAN_POINT('',(3.2E-1,0.E0,-9.22E0));
#104=LINE('',#103,#102);
#105=DIRECTION('',(0.E0,0.E0,-1.E0));
#106=VECTOR('',#105,9.91E0);
#107=CARTESIAN_POINT('',(1.925E0,6.86E0,0.E0));
#108=LINE('',#107,#106);
#109=DIRECTION('',(0.E0,0.E0,-1.E0));
#110=VECTOR('',#109,9.91E0);
#111=CARTESIAN_POINT('',(-1.925E0,6.86E0,0.E0));
#112=LINE('',#111,#110);
#113=DIRECTION('',(0.E0,0.E0,-1.E0));
#114=VECTOR('',#113,2.41E0);
#115=CARTESIAN_POINT('',(-7.E-1,6.86E0,-5.4E-1));
#116=LINE('',#115,#114);
#117=DIRECTION('',(1.E0,0.E0,0.E0));
#118=VECTOR('',#117,1.4E0);
#119=CARTESIAN_POINT('',(-7.E-1,6.86E0,-5.4E-1));
#120=LINE('',#119,#118);
#121=DIRECTION('',(0.E0,0.E0,-1.E0));
#122=VECTOR('',#121,2.41E0);
#123=CARTESIAN_POINT('',(7.E-1,6.86E0,-5.4E-1));
#124=LINE('',#123,#122);
#125=DIRECTION('',(1.E0,0.E0,0.E0));
#126=VECTOR('',#125,1.4E0);
#127=CARTESIAN_POINT('',(-7.E-1,6.86E0,-2.95E0));
#128=LINE('',#127,#126);
#129=DIRECTION('',(0.E0,0.E0,-1.E0));
#130=VECTOR('',#129,9.91E0);
#131=CARTESIAN_POINT('',(-1.925E0,0.E0,0.E0));
#132=LINE('',#131,#130);
#133=DIRECTION('',(-1.E0,0.E0,0.E0));
#134=VECTOR('',#133,3.85E0);
#135=CARTESIAN_POINT('',(1.925E0,0.E0,-9.91E0));
#136=LINE('',#135,#134);
#137=DIRECTION('',(0.E0,-1.E0,0.E0));
#138=VECTOR('',#137,6.86E0);
#139=CARTESIAN_POINT('',(1.925E0,6.86E0,-9.91E0));
#140=LINE('',#139,#138);
#141=DIRECTION('',(1.E0,0.E0,0.E0));
#142=VECTOR('',#141,3.85E0);
#143=CARTESIAN_POINT('',(-1.925E0,6.86E0,-9.91E0));
#144=LINE('',#143,#142);
#145=DIRECTION('',(0.E0,1.E0,0.E0));
#146=VECTOR('',#145,6.86E0);
#147=CARTESIAN_POINT('',(-1.925E0,0.E0,-9.91E0));
#148=LINE('',#147,#146);
#149=DIRECTION('',(0.E0,1.E0,0.E0));
#150=VECTOR('',#149,6.4E-1);
#151=CARTESIAN_POINT('',(3.2E-1,4.61E0,-9.91E0));
#152=LINE('',#151,#150);
#153=DIRECTION('',(-1.E0,0.E0,0.E0));
#154=VECTOR('',#153,6.4E-1);
#155=CARTESIAN_POINT('',(3.2E-1,4.61E0,-9.91E0));
#156=LINE('',#155,#154);
#157=DIRECTION('',(0.E0,1.E0,0.E0));
#158=VECTOR('',#157,6.4E-1);
#159=CARTESIAN_POINT('',(-3.2E-1,4.61E0,-9.91E0));
#160=LINE('',#159,#158);
#161=DIRECTION('',(-1.E0,0.E0,0.E0));
#162=VECTOR('',#161,6.4E-1);
#163=CARTESIAN_POINT('',(3.2E-1,5.25E0,-9.91E0));
#164=LINE('',#163,#162);
#165=DIRECTION('',(0.E0,0.E0,-1.E0));
#166=VECTOR('',#165,2.27E0);
#167=CARTESIAN_POINT('',(3.2E-1,5.25E0,-9.91E0));
#168=LINE('',#167,#166);
#169=DIRECTION('',(0.E0,-1.E0,0.E0));
#170=VECTOR('',#169,8.97E0);
#171=CARTESIAN_POINT('',(3.2E-1,5.25E0,-1.218E1));
#172=LINE('',#171,#170);
#173=DIRECTION('',(0.E0,0.E0,1.E0));
#174=VECTOR('',#173,6.4E-1);
#175=CARTESIAN_POINT('',(3.2E-1,-3.72E0,-1.218E1));
#176=LINE('',#175,#174);
#177=DIRECTION('',(0.E0,1.E0,0.E0));
#178=VECTOR('',#177,8.33E0);
#179=CARTESIAN_POINT('',(3.2E-1,-3.72E0,-1.154E1));
#180=LINE('',#179,#178);
#181=DIRECTION('',(0.E0,0.E0,1.E0));
#182=VECTOR('',#181,1.63E0);
#183=CARTESIAN_POINT('',(3.2E-1,4.61E0,-1.154E1));
#184=LINE('',#183,#182);
#185=DIRECTION('',(0.E0,0.E0,1.E0));
#186=VECTOR('',#185,7.E-1);
#187=CARTESIAN_POINT('',(3.2E-1,1.61E0,-3.1E0));
#188=LINE('',#187,#186);
#189=DIRECTION('',(0.E0,1.E0,0.E0));
#190=VECTOR('',#189,6.4E-1);
#191=CARTESIAN_POINT('',(3.2E-1,1.61E0,-2.4E0));
#192=LINE('',#191,#190);
#193=DIRECTION('',(0.E0,0.E0,-1.E0));
#194=VECTOR('',#193,7.E-1);
#195=CARTESIAN_POINT('',(3.2E-1,2.25E0,-2.4E0));
#196=LINE('',#195,#194);
#197=DIRECTION('',(0.E0,0.E0,-1.E0));
#198=VECTOR('',#197,7.E-1);
#199=CARTESIAN_POINT('',(3.2E-1,5.25E0,-2.4E0));
#200=LINE('',#199,#198);
#201=DIRECTION('',(0.E0,0.E0,1.E0));
#202=VECTOR('',#201,7.E-1);
#203=CARTESIAN_POINT('',(3.2E-1,4.61E0,-3.1E0));
#204=LINE('',#203,#202);
#205=DIRECTION('',(0.E0,1.E0,0.E0));
#206=VECTOR('',#205,6.4E-1);
#207=CARTESIAN_POINT('',(3.2E-1,4.61E0,-2.4E0));
#208=LINE('',#207,#206);
#209=DIRECTION('',(0.E0,-1.E0,0.E0));
#210=VECTOR('',#209,3.72E0);
#211=CARTESIAN_POINT('',(3.2E-1,0.E0,-9.22E0));
#212=LINE('',#211,#210);
#213=DIRECTION('',(0.E0,0.E0,1.E0));
#214=VECTOR('',#213,6.4E-1);
#215=CARTESIAN_POINT('',(3.2E-1,-3.72E0,-9.22E0));
#216=LINE('',#215,#214);
#217=DIRECTION('',(0.E0,1.E0,0.E0));
#218=VECTOR('',#217,3.72E0);
#219=CARTESIAN_POINT('',(3.2E-1,-3.72E0,-8.58E0));
#220=LINE('',#219,#218);
#221=DIRECTION('',(-1.E0,0.E0,0.E0));
#222=VECTOR('',#221,6.4E-1);
#223=CARTESIAN_POINT('',(3.2E-1,5.25E0,-2.4E0));
#224=LINE('',#223,#222);
#225=DIRECTION('',(0.E0,0.E0,1.E0));
#226=VECTOR('',#225,1.63E0);
#227=CARTESIAN_POINT('',(-3.2E-1,4.61E0,-1.154E1));
#228=LINE('',#227,#226);
#229=DIRECTION('',(0.E0,1.E0,0.E0));
#230=VECTOR('',#229,8.33E0);
#231=CARTESIAN_POINT('',(-3.2E-1,-3.72E0,-1.154E1));
#232=LINE('',#231,#230);
#233=DIRECTION('',(0.E0,0.E0,1.E0));
#234=VECTOR('',#233,6.4E-1);
#235=CARTESIAN_POINT('',(-3.2E-1,-3.72E0,-1.218E1));
#236=LINE('',#235,#234);
#237=DIRECTION('',(0.E0,-1.E0,0.E0));
#238=VECTOR('',#237,8.97E0);
#239=CARTESIAN_POINT('',(-3.2E-1,5.25E0,-1.218E1));
#240=LINE('',#239,#238);
#241=DIRECTION('',(0.E0,0.E0,-1.E0));
#242=VECTOR('',#241,2.27E0);
#243=CARTESIAN_POINT('',(-3.2E-1,5.25E0,-9.91E0));
#244=LINE('',#243,#242);
#245=DIRECTION('',(0.E0,0.E0,-1.E0));
#246=VECTOR('',#245,7.E-1);
#247=CARTESIAN_POINT('',(-3.2E-1,2.25E0,-2.4E0));
#248=LINE('',#247,#246);
#249=DIRECTION('',(0.E0,1.E0,0.E0));
#250=VECTOR('',#249,6.4E-1);
#251=CARTESIAN_POINT('',(-3.2E-1,1.61E0,-2.4E0));
#252=LINE('',#251,#250);
#253=DIRECTION('',(0.E0,0.E0,1.E0));
#254=VECTOR('',#253,7.E-1);
#255=CARTESIAN_POINT('',(-3.2E-1,1.61E0,-3.1E0));
#256=LINE('',#255,#254);
#257=DIRECTION('',(0.E0,0.E0,-1.E0));
#258=VECTOR('',#257,7.E-1);
#259=CARTESIAN_POINT('',(-3.2E-1,5.25E0,-2.4E0));
#260=LINE('',#259,#258);
#261=DIRECTION('',(0.E0,1.E0,0.E0));
#262=VECTOR('',#261,6.4E-1);
#263=CARTESIAN_POINT('',(-3.2E-1,4.61E0,-2.4E0));
#264=LINE('',#263,#262);
#265=DIRECTION('',(0.E0,0.E0,1.E0));
#266=VECTOR('',#265,7.E-1);
#267=CARTESIAN_POINT('',(-3.2E-1,4.61E0,-3.1E0));
#268=LINE('',#267,#266);
#269=DIRECTION('',(0.E0,1.E0,0.E0));
#270=VECTOR('',#269,3.72E0);
#271=CARTESIAN_POINT('',(-3.2E-1,-3.72E0,-8.58E0));
#272=LINE('',#271,#270);
#273=DIRECTION('',(0.E0,0.E0,1.E0));
#274=VECTOR('',#273,6.4E-1);
#275=CARTESIAN_POINT('',(-3.2E-1,-3.72E0,-9.22E0));
#276=LINE('',#275,#274);
#277=DIRECTION('',(0.E0,-1.E0,0.E0));
#278=VECTOR('',#277,3.72E0);
#279=CARTESIAN_POINT('',(-3.2E-1,0.E0,-9.22E0));
#280=LINE('',#279,#278);
#281=DIRECTION('',(-1.E0,0.E0,0.E0));
#282=VECTOR('',#281,6.4E-1);
#283=CARTESIAN_POINT('',(3.2E-1,4.61E0,-1.154E1));
#284=LINE('',#283,#282);
#285=DIRECTION('',(-1.E0,0.E0,0.E0));
#286=VECTOR('',#285,6.4E-1);
#287=CARTESIAN_POINT('',(3.2E-1,-3.72E0,-1.154E1));
#288=LINE('',#287,#286);
#289=DIRECTION('',(-1.E0,0.E0,0.E0));
#290=VECTOR('',#289,6.4E-1);
#291=CARTESIAN_POINT('',(3.2E-1,-3.72E0,-1.218E1));
#292=LINE('',#291,#290);
#293=DIRECTION('',(-1.E0,0.E0,0.E0));
#294=VECTOR('',#293,6.4E-1);
#295=CARTESIAN_POINT('',(3.2E-1,5.25E0,-1.218E1));
#296=LINE('',#295,#294);
#297=DIRECTION('',(0.E0,1.E0,0.E0));
#298=VECTOR('',#297,6.4E-1);
#299=CARTESIAN_POINT('',(3.2E-1,1.61E0,-3.1E0));
#300=LINE('',#299,#298);
#301=DIRECTION('',(-1.E0,0.E0,0.E0));
#302=VECTOR('',#301,6.4E-1);
#303=CARTESIAN_POINT('',(3.2E-1,2.25E0,-3.1E0));
#304=LINE('',#303,#302);
#305=DIRECTION('',(0.E0,1.E0,0.E0));
#306=VECTOR('',#305,6.4E-1);
#307=CARTESIAN_POINT('',(-3.2E-1,1.61E0,-3.1E0));
#308=LINE('',#307,#306);
#309=DIRECTION('',(-1.E0,0.E0,0.E0));
#310=VECTOR('',#309,6.4E-1);
#311=CARTESIAN_POINT('',(3.2E-1,1.61E0,-3.1E0));
#312=LINE('',#311,#310);
#313=DIRECTION('',(-1.E0,0.E0,0.E0));
#314=VECTOR('',#313,6.4E-1);
#315=CARTESIAN_POINT('',(3.2E-1,5.25E0,-3.1E0));
#316=LINE('',#315,#314);
#317=DIRECTION('',(0.E0,1.E0,0.E0));
#318=VECTOR('',#317,6.4E-1);
#319=CARTESIAN_POINT('',(-3.2E-1,4.61E0,-3.1E0));
#320=LINE('',#319,#318);
#321=DIRECTION('',(-1.E0,0.E0,0.E0));
#322=VECTOR('',#321,6.4E-1);
#323=CARTESIAN_POINT('',(3.2E-1,4.61E0,-3.1E0));
#324=LINE('',#323,#322);
#325=DIRECTION('',(0.E0,1.E0,0.E0));
#326=VECTOR('',#325,6.4E-1);
#327=CARTESIAN_POINT('',(3.2E-1,4.61E0,-3.1E0));
#328=LINE('',#327,#326);
#329=DIRECTION('',(-7.071067811865E-1,7.071067811865E-1,0.E0));
#330=VECTOR('',#329,9.192388155425E-1);
#331=CARTESIAN_POINT('',(-6.2E-1,3.66E0,-3.1E0));
#332=LINE('',#331,#330);
#333=DIRECTION('',(0.E0,-1.E0,0.E0));
#334=VECTOR('',#333,1.89E0);
#335=CARTESIAN_POINT('',(-1.27E0,6.2E0,-3.1E0));
#336=LINE('',#335,#334);
#337=DIRECTION('',(-1.E0,0.E0,0.E0));
#338=VECTOR('',#337,2.54E0);
#339=CARTESIAN_POINT('',(1.27E0,6.2E0,-3.1E0));
#340=LINE('',#339,#338);
#341=DIRECTION('',(0.E0,-1.E0,0.E0));
#342=VECTOR('',#341,4.89E0);
#343=CARTESIAN_POINT('',(1.27E0,6.2E0,-3.1E0));
#344=LINE('',#343,#342);
#345=DIRECTION('',(-7.071067811865E-1,-7.071067811865E-1,0.E0));
#346=VECTOR('',#345,9.192388155425E-1);
#347=CARTESIAN_POINT('',(1.27E0,1.31E0,-3.1E0));
#348=LINE('',#347,#346);
#349=DIRECTION('',(1.E0,0.E0,0.E0));
#350=VECTOR('',#349,1.89E0);
#351=CARTESIAN_POINT('',(-1.27E0,6.6E-1,-3.1E0));
#352=LINE('',#351,#350);
#353=DIRECTION('',(0.E0,-1.E0,0.E0));
#354=VECTOR('',#353,2.54E0);
#355=CARTESIAN_POINT('',(-1.27E0,3.2E0,-3.1E0));
#356=LINE('',#355,#354);
#357=DIRECTION('',(-1.E0,0.E0,0.E0));
#358=VECTOR('',#357,1.8325E0);
#359=CARTESIAN_POINT('',(5.625E-1,3.2E0,-3.1E0));
#360=LINE('',#359,#358);
#361=DIRECTION('',(0.E0,-1.E0,0.E0));
#362=VECTOR('',#361,4.6E-1);
#363=CARTESIAN_POINT('',(5.625E-1,3.66E0,-3.1E0));
#364=LINE('',#363,#362);
#365=DIRECTION('',(1.E0,0.E0,0.E0));
#366=VECTOR('',#365,1.1825E0);
#367=CARTESIAN_POINT('',(-6.2E-1,3.66E0,-3.1E0));
#368=LINE('',#367,#366);
#369=DIRECTION('',(-1.E0,0.E0,0.E0));
#370=VECTOR('',#369,6.4E-1);
#371=CARTESIAN_POINT('',(3.2E-1,2.25E0,-2.4E0));
#372=LINE('',#371,#370);
#373=DIRECTION('',(-1.E0,0.E0,0.E0));
#374=VECTOR('',#373,6.4E-1);
#375=CARTESIAN_POINT('',(3.2E-1,1.61E0,-2.4E0));
#376=LINE('',#375,#374);
#377=DIRECTION('',(0.E0,0.E0,1.E0));
#378=VECTOR('',#377,3.1E0);
#379=CARTESIAN_POINT('',(-6.2E-1,3.66E0,-3.1E0));
#380=LINE('',#379,#378);
#381=DIRECTION('',(0.E0,0.E0,1.E0));
#382=VECTOR('',#381,3.1E0);
#383=CARTESIAN_POINT('',(5.625E-1,3.66E0,-3.1E0));
#384=LINE('',#383,#382);
#385=DIRECTION('',(0.E0,0.E0,1.E0));
#386=VECTOR('',#385,3.1E0);
#387=CARTESIAN_POINT('',(5.625E-1,3.2E0,-3.1E0));
#388=LINE('',#387,#386);
#389=DIRECTION('',(0.E0,0.E0,-1.E0));
#390=VECTOR('',#389,3.1E0);
#391=CARTESIAN_POINT('',(-1.27E0,3.2E0,0.E0));
#392=LINE('',#391,#390);
#393=DIRECTION('',(0.E0,0.E0,1.E0));
#394=VECTOR('',#393,3.1E0);
#395=CARTESIAN_POINT('',(6.2E-1,6.6E-1,-3.1E0));
#396=LINE('',#395,#394);
#397=DIRECTION('',(0.E0,0.E0,-1.E0));
#398=VECTOR('',#397,3.1E0);
#399=CARTESIAN_POINT('',(-1.27E0,6.6E-1,0.E0));
#400=LINE('',#399,#398);
#401=DIRECTION('',(0.E0,0.E0,1.E0));
#402=VECTOR('',#401,3.1E0);
#403=CARTESIAN_POINT('',(1.27E0,1.31E0,-3.1E0));
#404=LINE('',#403,#402);
#405=DIRECTION('',(0.E0,-1.E0,0.E0));
#406=VECTOR('',#405,4.89E0);
#407=CARTESIAN_POINT('',(1.27E0,6.2E0,0.E0));
#408=LINE('',#407,#406);
#409=DIRECTION('',(0.E0,0.E0,-1.E0));
#410=VECTOR('',#409,3.1E0);
#411=CARTESIAN_POINT('',(1.27E0,6.2E0,0.E0));
#412=LINE('',#411,#410);
#413=DIRECTION('',(0.E0,0.E0,1.E0));
#414=VECTOR('',#413,3.1E0);
#415=CARTESIAN_POINT('',(-1.27E0,4.31E0,-3.1E0));
#416=LINE('',#415,#414);
#417=DIRECTION('',(0.E0,0.E0,-1.E0));
#418=VECTOR('',#417,3.1E0);
#419=CARTESIAN_POINT('',(-1.27E0,6.2E0,0.E0));
#420=LINE('',#419,#418);
#421=DIRECTION('',(-1.E0,0.E0,0.E0));
#422=VECTOR('',#421,6.4E-1);
#423=CARTESIAN_POINT('',(3.2E-1,4.61E0,-2.4E0));
#424=LINE('',#423,#422);
#425=DIRECTION('',(-1.E0,0.E0,0.E0));
#426=VECTOR('',#425,6.4E-1);
#427=CARTESIAN_POINT('',(3.2E-1,-3.72E0,-8.58E0));
#428=LINE('',#427,#426);
#429=DIRECTION('',(-1.E0,0.E0,0.E0));
#430=VECTOR('',#429,6.4E-1);
#431=CARTESIAN_POINT('',(3.2E-1,-3.72E0,-9.22E0));
#432=LINE('',#431,#430);
#433=DIRECTION('',(0.E0,1.E0,0.E0));
#434=VECTOR('',#433,1.4E0);
#435=CARTESIAN_POINT('',(-7.E-1,6.86E0,-2.95E0));
#436=LINE('',#435,#434);
#437=DIRECTION('',(0.E0,0.E0,1.E0));
#438=VECTOR('',#437,7.5E-1);
#439=CARTESIAN_POINT('',(-7.E-1,8.26E0,-2.95E0));
#440=LINE('',#439,#438);
#441=DIRECTION('',(0.E0,-6.447027996602E-1,7.644333195971E-1));
#442=VECTOR('',#441,2.171543230056E0);
#443=CARTESIAN_POINT('',(-7.E-1,8.26E0,-2.2E0));
#444=LINE('',#443,#442);
#445=DIRECTION('',(0.E0,-6.447027996602E-1,7.644333195971E-1));
#446=VECTOR('',#445,2.171543230056E0);
#447=CARTESIAN_POINT('',(7.E-1,8.26E0,-2.2E0));
#448=LINE('',#447,#446);
#449=DIRECTION('',(0.E0,0.E0,1.E0));
#450=VECTOR('',#449,7.5E-1);
#451=CARTESIAN_POINT('',(7.E-1,8.26E0,-2.95E0));
#452=LINE('',#451,#450);
#453=DIRECTION('',(0.E0,1.E0,0.E0));
#454=VECTOR('',#453,1.4E0);
#455=CARTESIAN_POINT('',(7.E-1,6.86E0,-2.95E0));
#456=LINE('',#455,#454);
#457=DIRECTION('',(1.E0,0.E0,0.E0));
#458=VECTOR('',#457,1.4E0);
#459=CARTESIAN_POINT('',(-7.E-1,8.26E0,-2.2E0));
#460=LINE('',#459,#458);
#461=DIRECTION('',(1.E0,0.E0,0.E0));
#462=VECTOR('',#461,1.4E0);
#463=CARTESIAN_POINT('',(-7.E-1,8.26E0,-2.95E0));
#464=LINE('',#463,#462);
#465=DIRECTION('',(0.E0,1.E0,0.E0));
#466=VECTOR('',#465,2.708265813375E0);
#467=CARTESIAN_POINT('',(4.75E-1,-3.248265813375E0,-3.6E0));
#468=LINE('',#467,#466);
#469=DIRECTION('',(0.E0,1.E0,0.E0));
#470=VECTOR('',#469,2.708265813375E0);
#471=CARTESIAN_POINT('',(4.75E-1,-3.248265813375E0,-5.6E0));
#472=LINE('',#471,#470);
#473=DIRECTION('',(0.E0,-1.E0,0.E0));
#474=VECTOR('',#473,5.4E-1);
#475=CARTESIAN_POINT('',(4.75E-1,0.E0,-1.6E0));
#476=LINE('',#475,#474);
#477=CARTESIAN_POINT('',(1.354795897113E0,-2.64E0,-3.6E0));
#478=CARTESIAN_POINT('',(1.302797555467E0,-2.696037623845E0,-3.6E0));
#479=CARTESIAN_POINT('',(1.202067910512E0,-2.800021701708E0,-3.6E0));
#480=CARTESIAN_POINT('',(1.061025831515E0,-2.931108254423E0,-3.6E0));
#481=CARTESIAN_POINT('',(9.286286464746E-1,-3.038547047549E0,-3.6E0));
#482=CARTESIAN_POINT('',(8.042434111805E-1,-3.122969154928E0,-3.6E0));
#483=CARTESIAN_POINT('',(6.882249152014E-1,-3.184966917165E0,-3.6E0));
#484=CARTESIAN_POINT('',(5.796243089427E-1,-3.226793451445E0,-3.6E0));
#485=CARTESIAN_POINT('',(5.093421343861E-1,-3.243003832877E0,-3.6E0));
#486=CARTESIAN_POINT('',(4.75E-1,-3.248265813375E0,-3.6E0));
#488=CARTESIAN_POINT('',(4.75E-1,-3.248265813375E0,-5.6E0));
#489=CARTESIAN_POINT('',(5.094968910794E-1,-3.242980120702E0,-5.6E0));
#490=CARTESIAN_POINT('',(5.799974339656E-1,-3.226688686814E0,-5.6E0));
#491=CARTESIAN_POINT('',(6.886945939282E-1,-3.184747348668E0,-5.6E0));
#492=CARTESIAN_POINT('',(8.045210268369E-1,-3.122783056789E0,-5.6E0));
#493=CARTESIAN_POINT('',(9.285290325935E-1,-3.038609074453E0,-5.6E0));
#494=CARTESIAN_POINT('',(1.060799106738E0,-2.931305940377E0,-5.6E0));
#495=CARTESIAN_POINT('',(1.201875894322E0,-2.800214363736E0,-5.6E0));
#496=CARTESIAN_POINT('',(1.302719999509E0,-2.696121204426E0,-5.6E0));
#497=CARTESIAN_POINT('',(1.354795897113E0,-2.64E0,-5.6E0));
#499=CARTESIAN_POINT('',(4.75E-1,-3.248265813375E0,-5.6E0));
#500=CARTESIAN_POINT('',(4.75E-1,-3.344496977711E0,-5.537195062217E0));
#501=CARTESIAN_POINT('',(4.75E-1,-3.531037566854E0,-5.415334969355E0));
#502=CARTESIAN_POINT('',(4.75E-1,-3.705680995340E0,-5.300891663967E0));
#503=CARTESIAN_POINT('',(4.75E-1,-3.79E0,-5.245481036619E0));
#505=CARTESIAN_POINT('',(3.75E-1,-3.79E0,-4.6E0));
#506=DIRECTION('',(0.E0,-1.E0,0.E0));
#507=DIRECTION('',(1.530968582937E-1,0.E0,-9.882111879455E-1));
#508=AXIS2_PLACEMENT_3D('',#505,#506,#507);
#510=CARTESIAN_POINT('',(4.75E-1,-3.79E0,-3.954518963381E0));
#511=CARTESIAN_POINT('',(4.75E-1,-3.705937757130E0,-3.899277068241E0));
#512=CARTESIAN_POINT('',(4.75E-1,-3.531551851457E0,-3.785001337282E0));
#513=CARTESIAN_POINT('',(4.75E-1,-3.344754270734E0,-3.662972859187E0));
#514=CARTESIAN_POINT('',(4.75E-1,-3.248265813375E0,-3.6E0));
#516=DIRECTION('',(0.E0,-1.E0,0.E0));
#517=VECTOR('',#516,3.5E-1);
#518=CARTESIAN_POINT('',(1.354795897113E0,-2.29E0,-3.6E0));
#519=LINE('',#518,#517);
#520=DIRECTION('',(0.E0,-1.E0,0.E0));
#521=VECTOR('',#520,3.5E-1);
#522=CARTESIAN_POINT('',(1.354795897113E0,-2.29E0,-5.6E0));
#523=LINE('',#522,#521);
#524=CARTESIAN_POINT('',(3.75E-1,-2.64E0,-4.6E0));
#525=DIRECTION('',(0.E0,-1.E0,0.E0));
#526=DIRECTION('',(6.998542122238E-1,0.E0,-7.142857142857E-1));
#527=AXIS2_PLACEMENT_3D('',#524,#525,#526);
#529=DIRECTION('',(-1.E0,0.E0,0.E0));
#530=VECTOR('',#529,5.215383276177E-1);
#531=CARTESIAN_POINT('',(1.354795897113E0,-2.29E0,-3.6E0));
#532=LINE('',#531,#530);
#533=DIRECTION('',(-1.E0,0.E0,0.E0));
#534=VECTOR('',#533,5.215383276177E-1);
#535=CARTESIAN_POINT('',(1.354795897113E0,-2.29E0,-5.6E0));
#536=LINE('',#535,#534);
#537=CARTESIAN_POINT('',(3.75E-1,-2.29E0,-4.6E0));
#538=DIRECTION('',(0.E0,-1.E0,0.E0));
#539=DIRECTION('',(6.998542122238E-1,0.E0,-7.142857142857E-1));
#540=AXIS2_PLACEMENT_3D('',#537,#538,#539);
#542=DIRECTION('',(0.E0,-1.E0,0.E0));
#543=VECTOR('',#542,1.75E0);
#544=CARTESIAN_POINT('',(8.332575694956E-1,-5.4E-1,-3.6E0));
#545=LINE('',#544,#543);
#546=DIRECTION('',(0.E0,-1.E0,0.E0));
#547=VECTOR('',#546,1.75E0);
#548=CARTESIAN_POINT('',(8.332575694956E-1,-5.4E-1,-5.6E0));
#549=LINE('',#548,#547);
#550=CARTESIAN_POINT('',(3.75E-1,-2.29E0,-4.6E0));
#551=DIRECTION('',(0.E0,-1.E0,0.E0));
#552=DIRECTION('',(4.165977904505E-1,0.E0,-9.090909090909E-1));
#553=AXIS2_PLACEMENT_3D('',#550,#551,#552);
#555=CARTESIAN_POINT('',(3.75E-1,-5.4E-1,-4.6E0));
#556=DIRECTION('',(0.E0,-1.E0,0.E0));
#557=DIRECTION('',(1.E0,0.E0,0.E0));
#558=AXIS2_PLACEMENT_3D('',#555,#556,#557);
#560=DIRECTION('',(-1.E0,0.E0,0.E0));
#561=VECTOR('',#560,3.582575694956E-1);
#562=CARTESIAN_POINT('',(8.332575694956E-1,-5.4E-1,-3.6E0));
#563=LINE('',#562,#561);
#564=DIRECTION('',(0.E0,0.E0,1.E0));
#565=VECTOR('',#564,2.E0);
#566=CARTESIAN_POINT('',(4.75E-1,-5.4E-1,-3.6E0));
#567=LINE('',#566,#565);
#568=DIRECTION('',(-1.E0,0.E0,0.E0));
#569=VECTOR('',#568,1.E0);
#570=CARTESIAN_POINT('',(1.475E0,-5.4E-1,-1.6E0));
#571=LINE('',#570,#569);
#572=DIRECTION('',(0.E0,0.E0,1.E0));
#573=VECTOR('',#572,3.E0);
#574=CARTESIAN_POINT('',(1.475E0,-5.4E-1,-4.6E0));
#575=LINE('',#574,#573);
#576=DIRECTION('',(0.E0,0.E0,1.E0));
#577=VECTOR('',#576,2.46E0);
#578=CARTESIAN_POINT('',(4.75E-1,-5.4E-1,-8.06E0));
#579=LINE('',#578,#577);
#580=CARTESIAN_POINT('',(3.75E-1,-5.4E-1,-4.6E0));
#581=DIRECTION('',(0.E0,-1.E0,0.E0));
#582=DIRECTION('',(4.165977904505E-1,0.E0,-9.090909090909E-1));
#583=AXIS2_PLACEMENT_3D('',#580,#581,#582);
#585=DIRECTION('',(0.E0,0.E0,1.E0));
#586=VECTOR('',#585,3.46E0);
#587=CARTESIAN_POINT('',(1.475E0,-5.4E-1,-8.06E0));
#588=LINE('',#587,#586);
#589=DIRECTION('',(1.E0,0.E0,0.E0));
#590=VECTOR('',#589,1.E0);
#591=CARTESIAN_POINT('',(4.75E-1,-5.4E-1,-8.06E0));
#592=LINE('',#591,#590);
#593=DIRECTION('',(0.E0,0.E0,-1.E0));
#594=VECTOR('',#593,2.E0);
#595=CARTESIAN_POINT('',(-4.75E-1,-5.4E-1,-1.6E0));
#596=LINE('',#595,#594);
#597=DIRECTION('',(-1.E0,0.E0,0.E0));
#598=VECTOR('',#597,3.582575694956E-1);
#599=CARTESIAN_POINT('',(-4.75E-1,-5.4E-1,-3.6E0));
#600=LINE('',#599,#598);
#601=CARTESIAN_POINT('',(-3.75E-1,-5.4E-1,-4.6E0));
#602=DIRECTION('',(0.E0,1.E0,0.E0));
#603=DIRECTION('',(-1.E0,0.E0,0.E0));
#604=AXIS2_PLACEMENT_3D('',#601,#602,#603);
#606=DIRECTION('',(0.E0,0.E0,-1.E0));
#607=VECTOR('',#606,3.E0);
#608=CARTESIAN_POINT('',(-1.475E0,-5.4E-1,-1.6E0));
#609=LINE('',#608,#607);
#610=DIRECTION('',(-1.E0,0.E0,0.E0));
#611=VECTOR('',#610,1.E0);
#612=CARTESIAN_POINT('',(-4.75E-1,-5.4E-1,-1.6E0));
#613=LINE('',#612,#611);
#614=CARTESIAN_POINT('',(-3.75E-1,-5.4E-1,-4.6E0));
#615=DIRECTION('',(0.E0,1.E0,0.E0));
#616=DIRECTION('',(-4.165977904505E-1,0.E0,-9.090909090909E-1));
#617=AXIS2_PLACEMENT_3D('',#614,#615,#616);
#619=DIRECTION('',(0.E0,0.E0,-1.E0));
#620=VECTOR('',#619,2.46E0);
#621=CARTESIAN_POINT('',(-4.75E-1,-5.4E-1,-5.6E0));
#622=LINE('',#621,#620);
#623=DIRECTION('',(1.E0,0.E0,0.E0));
#624=VECTOR('',#623,1.E0);
#625=CARTESIAN_POINT('',(-1.475E0,-5.4E-1,-8.06E0));
#626=LINE('',#625,#624);
#627=DIRECTION('',(0.E0,0.E0,-1.E0));
#628=VECTOR('',#627,3.46E0);
#629=CARTESIAN_POINT('',(-1.475E0,-5.4E-1,-4.6E0));
#630=LINE('',#629,#628);
#631=DIRECTION('',(0.E0,-1.E0,0.E0));
#632=VECTOR('',#631,5.4E-1);
#633=CARTESIAN_POINT('',(1.475E0,0.E0,-1.6E0));
#634=LINE('',#633,#632);
#635=DIRECTION('',(0.E0,-1.E0,0.E0));
#636=VECTOR('',#635,5.4E-1);
#637=CARTESIAN_POINT('',(1.475E0,0.E0,-8.06E0));
#638=LINE('',#637,#636);
#639=DIRECTION('',(0.E0,-1.E0,0.E0));
#640=VECTOR('',#639,5.4E-1);
#641=CARTESIAN_POINT('',(4.75E-1,0.E0,-8.06E0));
#642=LINE('',#641,#640);
#643=DIRECTION('',(-1.E0,0.E0,0.E0));
#644=VECTOR('',#643,3.582575694956E-1);
#645=CARTESIAN_POINT('',(8.332575694956E-1,-5.4E-1,-5.6E0));
#646=LINE('',#645,#644);
#647=DIRECTION('',(-1.E0,0.E0,0.E0));
#648=VECTOR('',#647,3.582575694956E-1);
#649=CARTESIAN_POINT('',(-4.75E-1,-5.4E-1,-5.6E0));
#650=LINE('',#649,#648);
#651=DIRECTION('',(0.E0,1.E0,0.E0));
#652=VECTOR('',#651,2.708265813375E0);
#653=CARTESIAN_POINT('',(-4.75E-1,-3.248265813375E0,-3.6E0));
#654=LINE('',#653,#652);
#655=DIRECTION('',(0.E0,-1.E0,0.E0));
#656=VECTOR('',#655,5.4E-1);
#657=CARTESIAN_POINT('',(-4.75E-1,0.E0,-8.06E0));
#658=LINE('',#657,#656);
#659=DIRECTION('',(0.E0,1.E0,0.E0));
#660=VECTOR('',#659,2.708265813375E0);
#661=CARTESIAN_POINT('',(-4.75E-1,-3.248265813375E0,-5.6E0));
#662=LINE('',#661,#660);
#663=DIRECTION('',(0.E0,-1.E0,0.E0));
#664=VECTOR('',#663,5.4E-1);
#665=CARTESIAN_POINT('',(-4.75E-1,0.E0,-1.6E0));
#666=LINE('',#665,#664);
#667=DIRECTION('',(0.E0,-1.E0,0.E0));
#668=VECTOR('',#667,5.4E-1);
#669=CARTESIAN_POINT('',(-1.475E0,0.E0,-1.6E0));
#670=LINE('',#669,#668);
#671=DIRECTION('',(0.E0,-1.E0,0.E0));
#672=VECTOR('',#671,5.4E-1);
#673=CARTESIAN_POINT('',(-1.475E0,0.E0,-8.06E0));
#674=LINE('',#673,#672);
#675=CARTESIAN_POINT('',(-1.354795897113E0,-2.64E0,-3.6E0));
#676=CARTESIAN_POINT('',(-1.302797555467E0,-2.696037623845E0,-3.6E0));
#677=CARTESIAN_POINT('',(-1.202067910512E0,-2.800021701708E0,-3.6E0));
#678=CARTESIAN_POINT('',(-1.061025831515E0,-2.931108254423E0,-3.6E0));
#679=CARTESIAN_POINT('',(-9.286286464746E-1,-3.038547047549E0,-3.6E0));
#680=CARTESIAN_POINT('',(-8.042434111805E-1,-3.122969154928E0,-3.6E0));
#681=CARTESIAN_POINT('',(-6.882249152014E-1,-3.184966917165E0,-3.6E0));
#682=CARTESIAN_POINT('',(-5.796243089427E-1,-3.226793451445E0,-3.6E0));
#683=CARTESIAN_POINT('',(-5.093421343861E-1,-3.243003832877E0,-3.6E0));
#684=CARTESIAN_POINT('',(-4.75E-1,-3.248265813375E0,-3.6E0));
#686=CARTESIAN_POINT('',(-4.75E-1,-3.79E0,-3.954518963381E0));
#687=CARTESIAN_POINT('',(-4.75E-1,-3.705937757130E0,-3.899277068241E0));
#688=CARTESIAN_POINT('',(-4.75E-1,-3.531551851457E0,-3.785001337282E0));
#689=CARTESIAN_POINT('',(-4.75E-1,-3.344754270734E0,-3.662972859187E0));
#690=CARTESIAN_POINT('',(-4.75E-1,-3.248265813375E0,-3.6E0));
#692=CARTESIAN_POINT('',(-3.75E-1,-3.79E0,-4.6E0));
#693=DIRECTION('',(0.E0,1.E0,0.E0));
#694=DIRECTION('',(-1.530968582937E-1,0.E0,-9.882111879455E-1));
#695=AXIS2_PLACEMENT_3D('',#692,#693,#694);
#697=CARTESIAN_POINT('',(-4.75E-1,-3.248265813375E0,-5.6E0));
#698=CARTESIAN_POINT('',(-4.75E-1,-3.344496977711E0,-5.537195062217E0));
#699=CARTESIAN_POINT('',(-4.75E-1,-3.531037566854E0,-5.415334969355E0));
#700=CARTESIAN_POINT('',(-4.75E-1,-3.705680995340E0,-5.300891663967E0));
#701=CARTESIAN_POINT('',(-4.75E-1,-3.79E0,-5.245481036619E0));
#703=CARTESIAN_POINT('',(-4.75E-1,-3.248265813375E0,-5.6E0));
#704=CARTESIAN_POINT('',(-5.094968910794E-1,-3.242980120702E0,-5.6E0));
#705=CARTESIAN_POINT('',(-5.799974339656E-1,-3.226688686814E0,-5.6E0));
#706=CARTESIAN_POINT('',(-6.886945939282E-1,-3.184747348668E0,-5.6E0));
#707=CARTESIAN_POINT('',(-8.045210268369E-1,-3.122783056789E0,-5.6E0));
#708=CARTESIAN_POINT('',(-9.285290325935E-1,-3.038609074453E0,-5.6E0));
#709=CARTESIAN_POINT('',(-1.060799106738E0,-2.931305940377E0,-5.6E0));
#710=CARTESIAN_POINT('',(-1.201875894322E0,-2.800214363736E0,-5.6E0));
#711=CARTESIAN_POINT('',(-1.302719999509E0,-2.696121204426E0,-5.6E0));
#712=CARTESIAN_POINT('',(-1.354795897113E0,-2.64E0,-5.6E0));
#714=DIRECTION('',(0.E0,0.E0,-1.E0));
#715=VECTOR('',#714,1.290962073238E0);
#716=CARTESIAN_POINT('',(-4.75E-1,-3.79E0,-3.954518963381E0));
#717=LINE('',#716,#715);
#718=DIRECTION('',(0.E0,1.E0,0.E0));
#719=VECTOR('',#718,3.5E-1);
#720=CARTESIAN_POINT('',(-1.354795897113E0,-2.64E0,-3.6E0));
#721=LINE('',#720,#719);
#722=CARTESIAN_POINT('',(-3.75E-1,-2.64E0,-4.6E0));
#723=DIRECTION('',(0.E0,1.E0,0.E0));
#724=DIRECTION('',(-6.998542122238E-1,0.E0,-7.142857142857E-1));
#725=AXIS2_PLACEMENT_3D('',#722,#723,#724);
#727=DIRECTION('',(0.E0,1.E0,0.E0));
#728=VECTOR('',#727,3.5E-1);
#729=CARTESIAN_POINT('',(-1.354795897113E0,-2.64E0,-5.6E0));
#730=LINE('',#729,#728);
#731=DIRECTION('',(1.E0,0.E0,0.E0));
#732=VECTOR('',#731,5.215383276177E-1);
#733=CARTESIAN_POINT('',(-1.354795897113E0,-2.29E0,-3.6E0));
#734=LINE('',#733,#732);
#735=CARTESIAN_POINT('',(-3.75E-1,-2.29E0,-4.6E0));
#736=DIRECTION('',(0.E0,1.E0,0.E0));
#737=DIRECTION('',(-6.998542122238E-1,0.E0,-7.142857142857E-1));
#738=AXIS2_PLACEMENT_3D('',#735,#736,#737);
#740=DIRECTION('',(1.E0,0.E0,0.E0));
#741=VECTOR('',#740,5.215383276177E-1);
#742=CARTESIAN_POINT('',(-1.354795897113E0,-2.29E0,-5.6E0));
#743=LINE('',#742,#741);
#744=DIRECTION('',(0.E0,1.E0,0.E0));
#745=VECTOR('',#744,1.75E0);
#746=CARTESIAN_POINT('',(-8.332575694956E-1,-2.29E0,-3.6E0));
#747=LINE('',#746,#745);
#748=CARTESIAN_POINT('',(-3.75E-1,-2.29E0,-4.6E0));
#749=DIRECTION('',(0.E0,1.E0,0.E0));
#750=DIRECTION('',(-4.165977904505E-1,0.E0,-9.090909090909E-1));
#751=AXIS2_PLACEMENT_3D('',#748,#749,#750);
#753=DIRECTION('',(0.E0,1.E0,0.E0));
#754=VECTOR('',#753,1.75E0);
#755=CARTESIAN_POINT('',(-8.332575694956E-1,-2.29E0,-5.6E0));
#756=LINE('',#755,#754);
#757=DIRECTION('',(0.E0,0.E0,1.E0));
#758=VECTOR('',#757,1.290962073238E0);
#759=CARTESIAN_POINT('',(4.75E-1,-3.79E0,-5.245481036619E0));
#760=LINE('',#759,#758);
#761=CARTESIAN_POINT('',(1.925E0,0.E0,0.E0));
#762=CARTESIAN_POINT('',(-1.925E0,0.E0,0.E0));
#763=VERTEX_POINT('',#761);
#764=VERTEX_POINT('',#762);
#765=CARTESIAN_POINT('',(-1.925E0,6.86E0,0.E0));
#766=VERTEX_POINT('',#765);
#767=CARTESIAN_POINT('',(1.925E0,6.86E0,0.E0));
#768=VERTEX_POINT('',#767);
#769=CARTESIAN_POINT('',(1.925E0,0.E0,-9.91E0));
#770=CARTESIAN_POINT('',(-1.925E0,0.E0,-9.91E0));
#771=VERTEX_POINT('',#769);
#772=VERTEX_POINT('',#770);
#773=CARTESIAN_POINT('',(-1.925E0,6.86E0,-9.91E0));
#774=VERTEX_POINT('',#773);
#775=CARTESIAN_POINT('',(1.925E0,6.86E0,-9.91E0));
#776=VERTEX_POINT('',#775);
#777=CARTESIAN_POINT('',(-7.E-1,8.26E0,-2.95E0));
#778=CARTESIAN_POINT('',(-7.E-1,8.26E0,-2.2E0));
#779=VERTEX_POINT('',#777);
#780=VERTEX_POINT('',#778);
#781=CARTESIAN_POINT('',(7.E-1,8.26E0,-2.95E0));
#782=CARTESIAN_POINT('',(7.E-1,8.26E0,-2.2E0));
#783=VERTEX_POINT('',#781);
#784=VERTEX_POINT('',#782);
#785=CARTESIAN_POINT('',(-7.E-1,6.86E0,-5.4E-1));
#786=CARTESIAN_POINT('',(-7.E-1,6.86E0,-2.95E0));
#787=VERTEX_POINT('',#785);
#788=VERTEX_POINT('',#786);
#789=CARTESIAN_POINT('',(7.E-1,6.86E0,-5.4E-1));
#790=CARTESIAN_POINT('',(7.E-1,6.86E0,-2.95E0));
#791=VERTEX_POINT('',#789);
#792=VERTEX_POINT('',#790);
#793=CARTESIAN_POINT('',(-1.27E0,3.2E0,-3.1E0));
#794=CARTESIAN_POINT('',(-1.27E0,6.6E-1,-3.1E0));
#795=VERTEX_POINT('',#793);
#796=VERTEX_POINT('',#794);
#797=CARTESIAN_POINT('',(1.27E0,6.2E0,-3.1E0));
#798=CARTESIAN_POINT('',(-1.27E0,6.2E0,-3.1E0));
#799=VERTEX_POINT('',#797);
#800=VERTEX_POINT('',#798);
#801=CARTESIAN_POINT('',(-1.27E0,3.2E0,0.E0));
#802=CARTESIAN_POINT('',(-1.27E0,6.6E-1,0.E0));
#803=VERTEX_POINT('',#801);
#804=VERTEX_POINT('',#802);
#805=CARTESIAN_POINT('',(1.27E0,6.2E0,0.E0));
#806=CARTESIAN_POINT('',(-1.27E0,6.2E0,0.E0));
#807=VERTEX_POINT('',#805);
#808=VERTEX_POINT('',#806);
#809=CARTESIAN_POINT('',(3.2E-1,5.25E0,-1.218E1));
#810=CARTESIAN_POINT('',(3.2E-1,-3.72E0,-1.218E1));
#811=VERTEX_POINT('',#809);
#812=VERTEX_POINT('',#810);
#813=CARTESIAN_POINT('',(3.2E-1,-3.72E0,-1.154E1));
#814=VERTEX_POINT('',#813);
#815=CARTESIAN_POINT('',(3.2E-1,4.61E0,-1.154E1));
#816=VERTEX_POINT('',#815);
#817=CARTESIAN_POINT('',(3.2E-1,4.61E0,-2.4E0));
#818=CARTESIAN_POINT('',(3.2E-1,5.25E0,-2.4E0));
#819=VERTEX_POINT('',#817);
#820=VERTEX_POINT('',#818);
#821=CARTESIAN_POINT('',(-3.2E-1,5.25E0,-1.218E1));
#822=CARTESIAN_POINT('',(-3.2E-1,-3.72E0,-1.218E1));
#823=VERTEX_POINT('',#821);
#824=VERTEX_POINT('',#822);
#825=CARTESIAN_POINT('',(-3.2E-1,-3.72E0,-1.154E1));
#826=VERTEX_POINT('',#825);
#827=CARTESIAN_POINT('',(-3.2E-1,4.61E0,-1.154E1));
#828=VERTEX_POINT('',#827);
#829=CARTESIAN_POINT('',(-3.2E-1,4.61E0,-2.4E0));
#830=CARTESIAN_POINT('',(-3.2E-1,5.25E0,-2.4E0));
#831=VERTEX_POINT('',#829);
#832=VERTEX_POINT('',#830);
#833=CARTESIAN_POINT('',(3.2E-1,4.61E0,-9.91E0));
#834=CARTESIAN_POINT('',(3.2E-1,5.25E0,-9.91E0));
#835=VERTEX_POINT('',#833);
#836=VERTEX_POINT('',#834);
#837=CARTESIAN_POINT('',(-3.2E-1,4.61E0,-9.91E0));
#838=CARTESIAN_POINT('',(-3.2E-1,5.25E0,-9.91E0));
#839=VERTEX_POINT('',#837);
#840=VERTEX_POINT('',#838);
#841=CARTESIAN_POINT('',(3.2E-1,1.61E0,-3.1E0));
#842=CARTESIAN_POINT('',(3.2E-1,2.25E0,-3.1E0));
#843=VERTEX_POINT('',#841);
#844=VERTEX_POINT('',#842);
#845=CARTESIAN_POINT('',(-3.2E-1,1.61E0,-3.1E0));
#846=CARTESIAN_POINT('',(-3.2E-1,2.25E0,-3.1E0));
#847=VERTEX_POINT('',#845);
#848=VERTEX_POINT('',#846);
#849=CARTESIAN_POINT('',(3.2E-1,5.25E0,-3.1E0));
#850=CARTESIAN_POINT('',(-3.2E-1,5.25E0,-3.1E0));
#851=VERTEX_POINT('',#849);
#852=VERTEX_POINT('',#850);
#853=CARTESIAN_POINT('',(3.2E-1,4.61E0,-3.1E0));
#854=CARTESIAN_POINT('',(-3.2E-1,4.61E0,-3.1E0));
#855=VERTEX_POINT('',#853);
#856=VERTEX_POINT('',#854);
#857=CARTESIAN_POINT('',(-1.475E0,-5.4E-1,-8.06E0));
#858=CARTESIAN_POINT('',(-4.75E-1,-5.4E-1,-8.06E0));
#859=VERTEX_POINT('',#857);
#860=VERTEX_POINT('',#858);
#861=CARTESIAN_POINT('',(-4.75E-1,-5.4E-1,-1.6E0));
#862=CARTESIAN_POINT('',(-1.475E0,-5.4E-1,-1.6E0));
#863=VERTEX_POINT('',#861);
#864=VERTEX_POINT('',#862);
#865=CARTESIAN_POINT('',(1.475E0,-5.4E-1,-1.6E0));
#866=CARTESIAN_POINT('',(4.75E-1,-5.4E-1,-1.6E0));
#867=VERTEX_POINT('',#865);
#868=VERTEX_POINT('',#866);
#869=CARTESIAN_POINT('',(4.75E-1,-5.4E-1,-8.06E0));
#870=CARTESIAN_POINT('',(1.475E0,-5.4E-1,-8.06E0));
#871=VERTEX_POINT('',#869);
#872=VERTEX_POINT('',#870);
#873=CARTESIAN_POINT('',(-1.475E0,0.E0,-1.6E0));
#874=CARTESIAN_POINT('',(-1.475E0,0.E0,-8.06E0));
#875=VERTEX_POINT('',#873);
#876=VERTEX_POINT('',#874);
#877=CARTESIAN_POINT('',(-4.75E-1,0.E0,-8.06E0));
#878=VERTEX_POINT('',#877);
#879=CARTESIAN_POINT('',(-4.75E-1,0.E0,-1.6E0));
#880=VERTEX_POINT('',#879);
#881=CARTESIAN_POINT('',(1.475E0,0.E0,-1.6E0));
#882=CARTESIAN_POINT('',(4.75E-1,0.E0,-1.6E0));
#883=VERTEX_POINT('',#881);
#884=VERTEX_POINT('',#882);
#885=CARTESIAN_POINT('',(4.75E-1,0.E0,-8.06E0));
#886=CARTESIAN_POINT('',(1.475E0,0.E0,-8.06E0));
#887=VERTEX_POINT('',#885);
#888=VERTEX_POINT('',#886);
#889=CARTESIAN_POINT('',(1.475E0,-5.4E-1,-4.6E0));
#890=VERTEX_POINT('',#889);
#891=CARTESIAN_POINT('',(3.2E-1,-3.72E0,-9.22E0));
#892=CARTESIAN_POINT('',(3.2E-1,-3.72E0,-8.58E0));
#893=VERTEX_POINT('',#891);
#894=VERTEX_POINT('',#892);
#895=CARTESIAN_POINT('',(3.2E-1,1.61E0,-2.4E0));
#896=CARTESIAN_POINT('',(3.2E-1,2.25E0,-2.4E0));
#897=VERTEX_POINT('',#895);
#898=VERTEX_POINT('',#896);
#899=CARTESIAN_POINT('',(-3.2E-1,-3.72E0,-9.22E0));
#900=CARTESIAN_POINT('',(-3.2E-1,-3.72E0,-8.58E0));
#901=VERTEX_POINT('',#899);
#902=VERTEX_POINT('',#900);
#903=CARTESIAN_POINT('',(-3.2E-1,1.61E0,-2.4E0));
#904=CARTESIAN_POINT('',(-3.2E-1,2.25E0,-2.4E0));
#905=VERTEX_POINT('',#903);
#906=VERTEX_POINT('',#904);
#907=CARTESIAN_POINT('',(3.2E-1,0.E0,-9.22E0));
#908=CARTESIAN_POINT('',(3.2E-1,0.E0,-8.58E0));
#909=VERTEX_POINT('',#907);
#910=VERTEX_POINT('',#908);
#911=CARTESIAN_POINT('',(-3.2E-1,0.E0,-9.22E0));
#912=CARTESIAN_POINT('',(-3.2E-1,0.E0,-8.58E0));
#913=VERTEX_POINT('',#911);
#914=VERTEX_POINT('',#912);
#915=CARTESIAN_POINT('',(5.625E-1,3.66E0,0.E0));
#916=CARTESIAN_POINT('',(5.625E-1,3.2E0,0.E0));
#917=VERTEX_POINT('',#915);
#918=VERTEX_POINT('',#916);
#919=CARTESIAN_POINT('',(5.625E-1,3.2E0,-3.1E0));
#920=VERTEX_POINT('',#919);
#921=CARTESIAN_POINT('',(5.625E-1,3.66E0,-3.1E0));
#922=VERTEX_POINT('',#921);
#923=CARTESIAN_POINT('',(-6.2E-1,3.66E0,-3.1E0));
#924=CARTESIAN_POINT('',(-1.27E0,4.31E0,-3.1E0));
#925=VERTEX_POINT('',#923);
#926=VERTEX_POINT('',#924);
#927=CARTESIAN_POINT('',(1.27E0,1.31E0,-3.1E0));
#928=CARTESIAN_POINT('',(6.2E-1,6.6E-1,-3.1E0));
#929=VERTEX_POINT('',#927);
#930=VERTEX_POINT('',#928);
#931=CARTESIAN_POINT('',(6.2E-1,6.6E-1,0.E0));
#932=VERTEX_POINT('',#931);
#933=CARTESIAN_POINT('',(1.27E0,1.31E0,0.E0));
#934=VERTEX_POINT('',#933);
#935=CARTESIAN_POINT('',(-1.27E0,4.31E0,0.E0));
#936=VERTEX_POINT('',#935);
#937=CARTESIAN_POINT('',(-6.2E-1,3.66E0,0.E0));
#938=VERTEX_POINT('',#937);
#939=VERTEX_POINT('',#477);
#940=VERTEX_POINT('',#486);
#941=VERTEX_POINT('',#488);
#942=VERTEX_POINT('',#497);
#943=CARTESIAN_POINT('',(1.354795897113E0,-2.29E0,-3.6E0));
#944=CARTESIAN_POINT('',(8.332575694956E-1,-2.29E0,-3.6E0));
#945=VERTEX_POINT('',#943);
#946=VERTEX_POINT('',#944);
#947=CARTESIAN_POINT('',(1.354795897113E0,-2.29E0,-5.6E0));
#948=CARTESIAN_POINT('',(8.332575694956E-1,-2.29E0,-5.6E0));
#949=VERTEX_POINT('',#947);
#950=VERTEX_POINT('',#948);
#951=CARTESIAN_POINT('',(-4.75E-1,-3.248265813375E0,-3.6E0));
#952=CARTESIAN_POINT('',(-4.75E-1,-5.4E-1,-3.6E0));
#953=VERTEX_POINT('',#951);
#954=VERTEX_POINT('',#952);
#955=CARTESIAN_POINT('',(-4.75E-1,-3.248265813375E0,-5.6E0));
#956=CARTESIAN_POINT('',(-4.75E-1,-5.4E-1,-5.6E0));
#957=VERTEX_POINT('',#955);
#958=VERTEX_POINT('',#956);
#959=CARTESIAN_POINT('',(4.75E-1,-3.79E0,-5.245481036619E0));
#960=CARTESIAN_POINT('',(4.75E-1,-3.79E0,-3.954518963381E0));
#961=VERTEX_POINT('',#959);
#962=VERTEX_POINT('',#960);
#963=CARTESIAN_POINT('',(-1.475E0,-5.4E-1,-4.6E0));
#964=VERTEX_POINT('',#963);
#965=CARTESIAN_POINT('',(-4.75E-1,-3.79E0,-3.954518963381E0));
#966=CARTESIAN_POINT('',(-4.75E-1,-3.79E0,-5.245481036619E0));
#967=VERTEX_POINT('',#965);
#968=VERTEX_POINT('',#966);
#969=CARTESIAN_POINT('',(4.75E-1,-5.4E-1,-3.6E0));
#970=VERTEX_POINT('',#969);
#971=CARTESIAN_POINT('',(4.75E-1,-5.4E-1,-5.6E0));
#972=VERTEX_POINT('',#971);
#973=VERTEX_POINT('',#675);
#974=VERTEX_POINT('',#712);
#975=CARTESIAN_POINT('',(-1.354795897113E0,-2.29E0,-3.6E0));
#976=CARTESIAN_POINT('',(-8.332575694956E-1,-2.29E0,-3.6E0));
#977=VERTEX_POINT('',#975);
#978=VERTEX_POINT('',#976);
#979=CARTESIAN_POINT('',(-1.354795897113E0,-2.29E0,-5.6E0));
#980=CARTESIAN_POINT('',(-8.332575694956E-1,-2.29E0,-5.6E0));
#981=VERTEX_POINT('',#979);
#982=VERTEX_POINT('',#980);
#983=CARTESIAN_POINT('',(8.332575694956E-1,-5.4E-1,-3.6E0));
#984=VERTEX_POINT('',#983);
#985=CARTESIAN_POINT('',(8.332575694956E-1,-5.4E-1,-5.6E0));
#986=VERTEX_POINT('',#985);
#987=CARTESIAN_POINT('',(-8.332575694956E-1,-5.4E-1,-3.6E0));
#988=VERTEX_POINT('',#987);
#989=CARTESIAN_POINT('',(-8.332575694956E-1,-5.4E-1,-5.6E0));
#990=VERTEX_POINT('',#989);
#991=CARTESIAN_POINT('',(0.E0,0.E0,0.E0));
#992=DIRECTION('',(0.E0,0.E0,-1.E0));
#993=DIRECTION('',(-1.E0,0.E0,0.E0));
#994=AXIS2_PLACEMENT_3D('',#991,#992,#993);
#995=PLANE('',#994);
#997=ORIENTED_EDGE('',*,*,#996,.T.);
#999=ORIENTED_EDGE('',*,*,#998,.T.);
#1001=ORIENTED_EDGE('',*,*,#1000,.T.);
#1003=ORIENTED_EDGE('',*,*,#1002,.T.);
#1004=EDGE_LOOP('',(#997,#999,#1001,#1003));
#1005=FACE_OUTER_BOUND('',#1004,.F.);
#1007=ORIENTED_EDGE('',*,*,#1006,.T.);
#1009=ORIENTED_EDGE('',*,*,#1008,.F.);
#1011=ORIENTED_EDGE('',*,*,#1010,.F.);
#1013=ORIENTED_EDGE('',*,*,#1012,.T.);
#1015=ORIENTED_EDGE('',*,*,#1014,.T.);
#1017=ORIENTED_EDGE('',*,*,#1016,.F.);
#1019=ORIENTED_EDGE('',*,*,#1018,.T.);
#1021=ORIENTED_EDGE('',*,*,#1020,.T.);
#1023=ORIENTED_EDGE('',*,*,#1022,.T.);
#1025=ORIENTED_EDGE('',*,*,#1024,.T.);
#1026=EDGE_LOOP('',(#1007,#1009,#1011,#1013,#1015,#1017,#1019,#1021,#1023,
#1025));
#1027=FACE_BOUND('',#1026,.F.);
#1028=ADVANCED_FACE('',(#1005,#1027),#995,.F.);
#1029=CARTESIAN_POINT('',(1.925E0,0.E0,0.E0));
#1030=DIRECTION('',(0.E0,-1.E0,0.E0));
#1031=DIRECTION('',(-1.E0,0.E0,0.E0));
#1032=AXIS2_PLACEMENT_3D('',#1029,#1030,#1031);
#1033=PLANE('',#1032);
#1034=ORIENTED_EDGE('',*,*,#996,.F.);
#1036=ORIENTED_EDGE('',*,*,#1035,.T.);
#1038=ORIENTED_EDGE('',*,*,#1037,.T.);
#1040=ORIENTED_EDGE('',*,*,#1039,.F.);
#1041=EDGE_LOOP('',(#1034,#1036,#1038,#1040));
#1042=FACE_OUTER_BOUND('',#1041,.F.);
#1044=ORIENTED_EDGE('',*,*,#1043,.T.);
#1046=ORIENTED_EDGE('',*,*,#1045,.T.);
#1048=ORIENTED_EDGE('',*,*,#1047,.T.);
#1050=ORIENTED_EDGE('',*,*,#1049,.T.);
#1051=EDGE_LOOP('',(#1044,#1046,#1048,#1050));
#1052=FACE_BOUND('',#1051,.F.);
#1054=ORIENTED_EDGE('',*,*,#1053,.T.);
#1056=ORIENTED_EDGE('',*,*,#1055,.T.);
#1058=ORIENTED_EDGE('',*,*,#1057,.T.);
#1060=ORIENTED_EDGE('',*,*,#1059,.T.);
#1061=EDGE_LOOP('',(#1054,#1056,#1058,#1060));
#1062=FACE_BOUND('',#1061,.F.);
#1064=ORIENTED_EDGE('',*,*,#1063,.T.);
#1066=ORIENTED_EDGE('',*,*,#1065,.T.);
#1068=ORIENTED_EDGE('',*,*,#1067,.F.);
#1070=ORIENTED_EDGE('',*,*,#1069,.F.);
#1071=EDGE_LOOP('',(#1064,#1066,#1068,#1070));
#1072=FACE_BOUND('',#1071,.F.);
#1073=ADVANCED_FACE('',(#1042,#1052,#1062,#1072),#1033,.T.);
#1074=CARTESIAN_POINT('',(1.925E0,6.86E0,0.E0));
#1075=DIRECTION('',(1.E0,0.E0,0.E0));
#1076=DIRECTION('',(0.E0,-1.E0,0.E0));
#1077=AXIS2_PLACEMENT_3D('',#1074,#1075,#1076);
#1078=PLANE('',#1077);
#1079=ORIENTED_EDGE('',*,*,#1002,.F.);
#1081=ORIENTED_EDGE('',*,*,#1080,.T.);
#1083=ORIENTED_EDGE('',*,*,#1082,.T.);
#1084=ORIENTED_EDGE('',*,*,#1035,.F.);
#1085=EDGE_LOOP('',(#1079,#1081,#1083,#1084));
#1086=FACE_OUTER_BOUND('',#1085,.F.);
#1087=ADVANCED_FACE('',(#1086),#1078,.T.);
#1088=CARTESIAN_POINT('',(-1.925E0,6.86E0,0.E0));
#1089=DIRECTION('',(0.E0,1.E0,0.E0));
#1090=DIRECTION('',(1.E0,0.E0,0.E0));
#1091=AXIS2_PLACEMENT_3D('',#1088,#1089,#1090);
#1092=PLANE('',#1091);
#1093=ORIENTED_EDGE('',*,*,#1000,.F.);
#1095=ORIENTED_EDGE('',*,*,#1094,.T.);
#1097=ORIENTED_EDGE('',*,*,#1096,.T.);
#1098=ORIENTED_EDGE('',*,*,#1080,.F.);
#1099=EDGE_LOOP('',(#1093,#1095,#1097,#1098));
#1100=FACE_OUTER_BOUND('',#1099,.F.);
#1102=ORIENTED_EDGE('',*,*,#1101,.F.);
#1104=ORIENTED_EDGE('',*,*,#1103,.T.);
#1106=ORIENTED_EDGE('',*,*,#1105,.T.);
#1108=ORIENTED_EDGE('',*,*,#1107,.F.);
#1109=EDGE_LOOP('',(#1102,#1104,#1106,#1108));
#1110=FACE_BOUND('',#1109,.F.);
#1111=ADVANCED_FACE('',(#1100,#1110),#1092,.T.);
#1112=CARTESIAN_POINT('',(-1.925E0,0.E0,0.E0));
#1113=DIRECTION('',(-1.E0,0.E0,0.E0));
#1114=DIRECTION('',(0.E0,1.E0,0.E0));
#1115=AXIS2_PLACEMENT_3D('',#1112,#1113,#1114);
#1116=PLANE('',#1115);
#1117=ORIENTED_EDGE('',*,*,#998,.F.);
#1118=ORIENTED_EDGE('',*,*,#1039,.T.);
#1120=ORIENTED_EDGE('',*,*,#1119,.T.);
#1121=ORIENTED_EDGE('',*,*,#1094,.F.);
#1122=EDGE_LOOP('',(#1117,#1118,#1120,#1121));
#1123=FACE_OUTER_BOUND('',#1122,.F.);
#1124=ADVANCED_FACE('',(#1123),#1116,.T.);
#1125=CARTESIAN_POINT('',(0.E0,0.E0,-9.91E0));
#1126=DIRECTION('',(0.E0,0.E0,-1.E0));
#1127=DIRECTION('',(-1.E0,0.E0,0.E0));
#1128=AXIS2_PLACEMENT_3D('',#1125,#1126,#1127);
#1129=PLANE('',#1128);
#1130=ORIENTED_EDGE('',*,*,#1037,.F.);
#1131=ORIENTED_EDGE('',*,*,#1082,.F.);
#1132=ORIENTED_EDGE('',*,*,#1096,.F.);
#1133=ORIENTED_EDGE('',*,*,#1119,.F.);
#1134=EDGE_LOOP('',(#1130,#1131,#1132,#1133));
#1135=FACE_OUTER_BOUND('',#1134,.F.);
#1137=ORIENTED_EDGE('',*,*,#1136,.F.);
#1139=ORIENTED_EDGE('',*,*,#1138,.T.);
#1141=ORIENTED_EDGE('',*,*,#1140,.T.);
#1143=ORIENTED_EDGE('',*,*,#1142,.F.);
#1144=EDGE_LOOP('',(#1137,#1139,#1141,#1143));
#1145=FACE_BOUND('',#1144,.F.);
#1146=ADVANCED_FACE('',(#1135,#1145),#1129,.T.);
#1147=CARTESIAN_POINT('',(3.2E-1,0.E0,0.E0));
#1148=DIRECTION('',(-1.E0,0.E0,0.E0));
#1149=DIRECTION('',(0.E0,0.E0,1.E0));
#1150=AXIS2_PLACEMENT_3D('',#1147,#1148,#1149);
#1151=PLANE('',#1150);
#1152=ORIENTED_EDGE('',*,*,#1136,.T.);
#1154=ORIENTED_EDGE('',*,*,#1153,.T.);
#1156=ORIENTED_EDGE('',*,*,#1155,.T.);
#1158=ORIENTED_EDGE('',*,*,#1157,.T.);
#1160=ORIENTED_EDGE('',*,*,#1159,.T.);
#1162=ORIENTED_EDGE('',*,*,#1161,.T.);
#1163=EDGE_LOOP('',(#1152,#1154,#1156,#1158,#1160,#1162));
#1164=FACE_OUTER_BOUND('',#1163,.F.);
#1165=ADVANCED_FACE('',(#1164),#1151,.F.);
#1166=CARTESIAN_POINT('',(3.2E-1,0.E0,0.E0));
#1167=DIRECTION('',(-1.E0,0.E0,0.E0));
#1168=DIRECTION('',(0.E0,0.E0,1.E0));
#1169=AXIS2_PLACEMENT_3D('',#1166,#1167,#1168);
#1170=PLANE('',#1169);
#1172=ORIENTED_EDGE('',*,*,#1171,.F.);
#1174=ORIENTED_EDGE('',*,*,#1173,.T.);
#1176=ORIENTED_EDGE('',*,*,#1175,.T.);
#1178=ORIENTED_EDGE('',*,*,#1177,.T.);
#1179=EDGE_LOOP('',(#1172,#1174,#1176,#1178));
#1180=FACE_OUTER_BOUND('',#1179,.F.);
#1181=ADVANCED_FACE('',(#1180),#1170,.F.);
#1182=CARTESIAN_POINT('',(3.2E-1,0.E0,0.E0));
#1183=DIRECTION('',(-1.E0,0.E0,0.E0));
#1184=DIRECTION('',(0.E0,0.E0,1.E0));
#1185=AXIS2_PLACEMENT_3D('',#1182,#1183,#1184);
#1186=PLANE('',#1185);
#1188=ORIENTED_EDGE('',*,*,#1187,.T.);
#1190=ORIENTED_EDGE('',*,*,#1189,.F.);
#1192=ORIENTED_EDGE('',*,*,#1191,.T.);
#1194=ORIENTED_EDGE('',*,*,#1193,.T.);
#1195=EDGE_LOOP('',(#1188,#1190,#1192,#1194));
#1196=FACE_OUTER_BOUND('',#1195,.F.);
#1197=ADVANCED_FACE('',(#1196),#1186,.F.);
#1198=CARTESIAN_POINT('',(3.2E-1,0.E0,0.E0));
#1199=DIRECTION('',(-1.E0,0.E0,0.E0));
#1200=DIRECTION('',(0.E0,0.E0,1.E0));
#1201=AXIS2_PLACEMENT_3D('',#1198,#1199,#1200);
#1202=PLANE('',#1201);
#1203=ORIENTED_EDGE('',*,*,#1063,.F.);
#1205=ORIENTED_EDGE('',*,*,#1204,.T.);
#1207=ORIENTED_EDGE('',*,*,#1206,.T.);
#1209=ORIENTED_EDGE('',*,*,#1208,.T.);
#1210=EDGE_LOOP('',(#1203,#1205,#1207,#1209));
#1211=FACE_OUTER_BOUND('',#1210,.F.);
#1212=ADVANCED_FACE('',(#1211),#1202,.F.);
#1213=CARTESIAN_POINT('',(3.2E-1,5.25E0,-2.4E0));
#1214=DIRECTION('',(0.E0,1.E0,0.E0));
#1215=DIRECTION('',(0.E0,0.E0,-1.E0));
#1216=AXIS2_PLACEMENT_3D('',#1213,#1214,#1215);
#1217=PLANE('',#1216);
#1218=ORIENTED_EDGE('',*,*,#1142,.T.);
#1220=ORIENTED_EDGE('',*,*,#1219,.T.);
#1222=ORIENTED_EDGE('',*,*,#1221,.F.);
#1223=ORIENTED_EDGE('',*,*,#1153,.F.);
#1224=EDGE_LOOP('',(#1218,#1220,#1222,#1223));
#1225=FACE_OUTER_BOUND('',#1224,.F.);
#1226=ADVANCED_FACE('',(#1225),#1217,.T.);
#1227=CARTESIAN_POINT('',(3.2E-1,5.25E0,-2.4E0));
#1228=DIRECTION('',(0.E0,1.E0,0.E0));
#1229=DIRECTION('',(0.E0,0.E0,-1.E0));
#1230=AXIS2_PLACEMENT_3D('',#1227,#1228,#1229);
#1231=PLANE('',#1230);
#1233=ORIENTED_EDGE('',*,*,#1232,.F.);
#1234=ORIENTED_EDGE('',*,*,#1187,.F.);
#1236=ORIENTED_EDGE('',*,*,#1235,.T.);
#1238=ORIENTED_EDGE('',*,*,#1237,.T.);
#1239=EDGE_LOOP('',(#1233,#1234,#1236,#1238));
#1240=FACE_OUTER_BOUND('',#1239,.F.);
#1241=ADVANCED_FACE('',(#1240),#1231,.T.);
#1242=CARTESIAN_POINT('',(-3.2E-1,0.E0,0.E0));
#1243=DIRECTION('',(-1.E0,0.E0,0.E0));
#1244=DIRECTION('',(0.E0,0.E0,1.E0));
#1245=AXIS2_PLACEMENT_3D('',#1242,#1243,#1244);
#1246=PLANE('',#1245);
#1247=ORIENTED_EDGE('',*,*,#1140,.F.);
#1249=ORIENTED_EDGE('',*,*,#1248,.F.);
#1251=ORIENTED_EDGE('',*,*,#1250,.F.);
#1253=ORIENTED_EDGE('',*,*,#1252,.F.);
#1255=ORIENTED_EDGE('',*,*,#1254,.F.);
#1256=ORIENTED_EDGE('',*,*,#1219,.F.);
#1257=EDGE_LOOP('',(#1247,#1249,#1251,#1253,#1255,#1256));
#1258=FACE_OUTER_BOUND('',#1257,.F.);
#1259=ADVANCED_FACE('',(#1258),#1246,.T.);
#1260=CARTESIAN_POINT('',(-3.2E-1,0.E0,0.E0));
#1261=DIRECTION('',(-1.E0,0.E0,0.E0));
#1262=DIRECTION('',(0.E0,0.E0,1.E0));
#1263=AXIS2_PLACEMENT_3D('',#1260,#1261,#1262);
#1264=PLANE('',#1263);
#1266=ORIENTED_EDGE('',*,*,#1265,.T.);
#1268=ORIENTED_EDGE('',*,*,#1267,.F.);
#1270=ORIENTED_EDGE('',*,*,#1269,.F.);
#1272=ORIENTED_EDGE('',*,*,#1271,.F.);
#1273=EDGE_LOOP('',(#1266,#1268,#1270,#1272));
#1274=FACE_OUTER_BOUND('',#1273,.F.);
#1275=ADVANCED_FACE('',(#1274),#1264,.T.);
#1276=CARTESIAN_POINT('',(-3.2E-1,0.E0,0.E0));
#1277=DIRECTION('',(-1.E0,0.E0,0.E0));
#1278=DIRECTION('',(0.E0,0.E0,1.E0));
#1279=AXIS2_PLACEMENT_3D('',#1276,#1277,#1278);
#1280=PLANE('',#1279);
#1281=ORIENTED_EDGE('',*,*,#1237,.F.);
#1283=ORIENTED_EDGE('',*,*,#1282,.F.);
#1285=ORIENTED_EDGE('',*,*,#1284,.F.);
#1287=ORIENTED_EDGE('',*,*,#1286,.T.);
#1288=EDGE_LOOP('',(#1281,#1283,#1285,#1287));
#1289=FACE_OUTER_BOUND('',#1288,.F.);
#1290=ADVANCED_FACE('',(#1289),#1280,.T.);
#1291=CARTESIAN_POINT('',(-3.2E-1,0.E0,0.E0));
#1292=DIRECTION('',(-1.E0,0.E0,0.E0));
#1293=DIRECTION('',(0.E0,0.E0,1.E0));
#1294=AXIS2_PLACEMENT_3D('',#1291,#1292,#1293);
#1295=PLANE('',#1294);
#1296=ORIENTED_EDGE('',*,*,#1067,.T.);
#1298=ORIENTED_EDGE('',*,*,#1297,.F.);
#1300=ORIENTED_EDGE('',*,*,#1299,.F.);
#1302=ORIENTED_EDGE('',*,*,#1301,.F.);
#1303=EDGE_LOOP('',(#1296,#1298,#1300,#1302));
#1304=FACE_OUTER_BOUND('',#1303,.F.);
#1305=ADVANCED_FACE('',(#1304),#1295,.T.);
#1306=CARTESIAN_POINT('',(3.2E-1,4.61E0,-1.154E1));
#1307=DIRECTION('',(0.E0,-1.E0,0.E0));
#1308=DIRECTION('',(0.E0,0.E0,1.E0));
#1309=AXIS2_PLACEMENT_3D('',#1306,#1307,#1308);
#1310=PLANE('',#1309);
#1311=ORIENTED_EDGE('',*,*,#1138,.F.);
#1312=ORIENTED_EDGE('',*,*,#1161,.F.);
#1314=ORIENTED_EDGE('',*,*,#1313,.T.);
#1315=ORIENTED_EDGE('',*,*,#1248,.T.);
#1316=EDGE_LOOP('',(#1311,#1312,#1314,#1315));
#1317=FACE_OUTER_BOUND('',#1316,.F.);
#1318=ADVANCED_FACE('',(#1317),#1310,.T.);
#1319=CARTESIAN_POINT('',(3.2E-1,4.61E0,-1.154E1));
#1320=DIRECTION('',(0.E0,-1.E0,0.E0));
#1321=DIRECTION('',(0.E0,0.E0,1.E0));
#1322=AXIS2_PLACEMENT_3D('',#1319,#1320,#1321);
#1323=PLANE('',#1322);
#1325=ORIENTED_EDGE('',*,*,#1324,.T.);
#1326=ORIENTED_EDGE('',*,*,#1284,.T.);
#1328=ORIENTED_EDGE('',*,*,#1327,.F.);
#1329=ORIENTED_EDGE('',*,*,#1191,.F.);
#1330=EDGE_LOOP('',(#1325,#1326,#1328,#1329));
#1331=FACE_OUTER_BOUND('',#1330,.F.);
#1332=ADVANCED_FACE('',(#1331),#1323,.T.);
#1333=CARTESIAN_POINT('',(3.2E-1,-3.72E0,-1.154E1));
#1334=DIRECTION('',(0.E0,0.E0,1.E0));
#1335=DIRECTION('',(0.E0,1.E0,0.E0));
#1336=AXIS2_PLACEMENT_3D('',#1333,#1334,#1335);
#1337=PLANE('',#1336);
#1338=ORIENTED_EDGE('',*,*,#1159,.F.);
#1340=ORIENTED_EDGE('',*,*,#1339,.T.);
#1341=ORIENTED_EDGE('',*,*,#1250,.T.);
#1342=ORIENTED_EDGE('',*,*,#1313,.F.);
#1343=EDGE_LOOP('',(#1338,#1340,#1341,#1342));
#1344=FACE_OUTER_BOUND('',#1343,.F.);
#1345=ADVANCED_FACE('',(#1344),#1337,.T.);
#1346=CARTESIAN_POINT('',(3.2E-1,-3.72E0,-1.218E1));
#1347=DIRECTION('',(0.E0,-1.E0,0.E0));
#1348=DIRECTION('',(0.E0,0.E0,1.E0));
#1349=AXIS2_PLACEMENT_3D('',#1346,#1347,#1348);
#1350=PLANE('',#1349);
#1351=ORIENTED_EDGE('',*,*,#1157,.F.);
#1353=ORIENTED_EDGE('',*,*,#1352,.T.);
#1354=ORIENTED_EDGE('',*,*,#1252,.T.);
#1355=ORIENTED_EDGE('',*,*,#1339,.F.);
#1356=EDGE_LOOP('',(#1351,#1353,#1354,#1355));
#1357=FACE_OUTER_BOUND('',#1356,.F.);
#1358=ADVANCED_FACE('',(#1357),#1350,.T.);
#1359=CARTESIAN_POINT('',(3.2E-1,5.25E0,-1.218E1));
#1360=DIRECTION('',(0.E0,0.E0,-1.E0));
#1361=DIRECTION('',(0.E0,-1.E0,0.E0));
#1362=AXIS2_PLACEMENT_3D('',#1359,#1360,#1361);
#1363=PLANE('',#1362);
#1364=ORIENTED_EDGE('',*,*,#1155,.F.);
#1365=ORIENTED_EDGE('',*,*,#1221,.T.);
#1366=ORIENTED_EDGE('',*,*,#1254,.T.);
#1367=ORIENTED_EDGE('',*,*,#1352,.F.);
#1368=EDGE_LOOP('',(#1364,#1365,#1366,#1367));
#1369=FACE_OUTER_BOUND('',#1368,.F.);
#1370=ADVANCED_FACE('',(#1369),#1363,.T.);
#1371=CARTESIAN_POINT('',(0.E0,0.E0,-3.1E0));
#1372=DIRECTION('',(0.E0,0.E0,1.E0));
#1373=DIRECTION('',(1.E0,0.E0,0.E0));
#1374=AXIS2_PLACEMENT_3D('',#1371,#1372,#1373);
#1375=PLANE('',#1374);
#1377=ORIENTED_EDGE('',*,*,#1376,.T.);
#1379=ORIENTED_EDGE('',*,*,#1378,.F.);
#1381=ORIENTED_EDGE('',*,*,#1380,.F.);
#1383=ORIENTED_EDGE('',*,*,#1382,.T.);
#1385=ORIENTED_EDGE('',*,*,#1384,.T.);
#1387=ORIENTED_EDGE('',*,*,#1386,.F.);
#1389=ORIENTED_EDGE('',*,*,#1388,.F.);
#1391=ORIENTED_EDGE('',*,*,#1390,.F.);
#1393=ORIENTED_EDGE('',*,*,#1392,.F.);
#1395=ORIENTED_EDGE('',*,*,#1394,.F.);
#1396=EDGE_LOOP('',(#1377,#1379,#1381,#1383,#1385,#1387,#1389,#1391,#1393,
#1395));
#1397=FACE_OUTER_BOUND('',#1396,.F.);
#1398=ORIENTED_EDGE('',*,*,#1232,.T.);
#1399=ORIENTED_EDGE('',*,*,#1286,.F.);
#1400=ORIENTED_EDGE('',*,*,#1324,.F.);
#1401=ORIENTED_EDGE('',*,*,#1189,.T.);
#1402=EDGE_LOOP('',(#1398,#1399,#1400,#1401));
#1403=FACE_BOUND('',#1402,.F.);
#1404=ORIENTED_EDGE('',*,*,#1171,.T.);
#1406=ORIENTED_EDGE('',*,*,#1405,.T.);
#1407=ORIENTED_EDGE('',*,*,#1265,.F.);
#1409=ORIENTED_EDGE('',*,*,#1408,.F.);
#1410=EDGE_LOOP('',(#1404,#1406,#1407,#1409));
#1411=FACE_BOUND('',#1410,.F.);
#1412=ADVANCED_FACE('',(#1397,#1403,#1411),#1375,.T.);
#1413=CARTESIAN_POINT('',(3.2E-1,2.25E0,-2.4E0));
#1414=DIRECTION('',(0.E0,1.E0,0.E0));
#1415=DIRECTION('',(0.E0,0.E0,-1.E0));
#1416=AXIS2_PLACEMENT_3D('',#1413,#1414,#1415);
#1417=PLANE('',#1416);
#1418=ORIENTED_EDGE('',*,*,#1405,.F.);
#1419=ORIENTED_EDGE('',*,*,#1177,.F.);
#1421=ORIENTED_EDGE('',*,*,#1420,.T.);
#1422=ORIENTED_EDGE('',*,*,#1267,.T.);
#1423=EDGE_LOOP('',(#1418,#1419,#1421,#1422));
#1424=FACE_OUTER_BOUND('',#1423,.F.);
#1425=ADVANCED_FACE('',(#1424),#1417,.T.);
#1426=CARTESIAN_POINT('',(3.2E-1,1.61E0,-2.4E0));
#1427=DIRECTION('',(0.E0,0.E0,1.E0));
#1428=DIRECTION('',(0.E0,1.E0,0.E0));
#1429=AXIS2_PLACEMENT_3D('',#1426,#1427,#1428);
#1430=PLANE('',#1429);
#1431=ORIENTED_EDGE('',*,*,#1175,.F.);
#1433=ORIENTED_EDGE('',*,*,#1432,.T.);
#1434=ORIENTED_EDGE('',*,*,#1269,.T.);
#1435=ORIENTED_EDGE('',*,*,#1420,.F.);
#1436=EDGE_LOOP('',(#1431,#1433,#1434,#1435));
#1437=FACE_OUTER_BOUND('',#1436,.F.);
#1438=ADVANCED_FACE('',(#1437),#1430,.T.);
#1439=CARTESIAN_POINT('',(3.2E-1,1.61E0,-8.58E0));
#1440=DIRECTION('',(0.E0,-1.E0,0.E0));
#1441=DIRECTION('',(0.E0,0.E0,1.E0));
#1442=AXIS2_PLACEMENT_3D('',#1439,#1440,#1441);
#1443=PLANE('',#1442);
#1444=ORIENTED_EDGE('',*,*,#1408,.T.);
#1445=ORIENTED_EDGE('',*,*,#1271,.T.);
#1446=ORIENTED_EDGE('',*,*,#1432,.F.);
#1447=ORIENTED_EDGE('',*,*,#1173,.F.);
#1448=EDGE_LOOP('',(#1444,#1445,#1446,#1447));
#1449=FACE_OUTER_BOUND('',#1448,.F.);
#1450=ADVANCED_FACE('',(#1449),#1443,.T.);
#1451=CARTESIAN_POINT('',(-6.2E-1,3.66E0,0.E0));
#1452=DIRECTION('',(7.071067811865E-1,7.071067811865E-1,0.E0));
#1453=DIRECTION('',(-7.071067811865E-1,7.071067811865E-1,0.E0));
#1454=AXIS2_PLACEMENT_3D('',#1451,#1452,#1453);
#1455=PLANE('',#1454);
#1456=ORIENTED_EDGE('',*,*,#1376,.F.);
#1458=ORIENTED_EDGE('',*,*,#1457,.T.);
#1459=ORIENTED_EDGE('',*,*,#1016,.T.);
#1461=ORIENTED_EDGE('',*,*,#1460,.F.);
#1462=EDGE_LOOP('',(#1456,#1458,#1459,#1461));
#1463=FACE_OUTER_BOUND('',#1462,.F.);
#1464=ADVANCED_FACE('',(#1463),#1455,.T.);
#1465=CARTESIAN_POINT('',(-1.27E0,3.66E0,0.E0));
#1466=DIRECTION('',(0.E0,-1.E0,0.E0));
#1467=DIRECTION('',(1.E0,0.E0,0.E0));
#1468=AXIS2_PLACEMENT_3D('',#1465,#1466,#1467);
#1469=PLANE('',#1468);
#1470=ORIENTED_EDGE('',*,*,#1457,.F.);
#1471=ORIENTED_EDGE('',*,*,#1394,.T.);
#1473=ORIENTED_EDGE('',*,*,#1472,.T.);
#1474=ORIENTED_EDGE('',*,*,#1018,.F.);
#1475=EDGE_LOOP('',(#1470,#1471,#1473,#1474));
#1476=FACE_OUTER_BOUND('',#1475,.F.);
#1477=ADVANCED_FACE('',(#1476),#1469,.F.);
#1478=CARTESIAN_POINT('',(5.625E-1,3.66E0,0.E0));
#1479=DIRECTION('',(-1.E0,0.E0,0.E0));
#1480=DIRECTION('',(0.E0,-1.E0,0.E0));
#1481=AXIS2_PLACEMENT_3D('',#1478,#1479,#1480);
#1482=PLANE('',#1481);
#1483=ORIENTED_EDGE('',*,*,#1020,.F.);
#1484=ORIENTED_EDGE('',*,*,#1472,.F.);
#1485=ORIENTED_EDGE('',*,*,#1392,.T.);
#1487=ORIENTED_EDGE('',*,*,#1486,.T.);
#1488=EDGE_LOOP('',(#1483,#1484,#1485,#1487));
#1489=FACE_OUTER_BOUND('',#1488,.F.);
#1490=ADVANCED_FACE('',(#1489),#1482,.F.);
#1491=CARTESIAN_POINT('',(1.27E0,3.2E0,0.E0));
#1492=DIRECTION('',(0.E0,1.E0,0.E0));
#1493=DIRECTION('',(-1.E0,0.E0,0.E0));
#1494=AXIS2_PLACEMENT_3D('',#1491,#1492,#1493);
#1495=PLANE('',#1494);
#1496=ORIENTED_EDGE('',*,*,#1486,.F.);
#1497=ORIENTED_EDGE('',*,*,#1390,.T.);
#1499=ORIENTED_EDGE('',*,*,#1498,.F.);
#1500=ORIENTED_EDGE('',*,*,#1022,.F.);
#1501=EDGE_LOOP('',(#1496,#1497,#1499,#1500));
#1502=FACE_OUTER_BOUND('',#1501,.F.);
#1503=ADVANCED_FACE('',(#1502),#1495,.F.);
#1504=CARTESIAN_POINT('',(-1.27E0,3.2E0,0.E0));
#1505=DIRECTION('',(-1.E0,0.E0,0.E0));
#1506=DIRECTION('',(0.E0,-1.E0,0.E0));
#1507=AXIS2_PLACEMENT_3D('',#1504,#1505,#1506);
#1508=PLANE('',#1507);
#1509=ORIENTED_EDGE('',*,*,#1024,.F.);
#1510=ORIENTED_EDGE('',*,*,#1498,.T.);
#1511=ORIENTED_EDGE('',*,*,#1388,.T.);
#1513=ORIENTED_EDGE('',*,*,#1512,.F.);
#1514=EDGE_LOOP('',(#1509,#1510,#1511,#1513));
#1515=FACE_OUTER_BOUND('',#1514,.F.);
#1516=ADVANCED_FACE('',(#1515),#1508,.F.);
#1517=CARTESIAN_POINT('',(-1.27E0,6.6E-1,0.E0));
#1518=DIRECTION('',(0.E0,-1.E0,0.E0));
#1519=DIRECTION('',(1.E0,0.E0,0.E0));
#1520=AXIS2_PLACEMENT_3D('',#1517,#1518,#1519);
#1521=PLANE('',#1520);
#1523=ORIENTED_EDGE('',*,*,#1522,.T.);
#1524=ORIENTED_EDGE('',*,*,#1006,.F.);
#1525=ORIENTED_EDGE('',*,*,#1512,.T.);
#1526=ORIENTED_EDGE('',*,*,#1386,.T.);
#1527=EDGE_LOOP('',(#1523,#1524,#1525,#1526));
#1528=FACE_OUTER_BOUND('',#1527,.F.);
#1529=ADVANCED_FACE('',(#1528),#1521,.F.);
#1530=CARTESIAN_POINT('',(1.27E0,1.31E0,0.E0));
#1531=DIRECTION('',(-7.071067811865E-1,7.071067811865E-1,0.E0));
#1532=DIRECTION('',(-7.071067811865E-1,-7.071067811865E-1,0.E0));
#1533=AXIS2_PLACEMENT_3D('',#1530,#1531,#1532);
#1534=PLANE('',#1533);
#1535=ORIENTED_EDGE('',*,*,#1384,.F.);
#1537=ORIENTED_EDGE('',*,*,#1536,.T.);
#1538=ORIENTED_EDGE('',*,*,#1008,.T.);
#1539=ORIENTED_EDGE('',*,*,#1522,.F.);
#1540=EDGE_LOOP('',(#1535,#1537,#1538,#1539));
#1541=FACE_OUTER_BOUND('',#1540,.F.);
#1542=ADVANCED_FACE('',(#1541),#1534,.T.);
#1543=CARTESIAN_POINT('',(1.27E0,6.6E-1,0.E0));
#1544=DIRECTION('',(1.E0,0.E0,0.E0));
#1545=DIRECTION('',(0.E0,1.E0,0.E0));
#1546=AXIS2_PLACEMENT_3D('',#1543,#1544,#1545);
#1547=PLANE('',#1546);
#1548=ORIENTED_EDGE('',*,*,#1536,.F.);
#1549=ORIENTED_EDGE('',*,*,#1382,.F.);
#1551=ORIENTED_EDGE('',*,*,#1550,.F.);
#1552=ORIENTED_EDGE('',*,*,#1010,.T.);
#1553=EDGE_LOOP('',(#1548,#1549,#1551,#1552));
#1554=FACE_OUTER_BOUND('',#1553,.F.);
#1555=ADVANCED_FACE('',(#1554),#1547,.F.);
#1556=CARTESIAN_POINT('',(1.27E0,6.2E0,0.E0));
#1557=DIRECTION('',(0.E0,1.E0,0.E0));
#1558=DIRECTION('',(-1.E0,0.E0,0.E0));
#1559=AXIS2_PLACEMENT_3D('',#1556,#1557,#1558);
#1560=PLANE('',#1559);
#1561=ORIENTED_EDGE('',*,*,#1012,.F.);
#1562=ORIENTED_EDGE('',*,*,#1550,.T.);
#1563=ORIENTED_EDGE('',*,*,#1380,.T.);
#1565=ORIENTED_EDGE('',*,*,#1564,.F.);
#1566=EDGE_LOOP('',(#1561,#1562,#1563,#1565));
#1567=FACE_OUTER_BOUND('',#1566,.F.);
#1568=ADVANCED_FACE('',(#1567),#1560,.F.);
#1569=CARTESIAN_POINT('',(-1.27E0,6.2E0,0.E0));
#1570=DIRECTION('',(-1.E0,0.E0,0.E0));
#1571=DIRECTION('',(0.E0,-1.E0,0.E0));
#1572=AXIS2_PLACEMENT_3D('',#1569,#1570,#1571);
#1573=PLANE('',#1572);
#1574=ORIENTED_EDGE('',*,*,#1460,.T.);
#1575=ORIENTED_EDGE('',*,*,#1014,.F.);
#1576=ORIENTED_EDGE('',*,*,#1564,.T.);
#1577=ORIENTED_EDGE('',*,*,#1378,.T.);
#1578=EDGE_LOOP('',(#1574,#1575,#1576,#1577));
#1579=FACE_OUTER_BOUND('',#1578,.F.);
#1580=ADVANCED_FACE('',(#1579),#1573,.F.);
#1581=CARTESIAN_POINT('',(3.2E-1,4.61E0,-2.4E0));
#1582=DIRECTION('',(0.E0,0.E0,1.E0));
#1583=DIRECTION('',(0.E0,1.E0,0.E0));
#1584=AXIS2_PLACEMENT_3D('',#1581,#1582,#1583);
#1585=PLANE('',#1584);
#1586=ORIENTED_EDGE('',*,*,#1193,.F.);
#1587=ORIENTED_EDGE('',*,*,#1327,.T.);
#1588=ORIENTED_EDGE('',*,*,#1282,.T.);
#1589=ORIENTED_EDGE('',*,*,#1235,.F.);
#1590=EDGE_LOOP('',(#1586,#1587,#1588,#1589));
#1591=FACE_OUTER_BOUND('',#1590,.F.);
#1592=ADVANCED_FACE('',(#1591),#1585,.T.);
#1593=CARTESIAN_POINT('',(3.2E-1,-3.72E0,-8.58E0));
#1594=DIRECTION('',(0.E0,0.E0,1.E0));
#1595=DIRECTION('',(0.E0,1.E0,0.E0));
#1596=AXIS2_PLACEMENT_3D('',#1593,#1594,#1595);
#1597=PLANE('',#1596);
#1598=ORIENTED_EDGE('',*,*,#1065,.F.);
#1599=ORIENTED_EDGE('',*,*,#1208,.F.);
#1601=ORIENTED_EDGE('',*,*,#1600,.T.);
#1602=ORIENTED_EDGE('',*,*,#1297,.T.);
#1603=EDGE_LOOP('',(#1598,#1599,#1601,#1602));
#1604=FACE_OUTER_BOUND('',#1603,.F.);
#1605=ADVANCED_FACE('',(#1604),#1597,.T.);
#1606=CARTESIAN_POINT('',(3.2E-1,-3.72E0,-9.22E0));
#1607=DIRECTION('',(0.E0,-1.E0,0.E0));
#1608=DIRECTION('',(0.E0,0.E0,1.E0));
#1609=AXIS2_PLACEMENT_3D('',#1606,#1607,#1608);
#1610=PLANE('',#1609);
#1611=ORIENTED_EDGE('',*,*,#1206,.F.);
#1613=ORIENTED_EDGE('',*,*,#1612,.T.);
#1614=ORIENTED_EDGE('',*,*,#1299,.T.);
#1615=ORIENTED_EDGE('',*,*,#1600,.F.);
#1616=EDGE_LOOP('',(#1611,#1613,#1614,#1615));
#1617=FACE_OUTER_BOUND('',#1616,.F.);
#1618=ADVANCED_FACE('',(#1617),#1610,.T.);
#1619=CARTESIAN_POINT('',(3.2E-1,2.25E0,-9.22E0));
#1620=DIRECTION('',(0.E0,0.E0,-1.E0));
#1621=DIRECTION('',(0.E0,-1.E0,0.E0));
#1622=AXIS2_PLACEMENT_3D('',#1619,#1620,#1621);
#1623=PLANE('',#1622);
#1624=ORIENTED_EDGE('',*,*,#1069,.T.);
#1625=ORIENTED_EDGE('',*,*,#1301,.T.);
#1626=ORIENTED_EDGE('',*,*,#1612,.F.);
#1627=ORIENTED_EDGE('',*,*,#1204,.F.);
#1628=EDGE_LOOP('',(#1624,#1625,#1626,#1627));
#1629=FACE_OUTER_BOUND('',#1628,.F.);
#1630=ADVANCED_FACE('',(#1629),#1623,.T.);
#1631=CARTESIAN_POINT('',(-7.E-1,0.E0,0.E0));
#1632=DIRECTION('',(1.E0,0.E0,0.E0));
#1633=DIRECTION('',(0.E0,0.E0,-1.E0));
#1634=AXIS2_PLACEMENT_3D('',#1631,#1632,#1633);
#1635=PLANE('',#1634);
#1636=ORIENTED_EDGE('',*,*,#1101,.T.);
#1638=ORIENTED_EDGE('',*,*,#1637,.T.);
#1640=ORIENTED_EDGE('',*,*,#1639,.T.);
#1642=ORIENTED_EDGE('',*,*,#1641,.T.);
#1643=EDGE_LOOP('',(#1636,#1638,#1640,#1642));
#1644=FACE_OUTER_BOUND('',#1643,.F.);
#1645=ADVANCED_FACE('',(#1644),#1635,.F.);
#1646=CARTESIAN_POINT('',(-7.E-1,6.86E0,-2.95E0));
#1647=DIRECTION('',(0.E0,0.E0,-1.E0));
#1648=DIRECTION('',(0.E0,1.E0,0.E0));
#1649=AXIS2_PLACEMENT_3D('',#1646,#1647,#1648);
#1650=PLANE('',#1649);
#1651=ORIENTED_EDGE('',*,*,#1107,.T.);
#1653=ORIENTED_EDGE('',*,*,#1652,.T.);
#1655=ORIENTED_EDGE('',*,*,#1654,.F.);
#1656=ORIENTED_EDGE('',*,*,#1637,.F.);
#1657=EDGE_LOOP('',(#1651,#1653,#1655,#1656));
#1658=FACE_OUTER_BOUND('',#1657,.F.);
#1659=ADVANCED_FACE('',(#1658),#1650,.T.);
#1660=CARTESIAN_POINT('',(7.E-1,0.E0,0.E0));
#1661=DIRECTION('',(1.E0,0.E0,0.E0));
#1662=DIRECTION('',(0.E0,0.E0,-1.E0));
#1663=AXIS2_PLACEMENT_3D('',#1660,#1661,#1662);
#1664=PLANE('',#1663);
#1665=ORIENTED_EDGE('',*,*,#1105,.F.);
#1667=ORIENTED_EDGE('',*,*,#1666,.F.);
#1669=ORIENTED_EDGE('',*,*,#1668,.F.);
#1670=ORIENTED_EDGE('',*,*,#1652,.F.);
#1671=EDGE_LOOP('',(#1665,#1667,#1669,#1670));
#1672=FACE_OUTER_BOUND('',#1671,.F.);
#1673=ADVANCED_FACE('',(#1672),#1664,.T.);
#1674=CARTESIAN_POINT('',(-7.E-1,8.26E0,-2.2E0));
#1675=DIRECTION('',(0.E0,7.644333195971E-1,6.447027996602E-1));
#1676=DIRECTION('',(0.E0,-6.447027996602E-1,7.644333195971E-1));
#1677=AXIS2_PLACEMENT_3D('',#1674,#1675,#1676);
#1678=PLANE('',#1677);
#1679=ORIENTED_EDGE('',*,*,#1641,.F.);
#1681=ORIENTED_EDGE('',*,*,#1680,.T.);
#1682=ORIENTED_EDGE('',*,*,#1666,.T.);
#1683=ORIENTED_EDGE('',*,*,#1103,.F.);
#1684=EDGE_LOOP('',(#1679,#1681,#1682,#1683));
#1685=FACE_OUTER_BOUND('',#1684,.F.);
#1686=ADVANCED_FACE('',(#1685),#1678,.T.);
#1687=CARTESIAN_POINT('',(-7.E-1,8.26E0,-2.95E0));
#1688=DIRECTION('',(0.E0,1.E0,0.E0));
#1689=DIRECTION('',(0.E0,0.E0,1.E0));
#1690=AXIS2_PLACEMENT_3D('',#1687,#1688,#1689);
#1691=PLANE('',#1690);
#1692=ORIENTED_EDGE('',*,*,#1639,.F.);
#1693=ORIENTED_EDGE('',*,*,#1654,.T.);
#1694=ORIENTED_EDGE('',*,*,#1668,.T.);
#1695=ORIENTED_EDGE('',*,*,#1680,.F.);
#1696=EDGE_LOOP('',(#1692,#1693,#1694,#1695));
#1697=FACE_OUTER_BOUND('',#1696,.F.);
#1698=ADVANCED_FACE('',(#1697),#1691,.T.);
#1699=CARTESIAN_POINT('',(4.75E-1,0.E0,-1.6E0));
#1700=DIRECTION('',(-1.E0,0.E0,0.E0));
#1701=DIRECTION('',(0.E0,0.E0,-1.E0));
#1702=AXIS2_PLACEMENT_3D('',#1699,#1700,#1701);
#1703=PLANE('',#1702);
#1705=ORIENTED_EDGE('',*,*,#1704,.F.);
#1707=ORIENTED_EDGE('',*,*,#1706,.F.);
#1709=ORIENTED_EDGE('',*,*,#1708,.F.);
#1711=ORIENTED_EDGE('',*,*,#1710,.F.);
#1713=ORIENTED_EDGE('',*,*,#1712,.T.);
#1715=ORIENTED_EDGE('',*,*,#1714,.F.);
#1717=ORIENTED_EDGE('',*,*,#1716,.F.);
#1718=ORIENTED_EDGE('',*,*,#1043,.F.);
#1720=ORIENTED_EDGE('',*,*,#1719,.T.);
#1722=ORIENTED_EDGE('',*,*,#1721,.F.);
#1723=EDGE_LOOP('',(#1705,#1707,#1709,#1711,#1713,#1715,#1717,#1718,#1720,
#1722));
#1724=FACE_OUTER_BOUND('',#1723,.F.);
#1725=ADVANCED_FACE('',(#1724),#1703,.T.);
#1726=CARTESIAN_POINT('',(7.85E0,-3.79E0,-3.6E0));
#1727=DIRECTION('',(0.E0,0.E0,-1.E0));
#1728=DIRECTION('',(0.E0,1.E0,0.E0));
#1729=AXIS2_PLACEMENT_3D('',#1726,#1727,#1728);
#1730=PLANE('',#1729);
#1732=ORIENTED_EDGE('',*,*,#1731,.T.);
#1733=ORIENTED_EDGE('',*,*,#1704,.T.);
#1735=ORIENTED_EDGE('',*,*,#1734,.F.);
#1737=ORIENTED_EDGE('',*,*,#1736,.T.);
#1739=ORIENTED_EDGE('',*,*,#1738,.F.);
#1741=ORIENTED_EDGE('',*,*,#1740,.T.);
#1742=EDGE_LOOP('',(#1732,#1733,#1735,#1737,#1739,#1741));
#1743=FACE_OUTER_BOUND('',#1742,.F.);
#1744=ADVANCED_FACE('',(#1743),#1730,.F.);
#1745=CARTESIAN_POINT('',(7.85E0,-3.79E0,-3.6E0));
#1746=DIRECTION('',(0.E0,0.E0,-1.E0));
#1747=DIRECTION('',(0.E0,1.E0,0.E0));
#1748=AXIS2_PLACEMENT_3D('',#1745,#1746,#1747);
#1749=PLANE('',#1748);
#1751=ORIENTED_EDGE('',*,*,#1750,.F.);
#1753=ORIENTED_EDGE('',*,*,#1752,.F.);
#1755=ORIENTED_EDGE('',*,*,#1754,.T.);
#1757=ORIENTED_EDGE('',*,*,#1756,.T.);
#1759=ORIENTED_EDGE('',*,*,#1758,.T.);
#1761=ORIENTED_EDGE('',*,*,#1760,.F.);
#1762=EDGE_LOOP('',(#1751,#1753,#1755,#1757,#1759,#1761));
#1763=FACE_OUTER_BOUND('',#1762,.F.);
#1764=ADVANCED_FACE('',(#1763),#1749,.F.);
#1765=CARTESIAN_POINT('',(3.75E-1,-3.215E0,-4.6E0));
#1766=DIRECTION('',(0.E0,1.E0,0.E0));
#1767=DIRECTION('',(0.E0,0.E0,-1.E0));
#1768=AXIS2_PLACEMENT_3D('',#1765,#1766,#1767);
#1769=CONICAL_SURFACE('',#1768,1.026590633911E0,3.3E1);
#1770=ORIENTED_EDGE('',*,*,#1731,.F.);
#1772=ORIENTED_EDGE('',*,*,#1771,.F.);
#1774=ORIENTED_EDGE('',*,*,#1773,.F.);
#1775=ORIENTED_EDGE('',*,*,#1710,.T.);
#1777=ORIENTED_EDGE('',*,*,#1776,.T.);
#1778=ORIENTED_EDGE('',*,*,#1706,.T.);
#1779=EDGE_LOOP('',(#1770,#1772,#1774,#1775,#1777,#1778));
#1780=FACE_OUTER_BOUND('',#1779,.F.);
#1781=ADVANCED_FACE('',(#1780),#1769,.T.);
#1782=CARTESIAN_POINT('',(3.75E-1,1.895E-1,-4.6E0));
#1783=DIRECTION('',(0.E0,-1.E0,0.E0));
#1784=DIRECTION('',(0.E0,0.E0,1.E0));
#1785=AXIS2_PLACEMENT_3D('',#1782,#1783,#1784);
#1786=CYLINDRICAL_SURFACE('',#1785,1.4E0);
#1787=ORIENTED_EDGE('',*,*,#1740,.F.);
#1789=ORIENTED_EDGE('',*,*,#1788,.F.);
#1791=ORIENTED_EDGE('',*,*,#1790,.T.);
#1792=ORIENTED_EDGE('',*,*,#1771,.T.);
#1793=EDGE_LOOP('',(#1787,#1789,#1791,#1792));
#1794=FACE_OUTER_BOUND('',#1793,.F.);
#1795=ADVANCED_FACE('',(#1794),#1786,.T.);
#1796=CARTESIAN_POINT('',(3.75E-1,-2.29E0,-4.6E0));
#1797=DIRECTION('',(0.E0,-1.E0,0.E0));
#1798=DIRECTION('',(0.E0,0.E0,1.E0));
#1799=AXIS2_PLACEMENT_3D('',#1796,#1797,#1798);
#1800=PLANE('',#1799);
#1801=ORIENTED_EDGE('',*,*,#1738,.T.);
#1803=ORIENTED_EDGE('',*,*,#1802,.F.);
#1805=ORIENTED_EDGE('',*,*,#1804,.F.);
#1806=ORIENTED_EDGE('',*,*,#1788,.T.);
#1807=EDGE_LOOP('',(#1801,#1803,#1805,#1806));
#1808=FACE_OUTER_BOUND('',#1807,.F.);
#1809=ADVANCED_FACE('',(#1808),#1800,.F.);
#1810=CARTESIAN_POINT('',(3.75E-1,1.895E-1,-4.6E0));
#1811=DIRECTION('',(0.E0,-1.E0,0.E0));
#1812=DIRECTION('',(0.E0,0.E0,1.E0));
#1813=AXIS2_PLACEMENT_3D('',#1810,#1811,#1812);
#1814=CYLINDRICAL_SURFACE('',#1813,1.1E0);
#1815=ORIENTED_EDGE('',*,*,#1736,.F.);
#1817=ORIENTED_EDGE('',*,*,#1816,.F.);
#1819=ORIENTED_EDGE('',*,*,#1818,.F.);
#1821=ORIENTED_EDGE('',*,*,#1820,.T.);
#1822=ORIENTED_EDGE('',*,*,#1802,.T.);
#1823=EDGE_LOOP('',(#1815,#1817,#1819,#1821,#1822));
#1824=FACE_OUTER_BOUND('',#1823,.F.);
#1825=ADVANCED_FACE('',(#1824),#1814,.T.);
#1826=CARTESIAN_POINT('',(0.E0,-5.4E-1,0.E0));
#1827=DIRECTION('',(0.E0,-1.E0,0.E0));
#1828=DIRECTION('',(1.E0,0.E0,0.E0));
#1829=AXIS2_PLACEMENT_3D('',#1826,#1827,#1828);
#1830=PLANE('',#1829);
#1831=ORIENTED_EDGE('',*,*,#1816,.T.);
#1832=ORIENTED_EDGE('',*,*,#1734,.T.);
#1833=ORIENTED_EDGE('',*,*,#1721,.T.);
#1835=ORIENTED_EDGE('',*,*,#1834,.F.);
#1837=ORIENTED_EDGE('',*,*,#1836,.F.);
#1838=EDGE_LOOP('',(#1831,#1832,#1833,#1835,#1837));
#1839=FACE_OUTER_BOUND('',#1838,.F.);
#1840=ADVANCED_FACE('',(#1839),#1830,.T.);
#1841=CARTESIAN_POINT('',(0.E0,-5.4E-1,0.E0));
#1842=DIRECTION('',(0.E0,-1.E0,0.E0));
#1843=DIRECTION('',(1.E0,0.E0,0.E0));
#1844=AXIS2_PLACEMENT_3D('',#1841,#1842,#1843);
#1845=PLANE('',#1844);
#1846=ORIENTED_EDGE('',*,*,#1714,.T.);
#1848=ORIENTED_EDGE('',*,*,#1847,.F.);
#1849=ORIENTED_EDGE('',*,*,#1818,.T.);
#1851=ORIENTED_EDGE('',*,*,#1850,.F.);
#1853=ORIENTED_EDGE('',*,*,#1852,.F.);
#1854=EDGE_LOOP('',(#1846,#1848,#1849,#1851,#1853));
#1855=FACE_OUTER_BOUND('',#1854,.F.);
#1856=ADVANCED_FACE('',(#1855),#1845,.T.);
#1857=CARTESIAN_POINT('',(0.E0,-5.4E-1,0.E0));
#1858=DIRECTION('',(0.E0,-1.E0,0.E0));
#1859=DIRECTION('',(1.E0,0.E0,0.E0));
#1860=AXIS2_PLACEMENT_3D('',#1857,#1858,#1859);
#1861=PLANE('',#1860);
#1863=ORIENTED_EDGE('',*,*,#1862,.T.);
#1864=ORIENTED_EDGE('',*,*,#1760,.T.);
#1866=ORIENTED_EDGE('',*,*,#1865,.F.);
#1868=ORIENTED_EDGE('',*,*,#1867,.F.);
#1870=ORIENTED_EDGE('',*,*,#1869,.F.);
#1871=EDGE_LOOP('',(#1863,#1864,#1866,#1868,#1870));
#1872=FACE_OUTER_BOUND('',#1871,.F.);
#1873=ADVANCED_FACE('',(#1872),#1861,.T.);
#1874=CARTESIAN_POINT('',(0.E0,-5.4E-1,0.E0));
#1875=DIRECTION('',(0.E0,-1.E0,0.E0));
#1876=DIRECTION('',(1.E0,0.E0,0.E0));
#1877=AXIS2_PLACEMENT_3D('',#1874,#1875,#1876);
#1878=PLANE('',#1877);
#1880=ORIENTED_EDGE('',*,*,#1879,.F.);
#1882=ORIENTED_EDGE('',*,*,#1881,.F.);
#1884=ORIENTED_EDGE('',*,*,#1883,.T.);
#1886=ORIENTED_EDGE('',*,*,#1885,.F.);
#1888=ORIENTED_EDGE('',*,*,#1887,.F.);
#1889=EDGE_LOOP('',(#1880,#1882,#1884,#1886,#1888));
#1890=FACE_OUTER_BOUND('',#1889,.F.);
#1891=ADVANCED_FACE('',(#1890),#1878,.T.);
#1892=CARTESIAN_POINT('',(1.475E0,0.E0,-1.6E0));
#1893=DIRECTION('',(0.E0,0.E0,1.E0));
#1894=DIRECTION('',(-1.E0,0.E0,0.E0));
#1895=AXIS2_PLACEMENT_3D('',#1892,#1893,#1894);
#1896=PLANE('',#1895);
#1897=ORIENTED_EDGE('',*,*,#1049,.F.);
#1899=ORIENTED_EDGE('',*,*,#1898,.T.);
#1900=ORIENTED_EDGE('',*,*,#1834,.T.);
#1901=ORIENTED_EDGE('',*,*,#1719,.F.);
#1902=EDGE_LOOP('',(#1897,#1899,#1900,#1901));
#1903=FACE_OUTER_BOUND('',#1902,.F.);
#1904=ADVANCED_FACE('',(#1903),#1896,.T.);
#1905=CARTESIAN_POINT('',(1.475E0,0.E0,-8.06E0));
#1906=DIRECTION('',(1.E0,0.E0,0.E0));
#1907=DIRECTION('',(0.E0,0.E0,1.E0));
#1908=AXIS2_PLACEMENT_3D('',#1905,#1906,#1907);
#1909=PLANE('',#1908);
#1910=ORIENTED_EDGE('',*,*,#1850,.T.);
#1911=ORIENTED_EDGE('',*,*,#1836,.T.);
#1912=ORIENTED_EDGE('',*,*,#1898,.F.);
#1913=ORIENTED_EDGE('',*,*,#1047,.F.);
#1915=ORIENTED_EDGE('',*,*,#1914,.T.);
#1916=EDGE_LOOP('',(#1910,#1911,#1912,#1913,#1915));
#1917=FACE_OUTER_BOUND('',#1916,.F.);
#1918=ADVANCED_FACE('',(#1917),#1909,.T.);
#1919=CARTESIAN_POINT('',(4.75E-1,0.E0,-8.06E0));
#1920=DIRECTION('',(0.E0,0.E0,-1.E0));
#1921=DIRECTION('',(1.E0,0.E0,0.E0));
#1922=AXIS2_PLACEMENT_3D('',#1919,#1920,#1921);
#1923=PLANE('',#1922);
#1924=ORIENTED_EDGE('',*,*,#1045,.F.);
#1925=ORIENTED_EDGE('',*,*,#1716,.T.);
#1926=ORIENTED_EDGE('',*,*,#1852,.T.);
#1927=ORIENTED_EDGE('',*,*,#1914,.F.);
#1928=EDGE_LOOP('',(#1924,#1925,#1926,#1927));
#1929=FACE_OUTER_BOUND('',#1928,.F.);
#1930=ADVANCED_FACE('',(#1929),#1923,.T.);
#1931=CARTESIAN_POINT('',(7.85E0,-5.4E-1,-5.6E0));
#1932=DIRECTION('',(0.E0,0.E0,1.E0));
#1933=DIRECTION('',(0.E0,-1.E0,0.E0));
#1934=AXIS2_PLACEMENT_3D('',#1931,#1932,#1933);
#1935=PLANE('',#1934);
#1936=ORIENTED_EDGE('',*,*,#1773,.T.);
#1937=ORIENTED_EDGE('',*,*,#1790,.F.);
#1938=ORIENTED_EDGE('',*,*,#1804,.T.);
#1939=ORIENTED_EDGE('',*,*,#1820,.F.);
#1940=ORIENTED_EDGE('',*,*,#1847,.T.);
#1941=ORIENTED_EDGE('',*,*,#1712,.F.);
#1942=EDGE_LOOP('',(#1936,#1937,#1938,#1939,#1940,#1941));
#1943=FACE_OUTER_BOUND('',#1942,.F.);
#1944=ADVANCED_FACE('',(#1943),#1935,.F.);
#1945=CARTESIAN_POINT('',(7.85E0,-5.4E-1,-5.6E0));
#1946=DIRECTION('',(0.E0,0.E0,1.E0));
#1947=DIRECTION('',(0.E0,-1.E0,0.E0));
#1948=AXIS2_PLACEMENT_3D('',#1945,#1946,#1947);
#1949=PLANE('',#1948);
#1951=ORIENTED_EDGE('',*,*,#1950,.T.);
#1952=ORIENTED_EDGE('',*,*,#1881,.T.);
#1954=ORIENTED_EDGE('',*,*,#1953,.F.);
#1956=ORIENTED_EDGE('',*,*,#1955,.F.);
#1958=ORIENTED_EDGE('',*,*,#1957,.F.);
#1960=ORIENTED_EDGE('',*,*,#1959,.F.);
#1961=EDGE_LOOP('',(#1951,#1952,#1954,#1956,#1958,#1960));
#1962=FACE_OUTER_BOUND('',#1961,.F.);
#1963=ADVANCED_FACE('',(#1962),#1949,.F.);
#1964=CARTESIAN_POINT('',(-4.75E-1,0.E0,-8.06E0));
#1965=DIRECTION('',(1.E0,0.E0,0.E0));
#1966=DIRECTION('',(0.E0,0.E0,1.E0));
#1967=AXIS2_PLACEMENT_3D('',#1964,#1965,#1966);
#1968=PLANE('',#1967);
#1969=ORIENTED_EDGE('',*,*,#1750,.T.);
#1970=ORIENTED_EDGE('',*,*,#1862,.F.);
#1972=ORIENTED_EDGE('',*,*,#1971,.F.);
#1973=ORIENTED_EDGE('',*,*,#1053,.F.);
#1975=ORIENTED_EDGE('',*,*,#1974,.T.);
#1976=ORIENTED_EDGE('',*,*,#1883,.F.);
#1977=ORIENTED_EDGE('',*,*,#1950,.F.);
#1979=ORIENTED_EDGE('',*,*,#1978,.T.);
#1981=ORIENTED_EDGE('',*,*,#1980,.F.);
#1983=ORIENTED_EDGE('',*,*,#1982,.T.);
#1984=EDGE_LOOP('',(#1969,#1970,#1972,#1973,#1975,#1976,#1977,#1979,#1981,
#1983));
#1985=FACE_OUTER_BOUND('',#1984,.F.);
#1986=ADVANCED_FACE('',(#1985),#1968,.T.);
#1987=CARTESIAN_POINT('',(-4.75E-1,0.E0,-1.6E0));
#1988=DIRECTION('',(0.E0,0.E0,1.E0));
#1989=DIRECTION('',(-1.E0,0.E0,0.E0));
#1990=AXIS2_PLACEMENT_3D('',#1987,#1988,#1989);
#1991=PLANE('',#1990);
#1992=ORIENTED_EDGE('',*,*,#1055,.F.);
#1993=ORIENTED_EDGE('',*,*,#1971,.T.);
#1994=ORIENTED_EDGE('',*,*,#1869,.T.);
#1996=ORIENTED_EDGE('',*,*,#1995,.F.);
#1997=EDGE_LOOP('',(#1992,#1993,#1994,#1996));
#1998=FACE_OUTER_BOUND('',#1997,.F.);
#1999=ADVANCED_FACE('',(#1998),#1991,.T.);
#2000=CARTESIAN_POINT('',(-1.475E0,0.E0,-1.6E0));
#2001=DIRECTION('',(-1.E0,0.E0,0.E0));
#2002=DIRECTION('',(0.E0,0.E0,-1.E0));
#2003=AXIS2_PLACEMENT_3D('',#2000,#2001,#2002);
#2004=PLANE('',#2003);
#2005=ORIENTED_EDGE('',*,*,#1867,.T.);
#2006=ORIENTED_EDGE('',*,*,#1887,.T.);
#2008=ORIENTED_EDGE('',*,*,#2007,.F.);
#2009=ORIENTED_EDGE('',*,*,#1057,.F.);
#2010=ORIENTED_EDGE('',*,*,#1995,.T.);
#2011=EDGE_LOOP('',(#2005,#2006,#2008,#2009,#2010));
#2012=FACE_OUTER_BOUND('',#2011,.F.);
#2013=ADVANCED_FACE('',(#2012),#2004,.T.);
#2014=CARTESIAN_POINT('',(-1.475E0,0.E0,-8.06E0));
#2015=DIRECTION('',(0.E0,0.E0,-1.E0));
#2016=DIRECTION('',(1.E0,0.E0,0.E0));
#2017=AXIS2_PLACEMENT_3D('',#2014,#2015,#2016);
#2018=PLANE('',#2017);
#2019=ORIENTED_EDGE('',*,*,#1059,.F.);
#2020=ORIENTED_EDGE('',*,*,#2007,.T.);
#2021=ORIENTED_EDGE('',*,*,#1885,.T.);
#2022=ORIENTED_EDGE('',*,*,#1974,.F.);
#2023=EDGE_LOOP('',(#2019,#2020,#2021,#2022));
#2024=FACE_OUTER_BOUND('',#2023,.F.);
#2025=ADVANCED_FACE('',(#2024),#2018,.T.);
#2026=CARTESIAN_POINT('',(-3.75E-1,-3.215E0,-4.6E0));
#2027=DIRECTION('',(0.E0,1.E0,0.E0));
#2028=DIRECTION('',(0.E0,0.E0,1.E0));
#2029=AXIS2_PLACEMENT_3D('',#2026,#2027,#2028);
#2030=CONICAL_SURFACE('',#2029,1.026590633911E0,3.3E1);
#2031=ORIENTED_EDGE('',*,*,#1752,.T.);
#2032=ORIENTED_EDGE('',*,*,#1982,.F.);
#2034=ORIENTED_EDGE('',*,*,#2033,.F.);
#2035=ORIENTED_EDGE('',*,*,#1978,.F.);
#2036=ORIENTED_EDGE('',*,*,#1959,.T.);
#2038=ORIENTED_EDGE('',*,*,#2037,.T.);
#2039=EDGE_LOOP('',(#2031,#2032,#2034,#2035,#2036,#2038));
#2040=FACE_OUTER_BOUND('',#2039,.F.);
#2041=ADVANCED_FACE('',(#2040),#2030,.T.);
#2042=CARTESIAN_POINT('',(-3.75E-1,-3.79E0,-4.6E0));
#2043=DIRECTION('',(0.E0,1.E0,0.E0));
#2044=DIRECTION('',(0.E0,0.E0,1.E0));
#2045=AXIS2_PLACEMENT_3D('',#2042,#2043,#2044);
#2046=PLANE('',#2045);
#2047=ORIENTED_EDGE('',*,*,#1980,.T.);
#2048=ORIENTED_EDGE('',*,*,#2033,.T.);
#2049=EDGE_LOOP('',(#2047,#2048));
#2050=FACE_OUTER_BOUND('',#2049,.F.);
#2051=ADVANCED_FACE('',(#2050),#2046,.F.);
#2052=CARTESIAN_POINT('',(-3.75E-1,1.895E-1,-4.6E0));
#2053=DIRECTION('',(0.E0,1.E0,0.E0));
#2054=DIRECTION('',(0.E0,0.E0,1.E0));
#2055=AXIS2_PLACEMENT_3D('',#2052,#2053,#2054);
#2056=CYLINDRICAL_SURFACE('',#2055,1.4E0);
#2057=ORIENTED_EDGE('',*,*,#1754,.F.);
#2058=ORIENTED_EDGE('',*,*,#2037,.F.);
#2059=ORIENTED_EDGE('',*,*,#1957,.T.);
#2061=ORIENTED_EDGE('',*,*,#2060,.T.);
#2062=EDGE_LOOP('',(#2057,#2058,#2059,#2061));
#2063=FACE_OUTER_BOUND('',#2062,.F.);
#2064=ADVANCED_FACE('',(#2063),#2056,.T.);
#2065=CARTESIAN_POINT('',(-3.75E-1,-2.29E0,-4.6E0));
#2066=DIRECTION('',(0.E0,1.E0,0.E0));
#2067=DIRECTION('',(0.E0,0.E0,1.E0));
#2068=AXIS2_PLACEMENT_3D('',#2065,#2066,#2067);
#2069=PLANE('',#2068);
#2070=ORIENTED_EDGE('',*,*,#1756,.F.);
#2071=ORIENTED_EDGE('',*,*,#2060,.F.);
#2072=ORIENTED_EDGE('',*,*,#1955,.T.);
#2074=ORIENTED_EDGE('',*,*,#2073,.T.);
#2075=EDGE_LOOP('',(#2070,#2071,#2072,#2074));
#2076=FACE_OUTER_BOUND('',#2075,.F.);
#2077=ADVANCED_FACE('',(#2076),#2069,.T.);
#2078=CARTESIAN_POINT('',(-3.75E-1,1.895E-1,-4.6E0));
#2079=DIRECTION('',(0.E0,1.E0,0.E0));
#2080=DIRECTION('',(0.E0,0.E0,1.E0));
#2081=AXIS2_PLACEMENT_3D('',#2078,#2079,#2080);
#2082=CYLINDRICAL_SURFACE('',#2081,1.1E0);
#2083=ORIENTED_EDGE('',*,*,#1758,.F.);
#2084=ORIENTED_EDGE('',*,*,#2073,.F.);
#2085=ORIENTED_EDGE('',*,*,#1953,.T.);
#2086=ORIENTED_EDGE('',*,*,#1879,.T.);
#2087=ORIENTED_EDGE('',*,*,#1865,.T.);
#2088=EDGE_LOOP('',(#2083,#2084,#2085,#2086,#2087));
#2089=FACE_OUTER_BOUND('',#2088,.F.);
#2090=ADVANCED_FACE('',(#2089),#2082,.T.);
#2091=CARTESIAN_POINT('',(3.75E-1,-3.79E0,-4.6E0));
#2092=DIRECTION('',(0.E0,-1.E0,0.E0));
#2093=DIRECTION('',(0.E0,0.E0,1.E0));
#2094=AXIS2_PLACEMENT_3D('',#2091,#2092,#2093);
#2095=PLANE('',#2094);
#2096=ORIENTED_EDGE('',*,*,#1708,.T.);
#2097=ORIENTED_EDGE('',*,*,#1776,.F.);
#2098=EDGE_LOOP('',(#2096,#2097));
#2099=FACE_OUTER_BOUND('',#2098,.F.);
#2100=ADVANCED_FACE('',(#2099),#2095,.T.);
#2101=CLOSED_SHELL('',(#1028,#1073,#1087,#1111,#1124,#1146,#1165,#1181,#1197,
#1212,#1226,#1241,#1259,#1275,#1290,#1305,#1318,#1332,#1345,#1358,#1370,#1412,
#1425,#1438,#1450,#1464,#1477,#1490,#1503,#1516,#1529,#1542,#1555,#1568,#1580,
#1592,#1605,#1618,#1630,#1645,#1659,#1673,#1686,#1698,#1725,#1744,#1764,#1781,
#1795,#1809,#1825,#1840,#1856,#1873,#1891,#1904,#1918,#1930,#1944,#1963,#1986,
#1999,#2013,#2025,#2041,#2051,#2064,#2077,#2090,#2100));
#2102=MANIFOLD_SOLID_BREP('',#2101);
#2103=CARTESIAN_POINT('',(0.E0,0.E0,0.E0));
#2104=DIRECTION('',(0.E0,0.E0,1.E0));
#2105=DIRECTION('',(1.E0,0.E0,0.E0));
#2106=AXIS2_PLACEMENT_3D('CSYS',#2103,#2104,#2105);
#2107=DIRECTION('',(0.E0,-1.E0,0.E0));
#2108=VECTOR('',#2107,3.79E0);
#2109=CARTESIAN_POINT('',(3.75E-1,0.E0,-4.6E0));
#2110=LINE('',#2109,#2108);
#2113=DIRECTION('',(0.E0,-1.E0,0.E0));
#2114=VECTOR('',#2113,3.79E0);
#2115=CARTESIAN_POINT('',(-3.75E-1,0.E0,-4.6E0));
#2116=LINE('',#2115,#2114);
#2118=CARTESIAN_POINT('',(0.E0,-5.4E-1,-8.9E0));
#2119=DIRECTION('',(0.E0,1.E0,0.E0));
#2120=DIRECTION('',(-1.E0,0.E0,0.E0));
#2121=AXIS2_PLACEMENT_3D('',#2118,#2119,#2120);
#2125=CARTESIAN_POINT('',(0.E0,-5.4E-1,-8.9E0));
#2126=DIRECTION('',(0.E0,1.E0,0.E0));
#2127=DIRECTION('',(1.E0,0.E0,0.E0));
#2128=AXIS2_PLACEMENT_3D('',#2125,#2126,#2127);
#2133=CARTESIAN_POINT('',(0.E0,-5.4E-1,-1.19E1));
#2134=DIRECTION('',(0.E0,1.E0,0.E0));
#2135=DIRECTION('',(-1.E0,0.E0,0.E0));
#2136=AXIS2_PLACEMENT_3D('',#2133,#2134,#2135);
#2140=CARTESIAN_POINT('',(0.E0,-5.4E-1,-1.19E1));
#2141=DIRECTION('',(0.E0,1.E0,0.E0));
#2142=DIRECTION('',(1.E0,0.E0,0.E0));
#2143=AXIS2_PLACEMENT_3D('',#2140,#2141,#2142);
#2148=CARTESIAN_POINT('',(0.E0,-5.4E-1,-4.6E0));
#2149=DIRECTION('',(0.E0,-1.E0,0.E0));
#2150=DIRECTION('',(1.E0,0.E0,0.E0));
#2151=AXIS2_PLACEMENT_3D('',#2148,#2149,#2150);
#2155=CARTESIAN_POINT('',(0.E0,-5.4E-1,-4.6E0));
#2156=DIRECTION('',(0.E0,-1.E0,0.E0));
#2157=DIRECTION('',(-1.E0,0.E0,0.E0));
#2158=AXIS2_PLACEMENT_3D('',#2155,#2156,#2157);
#2164=DIMENSIONAL_EXPONENTS(0.E0,0.E0,0.E0,0.E0,0.E0,0.E0,0.E0);
#2166=PLANE_ANGLE_MEASURE_WITH_UNIT(PLANE_ANGLE_MEASURE(1.745329251994E-2),
#2165);
#2167=(CONVERSION_BASED_UNIT('DEGREE',#2166)NAMED_UNIT(*)PLANE_ANGLE_UNIT());
#2169=UNCERTAINTY_MEASURE_WITH_UNIT(LENGTH_MEASURE(1.E-3),#2163,'closure',
'Maximum model space distance between geometric entities at asserted connectivities');
#2170=(GEOMETRIC_REPRESENTATION_CONTEXT(3)GLOBAL_UNCERTAINTY_ASSIGNED_CONTEXT((
#2169))GLOBAL_UNIT_ASSIGNED_CONTEXT((#2163,#2167,#2168))REPRESENTATION_CONTEXT(
'ID1','3'));
#2112=GEOMETRIC_SET('',(#2111,#2117,#2132,#2147,#2162));
#2174=SHAPE_REPRESENTATION_RELATIONSHIP('','',#2173,#2171);
#2175=SHAPE_REPRESENTATION_RELATIONSHIP('','',#2173,#2172);
#2176=APPLICATION_CONTEXT(
'CONFIGURATION CONTROLLED 3D DESIGNS OF MECHANICAL PARTS AND ASSEMBLIES');
#2177=APPLICATION_PROTOCOL_DEFINITION('international standard',
'config_control_design',1994,#2176);
#2178=DESIGN_CONTEXT('',#2176,'design');
#2179=MECHANICAL_CONTEXT('',#2176,'mechanical');
#2180=PRODUCT('2125280200','2125280200','NOT SPECIFIED',(#2179));
#2181=PRODUCT_DEFINITION_FORMATION_WITH_SPECIFIED_SOURCE('31','LAST_VERSION',
#2180,.MADE.);
#2185=PRODUCT_CATEGORY('part','');
#2186=PRODUCT_RELATED_PRODUCT_CATEGORY('detail','',(#2180));
#2187=PRODUCT_CATEGORY_RELATIONSHIP('','',#2185,#2186);
#2188=SECURITY_CLASSIFICATION_LEVEL('unclassified');
#2189=SECURITY_CLASSIFICATION('','',#2188);
#2190=CC_DESIGN_SECURITY_CLASSIFICATION(#2189,(#2181));
#2191=APPROVAL_STATUS('approved');
#2192=APPROVAL(#2191,'');
#2193=CC_DESIGN_APPROVAL(#2192,(#2189,#2181,#2182));
#2194=CALENDAR_DATE(120,11,12);
#2195=COORDINATED_UNIVERSAL_TIME_OFFSET(5,30,.AHEAD.);
#2196=LOCAL_TIME(13,6,4.9E1,#2195);
#2197=DATE_AND_TIME(#2194,#2196);
#2198=APPROVAL_DATE_TIME(#2197,#2192);
#2199=DATE_TIME_ROLE('creation_date');
#2200=CC_DESIGN_DATE_AND_TIME_ASSIGNMENT(#2197,#2199,(#2182));
#2201=DATE_TIME_ROLE('classification_date');
#2202=CC_DESIGN_DATE_AND_TIME_ASSIGNMENT(#2197,#2201,(#2189));
#2203=PERSON('UNSPECIFIED','UNSPECIFIED',$,$,$,$);
#2204=ORGANIZATION('UNSPECIFIED','UNSPECIFIED','UNSPECIFIED');
#2205=PERSON_AND_ORGANIZATION(#2203,#2204);
#2206=APPROVAL_ROLE('approver');
#2207=APPROVAL_PERSON_ORGANIZATION(#2205,#2192,#2206);
#2208=PERSON_AND_ORGANIZATION_ROLE('creator');
#2209=CC_DESIGN_PERSON_AND_ORGANIZATION_ASSIGNMENT(#2205,#2208,(#2181,#2182));
#2210=PERSON_AND_ORGANIZATION_ROLE('design_supplier');
#2211=CC_DESIGN_PERSON_AND_ORGANIZATION_ASSIGNMENT(#2205,#2210,(#2181));
#2212=PERSON_AND_ORGANIZATION_ROLE('classification_officer');
#2213=CC_DESIGN_PERSON_AND_ORGANIZATION_ASSIGNMENT(#2205,#2212,(#2189));
#2214=PERSON_AND_ORGANIZATION_ROLE('design_owner');
#2215=CC_DESIGN_PERSON_AND_ORGANIZATION_ASSIGNMENT(#2205,#2214,(#2180));
#487=B_SPLINE_CURVE_WITH_KNOTS('',3,(#477,#478,#479,#480,#481,#482,#483,#484,
#485,#486),.UNSPECIFIED.,.F.,.F.,(4,1,1,1,1,1,1,4),(0.E0,1.428571428571E-1,
2.857142857143E-1,4.285714285714E-1,5.714285714286E-1,7.142857142857E-1,
8.571428571429E-1,1.E0),.UNSPECIFIED.);
#498=B_SPLINE_CURVE_WITH_KNOTS('',3,(#488,#489,#490,#491,#492,#493,#494,#495,
#496,#497),.UNSPECIFIED.,.F.,.F.,(4,1,1,1,1,1,1,4),(0.E0,1.428571428571E-1,
2.857142857143E-1,4.285714285714E-1,5.714285714286E-1,7.142857142857E-1,
8.571428571429E-1,1.E0),.UNSPECIFIED.);
#504=B_SPLINE_CURVE_WITH_KNOTS('',3,(#499,#500,#501,#502,#503),.UNSPECIFIED.,
.F.,.F.,(4,1,4),(0.E0,5.E-1,1.E0),.UNSPECIFIED.);
#509=CIRCLE('',#508,6.531812678229E-1);
#515=B_SPLINE_CURVE_WITH_KNOTS('',3,(#510,#511,#512,#513,#514),.UNSPECIFIED.,
.F.,.F.,(4,1,4),(0.E0,5.E-1,1.E0),.UNSPECIFIED.);
#528=CIRCLE('',#527,1.4E0);
#541=CIRCLE('',#540,1.4E0);
#554=CIRCLE('',#553,1.1E0);
#559=CIRCLE('',#558,1.1E0);
#584=CIRCLE('',#583,1.1E0);
#605=CIRCLE('',#604,1.1E0);
#618=CIRCLE('',#617,1.1E0);
#685=B_SPLINE_CURVE_WITH_KNOTS('',3,(#675,#676,#677,#678,#679,#680,#681,#682,
#683,#684),.UNSPECIFIED.,.F.,.F.,(4,1,1,1,1,1,1,4),(0.E0,1.428571428571E-1,
2.857142857143E-1,4.285714285714E-1,5.714285714286E-1,7.142857142857E-1,
8.571428571429E-1,1.E0),.UNSPECIFIED.);
#691=B_SPLINE_CURVE_WITH_KNOTS('',3,(#686,#687,#688,#689,#690),.UNSPECIFIED.,
.F.,.F.,(4,1,4),(0.E0,5.E-1,1.E0),.UNSPECIFIED.);
#696=CIRCLE('',#695,6.531812678229E-1);
#702=B_SPLINE_CURVE_WITH_KNOTS('',3,(#697,#698,#699,#700,#701),.UNSPECIFIED.,
.F.,.F.,(4,1,4),(0.E0,5.E-1,1.E0),.UNSPECIFIED.);
#713=B_SPLINE_CURVE_WITH_KNOTS('',3,(#703,#704,#705,#706,#707,#708,#709,#710,
#711,#712),.UNSPECIFIED.,.F.,.F.,(4,1,1,1,1,1,1,4),(0.E0,1.428571428571E-1,
2.857142857143E-1,4.285714285714E-1,5.714285714286E-1,7.142857142857E-1,
8.571428571429E-1,1.E0),.UNSPECIFIED.);
#726=CIRCLE('',#725,1.4E0);
#739=CIRCLE('',#738,1.4E0);
#752=CIRCLE('',#751,1.1E0);
#996=EDGE_CURVE('',#763,#764,#4,.T.);
#998=EDGE_CURVE('',#764,#766,#8,.T.);
#1000=EDGE_CURVE('',#766,#768,#12,.T.);
#1002=EDGE_CURVE('',#768,#763,#16,.T.);
#1006=EDGE_CURVE('',#804,#932,#20,.T.);
#1008=EDGE_CURVE('',#934,#932,#24,.T.);
#1010=EDGE_CURVE('',#807,#934,#408,.T.);
#1012=EDGE_CURVE('',#807,#808,#28,.T.);
#1014=EDGE_CURVE('',#808,#936,#32,.T.);
#1016=EDGE_CURVE('',#938,#936,#36,.T.);
#1018=EDGE_CURVE('',#938,#917,#40,.T.);
#1020=EDGE_CURVE('',#917,#918,#44,.T.);
#1022=EDGE_CURVE('',#918,#803,#48,.T.);
#1024=EDGE_CURVE('',#803,#804,#52,.T.);
#1035=EDGE_CURVE('',#763,#771,#56,.T.);
#1037=EDGE_CURVE('',#771,#772,#136,.T.);
#1039=EDGE_CURVE('',#764,#772,#132,.T.);
#1043=EDGE_CURVE('',#884,#887,#60,.T.);
#1045=EDGE_CURVE('',#887,#888,#64,.T.);
#1047=EDGE_CURVE('',#888,#883,#68,.T.);
#1049=EDGE_CURVE('',#883,#884,#72,.T.);
#1053=EDGE_CURVE('',#878,#880,#76,.T.);
#1055=EDGE_CURVE('',#880,#875,#80,.T.);
#1057=EDGE_CURVE('',#875,#876,#84,.T.);
#1059=EDGE_CURVE('',#876,#878,#88,.T.);
#1063=EDGE_CURVE('',#909,#910,#92,.T.);
#1065=EDGE_CURVE('',#910,#914,#96,.T.);
#1067=EDGE_CURVE('',#913,#914,#100,.T.);
#1069=EDGE_CURVE('',#909,#913,#104,.T.);
#1080=EDGE_CURVE('',#768,#776,#108,.T.);
#1082=EDGE_CURVE('',#776,#771,#140,.T.);
#1094=EDGE_CURVE('',#766,#774,#112,.T.);
#1096=EDGE_CURVE('',#774,#776,#144,.T.);
#1101=EDGE_CURVE('',#787,#788,#116,.T.);
#1103=EDGE_CURVE('',#787,#791,#120,.T.);
#1105=EDGE_CURVE('',#791,#792,#124,.T.);
#1107=EDGE_CURVE('',#788,#792,#128,.T.);
#1119=EDGE_CURVE('',#772,#774,#148,.T.);
#1136=EDGE_CURVE('',#835,#836,#152,.T.);
#1138=EDGE_CURVE('',#835,#839,#156,.T.);
#1140=EDGE_CURVE('',#839,#840,#160,.T.);
#1142=EDGE_CURVE('',#836,#840,#164,.T.);
#1153=EDGE_CURVE('',#836,#811,#168,.T.);
#1155=EDGE_CURVE('',#811,#812,#172,.T.);
#1157=EDGE_CURVE('',#812,#814,#176,.T.);
#1159=EDGE_CURVE('',#814,#816,#180,.T.);
#1161=EDGE_CURVE('',#816,#835,#184,.T.);
#1171=EDGE_CURVE('',#843,#844,#300,.T.);
#1173=EDGE_CURVE('',#843,#897,#188,.T.);
#1175=EDGE_CURVE('',#897,#898,#192,.T.);
#1177=EDGE_CURVE('',#898,#844,#196,.T.);
#1187=EDGE_CURVE('',#820,#851,#200,.T.);
#1189=EDGE_CURVE('',#855,#851,#328,.T.);
#1191=EDGE_CURVE('',#855,#819,#204,.T.);
#1193=EDGE_CURVE('',#819,#820,#208,.T.);
#1204=EDGE_CURVE('',#909,#893,#212,.T.);
#1206=EDGE_CURVE('',#893,#894,#216,.T.);
#1208=EDGE_CURVE('',#894,#910,#220,.T.);
#1219=EDGE_CURVE('',#840,#823,#244,.T.);
#1221=EDGE_CURVE('',#811,#823,#296,.T.);
#1232=EDGE_CURVE('',#851,#852,#316,.T.);
#1235=EDGE_CURVE('',#820,#832,#224,.T.);
#1237=EDGE_CURVE('',#832,#852,#260,.T.);
#1248=EDGE_CURVE('',#828,#839,#228,.T.);
#1250=EDGE_CURVE('',#826,#828,#232,.T.);
#1252=EDGE_CURVE('',#824,#826,#236,.T.);
#1254=EDGE_CURVE('',#823,#824,#240,.T.);
#1265=EDGE_CURVE('',#847,#848,#308,.T.);
#1267=EDGE_CURVE('',#906,#848,#248,.T.);
#1269=EDGE_CURVE('',#905,#906,#252,.T.);
#1271=EDGE_CURVE('',#847,#905,#256,.T.);
#1282=EDGE_CURVE('',#831,#832,#264,.T.);
#1284=EDGE_CURVE('',#856,#831,#268,.T.);
#1286=EDGE_CURVE('',#856,#852,#320,.T.);
#1297=EDGE_CURVE('',#902,#914,#272,.T.);
#1299=EDGE_CURVE('',#901,#902,#276,.T.);
#1301=EDGE_CURVE('',#913,#901,#280,.T.);
#1313=EDGE_CURVE('',#816,#828,#284,.T.);
#1324=EDGE_CURVE('',#855,#856,#324,.T.);
#1327=EDGE_CURVE('',#819,#831,#424,.T.);
#1339=EDGE_CURVE('',#814,#826,#288,.T.);
#1352=EDGE_CURVE('',#812,#824,#292,.T.);
#1376=EDGE_CURVE('',#925,#926,#332,.T.);
#1378=EDGE_CURVE('',#800,#926,#336,.T.);
#1380=EDGE_CURVE('',#799,#800,#340,.T.);
#1382=EDGE_CURVE('',#799,#929,#344,.T.);
#1384=EDGE_CURVE('',#929,#930,#348,.T.);
#1386=EDGE_CURVE('',#796,#930,#352,.T.);
#1388=EDGE_CURVE('',#795,#796,#356,.T.);
#1390=EDGE_CURVE('',#920,#795,#360,.T.);
#1392=EDGE_CURVE('',#922,#920,#364,.T.);
#1394=EDGE_CURVE('',#925,#922,#368,.T.);
#1405=EDGE_CURVE('',#844,#848,#304,.T.);
#1408=EDGE_CURVE('',#843,#847,#312,.T.);
#1420=EDGE_CURVE('',#898,#906,#372,.T.);
#1432=EDGE_CURVE('',#897,#905,#376,.T.);
#1457=EDGE_CURVE('',#925,#938,#380,.T.);
#1460=EDGE_CURVE('',#926,#936,#416,.T.);
#1472=EDGE_CURVE('',#922,#917,#384,.T.);
#1486=EDGE_CURVE('',#920,#918,#388,.T.);
#1498=EDGE_CURVE('',#803,#795,#392,.T.);
#1512=EDGE_CURVE('',#804,#796,#400,.T.);
#1522=EDGE_CURVE('',#930,#932,#396,.T.);
#1536=EDGE_CURVE('',#929,#934,#404,.T.);
#1550=EDGE_CURVE('',#807,#799,#412,.T.);
#1564=EDGE_CURVE('',#808,#800,#420,.T.);
#1600=EDGE_CURVE('',#894,#902,#428,.T.);
#1612=EDGE_CURVE('',#893,#901,#432,.T.);
#1637=EDGE_CURVE('',#788,#779,#436,.T.);
#1639=EDGE_CURVE('',#779,#780,#440,.T.);
#1641=EDGE_CURVE('',#780,#787,#444,.T.);
#1652=EDGE_CURVE('',#792,#783,#456,.T.);
#1654=EDGE_CURVE('',#779,#783,#464,.T.);
#1666=EDGE_CURVE('',#784,#791,#448,.T.);
#1668=EDGE_CURVE('',#783,#784,#452,.T.);
#1680=EDGE_CURVE('',#780,#784,#460,.T.);
#1704=EDGE_CURVE('',#940,#970,#468,.T.);
#1706=EDGE_CURVE('',#962,#940,#515,.T.);
#1708=EDGE_CURVE('',#961,#962,#760,.T.);
#1710=EDGE_CURVE('',#941,#961,#504,.T.);
#1712=EDGE_CURVE('',#941,#972,#472,.T.);
#1714=EDGE_CURVE('',#871,#972,#579,.T.);
#1716=EDGE_CURVE('',#887,#871,#642,.T.);
#1719=EDGE_CURVE('',#884,#868,#476,.T.);
#1721=EDGE_CURVE('',#970,#868,#567,.T.);
#1731=EDGE_CURVE('',#939,#940,#487,.T.);
#1734=EDGE_CURVE('',#984,#970,#563,.T.);
#1736=EDGE_CURVE('',#984,#946,#545,.T.);
#1738=EDGE_CURVE('',#945,#946,#532,.T.);
#1740=EDGE_CURVE('',#945,#939,#519,.T.);
#1750=EDGE_CURVE('',#953,#954,#654,.T.);
#1752=EDGE_CURVE('',#973,#953,#685,.T.);
#1754=EDGE_CURVE('',#973,#977,#721,.T.);
#1756=EDGE_CURVE('',#977,#978,#734,.T.);
#1758=EDGE_CURVE('',#978,#988,#747,.T.);
#1760=EDGE_CURVE('',#954,#988,#600,.T.);
#1771=EDGE_CURVE('',#942,#939,#528,.T.);
#1773=EDGE_CURVE('',#941,#942,#498,.T.);
#1776=EDGE_CURVE('',#961,#962,#509,.T.);
#1788=EDGE_CURVE('',#949,#945,#541,.T.);
#1790=EDGE_CURVE('',#949,#942,#523,.T.);
#1802=EDGE_CURVE('',#950,#946,#554,.T.);
#1804=EDGE_CURVE('',#949,#950,#536,.T.);
#1816=EDGE_CURVE('',#890,#984,#559,.T.);
#1818=EDGE_CURVE('',#986,#890,#584,.T.);
#1820=EDGE_CURVE('',#986,#950,#549,.T.);
#1834=EDGE_CURVE('',#867,#868,#571,.T.);
#1836=EDGE_CURVE('',#890,#867,#575,.T.);
#1847=EDGE_CURVE('',#986,#972,#646,.T.);
#1850=EDGE_CURVE('',#872,#890,#588,.T.);
#1852=EDGE_CURVE('',#871,#872,#592,.T.);
#1862=EDGE_CURVE('',#863,#954,#596,.T.);
#1865=EDGE_CURVE('',#964,#988,#605,.T.);
#1867=EDGE_CURVE('',#864,#964,#609,.T.);
#1869=EDGE_CURVE('',#863,#864,#613,.T.);
#1879=EDGE_CURVE('',#990,#964,#618,.T.);
#1881=EDGE_CURVE('',#958,#990,#650,.T.);
#1883=EDGE_CURVE('',#958,#860,#622,.T.);
#1885=EDGE_CURVE('',#859,#860,#626,.T.);
#1887=EDGE_CURVE('',#964,#859,#630,.T.);
#1898=EDGE_CURVE('',#883,#867,#634,.T.);
#1914=EDGE_CURVE('',#888,#872,#638,.T.);
#1950=EDGE_CURVE('',#957,#958,#662,.T.);
#1953=EDGE_CURVE('',#982,#990,#756,.T.);
#1955=EDGE_CURVE('',#981,#982,#743,.T.);
#1957=EDGE_CURVE('',#974,#981,#730,.T.);
#1959=EDGE_CURVE('',#957,#974,#713,.T.);
#1971=EDGE_CURVE('',#880,#863,#666,.T.);
#1974=EDGE_CURVE('',#878,#860,#658,.T.);
#1978=EDGE_CURVE('',#957,#968,#702,.T.);
#1980=EDGE_CURVE('',#967,#968,#717,.T.);
#1982=EDGE_CURVE('',#967,#953,#691,.T.);
#1995=EDGE_CURVE('',#875,#864,#670,.T.);
#2007=EDGE_CURVE('',#876,#859,#674,.T.);
#2033=EDGE_CURVE('',#968,#967,#696,.T.);
#2037=EDGE_CURVE('',#974,#973,#726,.T.);
#2060=EDGE_CURVE('',#981,#977,#739,.T.);
#2073=EDGE_CURVE('',#982,#978,#752,.T.);
#2111=TRIMMED_CURVE('A_4',#2110,(PARAMETER_VALUE(0.E0)),(PARAMETER_VALUE(1.E0)),
.T.,.UNSPECIFIED.);
#2117=TRIMMED_CURVE('A_5',#2116,(PARAMETER_VALUE(0.E0)),(PARAMETER_VALUE(1.E0)),
.T.,.UNSPECIFIED.);
#2122=CIRCLE('',#2121,5.1E-1);
#2123=TRIMMED_CURVE('',#2122,(PARAMETER_VALUE(0.E0)),(PARAMETER_VALUE(1.8E2)),
.T.,.UNSPECIFIED.);
#2124=COMPOSITE_CURVE_SEGMENT(.CONTINUOUS.,.T.,#2123);
#2129=CIRCLE('',#2128,5.1E-1);
#2130=TRIMMED_CURVE('',#2129,(PARAMETER_VALUE(0.E0)),(PARAMETER_VALUE(1.8E2)),
.T.,.UNSPECIFIED.);
#2131=COMPOSITE_CURVE_SEGMENT(.CONTINUOUS.,.T.,#2130);
#2132=COMPOSITE_CURVE('',(#2124,#2131),.F.);
#2137=CIRCLE('',#2136,5.1E-1);
#2138=TRIMMED_CURVE('',#2137,(PARAMETER_VALUE(0.E0)),(PARAMETER_VALUE(1.8E2)),
.T.,.UNSPECIFIED.);
#2139=COMPOSITE_CURVE_SEGMENT(.CONTINUOUS.,.T.,#2138);
#2144=CIRCLE('',#2143,5.1E-1);
#2145=TRIMMED_CURVE('',#2144,(PARAMETER_VALUE(0.E0)),(PARAMETER_VALUE(1.8E2)),
.T.,.UNSPECIFIED.);
#2146=COMPOSITE_CURVE_SEGMENT(.CONTINUOUS.,.T.,#2145);
#2147=COMPOSITE_CURVE('',(#2139,#2146),.F.);
#2152=CIRCLE('',#2151,1.5E0);
#2153=TRIMMED_CURVE('',#2152,(PARAMETER_VALUE(0.E0)),(PARAMETER_VALUE(1.8E2)),
.T.,.UNSPECIFIED.);
#2154=COMPOSITE_CURVE_SEGMENT(.CONTINUOUS.,.T.,#2153);
#2159=CIRCLE('',#2158,1.5E0);
#2160=TRIMMED_CURVE('',#2159,(PARAMETER_VALUE(0.E0)),(PARAMETER_VALUE(1.8E2)),
.T.,.UNSPECIFIED.);
#2161=COMPOSITE_CURVE_SEGMENT(.CONTINUOUS.,.T.,#2160);
#2162=COMPOSITE_CURVE('',(#2154,#2161),.F.);
#2163=(LENGTH_UNIT()NAMED_UNIT(*)SI_UNIT(.MILLI.,.METRE.));
#2165=(NAMED_UNIT(*)PLANE_ANGLE_UNIT()SI_UNIT($,.RADIAN.));
#2168=(NAMED_UNIT(*)SI_UNIT($,.STERADIAN.)SOLID_ANGLE_UNIT());
#2171=ADVANCED_BREP_SHAPE_REPRESENTATION('',(#2102),#2170);
#2172=GEOMETRICALLY_BOUNDED_SURFACE_SHAPE_REPRESENTATION('',(#2112),#2170);
#2173=SHAPE_REPRESENTATION('',(#2106),#2170);
#2182=PRODUCT_DEFINITION('design','',#2181,#2178);
#2183=PRODUCT_DEFINITION_SHAPE('','SHAPE FOR 2125280200.',#2182);
#2184=SHAPE_DEFINITION_REPRESENTATION(#2183,#2173);
ENDSEC;
END-ISO-10303-21;
