%TF.GenerationSoftware,KiCad,Pcbnew,9.0.5*%
%TF.CreationDate,2025-12-12T19:00:14-08:00*%
%TF.ProjectId,FCP_CVM,4643505f-4356-44d2-9e6b-696361645f70,rev?*%
%TF.SameCoordinates,Original*%
%TF.FileFunction,Copper,L1,Top*%
%TF.FilePolarity,Positive*%
%FSLAX46Y46*%
G04 Gerber Fmt 4.6, Leading zero omitted, Abs format (unit mm)*
G04 Created by KiCad (PCBNEW 9.0.5) date 2025-12-12 19:00:14*
%MOMM*%
%LPD*%
G01*
G04 APERTURE LIST*
G04 Aperture macros list*
%AMRoundRect*
0 Rectangle with rounded corners*
0 $1 Rounding radius*
0 $2 $3 $4 $5 $6 $7 $8 $9 X,Y pos of 4 corners*
0 Add a 4 corners polygon primitive as box body*
4,1,4,$2,$3,$4,$5,$6,$7,$8,$9,$2,$3,0*
0 Add four circle primitives for the rounded corners*
1,1,$1+$1,$2,$3*
1,1,$1+$1,$4,$5*
1,1,$1+$1,$6,$7*
1,1,$1+$1,$8,$9*
0 Add four rect primitives between the rounded corners*
20,1,$1+$1,$2,$3,$4,$5,0*
20,1,$1+$1,$4,$5,$6,$7,0*
20,1,$1+$1,$6,$7,$8,$9,0*
20,1,$1+$1,$8,$9,$2,$3,0*%
G04 Aperture macros list end*
%TA.AperFunction,SMDPad,CuDef*%
%ADD10R,0.863600X0.787400*%
%TD*%
%TA.AperFunction,SMDPad,CuDef*%
%ADD11R,0.355600X0.787400*%
%TD*%
%TA.AperFunction,SMDPad,CuDef*%
%ADD12R,0.787400X0.863600*%
%TD*%
%TA.AperFunction,SMDPad,CuDef*%
%ADD13R,0.787400X0.355600*%
%TD*%
%TA.AperFunction,SMDPad,CuDef*%
%ADD14RoundRect,0.150000X0.150000X-0.875000X0.150000X0.875000X-0.150000X0.875000X-0.150000X-0.875000X0*%
%TD*%
%TA.AperFunction,ComponentPad*%
%ADD15R,1.605000X1.605000*%
%TD*%
%TA.AperFunction,ComponentPad*%
%ADD16C,1.605000*%
%TD*%
%TA.AperFunction,SMDPad,CuDef*%
%ADD17R,0.549999X0.249999*%
%TD*%
%TA.AperFunction,SMDPad,CuDef*%
%ADD18R,0.549999X0.200000*%
%TD*%
%TA.AperFunction,SMDPad,CuDef*%
%ADD19R,0.299999X0.575000*%
%TD*%
%TA.AperFunction,ComponentPad*%
%ADD20R,1.520000X1.520000*%
%TD*%
%TA.AperFunction,ComponentPad*%
%ADD21C,1.520000*%
%TD*%
%TA.AperFunction,SMDPad,CuDef*%
%ADD22R,1.600000X2.600000*%
%TD*%
%TA.AperFunction,SMDPad,CuDef*%
%ADD23RoundRect,0.250000X-0.475000X0.337500X-0.475000X-0.337500X0.475000X-0.337500X0.475000X0.337500X0*%
%TD*%
%TA.AperFunction,SMDPad,CuDef*%
%ADD24RoundRect,0.150000X-0.150000X0.825000X-0.150000X-0.825000X0.150000X-0.825000X0.150000X0.825000X0*%
%TD*%
%TA.AperFunction,SMDPad,CuDef*%
%ADD25RoundRect,0.250000X-0.350000X-0.450000X0.350000X-0.450000X0.350000X0.450000X-0.350000X0.450000X0*%
%TD*%
%TA.AperFunction,ComponentPad*%
%ADD26R,1.700000X1.700000*%
%TD*%
%TA.AperFunction,ComponentPad*%
%ADD27C,1.700000*%
%TD*%
%TA.AperFunction,SMDPad,CuDef*%
%ADD28RoundRect,0.250000X0.350000X0.450000X-0.350000X0.450000X-0.350000X-0.450000X0.350000X-0.450000X0*%
%TD*%
%TA.AperFunction,SMDPad,CuDef*%
%ADD29RoundRect,0.250000X0.337500X0.475000X-0.337500X0.475000X-0.337500X-0.475000X0.337500X-0.475000X0*%
%TD*%
%TA.AperFunction,SMDPad,CuDef*%
%ADD30RoundRect,0.250000X0.475000X-0.337500X0.475000X0.337500X-0.475000X0.337500X-0.475000X-0.337500X0*%
%TD*%
%TA.AperFunction,ViaPad*%
%ADD31C,0.600000*%
%TD*%
%TA.AperFunction,Conductor*%
%ADD32C,0.200000*%
%TD*%
%TA.AperFunction,Conductor*%
%ADD33C,0.400000*%
%TD*%
G04 APERTURE END LIST*
D10*
%TO.P,RN5,1,R1.1*%
%TO.N,Net-(J3-Pin_12)*%
X105803801Y-107914400D03*
D11*
%TO.P,RN5,2,R2.1*%
%TO.N,Net-(J3-Pin_4)*%
X106551323Y-107914400D03*
%TO.P,RN5,3,R3.1*%
%TO.N,Net-(J3-Pin_11)*%
X107044845Y-107914400D03*
%TO.P,RN5,4,R4.1*%
%TO.N,Net-(J3-Pin_3)*%
X107538367Y-107914400D03*
%TO.P,RN5,5,R5.1*%
%TO.N,Net-(J3-Pin_10)*%
X108031889Y-107914400D03*
%TO.P,RN5,6,R6.1*%
%TO.N,Net-(J3-Pin_2)*%
X108525411Y-107914400D03*
%TO.P,RN5,7,R7.1*%
%TO.N,Net-(J3-Pin_9)*%
X109018933Y-107914400D03*
D10*
%TO.P,RN5,8,R8.1*%
%TO.N,Net-(J3-Pin_1)*%
X109766201Y-107914400D03*
%TO.P,RN5,9,R8.2*%
%TO.N,Net-(RN2-R1.2)*%
X109766201Y-106085600D03*
D11*
%TO.P,RN5,10,R7.2*%
%TO.N,Net-(RN2-R2.2)*%
X109018933Y-106085600D03*
%TO.P,RN5,11,R6.2*%
%TO.N,Net-(RN2-R3.2)*%
X108525411Y-106085600D03*
%TO.P,RN5,12,R5.2*%
%TO.N,Net-(RN2-R4.2)*%
X108031889Y-106085600D03*
%TO.P,RN5,13,R4.2*%
%TO.N,Net-(RN2-R5.2)*%
X107538367Y-106085600D03*
%TO.P,RN5,14,R3.2*%
%TO.N,Net-(RN2-R6.2)*%
X107044845Y-106085600D03*
%TO.P,RN5,15,R2.2*%
%TO.N,Net-(RN2-R7.2)*%
X106551323Y-106085600D03*
D10*
%TO.P,RN5,16,R1.2*%
%TO.N,Net-(RN2-R8.2)*%
X105803801Y-106085600D03*
%TD*%
D12*
%TO.P,RN2,1,R1.1*%
%TO.N,GND*%
X95456201Y-97752478D03*
D13*
%TO.P,RN2,2,R2.1*%
X95456201Y-98500000D03*
%TO.P,RN2,3,R3.1*%
X95456201Y-98993522D03*
%TO.P,RN2,4,R4.1*%
X95456201Y-99487044D03*
%TO.P,RN2,5,R5.1*%
X95456201Y-99980566D03*
%TO.P,RN2,6,R6.1*%
X95456201Y-100474088D03*
%TO.P,RN2,7,R7.1*%
X95456201Y-100967610D03*
D12*
%TO.P,RN2,8,R8.1*%
X95456201Y-101714878D03*
%TO.P,RN2,9,R8.2*%
%TO.N,Net-(RN2-R8.2)*%
X97285001Y-101714878D03*
D13*
%TO.P,RN2,10,R7.2*%
%TO.N,Net-(RN2-R7.2)*%
X97285001Y-100967610D03*
%TO.P,RN2,11,R6.2*%
%TO.N,Net-(RN2-R6.2)*%
X97285001Y-100474088D03*
%TO.P,RN2,12,R5.2*%
%TO.N,Net-(RN2-R5.2)*%
X97285001Y-99980566D03*
%TO.P,RN2,13,R4.2*%
%TO.N,Net-(RN2-R4.2)*%
X97285001Y-99487044D03*
%TO.P,RN2,14,R3.2*%
%TO.N,Net-(RN2-R3.2)*%
X97285001Y-98993522D03*
%TO.P,RN2,15,R2.2*%
%TO.N,Net-(RN2-R2.2)*%
X97285001Y-98500000D03*
D12*
%TO.P,RN2,16,R1.2*%
%TO.N,Net-(RN2-R1.2)*%
X97285001Y-97752478D03*
%TD*%
D14*
%TO.P,U1,1,COM*%
%TO.N,/voltage1*%
X102085001Y-101250000D03*
%TO.P,U1,2,I7*%
%TO.N,Net-(RN2-R8.2)*%
X103355001Y-101250000D03*
%TO.P,U1,3,I6*%
%TO.N,Net-(RN2-R7.2)*%
X104625001Y-101250000D03*
%TO.P,U1,4,I5*%
%TO.N,Net-(RN2-R6.2)*%
X105895001Y-101250000D03*
%TO.P,U1,5,I4*%
%TO.N,Net-(RN2-R5.2)*%
X107165001Y-101250000D03*
%TO.P,U1,6,I3*%
%TO.N,Net-(RN2-R4.2)*%
X108435001Y-101250000D03*
%TO.P,U1,7,I2*%
%TO.N,Net-(RN2-R3.2)*%
X109705001Y-101250000D03*
%TO.P,U1,8,I1*%
%TO.N,Net-(RN2-R2.2)*%
X110975001Y-101250000D03*
%TO.P,U1,9,I0*%
%TO.N,Net-(RN2-R1.2)*%
X112245001Y-101250000D03*
%TO.P,U1,10,S0*%
%TO.N,/MUX_select_0*%
X113515001Y-101250000D03*
%TO.P,U1,11,S1*%
%TO.N,/MUX_select_1*%
X114785001Y-101250000D03*
%TO.P,U1,12,GND*%
%TO.N,GND*%
X116055001Y-101250000D03*
%TO.P,U1,13,S3*%
%TO.N,/MUX_select_3*%
X116055001Y-91950000D03*
%TO.P,U1,14,S2*%
%TO.N,/MUX_select_2*%
X114785001Y-91950000D03*
%TO.P,U1,15,~{E}*%
%TO.N,GND*%
X113515001Y-91950000D03*
%TO.P,U1,16,I15*%
%TO.N,Net-(RN1-R8.2)*%
X112245001Y-91950000D03*
%TO.P,U1,17,I14*%
%TO.N,Net-(RN1-R7.2)*%
X110975001Y-91950000D03*
%TO.P,U1,18,I13*%
%TO.N,Net-(RN1-R6.2)*%
X109705001Y-91950000D03*
%TO.P,U1,19,I12*%
%TO.N,Net-(RN1-R5.2)*%
X108435001Y-91950000D03*
%TO.P,U1,20,I11*%
%TO.N,Net-(RN1-R4.2)*%
X107165001Y-91950000D03*
%TO.P,U1,21,I10*%
%TO.N,Net-(RN1-R3.2)*%
X105895001Y-91950000D03*
%TO.P,U1,22,I9*%
%TO.N,Net-(RN1-R2.2)*%
X104625001Y-91950000D03*
%TO.P,U1,23,I8*%
%TO.N,Net-(RN1-R1.2)*%
X103355001Y-91950000D03*
%TO.P,U1,24,VCC*%
%TO.N,+5V*%
X102085001Y-91950000D03*
%TD*%
D15*
%TO.P,J4,1,Pin_1*%
%TO.N,Net-(J4-Pin_1)*%
X87120000Y-131850000D03*
D16*
%TO.P,J4,2,Pin_2*%
%TO.N,Net-(J4-Pin_2)*%
X87120000Y-128850000D03*
%TO.P,J4,3,Pin_3*%
%TO.N,Net-(J4-Pin_3)*%
X87120000Y-125850000D03*
%TO.P,J4,4,Pin_4*%
%TO.N,Net-(J4-Pin_4)*%
X87120000Y-122850000D03*
%TO.P,J4,5,Pin_5*%
%TO.N,Net-(J4-Pin_5)*%
X87120000Y-119850000D03*
%TO.P,J4,6,Pin_6*%
%TO.N,Net-(J4-Pin_6)*%
X87120000Y-116850000D03*
%TO.P,J4,7,Pin_7*%
%TO.N,Net-(J4-Pin_7)*%
X87120000Y-113850000D03*
%TO.P,J4,8,Pin_8*%
%TO.N,Net-(J4-Pin_8)*%
X87120000Y-110850000D03*
%TO.P,J4,9,Pin_9*%
%TO.N,Net-(J4-Pin_9)*%
X90120000Y-131850000D03*
%TO.P,J4,10,Pin_10*%
%TO.N,Net-(J4-Pin_10)*%
X90120000Y-128850000D03*
%TO.P,J4,11,Pin_11*%
%TO.N,Net-(J4-Pin_11)*%
X90120000Y-125850000D03*
%TO.P,J4,12,Pin_12*%
%TO.N,Net-(J4-Pin_12)*%
X90120000Y-122850000D03*
%TO.P,J4,13,Pin_13*%
%TO.N,Net-(J4-Pin_13)*%
X90120000Y-119850000D03*
%TO.P,J4,14,Pin_14*%
%TO.N,Net-(J4-Pin_14)*%
X90120000Y-116850000D03*
%TO.P,J4,15,Pin_15*%
%TO.N,Net-(J4-Pin_15)*%
X90120000Y-113850000D03*
%TO.P,J4,16,Pin_16*%
%TO.N,Net-(J4-Pin_16)*%
X90120000Y-110850000D03*
%TD*%
D17*
%TO.P,U3,1,AVDD*%
%TO.N,+5V*%
X129025000Y-98999999D03*
D18*
%TO.P,U3,2,AINP_AIN0*%
%TO.N,Net-(U3-AINP_AIN0)*%
X129025000Y-99500000D03*
%TO.P,U3,3,AINM_AIN1*%
%TO.N,Net-(U3-AINM_AIN1)*%
X129025000Y-100000000D03*
D17*
%TO.P,U3,4,ADDR*%
%TO.N,Net-(U3-ADDR)*%
X129025000Y-100500001D03*
D19*
%TO.P,U3,5,BUSY_RDY_N*%
%TO.N,unconnected-(U3-BUSY_RDY_N-Pad5)*%
X129700000Y-100662500D03*
D17*
%TO.P,U3,6,ALERT_N*%
%TO.N,unconnected-(U3-ALERT_N-Pad6)*%
X130375000Y-100500001D03*
D18*
%TO.P,U3,7,SDA*%
%TO.N,/SDA*%
X130375000Y-100000000D03*
%TO.P,U3,8,SCL*%
%TO.N,/SCL*%
X130375000Y-99500000D03*
D17*
%TO.P,U3,9,DVDD*%
%TO.N,+5V*%
X130375000Y-98999999D03*
D19*
%TO.P,U3,10,GND*%
%TO.N,GND*%
X129700000Y-98837500D03*
%TD*%
D20*
%TO.P,J1,1,Pin_1*%
%TO.N,+5V*%
X130700000Y-112500000D03*
D21*
%TO.P,J1,2,Pin_2*%
%TO.N,GND*%
X130700000Y-115500000D03*
%TO.P,J1,3,Pin_3*%
%TO.N,/SCL*%
X127700000Y-112500000D03*
%TO.P,J1,4,Pin_4*%
%TO.N,/SDA*%
X127700000Y-115500000D03*
%TD*%
D22*
%TO.P,C5,1*%
%TO.N,+5V*%
X136000000Y-98800000D03*
%TO.P,C5,2*%
%TO.N,GND*%
X136000000Y-95200000D03*
%TD*%
D23*
%TO.P,C3,1*%
%TO.N,Net-(U3-AINM_AIN1)*%
X124250000Y-105962500D03*
%TO.P,C3,2*%
%TO.N,GND*%
X124250000Y-108037500D03*
%TD*%
D14*
%TO.P,U2,1,COM*%
%TO.N,/voltage2*%
X102280000Y-131000000D03*
%TO.P,U2,2,I7*%
%TO.N,Net-(RN4-R8.2)*%
X103550000Y-131000000D03*
%TO.P,U2,3,I6*%
%TO.N,Net-(RN4-R7.2)*%
X104820000Y-131000000D03*
%TO.P,U2,4,I5*%
%TO.N,Net-(RN4-R6.2)*%
X106090000Y-131000000D03*
%TO.P,U2,5,I4*%
%TO.N,Net-(RN4-R5.2)*%
X107360000Y-131000000D03*
%TO.P,U2,6,I3*%
%TO.N,Net-(RN4-R4.2)*%
X108630000Y-131000000D03*
%TO.P,U2,7,I2*%
%TO.N,Net-(RN4-R3.2)*%
X109900000Y-131000000D03*
%TO.P,U2,8,I1*%
%TO.N,Net-(RN4-R2.2)*%
X111170000Y-131000000D03*
%TO.P,U2,9,I0*%
%TO.N,Net-(RN4-R1.2)*%
X112440000Y-131000000D03*
%TO.P,U2,10,S0*%
%TO.N,/MUX_select_0*%
X113710000Y-131000000D03*
%TO.P,U2,11,S1*%
%TO.N,/MUX_select_1*%
X114980000Y-131000000D03*
%TO.P,U2,12,GND*%
%TO.N,GND*%
X116250000Y-131000000D03*
%TO.P,U2,13,S3*%
%TO.N,/MUX_select_3*%
X116250000Y-121700000D03*
%TO.P,U2,14,S2*%
%TO.N,/MUX_select_2*%
X114980000Y-121700000D03*
%TO.P,U2,15,~{E}*%
%TO.N,GND*%
X113710000Y-121700000D03*
%TO.P,U2,16,I15*%
%TO.N,Net-(RN3-R8.2)*%
X112440000Y-121700000D03*
%TO.P,U2,17,I14*%
%TO.N,Net-(RN3-R7.2)*%
X111170000Y-121700000D03*
%TO.P,U2,18,I13*%
%TO.N,Net-(RN3-R6.2)*%
X109900000Y-121700000D03*
%TO.P,U2,19,I12*%
%TO.N,Net-(RN3-R5.2)*%
X108630000Y-121700000D03*
%TO.P,U2,20,I11*%
%TO.N,Net-(RN3-R4.2)*%
X107360000Y-121700000D03*
%TO.P,U2,21,I10*%
%TO.N,Net-(RN3-R3.2)*%
X106090000Y-121700000D03*
%TO.P,U2,22,I9*%
%TO.N,Net-(RN3-R2.2)*%
X104820000Y-121700000D03*
%TO.P,U2,23,I8*%
%TO.N,Net-(RN3-R1.2)*%
X103550000Y-121700000D03*
%TO.P,U2,24,VCC*%
%TO.N,+5V*%
X102280000Y-121700000D03*
%TD*%
D24*
%TO.P,U4,1*%
%TO.N,/voltage1_buffered*%
X118405000Y-109275000D03*
%TO.P,U4,2,-*%
X117135000Y-109275000D03*
%TO.P,U4,3,+*%
%TO.N,/voltage1*%
X115865000Y-109275000D03*
%TO.P,U4,4,V-*%
%TO.N,GND*%
X114595000Y-109275000D03*
%TO.P,U4,5,+*%
%TO.N,/voltage2*%
X114595000Y-114225000D03*
%TO.P,U4,6,-*%
%TO.N,/voltage2_buffered*%
X115865000Y-114225000D03*
%TO.P,U4,7*%
X117135000Y-114225000D03*
%TO.P,U4,8,V+*%
%TO.N,+5V*%
X118405000Y-114225000D03*
%TD*%
D10*
%TO.P,RN7,1,R1.1*%
%TO.N,Net-(J4-Pin_12)*%
X106037600Y-137500000D03*
D11*
%TO.P,RN7,2,R2.1*%
%TO.N,Net-(J4-Pin_4)*%
X106785122Y-137500000D03*
%TO.P,RN7,3,R3.1*%
%TO.N,Net-(J4-Pin_11)*%
X107278644Y-137500000D03*
%TO.P,RN7,4,R4.1*%
%TO.N,Net-(J4-Pin_3)*%
X107772166Y-137500000D03*
%TO.P,RN7,5,R5.1*%
%TO.N,Net-(J4-Pin_10)*%
X108265688Y-137500000D03*
%TO.P,RN7,6,R6.1*%
%TO.N,Net-(J4-Pin_2)*%
X108759210Y-137500000D03*
%TO.P,RN7,7,R7.1*%
%TO.N,Net-(J4-Pin_9)*%
X109252732Y-137500000D03*
D10*
%TO.P,RN7,8,R8.1*%
%TO.N,Net-(J4-Pin_1)*%
X110000000Y-137500000D03*
%TO.P,RN7,9,R8.2*%
%TO.N,Net-(RN4-R1.2)*%
X110000000Y-135671200D03*
D11*
%TO.P,RN7,10,R7.2*%
%TO.N,Net-(RN4-R2.2)*%
X109252732Y-135671200D03*
%TO.P,RN7,11,R6.2*%
%TO.N,Net-(RN4-R3.2)*%
X108759210Y-135671200D03*
%TO.P,RN7,12,R5.2*%
%TO.N,Net-(RN4-R4.2)*%
X108265688Y-135671200D03*
%TO.P,RN7,13,R4.2*%
%TO.N,Net-(RN4-R5.2)*%
X107772166Y-135671200D03*
%TO.P,RN7,14,R3.2*%
%TO.N,Net-(RN4-R6.2)*%
X107278644Y-135671200D03*
%TO.P,RN7,15,R2.2*%
%TO.N,Net-(RN4-R7.2)*%
X106785122Y-135671200D03*
D10*
%TO.P,RN7,16,R1.2*%
%TO.N,Net-(RN4-R8.2)*%
X106037600Y-135671200D03*
%TD*%
D25*
%TO.P,R1,1*%
%TO.N,Net-(U3-ADDR)*%
X128500000Y-91500000D03*
%TO.P,R1,2*%
%TO.N,GND*%
X130500000Y-91500000D03*
%TD*%
D10*
%TO.P,RN6,1,R1.1*%
%TO.N,Net-(J3-Pin_8)*%
X109516201Y-85835600D03*
D11*
%TO.P,RN6,2,R2.1*%
%TO.N,Net-(J3-Pin_16)*%
X108768679Y-85835600D03*
%TO.P,RN6,3,R3.1*%
%TO.N,Net-(J3-Pin_7)*%
X108275157Y-85835600D03*
%TO.P,RN6,4,R4.1*%
%TO.N,Net-(J3-Pin_15)*%
X107781635Y-85835600D03*
%TO.P,RN6,5,R5.1*%
%TO.N,Net-(J3-Pin_6)*%
X107288113Y-85835600D03*
%TO.P,RN6,6,R6.1*%
%TO.N,Net-(J3-Pin_14)*%
X106794591Y-85835600D03*
%TO.P,RN6,7,R7.1*%
%TO.N,Net-(J3-Pin_5)*%
X106301069Y-85835600D03*
D10*
%TO.P,RN6,8,R8.1*%
%TO.N,Net-(J3-Pin_13)*%
X105553801Y-85835600D03*
%TO.P,RN6,9,R8.2*%
%TO.N,Net-(RN1-R1.2)*%
X105553801Y-87664400D03*
D11*
%TO.P,RN6,10,R7.2*%
%TO.N,Net-(RN1-R2.2)*%
X106301069Y-87664400D03*
%TO.P,RN6,11,R6.2*%
%TO.N,Net-(RN1-R3.2)*%
X106794591Y-87664400D03*
%TO.P,RN6,12,R5.2*%
%TO.N,Net-(RN1-R4.2)*%
X107288113Y-87664400D03*
%TO.P,RN6,13,R4.2*%
%TO.N,Net-(RN1-R5.2)*%
X107781635Y-87664400D03*
%TO.P,RN6,14,R3.2*%
%TO.N,Net-(RN1-R6.2)*%
X108275157Y-87664400D03*
%TO.P,RN6,15,R2.2*%
%TO.N,Net-(RN1-R7.2)*%
X108768679Y-87664400D03*
D10*
%TO.P,RN6,16,R1.2*%
%TO.N,Net-(RN1-R8.2)*%
X109516201Y-87664400D03*
%TD*%
%TO.P,RN8,1,R1.1*%
%TO.N,Net-(J4-Pin_8)*%
X109231200Y-115085600D03*
D11*
%TO.P,RN8,2,R2.1*%
%TO.N,Net-(J4-Pin_16)*%
X108483678Y-115085600D03*
%TO.P,RN8,3,R3.1*%
%TO.N,Net-(J4-Pin_7)*%
X107990156Y-115085600D03*
%TO.P,RN8,4,R4.1*%
%TO.N,Net-(J4-Pin_15)*%
X107496634Y-115085600D03*
%TO.P,RN8,5,R5.1*%
%TO.N,Net-(J4-Pin_6)*%
X107003112Y-115085600D03*
%TO.P,RN8,6,R6.1*%
%TO.N,Net-(J4-Pin_14)*%
X106509590Y-115085600D03*
%TO.P,RN8,7,R7.1*%
%TO.N,Net-(J4-Pin_5)*%
X106016068Y-115085600D03*
D10*
%TO.P,RN8,8,R8.1*%
%TO.N,Net-(J4-Pin_13)*%
X105268800Y-115085600D03*
%TO.P,RN8,9,R8.2*%
%TO.N,Net-(RN3-R1.2)*%
X105268800Y-116914400D03*
D11*
%TO.P,RN8,10,R7.2*%
%TO.N,Net-(RN3-R2.2)*%
X106016068Y-116914400D03*
%TO.P,RN8,11,R6.2*%
%TO.N,Net-(RN3-R3.2)*%
X106509590Y-116914400D03*
%TO.P,RN8,12,R5.2*%
%TO.N,Net-(RN3-R4.2)*%
X107003112Y-116914400D03*
%TO.P,RN8,13,R4.2*%
%TO.N,Net-(RN3-R5.2)*%
X107496634Y-116914400D03*
%TO.P,RN8,14,R3.2*%
%TO.N,Net-(RN3-R6.2)*%
X107990156Y-116914400D03*
%TO.P,RN8,15,R2.2*%
%TO.N,Net-(RN3-R7.2)*%
X108483678Y-116914400D03*
D10*
%TO.P,RN8,16,R1.2*%
%TO.N,Net-(RN3-R8.2)*%
X109231200Y-116914400D03*
%TD*%
D26*
%TO.P,J7,1,Pin_1*%
%TO.N,/voltage1*%
X112000000Y-110460000D03*
D27*
%TO.P,J7,2,Pin_2*%
%TO.N,/voltage2*%
X112000000Y-113000000D03*
%TD*%
D12*
%TO.P,RN1,1,R1.1*%
%TO.N,GND*%
X95456201Y-92002478D03*
D13*
%TO.P,RN1,2,R2.1*%
X95456201Y-92750000D03*
%TO.P,RN1,3,R3.1*%
X95456201Y-93243522D03*
%TO.P,RN1,4,R4.1*%
X95456201Y-93737044D03*
%TO.P,RN1,5,R5.1*%
X95456201Y-94230566D03*
%TO.P,RN1,6,R6.1*%
X95456201Y-94724088D03*
%TO.P,RN1,7,R7.1*%
X95456201Y-95217610D03*
D12*
%TO.P,RN1,8,R8.1*%
X95456201Y-95964878D03*
%TO.P,RN1,9,R8.2*%
%TO.N,Net-(RN1-R8.2)*%
X97285001Y-95964878D03*
D13*
%TO.P,RN1,10,R7.2*%
%TO.N,Net-(RN1-R7.2)*%
X97285001Y-95217610D03*
%TO.P,RN1,11,R6.2*%
%TO.N,Net-(RN1-R6.2)*%
X97285001Y-94724088D03*
%TO.P,RN1,12,R5.2*%
%TO.N,Net-(RN1-R5.2)*%
X97285001Y-94230566D03*
%TO.P,RN1,13,R4.2*%
%TO.N,Net-(RN1-R4.2)*%
X97285001Y-93737044D03*
%TO.P,RN1,14,R3.2*%
%TO.N,Net-(RN1-R3.2)*%
X97285001Y-93243522D03*
%TO.P,RN1,15,R2.2*%
%TO.N,Net-(RN1-R2.2)*%
X97285001Y-92750000D03*
D12*
%TO.P,RN1,16,R1.2*%
%TO.N,Net-(RN1-R1.2)*%
X97285001Y-92002478D03*
%TD*%
D28*
%TO.P,R2,1*%
%TO.N,Net-(U3-ADDR)*%
X125750000Y-91500000D03*
%TO.P,R2,2*%
%TO.N,+5V*%
X123750000Y-91500000D03*
%TD*%
D15*
%TO.P,J3,1,Pin_1*%
%TO.N,Net-(J3-Pin_1)*%
X87200000Y-102600000D03*
D16*
%TO.P,J3,2,Pin_2*%
%TO.N,Net-(J3-Pin_2)*%
X87200000Y-99600000D03*
%TO.P,J3,3,Pin_3*%
%TO.N,Net-(J3-Pin_3)*%
X87200000Y-96600000D03*
%TO.P,J3,4,Pin_4*%
%TO.N,Net-(J3-Pin_4)*%
X87200000Y-93600000D03*
%TO.P,J3,5,Pin_5*%
%TO.N,Net-(J3-Pin_5)*%
X87200000Y-90600000D03*
%TO.P,J3,6,Pin_6*%
%TO.N,Net-(J3-Pin_6)*%
X87200000Y-87600000D03*
%TO.P,J3,7,Pin_7*%
%TO.N,Net-(J3-Pin_7)*%
X87200000Y-84600000D03*
%TO.P,J3,8,Pin_8*%
%TO.N,Net-(J3-Pin_8)*%
X87200000Y-81600000D03*
%TO.P,J3,9,Pin_9*%
%TO.N,Net-(J3-Pin_9)*%
X90200000Y-102600000D03*
%TO.P,J3,10,Pin_10*%
%TO.N,Net-(J3-Pin_10)*%
X90200000Y-99600000D03*
%TO.P,J3,11,Pin_11*%
%TO.N,Net-(J3-Pin_11)*%
X90200000Y-96600000D03*
%TO.P,J3,12,Pin_12*%
%TO.N,Net-(J3-Pin_12)*%
X90200000Y-93600000D03*
%TO.P,J3,13,Pin_13*%
%TO.N,Net-(J3-Pin_13)*%
X90200000Y-90600000D03*
%TO.P,J3,14,Pin_14*%
%TO.N,Net-(J3-Pin_14)*%
X90200000Y-87600000D03*
%TO.P,J3,15,Pin_15*%
%TO.N,Net-(J3-Pin_15)*%
X90200000Y-84600000D03*
%TO.P,J3,16,Pin_16*%
%TO.N,Net-(J3-Pin_16)*%
X90200000Y-81600000D03*
%TD*%
D12*
%TO.P,RN4,1,R1.1*%
%TO.N,GND*%
X95750000Y-127278390D03*
D13*
%TO.P,RN4,2,R2.1*%
X95750000Y-128025912D03*
%TO.P,RN4,3,R3.1*%
X95750000Y-128519434D03*
%TO.P,RN4,4,R4.1*%
X95750000Y-129012956D03*
%TO.P,RN4,5,R5.1*%
X95750000Y-129506478D03*
%TO.P,RN4,6,R6.1*%
X95750000Y-130000000D03*
%TO.P,RN4,7,R7.1*%
X95750000Y-130493522D03*
D12*
%TO.P,RN4,8,R8.1*%
X95750000Y-131240790D03*
%TO.P,RN4,9,R8.2*%
%TO.N,Net-(RN4-R8.2)*%
X97578800Y-131240790D03*
D13*
%TO.P,RN4,10,R7.2*%
%TO.N,Net-(RN4-R7.2)*%
X97578800Y-130493522D03*
%TO.P,RN4,11,R6.2*%
%TO.N,Net-(RN4-R6.2)*%
X97578800Y-130000000D03*
%TO.P,RN4,12,R5.2*%
%TO.N,Net-(RN4-R5.2)*%
X97578800Y-129506478D03*
%TO.P,RN4,13,R4.2*%
%TO.N,Net-(RN4-R4.2)*%
X97578800Y-129012956D03*
%TO.P,RN4,14,R3.2*%
%TO.N,Net-(RN4-R3.2)*%
X97578800Y-128519434D03*
%TO.P,RN4,15,R2.2*%
%TO.N,Net-(RN4-R2.2)*%
X97578800Y-128025912D03*
D12*
%TO.P,RN4,16,R1.2*%
%TO.N,Net-(RN4-R1.2)*%
X97578800Y-127278390D03*
%TD*%
D26*
%TO.P,J5,1,Pin_1*%
%TO.N,/MUX_select_0*%
X116440000Y-136500000D03*
D27*
%TO.P,J5,2,Pin_2*%
%TO.N,/MUX_select_3*%
X118980000Y-136500000D03*
%TO.P,J5,3,Pin_3*%
%TO.N,/MUX_select_1*%
X121520000Y-136500000D03*
%TO.P,J5,4,Pin_4*%
%TO.N,/MUX_select_2*%
X124060000Y-136500000D03*
%TD*%
D28*
%TO.P,R4,1*%
%TO.N,+5V*%
X132950000Y-103000000D03*
%TO.P,R4,2*%
%TO.N,/SDA*%
X130950000Y-103000000D03*
%TD*%
D29*
%TO.P,C4,1*%
%TO.N,Net-(U3-AINP_AIN0)*%
X124287500Y-98000000D03*
%TO.P,C4,2*%
%TO.N,GND*%
X122212500Y-98000000D03*
%TD*%
D30*
%TO.P,C1,1*%
%TO.N,+5V*%
X129750000Y-96537500D03*
%TO.P,C1,2*%
%TO.N,GND*%
X129750000Y-94462500D03*
%TD*%
D26*
%TO.P,J6,1,Pin_1*%
%TO.N,GND*%
X129980000Y-132000000D03*
D27*
%TO.P,J6,2,Pin_2*%
%TO.N,/SDA*%
X132520000Y-132000000D03*
%TO.P,J6,3,Pin_3*%
%TO.N,/SCL*%
X135060000Y-132000000D03*
%TO.P,J6,4,Pin_4*%
%TO.N,+5V*%
X137600000Y-132000000D03*
%TD*%
D12*
%TO.P,RN3,1,R1.1*%
%TO.N,GND*%
X95750000Y-121537600D03*
D13*
%TO.P,RN3,2,R2.1*%
X95750000Y-122285122D03*
%TO.P,RN3,3,R3.1*%
X95750000Y-122778644D03*
%TO.P,RN3,4,R4.1*%
X95750000Y-123272166D03*
%TO.P,RN3,5,R5.1*%
X95750000Y-123765688D03*
%TO.P,RN3,6,R6.1*%
X95750000Y-124259210D03*
%TO.P,RN3,7,R7.1*%
X95750000Y-124752732D03*
D12*
%TO.P,RN3,8,R8.1*%
X95750000Y-125500000D03*
%TO.P,RN3,9,R8.2*%
%TO.N,Net-(RN3-R8.2)*%
X97578800Y-125500000D03*
D13*
%TO.P,RN3,10,R7.2*%
%TO.N,Net-(RN3-R7.2)*%
X97578800Y-124752732D03*
%TO.P,RN3,11,R6.2*%
%TO.N,Net-(RN3-R6.2)*%
X97578800Y-124259210D03*
%TO.P,RN3,12,R5.2*%
%TO.N,Net-(RN3-R5.2)*%
X97578800Y-123765688D03*
%TO.P,RN3,13,R4.2*%
%TO.N,Net-(RN3-R4.2)*%
X97578800Y-123272166D03*
%TO.P,RN3,14,R3.2*%
%TO.N,Net-(RN3-R3.2)*%
X97578800Y-122778644D03*
%TO.P,RN3,15,R2.2*%
%TO.N,Net-(RN3-R2.2)*%
X97578800Y-122285122D03*
D12*
%TO.P,RN3,16,R1.2*%
%TO.N,Net-(RN3-R1.2)*%
X97578800Y-121537600D03*
%TD*%
D28*
%TO.P,R5,1*%
%TO.N,Net-(U3-AINM_AIN1)*%
X124250000Y-103250000D03*
%TO.P,R5,2*%
%TO.N,/voltage2_buffered*%
X122250000Y-103250000D03*
%TD*%
D20*
%TO.P,J2,1,Pin_1*%
%TO.N,/MUX_select_2*%
X130710000Y-123000000D03*
D21*
%TO.P,J2,2,Pin_2*%
%TO.N,/MUX_select_0*%
X130710000Y-126000000D03*
%TO.P,J2,3,Pin_3*%
%TO.N,/MUX_select_3*%
X127710000Y-123000000D03*
%TO.P,J2,4,Pin_4*%
%TO.N,/MUX_select_1*%
X127710000Y-126000000D03*
%TD*%
D28*
%TO.P,R3,1*%
%TO.N,+5V*%
X134200000Y-105750000D03*
%TO.P,R3,2*%
%TO.N,/SCL*%
X132200000Y-105750000D03*
%TD*%
%TO.P,R6,1*%
%TO.N,Net-(U3-AINP_AIN0)*%
X124250000Y-100500000D03*
%TO.P,R6,2*%
%TO.N,/voltage1_buffered*%
X122250000Y-100500000D03*
%TD*%
D31*
%TO.N,GND*%
X113500000Y-93750000D03*
X122000000Y-96500000D03*
X95535001Y-90750000D03*
X137500000Y-94000000D03*
X130500000Y-93250000D03*
X129750000Y-98000000D03*
X124250000Y-109500000D03*
X116750000Y-103000000D03*
X114250000Y-107750000D03*
X96500000Y-102750000D03*
X117250000Y-131000000D03*
X96500000Y-132000000D03*
X96500000Y-120750000D03*
X113750000Y-123750000D03*
%TO.N,+5V*%
X115250000Y-118250000D03*
X118600000Y-112800000D03*
X122200000Y-114000000D03*
X102250000Y-90500000D03*
X102750000Y-120000000D03*
X113250000Y-90000000D03*
X125400000Y-114000000D03*
%TO.N,/MUX_select_1*%
X120750000Y-124500000D03*
X127400000Y-128800000D03*
X122250000Y-123000000D03*
%TO.N,/MUX_select_3*%
X118500000Y-117000000D03*
X121605000Y-116895000D03*
X126400000Y-128800000D03*
%TO.N,/MUX_select_2*%
X118500000Y-116000000D03*
X120750000Y-116000000D03*
X128600000Y-128800000D03*
%TO.N,Net-(U3-ADDR)*%
X128250000Y-100750000D03*
X127750000Y-95500000D03*
%TO.N,Net-(RN1-R2.2)*%
X102285001Y-89500000D03*
X105035001Y-89500000D03*
%TO.N,Net-(RN2-R7.2)*%
X103035001Y-104500000D03*
X105285001Y-104500000D03*
%TO.N,Net-(RN3-R2.2)*%
X102500000Y-119000000D03*
X105250000Y-119000000D03*
%TO.N,Net-(RN4-R7.2)*%
X103250000Y-134000000D03*
X105500000Y-134000000D03*
%TO.N,/voltage2_buffered*%
X120750000Y-105500000D03*
X118250000Y-111000000D03*
%TO.N,/voltage2*%
X113250000Y-119750000D03*
X102500000Y-129750000D03*
%TO.N,/voltage1_buffered*%
X120000000Y-104250000D03*
X117250000Y-107000000D03*
%TO.N,/voltage1*%
X112000000Y-103750000D03*
X102500000Y-103500000D03*
%TD*%
D32*
%TO.N,GND*%
X96500000Y-132000000D02*
X96500000Y-131990790D01*
X96500000Y-102750000D02*
X96250000Y-102750000D01*
X113710000Y-121700000D02*
X113710000Y-123710000D01*
X129700000Y-98050000D02*
X129750000Y-98000000D01*
X114595000Y-108095000D02*
X114250000Y-107750000D01*
X96250000Y-102750000D02*
X95456201Y-101956201D01*
X137200000Y-94000000D02*
X136000000Y-95200000D01*
X137500000Y-94000000D02*
X137200000Y-94000000D01*
X95456201Y-101956201D02*
X95456201Y-101714878D01*
X95456201Y-92002478D02*
X95456201Y-90828800D01*
X122212500Y-98000000D02*
X122212500Y-96712500D01*
X114595000Y-109275000D02*
X114595000Y-108095000D01*
X129750000Y-94000000D02*
X130500000Y-93250000D01*
X129750000Y-94462500D02*
X129750000Y-94000000D01*
X116250000Y-131000000D02*
X117250000Y-131000000D01*
X95456201Y-97752478D02*
X95456201Y-95964878D01*
X113515001Y-93734999D02*
X113500000Y-93750000D01*
X95671200Y-121578800D02*
X96500000Y-120750000D01*
X116055001Y-102305001D02*
X116750000Y-103000000D01*
X113515001Y-91950000D02*
X113515001Y-93734999D01*
X95456201Y-101714878D02*
X95456201Y-97752478D01*
X95456201Y-90828800D02*
X95535001Y-90750000D01*
X96500000Y-131990790D02*
X95671200Y-131161990D01*
X130500000Y-91500000D02*
X130500000Y-93250000D01*
X113710000Y-123710000D02*
X113750000Y-123750000D01*
X129700000Y-98837500D02*
X129700000Y-98050000D01*
X122212500Y-96712500D02*
X122000000Y-96500000D01*
X95456201Y-95964878D02*
X95456201Y-92002478D01*
X116055001Y-101250000D02*
X116055001Y-102305001D01*
X124250000Y-108037500D02*
X124250000Y-109500000D01*
X95671200Y-131161990D02*
X95671200Y-121578800D01*
D33*
%TO.N,+5V*%
X136000000Y-103000000D02*
X136000000Y-105750000D01*
D32*
X122375000Y-92875000D02*
X121000000Y-91500000D01*
D33*
X129750000Y-96537500D02*
X133737500Y-96537500D01*
D32*
X130375000Y-97162500D02*
X129750000Y-96537500D01*
X121000000Y-91500000D02*
X119500000Y-90000000D01*
X115250000Y-118250000D02*
X118405000Y-115095000D01*
X102280000Y-121700000D02*
X102280000Y-120470000D01*
X126037500Y-96537500D02*
X122375000Y-92875000D01*
X132400000Y-114200000D02*
X130700000Y-112500000D01*
X137600000Y-132000000D02*
X137600000Y-122400000D01*
D33*
X136000000Y-105750000D02*
X136000000Y-107200000D01*
D32*
X118405000Y-115095000D02*
X118405000Y-114225000D01*
X130375000Y-98999999D02*
X130375000Y-97162500D01*
X129025000Y-97262500D02*
X129750000Y-96537500D01*
X132400000Y-117200000D02*
X132400000Y-114200000D01*
X118600000Y-114030000D02*
X118405000Y-114225000D01*
D33*
X133737500Y-96537500D02*
X136000000Y-98800000D01*
D32*
X132950000Y-103000000D02*
X136000000Y-103000000D01*
X129750000Y-96537500D02*
X126037500Y-96537500D01*
X137600000Y-122400000D02*
X132400000Y-117200000D01*
X102085001Y-90664999D02*
X102250000Y-90500000D01*
X125400000Y-114000000D02*
X122200000Y-114000000D01*
X123750000Y-91500000D02*
X122375000Y-92875000D01*
X102085001Y-91950000D02*
X102085001Y-90664999D01*
D33*
X136000000Y-107200000D02*
X130700000Y-112500000D01*
D32*
X118600000Y-112800000D02*
X118600000Y-114030000D01*
X102280000Y-120470000D02*
X102750000Y-120000000D01*
D33*
X136000000Y-98800000D02*
X136000000Y-103000000D01*
D32*
X134200000Y-105750000D02*
X136000000Y-105750000D01*
X119500000Y-90000000D02*
X113250000Y-90000000D01*
X129025000Y-98999999D02*
X129025000Y-97262500D01*
%TO.N,/SCL*%
X129200000Y-114000000D02*
X127700000Y-112500000D01*
X127700000Y-112500000D02*
X127700000Y-111250000D01*
X131950000Y-100598001D02*
X130851999Y-99500000D01*
X132800000Y-129740000D02*
X132800000Y-120200000D01*
X132800000Y-120200000D02*
X129200000Y-116600000D01*
X130851999Y-99500000D02*
X130375000Y-99500000D01*
X127700000Y-111250000D02*
X131950000Y-107000000D01*
X135060000Y-132000000D02*
X132800000Y-129740000D01*
X129200000Y-116600000D02*
X129200000Y-114000000D01*
X131950000Y-107000000D02*
X131950000Y-100598001D01*
%TO.N,/SDA*%
X127700000Y-116300000D02*
X127700000Y-115500000D01*
X132000000Y-120600000D02*
X127700000Y-116300000D01*
X131200000Y-100500000D02*
X130700000Y-100000000D01*
X126200000Y-114000000D02*
X126200000Y-111500000D01*
X131200000Y-106500000D02*
X131200000Y-100500000D01*
X132000000Y-131480000D02*
X132000000Y-120600000D01*
X127700000Y-115500000D02*
X126200000Y-114000000D01*
X132520000Y-132000000D02*
X132000000Y-131480000D01*
X126200000Y-111500000D02*
X131200000Y-106500000D01*
X130700000Y-100000000D02*
X130375000Y-100000000D01*
%TO.N,/MUX_select_0*%
X114935001Y-133250000D02*
X116400000Y-133250000D01*
X113710000Y-132024999D02*
X113710000Y-131000000D01*
X128960000Y-127750000D02*
X125500000Y-127750000D01*
X119240002Y-108000000D02*
X119250000Y-108000000D01*
X125500000Y-127750000D02*
X119250000Y-121500000D01*
X116440000Y-133290000D02*
X116400000Y-133250000D01*
X119250000Y-108000000D02*
X119250000Y-121500000D01*
X113515001Y-102274999D02*
X119240002Y-108000000D01*
X120000000Y-133250000D02*
X125500000Y-127750000D01*
X116440000Y-136500000D02*
X116440000Y-133290000D01*
X116400000Y-133250000D02*
X118800000Y-133250000D01*
X118800000Y-133250000D02*
X120000000Y-133250000D01*
X113515001Y-101250000D02*
X113515001Y-102274999D01*
X114935001Y-133250000D02*
X113710000Y-132024999D01*
X130710000Y-126000000D02*
X128960000Y-127750000D01*
%TO.N,/MUX_select_1*%
X115750000Y-103500000D02*
X120000000Y-107750000D01*
X114785001Y-102535001D02*
X115750000Y-103500000D01*
X120000000Y-107750000D02*
X120000000Y-111000000D01*
X114980000Y-131000000D02*
X114980000Y-130270000D01*
X114785001Y-101250000D02*
X114785001Y-102535001D01*
X114980000Y-131000000D02*
X114980000Y-131396968D01*
X122875000Y-122375000D02*
X120000000Y-119500000D01*
X120000000Y-111000000D02*
X120000000Y-119500000D01*
X127710000Y-126000000D02*
X126500000Y-126000000D01*
X122250000Y-123000000D02*
X122875000Y-122375000D01*
X114980000Y-130270000D02*
X120750000Y-124500000D01*
X121520000Y-136500000D02*
X121520000Y-135280000D01*
X121520000Y-135280000D02*
X127400000Y-129400000D01*
X127400000Y-129400000D02*
X127400000Y-128800000D01*
X126500000Y-126000000D02*
X122875000Y-122375000D01*
%TO.N,/MUX_select_3*%
X118980000Y-136220000D02*
X126400000Y-128800000D01*
X127710000Y-123000000D02*
X121605000Y-116895000D01*
X121605000Y-116895000D02*
X121500000Y-116790000D01*
X116250000Y-121700000D02*
X116250000Y-119250000D01*
X118500000Y-100250000D02*
X118500000Y-103500000D01*
X118980000Y-136500000D02*
X118980000Y-136220000D01*
X120000000Y-105750000D02*
X121500000Y-107250000D01*
X116055001Y-97805001D02*
X117250000Y-99000000D01*
X118500000Y-103500000D02*
X118500000Y-104250000D01*
X121500000Y-107250000D02*
X121500000Y-116790000D01*
X116055001Y-91950000D02*
X116055001Y-97805001D01*
X116250000Y-119250000D02*
X118500000Y-117000000D01*
X117250000Y-99000000D02*
X118500000Y-100250000D01*
X118500000Y-104250000D02*
X120000000Y-105750000D01*
%TO.N,/MUX_select_2*%
X120750000Y-107500000D02*
X117750000Y-104500000D01*
X130710000Y-123000000D02*
X129210000Y-124500000D01*
X129210000Y-124500000D02*
X126750000Y-124500000D01*
X114980000Y-119520000D02*
X118500000Y-116000000D01*
X114980000Y-121700000D02*
X114980000Y-122724999D01*
X126750000Y-124500000D02*
X120750000Y-118500000D01*
X120750000Y-118500000D02*
X120750000Y-116000000D01*
X114980000Y-121700000D02*
X114980000Y-119520000D01*
X128600000Y-128800000D02*
X128600000Y-129400000D01*
X126600000Y-133960000D02*
X124060000Y-136500000D01*
X117750000Y-100500000D02*
X114785001Y-97535001D01*
X117750000Y-104500000D02*
X117750000Y-100500000D01*
X120750000Y-116000000D02*
X120750000Y-107500000D01*
X126600000Y-131400000D02*
X126600000Y-133960000D01*
X114785001Y-97535001D02*
X114785001Y-91950000D01*
X128600000Y-129400000D02*
X126600000Y-131400000D01*
%TO.N,Net-(J3-Pin_15)*%
X107781635Y-85080335D02*
X105901300Y-83200000D01*
X91000000Y-84600000D02*
X90200000Y-84600000D01*
X92400000Y-83200000D02*
X91000000Y-84600000D01*
X105901300Y-83200000D02*
X92400000Y-83200000D01*
X107781635Y-85835600D02*
X107781635Y-85080335D01*
%TO.N,Net-(J3-Pin_13)*%
X96364400Y-85835600D02*
X91600000Y-90600000D01*
X91600000Y-90600000D02*
X90200000Y-90600000D01*
X105553801Y-85835600D02*
X96364400Y-85835600D01*
%TO.N,Net-(J3-Pin_4)*%
X93800000Y-97000000D02*
X91800000Y-95000000D01*
X100250000Y-108750000D02*
X93800000Y-102300000D01*
X93800000Y-102300000D02*
X93800000Y-97000000D01*
X106551323Y-107914400D02*
X106551323Y-108594378D01*
X106395701Y-108750000D02*
X100250000Y-108750000D01*
X91800000Y-95000000D02*
X88600000Y-95000000D01*
X106551323Y-108594378D02*
X106395701Y-108750000D01*
X88600000Y-95000000D02*
X87200000Y-93600000D01*
%TO.N,Net-(J3-Pin_8)*%
X104602600Y-80200000D02*
X88600000Y-80200000D01*
X88600000Y-80200000D02*
X87200000Y-81600000D01*
X109516201Y-85113601D02*
X104602600Y-80200000D01*
X109516201Y-85835600D02*
X109516201Y-85113601D01*
%TO.N,Net-(J3-Pin_3)*%
X107538367Y-107914400D02*
X107538367Y-108741534D01*
X88600000Y-98000000D02*
X87200000Y-96600000D01*
X92600000Y-100000000D02*
X90600000Y-98000000D01*
X99352000Y-109552000D02*
X92600000Y-102800000D01*
X92600000Y-102800000D02*
X92600000Y-100000000D01*
X106727901Y-109552000D02*
X99352000Y-109552000D01*
X107538367Y-108741534D02*
X106727901Y-109552000D01*
X90600000Y-98000000D02*
X88600000Y-98000000D01*
%TO.N,Net-(J3-Pin_5)*%
X106000000Y-85000000D02*
X95800000Y-85000000D01*
X91800000Y-89000000D02*
X88800000Y-89000000D01*
X88800000Y-89000000D02*
X87200000Y-90600000D01*
X106301069Y-85301069D02*
X106000000Y-85000000D01*
X106301069Y-85835600D02*
X106301069Y-85301069D01*
X95800000Y-85000000D02*
X91800000Y-89000000D01*
%TO.N,Net-(J3-Pin_6)*%
X88800000Y-86000000D02*
X87200000Y-87600000D01*
X91000000Y-86000000D02*
X88800000Y-86000000D01*
X93200000Y-83800000D02*
X91000000Y-86000000D01*
X107288113Y-85835600D02*
X107288113Y-85153913D01*
X107288113Y-85153913D02*
X105934200Y-83800000D01*
X105934200Y-83800000D02*
X93200000Y-83800000D01*
%TO.N,Net-(J3-Pin_16)*%
X105035500Y-81200000D02*
X90600000Y-81200000D01*
X108768679Y-84933179D02*
X105035500Y-81200000D01*
X90600000Y-81200000D02*
X90200000Y-81600000D01*
X108768679Y-85835600D02*
X108768679Y-84933179D01*
%TO.N,Net-(J3-Pin_12)*%
X94400000Y-95800000D02*
X92200000Y-93600000D01*
X92200000Y-93600000D02*
X90200000Y-93600000D01*
X94400000Y-102150000D02*
X94400000Y-95800000D01*
X105803801Y-107914400D02*
X100164400Y-107914400D01*
X100164400Y-107914400D02*
X94400000Y-102150000D01*
%TO.N,Net-(J3-Pin_10)*%
X108031889Y-108815112D02*
X106847001Y-110000000D01*
X98750000Y-109950000D02*
X92000000Y-103200000D01*
X92000000Y-100600000D02*
X91000000Y-99600000D01*
X98750000Y-110000000D02*
X98750000Y-109950000D01*
X108031889Y-107914400D02*
X108031889Y-108815112D01*
X92000000Y-103200000D02*
X92000000Y-100600000D01*
X106847001Y-110000000D02*
X98750000Y-110000000D01*
X91000000Y-99600000D02*
X90200000Y-99600000D01*
%TO.N,Net-(J3-Pin_1)*%
X109766201Y-108782100D02*
X107298301Y-111250000D01*
X95750000Y-111250000D02*
X87200000Y-102700000D01*
X107298301Y-111250000D02*
X95750000Y-111250000D01*
X109766201Y-107914400D02*
X109766201Y-108782100D01*
X87200000Y-102700000D02*
X87200000Y-102600000D01*
%TO.N,Net-(J3-Pin_7)*%
X108275157Y-85006757D02*
X105868400Y-82600000D01*
X88800000Y-83000000D02*
X87200000Y-84600000D01*
X105868400Y-82600000D02*
X92000000Y-82600000D01*
X92000000Y-82600000D02*
X91600000Y-83000000D01*
X108275157Y-85835600D02*
X108275157Y-85006757D01*
X91600000Y-83000000D02*
X88800000Y-83000000D01*
%TO.N,Net-(J3-Pin_14)*%
X106794591Y-85835600D02*
X106794591Y-85227491D01*
X90600000Y-87600000D02*
X90200000Y-87600000D01*
X105967100Y-84400000D02*
X93800000Y-84400000D01*
X93800000Y-84400000D02*
X90600000Y-87600000D01*
X106794591Y-85227491D02*
X105967100Y-84400000D01*
%TO.N,Net-(J3-Pin_2)*%
X90600000Y-101000000D02*
X88600000Y-101000000D01*
X91600000Y-103800000D02*
X91600000Y-102000000D01*
X108525411Y-108888690D02*
X107013101Y-110401000D01*
X91600000Y-102000000D02*
X90600000Y-101000000D01*
X97901000Y-110401000D02*
X97901000Y-110101000D01*
X88600000Y-101000000D02*
X87200000Y-99600000D01*
X107013101Y-110401000D02*
X97901000Y-110401000D01*
X97901000Y-110101000D02*
X91600000Y-103800000D01*
X108525411Y-107914400D02*
X108525411Y-108888690D01*
%TO.N,Net-(J3-Pin_9)*%
X109018933Y-107914400D02*
X109018933Y-108962268D01*
X97052000Y-110802000D02*
X90200000Y-103950000D01*
X107179201Y-110802000D02*
X97052000Y-110802000D01*
X90200000Y-103950000D02*
X90200000Y-102600000D01*
X109018933Y-108962268D02*
X107179201Y-110802000D01*
%TO.N,Net-(J3-Pin_11)*%
X93200000Y-102450000D02*
X93200000Y-99200000D01*
X106561801Y-109151000D02*
X99901000Y-109151000D01*
X107044845Y-108667956D02*
X106561801Y-109151000D01*
X99901000Y-109151000D02*
X93200000Y-102450000D01*
X93200000Y-99200000D02*
X90600000Y-96600000D01*
X90600000Y-96600000D02*
X90200000Y-96600000D01*
X107044845Y-107914400D02*
X107044845Y-108667956D01*
%TO.N,Net-(J4-Pin_13)*%
X96914400Y-115085600D02*
X105268800Y-115085600D01*
X90120000Y-119850000D02*
X92150000Y-119850000D01*
X92150000Y-119850000D02*
X96914400Y-115085600D01*
%TO.N,Net-(J4-Pin_10)*%
X107067100Y-139750000D02*
X97950000Y-139750000D01*
X97950000Y-139750000D02*
X92000000Y-133800000D01*
X92000000Y-133800000D02*
X92000000Y-130730000D01*
X108265688Y-137500000D02*
X108265688Y-138551412D01*
X92000000Y-130730000D02*
X90120000Y-128850000D01*
X108265688Y-138551412D02*
X107067100Y-139750000D01*
%TO.N,Net-(J4-Pin_12)*%
X106037600Y-137500000D02*
X100000000Y-137500000D01*
X92650000Y-122850000D02*
X90120000Y-122850000D01*
X94600000Y-124800000D02*
X92650000Y-122850000D01*
X94600000Y-132100000D02*
X94600000Y-124800000D01*
X100000000Y-137500000D02*
X94600000Y-132100000D01*
%TO.N,Net-(J4-Pin_14)*%
X90120000Y-116850000D02*
X91550000Y-116850000D01*
X106509590Y-114405622D02*
X106509590Y-115085600D01*
X91550000Y-116850000D02*
X94551000Y-113849000D01*
X105952968Y-113849000D02*
X106509590Y-114405622D01*
X94551000Y-113849000D02*
X105952968Y-113849000D01*
%TO.N,Net-(J4-Pin_6)*%
X107003112Y-115085600D02*
X107003112Y-114332044D01*
X107003112Y-114332044D02*
X106119068Y-113448000D01*
X91600000Y-115400000D02*
X88570000Y-115400000D01*
X88570000Y-115400000D02*
X87120000Y-116850000D01*
X106119068Y-113448000D02*
X93552000Y-113448000D01*
X93552000Y-113448000D02*
X91600000Y-115400000D01*
%TO.N,Net-(J4-Pin_9)*%
X107450000Y-140800000D02*
X97400000Y-140800000D01*
X90120000Y-133520000D02*
X90120000Y-131850000D01*
X97400000Y-140800000D02*
X90120000Y-133520000D01*
X109252732Y-138997268D02*
X107450000Y-140800000D01*
X109252732Y-137500000D02*
X109252732Y-138997268D01*
%TO.N,Net-(J4-Pin_11)*%
X106666100Y-138901000D02*
X99401000Y-138901000D01*
X107278644Y-138288456D02*
X106666100Y-138901000D01*
X93250000Y-132750000D02*
X93250000Y-127450000D01*
X93250000Y-127450000D02*
X91650000Y-125850000D01*
X99401000Y-138901000D02*
X93250000Y-132750000D01*
X107278644Y-137500000D02*
X107278644Y-138288456D01*
X91650000Y-125850000D02*
X90120000Y-125850000D01*
%TO.N,Net-(J4-Pin_16)*%
X94045000Y-112245000D02*
X92650000Y-110850000D01*
X92650000Y-110850000D02*
X90120000Y-110850000D01*
X108483678Y-114111310D02*
X106617368Y-112245000D01*
X108483678Y-115085600D02*
X108483678Y-114111310D01*
X106617368Y-112245000D02*
X94045000Y-112245000D01*
%TO.N,Net-(J4-Pin_8)*%
X106783468Y-111844000D02*
X94844000Y-111844000D01*
X94844000Y-111844000D02*
X91600000Y-108600000D01*
X109231200Y-115085600D02*
X109231200Y-114291732D01*
X91600000Y-108600000D02*
X89370000Y-108600000D01*
X109231200Y-114291732D02*
X106783468Y-111844000D01*
X89370000Y-108600000D02*
X87120000Y-110850000D01*
%TO.N,Net-(J4-Pin_2)*%
X91400000Y-130800000D02*
X90800000Y-130200000D01*
X91400000Y-134000000D02*
X91400000Y-130800000D01*
X97600000Y-140200000D02*
X91400000Y-134000000D01*
X90800000Y-130200000D02*
X88470000Y-130200000D01*
X108759210Y-138740790D02*
X107300000Y-140200000D01*
X108759210Y-137500000D02*
X108759210Y-138740790D01*
X107300000Y-140200000D02*
X97600000Y-140200000D01*
X88470000Y-130200000D02*
X87120000Y-128850000D01*
%TO.N,Net-(J4-Pin_5)*%
X88570000Y-118400000D02*
X87120000Y-119850000D01*
X105750000Y-114250000D02*
X95750000Y-114250000D01*
X95750000Y-114250000D02*
X91600000Y-118400000D01*
X91600000Y-118400000D02*
X88570000Y-118400000D01*
X106016068Y-115085600D02*
X106016068Y-114516068D01*
X106016068Y-114516068D02*
X105750000Y-114250000D01*
%TO.N,Net-(J4-Pin_3)*%
X106948000Y-139302000D02*
X98702000Y-139302000D01*
X107772166Y-137500000D02*
X107772166Y-138477834D01*
X92600000Y-128000000D02*
X92000000Y-127400000D01*
X107772166Y-138477834D02*
X106948000Y-139302000D01*
X88670000Y-127400000D02*
X87120000Y-125850000D01*
X92000000Y-127400000D02*
X88670000Y-127400000D01*
X92600000Y-133200000D02*
X92600000Y-128000000D01*
X98702000Y-139302000D02*
X92600000Y-133200000D01*
%TO.N,Net-(J4-Pin_4)*%
X100000000Y-138500000D02*
X94000000Y-132500000D01*
X92200000Y-124200000D02*
X88470000Y-124200000D01*
X106785122Y-137500000D02*
X106785122Y-138214878D01*
X94000000Y-126000000D02*
X92200000Y-124200000D01*
X88470000Y-124200000D02*
X87120000Y-122850000D01*
X106500000Y-138500000D02*
X100000000Y-138500000D01*
X106785122Y-138214878D02*
X106500000Y-138500000D01*
X94000000Y-132500000D02*
X94000000Y-126000000D01*
%TO.N,Net-(J4-Pin_7)*%
X107990156Y-114184888D02*
X106451268Y-112646000D01*
X93354000Y-112646000D02*
X93108000Y-112400000D01*
X107990156Y-115085600D02*
X107990156Y-114184888D01*
X93108000Y-112400000D02*
X88570000Y-112400000D01*
X106451268Y-112646000D02*
X93354000Y-112646000D01*
X88570000Y-112400000D02*
X87120000Y-113850000D01*
%TO.N,Net-(J4-Pin_1)*%
X110000000Y-137500000D02*
X110000000Y-139000000D01*
X110000000Y-139000000D02*
X107600000Y-141400000D01*
X91000000Y-135400000D02*
X89800000Y-135400000D01*
X87120000Y-132720000D02*
X87120000Y-131850000D01*
X107600000Y-141400000D02*
X97000000Y-141400000D01*
X97000000Y-141400000D02*
X91000000Y-135400000D01*
X89800000Y-135400000D02*
X87120000Y-132720000D01*
%TO.N,Net-(J4-Pin_15)*%
X92953000Y-113047000D02*
X92150000Y-113850000D01*
X92150000Y-113850000D02*
X90120000Y-113850000D01*
X106285168Y-113047000D02*
X92953000Y-113047000D01*
X107496634Y-115085600D02*
X107496634Y-114258466D01*
X107496634Y-114258466D02*
X106285168Y-113047000D01*
%TO.N,Net-(U3-ADDR)*%
X127000000Y-91500000D02*
X128500000Y-91500000D01*
X129025000Y-100500001D02*
X128499999Y-100500001D01*
X127750000Y-92250000D02*
X128500000Y-91500000D01*
X128499999Y-100500001D02*
X128250000Y-100750000D01*
X127750000Y-95500000D02*
X127750000Y-92250000D01*
X125750000Y-91500000D02*
X127000000Y-91500000D01*
%TO.N,Net-(RN1-R5.2)*%
X99535001Y-94500000D02*
X99285001Y-94250000D01*
X107781635Y-89996634D02*
X107781635Y-87664400D01*
X108435001Y-91950000D02*
X108435001Y-90650000D01*
X108435001Y-91950000D02*
X108435001Y-93100000D01*
X108435001Y-90650000D02*
X107781635Y-89996634D01*
X107035001Y-94500000D02*
X99535001Y-94500000D01*
X97299723Y-94245288D02*
X97285001Y-94230566D01*
X97979701Y-94245288D02*
X97299723Y-94245288D01*
X108435001Y-93100000D02*
X107035001Y-94500000D01*
X97979701Y-94250000D02*
X97979701Y-94245288D01*
X99285001Y-94250000D02*
X97979701Y-94250000D01*
%TO.N,Net-(RN1-R7.2)*%
X110975001Y-92974999D02*
X108450000Y-95500000D01*
X108450000Y-95500000D02*
X98785001Y-95500000D01*
X110975001Y-91950000D02*
X110975001Y-92974999D01*
X110975001Y-90690000D02*
X108768679Y-88483678D01*
X108768679Y-88483678D02*
X108768679Y-87664400D01*
X110975001Y-91950000D02*
X110975001Y-90690000D01*
X98502611Y-95217610D02*
X97285001Y-95217610D01*
X98785001Y-95500000D02*
X98502611Y-95217610D01*
%TO.N,Net-(RN1-R6.2)*%
X109705001Y-91950000D02*
X109705001Y-92974999D01*
X109705001Y-91950000D02*
X109705001Y-90670000D01*
X107680000Y-95000000D02*
X99285001Y-95000000D01*
X99009089Y-94724088D02*
X97285001Y-94724088D01*
X99285001Y-95000000D02*
X99009089Y-94724088D01*
X109705001Y-92974999D02*
X107680000Y-95000000D01*
X108275157Y-89240156D02*
X108275157Y-87664400D01*
X109705001Y-90670000D02*
X108275157Y-89240156D01*
%TO.N,Net-(RN1-R8.2)*%
X98035001Y-96000000D02*
X97999879Y-95964878D01*
X112245001Y-91950000D02*
X112245001Y-92974999D01*
X112245001Y-90393200D02*
X109516201Y-87664400D01*
X97999879Y-95964878D02*
X97285001Y-95964878D01*
X112245001Y-91950000D02*
X112245001Y-90393200D01*
X112245001Y-92974999D02*
X109220000Y-96000000D01*
X109220000Y-96000000D02*
X98035001Y-96000000D01*
%TO.N,Net-(RN1-R4.2)*%
X107288113Y-91826888D02*
X107288113Y-87664400D01*
X107165001Y-91950000D02*
X107288113Y-91826888D01*
X99522045Y-93737044D02*
X97285001Y-93737044D01*
X107165001Y-92974999D02*
X106140000Y-94000000D01*
X106140000Y-94000000D02*
X99785001Y-94000000D01*
X107165001Y-91950000D02*
X107165001Y-92974999D01*
X99785001Y-94000000D02*
X99522045Y-93737044D01*
%TO.N,Net-(RN1-R3.2)*%
X105895001Y-90390000D02*
X106794591Y-89490410D01*
X105035001Y-93500000D02*
X100285001Y-93500000D01*
X105895001Y-92640000D02*
X105035001Y-93500000D01*
X100028523Y-93243522D02*
X97285001Y-93243522D01*
X106794591Y-89490410D02*
X106794591Y-87664400D01*
X105895001Y-91950000D02*
X105895001Y-92640000D01*
X105895001Y-91950000D02*
X105895001Y-90390000D01*
X100285001Y-93500000D02*
X100028523Y-93243522D01*
%TO.N,Net-(RN1-R2.2)*%
X97285001Y-92750000D02*
X98285001Y-92750000D01*
X106301069Y-88983932D02*
X106301069Y-87664400D01*
X99285001Y-91750000D02*
X101535001Y-89500000D01*
X101535001Y-89500000D02*
X102285001Y-89500000D01*
X105035001Y-89500000D02*
X105250000Y-89500000D01*
X105517501Y-89767501D02*
X105785001Y-89500000D01*
X98285001Y-92750000D02*
X99285001Y-91750000D01*
X104625001Y-91950000D02*
X104625001Y-90660000D01*
X105785001Y-89500000D02*
X106301069Y-88983932D01*
X105250000Y-89500000D02*
X105517501Y-89767501D01*
X104625001Y-90660000D02*
X105517501Y-89767501D01*
%TO.N,Net-(RN1-R1.2)*%
X103355001Y-89863200D02*
X104626601Y-88591600D01*
X101142500Y-88642500D02*
X101193401Y-88591600D01*
X105553801Y-87664400D02*
X102120600Y-87664400D01*
X97782523Y-92002478D02*
X101142500Y-88642500D01*
X103355001Y-91950000D02*
X103355001Y-89863200D01*
X104626601Y-88591600D02*
X105553801Y-87664400D01*
X102120600Y-87664400D02*
X101142500Y-88642500D01*
X97285001Y-92002478D02*
X97782523Y-92002478D01*
%TO.N,Net-(RN2-R4.2)*%
X108031889Y-103253112D02*
X108435001Y-102850000D01*
X98797957Y-99487044D02*
X97285001Y-99487044D01*
X108031889Y-106085600D02*
X108031889Y-103253112D01*
X108435001Y-100225001D02*
X106710001Y-98500000D01*
X106710001Y-98500000D02*
X99785001Y-98500000D01*
X99785001Y-98500000D02*
X98797957Y-99487044D01*
X108435001Y-101250000D02*
X108435001Y-100225001D01*
X108435001Y-102850000D02*
X108435001Y-101250000D01*
%TO.N,Net-(RN2-R2.2)*%
X110975001Y-101250000D02*
X110975001Y-100225001D01*
X110975001Y-102310000D02*
X110975001Y-101250000D01*
X98160001Y-98500000D02*
X97285001Y-98500000D01*
X108250000Y-97500000D02*
X99160001Y-97500000D01*
X109018933Y-104266068D02*
X110975001Y-102310000D01*
X110975001Y-100225001D02*
X108250000Y-97500000D01*
X109018933Y-106085600D02*
X109018933Y-104266068D01*
X99160001Y-97500000D02*
X98160001Y-98500000D01*
%TO.N,Net-(RN2-R8.2)*%
X105803801Y-106085600D02*
X101655723Y-106085600D01*
X105126601Y-105408400D02*
X103355001Y-103636800D01*
X105803801Y-106085600D02*
X105126601Y-105408400D01*
X101655723Y-106085600D02*
X97285001Y-101714878D01*
X103355001Y-103636800D02*
X103355001Y-101250000D01*
%TO.N,Net-(RN2-R6.2)*%
X105895001Y-101250000D02*
X105895001Y-100225001D01*
X99310913Y-100474088D02*
X97285001Y-100474088D01*
X107044845Y-106085600D02*
X107044845Y-103759844D01*
X105170000Y-99500000D02*
X100285001Y-99500000D01*
X100285001Y-99500000D02*
X99310913Y-100474088D01*
X105895001Y-102610000D02*
X105895001Y-101250000D01*
X105895001Y-100225001D02*
X105170000Y-99500000D01*
X107044845Y-103759844D02*
X105895001Y-102610000D01*
%TO.N,Net-(RN2-R1.2)*%
X112245001Y-102290000D02*
X112245001Y-101250000D01*
X112245001Y-101250000D02*
X112245001Y-100225001D01*
X98037479Y-97000000D02*
X97285001Y-97752478D01*
X112245001Y-100225001D02*
X109020000Y-97000000D01*
X109766201Y-106085600D02*
X109766201Y-104768800D01*
X109766201Y-104768800D02*
X112245001Y-102290000D01*
X109020000Y-97000000D02*
X98037479Y-97000000D01*
%TO.N,Net-(RN2-R7.2)*%
X104625001Y-101250000D02*
X104625001Y-103090000D01*
X105285001Y-104464999D02*
X105642500Y-104107500D01*
X104625001Y-103090000D02*
X105642500Y-104107500D01*
X105285001Y-104500000D02*
X105285001Y-104464999D01*
X97285001Y-100967610D02*
X98252611Y-100967610D01*
X106551323Y-105016322D02*
X106551323Y-106085600D01*
X106035001Y-104500000D02*
X106551323Y-105016322D01*
X98252611Y-100967610D02*
X101785001Y-104500000D01*
X101785001Y-104500000D02*
X103035001Y-104500000D01*
X105642500Y-104107500D02*
X106035001Y-104500000D01*
%TO.N,Net-(RN2-R5.2)*%
X107538367Y-106085600D02*
X107538367Y-103253366D01*
X107165001Y-100225001D02*
X105940000Y-99000000D01*
X99054435Y-99980566D02*
X97285001Y-99980566D01*
X107165001Y-101250000D02*
X107165001Y-100225001D01*
X107538367Y-103253366D02*
X107165001Y-102880000D01*
X107165001Y-102880000D02*
X107165001Y-101250000D01*
X100035001Y-99000000D02*
X99054435Y-99980566D01*
X105940000Y-99000000D02*
X100035001Y-99000000D01*
%TO.N,Net-(RN2-R3.2)*%
X98575029Y-98993522D02*
X97285001Y-98993522D01*
X99568551Y-98000000D02*
X98575029Y-98993522D01*
X109705001Y-101250000D02*
X109705001Y-100170000D01*
X108525411Y-106085600D02*
X108525411Y-103759590D01*
X109705001Y-100170000D02*
X107535001Y-98000000D01*
X109705001Y-102580000D02*
X109705001Y-101250000D01*
X107535001Y-98000000D02*
X99568551Y-98000000D01*
X108525411Y-103759590D02*
X109705001Y-102580000D01*
%TO.N,Net-(RN3-R6.2)*%
X107394999Y-125000000D02*
X100000000Y-125000000D01*
X109920000Y-122474999D02*
X107394999Y-125000000D01*
X107990156Y-116914400D02*
X107990156Y-118240156D01*
X109920000Y-120170000D02*
X109920000Y-122474999D01*
X107990156Y-118240156D02*
X109920000Y-120170000D01*
X100000000Y-125000000D02*
X99224088Y-124224088D01*
X99224088Y-124224088D02*
X97500000Y-124224088D01*
%TO.N,Net-(RN3-R5.2)*%
X98194700Y-123745288D02*
X98194700Y-123750000D01*
X97514722Y-123745288D02*
X98194700Y-123745288D01*
X107496634Y-118996634D02*
X107496634Y-116914400D01*
X99500000Y-123750000D02*
X100150000Y-124400000D01*
X100150000Y-124400000D02*
X106850000Y-124400000D01*
X97500000Y-123730566D02*
X97514722Y-123745288D01*
X98194700Y-123750000D02*
X99500000Y-123750000D01*
X108650000Y-122600000D02*
X108650000Y-120150000D01*
X106850000Y-124400000D02*
X108650000Y-122600000D01*
X108650000Y-120150000D02*
X107496634Y-118996634D01*
%TO.N,Net-(RN3-R4.2)*%
X107003112Y-119253112D02*
X107360000Y-119610000D01*
X100300000Y-123800000D02*
X99737044Y-123237044D01*
X107380000Y-122474999D02*
X106054999Y-123800000D01*
X107380000Y-121450000D02*
X107380000Y-122474999D01*
X107503112Y-121326888D02*
X107380000Y-121450000D01*
X107360000Y-119610000D02*
X107360000Y-121700000D01*
X107003112Y-116914400D02*
X107003112Y-119253112D01*
X99737044Y-123237044D02*
X97500000Y-123237044D01*
X106054999Y-123800000D02*
X100300000Y-123800000D01*
%TO.N,Net-(RN3-R1.2)*%
X104841600Y-118091600D02*
X105268800Y-117664400D01*
X97997522Y-121502478D02*
X97500000Y-121502478D01*
X105268800Y-116914400D02*
X102585600Y-116914400D01*
X102585600Y-116914400D02*
X97997522Y-121502478D01*
X103570000Y-119363200D02*
X104841600Y-118091600D01*
X105268800Y-117664400D02*
X105268800Y-116914400D01*
X103570000Y-121450000D02*
X103570000Y-119363200D01*
%TO.N,Net-(RN3-R3.2)*%
X106509590Y-119600410D02*
X106110000Y-120000000D01*
X106509590Y-116914400D02*
X106509590Y-119600410D01*
X105000000Y-123250000D02*
X100750000Y-123250000D01*
X106110000Y-122140000D02*
X105000000Y-123250000D01*
X106110000Y-120000000D02*
X106110000Y-122140000D01*
X100750000Y-123250000D02*
X100243522Y-122743522D01*
X100243522Y-122743522D02*
X97500000Y-122743522D01*
%TO.N,Net-(RN3-R2.2)*%
X105625000Y-119375000D02*
X104840000Y-120160000D01*
X105250000Y-119000000D02*
X105625000Y-119375000D01*
X97500000Y-122250000D02*
X98500000Y-122250000D01*
X98500000Y-122250000D02*
X99500000Y-121250000D01*
X106016068Y-118983932D02*
X105625000Y-119375000D01*
X104840000Y-120160000D02*
X104840000Y-121450000D01*
X99500000Y-121250000D02*
X101750000Y-119000000D01*
X106001600Y-116928868D02*
X106016068Y-116914400D01*
X106016068Y-116914400D02*
X106016068Y-118983932D01*
X101750000Y-119000000D02*
X102500000Y-119000000D01*
%TO.N,Net-(RN3-R8.2)*%
X108934999Y-126000000D02*
X98750000Y-126000000D01*
X109481200Y-116914400D02*
X112460000Y-119893200D01*
X109231200Y-116914400D02*
X109481200Y-116914400D01*
X98750000Y-126000000D02*
X98214878Y-125464878D01*
X112460000Y-122474999D02*
X108934999Y-126000000D01*
X112460000Y-119893200D02*
X112460000Y-122474999D01*
X98214878Y-125464878D02*
X97500000Y-125464878D01*
%TO.N,Net-(RN3-R7.2)*%
X111190000Y-120190000D02*
X108483678Y-117483678D01*
X97500000Y-124717610D02*
X98717610Y-124717610D01*
X111190000Y-122474999D02*
X111190000Y-120190000D01*
X99600000Y-125600000D02*
X108064999Y-125600000D01*
X108064999Y-125600000D02*
X111190000Y-122474999D01*
X98717610Y-124717610D02*
X99600000Y-125600000D01*
X108483678Y-117483678D02*
X108483678Y-116914400D01*
%TO.N,Net-(RN4-R5.2)*%
X99269434Y-129480566D02*
X97500000Y-129480566D01*
X107753366Y-135585600D02*
X107753366Y-132753366D01*
X100250000Y-128500000D02*
X99269434Y-129480566D01*
X107380000Y-130750000D02*
X107380000Y-129725001D01*
X107380000Y-132380000D02*
X107380000Y-130750000D01*
X107753366Y-132753366D02*
X107380000Y-132380000D01*
X107380000Y-129725001D02*
X106154999Y-128500000D01*
X106154999Y-128500000D02*
X100250000Y-128500000D01*
%TO.N,Net-(RN4-R1.2)*%
X98252478Y-126500000D02*
X97500000Y-127252478D01*
X109234999Y-126500000D02*
X98252478Y-126500000D01*
X112460000Y-130750000D02*
X112460000Y-129725001D01*
X109981200Y-134268800D02*
X112460000Y-131790000D01*
X109981200Y-135585600D02*
X109981200Y-134268800D01*
X112460000Y-131790000D02*
X112460000Y-130750000D01*
X112460000Y-129725001D02*
X109234999Y-126500000D01*
%TO.N,Net-(RN4-R8.2)*%
X101956322Y-135671200D02*
X97500000Y-131214878D01*
X106037600Y-135671200D02*
X101956322Y-135671200D01*
X103570000Y-133136800D02*
X103570000Y-130750000D01*
X106018800Y-135585600D02*
X105341600Y-134908400D01*
X105341600Y-134908400D02*
X103570000Y-133136800D01*
%TO.N,Net-(RN4-R4.2)*%
X108650000Y-130750000D02*
X108650000Y-129725001D01*
X99012956Y-128987044D02*
X97500000Y-128987044D01*
X108246888Y-132753112D02*
X108650000Y-132350000D01*
X108246888Y-135585600D02*
X108246888Y-132753112D01*
X108650000Y-132350000D02*
X108650000Y-130750000D01*
X108650000Y-129725001D02*
X106925000Y-128000000D01*
X100000000Y-128000000D02*
X99012956Y-128987044D01*
X106925000Y-128000000D02*
X100000000Y-128000000D01*
%TO.N,Net-(RN4-R6.2)*%
X107259844Y-135585600D02*
X107259844Y-133259844D01*
X106110000Y-129725001D02*
X105384999Y-129000000D01*
X107259844Y-133259844D02*
X106110000Y-132110000D01*
X100500000Y-129000000D02*
X99525912Y-129974088D01*
X106110000Y-130750000D02*
X106110000Y-129725001D01*
X105384999Y-129000000D02*
X100500000Y-129000000D01*
X99525912Y-129974088D02*
X97500000Y-129974088D01*
X106110000Y-132110000D02*
X106110000Y-130750000D01*
%TO.N,Net-(RN4-R7.2)*%
X98467610Y-130467610D02*
X102000000Y-134000000D01*
X97500000Y-130467610D02*
X98467610Y-130467610D01*
X105875000Y-133625000D02*
X106250000Y-134000000D01*
X105500000Y-134000000D02*
X105875000Y-133625000D01*
X104840000Y-132590000D02*
X105875000Y-133625000D01*
X104840000Y-130750000D02*
X104840000Y-132590000D01*
X102000000Y-134000000D02*
X103250000Y-134000000D01*
X106766322Y-134516322D02*
X106766322Y-135585600D01*
X106250000Y-134000000D02*
X106766322Y-134516322D01*
%TO.N,Net-(RN4-R3.2)*%
X98790028Y-128493522D02*
X97500000Y-128493522D01*
X109920000Y-129670000D02*
X107750000Y-127500000D01*
X107750000Y-127500000D02*
X99783550Y-127500000D01*
X99783550Y-127500000D02*
X98790028Y-128493522D01*
X109920000Y-132080000D02*
X109920000Y-130750000D01*
X108740410Y-135585600D02*
X108740410Y-133259590D01*
X109920000Y-130750000D02*
X109920000Y-129670000D01*
X108740410Y-133259590D02*
X109920000Y-132080000D01*
%TO.N,Net-(RN4-R2.2)*%
X109233932Y-133766068D02*
X111190000Y-131810000D01*
X108464999Y-127000000D02*
X99375000Y-127000000D01*
X111190000Y-131810000D02*
X111190000Y-130750000D01*
X109233932Y-135585600D02*
X109233932Y-133766068D01*
X111190000Y-129725001D02*
X108464999Y-127000000D01*
X98375000Y-128000000D02*
X97500000Y-128000000D01*
X111190000Y-130750000D02*
X111190000Y-129725001D01*
X99375000Y-127000000D02*
X98375000Y-128000000D01*
%TO.N,/voltage2_buffered*%
X117135000Y-112115000D02*
X117135000Y-114225000D01*
X120750000Y-105500000D02*
X120750000Y-104750000D01*
X117135000Y-114225000D02*
X115865000Y-114225000D01*
X120750000Y-104750000D02*
X122250000Y-103250000D01*
X118250000Y-111000000D02*
X117135000Y-112115000D01*
%TO.N,/voltage2*%
X102280000Y-131000000D02*
X102280000Y-129970000D01*
X113225000Y-114225000D02*
X112000000Y-113000000D01*
X114595000Y-114225000D02*
X113225000Y-114225000D01*
X113250000Y-119000000D02*
X114595000Y-117655000D01*
X113250000Y-119750000D02*
X113250000Y-119000000D01*
X102280000Y-129970000D02*
X102500000Y-129750000D01*
X114595000Y-117655000D02*
X114595000Y-114225000D01*
%TO.N,Net-(U3-AINP_AIN0)*%
X124250000Y-100500000D02*
X124250000Y-98037500D01*
X125250000Y-99500000D02*
X124250000Y-100500000D01*
X124250000Y-98037500D02*
X124287500Y-98000000D01*
X129025000Y-99500000D02*
X125250000Y-99500000D01*
%TO.N,Net-(U3-AINM_AIN1)*%
X127500000Y-100000000D02*
X129025000Y-100000000D01*
X124250000Y-105962500D02*
X124250000Y-103250000D01*
X124250000Y-103250000D02*
X127500000Y-100000000D01*
%TO.N,/voltage1_buffered*%
X120000000Y-102750000D02*
X122250000Y-100500000D01*
X118405000Y-109275000D02*
X117135000Y-109275000D01*
X117135000Y-109275000D02*
X117135000Y-107115000D01*
X120000000Y-104250000D02*
X120000000Y-102750000D01*
X117135000Y-107115000D02*
X117250000Y-107000000D01*
%TO.N,/voltage1*%
X112000000Y-103750000D02*
X115865000Y-107615000D01*
X115364999Y-110750000D02*
X115865000Y-110249999D01*
X115865000Y-107615000D02*
X115865000Y-109275000D01*
X102500000Y-103500000D02*
X102085001Y-103085001D01*
X112000000Y-110460000D02*
X113210000Y-110460000D01*
X102085001Y-103085001D02*
X102085001Y-101250000D01*
X115865000Y-110249999D02*
X115865000Y-109275000D01*
X113210000Y-110460000D02*
X113500000Y-110750000D01*
X113500000Y-110750000D02*
X115364999Y-110750000D01*
%TD*%
M02*
