%TF.GenerationSoftware,KiCad,Pcbnew,9.0.5*%
%TF.CreationDate,2025-12-12T19:00:14-08:00*%
%TF.ProjectId,FCP_CVM,4643505f-4356-44d2-9e6b-696361645f70,rev?*%
%TF.SameCoordinates,Original*%
%TF.FileFunction,Copper,L2,Bot*%
%TF.FilePolarity,Positive*%
%FSLAX46Y46*%
G04 Gerber Fmt 4.6, Leading zero omitted, Abs format (unit mm)*
G04 Created by KiCad (PCBNEW 9.0.5) date 2025-12-12 19:00:14*
%MOMM*%
%LPD*%
G01*
G04 APERTURE LIST*
%TA.AperFunction,ComponentPad*%
%ADD10R,1.605000X1.605000*%
%TD*%
%TA.AperFunction,ComponentPad*%
%ADD11C,1.605000*%
%TD*%
%TA.AperFunction,ComponentPad*%
%ADD12R,1.520000X1.520000*%
%TD*%
%TA.AperFunction,ComponentPad*%
%ADD13C,1.520000*%
%TD*%
%TA.AperFunction,ComponentPad*%
%ADD14R,1.700000X1.700000*%
%TD*%
%TA.AperFunction,ComponentPad*%
%ADD15C,1.700000*%
%TD*%
%TA.AperFunction,ViaPad*%
%ADD16C,0.600000*%
%TD*%
%TA.AperFunction,Conductor*%
%ADD17C,0.200000*%
%TD*%
G04 APERTURE END LIST*
D10*
%TO.P,J4,1,Pin_1*%
%TO.N,Net-(J4-Pin_1)*%
X87120000Y-131850000D03*
D11*
%TO.P,J4,2,Pin_2*%
%TO.N,Net-(J4-Pin_2)*%
X87120000Y-128850000D03*
%TO.P,J4,3,Pin_3*%
%TO.N,Net-(J4-Pin_3)*%
X87120000Y-125850000D03*
%TO.P,J4,4,Pin_4*%
%TO.N,Net-(J4-Pin_4)*%
X87120000Y-122850000D03*
%TO.P,J4,5,Pin_5*%
%TO.N,Net-(J4-Pin_5)*%
X87120000Y-119850000D03*
%TO.P,J4,6,Pin_6*%
%TO.N,Net-(J4-Pin_6)*%
X87120000Y-116850000D03*
%TO.P,J4,7,Pin_7*%
%TO.N,Net-(J4-Pin_7)*%
X87120000Y-113850000D03*
%TO.P,J4,8,Pin_8*%
%TO.N,Net-(J4-Pin_8)*%
X87120000Y-110850000D03*
%TO.P,J4,9,Pin_9*%
%TO.N,Net-(J4-Pin_9)*%
X90120000Y-131850000D03*
%TO.P,J4,10,Pin_10*%
%TO.N,Net-(J4-Pin_10)*%
X90120000Y-128850000D03*
%TO.P,J4,11,Pin_11*%
%TO.N,Net-(J4-Pin_11)*%
X90120000Y-125850000D03*
%TO.P,J4,12,Pin_12*%
%TO.N,Net-(J4-Pin_12)*%
X90120000Y-122850000D03*
%TO.P,J4,13,Pin_13*%
%TO.N,Net-(J4-Pin_13)*%
X90120000Y-119850000D03*
%TO.P,J4,14,Pin_14*%
%TO.N,Net-(J4-Pin_14)*%
X90120000Y-116850000D03*
%TO.P,J4,15,Pin_15*%
%TO.N,Net-(J4-Pin_15)*%
X90120000Y-113850000D03*
%TO.P,J4,16,Pin_16*%
%TO.N,Net-(J4-Pin_16)*%
X90120000Y-110850000D03*
%TD*%
D12*
%TO.P,J1,1,Pin_1*%
%TO.N,+5V*%
X130700000Y-112500000D03*
D13*
%TO.P,J1,2,Pin_2*%
%TO.N,GND*%
X130700000Y-115500000D03*
%TO.P,J1,3,Pin_3*%
%TO.N,/SCL*%
X127700000Y-112500000D03*
%TO.P,J1,4,Pin_4*%
%TO.N,/SDA*%
X127700000Y-115500000D03*
%TD*%
D14*
%TO.P,J7,1,Pin_1*%
%TO.N,/voltage1*%
X112000000Y-110460000D03*
D15*
%TO.P,J7,2,Pin_2*%
%TO.N,/voltage2*%
X112000000Y-113000000D03*
%TD*%
D10*
%TO.P,J3,1,Pin_1*%
%TO.N,Net-(J3-Pin_1)*%
X87200000Y-102600000D03*
D11*
%TO.P,J3,2,Pin_2*%
%TO.N,Net-(J3-Pin_2)*%
X87200000Y-99600000D03*
%TO.P,J3,3,Pin_3*%
%TO.N,Net-(J3-Pin_3)*%
X87200000Y-96600000D03*
%TO.P,J3,4,Pin_4*%
%TO.N,Net-(J3-Pin_4)*%
X87200000Y-93600000D03*
%TO.P,J3,5,Pin_5*%
%TO.N,Net-(J3-Pin_5)*%
X87200000Y-90600000D03*
%TO.P,J3,6,Pin_6*%
%TO.N,Net-(J3-Pin_6)*%
X87200000Y-87600000D03*
%TO.P,J3,7,Pin_7*%
%TO.N,Net-(J3-Pin_7)*%
X87200000Y-84600000D03*
%TO.P,J3,8,Pin_8*%
%TO.N,Net-(J3-Pin_8)*%
X87200000Y-81600000D03*
%TO.P,J3,9,Pin_9*%
%TO.N,Net-(J3-Pin_9)*%
X90200000Y-102600000D03*
%TO.P,J3,10,Pin_10*%
%TO.N,Net-(J3-Pin_10)*%
X90200000Y-99600000D03*
%TO.P,J3,11,Pin_11*%
%TO.N,Net-(J3-Pin_11)*%
X90200000Y-96600000D03*
%TO.P,J3,12,Pin_12*%
%TO.N,Net-(J3-Pin_12)*%
X90200000Y-93600000D03*
%TO.P,J3,13,Pin_13*%
%TO.N,Net-(J3-Pin_13)*%
X90200000Y-90600000D03*
%TO.P,J3,14,Pin_14*%
%TO.N,Net-(J3-Pin_14)*%
X90200000Y-87600000D03*
%TO.P,J3,15,Pin_15*%
%TO.N,Net-(J3-Pin_15)*%
X90200000Y-84600000D03*
%TO.P,J3,16,Pin_16*%
%TO.N,Net-(J3-Pin_16)*%
X90200000Y-81600000D03*
%TD*%
D14*
%TO.P,J5,1,Pin_1*%
%TO.N,/MUX_select_0*%
X116440000Y-136500000D03*
D15*
%TO.P,J5,2,Pin_2*%
%TO.N,/MUX_select_3*%
X118980000Y-136500000D03*
%TO.P,J5,3,Pin_3*%
%TO.N,/MUX_select_1*%
X121520000Y-136500000D03*
%TO.P,J5,4,Pin_4*%
%TO.N,/MUX_select_2*%
X124060000Y-136500000D03*
%TD*%
D14*
%TO.P,J6,1,Pin_1*%
%TO.N,GND*%
X129980000Y-132000000D03*
D15*
%TO.P,J6,2,Pin_2*%
%TO.N,/SDA*%
X132520000Y-132000000D03*
%TO.P,J6,3,Pin_3*%
%TO.N,/SCL*%
X135060000Y-132000000D03*
%TO.P,J6,4,Pin_4*%
%TO.N,+5V*%
X137600000Y-132000000D03*
%TD*%
D12*
%TO.P,J2,1,Pin_1*%
%TO.N,/MUX_select_2*%
X130710000Y-123000000D03*
D13*
%TO.P,J2,2,Pin_2*%
%TO.N,/MUX_select_0*%
X130710000Y-126000000D03*
%TO.P,J2,3,Pin_3*%
%TO.N,/MUX_select_3*%
X127710000Y-123000000D03*
%TO.P,J2,4,Pin_4*%
%TO.N,/MUX_select_1*%
X127710000Y-126000000D03*
%TD*%
D16*
%TO.N,GND*%
X113500000Y-93750000D03*
X122000000Y-96500000D03*
X95535001Y-90750000D03*
X137500000Y-94000000D03*
X130500000Y-93250000D03*
X129750000Y-98000000D03*
X124250000Y-109500000D03*
X116750000Y-103000000D03*
X114250000Y-107750000D03*
X96500000Y-102750000D03*
X117250000Y-131000000D03*
X96500000Y-132000000D03*
X96500000Y-120750000D03*
X113750000Y-123750000D03*
%TO.N,+5V*%
X115250000Y-118250000D03*
X118600000Y-112800000D03*
X122200000Y-114000000D03*
X102250000Y-90500000D03*
X102750000Y-120000000D03*
X113250000Y-90000000D03*
X125400000Y-114000000D03*
%TO.N,/MUX_select_1*%
X120750000Y-124500000D03*
X127400000Y-128800000D03*
X122250000Y-123000000D03*
%TO.N,/MUX_select_3*%
X118500000Y-117000000D03*
X121605000Y-116895000D03*
X126400000Y-128800000D03*
%TO.N,/MUX_select_2*%
X118500000Y-116000000D03*
X120750000Y-116000000D03*
X128600000Y-128800000D03*
%TO.N,Net-(U3-ADDR)*%
X128250000Y-100750000D03*
X127750000Y-95500000D03*
%TO.N,Net-(RN1-R2.2)*%
X102285001Y-89500000D03*
X105035001Y-89500000D03*
%TO.N,Net-(RN2-R7.2)*%
X103035001Y-104500000D03*
X105285001Y-104500000D03*
%TO.N,Net-(RN3-R2.2)*%
X102500000Y-119000000D03*
X105250000Y-119000000D03*
%TO.N,Net-(RN4-R7.2)*%
X103250000Y-134000000D03*
X105500000Y-134000000D03*
%TO.N,/voltage2_buffered*%
X120750000Y-105500000D03*
X118250000Y-111000000D03*
%TO.N,/voltage2*%
X113250000Y-119750000D03*
X102500000Y-129750000D03*
%TO.N,/voltage1_buffered*%
X120000000Y-104250000D03*
X117250000Y-107000000D03*
%TO.N,/voltage1*%
X112000000Y-103750000D03*
X102500000Y-103500000D03*
%TD*%
D17*
%TO.N,+5V*%
X119800000Y-114000000D02*
X118600000Y-112800000D01*
X112250000Y-118250000D02*
X110500000Y-120000000D01*
X129200000Y-114000000D02*
X127200000Y-114000000D01*
X122200000Y-114000000D02*
X119800000Y-114000000D01*
X102250000Y-90500000D02*
X112750000Y-90500000D01*
X130700000Y-112500000D02*
X129200000Y-114000000D01*
X110500000Y-120000000D02*
X102750000Y-120000000D01*
X127200000Y-114000000D02*
X125400000Y-114000000D01*
X112750000Y-90500000D02*
X113250000Y-90000000D01*
X115250000Y-118250000D02*
X112250000Y-118250000D01*
%TO.N,/MUX_select_1*%
X127710000Y-128490000D02*
X127710000Y-126000000D01*
X120750000Y-124500000D02*
X122250000Y-123000000D01*
X127400000Y-128800000D02*
X127710000Y-128490000D01*
%TO.N,/MUX_select_3*%
X121500000Y-117000000D02*
X121605000Y-116895000D01*
X126400000Y-124310000D02*
X127710000Y-123000000D01*
X118500000Y-117000000D02*
X121500000Y-117000000D01*
X126400000Y-128800000D02*
X126400000Y-124310000D01*
%TO.N,/MUX_select_2*%
X118500000Y-116000000D02*
X120750000Y-116000000D01*
X129200000Y-124510000D02*
X130710000Y-123000000D01*
X129200000Y-127200000D02*
X129200000Y-124510000D01*
X128600000Y-128800000D02*
X128600000Y-127800000D01*
X128600000Y-127800000D02*
X129200000Y-127200000D01*
%TO.N,Net-(U3-ADDR)*%
X128250000Y-100750000D02*
X128250000Y-96000000D01*
X128250000Y-96000000D02*
X127750000Y-95500000D01*
%TO.N,Net-(RN1-R2.2)*%
X102285001Y-89500000D02*
X105035001Y-89500000D01*
%TO.N,Net-(RN2-R7.2)*%
X103035001Y-104500000D02*
X105285001Y-104500000D01*
%TO.N,Net-(RN3-R2.2)*%
X102500000Y-119000000D02*
X105250000Y-119000000D01*
%TO.N,Net-(RN4-R7.2)*%
X103250000Y-134000000D02*
X105500000Y-134000000D01*
%TO.N,/voltage2_buffered*%
X119500000Y-109750000D02*
X119500000Y-107250000D01*
X118250000Y-111000000D02*
X119500000Y-109750000D01*
X119500000Y-106750000D02*
X120750000Y-105500000D01*
X119500000Y-107250000D02*
X119500000Y-106750000D01*
%TO.N,/voltage2*%
X102500000Y-129750000D02*
X112500000Y-119750000D01*
X112500000Y-119750000D02*
X113250000Y-119750000D01*
%TO.N,/voltage1_buffered*%
X120000000Y-104250000D02*
X117250000Y-107000000D01*
%TO.N,/voltage1*%
X112000000Y-103750000D02*
X102750000Y-103750000D01*
X102750000Y-103750000D02*
X102500000Y-103500000D01*
%TD*%
%TA.AperFunction,Conductor*%
%TO.N,GND*%
G36*
X132148223Y-78520185D02*
G01*
X132193978Y-78572989D01*
X132205184Y-78624500D01*
X132205184Y-85500000D01*
X139375500Y-85500000D01*
X139442539Y-85519685D01*
X139488294Y-85572489D01*
X139499500Y-85624000D01*
X139499500Y-136376000D01*
X139479815Y-136443039D01*
X139427011Y-136488794D01*
X139375500Y-136500000D01*
X132250000Y-136500000D01*
X132250000Y-143375500D01*
X132230315Y-143442539D01*
X132177511Y-143488294D01*
X132126000Y-143499500D01*
X85874000Y-143499500D01*
X85806961Y-143479815D01*
X85761206Y-143427011D01*
X85750000Y-143375500D01*
X85750000Y-136500000D01*
X78624500Y-136500000D01*
X78557461Y-136480315D01*
X78511706Y-136427511D01*
X78500500Y-136376000D01*
X78500500Y-135630247D01*
X115389500Y-135630247D01*
X115389500Y-137369752D01*
X115401131Y-137428229D01*
X115401132Y-137428230D01*
X115445447Y-137494552D01*
X115511769Y-137538867D01*
X115511770Y-137538868D01*
X115570247Y-137550499D01*
X115570250Y-137550500D01*
X115570252Y-137550500D01*
X117309750Y-137550500D01*
X117309751Y-137550499D01*
X117324568Y-137547552D01*
X117368229Y-137538868D01*
X117368229Y-137538867D01*
X117368231Y-137538867D01*
X117434552Y-137494552D01*
X117478867Y-137428231D01*
X117478867Y-137428229D01*
X117478868Y-137428229D01*
X117490499Y-137369752D01*
X117490500Y-137369750D01*
X117490500Y-136396530D01*
X117929500Y-136396530D01*
X117929500Y-136603469D01*
X117969868Y-136806412D01*
X117969870Y-136806420D01*
X118049058Y-136997596D01*
X118164024Y-137169657D01*
X118310342Y-137315975D01*
X118310345Y-137315977D01*
X118482402Y-137430941D01*
X118673580Y-137510130D01*
X118818052Y-137538867D01*
X118876530Y-137550499D01*
X118876534Y-137550500D01*
X118876535Y-137550500D01*
X119083466Y-137550500D01*
X119083467Y-137550499D01*
X119286420Y-137510130D01*
X119477598Y-137430941D01*
X119649655Y-137315977D01*
X119795977Y-137169655D01*
X119910941Y-136997598D01*
X119990130Y-136806420D01*
X120030500Y-136603465D01*
X120030500Y-136396535D01*
X120030499Y-136396530D01*
X120469500Y-136396530D01*
X120469500Y-136603469D01*
X120509868Y-136806412D01*
X120509870Y-136806420D01*
X120589058Y-136997596D01*
X120704024Y-137169657D01*
X120850342Y-137315975D01*
X120850345Y-137315977D01*
X121022402Y-137430941D01*
X121213580Y-137510130D01*
X121358052Y-137538867D01*
X121416530Y-137550499D01*
X121416534Y-137550500D01*
X121416535Y-137550500D01*
X121623466Y-137550500D01*
X121623467Y-137550499D01*
X121826420Y-137510130D01*
X122017598Y-137430941D01*
X122189655Y-137315977D01*
X122335977Y-137169655D01*
X122450941Y-136997598D01*
X122530130Y-136806420D01*
X122570500Y-136603465D01*
X122570500Y-136396535D01*
X122570499Y-136396530D01*
X123009500Y-136396530D01*
X123009500Y-136603469D01*
X123049868Y-136806412D01*
X123049870Y-136806420D01*
X123129058Y-136997596D01*
X123244024Y-137169657D01*
X123390342Y-137315975D01*
X123390345Y-137315977D01*
X123562402Y-137430941D01*
X123753580Y-137510130D01*
X123898052Y-137538867D01*
X123956530Y-137550499D01*
X123956534Y-137550500D01*
X123956535Y-137550500D01*
X124163466Y-137550500D01*
X124163467Y-137550499D01*
X124366420Y-137510130D01*
X124557598Y-137430941D01*
X124729655Y-137315977D01*
X124875977Y-137169655D01*
X124990941Y-136997598D01*
X125070130Y-136806420D01*
X125110500Y-136603465D01*
X125110500Y-136396535D01*
X125070130Y-136193580D01*
X124990941Y-136002402D01*
X124875977Y-135830345D01*
X124875975Y-135830342D01*
X124729657Y-135684024D01*
X124561655Y-135571770D01*
X124557598Y-135569059D01*
X124366420Y-135489870D01*
X124366412Y-135489868D01*
X124163469Y-135449500D01*
X124163465Y-135449500D01*
X123956535Y-135449500D01*
X123956530Y-135449500D01*
X123753587Y-135489868D01*
X123753579Y-135489870D01*
X123562403Y-135569058D01*
X123390342Y-135684024D01*
X123244024Y-135830342D01*
X123129058Y-136002403D01*
X123049870Y-136193579D01*
X123049868Y-136193587D01*
X123009500Y-136396530D01*
X122570499Y-136396530D01*
X122530130Y-136193580D01*
X122450941Y-136002402D01*
X122335977Y-135830345D01*
X122335975Y-135830342D01*
X122189657Y-135684024D01*
X122021655Y-135571770D01*
X122017598Y-135569059D01*
X121826420Y-135489870D01*
X121826412Y-135489868D01*
X121623469Y-135449500D01*
X121623465Y-135449500D01*
X121416535Y-135449500D01*
X121416530Y-135449500D01*
X121213587Y-135489868D01*
X121213579Y-135489870D01*
X121022403Y-135569058D01*
X120850342Y-135684024D01*
X120704024Y-135830342D01*
X120589058Y-136002403D01*
X120509870Y-136193579D01*
X120509868Y-136193587D01*
X120469500Y-136396530D01*
X120030499Y-136396530D01*
X119990130Y-136193580D01*
X119910941Y-136002402D01*
X119795977Y-135830345D01*
X119795975Y-135830342D01*
X119649657Y-135684024D01*
X119481655Y-135571770D01*
X119477598Y-135569059D01*
X119286420Y-135489870D01*
X119286412Y-135489868D01*
X119083469Y-135449500D01*
X119083465Y-135449500D01*
X118876535Y-135449500D01*
X118876530Y-135449500D01*
X118673587Y-135489868D01*
X118673579Y-135489870D01*
X118482403Y-135569058D01*
X118310342Y-135684024D01*
X118164024Y-135830342D01*
X118049058Y-136002403D01*
X117969870Y-136193579D01*
X117969868Y-136193587D01*
X117929500Y-136396530D01*
X117490500Y-136396530D01*
X117490500Y-135630249D01*
X117490499Y-135630247D01*
X117478868Y-135571770D01*
X117478867Y-135571769D01*
X117434552Y-135505447D01*
X117368230Y-135461132D01*
X117368229Y-135461131D01*
X117309752Y-135449500D01*
X117309748Y-135449500D01*
X115570252Y-135449500D01*
X115570247Y-135449500D01*
X115511770Y-135461131D01*
X115511769Y-135461132D01*
X115445447Y-135505447D01*
X115401132Y-135571769D01*
X115401131Y-135571770D01*
X115389500Y-135630247D01*
X78500500Y-135630247D01*
X78500500Y-133934108D01*
X102749500Y-133934108D01*
X102749500Y-134065891D01*
X102783608Y-134193187D01*
X102816554Y-134250250D01*
X102849500Y-134307314D01*
X102942686Y-134400500D01*
X103056814Y-134466392D01*
X103184108Y-134500500D01*
X103184110Y-134500500D01*
X103315890Y-134500500D01*
X103315892Y-134500500D01*
X103443186Y-134466392D01*
X103557314Y-134400500D01*
X103620995Y-134336819D01*
X103682318Y-134303334D01*
X103708676Y-134300500D01*
X105041324Y-134300500D01*
X105108363Y-134320185D01*
X105129005Y-134336819D01*
X105192686Y-134400500D01*
X105306814Y-134466392D01*
X105434108Y-134500500D01*
X105434110Y-134500500D01*
X105565890Y-134500500D01*
X105565892Y-134500500D01*
X105693186Y-134466392D01*
X105807314Y-134400500D01*
X105900500Y-134307314D01*
X105966392Y-134193186D01*
X106000500Y-134065892D01*
X106000500Y-133934108D01*
X105966392Y-133806814D01*
X105900500Y-133692686D01*
X105807314Y-133599500D01*
X105750250Y-133566554D01*
X105693187Y-133533608D01*
X105629539Y-133516554D01*
X105565892Y-133499500D01*
X105434108Y-133499500D01*
X105306812Y-133533608D01*
X105192686Y-133599500D01*
X105192683Y-133599502D01*
X105129005Y-133663181D01*
X105067682Y-133696666D01*
X105041324Y-133699500D01*
X103708676Y-133699500D01*
X103641637Y-133679815D01*
X103620995Y-133663181D01*
X103557316Y-133599502D01*
X103557314Y-133599500D01*
X103500250Y-133566554D01*
X103443187Y-133533608D01*
X103379539Y-133516554D01*
X103315892Y-133499500D01*
X103184108Y-133499500D01*
X103056812Y-133533608D01*
X102942686Y-133599500D01*
X102942683Y-133599502D01*
X102849502Y-133692683D01*
X102849500Y-133692686D01*
X102783608Y-133806812D01*
X102749500Y-133934108D01*
X78500500Y-133934108D01*
X78500500Y-129583634D01*
X81024500Y-129583634D01*
X81024500Y-129816365D01*
X81024501Y-129816382D01*
X81054878Y-130047122D01*
X81115120Y-130271947D01*
X81204180Y-130486960D01*
X81204188Y-130486976D01*
X81320553Y-130688524D01*
X81320564Y-130688540D01*
X81462242Y-130873179D01*
X81462248Y-130873186D01*
X81626813Y-131037751D01*
X81626820Y-131037757D01*
X81710768Y-131102172D01*
X81811468Y-131179442D01*
X81819404Y-131184024D01*
X82013023Y-131295811D01*
X82013039Y-131295819D01*
X82228052Y-131384879D01*
X82228054Y-131384879D01*
X82228060Y-131384882D01*
X82452874Y-131445121D01*
X82683628Y-131475500D01*
X82683635Y-131475500D01*
X82916365Y-131475500D01*
X82916372Y-131475500D01*
X83147126Y-131445121D01*
X83371940Y-131384882D01*
X83429953Y-131360852D01*
X83586960Y-131295819D01*
X83586963Y-131295817D01*
X83586969Y-131295815D01*
X83788532Y-131179442D01*
X83973181Y-131037756D01*
X83983190Y-131027747D01*
X86117000Y-131027747D01*
X86117000Y-132672252D01*
X86128631Y-132730729D01*
X86128632Y-132730730D01*
X86172947Y-132797052D01*
X86239269Y-132841367D01*
X86239270Y-132841368D01*
X86297747Y-132852999D01*
X86297750Y-132853000D01*
X86297752Y-132853000D01*
X87942250Y-132853000D01*
X87942251Y-132852999D01*
X87957068Y-132850052D01*
X88000729Y-132841368D01*
X88000729Y-132841367D01*
X88000731Y-132841367D01*
X88067052Y-132797052D01*
X88111367Y-132730731D01*
X88111367Y-132730729D01*
X88111368Y-132730729D01*
X88122999Y-132672252D01*
X88123000Y-132672250D01*
X88123000Y-131948789D01*
X89116999Y-131948789D01*
X89155543Y-132142558D01*
X89155546Y-132142568D01*
X89231149Y-132325092D01*
X89231156Y-132325105D01*
X89340918Y-132489374D01*
X89340921Y-132489378D01*
X89480621Y-132629078D01*
X89480625Y-132629081D01*
X89644894Y-132738843D01*
X89644907Y-132738850D01*
X89785421Y-132797052D01*
X89827436Y-132814455D01*
X89827440Y-132814455D01*
X89827441Y-132814456D01*
X90021210Y-132853000D01*
X90021213Y-132853000D01*
X90218789Y-132853000D01*
X90404912Y-132815977D01*
X90412564Y-132814455D01*
X90595099Y-132738847D01*
X90759375Y-132629081D01*
X90899081Y-132489375D01*
X91008847Y-132325099D01*
X91084455Y-132142564D01*
X91123000Y-131948787D01*
X91123000Y-131751213D01*
X91123000Y-131751210D01*
X91084456Y-131557441D01*
X91084455Y-131557440D01*
X91084455Y-131557436D01*
X91074779Y-131534075D01*
X91008850Y-131374907D01*
X91008843Y-131374894D01*
X90899081Y-131210625D01*
X90899078Y-131210621D01*
X90790612Y-131102155D01*
X128630000Y-131102155D01*
X128630000Y-131750000D01*
X129546988Y-131750000D01*
X129514075Y-131807007D01*
X129480000Y-131934174D01*
X129480000Y-132065826D01*
X129514075Y-132192993D01*
X129546988Y-132250000D01*
X128630000Y-132250000D01*
X128630000Y-132897844D01*
X128636401Y-132957372D01*
X128636403Y-132957379D01*
X128686645Y-133092086D01*
X128686649Y-133092093D01*
X128772809Y-133207187D01*
X128772812Y-133207190D01*
X128887906Y-133293350D01*
X128887913Y-133293354D01*
X129022620Y-133343596D01*
X129022627Y-133343598D01*
X129082155Y-133349999D01*
X129082172Y-133350000D01*
X129730000Y-133350000D01*
X129730000Y-132433012D01*
X129787007Y-132465925D01*
X129914174Y-132500000D01*
X130045826Y-132500000D01*
X130172993Y-132465925D01*
X130230000Y-132433012D01*
X130230000Y-133350000D01*
X130877828Y-133350000D01*
X130877844Y-133349999D01*
X130937372Y-133343598D01*
X130937379Y-133343596D01*
X131072086Y-133293354D01*
X131072093Y-133293350D01*
X131187187Y-133207190D01*
X131187190Y-133207187D01*
X131273350Y-133092093D01*
X131273354Y-133092086D01*
X131323596Y-132957379D01*
X131323598Y-132957372D01*
X131329999Y-132897844D01*
X131330000Y-132897827D01*
X131330000Y-132495564D01*
X131349685Y-132428525D01*
X131402489Y-132382770D01*
X131471647Y-132372826D01*
X131535203Y-132401851D01*
X131568561Y-132448112D01*
X131575939Y-132465925D01*
X131589059Y-132497598D01*
X131665701Y-132612302D01*
X131704024Y-132669657D01*
X131850342Y-132815975D01*
X131850345Y-132815977D01*
X132022402Y-132930941D01*
X132213580Y-133010130D01*
X132416530Y-133050499D01*
X132416534Y-133050500D01*
X132416535Y-133050500D01*
X132623466Y-133050500D01*
X132623467Y-133050499D01*
X132826420Y-133010130D01*
X133017598Y-132930941D01*
X133189655Y-132815977D01*
X133335977Y-132669655D01*
X133450941Y-132497598D01*
X133530130Y-132306420D01*
X133570500Y-132103465D01*
X133570500Y-131896535D01*
X133570499Y-131896530D01*
X134009500Y-131896530D01*
X134009500Y-132103469D01*
X134049868Y-132306412D01*
X134049870Y-132306420D01*
X134129058Y-132497596D01*
X134244024Y-132669657D01*
X134390342Y-132815975D01*
X134390345Y-132815977D01*
X134562402Y-132930941D01*
X134753580Y-133010130D01*
X134956530Y-133050499D01*
X134956534Y-133050500D01*
X134956535Y-133050500D01*
X135163466Y-133050500D01*
X135163467Y-133050499D01*
X135366420Y-133010130D01*
X135557598Y-132930941D01*
X135729655Y-132815977D01*
X135875977Y-132669655D01*
X135990941Y-132497598D01*
X136070130Y-132306420D01*
X136110500Y-132103465D01*
X136110500Y-131896535D01*
X136110499Y-131896530D01*
X136549500Y-131896530D01*
X136549500Y-132103469D01*
X136589868Y-132306412D01*
X136589870Y-132306420D01*
X136669058Y-132497596D01*
X136784024Y-132669657D01*
X136930342Y-132815975D01*
X136930345Y-132815977D01*
X137102402Y-132930941D01*
X137293580Y-133010130D01*
X137496530Y-133050499D01*
X137496534Y-133050500D01*
X137496535Y-133050500D01*
X137703466Y-133050500D01*
X137703467Y-133050499D01*
X137906420Y-133010130D01*
X138097598Y-132930941D01*
X138269655Y-132815977D01*
X138415977Y-132669655D01*
X138530941Y-132497598D01*
X138610130Y-132306420D01*
X138650500Y-132103465D01*
X138650500Y-131896535D01*
X138610130Y-131693580D01*
X138530941Y-131502402D01*
X138415977Y-131330345D01*
X138415975Y-131330342D01*
X138269657Y-131184024D01*
X138147130Y-131102155D01*
X138097598Y-131069059D01*
X138022026Y-131037756D01*
X137906420Y-130989870D01*
X137906412Y-130989868D01*
X137703469Y-130949500D01*
X137703465Y-130949500D01*
X137496535Y-130949500D01*
X137496530Y-130949500D01*
X137293587Y-130989868D01*
X137293579Y-130989870D01*
X137102403Y-131069058D01*
X136930342Y-131184024D01*
X136784024Y-131330342D01*
X136669058Y-131502403D01*
X136589870Y-131693579D01*
X136589868Y-131693587D01*
X136549500Y-131896530D01*
X136110499Y-131896530D01*
X136070130Y-131693580D01*
X135990941Y-131502402D01*
X135875977Y-131330345D01*
X135875975Y-131330342D01*
X135729657Y-131184024D01*
X135607130Y-131102155D01*
X135557598Y-131069059D01*
X135482026Y-131037756D01*
X135366420Y-130989870D01*
X135366412Y-130989868D01*
X135163469Y-130949500D01*
X135163465Y-130949500D01*
X134956535Y-130949500D01*
X134956530Y-130949500D01*
X134753587Y-130989868D01*
X134753579Y-130989870D01*
X134562403Y-131069058D01*
X134390342Y-131184024D01*
X134244024Y-131330342D01*
X134129058Y-131502403D01*
X134049870Y-131693579D01*
X134049868Y-131693587D01*
X134009500Y-131896530D01*
X133570499Y-131896530D01*
X133530130Y-131693580D01*
X133450941Y-131502402D01*
X133335977Y-131330345D01*
X133335975Y-131330342D01*
X133189657Y-131184024D01*
X133067130Y-131102155D01*
X133017598Y-131069059D01*
X132942026Y-131037756D01*
X132826420Y-130989870D01*
X132826412Y-130989868D01*
X132623469Y-130949500D01*
X132623465Y-130949500D01*
X132416535Y-130949500D01*
X132416530Y-130949500D01*
X132213587Y-130989868D01*
X132213579Y-130989870D01*
X132022403Y-131069058D01*
X131850342Y-131184024D01*
X131704024Y-131330342D01*
X131589058Y-131502403D01*
X131568561Y-131551888D01*
X131524720Y-131606291D01*
X131458426Y-131628356D01*
X131390726Y-131611077D01*
X131343116Y-131559939D01*
X131330000Y-131504435D01*
X131330000Y-131102172D01*
X131329999Y-131102155D01*
X131323598Y-131042627D01*
X131323596Y-131042620D01*
X131273354Y-130907913D01*
X131273350Y-130907906D01*
X131187190Y-130792812D01*
X131187187Y-130792809D01*
X131072093Y-130706649D01*
X131072086Y-130706645D01*
X130937379Y-130656403D01*
X130937372Y-130656401D01*
X130877844Y-130650000D01*
X130230000Y-130650000D01*
X130230000Y-131566988D01*
X130172993Y-131534075D01*
X130045826Y-131500000D01*
X129914174Y-131500000D01*
X129787007Y-131534075D01*
X129730000Y-131566988D01*
X129730000Y-130650000D01*
X129082155Y-130650000D01*
X129022627Y-130656401D01*
X129022620Y-130656403D01*
X128887913Y-130706645D01*
X128887906Y-130706649D01*
X128772812Y-130792809D01*
X128772809Y-130792812D01*
X128686649Y-130907906D01*
X128686645Y-130907913D01*
X128636403Y-131042620D01*
X128636401Y-131042627D01*
X128630000Y-131102155D01*
X90790612Y-131102155D01*
X90759378Y-131070921D01*
X90759374Y-131070918D01*
X90595105Y-130961156D01*
X90595092Y-130961149D01*
X90412568Y-130885546D01*
X90412558Y-130885543D01*
X90218789Y-130847000D01*
X90218787Y-130847000D01*
X90021213Y-130847000D01*
X90021211Y-130847000D01*
X89827441Y-130885543D01*
X89827431Y-130885546D01*
X89644907Y-130961149D01*
X89644894Y-130961156D01*
X89480625Y-131070918D01*
X89480621Y-131070921D01*
X89340921Y-131210621D01*
X89340918Y-131210625D01*
X89231156Y-131374894D01*
X89231149Y-131374907D01*
X89155546Y-131557431D01*
X89155543Y-131557441D01*
X89117000Y-131751210D01*
X89117000Y-131751213D01*
X89117000Y-131948787D01*
X89117000Y-131948789D01*
X89116999Y-131948789D01*
X88123000Y-131948789D01*
X88123000Y-131027749D01*
X88122999Y-131027747D01*
X88111368Y-130969270D01*
X88111367Y-130969269D01*
X88067052Y-130902947D01*
X88000730Y-130858632D01*
X88000729Y-130858631D01*
X87942252Y-130847000D01*
X87942248Y-130847000D01*
X86297752Y-130847000D01*
X86297747Y-130847000D01*
X86239270Y-130858631D01*
X86239269Y-130858632D01*
X86172947Y-130902947D01*
X86128632Y-130969269D01*
X86128631Y-130969270D01*
X86117000Y-131027747D01*
X83983190Y-131027747D01*
X84021069Y-130989868D01*
X84076959Y-130933979D01*
X84137751Y-130873186D01*
X84137756Y-130873181D01*
X84279442Y-130688532D01*
X84395815Y-130486969D01*
X84484882Y-130271940D01*
X84545121Y-130047126D01*
X84575500Y-129816372D01*
X84575500Y-129583628D01*
X84545121Y-129352874D01*
X84484882Y-129128060D01*
X84476289Y-129107314D01*
X84410627Y-128948789D01*
X86116999Y-128948789D01*
X86155543Y-129142558D01*
X86155546Y-129142568D01*
X86231149Y-129325092D01*
X86231156Y-129325105D01*
X86340918Y-129489374D01*
X86340921Y-129489378D01*
X86480621Y-129629078D01*
X86480625Y-129629081D01*
X86644894Y-129738843D01*
X86644907Y-129738850D01*
X86827431Y-129814453D01*
X86827436Y-129814455D01*
X86827440Y-129814455D01*
X86827441Y-129814456D01*
X87021210Y-129853000D01*
X87021213Y-129853000D01*
X87218789Y-129853000D01*
X87402876Y-129816382D01*
X87412564Y-129814455D01*
X87595099Y-129738847D01*
X87759375Y-129629081D01*
X87899081Y-129489375D01*
X88008847Y-129325099D01*
X88084455Y-129142564D01*
X88099954Y-129064645D01*
X88123000Y-128948789D01*
X89116999Y-128948789D01*
X89155543Y-129142558D01*
X89155546Y-129142568D01*
X89231149Y-129325092D01*
X89231156Y-129325105D01*
X89340918Y-129489374D01*
X89340921Y-129489378D01*
X89480621Y-129629078D01*
X89480625Y-129629081D01*
X89644894Y-129738843D01*
X89644907Y-129738850D01*
X89827431Y-129814453D01*
X89827436Y-129814455D01*
X89827440Y-129814455D01*
X89827441Y-129814456D01*
X90021210Y-129853000D01*
X90021213Y-129853000D01*
X90218789Y-129853000D01*
X90402876Y-129816382D01*
X90412564Y-129814455D01*
X90595099Y-129738847D01*
X90677021Y-129684108D01*
X101999500Y-129684108D01*
X101999500Y-129815892D01*
X102009443Y-129853000D01*
X102033608Y-129943187D01*
X102066554Y-130000250D01*
X102099500Y-130057314D01*
X102192686Y-130150500D01*
X102306814Y-130216392D01*
X102434108Y-130250500D01*
X102434110Y-130250500D01*
X102565890Y-130250500D01*
X102565892Y-130250500D01*
X102693186Y-130216392D01*
X102807314Y-130150500D01*
X102900500Y-130057314D01*
X102966392Y-129943186D01*
X103000500Y-129815892D01*
X103000500Y-129725832D01*
X103020185Y-129658793D01*
X103036819Y-129638151D01*
X103940862Y-128734108D01*
X125899500Y-128734108D01*
X125899500Y-128865892D01*
X125909750Y-128904147D01*
X125933608Y-128993187D01*
X125966554Y-129050250D01*
X125999500Y-129107314D01*
X126092686Y-129200500D01*
X126206814Y-129266392D01*
X126334108Y-129300500D01*
X126334110Y-129300500D01*
X126465890Y-129300500D01*
X126465892Y-129300500D01*
X126593186Y-129266392D01*
X126707314Y-129200500D01*
X126800500Y-129107314D01*
X126800504Y-129107306D01*
X126801625Y-129105847D01*
X126802892Y-129104921D01*
X126806247Y-129101567D01*
X126806770Y-129102090D01*
X126858053Y-129064645D01*
X126927799Y-129060491D01*
X126988719Y-129094704D01*
X126998375Y-129105847D01*
X126999498Y-129107311D01*
X126999500Y-129107314D01*
X127092686Y-129200500D01*
X127206814Y-129266392D01*
X127334108Y-129300500D01*
X127334110Y-129300500D01*
X127465890Y-129300500D01*
X127465892Y-129300500D01*
X127593186Y-129266392D01*
X127707314Y-129200500D01*
X127800500Y-129107314D01*
X127866392Y-128993186D01*
X127880225Y-128941556D01*
X127916590Y-128881897D01*
X127979436Y-128851368D01*
X128048812Y-128859662D01*
X128102690Y-128904147D01*
X128119773Y-128941555D01*
X128121712Y-128948789D01*
X128133608Y-128993187D01*
X128166554Y-129050250D01*
X128199500Y-129107314D01*
X128292686Y-129200500D01*
X128406814Y-129266392D01*
X128534108Y-129300500D01*
X128534110Y-129300500D01*
X128665890Y-129300500D01*
X128665892Y-129300500D01*
X128793186Y-129266392D01*
X128907314Y-129200500D01*
X129000500Y-129107314D01*
X129066392Y-128993186D01*
X129100500Y-128865892D01*
X129100500Y-128734108D01*
X129066392Y-128606814D01*
X129000500Y-128492686D01*
X128936818Y-128429004D01*
X128903334Y-128367680D01*
X128900500Y-128341323D01*
X128900500Y-127975833D01*
X128920185Y-127908794D01*
X128936819Y-127888152D01*
X129140967Y-127684004D01*
X129440460Y-127384511D01*
X129480021Y-127315989D01*
X129500500Y-127239562D01*
X129500500Y-126094603D01*
X129749499Y-126094603D01*
X129786410Y-126280161D01*
X129786413Y-126280171D01*
X129858814Y-126454965D01*
X129858816Y-126454968D01*
X129963927Y-126612278D01*
X129963933Y-126612286D01*
X130097713Y-126746066D01*
X130097721Y-126746072D01*
X130255031Y-126851183D01*
X130255034Y-126851185D01*
X130409498Y-126915165D01*
X130429833Y-126923588D01*
X130429837Y-126923588D01*
X130429838Y-126923589D01*
X130615396Y-126960500D01*
X130615399Y-126960500D01*
X130804603Y-126960500D01*
X130929442Y-126935667D01*
X130990167Y-126923588D01*
X131164967Y-126851184D01*
X131322283Y-126746069D01*
X131456069Y-126612283D01*
X131561184Y-126454967D01*
X131633588Y-126280167D01*
X131660959Y-126142568D01*
X131670500Y-126094603D01*
X131670500Y-125905396D01*
X131633589Y-125719838D01*
X131633588Y-125719837D01*
X131633588Y-125719833D01*
X131607425Y-125656670D01*
X131561185Y-125545034D01*
X131561183Y-125545031D01*
X131456072Y-125387721D01*
X131456066Y-125387713D01*
X131322286Y-125253933D01*
X131322278Y-125253927D01*
X131164968Y-125148816D01*
X131164965Y-125148814D01*
X130990171Y-125076413D01*
X130990161Y-125076410D01*
X130804603Y-125039500D01*
X130804601Y-125039500D01*
X130615399Y-125039500D01*
X130615397Y-125039500D01*
X130429838Y-125076410D01*
X130429828Y-125076413D01*
X130255034Y-125148814D01*
X130255031Y-125148816D01*
X130097721Y-125253927D01*
X130097713Y-125253933D01*
X129963933Y-125387713D01*
X129963927Y-125387721D01*
X129858816Y-125545031D01*
X129858814Y-125545034D01*
X129786413Y-125719828D01*
X129786410Y-125719838D01*
X129749500Y-125905396D01*
X129749500Y-125905399D01*
X129749500Y-126094601D01*
X129749500Y-126094603D01*
X129749499Y-126094603D01*
X129500500Y-126094603D01*
X129500500Y-124685833D01*
X129520185Y-124618794D01*
X129536819Y-124598152D01*
X129749713Y-124385258D01*
X133259500Y-124385258D01*
X133259500Y-124614741D01*
X133284446Y-124804215D01*
X133289452Y-124842238D01*
X133331858Y-125000500D01*
X133348842Y-125063887D01*
X133436650Y-125275876D01*
X133436657Y-125275890D01*
X133551392Y-125474617D01*
X133691081Y-125656661D01*
X133691089Y-125656670D01*
X133853330Y-125818911D01*
X133853338Y-125818918D01*
X133853339Y-125818919D01*
X133871171Y-125832602D01*
X134035382Y-125958607D01*
X134035385Y-125958608D01*
X134035388Y-125958611D01*
X134234112Y-126073344D01*
X134234117Y-126073346D01*
X134234123Y-126073349D01*
X134325480Y-126111190D01*
X134446113Y-126161158D01*
X134667762Y-126220548D01*
X134895266Y-126250500D01*
X134895273Y-126250500D01*
X135124727Y-126250500D01*
X135124734Y-126250500D01*
X135352238Y-126220548D01*
X135573887Y-126161158D01*
X135785888Y-126073344D01*
X135984612Y-125958611D01*
X136166661Y-125818919D01*
X136166665Y-125818914D01*
X136166670Y-125818911D01*
X136328911Y-125656670D01*
X136328914Y-125656665D01*
X136328919Y-125656661D01*
X136468611Y-125474612D01*
X136583344Y-125275888D01*
X136671158Y-125063887D01*
X136730548Y-124842238D01*
X136760500Y-124614734D01*
X136760500Y-124385266D01*
X136730548Y-124157762D01*
X136671158Y-123936113D01*
X136589449Y-123738850D01*
X136583349Y-123724123D01*
X136583346Y-123724117D01*
X136583344Y-123724112D01*
X136468611Y-123525388D01*
X136468608Y-123525385D01*
X136468607Y-123525382D01*
X136367764Y-123393962D01*
X136328919Y-123343339D01*
X136328918Y-123343338D01*
X136328911Y-123343330D01*
X136166670Y-123181089D01*
X136166661Y-123181081D01*
X135984617Y-123041392D01*
X135785890Y-122926657D01*
X135785876Y-122926650D01*
X135573887Y-122838842D01*
X135352238Y-122779452D01*
X135314215Y-122774446D01*
X135124741Y-122749500D01*
X135124734Y-122749500D01*
X134895266Y-122749500D01*
X134895258Y-122749500D01*
X134678715Y-122778009D01*
X134667762Y-122779452D01*
X134574076Y-122804554D01*
X134446112Y-122838842D01*
X134234123Y-122926650D01*
X134234109Y-122926657D01*
X134035382Y-123041392D01*
X133853338Y-123181081D01*
X133691081Y-123343338D01*
X133551392Y-123525382D01*
X133436657Y-123724109D01*
X133436650Y-123724123D01*
X133348842Y-123936112D01*
X133341589Y-123963181D01*
X133298100Y-124125489D01*
X133289453Y-124157759D01*
X133289451Y-124157770D01*
X133259500Y-124385258D01*
X129749713Y-124385258D01*
X130138152Y-123996819D01*
X130199475Y-123963334D01*
X130225833Y-123960500D01*
X131489750Y-123960500D01*
X131489751Y-123960499D01*
X131504568Y-123957552D01*
X131548229Y-123948868D01*
X131548229Y-123948867D01*
X131548231Y-123948867D01*
X131614552Y-123904552D01*
X131658867Y-123838231D01*
X131658867Y-123838229D01*
X131658868Y-123838229D01*
X131670499Y-123779752D01*
X131670500Y-123779750D01*
X131670500Y-122220249D01*
X131670499Y-122220247D01*
X131658868Y-122161770D01*
X131658867Y-122161769D01*
X131614552Y-122095447D01*
X131548230Y-122051132D01*
X131548229Y-122051131D01*
X131489752Y-122039500D01*
X131489748Y-122039500D01*
X129930252Y-122039500D01*
X129930247Y-122039500D01*
X129871770Y-122051131D01*
X129871769Y-122051132D01*
X129805447Y-122095447D01*
X129761132Y-122161769D01*
X129761131Y-122161770D01*
X129749500Y-122220247D01*
X129749500Y-123484167D01*
X129729815Y-123551206D01*
X129713181Y-123571848D01*
X128959541Y-124325487D01*
X128959535Y-124325495D01*
X128919982Y-124394004D01*
X128919979Y-124394009D01*
X128899500Y-124470439D01*
X128899500Y-125797667D01*
X128879815Y-125864706D01*
X128827011Y-125910461D01*
X128757853Y-125920405D01*
X128694297Y-125891380D01*
X128656523Y-125832602D01*
X128653883Y-125821859D01*
X128633589Y-125719838D01*
X128633588Y-125719837D01*
X128633588Y-125719833D01*
X128607425Y-125656670D01*
X128561185Y-125545034D01*
X128561183Y-125545031D01*
X128456072Y-125387721D01*
X128456066Y-125387713D01*
X128322286Y-125253933D01*
X128322278Y-125253927D01*
X128164968Y-125148816D01*
X128164965Y-125148814D01*
X127990171Y-125076413D01*
X127990161Y-125076410D01*
X127804603Y-125039500D01*
X127804601Y-125039500D01*
X127615399Y-125039500D01*
X127615397Y-125039500D01*
X127429838Y-125076410D01*
X127429828Y-125076413D01*
X127255034Y-125148814D01*
X127255031Y-125148816D01*
X127097721Y-125253927D01*
X127097713Y-125253933D01*
X126963933Y-125387713D01*
X126963930Y-125387717D01*
X126927602Y-125442086D01*
X126873989Y-125486891D01*
X126804664Y-125495598D01*
X126741637Y-125465443D01*
X126704918Y-125406000D01*
X126700500Y-125373195D01*
X126700500Y-124485832D01*
X126720185Y-124418793D01*
X126736815Y-124398155D01*
X127216780Y-123918189D01*
X127278101Y-123884706D01*
X127347792Y-123889690D01*
X127351848Y-123891285D01*
X127429833Y-123923588D01*
X127429837Y-123923588D01*
X127429838Y-123923589D01*
X127615396Y-123960500D01*
X127615399Y-123960500D01*
X127804603Y-123960500D01*
X127929442Y-123935667D01*
X127990167Y-123923588D01*
X128164967Y-123851184D01*
X128322283Y-123746069D01*
X128456069Y-123612283D01*
X128561184Y-123454967D01*
X128633588Y-123280167D01*
X128660959Y-123142568D01*
X128670500Y-123094603D01*
X128670500Y-122905396D01*
X128633589Y-122719838D01*
X128633588Y-122719837D01*
X128633588Y-122719833D01*
X128633586Y-122719828D01*
X128561185Y-122545034D01*
X128561183Y-122545031D01*
X128456072Y-122387721D01*
X128456066Y-122387713D01*
X128322286Y-122253933D01*
X128322278Y-122253927D01*
X128164968Y-122148816D01*
X128164965Y-122148814D01*
X127990171Y-122076413D01*
X127990161Y-122076410D01*
X127804603Y-122039500D01*
X127804601Y-122039500D01*
X127615399Y-122039500D01*
X127615397Y-122039500D01*
X127429838Y-122076410D01*
X127429828Y-122076413D01*
X127255034Y-122148814D01*
X127255031Y-122148816D01*
X127097721Y-122253927D01*
X127097713Y-122253933D01*
X126963933Y-122387713D01*
X126963927Y-122387721D01*
X126858816Y-122545031D01*
X126858814Y-122545034D01*
X126786413Y-122719828D01*
X126786410Y-122719838D01*
X126749500Y-122905396D01*
X126749500Y-122905399D01*
X126749500Y-123094601D01*
X126749500Y-123094603D01*
X126749499Y-123094603D01*
X126786410Y-123280161D01*
X126786413Y-123280171D01*
X126818687Y-123358087D01*
X126826156Y-123427556D01*
X126794881Y-123490035D01*
X126791807Y-123493220D01*
X126215489Y-124069540D01*
X126159541Y-124125487D01*
X126159535Y-124125495D01*
X126119982Y-124194004D01*
X126119979Y-124194009D01*
X126099500Y-124270439D01*
X126099500Y-128341323D01*
X126079815Y-128408362D01*
X126063182Y-128429004D01*
X125999500Y-128492686D01*
X125933608Y-128606812D01*
X125925171Y-128638300D01*
X125899500Y-128734108D01*
X103940862Y-128734108D01*
X104036670Y-128638300D01*
X108240863Y-124434108D01*
X120249500Y-124434108D01*
X120249500Y-124565891D01*
X120283608Y-124693187D01*
X120316554Y-124750250D01*
X120349500Y-124807314D01*
X120442686Y-124900500D01*
X120556814Y-124966392D01*
X120684108Y-125000500D01*
X120684110Y-125000500D01*
X120815890Y-125000500D01*
X120815892Y-125000500D01*
X120943186Y-124966392D01*
X121057314Y-124900500D01*
X121150500Y-124807314D01*
X121216392Y-124693186D01*
X121250500Y-124565892D01*
X121250500Y-124475832D01*
X121270185Y-124408793D01*
X121286819Y-124388151D01*
X122138151Y-123536819D01*
X122199474Y-123503334D01*
X122225832Y-123500500D01*
X122315890Y-123500500D01*
X122315892Y-123500500D01*
X122443186Y-123466392D01*
X122557314Y-123400500D01*
X122650500Y-123307314D01*
X122716392Y-123193186D01*
X122750500Y-123065892D01*
X122750500Y-122934108D01*
X122716392Y-122806814D01*
X122650500Y-122692686D01*
X122557314Y-122599500D01*
X122484449Y-122557431D01*
X122443187Y-122533608D01*
X122379539Y-122516554D01*
X122315892Y-122499500D01*
X122184108Y-122499500D01*
X122056812Y-122533608D01*
X121942686Y-122599500D01*
X121942683Y-122599502D01*
X121849502Y-122692683D01*
X121849500Y-122692686D01*
X121783608Y-122806812D01*
X121749500Y-122934108D01*
X121749500Y-123024166D01*
X121729815Y-123091205D01*
X121713181Y-123111847D01*
X120861847Y-123963181D01*
X120800524Y-123996666D01*
X120774166Y-123999500D01*
X120684108Y-123999500D01*
X120556812Y-124033608D01*
X120442686Y-124099500D01*
X120442683Y-124099502D01*
X120349502Y-124192683D01*
X120349500Y-124192686D01*
X120283608Y-124306812D01*
X120249500Y-124434108D01*
X108240863Y-124434108D01*
X108336671Y-124338300D01*
X112588152Y-120086819D01*
X112615079Y-120072115D01*
X112640898Y-120055523D01*
X112647098Y-120054631D01*
X112649475Y-120053334D01*
X112675833Y-120050500D01*
X112791324Y-120050500D01*
X112858363Y-120070185D01*
X112879005Y-120086819D01*
X112942686Y-120150500D01*
X113056814Y-120216392D01*
X113184108Y-120250500D01*
X113184110Y-120250500D01*
X113315890Y-120250500D01*
X113315892Y-120250500D01*
X113443186Y-120216392D01*
X113557314Y-120150500D01*
X113650500Y-120057314D01*
X113716392Y-119943186D01*
X113750500Y-119815892D01*
X113750500Y-119684108D01*
X113716392Y-119556814D01*
X113650500Y-119442686D01*
X113557314Y-119349500D01*
X113500250Y-119316554D01*
X113443187Y-119283608D01*
X113379539Y-119266554D01*
X113315892Y-119249500D01*
X113184108Y-119249500D01*
X113056812Y-119283608D01*
X112942686Y-119349500D01*
X112942683Y-119349502D01*
X112879005Y-119413181D01*
X112817682Y-119446666D01*
X112791324Y-119449500D01*
X112460438Y-119449500D01*
X112384010Y-119469978D01*
X112315489Y-119509540D01*
X112315486Y-119509542D01*
X102611847Y-129213181D01*
X102550524Y-129246666D01*
X102524166Y-129249500D01*
X102434108Y-129249500D01*
X102306812Y-129283608D01*
X102192686Y-129349500D01*
X102192683Y-129349502D01*
X102099502Y-129442683D01*
X102099500Y-129442686D01*
X102033608Y-129556812D01*
X102025171Y-129588300D01*
X101999500Y-129684108D01*
X90677021Y-129684108D01*
X90759375Y-129629081D01*
X90759378Y-129629078D01*
X90800157Y-129588300D01*
X90899078Y-129489378D01*
X90899081Y-129489375D01*
X91008847Y-129325099D01*
X91084455Y-129142564D01*
X91099954Y-129064645D01*
X91123000Y-128948789D01*
X91123000Y-128751210D01*
X91084456Y-128557441D01*
X91084455Y-128557440D01*
X91084455Y-128557436D01*
X91070956Y-128524846D01*
X91008850Y-128374907D01*
X91008843Y-128374894D01*
X90899081Y-128210625D01*
X90899078Y-128210621D01*
X90759378Y-128070921D01*
X90759374Y-128070918D01*
X90595105Y-127961156D01*
X90595092Y-127961149D01*
X90412568Y-127885546D01*
X90412558Y-127885543D01*
X90218789Y-127847000D01*
X90218787Y-127847000D01*
X90021213Y-127847000D01*
X90021211Y-127847000D01*
X89827441Y-127885543D01*
X89827431Y-127885546D01*
X89644907Y-127961149D01*
X89644894Y-127961156D01*
X89480625Y-128070918D01*
X89480621Y-128070921D01*
X89340921Y-128210621D01*
X89340918Y-128210625D01*
X89231156Y-128374894D01*
X89231149Y-128374907D01*
X89155546Y-128557431D01*
X89155543Y-128557441D01*
X89117000Y-128751210D01*
X89117000Y-128751213D01*
X89117000Y-128948787D01*
X89117000Y-128948789D01*
X89116999Y-128948789D01*
X88123000Y-128948789D01*
X88123000Y-128751210D01*
X88084456Y-128557441D01*
X88084455Y-128557440D01*
X88084455Y-128557436D01*
X88070956Y-128524846D01*
X88008850Y-128374907D01*
X88008843Y-128374894D01*
X87899081Y-128210625D01*
X87899078Y-128210621D01*
X87759378Y-128070921D01*
X87759374Y-128070918D01*
X87595105Y-127961156D01*
X87595092Y-127961149D01*
X87412568Y-127885546D01*
X87412558Y-127885543D01*
X87218789Y-127847000D01*
X87218787Y-127847000D01*
X87021213Y-127847000D01*
X87021211Y-127847000D01*
X86827441Y-127885543D01*
X86827431Y-127885546D01*
X86644907Y-127961149D01*
X86644894Y-127961156D01*
X86480625Y-128070918D01*
X86480621Y-128070921D01*
X86340921Y-128210621D01*
X86340918Y-128210625D01*
X86231156Y-128374894D01*
X86231149Y-128374907D01*
X86155546Y-128557431D01*
X86155543Y-128557441D01*
X86117000Y-128751210D01*
X86117000Y-128751213D01*
X86117000Y-128948787D01*
X86117000Y-128948789D01*
X86116999Y-128948789D01*
X84410627Y-128948789D01*
X84395819Y-128913039D01*
X84395811Y-128913023D01*
X84334669Y-128807123D01*
X84334668Y-128807122D01*
X84279442Y-128711468D01*
X84161249Y-128557436D01*
X84137757Y-128526820D01*
X84137751Y-128526813D01*
X83973186Y-128362248D01*
X83973179Y-128362242D01*
X83788540Y-128220564D01*
X83788538Y-128220562D01*
X83788532Y-128220558D01*
X83788527Y-128220555D01*
X83788524Y-128220553D01*
X83586976Y-128104188D01*
X83586960Y-128104180D01*
X83371947Y-128015120D01*
X83170540Y-127961153D01*
X83147126Y-127954879D01*
X83147125Y-127954878D01*
X83147122Y-127954878D01*
X82916382Y-127924501D01*
X82916377Y-127924500D01*
X82916372Y-127924500D01*
X82683628Y-127924500D01*
X82683622Y-127924500D01*
X82683617Y-127924501D01*
X82452877Y-127954878D01*
X82228052Y-128015120D01*
X82013039Y-128104180D01*
X82013023Y-128104188D01*
X81811475Y-128220553D01*
X81811459Y-128220564D01*
X81626820Y-128362242D01*
X81626813Y-128362248D01*
X81462248Y-128526813D01*
X81462242Y-128526820D01*
X81320564Y-128711459D01*
X81320553Y-128711475D01*
X81204188Y-128913023D01*
X81204180Y-128913039D01*
X81115120Y-129128052D01*
X81054878Y-129352877D01*
X81024501Y-129583617D01*
X81024500Y-129583634D01*
X78500500Y-129583634D01*
X78500500Y-125948789D01*
X86116999Y-125948789D01*
X86155543Y-126142558D01*
X86155546Y-126142568D01*
X86231149Y-126325092D01*
X86231156Y-126325105D01*
X86340918Y-126489374D01*
X86340921Y-126489378D01*
X86480621Y-126629078D01*
X86480625Y-126629081D01*
X86644894Y-126738843D01*
X86644907Y-126738850D01*
X86827431Y-126814453D01*
X86827436Y-126814455D01*
X86827440Y-126814455D01*
X86827441Y-126814456D01*
X87021210Y-126853000D01*
X87021213Y-126853000D01*
X87218789Y-126853000D01*
X87349154Y-126827068D01*
X87412564Y-126814455D01*
X87577656Y-126746072D01*
X87595092Y-126738850D01*
X87595092Y-126738849D01*
X87595099Y-126738847D01*
X87759375Y-126629081D01*
X87899081Y-126489375D01*
X88008847Y-126325099D01*
X88084455Y-126142564D01*
X88123000Y-125948789D01*
X89116999Y-125948789D01*
X89155543Y-126142558D01*
X89155546Y-126142568D01*
X89231149Y-126325092D01*
X89231156Y-126325105D01*
X89340918Y-126489374D01*
X89340921Y-126489378D01*
X89480621Y-126629078D01*
X89480625Y-126629081D01*
X89644894Y-126738843D01*
X89644907Y-126738850D01*
X89827431Y-126814453D01*
X89827436Y-126814455D01*
X89827440Y-126814455D01*
X89827441Y-126814456D01*
X90021210Y-126853000D01*
X90021213Y-126853000D01*
X90218789Y-126853000D01*
X90349154Y-126827068D01*
X90412564Y-126814455D01*
X90577656Y-126746072D01*
X90595092Y-126738850D01*
X90595092Y-126738849D01*
X90595099Y-126738847D01*
X90759375Y-126629081D01*
X90899081Y-126489375D01*
X91008847Y-126325099D01*
X91084455Y-126142564D01*
X91123000Y-125948787D01*
X91123000Y-125751213D01*
X91123000Y-125751210D01*
X91084456Y-125557441D01*
X91084455Y-125557440D01*
X91084455Y-125557436D01*
X91058841Y-125495598D01*
X91008850Y-125374907D01*
X91008843Y-125374894D01*
X90899081Y-125210625D01*
X90899078Y-125210621D01*
X90759378Y-125070921D01*
X90759374Y-125070918D01*
X90595105Y-124961156D01*
X90595092Y-124961149D01*
X90412568Y-124885546D01*
X90412558Y-124885543D01*
X90218789Y-124847000D01*
X90218787Y-124847000D01*
X90021213Y-124847000D01*
X90021211Y-124847000D01*
X89827441Y-124885543D01*
X89827431Y-124885546D01*
X89644907Y-124961149D01*
X89644894Y-124961156D01*
X89480625Y-125070918D01*
X89480621Y-125070921D01*
X89340921Y-125210621D01*
X89340918Y-125210625D01*
X89231156Y-125374894D01*
X89231149Y-125374907D01*
X89155546Y-125557431D01*
X89155543Y-125557441D01*
X89117000Y-125751210D01*
X89117000Y-125751213D01*
X89117000Y-125948787D01*
X89117000Y-125948789D01*
X89116999Y-125948789D01*
X88123000Y-125948789D01*
X88123000Y-125948787D01*
X88123000Y-125751213D01*
X88123000Y-125751210D01*
X88084456Y-125557441D01*
X88084455Y-125557440D01*
X88084455Y-125557436D01*
X88058841Y-125495598D01*
X88008850Y-125374907D01*
X88008843Y-125374894D01*
X87899081Y-125210625D01*
X87899078Y-125210621D01*
X87759378Y-125070921D01*
X87759374Y-125070918D01*
X87595105Y-124961156D01*
X87595092Y-124961149D01*
X87412568Y-124885546D01*
X87412558Y-124885543D01*
X87218789Y-124847000D01*
X87218787Y-124847000D01*
X87021213Y-124847000D01*
X87021211Y-124847000D01*
X86827441Y-124885543D01*
X86827431Y-124885546D01*
X86644907Y-124961149D01*
X86644894Y-124961156D01*
X86480625Y-125070918D01*
X86480621Y-125070921D01*
X86340921Y-125210621D01*
X86340918Y-125210625D01*
X86231156Y-125374894D01*
X86231149Y-125374907D01*
X86155546Y-125557431D01*
X86155543Y-125557441D01*
X86117000Y-125751210D01*
X86117000Y-125751213D01*
X86117000Y-125948787D01*
X86117000Y-125948789D01*
X86116999Y-125948789D01*
X78500500Y-125948789D01*
X78500500Y-122948789D01*
X86116999Y-122948789D01*
X86155543Y-123142558D01*
X86155546Y-123142568D01*
X86231149Y-123325092D01*
X86231156Y-123325105D01*
X86340918Y-123489374D01*
X86340921Y-123489378D01*
X86480621Y-123629078D01*
X86480625Y-123629081D01*
X86644894Y-123738843D01*
X86644907Y-123738850D01*
X86827431Y-123814453D01*
X86827436Y-123814455D01*
X86827440Y-123814455D01*
X86827441Y-123814456D01*
X87021210Y-123853000D01*
X87021213Y-123853000D01*
X87218789Y-123853000D01*
X87349154Y-123827068D01*
X87412564Y-123814455D01*
X87577656Y-123746072D01*
X87595092Y-123738850D01*
X87595092Y-123738849D01*
X87595099Y-123738847D01*
X87759375Y-123629081D01*
X87899081Y-123489375D01*
X88008847Y-123325099D01*
X88084455Y-123142564D01*
X88123000Y-122948789D01*
X89116999Y-122948789D01*
X89155543Y-123142558D01*
X89155546Y-123142568D01*
X89231149Y-123325092D01*
X89231156Y-123325105D01*
X89340918Y-123489374D01*
X89340921Y-123489378D01*
X89480621Y-123629078D01*
X89480625Y-123629081D01*
X89644894Y-123738843D01*
X89644907Y-123738850D01*
X89827431Y-123814453D01*
X89827436Y-123814455D01*
X89827440Y-123814455D01*
X89827441Y-123814456D01*
X90021210Y-123853000D01*
X90021213Y-123853000D01*
X90218789Y-123853000D01*
X90349154Y-123827068D01*
X90412564Y-123814455D01*
X90577656Y-123746072D01*
X90595092Y-123738850D01*
X90595092Y-123738849D01*
X90595099Y-123738847D01*
X90759375Y-123629081D01*
X90899081Y-123489375D01*
X91008847Y-123325099D01*
X91084455Y-123142564D01*
X91123000Y-122948787D01*
X91123000Y-122751213D01*
X91123000Y-122751210D01*
X91084456Y-122557441D01*
X91084455Y-122557440D01*
X91084455Y-122557436D01*
X91060457Y-122499500D01*
X91008850Y-122374907D01*
X91008843Y-122374894D01*
X90899081Y-122210625D01*
X90899078Y-122210621D01*
X90759378Y-122070921D01*
X90759374Y-122070918D01*
X90595105Y-121961156D01*
X90595092Y-121961149D01*
X90412568Y-121885546D01*
X90412558Y-121885543D01*
X90218789Y-121847000D01*
X90218787Y-121847000D01*
X90021213Y-121847000D01*
X90021211Y-121847000D01*
X89827441Y-121885543D01*
X89827431Y-121885546D01*
X89644907Y-121961149D01*
X89644894Y-121961156D01*
X89480625Y-122070918D01*
X89480621Y-122070921D01*
X89340921Y-122210621D01*
X89340918Y-122210625D01*
X89231156Y-122374894D01*
X89231149Y-122374907D01*
X89155546Y-122557431D01*
X89155543Y-122557441D01*
X89117000Y-122751210D01*
X89117000Y-122751213D01*
X89117000Y-122948787D01*
X89117000Y-122948789D01*
X89116999Y-122948789D01*
X88123000Y-122948789D01*
X88123000Y-122948787D01*
X88123000Y-122751213D01*
X88123000Y-122751210D01*
X88084456Y-122557441D01*
X88084455Y-122557440D01*
X88084455Y-122557436D01*
X88060457Y-122499500D01*
X88008850Y-122374907D01*
X88008843Y-122374894D01*
X87899081Y-122210625D01*
X87899078Y-122210621D01*
X87759378Y-122070921D01*
X87759374Y-122070918D01*
X87595105Y-121961156D01*
X87595092Y-121961149D01*
X87412568Y-121885546D01*
X87412558Y-121885543D01*
X87218789Y-121847000D01*
X87218787Y-121847000D01*
X87021213Y-121847000D01*
X87021211Y-121847000D01*
X86827441Y-121885543D01*
X86827431Y-121885546D01*
X86644907Y-121961149D01*
X86644894Y-121961156D01*
X86480625Y-122070918D01*
X86480621Y-122070921D01*
X86340921Y-122210621D01*
X86340918Y-122210625D01*
X86231156Y-122374894D01*
X86231149Y-122374907D01*
X86155546Y-122557431D01*
X86155543Y-122557441D01*
X86117000Y-122751210D01*
X86117000Y-122751213D01*
X86117000Y-122948787D01*
X86117000Y-122948789D01*
X86116999Y-122948789D01*
X78500500Y-122948789D01*
X78500500Y-119948789D01*
X86116999Y-119948789D01*
X86155543Y-120142558D01*
X86155546Y-120142568D01*
X86231149Y-120325092D01*
X86231156Y-120325105D01*
X86340918Y-120489374D01*
X86340921Y-120489378D01*
X86480621Y-120629078D01*
X86480625Y-120629081D01*
X86644894Y-120738843D01*
X86644907Y-120738850D01*
X86827431Y-120814453D01*
X86827436Y-120814455D01*
X86827440Y-120814455D01*
X86827441Y-120814456D01*
X87021210Y-120853000D01*
X87021213Y-120853000D01*
X87218789Y-120853000D01*
X87349154Y-120827068D01*
X87412564Y-120814455D01*
X87595099Y-120738847D01*
X87759375Y-120629081D01*
X87899081Y-120489375D01*
X88008847Y-120325099D01*
X88084455Y-120142564D01*
X88101412Y-120057316D01*
X88123000Y-119948789D01*
X89116999Y-119948789D01*
X89155543Y-120142558D01*
X89155546Y-120142568D01*
X89231149Y-120325092D01*
X89231156Y-120325105D01*
X89340918Y-120489374D01*
X89340921Y-120489378D01*
X89480621Y-120629078D01*
X89480625Y-120629081D01*
X89644894Y-120738843D01*
X89644907Y-120738850D01*
X89827431Y-120814453D01*
X89827436Y-120814455D01*
X89827440Y-120814455D01*
X89827441Y-120814456D01*
X90021210Y-120853000D01*
X90021213Y-120853000D01*
X90218789Y-120853000D01*
X90349154Y-120827068D01*
X90412564Y-120814455D01*
X90595099Y-120738847D01*
X90759375Y-120629081D01*
X90899081Y-120489375D01*
X91008847Y-120325099D01*
X91084455Y-120142564D01*
X91101412Y-120057316D01*
X91123000Y-119948789D01*
X91123000Y-119751210D01*
X91084456Y-119557441D01*
X91084455Y-119557440D01*
X91084455Y-119557436D01*
X91062326Y-119504012D01*
X91008850Y-119374907D01*
X91008843Y-119374894D01*
X90899081Y-119210625D01*
X90899078Y-119210621D01*
X90759378Y-119070921D01*
X90759374Y-119070918D01*
X90696764Y-119029083D01*
X90595105Y-118961156D01*
X90595092Y-118961149D01*
X90529808Y-118934108D01*
X101999500Y-118934108D01*
X101999500Y-119065891D01*
X102033608Y-119193187D01*
X102043674Y-119210621D01*
X102099500Y-119307314D01*
X102192686Y-119400500D01*
X102306814Y-119466392D01*
X102311497Y-119467646D01*
X102371156Y-119504012D01*
X102401685Y-119566859D01*
X102393390Y-119636234D01*
X102367085Y-119675100D01*
X102349503Y-119692682D01*
X102349500Y-119692686D01*
X102283608Y-119806812D01*
X102249500Y-119934108D01*
X102249500Y-120065892D01*
X102255107Y-120086819D01*
X102283608Y-120193187D01*
X102310902Y-120240460D01*
X102349500Y-120307314D01*
X102442686Y-120400500D01*
X102556814Y-120466392D01*
X102684108Y-120500500D01*
X102684110Y-120500500D01*
X102815890Y-120500500D01*
X102815892Y-120500500D01*
X102943186Y-120466392D01*
X103057314Y-120400500D01*
X103120995Y-120336819D01*
X103182318Y-120303334D01*
X103208676Y-120300500D01*
X110539560Y-120300500D01*
X110539562Y-120300500D01*
X110615989Y-120280021D01*
X110684511Y-120240460D01*
X110740460Y-120184511D01*
X112338152Y-118586819D01*
X112399475Y-118553334D01*
X112425833Y-118550500D01*
X114791324Y-118550500D01*
X114858363Y-118570185D01*
X114879005Y-118586819D01*
X114942686Y-118650500D01*
X115056814Y-118716392D01*
X115184108Y-118750500D01*
X115184110Y-118750500D01*
X115315890Y-118750500D01*
X115315892Y-118750500D01*
X115443186Y-118716392D01*
X115557314Y-118650500D01*
X115650500Y-118557314D01*
X115716392Y-118443186D01*
X115750500Y-118315892D01*
X115750500Y-118184108D01*
X115716392Y-118056814D01*
X115650500Y-117942686D01*
X115557314Y-117849500D01*
X115496611Y-117814453D01*
X115443187Y-117783608D01*
X115379539Y-117766554D01*
X115315892Y-117749500D01*
X115184108Y-117749500D01*
X115056812Y-117783608D01*
X114942686Y-117849500D01*
X114942683Y-117849502D01*
X114879005Y-117913181D01*
X114817682Y-117946666D01*
X114791324Y-117949500D01*
X112210438Y-117949500D01*
X112134010Y-117969978D01*
X112065489Y-118009540D01*
X112065486Y-118009542D01*
X110411848Y-119663181D01*
X110350525Y-119696666D01*
X110324167Y-119699500D01*
X105502206Y-119699500D01*
X105435167Y-119679815D01*
X105389412Y-119627011D01*
X105379468Y-119557853D01*
X105408493Y-119494297D01*
X105440206Y-119468113D01*
X105535350Y-119413181D01*
X105557314Y-119400500D01*
X105650500Y-119307314D01*
X105716392Y-119193186D01*
X105750500Y-119065892D01*
X105750500Y-118934108D01*
X105716392Y-118806814D01*
X105650500Y-118692686D01*
X105557314Y-118599500D01*
X105500250Y-118566554D01*
X105443187Y-118533608D01*
X105379539Y-118516554D01*
X105315892Y-118499500D01*
X105184108Y-118499500D01*
X105056812Y-118533608D01*
X104942686Y-118599500D01*
X104942683Y-118599502D01*
X104879005Y-118663181D01*
X104817682Y-118696666D01*
X104791324Y-118699500D01*
X102958676Y-118699500D01*
X102891637Y-118679815D01*
X102870995Y-118663181D01*
X102807316Y-118599502D01*
X102807314Y-118599500D01*
X102750250Y-118566554D01*
X102693187Y-118533608D01*
X102629539Y-118516554D01*
X102565892Y-118499500D01*
X102434108Y-118499500D01*
X102306812Y-118533608D01*
X102192686Y-118599500D01*
X102192683Y-118599502D01*
X102099502Y-118692683D01*
X102099500Y-118692686D01*
X102033608Y-118806812D01*
X101999500Y-118934108D01*
X90529808Y-118934108D01*
X90412568Y-118885546D01*
X90412558Y-118885543D01*
X90218789Y-118847000D01*
X90218787Y-118847000D01*
X90021213Y-118847000D01*
X90021211Y-118847000D01*
X89827441Y-118885543D01*
X89827431Y-118885546D01*
X89644907Y-118961149D01*
X89644894Y-118961156D01*
X89480625Y-119070918D01*
X89480621Y-119070921D01*
X89340921Y-119210621D01*
X89340918Y-119210625D01*
X89231156Y-119374894D01*
X89231149Y-119374907D01*
X89155546Y-119557431D01*
X89155543Y-119557441D01*
X89117000Y-119751210D01*
X89117000Y-119751213D01*
X89117000Y-119948787D01*
X89117000Y-119948789D01*
X89116999Y-119948789D01*
X88123000Y-119948789D01*
X88123000Y-119751210D01*
X88084456Y-119557441D01*
X88084455Y-119557440D01*
X88084455Y-119557436D01*
X88062326Y-119504012D01*
X88008850Y-119374907D01*
X88008843Y-119374894D01*
X87899081Y-119210625D01*
X87899078Y-119210621D01*
X87759378Y-119070921D01*
X87759374Y-119070918D01*
X87595105Y-118961156D01*
X87595092Y-118961149D01*
X87412568Y-118885546D01*
X87412558Y-118885543D01*
X87218789Y-118847000D01*
X87218787Y-118847000D01*
X87021213Y-118847000D01*
X87021211Y-118847000D01*
X86827441Y-118885543D01*
X86827431Y-118885546D01*
X86644907Y-118961149D01*
X86644894Y-118961156D01*
X86480625Y-119070918D01*
X86480621Y-119070921D01*
X86340921Y-119210621D01*
X86340918Y-119210625D01*
X86231156Y-119374894D01*
X86231149Y-119374907D01*
X86155546Y-119557431D01*
X86155543Y-119557441D01*
X86117000Y-119751210D01*
X86117000Y-119751213D01*
X86117000Y-119948787D01*
X86117000Y-119948789D01*
X86116999Y-119948789D01*
X78500500Y-119948789D01*
X78500500Y-116948789D01*
X86116999Y-116948789D01*
X86155543Y-117142558D01*
X86155546Y-117142568D01*
X86231149Y-117325092D01*
X86231156Y-117325105D01*
X86340918Y-117489374D01*
X86340921Y-117489378D01*
X86480621Y-117629078D01*
X86480625Y-117629081D01*
X86644894Y-117738843D01*
X86644907Y-117738850D01*
X86752964Y-117783608D01*
X86827436Y-117814455D01*
X86827440Y-117814455D01*
X86827441Y-117814456D01*
X87021210Y-117853000D01*
X87021213Y-117853000D01*
X87218789Y-117853000D01*
X87349154Y-117827068D01*
X87412564Y-117814455D01*
X87595099Y-117738847D01*
X87759375Y-117629081D01*
X87899081Y-117489375D01*
X88008847Y-117325099D01*
X88021109Y-117295497D01*
X88084453Y-117142568D01*
X88084455Y-117142564D01*
X88099706Y-117065891D01*
X88123000Y-116948789D01*
X89116999Y-116948789D01*
X89155543Y-117142558D01*
X89155546Y-117142568D01*
X89231149Y-117325092D01*
X89231156Y-117325105D01*
X89340918Y-117489374D01*
X89340921Y-117489378D01*
X89480621Y-117629078D01*
X89480625Y-117629081D01*
X89644894Y-117738843D01*
X89644907Y-117738850D01*
X89752964Y-117783608D01*
X89827436Y-117814455D01*
X89827440Y-117814455D01*
X89827441Y-117814456D01*
X90021210Y-117853000D01*
X90021213Y-117853000D01*
X90218789Y-117853000D01*
X90349154Y-117827068D01*
X90412564Y-117814455D01*
X90595099Y-117738847D01*
X90759375Y-117629081D01*
X90899081Y-117489375D01*
X91008847Y-117325099D01*
X91021109Y-117295497D01*
X91084453Y-117142568D01*
X91084455Y-117142564D01*
X91099706Y-117065891D01*
X91123000Y-116948789D01*
X91123000Y-116751210D01*
X91084456Y-116557441D01*
X91084455Y-116557440D01*
X91084455Y-116557436D01*
X91078039Y-116541947D01*
X91008850Y-116374907D01*
X91008843Y-116374894D01*
X90899081Y-116210625D01*
X90899078Y-116210621D01*
X90759378Y-116070921D01*
X90759374Y-116070918D01*
X90696764Y-116029083D01*
X90595105Y-115961156D01*
X90595092Y-115961149D01*
X90529808Y-115934108D01*
X117999500Y-115934108D01*
X117999500Y-116065891D01*
X118033608Y-116193187D01*
X118043674Y-116210621D01*
X118099500Y-116307314D01*
X118099502Y-116307316D01*
X118192687Y-116400501D01*
X118194158Y-116401630D01*
X118195083Y-116402897D01*
X118198433Y-116406247D01*
X118197910Y-116406769D01*
X118235356Y-116458060D01*
X118239506Y-116527807D01*
X118205289Y-116588725D01*
X118194158Y-116598370D01*
X118192687Y-116599498D01*
X118099502Y-116692683D01*
X118099500Y-116692686D01*
X118033608Y-116806812D01*
X117999500Y-116934108D01*
X117999500Y-117065891D01*
X118033608Y-117193187D01*
X118038877Y-117202313D01*
X118099500Y-117307314D01*
X118192686Y-117400500D01*
X118306814Y-117466392D01*
X118434108Y-117500500D01*
X118434110Y-117500500D01*
X118565890Y-117500500D01*
X118565892Y-117500500D01*
X118693186Y-117466392D01*
X118807314Y-117400500D01*
X118870995Y-117336819D01*
X118932318Y-117303334D01*
X118958676Y-117300500D01*
X121273121Y-117300500D01*
X121335120Y-117317112D01*
X121411814Y-117361392D01*
X121539108Y-117395500D01*
X121539110Y-117395500D01*
X121670890Y-117395500D01*
X121670892Y-117395500D01*
X121798186Y-117361392D01*
X121912314Y-117295500D01*
X122005500Y-117202314D01*
X122071392Y-117088186D01*
X122105500Y-116960892D01*
X122105500Y-116829108D01*
X122071392Y-116701814D01*
X122066118Y-116692680D01*
X122062563Y-116686521D01*
X122005500Y-116587686D01*
X121912314Y-116494500D01*
X121849198Y-116458060D01*
X121798187Y-116428608D01*
X121702230Y-116402897D01*
X121670892Y-116394500D01*
X121539108Y-116394500D01*
X121411814Y-116428608D01*
X121411813Y-116428608D01*
X121411811Y-116428609D01*
X121411810Y-116428609D01*
X121315425Y-116484257D01*
X121247524Y-116500730D01*
X121181497Y-116477877D01*
X121138307Y-116422956D01*
X121131666Y-116353402D01*
X121148674Y-116315644D01*
X121146436Y-116314352D01*
X121150498Y-116307315D01*
X121150500Y-116307314D01*
X121216392Y-116193186D01*
X121250500Y-116065892D01*
X121250500Y-115934108D01*
X121216392Y-115806814D01*
X121150500Y-115692686D01*
X121057314Y-115599500D01*
X121000250Y-115566554D01*
X120943187Y-115533608D01*
X120879539Y-115516554D01*
X120815892Y-115499500D01*
X120684108Y-115499500D01*
X120556812Y-115533608D01*
X120442686Y-115599500D01*
X120442683Y-115599502D01*
X120379005Y-115663181D01*
X120317682Y-115696666D01*
X120291324Y-115699500D01*
X118958676Y-115699500D01*
X118891637Y-115679815D01*
X118870995Y-115663181D01*
X118807316Y-115599502D01*
X118807314Y-115599500D01*
X118750250Y-115566554D01*
X118693187Y-115533608D01*
X118629539Y-115516554D01*
X118565892Y-115499500D01*
X118434108Y-115499500D01*
X118306812Y-115533608D01*
X118192686Y-115599500D01*
X118192683Y-115599502D01*
X118099502Y-115692683D01*
X118099500Y-115692686D01*
X118033608Y-115806812D01*
X117999500Y-115934108D01*
X90529808Y-115934108D01*
X90412568Y-115885546D01*
X90412558Y-115885543D01*
X90218789Y-115847000D01*
X90218787Y-115847000D01*
X90021213Y-115847000D01*
X90021211Y-115847000D01*
X89827441Y-115885543D01*
X89827431Y-115885546D01*
X89644907Y-115961149D01*
X89644894Y-115961156D01*
X89480625Y-116070918D01*
X89480621Y-116070921D01*
X89340921Y-116210621D01*
X89340918Y-116210625D01*
X89231156Y-116374894D01*
X89231149Y-116374907D01*
X89155546Y-116557431D01*
X89155543Y-116557441D01*
X89117000Y-116751210D01*
X89117000Y-116751213D01*
X89117000Y-116948787D01*
X89117000Y-116948789D01*
X89116999Y-116948789D01*
X88123000Y-116948789D01*
X88123000Y-116751210D01*
X88084456Y-116557441D01*
X88084455Y-116557440D01*
X88084455Y-116557436D01*
X88078039Y-116541947D01*
X88008850Y-116374907D01*
X88008843Y-116374894D01*
X87899081Y-116210625D01*
X87899078Y-116210621D01*
X87759378Y-116070921D01*
X87759374Y-116070918D01*
X87595105Y-115961156D01*
X87595092Y-115961149D01*
X87412568Y-115885546D01*
X87412558Y-115885543D01*
X87218789Y-115847000D01*
X87218787Y-115847000D01*
X87021213Y-115847000D01*
X87021211Y-115847000D01*
X86827441Y-115885543D01*
X86827431Y-115885546D01*
X86644907Y-115961149D01*
X86644894Y-115961156D01*
X86480625Y-116070918D01*
X86480621Y-116070921D01*
X86340921Y-116210621D01*
X86340918Y-116210625D01*
X86231156Y-116374894D01*
X86231149Y-116374907D01*
X86155546Y-116557431D01*
X86155543Y-116557441D01*
X86117000Y-116751210D01*
X86117000Y-116751213D01*
X86117000Y-116948787D01*
X86117000Y-116948789D01*
X86116999Y-116948789D01*
X78500500Y-116948789D01*
X78500500Y-112883634D01*
X81024500Y-112883634D01*
X81024500Y-113116365D01*
X81024501Y-113116382D01*
X81053707Y-113338231D01*
X81054879Y-113347126D01*
X81111343Y-113557853D01*
X81115120Y-113571947D01*
X81204180Y-113786960D01*
X81204188Y-113786976D01*
X81320553Y-113988524D01*
X81320564Y-113988540D01*
X81462242Y-114173179D01*
X81462248Y-114173186D01*
X81626813Y-114337751D01*
X81626820Y-114337757D01*
X81686104Y-114383247D01*
X81811468Y-114479442D01*
X81811475Y-114479446D01*
X82013023Y-114595811D01*
X82013039Y-114595819D01*
X82228052Y-114684879D01*
X82228054Y-114684879D01*
X82228060Y-114684882D01*
X82452874Y-114745121D01*
X82683628Y-114775500D01*
X82683635Y-114775500D01*
X82916365Y-114775500D01*
X82916372Y-114775500D01*
X83147126Y-114745121D01*
X83371940Y-114684882D01*
X83550355Y-114610981D01*
X83586960Y-114595819D01*
X83586963Y-114595817D01*
X83586969Y-114595815D01*
X83788532Y-114479442D01*
X83973181Y-114337756D01*
X84137756Y-114173181D01*
X84279442Y-113988532D01*
X84302388Y-113948789D01*
X86116999Y-113948789D01*
X86155543Y-114142558D01*
X86155546Y-114142568D01*
X86231149Y-114325092D01*
X86231156Y-114325105D01*
X86340918Y-114489374D01*
X86340921Y-114489378D01*
X86480621Y-114629078D01*
X86480625Y-114629081D01*
X86644894Y-114738843D01*
X86644907Y-114738850D01*
X86799093Y-114802715D01*
X86827436Y-114814455D01*
X86827440Y-114814455D01*
X86827441Y-114814456D01*
X87021210Y-114853000D01*
X87021213Y-114853000D01*
X87218789Y-114853000D01*
X87349154Y-114827068D01*
X87412564Y-114814455D01*
X87595099Y-114738847D01*
X87759375Y-114629081D01*
X87899081Y-114489375D01*
X88008847Y-114325099D01*
X88010883Y-114320185D01*
X88084453Y-114142568D01*
X88084455Y-114142564D01*
X88123000Y-113948789D01*
X89116999Y-113948789D01*
X89155543Y-114142558D01*
X89155546Y-114142568D01*
X89231149Y-114325092D01*
X89231156Y-114325105D01*
X89340918Y-114489374D01*
X89340921Y-114489378D01*
X89480621Y-114629078D01*
X89480625Y-114629081D01*
X89644894Y-114738843D01*
X89644907Y-114738850D01*
X89799093Y-114802715D01*
X89827436Y-114814455D01*
X89827440Y-114814455D01*
X89827441Y-114814456D01*
X90021210Y-114853000D01*
X90021213Y-114853000D01*
X90218789Y-114853000D01*
X90349154Y-114827068D01*
X90412564Y-114814455D01*
X90595099Y-114738847D01*
X90759375Y-114629081D01*
X90899081Y-114489375D01*
X91008847Y-114325099D01*
X91010883Y-114320185D01*
X91084453Y-114142568D01*
X91084455Y-114142564D01*
X91123000Y-113948787D01*
X91123000Y-113751213D01*
X91123000Y-113751210D01*
X91084456Y-113557441D01*
X91084455Y-113557440D01*
X91084455Y-113557436D01*
X91060457Y-113499500D01*
X91008850Y-113374907D01*
X91008843Y-113374894D01*
X90899081Y-113210625D01*
X90899078Y-113210621D01*
X90759378Y-113070921D01*
X90759374Y-113070918D01*
X90643578Y-112993545D01*
X90595105Y-112961156D01*
X90595092Y-112961149D01*
X90439086Y-112896530D01*
X110949500Y-112896530D01*
X110949500Y-113103469D01*
X110989868Y-113306412D01*
X110989870Y-113306420D01*
X111050951Y-113453883D01*
X111069059Y-113497598D01*
X111109038Y-113557431D01*
X111184024Y-113669657D01*
X111330342Y-113815975D01*
X111330345Y-113815977D01*
X111502402Y-113930941D01*
X111693580Y-114010130D01*
X111896530Y-114050499D01*
X111896534Y-114050500D01*
X111896535Y-114050500D01*
X112103466Y-114050500D01*
X112103467Y-114050499D01*
X112306420Y-114010130D01*
X112497598Y-113930941D01*
X112669655Y-113815977D01*
X112815977Y-113669655D01*
X112930941Y-113497598D01*
X113010130Y-113306420D01*
X113050500Y-113103465D01*
X113050500Y-112896535D01*
X113018191Y-112734108D01*
X118099500Y-112734108D01*
X118099500Y-112865892D01*
X118107711Y-112896535D01*
X118133608Y-112993187D01*
X118133815Y-112993545D01*
X118199500Y-113107314D01*
X118292686Y-113200500D01*
X118406814Y-113266392D01*
X118534108Y-113300500D01*
X118534110Y-113300500D01*
X118624167Y-113300500D01*
X118691206Y-113320185D01*
X118711848Y-113336819D01*
X119559540Y-114184511D01*
X119615489Y-114240460D01*
X119615491Y-114240461D01*
X119615495Y-114240464D01*
X119668431Y-114271026D01*
X119684011Y-114280021D01*
X119760438Y-114300500D01*
X121741324Y-114300500D01*
X121808363Y-114320185D01*
X121829005Y-114336819D01*
X121892686Y-114400500D01*
X122006814Y-114466392D01*
X122134108Y-114500500D01*
X122134110Y-114500500D01*
X122265890Y-114500500D01*
X122265892Y-114500500D01*
X122393186Y-114466392D01*
X122507314Y-114400500D01*
X122600500Y-114307314D01*
X122666392Y-114193186D01*
X122700500Y-114065892D01*
X122700500Y-113934108D01*
X124899500Y-113934108D01*
X124899500Y-114065891D01*
X124933608Y-114193187D01*
X124960902Y-114240460D01*
X124999500Y-114307314D01*
X125092686Y-114400500D01*
X125206814Y-114466392D01*
X125334108Y-114500500D01*
X125334110Y-114500500D01*
X125465890Y-114500500D01*
X125465892Y-114500500D01*
X125593186Y-114466392D01*
X125707314Y-114400500D01*
X125770995Y-114336819D01*
X125832318Y-114303334D01*
X125858676Y-114300500D01*
X127547939Y-114300500D01*
X127614978Y-114320185D01*
X127660733Y-114372989D01*
X127670677Y-114442147D01*
X127641652Y-114505703D01*
X127582874Y-114543477D01*
X127572131Y-114546117D01*
X127419838Y-114576410D01*
X127419828Y-114576413D01*
X127245034Y-114648814D01*
X127245031Y-114648816D01*
X127087721Y-114753927D01*
X127087713Y-114753933D01*
X126953933Y-114887713D01*
X126953927Y-114887721D01*
X126848816Y-115045031D01*
X126848814Y-115045034D01*
X126776413Y-115219828D01*
X126776410Y-115219838D01*
X126739500Y-115405396D01*
X126739500Y-115405398D01*
X126739500Y-115405399D01*
X126739500Y-115594601D01*
X126739500Y-115594603D01*
X126739499Y-115594603D01*
X126776410Y-115780161D01*
X126776413Y-115780171D01*
X126848814Y-115954965D01*
X126848816Y-115954968D01*
X126953927Y-116112278D01*
X126953933Y-116112286D01*
X127087713Y-116246066D01*
X127087721Y-116246072D01*
X127245031Y-116351183D01*
X127245034Y-116351185D01*
X127379228Y-116406769D01*
X127419833Y-116423588D01*
X127419837Y-116423588D01*
X127419838Y-116423589D01*
X127605396Y-116460500D01*
X127605399Y-116460500D01*
X127794603Y-116460500D01*
X127954930Y-116428608D01*
X127980167Y-116423588D01*
X128033159Y-116401638D01*
X128063630Y-116389017D01*
X128154965Y-116351185D01*
X128154968Y-116351183D01*
X128312283Y-116246069D01*
X128446069Y-116112283D01*
X128551184Y-115954967D01*
X128623588Y-115780167D01*
X128639634Y-115699500D01*
X128660500Y-115594603D01*
X128660500Y-115405398D01*
X128660499Y-115405395D01*
X128659592Y-115400836D01*
X129440000Y-115400836D01*
X129440000Y-115599163D01*
X129471026Y-115795052D01*
X129532310Y-115983669D01*
X129532311Y-115983672D01*
X129622350Y-116160380D01*
X129649161Y-116197283D01*
X130208871Y-115637574D01*
X130224755Y-115696853D01*
X130291898Y-115813147D01*
X130386853Y-115908102D01*
X130503147Y-115975245D01*
X130562424Y-115991128D01*
X130002714Y-116550837D01*
X130002715Y-116550838D01*
X130039612Y-116577645D01*
X130216327Y-116667688D01*
X130216330Y-116667689D01*
X130404947Y-116728973D01*
X130600837Y-116760000D01*
X130799163Y-116760000D01*
X130995052Y-116728973D01*
X131183669Y-116667689D01*
X131183672Y-116667688D01*
X131360382Y-116577648D01*
X131397283Y-116550837D01*
X131397284Y-116550836D01*
X130837575Y-115991127D01*
X130896853Y-115975245D01*
X131013147Y-115908102D01*
X131108102Y-115813147D01*
X131175245Y-115696853D01*
X131191128Y-115637575D01*
X131750836Y-116197284D01*
X131750837Y-116197283D01*
X131777648Y-116160382D01*
X131867688Y-115983672D01*
X131867689Y-115983669D01*
X131928973Y-115795052D01*
X131960000Y-115599163D01*
X131960000Y-115400836D01*
X131928973Y-115204947D01*
X131867689Y-115016330D01*
X131867688Y-115016327D01*
X131777645Y-114839612D01*
X131750838Y-114802715D01*
X131750837Y-114802714D01*
X131191127Y-115362423D01*
X131175245Y-115303147D01*
X131108102Y-115186853D01*
X131013147Y-115091898D01*
X130896853Y-115024755D01*
X130837574Y-115008871D01*
X131397283Y-114449161D01*
X131360380Y-114422350D01*
X131183672Y-114332311D01*
X131183669Y-114332310D01*
X130995052Y-114271026D01*
X130799163Y-114240000D01*
X130600837Y-114240000D01*
X130404947Y-114271026D01*
X130216330Y-114332310D01*
X130216322Y-114332313D01*
X130039615Y-114422352D01*
X130002715Y-114449160D01*
X130002715Y-114449161D01*
X130562425Y-115008871D01*
X130503147Y-115024755D01*
X130386853Y-115091898D01*
X130291898Y-115186853D01*
X130224755Y-115303147D01*
X130208871Y-115362425D01*
X129649161Y-114802715D01*
X129649160Y-114802715D01*
X129622352Y-114839615D01*
X129532313Y-115016322D01*
X129532310Y-115016330D01*
X129471026Y-115204947D01*
X129440000Y-115400836D01*
X128659592Y-115400836D01*
X128643297Y-115318918D01*
X128623588Y-115219833D01*
X128617422Y-115204947D01*
X128551185Y-115045034D01*
X128551183Y-115045031D01*
X128446072Y-114887721D01*
X128446066Y-114887713D01*
X128312286Y-114753933D01*
X128312278Y-114753927D01*
X128154968Y-114648816D01*
X128154965Y-114648814D01*
X128063626Y-114610981D01*
X127980171Y-114576413D01*
X127980161Y-114576410D01*
X127827869Y-114546117D01*
X127765958Y-114513732D01*
X127731384Y-114453016D01*
X127735124Y-114383247D01*
X127775991Y-114326575D01*
X127841009Y-114300993D01*
X127852061Y-114300500D01*
X129239560Y-114300500D01*
X129239562Y-114300500D01*
X129315989Y-114280021D01*
X129384511Y-114240460D01*
X129440460Y-114184511D01*
X129739713Y-113885258D01*
X133249500Y-113885258D01*
X133249500Y-114114741D01*
X133271260Y-114280017D01*
X133279452Y-114342238D01*
X133321858Y-114500500D01*
X133338842Y-114563887D01*
X133426650Y-114775876D01*
X133426657Y-114775890D01*
X133541392Y-114974617D01*
X133681081Y-115156661D01*
X133681089Y-115156670D01*
X133843330Y-115318911D01*
X133843338Y-115318918D01*
X134025382Y-115458607D01*
X134025385Y-115458608D01*
X134025388Y-115458611D01*
X134224112Y-115573344D01*
X134224117Y-115573346D01*
X134224123Y-115573349D01*
X134315480Y-115611190D01*
X134436113Y-115661158D01*
X134657762Y-115720548D01*
X134885266Y-115750500D01*
X134885273Y-115750500D01*
X135114727Y-115750500D01*
X135114734Y-115750500D01*
X135342238Y-115720548D01*
X135563887Y-115661158D01*
X135775888Y-115573344D01*
X135974612Y-115458611D01*
X136156661Y-115318919D01*
X136156665Y-115318914D01*
X136156670Y-115318911D01*
X136318911Y-115156670D01*
X136318914Y-115156665D01*
X136318919Y-115156661D01*
X136458611Y-114974612D01*
X136573344Y-114775888D01*
X136661158Y-114563887D01*
X136720548Y-114342238D01*
X136750500Y-114114734D01*
X136750500Y-113885266D01*
X136720548Y-113657762D01*
X136661158Y-113436113D01*
X136573344Y-113224112D01*
X136458611Y-113025388D01*
X136458608Y-113025385D01*
X136458607Y-113025382D01*
X136318918Y-112843338D01*
X136318911Y-112843330D01*
X136156670Y-112681089D01*
X136156661Y-112681081D01*
X135974617Y-112541392D01*
X135775890Y-112426657D01*
X135775876Y-112426650D01*
X135563887Y-112338842D01*
X135532164Y-112330342D01*
X135342238Y-112279452D01*
X135304215Y-112274446D01*
X135114741Y-112249500D01*
X135114734Y-112249500D01*
X134885266Y-112249500D01*
X134885258Y-112249500D01*
X134668715Y-112278009D01*
X134657762Y-112279452D01*
X134582941Y-112299500D01*
X134436112Y-112338842D01*
X134224123Y-112426650D01*
X134224109Y-112426657D01*
X134025382Y-112541392D01*
X133843338Y-112681081D01*
X133681081Y-112843338D01*
X133541392Y-113025382D01*
X133426657Y-113224109D01*
X133426650Y-113224123D01*
X133338842Y-113436112D01*
X133279453Y-113657759D01*
X133279451Y-113657770D01*
X133249500Y-113885258D01*
X129739713Y-113885258D01*
X130128152Y-113496819D01*
X130189475Y-113463334D01*
X130215833Y-113460500D01*
X131479750Y-113460500D01*
X131479751Y-113460499D01*
X131499742Y-113456523D01*
X131538229Y-113448868D01*
X131538229Y-113448867D01*
X131538231Y-113448867D01*
X131604552Y-113404552D01*
X131648867Y-113338231D01*
X131648867Y-113338229D01*
X131648868Y-113338229D01*
X131660499Y-113279752D01*
X131660500Y-113279750D01*
X131660500Y-111720249D01*
X131660499Y-111720247D01*
X131648868Y-111661770D01*
X131648867Y-111661769D01*
X131604552Y-111595447D01*
X131538230Y-111551132D01*
X131538229Y-111551131D01*
X131479752Y-111539500D01*
X131479748Y-111539500D01*
X129920252Y-111539500D01*
X129920247Y-111539500D01*
X129861770Y-111551131D01*
X129861769Y-111551132D01*
X129795447Y-111595447D01*
X129751132Y-111661769D01*
X129751131Y-111661770D01*
X129739500Y-111720247D01*
X129739500Y-112984167D01*
X129719815Y-113051206D01*
X129703181Y-113071848D01*
X129111848Y-113663181D01*
X129050525Y-113696666D01*
X129024167Y-113699500D01*
X127852061Y-113699500D01*
X127785022Y-113679815D01*
X127739267Y-113627011D01*
X127729323Y-113557853D01*
X127758348Y-113494297D01*
X127817126Y-113456523D01*
X127827869Y-113453883D01*
X127939383Y-113431700D01*
X127980167Y-113423588D01*
X128154967Y-113351184D01*
X128312283Y-113246069D01*
X128446069Y-113112283D01*
X128551184Y-112954967D01*
X128623588Y-112780167D01*
X128660500Y-112594601D01*
X128660500Y-112405399D01*
X128660500Y-112405396D01*
X128623589Y-112219838D01*
X128623588Y-112219837D01*
X128623588Y-112219833D01*
X128561136Y-112069059D01*
X128551185Y-112045034D01*
X128551183Y-112045031D01*
X128446072Y-111887721D01*
X128446066Y-111887713D01*
X128312286Y-111753933D01*
X128312278Y-111753927D01*
X128154968Y-111648816D01*
X128154965Y-111648814D01*
X127980171Y-111576413D01*
X127980161Y-111576410D01*
X127794603Y-111539500D01*
X127794601Y-111539500D01*
X127605399Y-111539500D01*
X127605397Y-111539500D01*
X127419838Y-111576410D01*
X127419828Y-111576413D01*
X127245034Y-111648814D01*
X127245031Y-111648816D01*
X127087721Y-111753927D01*
X127087713Y-111753933D01*
X126953933Y-111887713D01*
X126953927Y-111887721D01*
X126848816Y-112045031D01*
X126848814Y-112045034D01*
X126776413Y-112219828D01*
X126776410Y-112219838D01*
X126739500Y-112405396D01*
X126739500Y-112405399D01*
X126739500Y-112594601D01*
X126739500Y-112594603D01*
X126739499Y-112594603D01*
X126776410Y-112780161D01*
X126776413Y-112780171D01*
X126848814Y-112954965D01*
X126848816Y-112954968D01*
X126953927Y-113112278D01*
X126953933Y-113112286D01*
X127087713Y-113246066D01*
X127087721Y-113246072D01*
X127245031Y-113351183D01*
X127245034Y-113351185D01*
X127419828Y-113423586D01*
X127419833Y-113423588D01*
X127419837Y-113423588D01*
X127419838Y-113423589D01*
X127572131Y-113453883D01*
X127634042Y-113486268D01*
X127668616Y-113546984D01*
X127664876Y-113616753D01*
X127624009Y-113673425D01*
X127558991Y-113699007D01*
X127547939Y-113699500D01*
X125858676Y-113699500D01*
X125791637Y-113679815D01*
X125770995Y-113663181D01*
X125707316Y-113599502D01*
X125707314Y-113599500D01*
X125650250Y-113566554D01*
X125593187Y-113533608D01*
X125529539Y-113516554D01*
X125465892Y-113499500D01*
X125334108Y-113499500D01*
X125206812Y-113533608D01*
X125092686Y-113599500D01*
X125092683Y-113599502D01*
X124999502Y-113692683D01*
X124999500Y-113692686D01*
X124933608Y-113806812D01*
X124899500Y-113934108D01*
X122700500Y-113934108D01*
X122666392Y-113806814D01*
X122600500Y-113692686D01*
X122507314Y-113599500D01*
X122450250Y-113566554D01*
X122393187Y-113533608D01*
X122329539Y-113516554D01*
X122265892Y-113499500D01*
X122134108Y-113499500D01*
X122006812Y-113533608D01*
X121892686Y-113599500D01*
X121892683Y-113599502D01*
X121829005Y-113663181D01*
X121767682Y-113696666D01*
X121741324Y-113699500D01*
X119975833Y-113699500D01*
X119908794Y-113679815D01*
X119888152Y-113663181D01*
X119136819Y-112911848D01*
X119103334Y-112850525D01*
X119100500Y-112824167D01*
X119100500Y-112734110D01*
X119100500Y-112734108D01*
X119066392Y-112606814D01*
X119000500Y-112492686D01*
X118907314Y-112399500D01*
X118802252Y-112338842D01*
X118793187Y-112333608D01*
X118729539Y-112316554D01*
X118665892Y-112299500D01*
X118534108Y-112299500D01*
X118406812Y-112333608D01*
X118292686Y-112399500D01*
X118292683Y-112399502D01*
X118199502Y-112492683D01*
X118199500Y-112492686D01*
X118133608Y-112606812D01*
X118110359Y-112693580D01*
X118099500Y-112734108D01*
X113018191Y-112734108D01*
X113010130Y-112693580D01*
X112930941Y-112502402D01*
X112815977Y-112330345D01*
X112815975Y-112330342D01*
X112669657Y-112184024D01*
X112583626Y-112126541D01*
X112497598Y-112069059D01*
X112439594Y-112045033D01*
X112306420Y-111989870D01*
X112306412Y-111989868D01*
X112103469Y-111949500D01*
X112103465Y-111949500D01*
X111896535Y-111949500D01*
X111896530Y-111949500D01*
X111693587Y-111989868D01*
X111693579Y-111989870D01*
X111502403Y-112069058D01*
X111330342Y-112184024D01*
X111184024Y-112330342D01*
X111069058Y-112502403D01*
X110989870Y-112693579D01*
X110989868Y-112693587D01*
X110949500Y-112896530D01*
X90439086Y-112896530D01*
X90412568Y-112885546D01*
X90412558Y-112885543D01*
X90218789Y-112847000D01*
X90218787Y-112847000D01*
X90021213Y-112847000D01*
X90021211Y-112847000D01*
X89827441Y-112885543D01*
X89827431Y-112885546D01*
X89644907Y-112961149D01*
X89644894Y-112961156D01*
X89480625Y-113070918D01*
X89480621Y-113070921D01*
X89340921Y-113210621D01*
X89340918Y-113210625D01*
X89231156Y-113374894D01*
X89231149Y-113374907D01*
X89155546Y-113557431D01*
X89155543Y-113557441D01*
X89117000Y-113751210D01*
X89117000Y-113751213D01*
X89117000Y-113948787D01*
X89117000Y-113948789D01*
X89116999Y-113948789D01*
X88123000Y-113948789D01*
X88123000Y-113948787D01*
X88123000Y-113751213D01*
X88123000Y-113751210D01*
X88084456Y-113557441D01*
X88084455Y-113557440D01*
X88084455Y-113557436D01*
X88060457Y-113499500D01*
X88008850Y-113374907D01*
X88008843Y-113374894D01*
X87899081Y-113210625D01*
X87899078Y-113210621D01*
X87759378Y-113070921D01*
X87759374Y-113070918D01*
X87595105Y-112961156D01*
X87595092Y-112961149D01*
X87412568Y-112885546D01*
X87412558Y-112885543D01*
X87218789Y-112847000D01*
X87218787Y-112847000D01*
X87021213Y-112847000D01*
X87021211Y-112847000D01*
X86827441Y-112885543D01*
X86827431Y-112885546D01*
X86644907Y-112961149D01*
X86644894Y-112961156D01*
X86480625Y-113070918D01*
X86480621Y-113070921D01*
X86340921Y-113210621D01*
X86340918Y-113210625D01*
X86231156Y-113374894D01*
X86231149Y-113374907D01*
X86155546Y-113557431D01*
X86155543Y-113557441D01*
X86117000Y-113751210D01*
X86117000Y-113751213D01*
X86117000Y-113948787D01*
X86117000Y-113948789D01*
X86116999Y-113948789D01*
X84302388Y-113948789D01*
X84395815Y-113786969D01*
X84413720Y-113743740D01*
X84432805Y-113697668D01*
X84432805Y-113697666D01*
X84444408Y-113669655D01*
X84484882Y-113571940D01*
X84545121Y-113347126D01*
X84575500Y-113116372D01*
X84575500Y-112883628D01*
X84545121Y-112652874D01*
X84484882Y-112428060D01*
X84484301Y-112426657D01*
X84395819Y-112213039D01*
X84395811Y-112213023D01*
X84279446Y-112011475D01*
X84279442Y-112011468D01*
X84184482Y-111887713D01*
X84137757Y-111826820D01*
X84137751Y-111826813D01*
X83973186Y-111662248D01*
X83973179Y-111662242D01*
X83788540Y-111520564D01*
X83788538Y-111520562D01*
X83788532Y-111520558D01*
X83788527Y-111520555D01*
X83788524Y-111520553D01*
X83586976Y-111404188D01*
X83586960Y-111404180D01*
X83371947Y-111315120D01*
X83342822Y-111307316D01*
X83147126Y-111254879D01*
X83147125Y-111254878D01*
X83147122Y-111254878D01*
X82916382Y-111224501D01*
X82916377Y-111224500D01*
X82916372Y-111224500D01*
X82683628Y-111224500D01*
X82683622Y-111224500D01*
X82683617Y-111224501D01*
X82452877Y-111254878D01*
X82228052Y-111315120D01*
X82013039Y-111404180D01*
X82013023Y-111404188D01*
X81811475Y-111520553D01*
X81811459Y-111520564D01*
X81626820Y-111662242D01*
X81626813Y-111662248D01*
X81462248Y-111826813D01*
X81462242Y-111826820D01*
X81320564Y-112011459D01*
X81320553Y-112011475D01*
X81204188Y-112213023D01*
X81204180Y-112213039D01*
X81115120Y-112428052D01*
X81054878Y-112652877D01*
X81024501Y-112883617D01*
X81024500Y-112883634D01*
X78500500Y-112883634D01*
X78500500Y-110948789D01*
X86116999Y-110948789D01*
X86155543Y-111142558D01*
X86155546Y-111142568D01*
X86231149Y-111325092D01*
X86231156Y-111325105D01*
X86340918Y-111489374D01*
X86340921Y-111489378D01*
X86480621Y-111629078D01*
X86480625Y-111629081D01*
X86644894Y-111738843D01*
X86644907Y-111738850D01*
X86827431Y-111814453D01*
X86827436Y-111814455D01*
X86827440Y-111814455D01*
X86827441Y-111814456D01*
X87021210Y-111853000D01*
X87021213Y-111853000D01*
X87218789Y-111853000D01*
X87350437Y-111826813D01*
X87412564Y-111814455D01*
X87595099Y-111738847D01*
X87759375Y-111629081D01*
X87899081Y-111489375D01*
X88008847Y-111325099D01*
X88084455Y-111142564D01*
X88099707Y-111065890D01*
X88123000Y-110948789D01*
X89116999Y-110948789D01*
X89155543Y-111142558D01*
X89155546Y-111142568D01*
X89231149Y-111325092D01*
X89231156Y-111325105D01*
X89340918Y-111489374D01*
X89340921Y-111489378D01*
X89480621Y-111629078D01*
X89480625Y-111629081D01*
X89644894Y-111738843D01*
X89644907Y-111738850D01*
X89827431Y-111814453D01*
X89827436Y-111814455D01*
X89827440Y-111814455D01*
X89827441Y-111814456D01*
X90021210Y-111853000D01*
X90021213Y-111853000D01*
X90218789Y-111853000D01*
X90350437Y-111826813D01*
X90412564Y-111814455D01*
X90595099Y-111738847D01*
X90759375Y-111629081D01*
X90899081Y-111489375D01*
X91008847Y-111325099D01*
X91084455Y-111142564D01*
X91099707Y-111065890D01*
X91123000Y-110948789D01*
X91123000Y-110751210D01*
X91084456Y-110557441D01*
X91084455Y-110557440D01*
X91084455Y-110557436D01*
X91060457Y-110499500D01*
X91008850Y-110374907D01*
X91008843Y-110374894D01*
X90899081Y-110210625D01*
X90899078Y-110210621D01*
X90759378Y-110070921D01*
X90759374Y-110070918D01*
X90595105Y-109961156D01*
X90595092Y-109961149D01*
X90412568Y-109885546D01*
X90412558Y-109885543D01*
X90218789Y-109847000D01*
X90218787Y-109847000D01*
X90021213Y-109847000D01*
X90021211Y-109847000D01*
X89827441Y-109885543D01*
X89827431Y-109885546D01*
X89644907Y-109961149D01*
X89644894Y-109961156D01*
X89480625Y-110070918D01*
X89480621Y-110070921D01*
X89340921Y-110210621D01*
X89340918Y-110210625D01*
X89231156Y-110374894D01*
X89231149Y-110374907D01*
X89155546Y-110557431D01*
X89155543Y-110557441D01*
X89117000Y-110751210D01*
X89117000Y-110751213D01*
X89117000Y-110948787D01*
X89117000Y-110948789D01*
X89116999Y-110948789D01*
X88123000Y-110948789D01*
X88123000Y-110751210D01*
X88084456Y-110557441D01*
X88084455Y-110557440D01*
X88084455Y-110557436D01*
X88060457Y-110499500D01*
X88008850Y-110374907D01*
X88008843Y-110374894D01*
X87899081Y-110210625D01*
X87899078Y-110210621D01*
X87759378Y-110070921D01*
X87759374Y-110070918D01*
X87595105Y-109961156D01*
X87595092Y-109961149D01*
X87412568Y-109885546D01*
X87412558Y-109885543D01*
X87218789Y-109847000D01*
X87218787Y-109847000D01*
X87021213Y-109847000D01*
X87021211Y-109847000D01*
X86827441Y-109885543D01*
X86827431Y-109885546D01*
X86644907Y-109961149D01*
X86644894Y-109961156D01*
X86480625Y-110070918D01*
X86480621Y-110070921D01*
X86340921Y-110210621D01*
X86340918Y-110210625D01*
X86231156Y-110374894D01*
X86231149Y-110374907D01*
X86155546Y-110557431D01*
X86155543Y-110557441D01*
X86117000Y-110751210D01*
X86117000Y-110751213D01*
X86117000Y-110948787D01*
X86117000Y-110948789D01*
X86116999Y-110948789D01*
X78500500Y-110948789D01*
X78500500Y-109590247D01*
X110949500Y-109590247D01*
X110949500Y-111329752D01*
X110961131Y-111388229D01*
X110961132Y-111388230D01*
X111005447Y-111454552D01*
X111071769Y-111498867D01*
X111071770Y-111498868D01*
X111130247Y-111510499D01*
X111130250Y-111510500D01*
X111130252Y-111510500D01*
X112869750Y-111510500D01*
X112869751Y-111510499D01*
X112884568Y-111507552D01*
X112928229Y-111498868D01*
X112928229Y-111498867D01*
X112928231Y-111498867D01*
X112994552Y-111454552D01*
X113038867Y-111388231D01*
X113038867Y-111388229D01*
X113038868Y-111388229D01*
X113050499Y-111329752D01*
X113050500Y-111329750D01*
X113050500Y-110934108D01*
X117749500Y-110934108D01*
X117749500Y-111065891D01*
X117783608Y-111193187D01*
X117801687Y-111224500D01*
X117849500Y-111307314D01*
X117942686Y-111400500D01*
X118056814Y-111466392D01*
X118184108Y-111500500D01*
X118184110Y-111500500D01*
X118315890Y-111500500D01*
X118315892Y-111500500D01*
X118443186Y-111466392D01*
X118557314Y-111400500D01*
X118650500Y-111307314D01*
X118716392Y-111193186D01*
X118750500Y-111065892D01*
X118750500Y-110975832D01*
X118770185Y-110908793D01*
X118786819Y-110888151D01*
X119211789Y-110463181D01*
X119740460Y-109934511D01*
X119768730Y-109885545D01*
X119780021Y-109865989D01*
X119800500Y-109789562D01*
X119800500Y-107210438D01*
X119800500Y-106925832D01*
X119820185Y-106858793D01*
X119836815Y-106838155D01*
X120638151Y-106036818D01*
X120699474Y-106003334D01*
X120725832Y-106000500D01*
X120815890Y-106000500D01*
X120815892Y-106000500D01*
X120943186Y-105966392D01*
X121057314Y-105900500D01*
X121150500Y-105807314D01*
X121216392Y-105693186D01*
X121250500Y-105565892D01*
X121250500Y-105434108D01*
X121216392Y-105306814D01*
X121150500Y-105192686D01*
X121057314Y-105099500D01*
X121000250Y-105066554D01*
X120943187Y-105033608D01*
X120879539Y-105016554D01*
X120815892Y-104999500D01*
X120684108Y-104999500D01*
X120556812Y-105033608D01*
X120442686Y-105099500D01*
X120442683Y-105099502D01*
X120349502Y-105192683D01*
X120349500Y-105192686D01*
X120283608Y-105306812D01*
X120249500Y-105434108D01*
X120249500Y-105524166D01*
X120229815Y-105591205D01*
X120213181Y-105611847D01*
X119315489Y-106509540D01*
X119259541Y-106565487D01*
X119259535Y-106565495D01*
X119219982Y-106634004D01*
X119219979Y-106634009D01*
X119199500Y-106710439D01*
X119199500Y-109574166D01*
X119179815Y-109641205D01*
X119163181Y-109661847D01*
X118361847Y-110463181D01*
X118300524Y-110496666D01*
X118274166Y-110499500D01*
X118184108Y-110499500D01*
X118056812Y-110533608D01*
X117942686Y-110599500D01*
X117942683Y-110599502D01*
X117849502Y-110692683D01*
X117849500Y-110692686D01*
X117783608Y-110806812D01*
X117749500Y-110934108D01*
X113050500Y-110934108D01*
X113050500Y-109590249D01*
X113050499Y-109590247D01*
X113038868Y-109531770D01*
X113038867Y-109531769D01*
X112994552Y-109465447D01*
X112928230Y-109421132D01*
X112928229Y-109421131D01*
X112869752Y-109409500D01*
X112869748Y-109409500D01*
X111130252Y-109409500D01*
X111130247Y-109409500D01*
X111071770Y-109421131D01*
X111071769Y-109421132D01*
X111005447Y-109465447D01*
X110961132Y-109531769D01*
X110961131Y-109531770D01*
X110949500Y-109590247D01*
X78500500Y-109590247D01*
X78500500Y-106934108D01*
X116749500Y-106934108D01*
X116749500Y-107065891D01*
X116783608Y-107193187D01*
X116793568Y-107210438D01*
X116849500Y-107307314D01*
X116942686Y-107400500D01*
X117056814Y-107466392D01*
X117184108Y-107500500D01*
X117184110Y-107500500D01*
X117315890Y-107500500D01*
X117315892Y-107500500D01*
X117443186Y-107466392D01*
X117557314Y-107400500D01*
X117650500Y-107307314D01*
X117716392Y-107193186D01*
X117750500Y-107065892D01*
X117750500Y-106975832D01*
X117770185Y-106908793D01*
X117786819Y-106888151D01*
X119888151Y-104786819D01*
X119949474Y-104753334D01*
X119975832Y-104750500D01*
X120065890Y-104750500D01*
X120065892Y-104750500D01*
X120193186Y-104716392D01*
X120307314Y-104650500D01*
X120400500Y-104557314D01*
X120466392Y-104443186D01*
X120500500Y-104315892D01*
X120500500Y-104184108D01*
X120466392Y-104056814D01*
X120400500Y-103942686D01*
X120307314Y-103849500D01*
X120249100Y-103815890D01*
X120193187Y-103783608D01*
X120129539Y-103766554D01*
X120065892Y-103749500D01*
X119934108Y-103749500D01*
X119806812Y-103783608D01*
X119692686Y-103849500D01*
X119692683Y-103849502D01*
X119599502Y-103942683D01*
X119599500Y-103942686D01*
X119533608Y-104056812D01*
X119499500Y-104184108D01*
X119499500Y-104274166D01*
X119479815Y-104341205D01*
X119463181Y-104361847D01*
X117361847Y-106463181D01*
X117300524Y-106496666D01*
X117274166Y-106499500D01*
X117184108Y-106499500D01*
X117056812Y-106533608D01*
X116942686Y-106599500D01*
X116942683Y-106599502D01*
X116849502Y-106692683D01*
X116849500Y-106692686D01*
X116783608Y-106806812D01*
X116749500Y-106934108D01*
X78500500Y-106934108D01*
X78500500Y-100333634D01*
X81104500Y-100333634D01*
X81104500Y-100566365D01*
X81104501Y-100566382D01*
X81134878Y-100797122D01*
X81195120Y-101021947D01*
X81284180Y-101236960D01*
X81284188Y-101236976D01*
X81400553Y-101438524D01*
X81400564Y-101438540D01*
X81542242Y-101623179D01*
X81542248Y-101623186D01*
X81706813Y-101787751D01*
X81706820Y-101787757D01*
X81838303Y-101888647D01*
X81891468Y-101929442D01*
X81891475Y-101929446D01*
X82093023Y-102045811D01*
X82093039Y-102045819D01*
X82308052Y-102134879D01*
X82308054Y-102134879D01*
X82308060Y-102134882D01*
X82532874Y-102195121D01*
X82763628Y-102225500D01*
X82763635Y-102225500D01*
X82996365Y-102225500D01*
X82996372Y-102225500D01*
X83227126Y-102195121D01*
X83451940Y-102134882D01*
X83509953Y-102110852D01*
X83666960Y-102045819D01*
X83666963Y-102045817D01*
X83666969Y-102045815D01*
X83868532Y-101929442D01*
X84053181Y-101787756D01*
X84063190Y-101777747D01*
X86197000Y-101777747D01*
X86197000Y-103422252D01*
X86208631Y-103480729D01*
X86208632Y-103480730D01*
X86252947Y-103547052D01*
X86319269Y-103591367D01*
X86319270Y-103591368D01*
X86377747Y-103602999D01*
X86377750Y-103603000D01*
X86377752Y-103603000D01*
X88022250Y-103603000D01*
X88022251Y-103602999D01*
X88037068Y-103600052D01*
X88080729Y-103591368D01*
X88080729Y-103591367D01*
X88080731Y-103591367D01*
X88147052Y-103547052D01*
X88191367Y-103480731D01*
X88191367Y-103480729D01*
X88191368Y-103480729D01*
X88202999Y-103422252D01*
X88203000Y-103422250D01*
X88203000Y-102698789D01*
X89196999Y-102698789D01*
X89235543Y-102892558D01*
X89235546Y-102892568D01*
X89311149Y-103075092D01*
X89311156Y-103075105D01*
X89420918Y-103239374D01*
X89420921Y-103239378D01*
X89560621Y-103379078D01*
X89560625Y-103379081D01*
X89724894Y-103488843D01*
X89724907Y-103488850D01*
X89865421Y-103547052D01*
X89907436Y-103564455D01*
X89907440Y-103564455D01*
X89907441Y-103564456D01*
X90101210Y-103603000D01*
X90101213Y-103603000D01*
X90298789Y-103603000D01*
X90429154Y-103577068D01*
X90492564Y-103564455D01*
X90675099Y-103488847D01*
X90757021Y-103434108D01*
X101999500Y-103434108D01*
X101999500Y-103565891D01*
X102033608Y-103693187D01*
X102066121Y-103749500D01*
X102099500Y-103807314D01*
X102192686Y-103900500D01*
X102306814Y-103966392D01*
X102434108Y-104000500D01*
X102434110Y-104000500D01*
X102530686Y-104000500D01*
X102597725Y-104020185D01*
X102643480Y-104072989D01*
X102653424Y-104142147D01*
X102638073Y-104186501D01*
X102634503Y-104192683D01*
X102634501Y-104192686D01*
X102609204Y-104236501D01*
X102568609Y-104306812D01*
X102534501Y-104434108D01*
X102534501Y-104565891D01*
X102568609Y-104693187D01*
X102582006Y-104716391D01*
X102634501Y-104807314D01*
X102727687Y-104900500D01*
X102841815Y-104966392D01*
X102969109Y-105000500D01*
X102969111Y-105000500D01*
X103100891Y-105000500D01*
X103100893Y-105000500D01*
X103228187Y-104966392D01*
X103342315Y-104900500D01*
X103405996Y-104836819D01*
X103467319Y-104803334D01*
X103493677Y-104800500D01*
X104826325Y-104800500D01*
X104893364Y-104820185D01*
X104914006Y-104836819D01*
X104977687Y-104900500D01*
X105091815Y-104966392D01*
X105219109Y-105000500D01*
X105219111Y-105000500D01*
X105350891Y-105000500D01*
X105350893Y-105000500D01*
X105478187Y-104966392D01*
X105592315Y-104900500D01*
X105685501Y-104807314D01*
X105751393Y-104693186D01*
X105785501Y-104565892D01*
X105785501Y-104434108D01*
X105751393Y-104306814D01*
X105710796Y-104236499D01*
X105694324Y-104168601D01*
X105717176Y-104102574D01*
X105772097Y-104059383D01*
X105818184Y-104050500D01*
X111541324Y-104050500D01*
X111608363Y-104070185D01*
X111629005Y-104086819D01*
X111692686Y-104150500D01*
X111806814Y-104216392D01*
X111934108Y-104250500D01*
X111934110Y-104250500D01*
X112065890Y-104250500D01*
X112065892Y-104250500D01*
X112193186Y-104216392D01*
X112307314Y-104150500D01*
X112400500Y-104057314D01*
X112466392Y-103943186D01*
X112500500Y-103815892D01*
X112500500Y-103684108D01*
X112466392Y-103556814D01*
X112400500Y-103442686D01*
X112307314Y-103349500D01*
X112233380Y-103306814D01*
X112193187Y-103283608D01*
X112129539Y-103266554D01*
X112065892Y-103249500D01*
X111934108Y-103249500D01*
X111806812Y-103283608D01*
X111692686Y-103349500D01*
X111692683Y-103349502D01*
X111629005Y-103413181D01*
X111567682Y-103446666D01*
X111541324Y-103449500D01*
X103099773Y-103449500D01*
X103032734Y-103429815D01*
X102986979Y-103377011D01*
X102979998Y-103357594D01*
X102977830Y-103349502D01*
X102966392Y-103306814D01*
X102900500Y-103192686D01*
X102807314Y-103099500D01*
X102750250Y-103066554D01*
X102693187Y-103033608D01*
X102629539Y-103016554D01*
X102565892Y-102999500D01*
X102434108Y-102999500D01*
X102306812Y-103033608D01*
X102192686Y-103099500D01*
X102192683Y-103099502D01*
X102099502Y-103192683D01*
X102099500Y-103192686D01*
X102033608Y-103306812D01*
X101999500Y-103434108D01*
X90757021Y-103434108D01*
X90839375Y-103379081D01*
X90841445Y-103377011D01*
X90880157Y-103338300D01*
X90979078Y-103239378D01*
X90979081Y-103239375D01*
X91088847Y-103075099D01*
X91164455Y-102892564D01*
X91203000Y-102698787D01*
X91203000Y-102501213D01*
X91203000Y-102501210D01*
X91164456Y-102307441D01*
X91164455Y-102307440D01*
X91164455Y-102307436D01*
X91130516Y-102225500D01*
X91088850Y-102124907D01*
X91088843Y-102124894D01*
X90979081Y-101960625D01*
X90979078Y-101960621D01*
X90839378Y-101820921D01*
X90839374Y-101820918D01*
X90675105Y-101711156D01*
X90675092Y-101711149D01*
X90492568Y-101635546D01*
X90492558Y-101635543D01*
X90298789Y-101597000D01*
X90298787Y-101597000D01*
X90101213Y-101597000D01*
X90101211Y-101597000D01*
X89907441Y-101635543D01*
X89907431Y-101635546D01*
X89724907Y-101711149D01*
X89724894Y-101711156D01*
X89560625Y-101820918D01*
X89560621Y-101820921D01*
X89420921Y-101960621D01*
X89420918Y-101960625D01*
X89311156Y-102124894D01*
X89311149Y-102124907D01*
X89235546Y-102307431D01*
X89235543Y-102307441D01*
X89197000Y-102501210D01*
X89197000Y-102501213D01*
X89197000Y-102698787D01*
X89197000Y-102698789D01*
X89196999Y-102698789D01*
X88203000Y-102698789D01*
X88203000Y-101777749D01*
X88202999Y-101777747D01*
X88191368Y-101719270D01*
X88191367Y-101719269D01*
X88147052Y-101652947D01*
X88080730Y-101608632D01*
X88080729Y-101608631D01*
X88022252Y-101597000D01*
X88022248Y-101597000D01*
X86377752Y-101597000D01*
X86377747Y-101597000D01*
X86319270Y-101608631D01*
X86319269Y-101608632D01*
X86252947Y-101652947D01*
X86208632Y-101719269D01*
X86208631Y-101719270D01*
X86197000Y-101777747D01*
X84063190Y-101777747D01*
X84156959Y-101683979D01*
X84217751Y-101623186D01*
X84217756Y-101623181D01*
X84359442Y-101438532D01*
X84475815Y-101236969D01*
X84564882Y-101021940D01*
X84625121Y-100797126D01*
X84655500Y-100566372D01*
X84655500Y-100333628D01*
X84625121Y-100102874D01*
X84564882Y-99878060D01*
X84564879Y-99878052D01*
X84490627Y-99698789D01*
X86196999Y-99698789D01*
X86235543Y-99892558D01*
X86235546Y-99892568D01*
X86311149Y-100075092D01*
X86311156Y-100075105D01*
X86420918Y-100239374D01*
X86420921Y-100239378D01*
X86560621Y-100379078D01*
X86560625Y-100379081D01*
X86724894Y-100488843D01*
X86724907Y-100488850D01*
X86888984Y-100556812D01*
X86907436Y-100564455D01*
X86907440Y-100564455D01*
X86907441Y-100564456D01*
X87101210Y-100603000D01*
X87101213Y-100603000D01*
X87298789Y-100603000D01*
X87482876Y-100566382D01*
X87492564Y-100564455D01*
X87675099Y-100488847D01*
X87839375Y-100379081D01*
X87979081Y-100239375D01*
X88088847Y-100075099D01*
X88164455Y-99892564D01*
X88203000Y-99698789D01*
X89196999Y-99698789D01*
X89235543Y-99892558D01*
X89235546Y-99892568D01*
X89311149Y-100075092D01*
X89311156Y-100075105D01*
X89420918Y-100239374D01*
X89420921Y-100239378D01*
X89560621Y-100379078D01*
X89560625Y-100379081D01*
X89724894Y-100488843D01*
X89724907Y-100488850D01*
X89888984Y-100556812D01*
X89907436Y-100564455D01*
X89907440Y-100564455D01*
X89907441Y-100564456D01*
X90101210Y-100603000D01*
X90101213Y-100603000D01*
X90298789Y-100603000D01*
X90482876Y-100566382D01*
X90492564Y-100564455D01*
X90675099Y-100488847D01*
X90839375Y-100379081D01*
X90979081Y-100239375D01*
X91088847Y-100075099D01*
X91164455Y-99892564D01*
X91203000Y-99698787D01*
X91203000Y-99501213D01*
X91203000Y-99501210D01*
X91164456Y-99307441D01*
X91164455Y-99307440D01*
X91164455Y-99307436D01*
X91151771Y-99276813D01*
X91088850Y-99124907D01*
X91088843Y-99124894D01*
X90979081Y-98960625D01*
X90979078Y-98960621D01*
X90839378Y-98820921D01*
X90839374Y-98820918D01*
X90675105Y-98711156D01*
X90675092Y-98711149D01*
X90492568Y-98635546D01*
X90492558Y-98635543D01*
X90298789Y-98597000D01*
X90298787Y-98597000D01*
X90101213Y-98597000D01*
X90101211Y-98597000D01*
X89907441Y-98635543D01*
X89907431Y-98635546D01*
X89724907Y-98711149D01*
X89724894Y-98711156D01*
X89560625Y-98820918D01*
X89560621Y-98820921D01*
X89420921Y-98960621D01*
X89420918Y-98960625D01*
X89311156Y-99124894D01*
X89311149Y-99124907D01*
X89235546Y-99307431D01*
X89235543Y-99307441D01*
X89197000Y-99501210D01*
X89197000Y-99501213D01*
X89197000Y-99698787D01*
X89197000Y-99698789D01*
X89196999Y-99698789D01*
X88203000Y-99698789D01*
X88203000Y-99698787D01*
X88203000Y-99501213D01*
X88203000Y-99501210D01*
X88164456Y-99307441D01*
X88164455Y-99307440D01*
X88164455Y-99307436D01*
X88151771Y-99276813D01*
X88088850Y-99124907D01*
X88088843Y-99124894D01*
X87979081Y-98960625D01*
X87979078Y-98960621D01*
X87839378Y-98820921D01*
X87839374Y-98820918D01*
X87675105Y-98711156D01*
X87675092Y-98711149D01*
X87492568Y-98635546D01*
X87492558Y-98635543D01*
X87298789Y-98597000D01*
X87298787Y-98597000D01*
X87101213Y-98597000D01*
X87101211Y-98597000D01*
X86907441Y-98635543D01*
X86907431Y-98635546D01*
X86724907Y-98711149D01*
X86724894Y-98711156D01*
X86560625Y-98820918D01*
X86560621Y-98820921D01*
X86420921Y-98960621D01*
X86420918Y-98960625D01*
X86311156Y-99124894D01*
X86311149Y-99124907D01*
X86235546Y-99307431D01*
X86235543Y-99307441D01*
X86197000Y-99501210D01*
X86197000Y-99501213D01*
X86197000Y-99698787D01*
X86197000Y-99698789D01*
X86196999Y-99698789D01*
X84490627Y-99698789D01*
X84475819Y-99663039D01*
X84475811Y-99663023D01*
X84414669Y-99557123D01*
X84414668Y-99557122D01*
X84359442Y-99461468D01*
X84241249Y-99307436D01*
X84217757Y-99276820D01*
X84217751Y-99276813D01*
X84053186Y-99112248D01*
X84053179Y-99112242D01*
X83868540Y-98970564D01*
X83868538Y-98970562D01*
X83868532Y-98970558D01*
X83868527Y-98970555D01*
X83868524Y-98970553D01*
X83666976Y-98854188D01*
X83666960Y-98854180D01*
X83451947Y-98765120D01*
X83250540Y-98711153D01*
X83227126Y-98704879D01*
X83227125Y-98704878D01*
X83227122Y-98704878D01*
X82996382Y-98674501D01*
X82996377Y-98674500D01*
X82996372Y-98674500D01*
X82763628Y-98674500D01*
X82763622Y-98674500D01*
X82763617Y-98674501D01*
X82532877Y-98704878D01*
X82308052Y-98765120D01*
X82093039Y-98854180D01*
X82093023Y-98854188D01*
X81891475Y-98970553D01*
X81891459Y-98970564D01*
X81706820Y-99112242D01*
X81706813Y-99112248D01*
X81542248Y-99276813D01*
X81542242Y-99276820D01*
X81400564Y-99461459D01*
X81400553Y-99461475D01*
X81284188Y-99663023D01*
X81284180Y-99663039D01*
X81195120Y-99878052D01*
X81134878Y-100102877D01*
X81104501Y-100333617D01*
X81104500Y-100333634D01*
X78500500Y-100333634D01*
X78500500Y-96698789D01*
X86196999Y-96698789D01*
X86235543Y-96892558D01*
X86235546Y-96892568D01*
X86311149Y-97075092D01*
X86311156Y-97075105D01*
X86420918Y-97239374D01*
X86420921Y-97239378D01*
X86560621Y-97379078D01*
X86560625Y-97379081D01*
X86724894Y-97488843D01*
X86724907Y-97488850D01*
X86907431Y-97564453D01*
X86907436Y-97564455D01*
X86907440Y-97564455D01*
X86907441Y-97564456D01*
X87101210Y-97603000D01*
X87101213Y-97603000D01*
X87298789Y-97603000D01*
X87429154Y-97577068D01*
X87492564Y-97564455D01*
X87675099Y-97488847D01*
X87839375Y-97379081D01*
X87979081Y-97239375D01*
X88088847Y-97075099D01*
X88164455Y-96892564D01*
X88203000Y-96698789D01*
X89196999Y-96698789D01*
X89235543Y-96892558D01*
X89235546Y-96892568D01*
X89311149Y-97075092D01*
X89311156Y-97075105D01*
X89420918Y-97239374D01*
X89420921Y-97239378D01*
X89560621Y-97379078D01*
X89560625Y-97379081D01*
X89724894Y-97488843D01*
X89724907Y-97488850D01*
X89907431Y-97564453D01*
X89907436Y-97564455D01*
X89907440Y-97564455D01*
X89907441Y-97564456D01*
X90101210Y-97603000D01*
X90101213Y-97603000D01*
X90298789Y-97603000D01*
X90429154Y-97577068D01*
X90492564Y-97564455D01*
X90675099Y-97488847D01*
X90839375Y-97379081D01*
X90979081Y-97239375D01*
X91088847Y-97075099D01*
X91164455Y-96892564D01*
X91203000Y-96698787D01*
X91203000Y-96501213D01*
X91203000Y-96501210D01*
X91164456Y-96307441D01*
X91164455Y-96307440D01*
X91164455Y-96307436D01*
X91099026Y-96149475D01*
X91088850Y-96124907D01*
X91088843Y-96124894D01*
X90979081Y-95960625D01*
X90979078Y-95960621D01*
X90839378Y-95820921D01*
X90839374Y-95820918D01*
X90675105Y-95711156D01*
X90675092Y-95711149D01*
X90492568Y-95635546D01*
X90492558Y-95635543D01*
X90298789Y-95597000D01*
X90298787Y-95597000D01*
X90101213Y-95597000D01*
X90101211Y-95597000D01*
X89907441Y-95635543D01*
X89907431Y-95635546D01*
X89724907Y-95711149D01*
X89724894Y-95711156D01*
X89560625Y-95820918D01*
X89560621Y-95820921D01*
X89420921Y-95960621D01*
X89420918Y-95960625D01*
X89311156Y-96124894D01*
X89311149Y-96124907D01*
X89235546Y-96307431D01*
X89235543Y-96307441D01*
X89197000Y-96501210D01*
X89197000Y-96501213D01*
X89197000Y-96698787D01*
X89197000Y-96698789D01*
X89196999Y-96698789D01*
X88203000Y-96698789D01*
X88203000Y-96698787D01*
X88203000Y-96501213D01*
X88203000Y-96501210D01*
X88164456Y-96307441D01*
X88164455Y-96307440D01*
X88164455Y-96307436D01*
X88099026Y-96149475D01*
X88088850Y-96124907D01*
X88088843Y-96124894D01*
X87979081Y-95960625D01*
X87979078Y-95960621D01*
X87839378Y-95820921D01*
X87839374Y-95820918D01*
X87675105Y-95711156D01*
X87675092Y-95711149D01*
X87492568Y-95635546D01*
X87492558Y-95635543D01*
X87298789Y-95597000D01*
X87298787Y-95597000D01*
X87101213Y-95597000D01*
X87101211Y-95597000D01*
X86907441Y-95635543D01*
X86907431Y-95635546D01*
X86724907Y-95711149D01*
X86724894Y-95711156D01*
X86560625Y-95820918D01*
X86560621Y-95820921D01*
X86420921Y-95960621D01*
X86420918Y-95960625D01*
X86311156Y-96124894D01*
X86311149Y-96124907D01*
X86235546Y-96307431D01*
X86235543Y-96307441D01*
X86197000Y-96501210D01*
X86197000Y-96501213D01*
X86197000Y-96698787D01*
X86197000Y-96698789D01*
X86196999Y-96698789D01*
X78500500Y-96698789D01*
X78500500Y-95434108D01*
X127249500Y-95434108D01*
X127249500Y-95565892D01*
X127257835Y-95597000D01*
X127283608Y-95693187D01*
X127293979Y-95711149D01*
X127349500Y-95807314D01*
X127442686Y-95900500D01*
X127556814Y-95966392D01*
X127684108Y-96000500D01*
X127684110Y-96000500D01*
X127774167Y-96000500D01*
X127803607Y-96009144D01*
X127833594Y-96015668D01*
X127838609Y-96019422D01*
X127841206Y-96020185D01*
X127861848Y-96036819D01*
X127913181Y-96088152D01*
X127946666Y-96149475D01*
X127949500Y-96175833D01*
X127949500Y-100291323D01*
X127929815Y-100358362D01*
X127913182Y-100379004D01*
X127849500Y-100442686D01*
X127783608Y-100556812D01*
X127749500Y-100684108D01*
X127749500Y-100815891D01*
X127783608Y-100943187D01*
X127816554Y-101000250D01*
X127849500Y-101057314D01*
X127942686Y-101150500D01*
X128056814Y-101216392D01*
X128184108Y-101250500D01*
X128184110Y-101250500D01*
X128315890Y-101250500D01*
X128315892Y-101250500D01*
X128443186Y-101216392D01*
X128557314Y-101150500D01*
X128650500Y-101057314D01*
X128716392Y-100943186D01*
X128750500Y-100815892D01*
X128750500Y-100684108D01*
X128716392Y-100556814D01*
X128650500Y-100442686D01*
X128586818Y-100379004D01*
X128553334Y-100317680D01*
X128550500Y-100291323D01*
X128550500Y-95960440D01*
X128550500Y-95960438D01*
X128530022Y-95884012D01*
X128490460Y-95815489D01*
X128286819Y-95611848D01*
X128253334Y-95550525D01*
X128250500Y-95524167D01*
X128250500Y-95434110D01*
X128250500Y-95434108D01*
X128216392Y-95306814D01*
X128150500Y-95192686D01*
X128057314Y-95099500D01*
X128000250Y-95066554D01*
X127943187Y-95033608D01*
X127879539Y-95016554D01*
X127815892Y-94999500D01*
X127684108Y-94999500D01*
X127556812Y-95033608D01*
X127442686Y-95099500D01*
X127442683Y-95099502D01*
X127349502Y-95192683D01*
X127349500Y-95192686D01*
X127283608Y-95306812D01*
X127249500Y-95434108D01*
X78500500Y-95434108D01*
X78500500Y-93698789D01*
X86196999Y-93698789D01*
X86235543Y-93892558D01*
X86235546Y-93892568D01*
X86311149Y-94075092D01*
X86311156Y-94075105D01*
X86420918Y-94239374D01*
X86420921Y-94239378D01*
X86560621Y-94379078D01*
X86560625Y-94379081D01*
X86724894Y-94488843D01*
X86724907Y-94488850D01*
X86907431Y-94564453D01*
X86907436Y-94564455D01*
X86907440Y-94564455D01*
X86907441Y-94564456D01*
X87101210Y-94603000D01*
X87101213Y-94603000D01*
X87298789Y-94603000D01*
X87429154Y-94577068D01*
X87492564Y-94564455D01*
X87675099Y-94488847D01*
X87839375Y-94379081D01*
X87979081Y-94239375D01*
X88088847Y-94075099D01*
X88164455Y-93892564D01*
X88203000Y-93698789D01*
X89196999Y-93698789D01*
X89235543Y-93892558D01*
X89235546Y-93892568D01*
X89311149Y-94075092D01*
X89311156Y-94075105D01*
X89420918Y-94239374D01*
X89420921Y-94239378D01*
X89560621Y-94379078D01*
X89560625Y-94379081D01*
X89724894Y-94488843D01*
X89724907Y-94488850D01*
X89907431Y-94564453D01*
X89907436Y-94564455D01*
X89907440Y-94564455D01*
X89907441Y-94564456D01*
X90101210Y-94603000D01*
X90101213Y-94603000D01*
X90298789Y-94603000D01*
X90429154Y-94577068D01*
X90492564Y-94564455D01*
X90675099Y-94488847D01*
X90839375Y-94379081D01*
X90979081Y-94239375D01*
X91088847Y-94075099D01*
X91164455Y-93892564D01*
X91203000Y-93698787D01*
X91203000Y-93501213D01*
X91203000Y-93501210D01*
X91164456Y-93307441D01*
X91164455Y-93307440D01*
X91164455Y-93307436D01*
X91164453Y-93307431D01*
X91088850Y-93124907D01*
X91088843Y-93124894D01*
X90979081Y-92960625D01*
X90979078Y-92960621D01*
X90839378Y-92820921D01*
X90839374Y-92820918D01*
X90675105Y-92711156D01*
X90675092Y-92711149D01*
X90492568Y-92635546D01*
X90492558Y-92635543D01*
X90298789Y-92597000D01*
X90298787Y-92597000D01*
X90101213Y-92597000D01*
X90101211Y-92597000D01*
X89907441Y-92635543D01*
X89907431Y-92635546D01*
X89724907Y-92711149D01*
X89724894Y-92711156D01*
X89560625Y-92820918D01*
X89560621Y-92820921D01*
X89420921Y-92960621D01*
X89420918Y-92960625D01*
X89311156Y-93124894D01*
X89311149Y-93124907D01*
X89235546Y-93307431D01*
X89235543Y-93307441D01*
X89197000Y-93501210D01*
X89197000Y-93501213D01*
X89197000Y-93698787D01*
X89197000Y-93698789D01*
X89196999Y-93698789D01*
X88203000Y-93698789D01*
X88203000Y-93698787D01*
X88203000Y-93501213D01*
X88203000Y-93501210D01*
X88164456Y-93307441D01*
X88164455Y-93307440D01*
X88164455Y-93307436D01*
X88164453Y-93307431D01*
X88088850Y-93124907D01*
X88088843Y-93124894D01*
X87979081Y-92960625D01*
X87979078Y-92960621D01*
X87839378Y-92820921D01*
X87839374Y-92820918D01*
X87675105Y-92711156D01*
X87675092Y-92711149D01*
X87492568Y-92635546D01*
X87492558Y-92635543D01*
X87298789Y-92597000D01*
X87298787Y-92597000D01*
X87101213Y-92597000D01*
X87101211Y-92597000D01*
X86907441Y-92635543D01*
X86907431Y-92635546D01*
X86724907Y-92711149D01*
X86724894Y-92711156D01*
X86560625Y-92820918D01*
X86560621Y-92820921D01*
X86420921Y-92960621D01*
X86420918Y-92960625D01*
X86311156Y-93124894D01*
X86311149Y-93124907D01*
X86235546Y-93307431D01*
X86235543Y-93307441D01*
X86197000Y-93501210D01*
X86197000Y-93501213D01*
X86197000Y-93698787D01*
X86197000Y-93698789D01*
X86196999Y-93698789D01*
X78500500Y-93698789D01*
X78500500Y-90698789D01*
X86196999Y-90698789D01*
X86235543Y-90892558D01*
X86235546Y-90892568D01*
X86311149Y-91075092D01*
X86311156Y-91075105D01*
X86420918Y-91239374D01*
X86420921Y-91239378D01*
X86560621Y-91379078D01*
X86560625Y-91379081D01*
X86724894Y-91488843D01*
X86724907Y-91488850D01*
X86907431Y-91564453D01*
X86907436Y-91564455D01*
X86907440Y-91564455D01*
X86907441Y-91564456D01*
X87101210Y-91603000D01*
X87101213Y-91603000D01*
X87298789Y-91603000D01*
X87429154Y-91577068D01*
X87492564Y-91564455D01*
X87675099Y-91488847D01*
X87839375Y-91379081D01*
X87979081Y-91239375D01*
X88088847Y-91075099D01*
X88164455Y-90892564D01*
X88181412Y-90807316D01*
X88203000Y-90698789D01*
X89196999Y-90698789D01*
X89235543Y-90892558D01*
X89235546Y-90892568D01*
X89311149Y-91075092D01*
X89311156Y-91075105D01*
X89420918Y-91239374D01*
X89420921Y-91239378D01*
X89560621Y-91379078D01*
X89560625Y-91379081D01*
X89724894Y-91488843D01*
X89724907Y-91488850D01*
X89907431Y-91564453D01*
X89907436Y-91564455D01*
X89907440Y-91564455D01*
X89907441Y-91564456D01*
X90101210Y-91603000D01*
X90101213Y-91603000D01*
X90298789Y-91603000D01*
X90429154Y-91577068D01*
X90492564Y-91564455D01*
X90675099Y-91488847D01*
X90839375Y-91379081D01*
X90979081Y-91239375D01*
X91088847Y-91075099D01*
X91164455Y-90892564D01*
X91181412Y-90807316D01*
X91203000Y-90698789D01*
X91203000Y-90501210D01*
X91202999Y-90501208D01*
X91192848Y-90450172D01*
X91189653Y-90434108D01*
X101749500Y-90434108D01*
X101749500Y-90565891D01*
X101783608Y-90693187D01*
X101810902Y-90740460D01*
X101849500Y-90807314D01*
X101942686Y-90900500D01*
X102056814Y-90966392D01*
X102184108Y-91000500D01*
X102184110Y-91000500D01*
X102315890Y-91000500D01*
X102315892Y-91000500D01*
X102443186Y-90966392D01*
X102557314Y-90900500D01*
X102620995Y-90836819D01*
X102682318Y-90803334D01*
X102708676Y-90800500D01*
X112789560Y-90800500D01*
X112789562Y-90800500D01*
X112865989Y-90780021D01*
X112934511Y-90740460D01*
X112990460Y-90684511D01*
X113138152Y-90536817D01*
X113199473Y-90503334D01*
X113225832Y-90500500D01*
X113315890Y-90500500D01*
X113315892Y-90500500D01*
X113443186Y-90466392D01*
X113557314Y-90400500D01*
X113650500Y-90307314D01*
X113716392Y-90193186D01*
X113750500Y-90065892D01*
X113750500Y-89934108D01*
X113716392Y-89806814D01*
X113650500Y-89692686D01*
X113557314Y-89599500D01*
X113499100Y-89565890D01*
X113443187Y-89533608D01*
X113379539Y-89516554D01*
X113315892Y-89499500D01*
X113184108Y-89499500D01*
X113056812Y-89533608D01*
X112942686Y-89599500D01*
X112942683Y-89599502D01*
X112849502Y-89692683D01*
X112849500Y-89692686D01*
X112783608Y-89806812D01*
X112749500Y-89934108D01*
X112749500Y-90024165D01*
X112740856Y-90053601D01*
X112734333Y-90083591D01*
X112730577Y-90088607D01*
X112729815Y-90091204D01*
X112713182Y-90111845D01*
X112661848Y-90163180D01*
X112600525Y-90196666D01*
X112574166Y-90199500D01*
X105287207Y-90199500D01*
X105220168Y-90179815D01*
X105174413Y-90127011D01*
X105164469Y-90057853D01*
X105193494Y-89994297D01*
X105225207Y-89968113D01*
X105319850Y-89913470D01*
X105342315Y-89900500D01*
X105435501Y-89807314D01*
X105501393Y-89693186D01*
X105535501Y-89565892D01*
X105535501Y-89434108D01*
X105501393Y-89306814D01*
X105435501Y-89192686D01*
X105342315Y-89099500D01*
X105285251Y-89066554D01*
X105228188Y-89033608D01*
X105164540Y-89016554D01*
X105100893Y-88999500D01*
X104969109Y-88999500D01*
X104841813Y-89033608D01*
X104727687Y-89099500D01*
X104727684Y-89099502D01*
X104664006Y-89163181D01*
X104602683Y-89196666D01*
X104576325Y-89199500D01*
X102743677Y-89199500D01*
X102676638Y-89179815D01*
X102655996Y-89163181D01*
X102592317Y-89099502D01*
X102592315Y-89099500D01*
X102535251Y-89066554D01*
X102478188Y-89033608D01*
X102414540Y-89016554D01*
X102350893Y-88999500D01*
X102219109Y-88999500D01*
X102091813Y-89033608D01*
X101977687Y-89099500D01*
X101977684Y-89099502D01*
X101884503Y-89192683D01*
X101884501Y-89192686D01*
X101818609Y-89306812D01*
X101784501Y-89434108D01*
X101784501Y-89565891D01*
X101818609Y-89693187D01*
X101828980Y-89711149D01*
X101884501Y-89807314D01*
X101884503Y-89807316D01*
X101976768Y-89899581D01*
X102010253Y-89960904D01*
X102005269Y-90030596D01*
X101963397Y-90086529D01*
X101951091Y-90094647D01*
X101942689Y-90099498D01*
X101942683Y-90099502D01*
X101849502Y-90192683D01*
X101849500Y-90192686D01*
X101783608Y-90306812D01*
X101749500Y-90434108D01*
X91189653Y-90434108D01*
X91164456Y-90307441D01*
X91164455Y-90307440D01*
X91164455Y-90307436D01*
X91164405Y-90307316D01*
X91088850Y-90124907D01*
X91088843Y-90124894D01*
X90979081Y-89960625D01*
X90979078Y-89960621D01*
X90839378Y-89820921D01*
X90839374Y-89820918D01*
X90675105Y-89711156D01*
X90675092Y-89711149D01*
X90492568Y-89635546D01*
X90492558Y-89635543D01*
X90298789Y-89597000D01*
X90298787Y-89597000D01*
X90101213Y-89597000D01*
X90101211Y-89597000D01*
X89907441Y-89635543D01*
X89907431Y-89635546D01*
X89724907Y-89711149D01*
X89724894Y-89711156D01*
X89560625Y-89820918D01*
X89560621Y-89820921D01*
X89420921Y-89960621D01*
X89420918Y-89960625D01*
X89311156Y-90124894D01*
X89311149Y-90124907D01*
X89235546Y-90307431D01*
X89235543Y-90307441D01*
X89197000Y-90501210D01*
X89197000Y-90501213D01*
X89197000Y-90698787D01*
X89197000Y-90698789D01*
X89196999Y-90698789D01*
X88203000Y-90698789D01*
X88203000Y-90501210D01*
X88164456Y-90307441D01*
X88164455Y-90307440D01*
X88164455Y-90307436D01*
X88164405Y-90307316D01*
X88088850Y-90124907D01*
X88088843Y-90124894D01*
X87979081Y-89960625D01*
X87979078Y-89960621D01*
X87839378Y-89820921D01*
X87839374Y-89820918D01*
X87675105Y-89711156D01*
X87675092Y-89711149D01*
X87492568Y-89635546D01*
X87492558Y-89635543D01*
X87298789Y-89597000D01*
X87298787Y-89597000D01*
X87101213Y-89597000D01*
X87101211Y-89597000D01*
X86907441Y-89635543D01*
X86907431Y-89635546D01*
X86724907Y-89711149D01*
X86724894Y-89711156D01*
X86560625Y-89820918D01*
X86560621Y-89820921D01*
X86420921Y-89960621D01*
X86420918Y-89960625D01*
X86311156Y-90124894D01*
X86311149Y-90124907D01*
X86235546Y-90307431D01*
X86235543Y-90307441D01*
X86197000Y-90501210D01*
X86197000Y-90501213D01*
X86197000Y-90698787D01*
X86197000Y-90698789D01*
X86196999Y-90698789D01*
X78500500Y-90698789D01*
X78500500Y-87698789D01*
X86196999Y-87698789D01*
X86235543Y-87892558D01*
X86235546Y-87892568D01*
X86311149Y-88075092D01*
X86311156Y-88075105D01*
X86420918Y-88239374D01*
X86420921Y-88239378D01*
X86560621Y-88379078D01*
X86560625Y-88379081D01*
X86724894Y-88488843D01*
X86724907Y-88488850D01*
X86907431Y-88564453D01*
X86907436Y-88564455D01*
X86907440Y-88564455D01*
X86907441Y-88564456D01*
X87101210Y-88603000D01*
X87101213Y-88603000D01*
X87298789Y-88603000D01*
X87429154Y-88577068D01*
X87492564Y-88564455D01*
X87675099Y-88488847D01*
X87839375Y-88379081D01*
X87979081Y-88239375D01*
X88088847Y-88075099D01*
X88164455Y-87892564D01*
X88203000Y-87698789D01*
X89196999Y-87698789D01*
X89235543Y-87892558D01*
X89235546Y-87892568D01*
X89311149Y-88075092D01*
X89311156Y-88075105D01*
X89420918Y-88239374D01*
X89420921Y-88239378D01*
X89560621Y-88379078D01*
X89560625Y-88379081D01*
X89724894Y-88488843D01*
X89724907Y-88488850D01*
X89907431Y-88564453D01*
X89907436Y-88564455D01*
X89907440Y-88564455D01*
X89907441Y-88564456D01*
X90101210Y-88603000D01*
X90101213Y-88603000D01*
X90298789Y-88603000D01*
X90429154Y-88577068D01*
X90492564Y-88564455D01*
X90675099Y-88488847D01*
X90839375Y-88379081D01*
X90979081Y-88239375D01*
X91088847Y-88075099D01*
X91164455Y-87892564D01*
X91203000Y-87698787D01*
X91203000Y-87501213D01*
X91203000Y-87501210D01*
X91164456Y-87307441D01*
X91164455Y-87307440D01*
X91164455Y-87307436D01*
X91164453Y-87307431D01*
X91088850Y-87124907D01*
X91088843Y-87124894D01*
X90979081Y-86960625D01*
X90979078Y-86960621D01*
X90839378Y-86820921D01*
X90839374Y-86820918D01*
X90675105Y-86711156D01*
X90675092Y-86711149D01*
X90492568Y-86635546D01*
X90492558Y-86635543D01*
X90298789Y-86597000D01*
X90298787Y-86597000D01*
X90101213Y-86597000D01*
X90101211Y-86597000D01*
X89907441Y-86635543D01*
X89907431Y-86635546D01*
X89724907Y-86711149D01*
X89724894Y-86711156D01*
X89560625Y-86820918D01*
X89560621Y-86820921D01*
X89420921Y-86960621D01*
X89420918Y-86960625D01*
X89311156Y-87124894D01*
X89311149Y-87124907D01*
X89235546Y-87307431D01*
X89235543Y-87307441D01*
X89197000Y-87501210D01*
X89197000Y-87501213D01*
X89197000Y-87698787D01*
X89197000Y-87698789D01*
X89196999Y-87698789D01*
X88203000Y-87698789D01*
X88203000Y-87698787D01*
X88203000Y-87501213D01*
X88203000Y-87501210D01*
X88164456Y-87307441D01*
X88164455Y-87307440D01*
X88164455Y-87307436D01*
X88164453Y-87307431D01*
X88088850Y-87124907D01*
X88088843Y-87124894D01*
X87979081Y-86960625D01*
X87979078Y-86960621D01*
X87839378Y-86820921D01*
X87839374Y-86820918D01*
X87675105Y-86711156D01*
X87675092Y-86711149D01*
X87492568Y-86635546D01*
X87492558Y-86635543D01*
X87298789Y-86597000D01*
X87298787Y-86597000D01*
X87101213Y-86597000D01*
X87101211Y-86597000D01*
X86907441Y-86635543D01*
X86907431Y-86635546D01*
X86724907Y-86711149D01*
X86724894Y-86711156D01*
X86560625Y-86820918D01*
X86560621Y-86820921D01*
X86420921Y-86960621D01*
X86420918Y-86960625D01*
X86311156Y-87124894D01*
X86311149Y-87124907D01*
X86235546Y-87307431D01*
X86235543Y-87307441D01*
X86197000Y-87501210D01*
X86197000Y-87501213D01*
X86197000Y-87698787D01*
X86197000Y-87698789D01*
X86196999Y-87698789D01*
X78500500Y-87698789D01*
X78500500Y-83633634D01*
X81104500Y-83633634D01*
X81104500Y-83866365D01*
X81104501Y-83866382D01*
X81116908Y-83960625D01*
X81134879Y-84097126D01*
X81142319Y-84124894D01*
X81195120Y-84321947D01*
X81284180Y-84536960D01*
X81284188Y-84536976D01*
X81400553Y-84738524D01*
X81400564Y-84738540D01*
X81542242Y-84923179D01*
X81542248Y-84923186D01*
X81706813Y-85087751D01*
X81706819Y-85087756D01*
X81891468Y-85229442D01*
X81891475Y-85229446D01*
X82093023Y-85345811D01*
X82093039Y-85345819D01*
X82308052Y-85434879D01*
X82308054Y-85434879D01*
X82308060Y-85434882D01*
X82532874Y-85495121D01*
X82763628Y-85525500D01*
X82763635Y-85525500D01*
X82996365Y-85525500D01*
X82996372Y-85525500D01*
X83227126Y-85495121D01*
X83451940Y-85434882D01*
X83586664Y-85379078D01*
X83666960Y-85345819D01*
X83666963Y-85345817D01*
X83666969Y-85345815D01*
X83868532Y-85229442D01*
X84053181Y-85087756D01*
X84217756Y-84923181D01*
X84359442Y-84738532D01*
X84382388Y-84698789D01*
X86196999Y-84698789D01*
X86235543Y-84892558D01*
X86235546Y-84892568D01*
X86311149Y-85075092D01*
X86311156Y-85075105D01*
X86420918Y-85239374D01*
X86420921Y-85239378D01*
X86560621Y-85379078D01*
X86560625Y-85379081D01*
X86724894Y-85488843D01*
X86724907Y-85488850D01*
X86907431Y-85564453D01*
X86907436Y-85564455D01*
X86907440Y-85564455D01*
X86907441Y-85564456D01*
X87101210Y-85603000D01*
X87101213Y-85603000D01*
X87298789Y-85603000D01*
X87429154Y-85577068D01*
X87492564Y-85564455D01*
X87675099Y-85488847D01*
X87839375Y-85379081D01*
X87979081Y-85239375D01*
X88088847Y-85075099D01*
X88164455Y-84892564D01*
X88203000Y-84698789D01*
X89196999Y-84698789D01*
X89235543Y-84892558D01*
X89235546Y-84892568D01*
X89311149Y-85075092D01*
X89311156Y-85075105D01*
X89420918Y-85239374D01*
X89420921Y-85239378D01*
X89560621Y-85379078D01*
X89560625Y-85379081D01*
X89724894Y-85488843D01*
X89724907Y-85488850D01*
X89907431Y-85564453D01*
X89907436Y-85564455D01*
X89907440Y-85564455D01*
X89907441Y-85564456D01*
X90101210Y-85603000D01*
X90101213Y-85603000D01*
X90298789Y-85603000D01*
X90429154Y-85577068D01*
X90492564Y-85564455D01*
X90675099Y-85488847D01*
X90839375Y-85379081D01*
X90979081Y-85239375D01*
X91088847Y-85075099D01*
X91164455Y-84892564D01*
X91203000Y-84698787D01*
X91203000Y-84501213D01*
X91203000Y-84501210D01*
X91164456Y-84307441D01*
X91164455Y-84307440D01*
X91164455Y-84307436D01*
X91164453Y-84307431D01*
X91088850Y-84124907D01*
X91088843Y-84124894D01*
X90979081Y-83960625D01*
X90979078Y-83960621D01*
X90839378Y-83820921D01*
X90839374Y-83820918D01*
X90675105Y-83711156D01*
X90675092Y-83711149D01*
X90492568Y-83635546D01*
X90492558Y-83635543D01*
X90298789Y-83597000D01*
X90298787Y-83597000D01*
X90101213Y-83597000D01*
X90101211Y-83597000D01*
X89907441Y-83635543D01*
X89907431Y-83635546D01*
X89724907Y-83711149D01*
X89724894Y-83711156D01*
X89560625Y-83820918D01*
X89560621Y-83820921D01*
X89420921Y-83960621D01*
X89420918Y-83960625D01*
X89311156Y-84124894D01*
X89311149Y-84124907D01*
X89235546Y-84307431D01*
X89235543Y-84307441D01*
X89197000Y-84501210D01*
X89197000Y-84501213D01*
X89197000Y-84698787D01*
X89197000Y-84698789D01*
X89196999Y-84698789D01*
X88203000Y-84698789D01*
X88203000Y-84698787D01*
X88203000Y-84501213D01*
X88203000Y-84501210D01*
X88164456Y-84307441D01*
X88164455Y-84307440D01*
X88164455Y-84307436D01*
X88164453Y-84307431D01*
X88088850Y-84124907D01*
X88088843Y-84124894D01*
X87979081Y-83960625D01*
X87979078Y-83960621D01*
X87839378Y-83820921D01*
X87839374Y-83820918D01*
X87675105Y-83711156D01*
X87675092Y-83711149D01*
X87492568Y-83635546D01*
X87492558Y-83635543D01*
X87298789Y-83597000D01*
X87298787Y-83597000D01*
X87101213Y-83597000D01*
X87101211Y-83597000D01*
X86907441Y-83635543D01*
X86907431Y-83635546D01*
X86724907Y-83711149D01*
X86724894Y-83711156D01*
X86560625Y-83820918D01*
X86560621Y-83820921D01*
X86420921Y-83960621D01*
X86420918Y-83960625D01*
X86311156Y-84124894D01*
X86311149Y-84124907D01*
X86235546Y-84307431D01*
X86235543Y-84307441D01*
X86197000Y-84501210D01*
X86197000Y-84501213D01*
X86197000Y-84698787D01*
X86197000Y-84698789D01*
X86196999Y-84698789D01*
X84382388Y-84698789D01*
X84475815Y-84536969D01*
X84493720Y-84493740D01*
X84512805Y-84447668D01*
X84512805Y-84447666D01*
X84564879Y-84321947D01*
X84564878Y-84321947D01*
X84564882Y-84321940D01*
X84625121Y-84097126D01*
X84655500Y-83866372D01*
X84655500Y-83633628D01*
X84625121Y-83402874D01*
X84564882Y-83178060D01*
X84564879Y-83178052D01*
X84475819Y-82963039D01*
X84475811Y-82963023D01*
X84359446Y-82761475D01*
X84359442Y-82761468D01*
X84318647Y-82708303D01*
X84217757Y-82576820D01*
X84217751Y-82576813D01*
X84053186Y-82412248D01*
X84053179Y-82412242D01*
X83868540Y-82270564D01*
X83868538Y-82270562D01*
X83868532Y-82270558D01*
X83868527Y-82270555D01*
X83868524Y-82270553D01*
X83666976Y-82154188D01*
X83666960Y-82154180D01*
X83451947Y-82065120D01*
X83227122Y-82004878D01*
X82996382Y-81974501D01*
X82996377Y-81974500D01*
X82996372Y-81974500D01*
X82763628Y-81974500D01*
X82763622Y-81974500D01*
X82763617Y-81974501D01*
X82532877Y-82004878D01*
X82308052Y-82065120D01*
X82093039Y-82154180D01*
X82093023Y-82154188D01*
X81891475Y-82270553D01*
X81891459Y-82270564D01*
X81706820Y-82412242D01*
X81706813Y-82412248D01*
X81542248Y-82576813D01*
X81542242Y-82576820D01*
X81400564Y-82761459D01*
X81400553Y-82761475D01*
X81284188Y-82963023D01*
X81284180Y-82963039D01*
X81195120Y-83178052D01*
X81134878Y-83402877D01*
X81104501Y-83633617D01*
X81104500Y-83633634D01*
X78500500Y-83633634D01*
X78500500Y-81698789D01*
X86196999Y-81698789D01*
X86235543Y-81892558D01*
X86235546Y-81892568D01*
X86311149Y-82075092D01*
X86311156Y-82075105D01*
X86420918Y-82239374D01*
X86420921Y-82239378D01*
X86560621Y-82379078D01*
X86560625Y-82379081D01*
X86724894Y-82488843D01*
X86724907Y-82488850D01*
X86907431Y-82564453D01*
X86907436Y-82564455D01*
X86907440Y-82564455D01*
X86907441Y-82564456D01*
X87101210Y-82603000D01*
X87101213Y-82603000D01*
X87298789Y-82603000D01*
X87430437Y-82576813D01*
X87492564Y-82564455D01*
X87675099Y-82488847D01*
X87839375Y-82379081D01*
X87979081Y-82239375D01*
X88088847Y-82075099D01*
X88164455Y-81892564D01*
X88203000Y-81698789D01*
X89196999Y-81698789D01*
X89235543Y-81892558D01*
X89235546Y-81892568D01*
X89311149Y-82075092D01*
X89311156Y-82075105D01*
X89420918Y-82239374D01*
X89420921Y-82239378D01*
X89560621Y-82379078D01*
X89560625Y-82379081D01*
X89724894Y-82488843D01*
X89724907Y-82488850D01*
X89907431Y-82564453D01*
X89907436Y-82564455D01*
X89907440Y-82564455D01*
X89907441Y-82564456D01*
X90101210Y-82603000D01*
X90101213Y-82603000D01*
X90298789Y-82603000D01*
X90430437Y-82576813D01*
X90492564Y-82564455D01*
X90675099Y-82488847D01*
X90839375Y-82379081D01*
X90979081Y-82239375D01*
X91088847Y-82075099D01*
X91164455Y-81892564D01*
X91203000Y-81698787D01*
X91203000Y-81501213D01*
X91203000Y-81501210D01*
X91164456Y-81307441D01*
X91164455Y-81307440D01*
X91164455Y-81307436D01*
X91164453Y-81307431D01*
X91088850Y-81124907D01*
X91088843Y-81124894D01*
X90979081Y-80960625D01*
X90979078Y-80960621D01*
X90839378Y-80820921D01*
X90839374Y-80820918D01*
X90675105Y-80711156D01*
X90675092Y-80711149D01*
X90492568Y-80635546D01*
X90492558Y-80635543D01*
X90298789Y-80597000D01*
X90298787Y-80597000D01*
X90101213Y-80597000D01*
X90101211Y-80597000D01*
X89907441Y-80635543D01*
X89907431Y-80635546D01*
X89724907Y-80711149D01*
X89724894Y-80711156D01*
X89560625Y-80820918D01*
X89560621Y-80820921D01*
X89420921Y-80960621D01*
X89420918Y-80960625D01*
X89311156Y-81124894D01*
X89311149Y-81124907D01*
X89235546Y-81307431D01*
X89235543Y-81307441D01*
X89197000Y-81501210D01*
X89197000Y-81501213D01*
X89197000Y-81698787D01*
X89197000Y-81698789D01*
X89196999Y-81698789D01*
X88203000Y-81698789D01*
X88203000Y-81698787D01*
X88203000Y-81501213D01*
X88203000Y-81501210D01*
X88164456Y-81307441D01*
X88164455Y-81307440D01*
X88164455Y-81307436D01*
X88164453Y-81307431D01*
X88088850Y-81124907D01*
X88088843Y-81124894D01*
X87979081Y-80960625D01*
X87979078Y-80960621D01*
X87839378Y-80820921D01*
X87839374Y-80820918D01*
X87675105Y-80711156D01*
X87675092Y-80711149D01*
X87492568Y-80635546D01*
X87492558Y-80635543D01*
X87298789Y-80597000D01*
X87298787Y-80597000D01*
X87101213Y-80597000D01*
X87101211Y-80597000D01*
X86907441Y-80635543D01*
X86907431Y-80635546D01*
X86724907Y-80711149D01*
X86724894Y-80711156D01*
X86560625Y-80820918D01*
X86560621Y-80820921D01*
X86420921Y-80960621D01*
X86420918Y-80960625D01*
X86311156Y-81124894D01*
X86311149Y-81124907D01*
X86235546Y-81307431D01*
X86235543Y-81307441D01*
X86197000Y-81501210D01*
X86197000Y-81501213D01*
X86197000Y-81698787D01*
X86197000Y-81698789D01*
X86196999Y-81698789D01*
X78500500Y-81698789D01*
X78500500Y-78624500D01*
X78520185Y-78557461D01*
X78572989Y-78511706D01*
X78624500Y-78500500D01*
X132081184Y-78500500D01*
X132148223Y-78520185D01*
G37*
%TD.AperFunction*%
%TD*%
M02*
