%TF.GenerationSoftware,KiCad,Pcbnew,9.0.5*%
%TF.CreationDate,2025-12-12T19:00:14-08:00*%
%TF.ProjectId,FCP_CVM,4643505f-4356-44d2-9e6b-696361645f70,rev?*%
%TF.SameCoordinates,Original*%
%TF.FileFunction,Legend,Top*%
%TF.FilePolarity,Positive*%
%FSLAX46Y46*%
G04 Gerber Fmt 4.6, Leading zero omitted, Abs format (unit mm)*
G04 Created by KiCad (PCBNEW 9.0.5) date 2025-12-12 19:00:14*
%MOMM*%
%LPD*%
G01*
G04 APERTURE LIST*
%ADD10C,0.150000*%
%ADD11C,0.152400*%
%ADD12C,0.120000*%
%ADD13C,0.127000*%
%ADD14C,0.200000*%
%ADD15C,0.000000*%
G04 APERTURE END LIST*
D10*
X128532390Y-118291792D02*
X128494295Y-118367982D01*
X128494295Y-118367982D02*
X128494295Y-118482268D01*
X128494295Y-118482268D02*
X128532390Y-118596554D01*
X128532390Y-118596554D02*
X128608580Y-118672744D01*
X128608580Y-118672744D02*
X128684771Y-118710839D01*
X128684771Y-118710839D02*
X128837152Y-118748935D01*
X128837152Y-118748935D02*
X128951438Y-118748935D01*
X128951438Y-118748935D02*
X129103819Y-118710839D01*
X129103819Y-118710839D02*
X129180009Y-118672744D01*
X129180009Y-118672744D02*
X129256200Y-118596554D01*
X129256200Y-118596554D02*
X129294295Y-118482268D01*
X129294295Y-118482268D02*
X129294295Y-118406077D01*
X129294295Y-118406077D02*
X129256200Y-118291792D01*
X129256200Y-118291792D02*
X129218104Y-118253696D01*
X129218104Y-118253696D02*
X128951438Y-118253696D01*
X128951438Y-118253696D02*
X128951438Y-118406077D01*
X129294295Y-117910839D02*
X128494295Y-117910839D01*
X128494295Y-117910839D02*
X129294295Y-117453696D01*
X129294295Y-117453696D02*
X128494295Y-117453696D01*
X129294295Y-117072744D02*
X128494295Y-117072744D01*
X128494295Y-117072744D02*
X128494295Y-116882268D01*
X128494295Y-116882268D02*
X128532390Y-116767982D01*
X128532390Y-116767982D02*
X128608580Y-116691792D01*
X128608580Y-116691792D02*
X128684771Y-116653697D01*
X128684771Y-116653697D02*
X128837152Y-116615601D01*
X128837152Y-116615601D02*
X128951438Y-116615601D01*
X128951438Y-116615601D02*
X129103819Y-116653697D01*
X129103819Y-116653697D02*
X129180009Y-116691792D01*
X129180009Y-116691792D02*
X129256200Y-116767982D01*
X129256200Y-116767982D02*
X129294295Y-116882268D01*
X129294295Y-116882268D02*
X129294295Y-117072744D01*
X126894295Y-127291792D02*
X126894295Y-127748935D01*
X126894295Y-127520363D02*
X126094295Y-127520363D01*
X126094295Y-127520363D02*
X126208580Y-127596554D01*
X126208580Y-127596554D02*
X126284771Y-127672744D01*
X126284771Y-127672744D02*
X126322866Y-127748935D01*
X108574874Y-112694295D02*
X108841541Y-113494295D01*
X108841541Y-113494295D02*
X109108207Y-112694295D01*
X109793921Y-113494295D02*
X109336778Y-113494295D01*
X109565350Y-113494295D02*
X109565350Y-112694295D01*
X109565350Y-112694295D02*
X109489159Y-112808580D01*
X109489159Y-112808580D02*
X109412969Y-112884771D01*
X109412969Y-112884771D02*
X109336778Y-112922866D01*
X125856200Y-116548935D02*
X125894295Y-116434649D01*
X125894295Y-116434649D02*
X125894295Y-116244173D01*
X125894295Y-116244173D02*
X125856200Y-116167982D01*
X125856200Y-116167982D02*
X125818104Y-116129887D01*
X125818104Y-116129887D02*
X125741914Y-116091792D01*
X125741914Y-116091792D02*
X125665723Y-116091792D01*
X125665723Y-116091792D02*
X125589533Y-116129887D01*
X125589533Y-116129887D02*
X125551438Y-116167982D01*
X125551438Y-116167982D02*
X125513342Y-116244173D01*
X125513342Y-116244173D02*
X125475247Y-116396554D01*
X125475247Y-116396554D02*
X125437152Y-116472744D01*
X125437152Y-116472744D02*
X125399057Y-116510839D01*
X125399057Y-116510839D02*
X125322866Y-116548935D01*
X125322866Y-116548935D02*
X125246676Y-116548935D01*
X125246676Y-116548935D02*
X125170485Y-116510839D01*
X125170485Y-116510839D02*
X125132390Y-116472744D01*
X125132390Y-116472744D02*
X125094295Y-116396554D01*
X125094295Y-116396554D02*
X125094295Y-116206077D01*
X125094295Y-116206077D02*
X125132390Y-116091792D01*
X125894295Y-115748934D02*
X125094295Y-115748934D01*
X125094295Y-115748934D02*
X125094295Y-115558458D01*
X125094295Y-115558458D02*
X125132390Y-115444172D01*
X125132390Y-115444172D02*
X125208580Y-115367982D01*
X125208580Y-115367982D02*
X125284771Y-115329887D01*
X125284771Y-115329887D02*
X125437152Y-115291791D01*
X125437152Y-115291791D02*
X125551438Y-115291791D01*
X125551438Y-115291791D02*
X125703819Y-115329887D01*
X125703819Y-115329887D02*
X125780009Y-115367982D01*
X125780009Y-115367982D02*
X125856200Y-115444172D01*
X125856200Y-115444172D02*
X125894295Y-115558458D01*
X125894295Y-115558458D02*
X125894295Y-115748934D01*
X125665723Y-114987030D02*
X125665723Y-114606077D01*
X125894295Y-115063220D02*
X125094295Y-114796553D01*
X125094295Y-114796553D02*
X125894295Y-114529887D01*
X128494295Y-127558458D02*
X128494295Y-127482268D01*
X128494295Y-127482268D02*
X128532390Y-127406077D01*
X128532390Y-127406077D02*
X128570485Y-127367982D01*
X128570485Y-127367982D02*
X128646676Y-127329887D01*
X128646676Y-127329887D02*
X128799057Y-127291792D01*
X128799057Y-127291792D02*
X128989533Y-127291792D01*
X128989533Y-127291792D02*
X129141914Y-127329887D01*
X129141914Y-127329887D02*
X129218104Y-127367982D01*
X129218104Y-127367982D02*
X129256200Y-127406077D01*
X129256200Y-127406077D02*
X129294295Y-127482268D01*
X129294295Y-127482268D02*
X129294295Y-127558458D01*
X129294295Y-127558458D02*
X129256200Y-127634649D01*
X129256200Y-127634649D02*
X129218104Y-127672744D01*
X129218104Y-127672744D02*
X129141914Y-127710839D01*
X129141914Y-127710839D02*
X128989533Y-127748935D01*
X128989533Y-127748935D02*
X128799057Y-127748935D01*
X128799057Y-127748935D02*
X128646676Y-127710839D01*
X128646676Y-127710839D02*
X128570485Y-127672744D01*
X128570485Y-127672744D02*
X128532390Y-127634649D01*
X128532390Y-127634649D02*
X128494295Y-127558458D01*
X135256200Y-135948935D02*
X135294295Y-135834649D01*
X135294295Y-135834649D02*
X135294295Y-135644173D01*
X135294295Y-135644173D02*
X135256200Y-135567982D01*
X135256200Y-135567982D02*
X135218104Y-135529887D01*
X135218104Y-135529887D02*
X135141914Y-135491792D01*
X135141914Y-135491792D02*
X135065723Y-135491792D01*
X135065723Y-135491792D02*
X134989533Y-135529887D01*
X134989533Y-135529887D02*
X134951438Y-135567982D01*
X134951438Y-135567982D02*
X134913342Y-135644173D01*
X134913342Y-135644173D02*
X134875247Y-135796554D01*
X134875247Y-135796554D02*
X134837152Y-135872744D01*
X134837152Y-135872744D02*
X134799057Y-135910839D01*
X134799057Y-135910839D02*
X134722866Y-135948935D01*
X134722866Y-135948935D02*
X134646676Y-135948935D01*
X134646676Y-135948935D02*
X134570485Y-135910839D01*
X134570485Y-135910839D02*
X134532390Y-135872744D01*
X134532390Y-135872744D02*
X134494295Y-135796554D01*
X134494295Y-135796554D02*
X134494295Y-135606077D01*
X134494295Y-135606077D02*
X134532390Y-135491792D01*
X135218104Y-134691791D02*
X135256200Y-134729887D01*
X135256200Y-134729887D02*
X135294295Y-134844172D01*
X135294295Y-134844172D02*
X135294295Y-134920363D01*
X135294295Y-134920363D02*
X135256200Y-135034649D01*
X135256200Y-135034649D02*
X135180009Y-135110839D01*
X135180009Y-135110839D02*
X135103819Y-135148934D01*
X135103819Y-135148934D02*
X134951438Y-135187030D01*
X134951438Y-135187030D02*
X134837152Y-135187030D01*
X134837152Y-135187030D02*
X134684771Y-135148934D01*
X134684771Y-135148934D02*
X134608580Y-135110839D01*
X134608580Y-135110839D02*
X134532390Y-135034649D01*
X134532390Y-135034649D02*
X134494295Y-134920363D01*
X134494295Y-134920363D02*
X134494295Y-134844172D01*
X134494295Y-134844172D02*
X134532390Y-134729887D01*
X134532390Y-134729887D02*
X134570485Y-134691791D01*
X135294295Y-133967982D02*
X135294295Y-134348934D01*
X135294295Y-134348934D02*
X134494295Y-134348934D01*
G36*
X119882004Y-84679101D02*
G01*
X120515936Y-84679101D01*
X120515936Y-84788400D01*
X119980373Y-85509771D01*
X120532301Y-85509771D01*
X120532301Y-85613574D01*
X119849214Y-85613574D01*
X119849214Y-85504275D01*
X120384778Y-84782904D01*
X119882004Y-84782904D01*
X119882004Y-84679101D01*
G37*
G36*
X120984413Y-84995161D02*
G01*
X121038443Y-85007581D01*
X121079982Y-85026333D01*
X121111523Y-85050717D01*
X121142374Y-85089782D01*
X121160206Y-85131239D01*
X121166172Y-85176379D01*
X121166172Y-85520701D01*
X121171276Y-85558572D01*
X121185770Y-85588921D01*
X121209891Y-85613574D01*
X121078733Y-85613574D01*
X121063039Y-85587073D01*
X121056873Y-85542561D01*
X121013413Y-85578232D01*
X120965035Y-85603589D01*
X120910753Y-85619121D01*
X120849206Y-85624504D01*
X120782087Y-85617711D01*
X120730436Y-85599091D01*
X120690692Y-85569855D01*
X120663042Y-85534686D01*
X120646953Y-85496846D01*
X120641538Y-85455122D01*
X120642812Y-85444192D01*
X120761767Y-85444192D01*
X120768571Y-85479652D01*
X120789061Y-85509771D01*
X120811033Y-85521036D01*
X120860136Y-85526135D01*
X120919558Y-85519177D01*
X120969867Y-85499179D01*
X121013154Y-85466051D01*
X121046197Y-85429394D01*
X121056873Y-85411402D01*
X121056873Y-85302103D01*
X120996728Y-85318468D01*
X120854640Y-85351257D01*
X120814782Y-85365735D01*
X120789061Y-85384047D01*
X120768302Y-85413403D01*
X120761767Y-85444192D01*
X120642812Y-85444192D01*
X120647244Y-85406155D01*
X120663617Y-85364828D01*
X120690692Y-85329398D01*
X120730150Y-85298339D01*
X120780361Y-85274474D01*
X120843710Y-85258384D01*
X120907076Y-85245630D01*
X120958504Y-85231029D01*
X121023663Y-85212922D01*
X121056873Y-85198239D01*
X121053262Y-85170424D01*
X121042530Y-85145190D01*
X121024084Y-85121730D01*
X121000281Y-85104094D01*
X120969941Y-85092967D01*
X120931149Y-85088941D01*
X120881097Y-85093314D01*
X120845968Y-85104755D01*
X120821851Y-85121730D01*
X120803256Y-85146729D01*
X120789061Y-85181875D01*
X120668832Y-85181875D01*
X120684128Y-85133065D01*
X120707695Y-85089617D01*
X120739907Y-85050717D01*
X120771573Y-85025515D01*
X120810230Y-85006821D01*
X120857338Y-84994867D01*
X120914785Y-84990572D01*
X120984413Y-84995161D01*
G37*
G36*
X121275043Y-85001502D02*
G01*
X121395272Y-85001502D01*
X121592009Y-85487911D01*
X121788747Y-85001502D01*
X121908975Y-85001502D01*
X121646659Y-85624504D01*
X121537360Y-85624504D01*
X121275043Y-85001502D01*
G37*
G36*
X122317002Y-84995161D02*
G01*
X122371032Y-85007581D01*
X122412571Y-85026333D01*
X122444112Y-85050717D01*
X122474963Y-85089782D01*
X122492795Y-85131239D01*
X122498761Y-85176379D01*
X122498761Y-85520701D01*
X122503865Y-85558572D01*
X122518359Y-85588921D01*
X122542480Y-85613574D01*
X122411322Y-85613574D01*
X122395628Y-85587073D01*
X122389462Y-85542561D01*
X122346002Y-85578232D01*
X122297623Y-85603589D01*
X122243342Y-85619121D01*
X122181795Y-85624504D01*
X122114676Y-85617711D01*
X122063025Y-85599091D01*
X122023281Y-85569855D01*
X121995631Y-85534686D01*
X121979542Y-85496846D01*
X121974127Y-85455122D01*
X121975401Y-85444192D01*
X122094356Y-85444192D01*
X122101160Y-85479652D01*
X122121650Y-85509771D01*
X122143622Y-85521036D01*
X122192725Y-85526135D01*
X122252147Y-85519177D01*
X122302456Y-85499179D01*
X122345743Y-85466051D01*
X122378786Y-85429394D01*
X122389462Y-85411402D01*
X122389462Y-85302103D01*
X122329317Y-85318468D01*
X122187229Y-85351257D01*
X122147371Y-85365735D01*
X122121650Y-85384047D01*
X122100891Y-85413403D01*
X122094356Y-85444192D01*
X121975401Y-85444192D01*
X121979833Y-85406155D01*
X121996206Y-85364828D01*
X122023281Y-85329398D01*
X122062739Y-85298339D01*
X122112950Y-85274474D01*
X122176299Y-85258384D01*
X122239665Y-85245630D01*
X122291093Y-85231029D01*
X122356252Y-85212922D01*
X122389462Y-85198239D01*
X122385851Y-85170424D01*
X122375119Y-85145190D01*
X122356673Y-85121730D01*
X122332870Y-85104094D01*
X122302530Y-85092967D01*
X122263738Y-85088941D01*
X122213686Y-85093314D01*
X122178557Y-85104755D01*
X122154439Y-85121730D01*
X122135845Y-85146729D01*
X122121650Y-85181875D01*
X122001421Y-85181875D01*
X122016717Y-85133065D01*
X122040284Y-85089617D01*
X122072496Y-85050717D01*
X122104162Y-85025515D01*
X122142819Y-85006821D01*
X122189926Y-84994867D01*
X122247374Y-84990572D01*
X122317002Y-84995161D01*
G37*
G36*
X122837159Y-85078011D02*
G01*
X122883387Y-85040559D01*
X122936931Y-85013446D01*
X122999207Y-84996528D01*
X123072121Y-84990572D01*
X123072121Y-85110800D01*
X123012037Y-85105366D01*
X122960119Y-85112801D01*
X122909624Y-85135648D01*
X122859019Y-85176379D01*
X122822016Y-85218606D01*
X122795088Y-85260384D01*
X122777015Y-85302103D01*
X122777015Y-85613574D01*
X122667716Y-85613574D01*
X122667716Y-85001502D01*
X122777015Y-85001502D01*
X122777015Y-85154520D01*
X122806125Y-85113028D01*
X122837159Y-85078011D01*
G37*
G36*
X123088668Y-84996067D02*
G01*
X123208897Y-84996067D01*
X123405635Y-85482416D01*
X123602372Y-84996067D01*
X123722601Y-84996067D01*
X123449354Y-85651859D01*
X123413770Y-85726363D01*
X123383775Y-85766653D01*
X123352348Y-85790857D01*
X123316382Y-85805360D01*
X123274476Y-85810373D01*
X123223145Y-85807053D01*
X123192695Y-85799067D01*
X123176107Y-85788513D01*
X123176107Y-85684649D01*
X123221162Y-85701035D01*
X123269042Y-85706509D01*
X123294580Y-85701219D01*
X123318196Y-85684649D01*
X123336790Y-85659650D01*
X123350985Y-85624504D01*
X123088668Y-84996067D01*
G37*
G36*
X122968291Y-79104545D02*
G01*
X122990938Y-79124357D01*
X122998934Y-79158019D01*
X122987507Y-79204368D01*
X122943644Y-79273233D01*
X122847259Y-79375279D01*
X122683886Y-79510718D01*
X122477341Y-79647451D01*
X122394060Y-79972007D01*
X122301596Y-80312296D01*
X122232133Y-80495004D01*
X122175981Y-80593053D01*
X122096182Y-80697462D01*
X121988611Y-80809308D01*
X121815992Y-80955152D01*
X121640649Y-81070999D01*
X121461715Y-81159304D01*
X121278020Y-81221767D01*
X121088125Y-81259284D01*
X120890373Y-81271916D01*
X120722688Y-81256716D01*
X120582389Y-81213774D01*
X120525115Y-81355628D01*
X120508658Y-81464881D01*
X120518460Y-81551828D01*
X120547816Y-81633873D01*
X120598118Y-81712897D01*
X120607527Y-81734806D01*
X120603894Y-81744064D01*
X120591939Y-81747445D01*
X120560269Y-81729992D01*
X120513995Y-81650120D01*
X120482237Y-81553380D01*
X120472424Y-81468111D01*
X120480434Y-81388208D01*
X120506069Y-81298975D01*
X120552616Y-81198186D01*
X120522241Y-81178243D01*
X120598118Y-81178243D01*
X120732907Y-81221002D01*
X120890373Y-81235964D01*
X121035133Y-81225810D01*
X121177865Y-81195270D01*
X121319855Y-81143656D01*
X121462243Y-81069543D01*
X121635513Y-80946239D01*
X121793416Y-80793309D01*
X121936789Y-80607777D01*
X122022029Y-80470990D01*
X122082846Y-80352318D01*
X122255727Y-79907826D01*
X122323278Y-79737473D01*
X121921059Y-80003185D01*
X121859652Y-80164485D01*
X121779093Y-80315125D01*
X121678729Y-80456251D01*
X121557321Y-80588678D01*
X121416853Y-80707432D01*
X121288747Y-80784322D01*
X121170310Y-80826956D01*
X121058479Y-80840486D01*
X120985340Y-80831674D01*
X120899782Y-80802708D01*
X120734156Y-80987721D01*
X120598118Y-81178243D01*
X120522241Y-81178243D01*
X120434303Y-81120506D01*
X120344392Y-81026131D01*
X120279452Y-80913299D01*
X120238734Y-80778259D01*
X120233975Y-80724764D01*
X120340552Y-80724764D01*
X120356271Y-80873798D01*
X120400025Y-80992114D01*
X120469898Y-81086562D01*
X120568345Y-81161110D01*
X120691428Y-80990554D01*
X120874644Y-80786978D01*
X120867554Y-80779114D01*
X120920286Y-80779114D01*
X120988532Y-80804892D01*
X121061709Y-80813521D01*
X121164809Y-80801150D01*
X121274070Y-80762172D01*
X121392286Y-80691911D01*
X121521930Y-80583481D01*
X121668043Y-80420275D01*
X121786626Y-80236866D01*
X121878647Y-80030851D01*
X121775002Y-80101352D01*
X121382257Y-80383552D01*
X121105466Y-80606057D01*
X120920286Y-80779114D01*
X120867554Y-80779114D01*
X120815944Y-80721868D01*
X120782274Y-80651618D01*
X120770999Y-80573651D01*
X120786112Y-80485891D01*
X120830686Y-80412847D01*
X120897166Y-80362582D01*
X120975198Y-80346138D01*
X121035621Y-80358046D01*
X121068498Y-80389474D01*
X121080528Y-80445008D01*
X121070859Y-80492251D01*
X121041205Y-80533485D01*
X120998275Y-80561541D01*
X120948515Y-80570842D01*
X120904677Y-80561919D01*
X120880505Y-80538094D01*
X120871554Y-80495426D01*
X120887283Y-80444165D01*
X120893603Y-80420150D01*
X120884053Y-80410460D01*
X120860312Y-80421302D01*
X120829001Y-80466776D01*
X120807585Y-80523533D01*
X120800772Y-80577583D01*
X120810849Y-80642104D01*
X120841630Y-80702805D01*
X120896693Y-80761840D01*
X121119697Y-80552249D01*
X121443937Y-80296656D01*
X121894376Y-79987034D01*
X121924779Y-79853047D01*
X121933699Y-79749129D01*
X121921428Y-79644048D01*
X121886522Y-79557287D01*
X121829212Y-79484682D01*
X121754106Y-79430018D01*
X121663645Y-79396327D01*
X121553529Y-79384408D01*
X121394762Y-79399992D01*
X121235986Y-79447536D01*
X121074563Y-79529917D01*
X120908316Y-79652101D01*
X120735608Y-79820894D01*
X120586053Y-80007030D01*
X120475548Y-80188823D01*
X120399654Y-80367765D01*
X120355227Y-80545701D01*
X120340552Y-80724764D01*
X120233975Y-80724764D01*
X120224268Y-80615642D01*
X120240996Y-80442707D01*
X120292238Y-80267760D01*
X120381279Y-80088010D01*
X120497170Y-79922679D01*
X120643242Y-79765333D01*
X120822821Y-79615431D01*
X121013241Y-79493459D01*
X121194832Y-79411180D01*
X121369871Y-79363858D01*
X121540889Y-79348455D01*
X121665433Y-79361541D01*
X121766071Y-79398221D01*
X121848031Y-79457155D01*
X121910160Y-79536085D01*
X121948373Y-79632458D01*
X121961927Y-79751377D01*
X121955061Y-79851092D01*
X121933699Y-79957542D01*
X122342097Y-79695201D01*
X122387860Y-79608269D01*
X122489840Y-79608269D01*
X122685443Y-79476796D01*
X122833074Y-79354354D01*
X122919678Y-79262976D01*
X122958878Y-79201939D01*
X122969020Y-79161390D01*
X122958583Y-79133647D01*
X122925062Y-79123752D01*
X122859989Y-79136688D01*
X122783357Y-79180837D01*
X122690107Y-79268826D01*
X122610874Y-79370094D01*
X122544163Y-79482838D01*
X122489840Y-79608269D01*
X122387860Y-79608269D01*
X122425455Y-79536852D01*
X122520252Y-79396753D01*
X122626488Y-79273320D01*
X122748836Y-79165712D01*
X122845951Y-79112226D01*
X122925062Y-79096787D01*
X122968291Y-79104545D01*
G37*
G36*
X123626980Y-80719146D02*
G01*
X123597142Y-80774096D01*
X123399187Y-81022777D01*
X123263686Y-81163906D01*
X123170292Y-81228117D01*
X123105387Y-81244952D01*
X123040542Y-81231358D01*
X122986715Y-81190181D01*
X122951076Y-81129832D01*
X122938825Y-81055499D01*
X122946187Y-80987142D01*
X122967896Y-80924750D01*
X123119571Y-80685862D01*
X123225729Y-80510915D01*
X123246810Y-80446272D01*
X123239055Y-80410148D01*
X123217932Y-80389782D01*
X123179258Y-80382091D01*
X123108920Y-80399216D01*
X123014385Y-80462268D01*
X122884704Y-80597035D01*
X122708265Y-80837998D01*
X122472144Y-81226976D01*
X122379454Y-81220796D01*
X122275810Y-81226976D01*
X122520877Y-80841890D01*
X122659460Y-80608206D01*
X122716959Y-80485170D01*
X122729851Y-80428857D01*
X122719453Y-80393127D01*
X122690528Y-80382091D01*
X122642906Y-80401472D01*
X122548664Y-80490561D01*
X122374820Y-80715775D01*
X122352771Y-80737544D01*
X122343361Y-80728134D01*
X122349681Y-80715635D01*
X122379454Y-80676452D01*
X122556003Y-80460762D01*
X122653148Y-80374272D01*
X122703168Y-80355127D01*
X122751733Y-80366849D01*
X122794173Y-80403859D01*
X122822287Y-80456627D01*
X122831951Y-80520143D01*
X122822072Y-80584955D01*
X122786556Y-80675217D01*
X122714122Y-80799758D01*
X122892476Y-80566652D01*
X122999214Y-80449502D01*
X123069886Y-80393320D01*
X123130464Y-80363998D01*
X123183893Y-80355127D01*
X123247125Y-80369020D01*
X123300177Y-80411583D01*
X123335198Y-80473490D01*
X123347364Y-80550899D01*
X123335954Y-80618638D01*
X123293201Y-80721039D01*
X123202852Y-80871944D01*
X123079660Y-81077466D01*
X123055109Y-81153807D01*
X123062657Y-81190216D01*
X123082950Y-81210445D01*
X123119571Y-81217988D01*
X123176759Y-81201868D01*
X123265048Y-81138053D01*
X123400501Y-80993655D01*
X123601841Y-80725325D01*
X123617570Y-80709737D01*
X123626980Y-80719146D01*
G37*
G36*
X124251562Y-80364661D02*
G01*
X124291520Y-80390254D01*
X124316463Y-80432522D01*
X124325948Y-80498375D01*
X124308727Y-80612816D01*
X124250148Y-80753752D01*
X124135933Y-80929665D01*
X124168922Y-80943586D01*
X124206574Y-80948344D01*
X124277960Y-80934041D01*
X124371591Y-80883039D01*
X124457621Y-80810551D01*
X124525512Y-80725747D01*
X124550651Y-80703838D01*
X124556971Y-80710158D01*
X124542508Y-80740559D01*
X124464281Y-80827987D01*
X124365866Y-80910789D01*
X124282480Y-80953509D01*
X124209664Y-80966320D01*
X124162917Y-80961442D01*
X124123293Y-80947501D01*
X124005392Y-81094697D01*
X123903578Y-81184128D01*
X123814399Y-81230763D01*
X123733573Y-81244952D01*
X123674236Y-81236442D01*
X123621204Y-81211123D01*
X123572489Y-81167148D01*
X123535580Y-81112161D01*
X123534543Y-81109287D01*
X123633159Y-81109287D01*
X123645561Y-81171484D01*
X123678433Y-81205490D01*
X123736803Y-81217988D01*
X123812045Y-81204748D01*
X123896238Y-81160974D01*
X123993605Y-81076631D01*
X124107704Y-80937389D01*
X124072780Y-80884561D01*
X124062062Y-80833323D01*
X124076281Y-80757803D01*
X124123293Y-80674205D01*
X124188513Y-80609620D01*
X124242807Y-80592189D01*
X124263313Y-80599466D01*
X124277356Y-80623788D01*
X124296035Y-80566283D01*
X124302494Y-80500762D01*
X124288426Y-80427013D01*
X124251727Y-80387415D01*
X124187755Y-80373103D01*
X124125368Y-80385039D01*
X124049923Y-80426090D01*
X123956145Y-80508143D01*
X123838903Y-80647381D01*
X123739253Y-80795137D01*
X123676613Y-80918531D01*
X123643262Y-81021879D01*
X123633159Y-81109287D01*
X123534543Y-81109287D01*
X123513407Y-81050682D01*
X123505780Y-80980785D01*
X123522515Y-80870514D01*
X123575122Y-80758253D01*
X123671252Y-80640225D01*
X123823174Y-80513964D01*
X123978566Y-80417643D01*
X124098211Y-80369097D01*
X124190845Y-80355127D01*
X124251562Y-80364661D01*
G37*
G36*
X125924713Y-80710158D02*
G01*
X125910773Y-80735137D01*
X125824158Y-80831638D01*
X125727414Y-80919229D01*
X125650246Y-80962737D01*
X125586955Y-80975308D01*
X125525076Y-80958388D01*
X125470671Y-80903403D01*
X125333407Y-81078522D01*
X125242738Y-81170519D01*
X125151514Y-81227535D01*
X125065222Y-81244952D01*
X124991401Y-81231163D01*
X124931664Y-81190461D01*
X124891756Y-81130156D01*
X124878297Y-81057044D01*
X124887717Y-80988607D01*
X124920710Y-80897645D01*
X124783723Y-81080234D01*
X124681917Y-81183074D01*
X124606715Y-81231635D01*
X124549949Y-81244952D01*
X124488185Y-81231388D01*
X124436052Y-81189759D01*
X124401499Y-81129500D01*
X124389707Y-81057044D01*
X124408651Y-80961540D01*
X124482397Y-80807623D01*
X124743194Y-80364115D01*
X124835884Y-80375069D01*
X124939528Y-80364115D01*
X124582952Y-80947501D01*
X124514409Y-81077895D01*
X124498127Y-81147206D01*
X124505988Y-81188010D01*
X124526567Y-81210007D01*
X124562588Y-81217988D01*
X124605830Y-81206533D01*
X124672345Y-81161572D01*
X124773810Y-81060836D01*
X124909119Y-80890595D01*
X125052723Y-80667605D01*
X125228694Y-80364115D01*
X125335568Y-80371979D01*
X125425028Y-80364115D01*
X125096680Y-80895679D01*
X125008052Y-81063065D01*
X124988261Y-81140886D01*
X124997514Y-81184369D01*
X125022631Y-81208793D01*
X125068452Y-81217988D01*
X125137431Y-81203829D01*
X125221199Y-81154700D01*
X125326059Y-81055277D01*
X125458032Y-80884584D01*
X125448622Y-80797933D01*
X125457659Y-80706474D01*
X125485867Y-80609885D01*
X125535835Y-80506380D01*
X125602041Y-80412484D01*
X125656984Y-80367812D01*
X125704784Y-80355127D01*
X125730935Y-80366161D01*
X125740877Y-80404000D01*
X125722691Y-80489811D01*
X125649082Y-80640068D01*
X125483170Y-80887814D01*
X125530303Y-80940979D01*
X125586815Y-80957332D01*
X125658115Y-80939940D01*
X125751200Y-80876588D01*
X125875980Y-80742038D01*
X125918393Y-80703838D01*
X125924713Y-80710158D01*
G37*
G36*
X126957731Y-79527715D02*
G01*
X126980113Y-79550760D01*
X126988543Y-79592820D01*
X126971734Y-79680043D01*
X126912187Y-79793297D01*
X126790523Y-79942655D01*
X126652407Y-80075562D01*
X126481145Y-80212957D01*
X126272160Y-80355127D01*
X126542366Y-80355127D01*
X126528182Y-80382091D01*
X126254746Y-80382091D01*
X126125963Y-80631793D01*
X125891168Y-81063359D01*
X125720513Y-81330058D01*
X125602461Y-81481184D01*
X125473249Y-81620515D01*
X125332479Y-81748569D01*
X125170489Y-81866838D01*
X125024532Y-81943773D01*
X124891587Y-81986463D01*
X124768473Y-81999956D01*
X124670728Y-81988604D01*
X124652189Y-81968497D01*
X124656376Y-81956822D01*
X124669463Y-81952768D01*
X124688282Y-81955998D01*
X124795157Y-81972991D01*
X124895990Y-81962266D01*
X124999534Y-81929092D01*
X125107801Y-81870657D01*
X125222514Y-81782555D01*
X125345517Y-81656813D01*
X125453538Y-81508838D01*
X125559657Y-81329722D01*
X125840027Y-80822650D01*
X126082005Y-80382091D01*
X125913899Y-80382091D01*
X125926398Y-80355127D01*
X126097734Y-80355127D01*
X126120844Y-80319174D01*
X126284659Y-80319174D01*
X126531428Y-80129120D01*
X126755975Y-79914286D01*
X126893557Y-79751897D01*
X126954506Y-79650202D01*
X126969724Y-79588607D01*
X126956803Y-79550091D01*
X126917902Y-79537206D01*
X126866700Y-79548045D01*
X126799815Y-79586899D01*
X126710750Y-79667537D01*
X126592643Y-79808255D01*
X126481304Y-79977001D01*
X126284659Y-80319174D01*
X126120844Y-80319174D01*
X126239651Y-80134344D01*
X126387895Y-79939084D01*
X126542366Y-79767387D01*
X126678967Y-79640394D01*
X126782149Y-79566068D01*
X126859490Y-79529528D01*
X126917902Y-79519230D01*
X126957731Y-79527715D01*
G37*
G36*
X127175047Y-79602791D02*
G01*
X126405999Y-80891887D01*
X126316131Y-81071803D01*
X126296878Y-81147487D01*
X126304376Y-81188606D01*
X126323630Y-81210286D01*
X126356564Y-81217988D01*
X126410550Y-81202368D01*
X126497053Y-81139440D01*
X126633490Y-80995292D01*
X126840519Y-80725325D01*
X126859338Y-80709737D01*
X126865518Y-80719146D01*
X126849929Y-80744144D01*
X126782377Y-80836554D01*
X126609675Y-81054464D01*
X126487660Y-81174981D01*
X126403031Y-81230323D01*
X126343925Y-81244952D01*
X126282372Y-81232173D01*
X126233118Y-81193972D01*
X126201234Y-81137314D01*
X126190003Y-81064206D01*
X126199902Y-80979655D01*
X126230028Y-80896943D01*
X126502622Y-80429419D01*
X126981802Y-79609111D01*
X127065082Y-79621610D01*
X127123132Y-79616782D01*
X127175047Y-79602791D01*
G37*
G36*
X127519371Y-80366081D02*
G01*
X127549750Y-80394916D01*
X127560834Y-80445710D01*
X127548195Y-80516492D01*
X127628386Y-80364115D01*
X127711666Y-80375069D01*
X127821631Y-80364115D01*
X127543560Y-80824897D01*
X127449860Y-80994657D01*
X127408895Y-81092619D01*
X127399048Y-81144116D01*
X127406806Y-81187345D01*
X127426617Y-81209992D01*
X127460280Y-81217988D01*
X127499266Y-81207845D01*
X127562191Y-81167365D01*
X127661389Y-81075863D01*
X127796386Y-80922681D01*
X127942690Y-80725325D01*
X127959964Y-80709737D01*
X127969373Y-80719146D01*
X127939363Y-80774053D01*
X127740035Y-81022777D01*
X127605466Y-81163892D01*
X127512537Y-81228105D01*
X127447780Y-81244952D01*
X127381967Y-81231327D01*
X127329811Y-81190742D01*
X127296101Y-81130917D01*
X127284309Y-81054937D01*
X127296034Y-80969631D01*
X127334586Y-80871102D01*
X127183260Y-81070751D01*
X127094153Y-81167991D01*
X127008239Y-81227523D01*
X126932367Y-81244952D01*
X126880220Y-81237140D01*
X126834221Y-81213929D01*
X126792489Y-81173468D01*
X126762397Y-81116590D01*
X126852176Y-81116590D01*
X126863351Y-81175167D01*
X126892503Y-81206620D01*
X126943321Y-81217988D01*
X126988288Y-81206041D01*
X127057444Y-81159179D01*
X127162919Y-81054231D01*
X127318857Y-80860850D01*
X127459717Y-80653880D01*
X127521944Y-80529147D01*
X127537240Y-80458490D01*
X127528679Y-80414556D01*
X127506176Y-80390761D01*
X127466599Y-80382091D01*
X127403235Y-80393981D01*
X127323149Y-80435556D01*
X127219954Y-80519543D01*
X127086991Y-80662830D01*
X126970654Y-80816437D01*
X126899610Y-80939301D01*
X126862963Y-81037472D01*
X126852176Y-81116590D01*
X126762397Y-81116590D01*
X126750776Y-81094626D01*
X126736032Y-80993425D01*
X126750438Y-80884738D01*
X126794465Y-80779304D01*
X126872211Y-80674171D01*
X126991212Y-80567560D01*
X127161845Y-80458911D01*
X127290621Y-80396175D01*
X127388844Y-80364298D01*
X127463369Y-80355127D01*
X127519371Y-80366081D01*
G37*
G36*
X128806815Y-79600123D02*
G01*
X128767492Y-79664585D01*
X128645028Y-79861200D01*
X128523969Y-80064136D01*
X128253763Y-80501465D01*
X128024426Y-80897785D01*
X127854634Y-81204505D01*
X127834270Y-81235964D01*
X127750990Y-81226554D01*
X127648890Y-81235964D01*
X127729081Y-81097490D01*
X127911231Y-80779816D01*
X128033835Y-80565926D01*
X128610480Y-79600123D01*
X128706260Y-79612763D01*
X128806815Y-79600123D01*
G37*
G36*
X128942058Y-80719146D02*
G01*
X128926329Y-80744144D01*
X128858777Y-80836554D01*
X128686636Y-81052853D01*
X128562582Y-81173629D01*
X128474382Y-81229847D01*
X128410915Y-81244952D01*
X128347443Y-81233667D01*
X128291542Y-81199590D01*
X128252087Y-81149917D01*
X128239719Y-81096367D01*
X128254891Y-81033501D01*
X128327635Y-80872787D01*
X128329180Y-80866467D01*
X128353177Y-80811389D01*
X128359093Y-80780518D01*
X128348068Y-80749793D01*
X128307271Y-80716478D01*
X128249421Y-80736026D01*
X128208261Y-80741476D01*
X128164560Y-80732142D01*
X128153209Y-80710158D01*
X128163563Y-80691439D01*
X128205031Y-80683193D01*
X128297862Y-80699063D01*
X128382448Y-80638651D01*
X128549248Y-80462844D01*
X128616258Y-80399501D01*
X128678798Y-80365701D01*
X128739404Y-80355127D01*
X128807658Y-80368781D01*
X128845027Y-80405015D01*
X128858777Y-80469444D01*
X128844561Y-80543194D01*
X128798248Y-80621260D01*
X128733978Y-80680219D01*
X128678032Y-80696676D01*
X128639089Y-80689174D01*
X128618096Y-80669536D01*
X128610480Y-80635163D01*
X128619066Y-80601527D01*
X128649315Y-80562068D01*
X128712580Y-80513683D01*
X128744466Y-80481210D01*
X128754993Y-80437986D01*
X128743791Y-80410343D01*
X128706260Y-80400067D01*
X128664964Y-80409643D01*
X128610363Y-80444475D01*
X128536609Y-80518036D01*
X128407546Y-80646760D01*
X128324545Y-80701170D01*
X128424198Y-80760940D01*
X128473207Y-80817977D01*
X128487876Y-80875034D01*
X128473874Y-80940283D01*
X128410915Y-81086396D01*
X128384037Y-81148136D01*
X128377912Y-81177260D01*
X128389864Y-81206986D01*
X128429734Y-81217988D01*
X128490310Y-81201369D01*
X128580636Y-81136669D01*
X128715583Y-80992026D01*
X128912144Y-80725325D01*
X128932508Y-80709737D01*
X128942058Y-80719146D01*
G37*
G36*
X129605093Y-80363684D02*
G01*
X129648750Y-80388692D01*
X129679081Y-80426261D01*
X129688916Y-80470427D01*
X129674503Y-80537263D01*
X129628790Y-80599992D01*
X129541174Y-80661425D01*
X129438434Y-80706366D01*
X129279853Y-80755641D01*
X129047950Y-80808606D01*
X128983654Y-80921831D01*
X128950700Y-81010946D01*
X128941075Y-81081480D01*
X128950755Y-81142719D01*
X128976783Y-81183099D01*
X129019872Y-81208365D01*
X129087132Y-81217988D01*
X129172101Y-81204833D01*
X129270609Y-81161118D01*
X129387507Y-81077327D01*
X129527494Y-80940467D01*
X129695236Y-80734735D01*
X129726694Y-80709737D01*
X129732874Y-80719146D01*
X129704645Y-80759874D01*
X129637094Y-80844278D01*
X129487563Y-81012261D01*
X129360733Y-81125606D01*
X129252920Y-81196134D01*
X129160383Y-81233547D01*
X129079268Y-81244952D01*
X129009367Y-81235998D01*
X128948585Y-81209851D01*
X128894590Y-81165604D01*
X128853500Y-81108813D01*
X128828651Y-81043362D01*
X128820016Y-80966741D01*
X128833439Y-80864622D01*
X128864130Y-80790630D01*
X129060449Y-80790630D01*
X129208509Y-80744423D01*
X129335474Y-80689077D01*
X129443849Y-80625332D01*
X129540425Y-80546093D01*
X129587443Y-80480450D01*
X129601001Y-80423661D01*
X129587620Y-80386098D01*
X129545949Y-80373103D01*
X129493375Y-80382828D01*
X129422601Y-80417700D01*
X129326722Y-80489387D01*
X129196376Y-80618121D01*
X129060449Y-80790630D01*
X128864130Y-80790630D01*
X128874383Y-80765910D01*
X128946515Y-80667860D01*
X129056685Y-80568829D01*
X129214371Y-80468321D01*
X129357088Y-80400151D01*
X129467362Y-80365247D01*
X129552268Y-80355127D01*
X129605093Y-80363684D01*
G37*
X128694295Y-110729887D02*
X128694295Y-111110839D01*
X128694295Y-111110839D02*
X129075247Y-111148935D01*
X129075247Y-111148935D02*
X129037152Y-111110839D01*
X129037152Y-111110839D02*
X128999057Y-111034649D01*
X128999057Y-111034649D02*
X128999057Y-110844173D01*
X128999057Y-110844173D02*
X129037152Y-110767982D01*
X129037152Y-110767982D02*
X129075247Y-110729887D01*
X129075247Y-110729887D02*
X129151438Y-110691792D01*
X129151438Y-110691792D02*
X129341914Y-110691792D01*
X129341914Y-110691792D02*
X129418104Y-110729887D01*
X129418104Y-110729887D02*
X129456200Y-110767982D01*
X129456200Y-110767982D02*
X129494295Y-110844173D01*
X129494295Y-110844173D02*
X129494295Y-111034649D01*
X129494295Y-111034649D02*
X129456200Y-111110839D01*
X129456200Y-111110839D02*
X129418104Y-111148935D01*
X128694295Y-110463220D02*
X129494295Y-110196553D01*
X129494295Y-110196553D02*
X128694295Y-109929887D01*
G36*
X125492934Y-84996067D02*
G01*
X125499213Y-84911140D01*
X125516649Y-84841821D01*
X125543834Y-84785244D01*
X125580373Y-84739185D01*
X125618121Y-84707754D01*
X125658452Y-84685830D01*
X125702020Y-84672660D01*
X125749755Y-84668171D01*
X125809198Y-84673014D01*
X125859922Y-84686763D01*
X125903488Y-84708784D01*
X125941058Y-84739185D01*
X125972217Y-84776902D01*
X125994169Y-84818074D01*
X126007491Y-84863445D01*
X126012072Y-84914063D01*
X126006827Y-84978332D01*
X125991461Y-85037375D01*
X125966068Y-85092201D01*
X125930129Y-85143590D01*
X125771615Y-85323963D01*
X125684176Y-85422332D01*
X125648172Y-85466716D01*
X125618597Y-85509771D01*
X126028497Y-85509771D01*
X126028497Y-85613574D01*
X125471074Y-85613574D01*
X125471074Y-85520701D01*
X125483097Y-85485946D01*
X125511620Y-85436584D01*
X125563948Y-85367683D01*
X125788040Y-85121730D01*
X125830414Y-85069312D01*
X125858964Y-85017750D01*
X125875476Y-84966315D01*
X125880914Y-84914063D01*
X125875901Y-84872156D01*
X125861398Y-84836191D01*
X125837194Y-84804764D01*
X125813624Y-84786610D01*
X125786660Y-84775733D01*
X125755251Y-84771974D01*
X125727435Y-84775586D01*
X125702201Y-84786317D01*
X125678742Y-84804764D01*
X125654164Y-84836341D01*
X125635425Y-84877183D01*
X125623116Y-84929501D01*
X125618597Y-84996067D01*
X125492934Y-84996067D01*
G37*
G36*
X126505378Y-84667661D02*
G01*
X126555220Y-84682096D01*
X126599995Y-84705761D01*
X126640570Y-84739185D01*
X126677074Y-84783821D01*
X126706895Y-84838958D01*
X126729691Y-84906524D01*
X126744514Y-84988923D01*
X126749869Y-85088941D01*
X126749869Y-85198239D01*
X126744563Y-85295696D01*
X126729835Y-85376434D01*
X126707104Y-85443067D01*
X126677252Y-85497843D01*
X126640570Y-85542561D01*
X126599995Y-85575985D01*
X126555220Y-85599649D01*
X126505378Y-85614084D01*
X126449267Y-85619070D01*
X126393188Y-85614085D01*
X126343367Y-85599652D01*
X126298600Y-85575988D01*
X126258025Y-85542561D01*
X126221342Y-85497843D01*
X126191491Y-85443067D01*
X126168760Y-85376434D01*
X126154031Y-85295696D01*
X126148726Y-85198239D01*
X126148726Y-85088941D01*
X126149311Y-85078011D01*
X126279884Y-85078011D01*
X126279884Y-85203735D01*
X126285936Y-85302229D01*
X126302072Y-85376436D01*
X126325966Y-85431469D01*
X126356393Y-85471486D01*
X126387533Y-85496653D01*
X126418175Y-85510672D01*
X126449267Y-85515205D01*
X126483959Y-85510497D01*
X126516420Y-85496296D01*
X126547636Y-85471486D01*
X126575313Y-85434430D01*
X126597548Y-85381004D01*
X126612874Y-85306160D01*
X126618710Y-85203735D01*
X126618710Y-85078011D01*
X126612874Y-84975585D01*
X126597548Y-84900741D01*
X126575313Y-84847315D01*
X126547636Y-84810259D01*
X126516420Y-84785449D01*
X126483959Y-84771249D01*
X126449267Y-84766540D01*
X126414575Y-84771249D01*
X126382113Y-84785449D01*
X126350898Y-84810259D01*
X126323247Y-84847310D01*
X126301030Y-84900734D01*
X126285716Y-84975580D01*
X126279884Y-85078011D01*
X126149311Y-85078011D01*
X126154080Y-84988923D01*
X126168903Y-84906524D01*
X126191700Y-84838958D01*
X126221521Y-84783821D01*
X126258025Y-84739185D01*
X126298600Y-84705758D01*
X126343367Y-84682094D01*
X126393188Y-84667660D01*
X126449267Y-84662676D01*
X126505378Y-84667661D01*
G37*
G36*
X126891957Y-84996067D02*
G01*
X126898236Y-84911140D01*
X126915672Y-84841821D01*
X126942857Y-84785244D01*
X126979396Y-84739185D01*
X127017144Y-84707754D01*
X127057475Y-84685830D01*
X127101043Y-84672660D01*
X127148778Y-84668171D01*
X127208221Y-84673014D01*
X127258945Y-84686763D01*
X127302512Y-84708784D01*
X127340081Y-84739185D01*
X127371240Y-84776902D01*
X127393192Y-84818074D01*
X127406514Y-84863445D01*
X127411095Y-84914063D01*
X127405850Y-84978332D01*
X127390484Y-85037375D01*
X127365091Y-85092201D01*
X127329152Y-85143590D01*
X127170638Y-85323963D01*
X127083199Y-85422332D01*
X127047195Y-85466716D01*
X127017620Y-85509771D01*
X127427520Y-85509771D01*
X127427520Y-85613574D01*
X126870097Y-85613574D01*
X126870097Y-85520701D01*
X126882120Y-85485946D01*
X126910643Y-85436584D01*
X126962971Y-85367683D01*
X127187063Y-85121730D01*
X127229437Y-85069312D01*
X127257987Y-85017750D01*
X127274499Y-84966315D01*
X127279937Y-84914063D01*
X127274924Y-84872156D01*
X127260421Y-84836191D01*
X127236217Y-84804764D01*
X127212648Y-84786610D01*
X127185683Y-84775733D01*
X127154274Y-84771974D01*
X127126458Y-84775586D01*
X127101224Y-84786317D01*
X127077765Y-84804764D01*
X127053187Y-84836341D01*
X127034448Y-84877183D01*
X127022139Y-84929501D01*
X127017620Y-84996067D01*
X126891957Y-84996067D01*
G37*
G36*
X127635188Y-84679101D02*
G01*
X128105172Y-84679101D01*
X128105172Y-84782904D01*
X127738991Y-84782904D01*
X127738991Y-84799330D01*
X127722627Y-85001502D01*
X127717131Y-85034291D01*
X127767398Y-84996886D01*
X127817940Y-84975664D01*
X127870150Y-84968712D01*
X127923696Y-84973387D01*
X127970868Y-84986867D01*
X128012856Y-85008863D01*
X128050523Y-85039787D01*
X128082524Y-85080094D01*
X128106309Y-85129499D01*
X128121548Y-85189916D01*
X128127032Y-85263818D01*
X128120036Y-85356701D01*
X128100531Y-85433146D01*
X128069963Y-85496142D01*
X128028663Y-85547995D01*
X127988089Y-85581419D01*
X127943313Y-85605083D01*
X127893471Y-85619519D01*
X127837360Y-85624504D01*
X127783809Y-85619832D01*
X127736648Y-85606360D01*
X127694682Y-85584383D01*
X127657048Y-85553490D01*
X127626708Y-85516229D01*
X127601699Y-85469547D01*
X127582376Y-85411651D01*
X127569609Y-85340327D01*
X127695272Y-85340327D01*
X127707662Y-85408290D01*
X127726383Y-85455796D01*
X127749921Y-85487911D01*
X127773492Y-85506063D01*
X127800476Y-85516940D01*
X127831926Y-85520701D01*
X127874075Y-85516107D01*
X127908071Y-85503215D01*
X127935729Y-85482416D01*
X127959920Y-85450938D01*
X127978685Y-85408727D01*
X127991215Y-85352984D01*
X127995874Y-85280244D01*
X127991828Y-85209075D01*
X127981208Y-85157123D01*
X127965811Y-85120085D01*
X127946659Y-85094436D01*
X127923199Y-85075989D01*
X127897965Y-85065258D01*
X127870150Y-85061646D01*
X127828425Y-85067062D01*
X127790585Y-85083150D01*
X127755416Y-85110800D01*
X127711697Y-85160015D01*
X127602398Y-85160015D01*
X127607833Y-85121730D01*
X127635188Y-84700961D01*
X127635188Y-84679101D01*
G37*
X118812969Y-138294295D02*
X119308207Y-138294295D01*
X119308207Y-138294295D02*
X119041541Y-138599057D01*
X119041541Y-138599057D02*
X119155826Y-138599057D01*
X119155826Y-138599057D02*
X119232017Y-138637152D01*
X119232017Y-138637152D02*
X119270112Y-138675247D01*
X119270112Y-138675247D02*
X119308207Y-138751438D01*
X119308207Y-138751438D02*
X119308207Y-138941914D01*
X119308207Y-138941914D02*
X119270112Y-139018104D01*
X119270112Y-139018104D02*
X119232017Y-139056200D01*
X119232017Y-139056200D02*
X119155826Y-139094295D01*
X119155826Y-139094295D02*
X118927255Y-139094295D01*
X118927255Y-139094295D02*
X118851064Y-139056200D01*
X118851064Y-139056200D02*
X118812969Y-139018104D01*
X123851064Y-138370485D02*
X123889160Y-138332390D01*
X123889160Y-138332390D02*
X123965350Y-138294295D01*
X123965350Y-138294295D02*
X124155826Y-138294295D01*
X124155826Y-138294295D02*
X124232017Y-138332390D01*
X124232017Y-138332390D02*
X124270112Y-138370485D01*
X124270112Y-138370485D02*
X124308207Y-138446676D01*
X124308207Y-138446676D02*
X124308207Y-138522866D01*
X124308207Y-138522866D02*
X124270112Y-138637152D01*
X124270112Y-138637152D02*
X123812969Y-139094295D01*
X123812969Y-139094295D02*
X124308207Y-139094295D01*
X128570485Y-121548935D02*
X128532390Y-121510839D01*
X128532390Y-121510839D02*
X128494295Y-121434649D01*
X128494295Y-121434649D02*
X128494295Y-121244173D01*
X128494295Y-121244173D02*
X128532390Y-121167982D01*
X128532390Y-121167982D02*
X128570485Y-121129887D01*
X128570485Y-121129887D02*
X128646676Y-121091792D01*
X128646676Y-121091792D02*
X128722866Y-121091792D01*
X128722866Y-121091792D02*
X128837152Y-121129887D01*
X128837152Y-121129887D02*
X129294295Y-121587030D01*
X129294295Y-121587030D02*
X129294295Y-121091792D01*
X137094295Y-134729887D02*
X137094295Y-135110839D01*
X137094295Y-135110839D02*
X137475247Y-135148935D01*
X137475247Y-135148935D02*
X137437152Y-135110839D01*
X137437152Y-135110839D02*
X137399057Y-135034649D01*
X137399057Y-135034649D02*
X137399057Y-134844173D01*
X137399057Y-134844173D02*
X137437152Y-134767982D01*
X137437152Y-134767982D02*
X137475247Y-134729887D01*
X137475247Y-134729887D02*
X137551438Y-134691792D01*
X137551438Y-134691792D02*
X137741914Y-134691792D01*
X137741914Y-134691792D02*
X137818104Y-134729887D01*
X137818104Y-134729887D02*
X137856200Y-134767982D01*
X137856200Y-134767982D02*
X137894295Y-134844173D01*
X137894295Y-134844173D02*
X137894295Y-135034649D01*
X137894295Y-135034649D02*
X137856200Y-135110839D01*
X137856200Y-135110839D02*
X137818104Y-135148935D01*
X137094295Y-134463220D02*
X137894295Y-134196553D01*
X137894295Y-134196553D02*
X137094295Y-133929887D01*
X116536779Y-140869819D02*
X116536779Y-139869819D01*
X116536779Y-139869819D02*
X116870112Y-140584104D01*
X116870112Y-140584104D02*
X117203445Y-139869819D01*
X117203445Y-139869819D02*
X117203445Y-140869819D01*
X118108207Y-140203152D02*
X118108207Y-140869819D01*
X117679636Y-140203152D02*
X117679636Y-140726961D01*
X117679636Y-140726961D02*
X117727255Y-140822200D01*
X117727255Y-140822200D02*
X117822493Y-140869819D01*
X117822493Y-140869819D02*
X117965350Y-140869819D01*
X117965350Y-140869819D02*
X118060588Y-140822200D01*
X118060588Y-140822200D02*
X118108207Y-140774580D01*
X118489160Y-140869819D02*
X119012969Y-140203152D01*
X118489160Y-140203152D02*
X119012969Y-140869819D01*
X120108208Y-140822200D02*
X120251065Y-140869819D01*
X120251065Y-140869819D02*
X120489160Y-140869819D01*
X120489160Y-140869819D02*
X120584398Y-140822200D01*
X120584398Y-140822200D02*
X120632017Y-140774580D01*
X120632017Y-140774580D02*
X120679636Y-140679342D01*
X120679636Y-140679342D02*
X120679636Y-140584104D01*
X120679636Y-140584104D02*
X120632017Y-140488866D01*
X120632017Y-140488866D02*
X120584398Y-140441247D01*
X120584398Y-140441247D02*
X120489160Y-140393628D01*
X120489160Y-140393628D02*
X120298684Y-140346009D01*
X120298684Y-140346009D02*
X120203446Y-140298390D01*
X120203446Y-140298390D02*
X120155827Y-140250771D01*
X120155827Y-140250771D02*
X120108208Y-140155533D01*
X120108208Y-140155533D02*
X120108208Y-140060295D01*
X120108208Y-140060295D02*
X120155827Y-139965057D01*
X120155827Y-139965057D02*
X120203446Y-139917438D01*
X120203446Y-139917438D02*
X120298684Y-139869819D01*
X120298684Y-139869819D02*
X120536779Y-139869819D01*
X120536779Y-139869819D02*
X120679636Y-139917438D01*
X121489160Y-140822200D02*
X121393922Y-140869819D01*
X121393922Y-140869819D02*
X121203446Y-140869819D01*
X121203446Y-140869819D02*
X121108208Y-140822200D01*
X121108208Y-140822200D02*
X121060589Y-140726961D01*
X121060589Y-140726961D02*
X121060589Y-140346009D01*
X121060589Y-140346009D02*
X121108208Y-140250771D01*
X121108208Y-140250771D02*
X121203446Y-140203152D01*
X121203446Y-140203152D02*
X121393922Y-140203152D01*
X121393922Y-140203152D02*
X121489160Y-140250771D01*
X121489160Y-140250771D02*
X121536779Y-140346009D01*
X121536779Y-140346009D02*
X121536779Y-140441247D01*
X121536779Y-140441247D02*
X121060589Y-140536485D01*
X122108208Y-140869819D02*
X122012970Y-140822200D01*
X122012970Y-140822200D02*
X121965351Y-140726961D01*
X121965351Y-140726961D02*
X121965351Y-139869819D01*
X122870113Y-140822200D02*
X122774875Y-140869819D01*
X122774875Y-140869819D02*
X122584399Y-140869819D01*
X122584399Y-140869819D02*
X122489161Y-140822200D01*
X122489161Y-140822200D02*
X122441542Y-140726961D01*
X122441542Y-140726961D02*
X122441542Y-140346009D01*
X122441542Y-140346009D02*
X122489161Y-140250771D01*
X122489161Y-140250771D02*
X122584399Y-140203152D01*
X122584399Y-140203152D02*
X122774875Y-140203152D01*
X122774875Y-140203152D02*
X122870113Y-140250771D01*
X122870113Y-140250771D02*
X122917732Y-140346009D01*
X122917732Y-140346009D02*
X122917732Y-140441247D01*
X122917732Y-140441247D02*
X122441542Y-140536485D01*
X123774875Y-140822200D02*
X123679637Y-140869819D01*
X123679637Y-140869819D02*
X123489161Y-140869819D01*
X123489161Y-140869819D02*
X123393923Y-140822200D01*
X123393923Y-140822200D02*
X123346304Y-140774580D01*
X123346304Y-140774580D02*
X123298685Y-140679342D01*
X123298685Y-140679342D02*
X123298685Y-140393628D01*
X123298685Y-140393628D02*
X123346304Y-140298390D01*
X123346304Y-140298390D02*
X123393923Y-140250771D01*
X123393923Y-140250771D02*
X123489161Y-140203152D01*
X123489161Y-140203152D02*
X123679637Y-140203152D01*
X123679637Y-140203152D02*
X123774875Y-140250771D01*
X124060590Y-140203152D02*
X124441542Y-140203152D01*
X124203447Y-139869819D02*
X124203447Y-140726961D01*
X124203447Y-140726961D02*
X124251066Y-140822200D01*
X124251066Y-140822200D02*
X124346304Y-140869819D01*
X124346304Y-140869819D02*
X124441542Y-140869819D01*
X125856200Y-113348935D02*
X125894295Y-113234649D01*
X125894295Y-113234649D02*
X125894295Y-113044173D01*
X125894295Y-113044173D02*
X125856200Y-112967982D01*
X125856200Y-112967982D02*
X125818104Y-112929887D01*
X125818104Y-112929887D02*
X125741914Y-112891792D01*
X125741914Y-112891792D02*
X125665723Y-112891792D01*
X125665723Y-112891792D02*
X125589533Y-112929887D01*
X125589533Y-112929887D02*
X125551438Y-112967982D01*
X125551438Y-112967982D02*
X125513342Y-113044173D01*
X125513342Y-113044173D02*
X125475247Y-113196554D01*
X125475247Y-113196554D02*
X125437152Y-113272744D01*
X125437152Y-113272744D02*
X125399057Y-113310839D01*
X125399057Y-113310839D02*
X125322866Y-113348935D01*
X125322866Y-113348935D02*
X125246676Y-113348935D01*
X125246676Y-113348935D02*
X125170485Y-113310839D01*
X125170485Y-113310839D02*
X125132390Y-113272744D01*
X125132390Y-113272744D02*
X125094295Y-113196554D01*
X125094295Y-113196554D02*
X125094295Y-113006077D01*
X125094295Y-113006077D02*
X125132390Y-112891792D01*
X125818104Y-112091791D02*
X125856200Y-112129887D01*
X125856200Y-112129887D02*
X125894295Y-112244172D01*
X125894295Y-112244172D02*
X125894295Y-112320363D01*
X125894295Y-112320363D02*
X125856200Y-112434649D01*
X125856200Y-112434649D02*
X125780009Y-112510839D01*
X125780009Y-112510839D02*
X125703819Y-112548934D01*
X125703819Y-112548934D02*
X125551438Y-112587030D01*
X125551438Y-112587030D02*
X125437152Y-112587030D01*
X125437152Y-112587030D02*
X125284771Y-112548934D01*
X125284771Y-112548934D02*
X125208580Y-112510839D01*
X125208580Y-112510839D02*
X125132390Y-112434649D01*
X125132390Y-112434649D02*
X125094295Y-112320363D01*
X125094295Y-112320363D02*
X125094295Y-112244172D01*
X125094295Y-112244172D02*
X125132390Y-112129887D01*
X125132390Y-112129887D02*
X125170485Y-112091791D01*
X125894295Y-111367982D02*
X125894295Y-111748934D01*
X125894295Y-111748934D02*
X125094295Y-111748934D01*
G36*
X119903864Y-82924993D02*
G01*
X119908662Y-82874714D01*
X119922787Y-82828496D01*
X119946395Y-82785377D01*
X119980373Y-82744680D01*
X120020600Y-82713103D01*
X120071462Y-82689288D01*
X120135358Y-82673807D01*
X120215334Y-82668171D01*
X120300262Y-82674451D01*
X120369581Y-82691886D01*
X120426157Y-82719071D01*
X120472217Y-82755610D01*
X120506195Y-82796307D01*
X120529803Y-82839426D01*
X120543928Y-82885644D01*
X120548726Y-82935922D01*
X120423002Y-82935922D01*
X120417989Y-82894016D01*
X120403486Y-82858051D01*
X120379282Y-82826624D01*
X120343332Y-82800761D01*
X120293796Y-82783807D01*
X120226264Y-82777470D01*
X120150642Y-82783536D01*
X120100206Y-82799000D01*
X120067812Y-82821189D01*
X120046169Y-82848509D01*
X120033692Y-82877358D01*
X120029527Y-82908628D01*
X120035692Y-82953140D01*
X120051386Y-82979642D01*
X120085346Y-83004539D01*
X120149755Y-83034291D01*
X120433932Y-83160015D01*
X120475536Y-83181358D01*
X120515936Y-83214665D01*
X120549631Y-83257688D01*
X120569349Y-83304536D01*
X120576020Y-83356753D01*
X120571127Y-83409939D01*
X120556843Y-83457975D01*
X120533205Y-83501929D01*
X120499511Y-83542561D01*
X120456537Y-83575792D01*
X120399980Y-83601340D01*
X120326459Y-83618255D01*
X120231760Y-83624504D01*
X120141867Y-83617587D01*
X120067164Y-83598208D01*
X120004912Y-83567657D01*
X119953018Y-83526135D01*
X119923304Y-83488721D01*
X119901229Y-83442902D01*
X119887090Y-83386911D01*
X119882004Y-83318468D01*
X120007667Y-83318468D01*
X120013426Y-83382674D01*
X120028616Y-83428468D01*
X120051386Y-83460556D01*
X120083002Y-83485337D01*
X120123129Y-83504062D01*
X120173708Y-83516255D01*
X120237194Y-83520701D01*
X120295222Y-83516653D01*
X120341374Y-83505561D01*
X120377915Y-83488546D01*
X120406638Y-83466051D01*
X120432206Y-83434953D01*
X120446019Y-83406155D01*
X120450357Y-83378613D01*
X120446597Y-83347163D01*
X120435719Y-83320179D01*
X120417568Y-83296608D01*
X120385092Y-83271238D01*
X120330129Y-83241959D01*
X120188040Y-83176379D01*
X120029527Y-83105366D01*
X119988507Y-83084828D01*
X119953018Y-83056151D01*
X119926209Y-83020640D01*
X119909707Y-82977635D01*
X119903864Y-82924993D01*
G37*
G36*
X120724153Y-82679101D02*
G01*
X120833452Y-82679101D01*
X120833452Y-83110800D01*
X120884787Y-83054654D01*
X120934935Y-83018015D01*
X120984759Y-82997319D01*
X121035624Y-82990572D01*
X121093652Y-82994619D01*
X121139804Y-83005712D01*
X121176345Y-83022727D01*
X121205068Y-83045221D01*
X121235609Y-83084392D01*
X121253596Y-83127617D01*
X121259717Y-83176379D01*
X121259717Y-83613574D01*
X121150418Y-83613574D01*
X121150418Y-83203735D01*
X121145958Y-83165230D01*
X121133190Y-83132907D01*
X121112133Y-83105366D01*
X121092333Y-83090612D01*
X121067333Y-83081349D01*
X121035624Y-83078011D01*
X120997512Y-83083267D01*
X120961442Y-83099208D01*
X120926325Y-83127226D01*
X120890948Y-83170304D01*
X120859833Y-83225943D01*
X120833452Y-83296608D01*
X120833452Y-83613574D01*
X120724153Y-83613574D01*
X120724153Y-82679101D01*
G37*
G36*
X121752638Y-82995775D02*
G01*
X121803326Y-83011016D01*
X121850072Y-83036339D01*
X121893649Y-83072576D01*
X121925226Y-83112804D01*
X121949041Y-83163665D01*
X121964522Y-83227561D01*
X121970158Y-83307538D01*
X121527468Y-83307538D01*
X121531516Y-83365566D01*
X121542608Y-83411718D01*
X121559623Y-83448259D01*
X121582117Y-83476981D01*
X121617548Y-83504057D01*
X121658875Y-83520429D01*
X121707841Y-83526135D01*
X121757893Y-83521762D01*
X121793023Y-83510321D01*
X121817140Y-83493346D01*
X121838746Y-83466030D01*
X121851205Y-83437181D01*
X121855364Y-83405907D01*
X121975593Y-83405907D01*
X121956576Y-83469698D01*
X121932667Y-83517880D01*
X121904579Y-83553490D01*
X121867052Y-83583657D01*
X121822721Y-83605698D01*
X121770242Y-83619579D01*
X121707841Y-83624504D01*
X121643344Y-83619033D01*
X121587271Y-83603358D01*
X121538089Y-83577977D01*
X121494678Y-83542561D01*
X121457229Y-83496333D01*
X121430117Y-83442781D01*
X121413197Y-83380484D01*
X121407240Y-83307538D01*
X121413426Y-83235049D01*
X121417625Y-83220099D01*
X121532964Y-83220099D01*
X121844434Y-83220099D01*
X121839726Y-83185407D01*
X121825525Y-83152945D01*
X121800715Y-83121730D01*
X121772948Y-83101213D01*
X121737291Y-83088222D01*
X121691416Y-83083506D01*
X121649510Y-83088519D01*
X121613545Y-83103022D01*
X121582117Y-83127226D01*
X121559705Y-83154478D01*
X121543392Y-83185223D01*
X121532964Y-83220099D01*
X121417625Y-83220099D01*
X121431173Y-83171867D01*
X121459953Y-83116292D01*
X121500174Y-83067081D01*
X121540698Y-83033913D01*
X121586273Y-83010224D01*
X121637891Y-82995645D01*
X121696912Y-82990572D01*
X121752638Y-82995775D01*
G37*
G36*
X122134106Y-82679101D02*
G01*
X122243405Y-82679101D01*
X122243405Y-83613574D01*
X122134106Y-83613574D01*
X122134106Y-82679101D01*
G37*
G36*
X122429152Y-82679101D02*
G01*
X122538450Y-82679101D01*
X122538450Y-83613574D01*
X122429152Y-83613574D01*
X122429152Y-82679101D01*
G37*
G36*
X123150157Y-82679101D02*
G01*
X123751299Y-82679101D01*
X123751299Y-82782904D01*
X123275819Y-82782904D01*
X123275819Y-83072576D01*
X123718510Y-83072576D01*
X123718510Y-83176379D01*
X123275819Y-83176379D01*
X123275819Y-83509771D01*
X123778593Y-83509771D01*
X123778593Y-83613574D01*
X123150157Y-83613574D01*
X123150157Y-82679101D01*
G37*
G36*
X123915125Y-83313033D02*
G01*
X123921082Y-83240087D01*
X123938002Y-83177790D01*
X123965115Y-83124238D01*
X124002564Y-83078011D01*
X124046077Y-83042079D01*
X124093650Y-83016746D01*
X124146150Y-83001361D01*
X124204797Y-82996067D01*
X124270753Y-83000834D01*
X124324041Y-83014002D01*
X124367020Y-83034402D01*
X124401535Y-83061646D01*
X124436068Y-83104645D01*
X124459616Y-83153389D01*
X124472548Y-83209169D01*
X124352320Y-83209169D01*
X124345380Y-83181495D01*
X124331181Y-83154364D01*
X124308600Y-83127226D01*
X124284690Y-83109822D01*
X124252732Y-83098584D01*
X124210232Y-83094436D01*
X124168325Y-83099449D01*
X124132360Y-83113952D01*
X124100933Y-83138155D01*
X124073021Y-83172794D01*
X124052672Y-83213529D01*
X124039883Y-83261558D01*
X124035354Y-83318468D01*
X124039568Y-83372889D01*
X124051394Y-83418248D01*
X124070071Y-83456175D01*
X124095498Y-83487911D01*
X124126926Y-83512115D01*
X124162891Y-83526618D01*
X124204797Y-83531631D01*
X124254025Y-83526348D01*
X124293366Y-83511591D01*
X124325026Y-83487911D01*
X124348959Y-83456366D01*
X124363593Y-83418689D01*
X124368745Y-83373117D01*
X124488974Y-83373117D01*
X124481750Y-83429560D01*
X124466431Y-83478572D01*
X124443404Y-83521389D01*
X124412465Y-83558925D01*
X124375017Y-83588671D01*
X124329182Y-83610765D01*
X124273200Y-83624911D01*
X124204797Y-83630000D01*
X124148686Y-83625014D01*
X124098844Y-83610579D01*
X124054068Y-83586915D01*
X124013494Y-83553490D01*
X123970251Y-83501267D01*
X123939852Y-83444520D01*
X123921443Y-83382245D01*
X123915125Y-83313033D01*
G37*
G36*
X124962953Y-82995869D02*
G01*
X125015441Y-83011266D01*
X125062993Y-83036617D01*
X125106481Y-83072576D01*
X125146952Y-83121807D01*
X125175709Y-83176566D01*
X125193315Y-83237964D01*
X125199415Y-83307538D01*
X125193316Y-83377111D01*
X125175711Y-83438520D01*
X125146954Y-83493301D01*
X125106481Y-83542561D01*
X125062997Y-83578491D01*
X125015446Y-83603823D01*
X124962956Y-83619210D01*
X124904309Y-83624504D01*
X124845662Y-83619210D01*
X124793161Y-83603825D01*
X124745589Y-83578493D01*
X124702076Y-83542561D01*
X124661631Y-83493304D01*
X124632893Y-83438525D01*
X124615298Y-83377115D01*
X124609202Y-83307538D01*
X124729431Y-83307538D01*
X124733642Y-83361963D01*
X124745457Y-83407324D01*
X124764115Y-83445249D01*
X124789515Y-83476981D01*
X124824721Y-83504634D01*
X124862582Y-83520721D01*
X124904309Y-83526135D01*
X124946033Y-83520720D01*
X124983873Y-83504632D01*
X125019042Y-83476981D01*
X125044470Y-83445245D01*
X125063146Y-83407318D01*
X125074972Y-83361959D01*
X125079187Y-83307538D01*
X125074740Y-83253581D01*
X125062085Y-83207308D01*
X125041755Y-83167342D01*
X125013607Y-83132660D01*
X124982180Y-83108456D01*
X124946215Y-83093954D01*
X124904309Y-83088941D01*
X124862402Y-83093954D01*
X124826437Y-83108456D01*
X124795010Y-83132660D01*
X124766862Y-83167342D01*
X124746533Y-83207308D01*
X124733877Y-83253581D01*
X124729431Y-83307538D01*
X124609202Y-83307538D01*
X124615299Y-83237960D01*
X124632895Y-83176561D01*
X124661633Y-83121803D01*
X124702076Y-83072576D01*
X124745593Y-83036615D01*
X124793166Y-83011264D01*
X124845665Y-82995869D01*
X124904309Y-82990572D01*
X124962953Y-82995869D01*
G37*
G36*
X125783644Y-82679101D02*
G01*
X125953087Y-82679101D01*
X126204474Y-83405907D01*
X126455861Y-82679101D01*
X126625244Y-82679101D01*
X126625244Y-83613574D01*
X126499581Y-83613574D01*
X126499581Y-82897698D01*
X126248194Y-83613574D01*
X126160755Y-83613574D01*
X125909368Y-82897698D01*
X125909368Y-83613574D01*
X125783644Y-83613574D01*
X125783644Y-82679101D01*
G37*
G36*
X127115885Y-82995161D02*
G01*
X127169915Y-83007581D01*
X127211454Y-83026333D01*
X127242995Y-83050717D01*
X127273846Y-83089782D01*
X127291678Y-83131239D01*
X127297644Y-83176379D01*
X127297644Y-83520701D01*
X127302748Y-83558572D01*
X127317242Y-83588921D01*
X127341364Y-83613574D01*
X127210205Y-83613574D01*
X127194511Y-83587073D01*
X127188346Y-83542561D01*
X127144885Y-83578232D01*
X127096507Y-83603589D01*
X127042226Y-83619121D01*
X126980678Y-83624504D01*
X126913560Y-83617711D01*
X126861908Y-83599091D01*
X126822165Y-83569855D01*
X126794514Y-83534686D01*
X126778426Y-83496846D01*
X126773011Y-83455122D01*
X126774285Y-83444192D01*
X126893239Y-83444192D01*
X126900044Y-83479652D01*
X126920533Y-83509771D01*
X126942506Y-83521036D01*
X126991608Y-83526135D01*
X127051030Y-83519177D01*
X127101340Y-83499179D01*
X127144626Y-83466051D01*
X127177670Y-83429394D01*
X127188346Y-83411402D01*
X127188346Y-83302103D01*
X127128201Y-83318468D01*
X126986113Y-83351257D01*
X126946254Y-83365735D01*
X126920533Y-83384047D01*
X126899775Y-83413403D01*
X126893239Y-83444192D01*
X126774285Y-83444192D01*
X126778717Y-83406155D01*
X126795089Y-83364828D01*
X126822165Y-83329398D01*
X126861623Y-83298339D01*
X126911834Y-83274474D01*
X126975183Y-83258384D01*
X127038549Y-83245630D01*
X127089977Y-83231029D01*
X127155136Y-83212922D01*
X127188346Y-83198239D01*
X127184734Y-83170424D01*
X127174003Y-83145190D01*
X127155556Y-83121730D01*
X127131754Y-83104094D01*
X127101414Y-83092967D01*
X127062622Y-83088941D01*
X127012570Y-83093314D01*
X126977440Y-83104755D01*
X126953323Y-83121730D01*
X126934728Y-83146729D01*
X126920533Y-83181875D01*
X126800305Y-83181875D01*
X126815600Y-83133065D01*
X126839168Y-83089617D01*
X126871379Y-83050717D01*
X126903046Y-83025515D01*
X126941702Y-83006821D01*
X126988810Y-82994867D01*
X127046257Y-82990572D01*
X127115885Y-82995161D01*
G37*
G36*
X127636043Y-83078011D02*
G01*
X127682271Y-83040559D01*
X127735814Y-83013446D01*
X127798091Y-82996528D01*
X127871004Y-82990572D01*
X127871004Y-83110800D01*
X127810921Y-83105366D01*
X127759002Y-83112801D01*
X127708508Y-83135648D01*
X127657903Y-83176379D01*
X127620899Y-83218606D01*
X127593972Y-83260384D01*
X127575898Y-83302103D01*
X127575898Y-83613574D01*
X127466599Y-83613574D01*
X127466599Y-83001502D01*
X127575898Y-83001502D01*
X127575898Y-83154520D01*
X127605009Y-83113028D01*
X127636043Y-83078011D01*
G37*
G36*
X128268712Y-82995161D02*
G01*
X128322741Y-83007581D01*
X128364280Y-83026333D01*
X128395821Y-83050717D01*
X128426673Y-83089782D01*
X128444505Y-83131239D01*
X128450471Y-83176379D01*
X128450471Y-83520701D01*
X128455574Y-83558572D01*
X128470069Y-83588921D01*
X128494190Y-83613574D01*
X128363032Y-83613574D01*
X128347338Y-83587073D01*
X128341172Y-83542561D01*
X128297712Y-83578232D01*
X128249333Y-83603589D01*
X128195052Y-83619121D01*
X128133504Y-83624504D01*
X128066386Y-83617711D01*
X128014735Y-83599091D01*
X127974991Y-83569855D01*
X127947340Y-83534686D01*
X127931252Y-83496846D01*
X127925837Y-83455122D01*
X127927111Y-83444192D01*
X128046065Y-83444192D01*
X128052870Y-83479652D01*
X128073360Y-83509771D01*
X128095332Y-83521036D01*
X128144434Y-83526135D01*
X128203856Y-83519177D01*
X128254166Y-83499179D01*
X128297452Y-83466051D01*
X128330496Y-83429394D01*
X128341172Y-83411402D01*
X128341172Y-83302103D01*
X128281027Y-83318468D01*
X128138939Y-83351257D01*
X128099080Y-83365735D01*
X128073360Y-83384047D01*
X128052601Y-83413403D01*
X128046065Y-83444192D01*
X127927111Y-83444192D01*
X127931543Y-83406155D01*
X127947916Y-83364828D01*
X127974991Y-83329398D01*
X128014449Y-83298339D01*
X128064660Y-83274474D01*
X128128009Y-83258384D01*
X128191375Y-83245630D01*
X128242803Y-83231029D01*
X128307962Y-83212922D01*
X128341172Y-83198239D01*
X128337560Y-83170424D01*
X128326829Y-83145190D01*
X128308382Y-83121730D01*
X128284580Y-83104094D01*
X128254240Y-83092967D01*
X128215448Y-83088941D01*
X128165396Y-83093314D01*
X128130266Y-83104755D01*
X128106149Y-83121730D01*
X128087554Y-83146729D01*
X128073360Y-83181875D01*
X127953131Y-83181875D01*
X127968426Y-83133065D01*
X127991994Y-83089617D01*
X128024206Y-83050717D01*
X128055872Y-83025515D01*
X128094529Y-83006821D01*
X128141636Y-82994867D01*
X128199084Y-82990572D01*
X128268712Y-82995161D01*
G37*
G36*
X128674075Y-82788400D02*
G01*
X128783374Y-82788400D01*
X128783374Y-83001502D01*
X128969181Y-83001502D01*
X128969181Y-83088941D01*
X128783374Y-83088941D01*
X128783374Y-83444192D01*
X128789924Y-83474966D01*
X128810729Y-83504275D01*
X128837230Y-83519969D01*
X128881742Y-83526135D01*
X128931625Y-83521763D01*
X128976868Y-83508996D01*
X129018396Y-83487911D01*
X129018396Y-83591714D01*
X128977247Y-83609878D01*
X128933738Y-83620801D01*
X128887238Y-83624504D01*
X128815950Y-83618057D01*
X128764814Y-83601003D01*
X128728724Y-83575350D01*
X128697540Y-83536373D01*
X128679876Y-83496695D01*
X128674075Y-83455122D01*
X128674075Y-83088941D01*
X128542916Y-83088941D01*
X128542916Y-83001502D01*
X128674075Y-83001502D01*
X128674075Y-82788400D01*
G37*
G36*
X129116338Y-82679101D02*
G01*
X129225636Y-82679101D01*
X129225636Y-83110800D01*
X129276971Y-83054654D01*
X129327119Y-83018015D01*
X129376943Y-82997319D01*
X129427808Y-82990572D01*
X129485837Y-82994619D01*
X129531988Y-83005712D01*
X129568529Y-83022727D01*
X129597252Y-83045221D01*
X129627794Y-83084392D01*
X129645780Y-83127617D01*
X129651901Y-83176379D01*
X129651901Y-83613574D01*
X129542602Y-83613574D01*
X129542602Y-83203735D01*
X129538142Y-83165230D01*
X129525375Y-83132907D01*
X129504317Y-83105366D01*
X129484517Y-83090612D01*
X129459518Y-83081349D01*
X129427808Y-83078011D01*
X129389697Y-83083267D01*
X129353626Y-83099208D01*
X129318510Y-83127226D01*
X129283132Y-83170304D01*
X129252018Y-83225943D01*
X129225636Y-83296608D01*
X129225636Y-83613574D01*
X129116338Y-83613574D01*
X129116338Y-82679101D01*
G37*
G36*
X130147740Y-82995869D02*
G01*
X130200228Y-83011266D01*
X130247780Y-83036617D01*
X130291268Y-83072576D01*
X130331739Y-83121807D01*
X130360496Y-83176566D01*
X130378102Y-83237964D01*
X130384202Y-83307538D01*
X130378103Y-83377111D01*
X130360498Y-83438520D01*
X130331741Y-83493301D01*
X130291268Y-83542561D01*
X130247784Y-83578491D01*
X130200233Y-83603823D01*
X130147743Y-83619210D01*
X130089096Y-83624504D01*
X130030449Y-83619210D01*
X129977948Y-83603825D01*
X129930376Y-83578493D01*
X129886863Y-83542561D01*
X129846418Y-83493304D01*
X129817680Y-83438525D01*
X129800085Y-83377115D01*
X129793989Y-83307538D01*
X129914218Y-83307538D01*
X129918429Y-83361963D01*
X129930244Y-83407324D01*
X129948902Y-83445249D01*
X129974302Y-83476981D01*
X130009508Y-83504634D01*
X130047369Y-83520721D01*
X130089096Y-83526135D01*
X130130820Y-83520720D01*
X130168660Y-83504632D01*
X130203829Y-83476981D01*
X130229257Y-83445245D01*
X130247933Y-83407318D01*
X130259759Y-83361959D01*
X130263974Y-83307538D01*
X130259527Y-83253581D01*
X130246872Y-83207308D01*
X130226542Y-83167342D01*
X130198394Y-83132660D01*
X130166967Y-83108456D01*
X130131002Y-83093954D01*
X130089096Y-83088941D01*
X130047190Y-83093954D01*
X130011224Y-83108456D01*
X129979797Y-83132660D01*
X129951649Y-83167342D01*
X129931320Y-83207308D01*
X129918665Y-83253581D01*
X129914218Y-83307538D01*
X129793989Y-83307538D01*
X129800086Y-83237960D01*
X129817682Y-83176561D01*
X129846420Y-83121803D01*
X129886863Y-83072576D01*
X129930380Y-83036615D01*
X129977953Y-83011264D01*
X130030452Y-82995869D01*
X130089096Y-82990572D01*
X130147740Y-82995869D01*
G37*
G36*
X130635406Y-83613574D02*
G01*
X130526107Y-83613574D01*
X130526107Y-83001502D01*
X130635406Y-83001502D01*
X130635406Y-83110800D01*
X130689482Y-83054503D01*
X130741426Y-83017852D01*
X130792171Y-82997247D01*
X130843073Y-82990572D01*
X130897031Y-82995018D01*
X130943303Y-83007674D01*
X130983269Y-83028003D01*
X131017951Y-83056151D01*
X131042443Y-83087466D01*
X131056803Y-83121707D01*
X131061671Y-83160015D01*
X131061671Y-83613574D01*
X130952372Y-83613574D01*
X130952372Y-83192805D01*
X130948612Y-83161355D01*
X130937734Y-83134371D01*
X130919583Y-83110800D01*
X130895780Y-83093164D01*
X130865440Y-83082037D01*
X130826648Y-83078011D01*
X130792220Y-83083433D01*
X130756223Y-83100699D01*
X130717349Y-83132660D01*
X130679885Y-83176589D01*
X130654722Y-83219916D01*
X130640192Y-83263281D01*
X130635406Y-83307538D01*
X130635406Y-83613574D01*
G37*
X132856200Y-135948935D02*
X132894295Y-135834649D01*
X132894295Y-135834649D02*
X132894295Y-135644173D01*
X132894295Y-135644173D02*
X132856200Y-135567982D01*
X132856200Y-135567982D02*
X132818104Y-135529887D01*
X132818104Y-135529887D02*
X132741914Y-135491792D01*
X132741914Y-135491792D02*
X132665723Y-135491792D01*
X132665723Y-135491792D02*
X132589533Y-135529887D01*
X132589533Y-135529887D02*
X132551438Y-135567982D01*
X132551438Y-135567982D02*
X132513342Y-135644173D01*
X132513342Y-135644173D02*
X132475247Y-135796554D01*
X132475247Y-135796554D02*
X132437152Y-135872744D01*
X132437152Y-135872744D02*
X132399057Y-135910839D01*
X132399057Y-135910839D02*
X132322866Y-135948935D01*
X132322866Y-135948935D02*
X132246676Y-135948935D01*
X132246676Y-135948935D02*
X132170485Y-135910839D01*
X132170485Y-135910839D02*
X132132390Y-135872744D01*
X132132390Y-135872744D02*
X132094295Y-135796554D01*
X132094295Y-135796554D02*
X132094295Y-135606077D01*
X132094295Y-135606077D02*
X132132390Y-135491792D01*
X132894295Y-135148934D02*
X132094295Y-135148934D01*
X132094295Y-135148934D02*
X132094295Y-134958458D01*
X132094295Y-134958458D02*
X132132390Y-134844172D01*
X132132390Y-134844172D02*
X132208580Y-134767982D01*
X132208580Y-134767982D02*
X132284771Y-134729887D01*
X132284771Y-134729887D02*
X132437152Y-134691791D01*
X132437152Y-134691791D02*
X132551438Y-134691791D01*
X132551438Y-134691791D02*
X132703819Y-134729887D01*
X132703819Y-134729887D02*
X132780009Y-134767982D01*
X132780009Y-134767982D02*
X132856200Y-134844172D01*
X132856200Y-134844172D02*
X132894295Y-134958458D01*
X132894295Y-134958458D02*
X132894295Y-135148934D01*
X132665723Y-134387030D02*
X132665723Y-134006077D01*
X132894295Y-134463220D02*
X132094295Y-134196553D01*
X132094295Y-134196553D02*
X132894295Y-133929887D01*
X125269819Y-128263220D02*
X124269819Y-128263220D01*
X124269819Y-128263220D02*
X124984104Y-127929887D01*
X124984104Y-127929887D02*
X124269819Y-127596554D01*
X124269819Y-127596554D02*
X125269819Y-127596554D01*
X124603152Y-126691792D02*
X125269819Y-126691792D01*
X124603152Y-127120363D02*
X125126961Y-127120363D01*
X125126961Y-127120363D02*
X125222200Y-127072744D01*
X125222200Y-127072744D02*
X125269819Y-126977506D01*
X125269819Y-126977506D02*
X125269819Y-126834649D01*
X125269819Y-126834649D02*
X125222200Y-126739411D01*
X125222200Y-126739411D02*
X125174580Y-126691792D01*
X125269819Y-126310839D02*
X124603152Y-125787030D01*
X124603152Y-126310839D02*
X125269819Y-125787030D01*
X125222200Y-124691791D02*
X125269819Y-124548934D01*
X125269819Y-124548934D02*
X125269819Y-124310839D01*
X125269819Y-124310839D02*
X125222200Y-124215601D01*
X125222200Y-124215601D02*
X125174580Y-124167982D01*
X125174580Y-124167982D02*
X125079342Y-124120363D01*
X125079342Y-124120363D02*
X124984104Y-124120363D01*
X124984104Y-124120363D02*
X124888866Y-124167982D01*
X124888866Y-124167982D02*
X124841247Y-124215601D01*
X124841247Y-124215601D02*
X124793628Y-124310839D01*
X124793628Y-124310839D02*
X124746009Y-124501315D01*
X124746009Y-124501315D02*
X124698390Y-124596553D01*
X124698390Y-124596553D02*
X124650771Y-124644172D01*
X124650771Y-124644172D02*
X124555533Y-124691791D01*
X124555533Y-124691791D02*
X124460295Y-124691791D01*
X124460295Y-124691791D02*
X124365057Y-124644172D01*
X124365057Y-124644172D02*
X124317438Y-124596553D01*
X124317438Y-124596553D02*
X124269819Y-124501315D01*
X124269819Y-124501315D02*
X124269819Y-124263220D01*
X124269819Y-124263220D02*
X124317438Y-124120363D01*
X125222200Y-123310839D02*
X125269819Y-123406077D01*
X125269819Y-123406077D02*
X125269819Y-123596553D01*
X125269819Y-123596553D02*
X125222200Y-123691791D01*
X125222200Y-123691791D02*
X125126961Y-123739410D01*
X125126961Y-123739410D02*
X124746009Y-123739410D01*
X124746009Y-123739410D02*
X124650771Y-123691791D01*
X124650771Y-123691791D02*
X124603152Y-123596553D01*
X124603152Y-123596553D02*
X124603152Y-123406077D01*
X124603152Y-123406077D02*
X124650771Y-123310839D01*
X124650771Y-123310839D02*
X124746009Y-123263220D01*
X124746009Y-123263220D02*
X124841247Y-123263220D01*
X124841247Y-123263220D02*
X124936485Y-123739410D01*
X125269819Y-122691791D02*
X125222200Y-122787029D01*
X125222200Y-122787029D02*
X125126961Y-122834648D01*
X125126961Y-122834648D02*
X124269819Y-122834648D01*
X125222200Y-121929886D02*
X125269819Y-122025124D01*
X125269819Y-122025124D02*
X125269819Y-122215600D01*
X125269819Y-122215600D02*
X125222200Y-122310838D01*
X125222200Y-122310838D02*
X125126961Y-122358457D01*
X125126961Y-122358457D02*
X124746009Y-122358457D01*
X124746009Y-122358457D02*
X124650771Y-122310838D01*
X124650771Y-122310838D02*
X124603152Y-122215600D01*
X124603152Y-122215600D02*
X124603152Y-122025124D01*
X124603152Y-122025124D02*
X124650771Y-121929886D01*
X124650771Y-121929886D02*
X124746009Y-121882267D01*
X124746009Y-121882267D02*
X124841247Y-121882267D01*
X124841247Y-121882267D02*
X124936485Y-122358457D01*
X125222200Y-121025124D02*
X125269819Y-121120362D01*
X125269819Y-121120362D02*
X125269819Y-121310838D01*
X125269819Y-121310838D02*
X125222200Y-121406076D01*
X125222200Y-121406076D02*
X125174580Y-121453695D01*
X125174580Y-121453695D02*
X125079342Y-121501314D01*
X125079342Y-121501314D02*
X124793628Y-121501314D01*
X124793628Y-121501314D02*
X124698390Y-121453695D01*
X124698390Y-121453695D02*
X124650771Y-121406076D01*
X124650771Y-121406076D02*
X124603152Y-121310838D01*
X124603152Y-121310838D02*
X124603152Y-121120362D01*
X124603152Y-121120362D02*
X124650771Y-121025124D01*
X124603152Y-120739409D02*
X124603152Y-120358457D01*
X124269819Y-120596552D02*
X125126961Y-120596552D01*
X125126961Y-120596552D02*
X125222200Y-120548933D01*
X125222200Y-120548933D02*
X125269819Y-120453695D01*
X125269819Y-120453695D02*
X125269819Y-120358457D01*
X126094295Y-121587030D02*
X126094295Y-121091792D01*
X126094295Y-121091792D02*
X126399057Y-121358458D01*
X126399057Y-121358458D02*
X126399057Y-121244173D01*
X126399057Y-121244173D02*
X126437152Y-121167982D01*
X126437152Y-121167982D02*
X126475247Y-121129887D01*
X126475247Y-121129887D02*
X126551438Y-121091792D01*
X126551438Y-121091792D02*
X126741914Y-121091792D01*
X126741914Y-121091792D02*
X126818104Y-121129887D01*
X126818104Y-121129887D02*
X126856200Y-121167982D01*
X126856200Y-121167982D02*
X126894295Y-121244173D01*
X126894295Y-121244173D02*
X126894295Y-121472744D01*
X126894295Y-121472744D02*
X126856200Y-121548935D01*
X126856200Y-121548935D02*
X126818104Y-121587030D01*
X108574874Y-109894295D02*
X108841541Y-110694295D01*
X108841541Y-110694295D02*
X109108207Y-109894295D01*
X109336778Y-109970485D02*
X109374874Y-109932390D01*
X109374874Y-109932390D02*
X109451064Y-109894295D01*
X109451064Y-109894295D02*
X109641540Y-109894295D01*
X109641540Y-109894295D02*
X109717731Y-109932390D01*
X109717731Y-109932390D02*
X109755826Y-109970485D01*
X109755826Y-109970485D02*
X109793921Y-110046676D01*
X109793921Y-110046676D02*
X109793921Y-110122866D01*
X109793921Y-110122866D02*
X109755826Y-110237152D01*
X109755826Y-110237152D02*
X109298683Y-110694295D01*
X109298683Y-110694295D02*
X109793921Y-110694295D01*
X116441541Y-138294295D02*
X116517731Y-138294295D01*
X116517731Y-138294295D02*
X116593922Y-138332390D01*
X116593922Y-138332390D02*
X116632017Y-138370485D01*
X116632017Y-138370485D02*
X116670112Y-138446676D01*
X116670112Y-138446676D02*
X116708207Y-138599057D01*
X116708207Y-138599057D02*
X116708207Y-138789533D01*
X116708207Y-138789533D02*
X116670112Y-138941914D01*
X116670112Y-138941914D02*
X116632017Y-139018104D01*
X116632017Y-139018104D02*
X116593922Y-139056200D01*
X116593922Y-139056200D02*
X116517731Y-139094295D01*
X116517731Y-139094295D02*
X116441541Y-139094295D01*
X116441541Y-139094295D02*
X116365350Y-139056200D01*
X116365350Y-139056200D02*
X116327255Y-139018104D01*
X116327255Y-139018104D02*
X116289160Y-138941914D01*
X116289160Y-138941914D02*
X116251064Y-138789533D01*
X116251064Y-138789533D02*
X116251064Y-138599057D01*
X116251064Y-138599057D02*
X116289160Y-138446676D01*
X116289160Y-138446676D02*
X116327255Y-138370485D01*
X116327255Y-138370485D02*
X116365350Y-138332390D01*
X116365350Y-138332390D02*
X116441541Y-138294295D01*
X129532390Y-135491792D02*
X129494295Y-135567982D01*
X129494295Y-135567982D02*
X129494295Y-135682268D01*
X129494295Y-135682268D02*
X129532390Y-135796554D01*
X129532390Y-135796554D02*
X129608580Y-135872744D01*
X129608580Y-135872744D02*
X129684771Y-135910839D01*
X129684771Y-135910839D02*
X129837152Y-135948935D01*
X129837152Y-135948935D02*
X129951438Y-135948935D01*
X129951438Y-135948935D02*
X130103819Y-135910839D01*
X130103819Y-135910839D02*
X130180009Y-135872744D01*
X130180009Y-135872744D02*
X130256200Y-135796554D01*
X130256200Y-135796554D02*
X130294295Y-135682268D01*
X130294295Y-135682268D02*
X130294295Y-135606077D01*
X130294295Y-135606077D02*
X130256200Y-135491792D01*
X130256200Y-135491792D02*
X130218104Y-135453696D01*
X130218104Y-135453696D02*
X129951438Y-135453696D01*
X129951438Y-135453696D02*
X129951438Y-135606077D01*
X130294295Y-135110839D02*
X129494295Y-135110839D01*
X129494295Y-135110839D02*
X130294295Y-134653696D01*
X130294295Y-134653696D02*
X129494295Y-134653696D01*
X130294295Y-134272744D02*
X129494295Y-134272744D01*
X129494295Y-134272744D02*
X129494295Y-134082268D01*
X129494295Y-134082268D02*
X129532390Y-133967982D01*
X129532390Y-133967982D02*
X129608580Y-133891792D01*
X129608580Y-133891792D02*
X129684771Y-133853697D01*
X129684771Y-133853697D02*
X129837152Y-133815601D01*
X129837152Y-133815601D02*
X129951438Y-133815601D01*
X129951438Y-133815601D02*
X130103819Y-133853697D01*
X130103819Y-133853697D02*
X130180009Y-133891792D01*
X130180009Y-133891792D02*
X130256200Y-133967982D01*
X130256200Y-133967982D02*
X130294295Y-134082268D01*
X130294295Y-134082268D02*
X130294295Y-134272744D01*
X121908207Y-139094295D02*
X121451064Y-139094295D01*
X121679636Y-139094295D02*
X121679636Y-138294295D01*
X121679636Y-138294295D02*
X121603445Y-138408580D01*
X121603445Y-138408580D02*
X121527255Y-138484771D01*
X121527255Y-138484771D02*
X121451064Y-138522866D01*
X102709523Y-107254819D02*
X102376190Y-106778628D01*
X102138095Y-107254819D02*
X102138095Y-106254819D01*
X102138095Y-106254819D02*
X102519047Y-106254819D01*
X102519047Y-106254819D02*
X102614285Y-106302438D01*
X102614285Y-106302438D02*
X102661904Y-106350057D01*
X102661904Y-106350057D02*
X102709523Y-106445295D01*
X102709523Y-106445295D02*
X102709523Y-106588152D01*
X102709523Y-106588152D02*
X102661904Y-106683390D01*
X102661904Y-106683390D02*
X102614285Y-106731009D01*
X102614285Y-106731009D02*
X102519047Y-106778628D01*
X102519047Y-106778628D02*
X102138095Y-106778628D01*
X103138095Y-107254819D02*
X103138095Y-106254819D01*
X103138095Y-106254819D02*
X103709523Y-107254819D01*
X103709523Y-107254819D02*
X103709523Y-106254819D01*
X104661904Y-106254819D02*
X104185714Y-106254819D01*
X104185714Y-106254819D02*
X104138095Y-106731009D01*
X104138095Y-106731009D02*
X104185714Y-106683390D01*
X104185714Y-106683390D02*
X104280952Y-106635771D01*
X104280952Y-106635771D02*
X104519047Y-106635771D01*
X104519047Y-106635771D02*
X104614285Y-106683390D01*
X104614285Y-106683390D02*
X104661904Y-106731009D01*
X104661904Y-106731009D02*
X104709523Y-106826247D01*
X104709523Y-106826247D02*
X104709523Y-107064342D01*
X104709523Y-107064342D02*
X104661904Y-107159580D01*
X104661904Y-107159580D02*
X104614285Y-107207200D01*
X104614285Y-107207200D02*
X104519047Y-107254819D01*
X104519047Y-107254819D02*
X104280952Y-107254819D01*
X104280952Y-107254819D02*
X104185714Y-107207200D01*
X104185714Y-107207200D02*
X104138095Y-107159580D01*
X104572820Y-108231899D02*
X104810915Y-108231899D01*
X104715677Y-108469994D02*
X104810915Y-108231899D01*
X104810915Y-108231899D02*
X104715677Y-107993804D01*
X105001391Y-108374756D02*
X104810915Y-108231899D01*
X104810915Y-108231899D02*
X105001391Y-108089042D01*
X96059523Y-104454819D02*
X95726190Y-103978628D01*
X95488095Y-104454819D02*
X95488095Y-103454819D01*
X95488095Y-103454819D02*
X95869047Y-103454819D01*
X95869047Y-103454819D02*
X95964285Y-103502438D01*
X95964285Y-103502438D02*
X96011904Y-103550057D01*
X96011904Y-103550057D02*
X96059523Y-103645295D01*
X96059523Y-103645295D02*
X96059523Y-103788152D01*
X96059523Y-103788152D02*
X96011904Y-103883390D01*
X96011904Y-103883390D02*
X95964285Y-103931009D01*
X95964285Y-103931009D02*
X95869047Y-103978628D01*
X95869047Y-103978628D02*
X95488095Y-103978628D01*
X96488095Y-104454819D02*
X96488095Y-103454819D01*
X96488095Y-103454819D02*
X97059523Y-104454819D01*
X97059523Y-104454819D02*
X97059523Y-103454819D01*
X97488095Y-103550057D02*
X97535714Y-103502438D01*
X97535714Y-103502438D02*
X97630952Y-103454819D01*
X97630952Y-103454819D02*
X97869047Y-103454819D01*
X97869047Y-103454819D02*
X97964285Y-103502438D01*
X97964285Y-103502438D02*
X98011904Y-103550057D01*
X98011904Y-103550057D02*
X98059523Y-103645295D01*
X98059523Y-103645295D02*
X98059523Y-103740533D01*
X98059523Y-103740533D02*
X98011904Y-103883390D01*
X98011904Y-103883390D02*
X97440476Y-104454819D01*
X97440476Y-104454819D02*
X98059523Y-104454819D01*
X95138701Y-96521497D02*
X95138701Y-96759592D01*
X94900606Y-96664354D02*
X95138701Y-96759592D01*
X95138701Y-96759592D02*
X95376796Y-96664354D01*
X94995844Y-96950068D02*
X95138701Y-96759592D01*
X95138701Y-96759592D02*
X95281558Y-96950068D01*
X99438095Y-96054819D02*
X99438095Y-96864342D01*
X99438095Y-96864342D02*
X99485714Y-96959580D01*
X99485714Y-96959580D02*
X99533333Y-97007200D01*
X99533333Y-97007200D02*
X99628571Y-97054819D01*
X99628571Y-97054819D02*
X99819047Y-97054819D01*
X99819047Y-97054819D02*
X99914285Y-97007200D01*
X99914285Y-97007200D02*
X99961904Y-96959580D01*
X99961904Y-96959580D02*
X100009523Y-96864342D01*
X100009523Y-96864342D02*
X100009523Y-96054819D01*
X101009523Y-97054819D02*
X100438095Y-97054819D01*
X100723809Y-97054819D02*
X100723809Y-96054819D01*
X100723809Y-96054819D02*
X100628571Y-96197676D01*
X100628571Y-96197676D02*
X100533333Y-96292914D01*
X100533333Y-96292914D02*
X100438095Y-96340533D01*
X88666666Y-136254819D02*
X88666666Y-136969104D01*
X88666666Y-136969104D02*
X88619047Y-137111961D01*
X88619047Y-137111961D02*
X88523809Y-137207200D01*
X88523809Y-137207200D02*
X88380952Y-137254819D01*
X88380952Y-137254819D02*
X88285714Y-137254819D01*
X89571428Y-136588152D02*
X89571428Y-137254819D01*
X89333333Y-136207200D02*
X89095238Y-136921485D01*
X89095238Y-136921485D02*
X89714285Y-136921485D01*
X131238095Y-99454819D02*
X131238095Y-100264342D01*
X131238095Y-100264342D02*
X131285714Y-100359580D01*
X131285714Y-100359580D02*
X131333333Y-100407200D01*
X131333333Y-100407200D02*
X131428571Y-100454819D01*
X131428571Y-100454819D02*
X131619047Y-100454819D01*
X131619047Y-100454819D02*
X131714285Y-100407200D01*
X131714285Y-100407200D02*
X131761904Y-100359580D01*
X131761904Y-100359580D02*
X131809523Y-100264342D01*
X131809523Y-100264342D02*
X131809523Y-99454819D01*
X132190476Y-99454819D02*
X132809523Y-99454819D01*
X132809523Y-99454819D02*
X132476190Y-99835771D01*
X132476190Y-99835771D02*
X132619047Y-99835771D01*
X132619047Y-99835771D02*
X132714285Y-99883390D01*
X132714285Y-99883390D02*
X132761904Y-99931009D01*
X132761904Y-99931009D02*
X132809523Y-100026247D01*
X132809523Y-100026247D02*
X132809523Y-100264342D01*
X132809523Y-100264342D02*
X132761904Y-100359580D01*
X132761904Y-100359580D02*
X132714285Y-100407200D01*
X132714285Y-100407200D02*
X132619047Y-100454819D01*
X132619047Y-100454819D02*
X132333333Y-100454819D01*
X132333333Y-100454819D02*
X132238095Y-100407200D01*
X132238095Y-100407200D02*
X132190476Y-100359580D01*
X122854819Y-114133333D02*
X123569104Y-114133333D01*
X123569104Y-114133333D02*
X123711961Y-114180952D01*
X123711961Y-114180952D02*
X123807200Y-114276190D01*
X123807200Y-114276190D02*
X123854819Y-114419047D01*
X123854819Y-114419047D02*
X123854819Y-114514285D01*
X123854819Y-113133333D02*
X123854819Y-113704761D01*
X123854819Y-113419047D02*
X122854819Y-113419047D01*
X122854819Y-113419047D02*
X122997676Y-113514285D01*
X122997676Y-113514285D02*
X123092914Y-113609523D01*
X123092914Y-113609523D02*
X123140533Y-113704761D01*
X135666667Y-93086104D02*
X135628571Y-93124200D01*
X135628571Y-93124200D02*
X135514286Y-93162295D01*
X135514286Y-93162295D02*
X135438095Y-93162295D01*
X135438095Y-93162295D02*
X135323809Y-93124200D01*
X135323809Y-93124200D02*
X135247619Y-93048009D01*
X135247619Y-93048009D02*
X135209524Y-92971819D01*
X135209524Y-92971819D02*
X135171428Y-92819438D01*
X135171428Y-92819438D02*
X135171428Y-92705152D01*
X135171428Y-92705152D02*
X135209524Y-92552771D01*
X135209524Y-92552771D02*
X135247619Y-92476580D01*
X135247619Y-92476580D02*
X135323809Y-92400390D01*
X135323809Y-92400390D02*
X135438095Y-92362295D01*
X135438095Y-92362295D02*
X135514286Y-92362295D01*
X135514286Y-92362295D02*
X135628571Y-92400390D01*
X135628571Y-92400390D02*
X135666667Y-92438485D01*
X136390476Y-92362295D02*
X136009524Y-92362295D01*
X136009524Y-92362295D02*
X135971428Y-92743247D01*
X135971428Y-92743247D02*
X136009524Y-92705152D01*
X136009524Y-92705152D02*
X136085714Y-92667057D01*
X136085714Y-92667057D02*
X136276190Y-92667057D01*
X136276190Y-92667057D02*
X136352381Y-92705152D01*
X136352381Y-92705152D02*
X136390476Y-92743247D01*
X136390476Y-92743247D02*
X136428571Y-92819438D01*
X136428571Y-92819438D02*
X136428571Y-93009914D01*
X136428571Y-93009914D02*
X136390476Y-93086104D01*
X136390476Y-93086104D02*
X136352381Y-93124200D01*
X136352381Y-93124200D02*
X136276190Y-93162295D01*
X136276190Y-93162295D02*
X136085714Y-93162295D01*
X136085714Y-93162295D02*
X136009524Y-93124200D01*
X136009524Y-93124200D02*
X135971428Y-93086104D01*
X133957533Y-100204761D02*
X133957533Y-99595238D01*
X134262295Y-99899999D02*
X133652771Y-99899999D01*
X126233333Y-106559580D02*
X126185714Y-106607200D01*
X126185714Y-106607200D02*
X126042857Y-106654819D01*
X126042857Y-106654819D02*
X125947619Y-106654819D01*
X125947619Y-106654819D02*
X125804762Y-106607200D01*
X125804762Y-106607200D02*
X125709524Y-106511961D01*
X125709524Y-106511961D02*
X125661905Y-106416723D01*
X125661905Y-106416723D02*
X125614286Y-106226247D01*
X125614286Y-106226247D02*
X125614286Y-106083390D01*
X125614286Y-106083390D02*
X125661905Y-105892914D01*
X125661905Y-105892914D02*
X125709524Y-105797676D01*
X125709524Y-105797676D02*
X125804762Y-105702438D01*
X125804762Y-105702438D02*
X125947619Y-105654819D01*
X125947619Y-105654819D02*
X126042857Y-105654819D01*
X126042857Y-105654819D02*
X126185714Y-105702438D01*
X126185714Y-105702438D02*
X126233333Y-105750057D01*
X126566667Y-105654819D02*
X127185714Y-105654819D01*
X127185714Y-105654819D02*
X126852381Y-106035771D01*
X126852381Y-106035771D02*
X126995238Y-106035771D01*
X126995238Y-106035771D02*
X127090476Y-106083390D01*
X127090476Y-106083390D02*
X127138095Y-106131009D01*
X127138095Y-106131009D02*
X127185714Y-106226247D01*
X127185714Y-106226247D02*
X127185714Y-106464342D01*
X127185714Y-106464342D02*
X127138095Y-106559580D01*
X127138095Y-106559580D02*
X127090476Y-106607200D01*
X127090476Y-106607200D02*
X126995238Y-106654819D01*
X126995238Y-106654819D02*
X126709524Y-106654819D01*
X126709524Y-106654819D02*
X126614286Y-106607200D01*
X126614286Y-106607200D02*
X126566667Y-106559580D01*
X99438095Y-125654819D02*
X99438095Y-126464342D01*
X99438095Y-126464342D02*
X99485714Y-126559580D01*
X99485714Y-126559580D02*
X99533333Y-126607200D01*
X99533333Y-126607200D02*
X99628571Y-126654819D01*
X99628571Y-126654819D02*
X99819047Y-126654819D01*
X99819047Y-126654819D02*
X99914285Y-126607200D01*
X99914285Y-126607200D02*
X99961904Y-126559580D01*
X99961904Y-126559580D02*
X100009523Y-126464342D01*
X100009523Y-126464342D02*
X100009523Y-125654819D01*
X100438095Y-125750057D02*
X100485714Y-125702438D01*
X100485714Y-125702438D02*
X100580952Y-125654819D01*
X100580952Y-125654819D02*
X100819047Y-125654819D01*
X100819047Y-125654819D02*
X100914285Y-125702438D01*
X100914285Y-125702438D02*
X100961904Y-125750057D01*
X100961904Y-125750057D02*
X101009523Y-125845295D01*
X101009523Y-125845295D02*
X101009523Y-125940533D01*
X101009523Y-125940533D02*
X100961904Y-126083390D01*
X100961904Y-126083390D02*
X100390476Y-126654819D01*
X100390476Y-126654819D02*
X101009523Y-126654819D01*
X115438095Y-106254819D02*
X115438095Y-107064342D01*
X115438095Y-107064342D02*
X115485714Y-107159580D01*
X115485714Y-107159580D02*
X115533333Y-107207200D01*
X115533333Y-107207200D02*
X115628571Y-107254819D01*
X115628571Y-107254819D02*
X115819047Y-107254819D01*
X115819047Y-107254819D02*
X115914285Y-107207200D01*
X115914285Y-107207200D02*
X115961904Y-107159580D01*
X115961904Y-107159580D02*
X116009523Y-107064342D01*
X116009523Y-107064342D02*
X116009523Y-106254819D01*
X116914285Y-106588152D02*
X116914285Y-107254819D01*
X116676190Y-106207200D02*
X116438095Y-106921485D01*
X116438095Y-106921485D02*
X117057142Y-106921485D01*
X107109523Y-139654819D02*
X106776190Y-139178628D01*
X106538095Y-139654819D02*
X106538095Y-138654819D01*
X106538095Y-138654819D02*
X106919047Y-138654819D01*
X106919047Y-138654819D02*
X107014285Y-138702438D01*
X107014285Y-138702438D02*
X107061904Y-138750057D01*
X107061904Y-138750057D02*
X107109523Y-138845295D01*
X107109523Y-138845295D02*
X107109523Y-138988152D01*
X107109523Y-138988152D02*
X107061904Y-139083390D01*
X107061904Y-139083390D02*
X107014285Y-139131009D01*
X107014285Y-139131009D02*
X106919047Y-139178628D01*
X106919047Y-139178628D02*
X106538095Y-139178628D01*
X107538095Y-139654819D02*
X107538095Y-138654819D01*
X107538095Y-138654819D02*
X108109523Y-139654819D01*
X108109523Y-139654819D02*
X108109523Y-138654819D01*
X108490476Y-138654819D02*
X109157142Y-138654819D01*
X109157142Y-138654819D02*
X108728571Y-139654819D01*
X104806619Y-137817499D02*
X105044714Y-137817499D01*
X104949476Y-138055594D02*
X105044714Y-137817499D01*
X105044714Y-137817499D02*
X104949476Y-137579404D01*
X105235190Y-137960356D02*
X105044714Y-137817499D01*
X105044714Y-137817499D02*
X105235190Y-137674642D01*
X129333333Y-90304819D02*
X129000000Y-89828628D01*
X128761905Y-90304819D02*
X128761905Y-89304819D01*
X128761905Y-89304819D02*
X129142857Y-89304819D01*
X129142857Y-89304819D02*
X129238095Y-89352438D01*
X129238095Y-89352438D02*
X129285714Y-89400057D01*
X129285714Y-89400057D02*
X129333333Y-89495295D01*
X129333333Y-89495295D02*
X129333333Y-89638152D01*
X129333333Y-89638152D02*
X129285714Y-89733390D01*
X129285714Y-89733390D02*
X129238095Y-89781009D01*
X129238095Y-89781009D02*
X129142857Y-89828628D01*
X129142857Y-89828628D02*
X128761905Y-89828628D01*
X130285714Y-90304819D02*
X129714286Y-90304819D01*
X130000000Y-90304819D02*
X130000000Y-89304819D01*
X130000000Y-89304819D02*
X129904762Y-89447676D01*
X129904762Y-89447676D02*
X129809524Y-89542914D01*
X129809524Y-89542914D02*
X129714286Y-89590533D01*
X106509523Y-84654819D02*
X106176190Y-84178628D01*
X105938095Y-84654819D02*
X105938095Y-83654819D01*
X105938095Y-83654819D02*
X106319047Y-83654819D01*
X106319047Y-83654819D02*
X106414285Y-83702438D01*
X106414285Y-83702438D02*
X106461904Y-83750057D01*
X106461904Y-83750057D02*
X106509523Y-83845295D01*
X106509523Y-83845295D02*
X106509523Y-83988152D01*
X106509523Y-83988152D02*
X106461904Y-84083390D01*
X106461904Y-84083390D02*
X106414285Y-84131009D01*
X106414285Y-84131009D02*
X106319047Y-84178628D01*
X106319047Y-84178628D02*
X105938095Y-84178628D01*
X106938095Y-84654819D02*
X106938095Y-83654819D01*
X106938095Y-83654819D02*
X107509523Y-84654819D01*
X107509523Y-84654819D02*
X107509523Y-83654819D01*
X108414285Y-83654819D02*
X108223809Y-83654819D01*
X108223809Y-83654819D02*
X108128571Y-83702438D01*
X108128571Y-83702438D02*
X108080952Y-83750057D01*
X108080952Y-83750057D02*
X107985714Y-83892914D01*
X107985714Y-83892914D02*
X107938095Y-84083390D01*
X107938095Y-84083390D02*
X107938095Y-84464342D01*
X107938095Y-84464342D02*
X107985714Y-84559580D01*
X107985714Y-84559580D02*
X108033333Y-84607200D01*
X108033333Y-84607200D02*
X108128571Y-84654819D01*
X108128571Y-84654819D02*
X108319047Y-84654819D01*
X108319047Y-84654819D02*
X108414285Y-84607200D01*
X108414285Y-84607200D02*
X108461904Y-84559580D01*
X108461904Y-84559580D02*
X108509523Y-84464342D01*
X108509523Y-84464342D02*
X108509523Y-84226247D01*
X108509523Y-84226247D02*
X108461904Y-84131009D01*
X108461904Y-84131009D02*
X108414285Y-84083390D01*
X108414285Y-84083390D02*
X108319047Y-84035771D01*
X108319047Y-84035771D02*
X108128571Y-84035771D01*
X108128571Y-84035771D02*
X108033333Y-84083390D01*
X108033333Y-84083390D02*
X107985714Y-84131009D01*
X107985714Y-84131009D02*
X107938095Y-84226247D01*
X110254819Y-85599999D02*
X110492914Y-85599999D01*
X110397676Y-85838094D02*
X110492914Y-85599999D01*
X110492914Y-85599999D02*
X110397676Y-85361904D01*
X110683390Y-85742856D02*
X110492914Y-85599999D01*
X110492914Y-85599999D02*
X110683390Y-85457142D01*
X102309523Y-116454819D02*
X101976190Y-115978628D01*
X101738095Y-116454819D02*
X101738095Y-115454819D01*
X101738095Y-115454819D02*
X102119047Y-115454819D01*
X102119047Y-115454819D02*
X102214285Y-115502438D01*
X102214285Y-115502438D02*
X102261904Y-115550057D01*
X102261904Y-115550057D02*
X102309523Y-115645295D01*
X102309523Y-115645295D02*
X102309523Y-115788152D01*
X102309523Y-115788152D02*
X102261904Y-115883390D01*
X102261904Y-115883390D02*
X102214285Y-115931009D01*
X102214285Y-115931009D02*
X102119047Y-115978628D01*
X102119047Y-115978628D02*
X101738095Y-115978628D01*
X102738095Y-116454819D02*
X102738095Y-115454819D01*
X102738095Y-115454819D02*
X103309523Y-116454819D01*
X103309523Y-116454819D02*
X103309523Y-115454819D01*
X103928571Y-115883390D02*
X103833333Y-115835771D01*
X103833333Y-115835771D02*
X103785714Y-115788152D01*
X103785714Y-115788152D02*
X103738095Y-115692914D01*
X103738095Y-115692914D02*
X103738095Y-115645295D01*
X103738095Y-115645295D02*
X103785714Y-115550057D01*
X103785714Y-115550057D02*
X103833333Y-115502438D01*
X103833333Y-115502438D02*
X103928571Y-115454819D01*
X103928571Y-115454819D02*
X104119047Y-115454819D01*
X104119047Y-115454819D02*
X104214285Y-115502438D01*
X104214285Y-115502438D02*
X104261904Y-115550057D01*
X104261904Y-115550057D02*
X104309523Y-115645295D01*
X104309523Y-115645295D02*
X104309523Y-115692914D01*
X104309523Y-115692914D02*
X104261904Y-115788152D01*
X104261904Y-115788152D02*
X104214285Y-115835771D01*
X104214285Y-115835771D02*
X104119047Y-115883390D01*
X104119047Y-115883390D02*
X103928571Y-115883390D01*
X103928571Y-115883390D02*
X103833333Y-115931009D01*
X103833333Y-115931009D02*
X103785714Y-115978628D01*
X103785714Y-115978628D02*
X103738095Y-116073866D01*
X103738095Y-116073866D02*
X103738095Y-116264342D01*
X103738095Y-116264342D02*
X103785714Y-116359580D01*
X103785714Y-116359580D02*
X103833333Y-116407200D01*
X103833333Y-116407200D02*
X103928571Y-116454819D01*
X103928571Y-116454819D02*
X104119047Y-116454819D01*
X104119047Y-116454819D02*
X104214285Y-116407200D01*
X104214285Y-116407200D02*
X104261904Y-116359580D01*
X104261904Y-116359580D02*
X104309523Y-116264342D01*
X104309523Y-116264342D02*
X104309523Y-116073866D01*
X104309523Y-116073866D02*
X104261904Y-115978628D01*
X104261904Y-115978628D02*
X104214285Y-115931009D01*
X104214285Y-115931009D02*
X104119047Y-115883390D01*
X110054819Y-114799999D02*
X110292914Y-114799999D01*
X110197676Y-115038094D02*
X110292914Y-114799999D01*
X110292914Y-114799999D02*
X110197676Y-114561904D01*
X110483390Y-114942856D02*
X110292914Y-114799999D01*
X110292914Y-114799999D02*
X110483390Y-114657142D01*
X111666666Y-107534819D02*
X111666666Y-108249104D01*
X111666666Y-108249104D02*
X111619047Y-108391961D01*
X111619047Y-108391961D02*
X111523809Y-108487200D01*
X111523809Y-108487200D02*
X111380952Y-108534819D01*
X111380952Y-108534819D02*
X111285714Y-108534819D01*
X112047619Y-107534819D02*
X112714285Y-107534819D01*
X112714285Y-107534819D02*
X112285714Y-108534819D01*
X95709523Y-90454819D02*
X95376190Y-89978628D01*
X95138095Y-90454819D02*
X95138095Y-89454819D01*
X95138095Y-89454819D02*
X95519047Y-89454819D01*
X95519047Y-89454819D02*
X95614285Y-89502438D01*
X95614285Y-89502438D02*
X95661904Y-89550057D01*
X95661904Y-89550057D02*
X95709523Y-89645295D01*
X95709523Y-89645295D02*
X95709523Y-89788152D01*
X95709523Y-89788152D02*
X95661904Y-89883390D01*
X95661904Y-89883390D02*
X95614285Y-89931009D01*
X95614285Y-89931009D02*
X95519047Y-89978628D01*
X95519047Y-89978628D02*
X95138095Y-89978628D01*
X96138095Y-90454819D02*
X96138095Y-89454819D01*
X96138095Y-89454819D02*
X96709523Y-90454819D01*
X96709523Y-90454819D02*
X96709523Y-89454819D01*
X97709523Y-90454819D02*
X97138095Y-90454819D01*
X97423809Y-90454819D02*
X97423809Y-89454819D01*
X97423809Y-89454819D02*
X97328571Y-89597676D01*
X97328571Y-89597676D02*
X97233333Y-89692914D01*
X97233333Y-89692914D02*
X97138095Y-89740533D01*
X95138701Y-90771497D02*
X95138701Y-91009592D01*
X94900606Y-90914354D02*
X95138701Y-91009592D01*
X95138701Y-91009592D02*
X95376796Y-90914354D01*
X94995844Y-91200068D02*
X95138701Y-91009592D01*
X95138701Y-91009592D02*
X95281558Y-91200068D01*
X124583333Y-90204819D02*
X124250000Y-89728628D01*
X124011905Y-90204819D02*
X124011905Y-89204819D01*
X124011905Y-89204819D02*
X124392857Y-89204819D01*
X124392857Y-89204819D02*
X124488095Y-89252438D01*
X124488095Y-89252438D02*
X124535714Y-89300057D01*
X124535714Y-89300057D02*
X124583333Y-89395295D01*
X124583333Y-89395295D02*
X124583333Y-89538152D01*
X124583333Y-89538152D02*
X124535714Y-89633390D01*
X124535714Y-89633390D02*
X124488095Y-89681009D01*
X124488095Y-89681009D02*
X124392857Y-89728628D01*
X124392857Y-89728628D02*
X124011905Y-89728628D01*
X124964286Y-89300057D02*
X125011905Y-89252438D01*
X125011905Y-89252438D02*
X125107143Y-89204819D01*
X125107143Y-89204819D02*
X125345238Y-89204819D01*
X125345238Y-89204819D02*
X125440476Y-89252438D01*
X125440476Y-89252438D02*
X125488095Y-89300057D01*
X125488095Y-89300057D02*
X125535714Y-89395295D01*
X125535714Y-89395295D02*
X125535714Y-89490533D01*
X125535714Y-89490533D02*
X125488095Y-89633390D01*
X125488095Y-89633390D02*
X124916667Y-90204819D01*
X124916667Y-90204819D02*
X125535714Y-90204819D01*
X92066666Y-78454819D02*
X92066666Y-79169104D01*
X92066666Y-79169104D02*
X92019047Y-79311961D01*
X92019047Y-79311961D02*
X91923809Y-79407200D01*
X91923809Y-79407200D02*
X91780952Y-79454819D01*
X91780952Y-79454819D02*
X91685714Y-79454819D01*
X92447619Y-78454819D02*
X93066666Y-78454819D01*
X93066666Y-78454819D02*
X92733333Y-78835771D01*
X92733333Y-78835771D02*
X92876190Y-78835771D01*
X92876190Y-78835771D02*
X92971428Y-78883390D01*
X92971428Y-78883390D02*
X93019047Y-78931009D01*
X93019047Y-78931009D02*
X93066666Y-79026247D01*
X93066666Y-79026247D02*
X93066666Y-79264342D01*
X93066666Y-79264342D02*
X93019047Y-79359580D01*
X93019047Y-79359580D02*
X92971428Y-79407200D01*
X92971428Y-79407200D02*
X92876190Y-79454819D01*
X92876190Y-79454819D02*
X92590476Y-79454819D01*
X92590476Y-79454819D02*
X92495238Y-79407200D01*
X92495238Y-79407200D02*
X92447619Y-79359580D01*
X96059523Y-133704819D02*
X95726190Y-133228628D01*
X95488095Y-133704819D02*
X95488095Y-132704819D01*
X95488095Y-132704819D02*
X95869047Y-132704819D01*
X95869047Y-132704819D02*
X95964285Y-132752438D01*
X95964285Y-132752438D02*
X96011904Y-132800057D01*
X96011904Y-132800057D02*
X96059523Y-132895295D01*
X96059523Y-132895295D02*
X96059523Y-133038152D01*
X96059523Y-133038152D02*
X96011904Y-133133390D01*
X96011904Y-133133390D02*
X95964285Y-133181009D01*
X95964285Y-133181009D02*
X95869047Y-133228628D01*
X95869047Y-133228628D02*
X95488095Y-133228628D01*
X96488095Y-133704819D02*
X96488095Y-132704819D01*
X96488095Y-132704819D02*
X97059523Y-133704819D01*
X97059523Y-133704819D02*
X97059523Y-132704819D01*
X97964285Y-133038152D02*
X97964285Y-133704819D01*
X97726190Y-132657200D02*
X97488095Y-133371485D01*
X97488095Y-133371485D02*
X98107142Y-133371485D01*
X95432500Y-126047409D02*
X95432500Y-126285504D01*
X95194405Y-126190266D02*
X95432500Y-126285504D01*
X95432500Y-126285504D02*
X95670595Y-126190266D01*
X95289643Y-126475980D02*
X95432500Y-126285504D01*
X95432500Y-126285504D02*
X95575357Y-126475980D01*
X113514819Y-136833333D02*
X114229104Y-136833333D01*
X114229104Y-136833333D02*
X114371961Y-136880952D01*
X114371961Y-136880952D02*
X114467200Y-136976190D01*
X114467200Y-136976190D02*
X114514819Y-137119047D01*
X114514819Y-137119047D02*
X114514819Y-137214285D01*
X113514819Y-135880952D02*
X113514819Y-136357142D01*
X113514819Y-136357142D02*
X113991009Y-136404761D01*
X113991009Y-136404761D02*
X113943390Y-136357142D01*
X113943390Y-136357142D02*
X113895771Y-136261904D01*
X113895771Y-136261904D02*
X113895771Y-136023809D01*
X113895771Y-136023809D02*
X113943390Y-135928571D01*
X113943390Y-135928571D02*
X113991009Y-135880952D01*
X113991009Y-135880952D02*
X114086247Y-135833333D01*
X114086247Y-135833333D02*
X114324342Y-135833333D01*
X114324342Y-135833333D02*
X114419580Y-135880952D01*
X114419580Y-135880952D02*
X114467200Y-135928571D01*
X114467200Y-135928571D02*
X114514819Y-136023809D01*
X114514819Y-136023809D02*
X114514819Y-136261904D01*
X114514819Y-136261904D02*
X114467200Y-136357142D01*
X114467200Y-136357142D02*
X114419580Y-136404761D01*
X128833333Y-103654819D02*
X128500000Y-103178628D01*
X128261905Y-103654819D02*
X128261905Y-102654819D01*
X128261905Y-102654819D02*
X128642857Y-102654819D01*
X128642857Y-102654819D02*
X128738095Y-102702438D01*
X128738095Y-102702438D02*
X128785714Y-102750057D01*
X128785714Y-102750057D02*
X128833333Y-102845295D01*
X128833333Y-102845295D02*
X128833333Y-102988152D01*
X128833333Y-102988152D02*
X128785714Y-103083390D01*
X128785714Y-103083390D02*
X128738095Y-103131009D01*
X128738095Y-103131009D02*
X128642857Y-103178628D01*
X128642857Y-103178628D02*
X128261905Y-103178628D01*
X129690476Y-102988152D02*
X129690476Y-103654819D01*
X129452381Y-102607200D02*
X129214286Y-103321485D01*
X129214286Y-103321485D02*
X129833333Y-103321485D01*
X120083333Y-98359580D02*
X120035714Y-98407200D01*
X120035714Y-98407200D02*
X119892857Y-98454819D01*
X119892857Y-98454819D02*
X119797619Y-98454819D01*
X119797619Y-98454819D02*
X119654762Y-98407200D01*
X119654762Y-98407200D02*
X119559524Y-98311961D01*
X119559524Y-98311961D02*
X119511905Y-98216723D01*
X119511905Y-98216723D02*
X119464286Y-98026247D01*
X119464286Y-98026247D02*
X119464286Y-97883390D01*
X119464286Y-97883390D02*
X119511905Y-97692914D01*
X119511905Y-97692914D02*
X119559524Y-97597676D01*
X119559524Y-97597676D02*
X119654762Y-97502438D01*
X119654762Y-97502438D02*
X119797619Y-97454819D01*
X119797619Y-97454819D02*
X119892857Y-97454819D01*
X119892857Y-97454819D02*
X120035714Y-97502438D01*
X120035714Y-97502438D02*
X120083333Y-97550057D01*
X120940476Y-97788152D02*
X120940476Y-98454819D01*
X120702381Y-97407200D02*
X120464286Y-98121485D01*
X120464286Y-98121485D02*
X121083333Y-98121485D01*
X127633333Y-95159580D02*
X127585714Y-95207200D01*
X127585714Y-95207200D02*
X127442857Y-95254819D01*
X127442857Y-95254819D02*
X127347619Y-95254819D01*
X127347619Y-95254819D02*
X127204762Y-95207200D01*
X127204762Y-95207200D02*
X127109524Y-95111961D01*
X127109524Y-95111961D02*
X127061905Y-95016723D01*
X127061905Y-95016723D02*
X127014286Y-94826247D01*
X127014286Y-94826247D02*
X127014286Y-94683390D01*
X127014286Y-94683390D02*
X127061905Y-94492914D01*
X127061905Y-94492914D02*
X127109524Y-94397676D01*
X127109524Y-94397676D02*
X127204762Y-94302438D01*
X127204762Y-94302438D02*
X127347619Y-94254819D01*
X127347619Y-94254819D02*
X127442857Y-94254819D01*
X127442857Y-94254819D02*
X127585714Y-94302438D01*
X127585714Y-94302438D02*
X127633333Y-94350057D01*
X128585714Y-95254819D02*
X128014286Y-95254819D01*
X128300000Y-95254819D02*
X128300000Y-94254819D01*
X128300000Y-94254819D02*
X128204762Y-94397676D01*
X128204762Y-94397676D02*
X128109524Y-94492914D01*
X128109524Y-94492914D02*
X128014286Y-94540533D01*
X127054819Y-132333333D02*
X127769104Y-132333333D01*
X127769104Y-132333333D02*
X127911961Y-132380952D01*
X127911961Y-132380952D02*
X128007200Y-132476190D01*
X128007200Y-132476190D02*
X128054819Y-132619047D01*
X128054819Y-132619047D02*
X128054819Y-132714285D01*
X127054819Y-131428571D02*
X127054819Y-131619047D01*
X127054819Y-131619047D02*
X127102438Y-131714285D01*
X127102438Y-131714285D02*
X127150057Y-131761904D01*
X127150057Y-131761904D02*
X127292914Y-131857142D01*
X127292914Y-131857142D02*
X127483390Y-131904761D01*
X127483390Y-131904761D02*
X127864342Y-131904761D01*
X127864342Y-131904761D02*
X127959580Y-131857142D01*
X127959580Y-131857142D02*
X128007200Y-131809523D01*
X128007200Y-131809523D02*
X128054819Y-131714285D01*
X128054819Y-131714285D02*
X128054819Y-131523809D01*
X128054819Y-131523809D02*
X128007200Y-131428571D01*
X128007200Y-131428571D02*
X127959580Y-131380952D01*
X127959580Y-131380952D02*
X127864342Y-131333333D01*
X127864342Y-131333333D02*
X127626247Y-131333333D01*
X127626247Y-131333333D02*
X127531009Y-131380952D01*
X127531009Y-131380952D02*
X127483390Y-131428571D01*
X127483390Y-131428571D02*
X127435771Y-131523809D01*
X127435771Y-131523809D02*
X127435771Y-131714285D01*
X127435771Y-131714285D02*
X127483390Y-131809523D01*
X127483390Y-131809523D02*
X127531009Y-131857142D01*
X127531009Y-131857142D02*
X127626247Y-131904761D01*
X96109523Y-120054819D02*
X95776190Y-119578628D01*
X95538095Y-120054819D02*
X95538095Y-119054819D01*
X95538095Y-119054819D02*
X95919047Y-119054819D01*
X95919047Y-119054819D02*
X96014285Y-119102438D01*
X96014285Y-119102438D02*
X96061904Y-119150057D01*
X96061904Y-119150057D02*
X96109523Y-119245295D01*
X96109523Y-119245295D02*
X96109523Y-119388152D01*
X96109523Y-119388152D02*
X96061904Y-119483390D01*
X96061904Y-119483390D02*
X96014285Y-119531009D01*
X96014285Y-119531009D02*
X95919047Y-119578628D01*
X95919047Y-119578628D02*
X95538095Y-119578628D01*
X96538095Y-120054819D02*
X96538095Y-119054819D01*
X96538095Y-119054819D02*
X97109523Y-120054819D01*
X97109523Y-120054819D02*
X97109523Y-119054819D01*
X97490476Y-119054819D02*
X98109523Y-119054819D01*
X98109523Y-119054819D02*
X97776190Y-119435771D01*
X97776190Y-119435771D02*
X97919047Y-119435771D01*
X97919047Y-119435771D02*
X98014285Y-119483390D01*
X98014285Y-119483390D02*
X98061904Y-119531009D01*
X98061904Y-119531009D02*
X98109523Y-119626247D01*
X98109523Y-119626247D02*
X98109523Y-119864342D01*
X98109523Y-119864342D02*
X98061904Y-119959580D01*
X98061904Y-119959580D02*
X98014285Y-120007200D01*
X98014285Y-120007200D02*
X97919047Y-120054819D01*
X97919047Y-120054819D02*
X97633333Y-120054819D01*
X97633333Y-120054819D02*
X97538095Y-120007200D01*
X97538095Y-120007200D02*
X97490476Y-119959580D01*
X95432500Y-120306619D02*
X95432500Y-120544714D01*
X95194405Y-120449476D02*
X95432500Y-120544714D01*
X95432500Y-120544714D02*
X95670595Y-120449476D01*
X95289643Y-120735190D02*
X95432500Y-120544714D01*
X95432500Y-120544714D02*
X95575357Y-120735190D01*
X120033333Y-103654819D02*
X119700000Y-103178628D01*
X119461905Y-103654819D02*
X119461905Y-102654819D01*
X119461905Y-102654819D02*
X119842857Y-102654819D01*
X119842857Y-102654819D02*
X119938095Y-102702438D01*
X119938095Y-102702438D02*
X119985714Y-102750057D01*
X119985714Y-102750057D02*
X120033333Y-102845295D01*
X120033333Y-102845295D02*
X120033333Y-102988152D01*
X120033333Y-102988152D02*
X119985714Y-103083390D01*
X119985714Y-103083390D02*
X119938095Y-103131009D01*
X119938095Y-103131009D02*
X119842857Y-103178628D01*
X119842857Y-103178628D02*
X119461905Y-103178628D01*
X120938095Y-102654819D02*
X120461905Y-102654819D01*
X120461905Y-102654819D02*
X120414286Y-103131009D01*
X120414286Y-103131009D02*
X120461905Y-103083390D01*
X120461905Y-103083390D02*
X120557143Y-103035771D01*
X120557143Y-103035771D02*
X120795238Y-103035771D01*
X120795238Y-103035771D02*
X120890476Y-103083390D01*
X120890476Y-103083390D02*
X120938095Y-103131009D01*
X120938095Y-103131009D02*
X120985714Y-103226247D01*
X120985714Y-103226247D02*
X120985714Y-103464342D01*
X120985714Y-103464342D02*
X120938095Y-103559580D01*
X120938095Y-103559580D02*
X120890476Y-103607200D01*
X120890476Y-103607200D02*
X120795238Y-103654819D01*
X120795238Y-103654819D02*
X120557143Y-103654819D01*
X120557143Y-103654819D02*
X120461905Y-103607200D01*
X120461905Y-103607200D02*
X120414286Y-103559580D01*
X122654819Y-124333333D02*
X123369104Y-124333333D01*
X123369104Y-124333333D02*
X123511961Y-124380952D01*
X123511961Y-124380952D02*
X123607200Y-124476190D01*
X123607200Y-124476190D02*
X123654819Y-124619047D01*
X123654819Y-124619047D02*
X123654819Y-124714285D01*
X122750057Y-123904761D02*
X122702438Y-123857142D01*
X122702438Y-123857142D02*
X122654819Y-123761904D01*
X122654819Y-123761904D02*
X122654819Y-123523809D01*
X122654819Y-123523809D02*
X122702438Y-123428571D01*
X122702438Y-123428571D02*
X122750057Y-123380952D01*
X122750057Y-123380952D02*
X122845295Y-123333333D01*
X122845295Y-123333333D02*
X122940533Y-123333333D01*
X122940533Y-123333333D02*
X123083390Y-123380952D01*
X123083390Y-123380952D02*
X123654819Y-123952380D01*
X123654819Y-123952380D02*
X123654819Y-123333333D01*
X133033333Y-107854819D02*
X132700000Y-107378628D01*
X132461905Y-107854819D02*
X132461905Y-106854819D01*
X132461905Y-106854819D02*
X132842857Y-106854819D01*
X132842857Y-106854819D02*
X132938095Y-106902438D01*
X132938095Y-106902438D02*
X132985714Y-106950057D01*
X132985714Y-106950057D02*
X133033333Y-107045295D01*
X133033333Y-107045295D02*
X133033333Y-107188152D01*
X133033333Y-107188152D02*
X132985714Y-107283390D01*
X132985714Y-107283390D02*
X132938095Y-107331009D01*
X132938095Y-107331009D02*
X132842857Y-107378628D01*
X132842857Y-107378628D02*
X132461905Y-107378628D01*
X133366667Y-106854819D02*
X133985714Y-106854819D01*
X133985714Y-106854819D02*
X133652381Y-107235771D01*
X133652381Y-107235771D02*
X133795238Y-107235771D01*
X133795238Y-107235771D02*
X133890476Y-107283390D01*
X133890476Y-107283390D02*
X133938095Y-107331009D01*
X133938095Y-107331009D02*
X133985714Y-107426247D01*
X133985714Y-107426247D02*
X133985714Y-107664342D01*
X133985714Y-107664342D02*
X133938095Y-107759580D01*
X133938095Y-107759580D02*
X133890476Y-107807200D01*
X133890476Y-107807200D02*
X133795238Y-107854819D01*
X133795238Y-107854819D02*
X133509524Y-107854819D01*
X133509524Y-107854819D02*
X133414286Y-107807200D01*
X133414286Y-107807200D02*
X133366667Y-107759580D01*
X120083333Y-100704819D02*
X119750000Y-100228628D01*
X119511905Y-100704819D02*
X119511905Y-99704819D01*
X119511905Y-99704819D02*
X119892857Y-99704819D01*
X119892857Y-99704819D02*
X119988095Y-99752438D01*
X119988095Y-99752438D02*
X120035714Y-99800057D01*
X120035714Y-99800057D02*
X120083333Y-99895295D01*
X120083333Y-99895295D02*
X120083333Y-100038152D01*
X120083333Y-100038152D02*
X120035714Y-100133390D01*
X120035714Y-100133390D02*
X119988095Y-100181009D01*
X119988095Y-100181009D02*
X119892857Y-100228628D01*
X119892857Y-100228628D02*
X119511905Y-100228628D01*
X120940476Y-99704819D02*
X120750000Y-99704819D01*
X120750000Y-99704819D02*
X120654762Y-99752438D01*
X120654762Y-99752438D02*
X120607143Y-99800057D01*
X120607143Y-99800057D02*
X120511905Y-99942914D01*
X120511905Y-99942914D02*
X120464286Y-100133390D01*
X120464286Y-100133390D02*
X120464286Y-100514342D01*
X120464286Y-100514342D02*
X120511905Y-100609580D01*
X120511905Y-100609580D02*
X120559524Y-100657200D01*
X120559524Y-100657200D02*
X120654762Y-100704819D01*
X120654762Y-100704819D02*
X120845238Y-100704819D01*
X120845238Y-100704819D02*
X120940476Y-100657200D01*
X120940476Y-100657200D02*
X120988095Y-100609580D01*
X120988095Y-100609580D02*
X121035714Y-100514342D01*
X121035714Y-100514342D02*
X121035714Y-100276247D01*
X121035714Y-100276247D02*
X120988095Y-100181009D01*
X120988095Y-100181009D02*
X120940476Y-100133390D01*
X120940476Y-100133390D02*
X120845238Y-100085771D01*
X120845238Y-100085771D02*
X120654762Y-100085771D01*
X120654762Y-100085771D02*
X120559524Y-100133390D01*
X120559524Y-100133390D02*
X120511905Y-100181009D01*
X120511905Y-100181009D02*
X120464286Y-100276247D01*
D11*
%TO.C,RN5*%
X105702201Y-107187960D02*
X105702201Y-106812040D01*
X109867801Y-107187960D02*
X109867801Y-106812040D01*
%TO.C,RN2*%
X96182641Y-97650878D02*
X96558561Y-97650878D01*
X96182641Y-101816478D02*
X96558561Y-101816478D01*
D12*
%TO.C,U1*%
X101260001Y-92740000D02*
X101525001Y-92740000D01*
X101260001Y-100460000D02*
X101260001Y-92740000D01*
X101525001Y-100460000D02*
X101260001Y-100460000D01*
X116615001Y-92740000D02*
X116880001Y-92740000D01*
X116880001Y-92740000D02*
X116880001Y-100460000D01*
X116880001Y-100460000D02*
X116615001Y-100460000D01*
X101520001Y-101250000D02*
X101050001Y-101590000D01*
X101050001Y-100910000D01*
X101520001Y-101250000D01*
G36*
X101520001Y-101250000D02*
G01*
X101050001Y-101590000D01*
X101050001Y-100910000D01*
X101520001Y-101250000D01*
G37*
D13*
%TO.C,J4*%
X78200000Y-107550000D02*
X78200000Y-135150000D01*
X78200000Y-135150000D02*
X88100000Y-135150000D01*
X88100000Y-107550000D02*
X78200000Y-107550000D01*
X88100000Y-109720000D02*
X88100000Y-107550000D01*
X88100000Y-135150000D02*
X88100000Y-132980000D01*
D14*
X87220000Y-135850000D02*
G75*
G02*
X87020000Y-135850000I-100000J0D01*
G01*
X87020000Y-135850000D02*
G75*
G02*
X87220000Y-135850000I100000J0D01*
G01*
%TO.C,U3*%
X128799999Y-98600000D02*
X129300001Y-98600000D01*
X128799999Y-100900000D02*
X128999999Y-100900000D01*
X130400001Y-98600000D02*
X130600001Y-98600000D01*
X130400001Y-100900000D02*
X130600001Y-100900000D01*
D13*
%TO.C,J1*%
X129690000Y-110575000D02*
X129690000Y-111300000D01*
X129690000Y-110575000D02*
X139600000Y-110575000D01*
X129690000Y-117425000D02*
X129690000Y-116700000D01*
X130400000Y-109600000D02*
X130700000Y-110100000D01*
X130700000Y-110100000D02*
X131000000Y-109600000D01*
X131000000Y-109600000D02*
X130400000Y-109600000D01*
X139600000Y-110575000D02*
X139600000Y-117425000D01*
X139600000Y-117425000D02*
X129690000Y-117425000D01*
D14*
%TO.C,C5*%
X133750000Y-94750000D02*
X133750000Y-98400000D01*
X133750000Y-94750000D02*
X134900000Y-94750000D01*
X133750000Y-98400000D02*
X134600000Y-99250000D01*
X134600000Y-99250000D02*
X134900000Y-99250000D01*
X137400000Y-99250000D02*
X137100000Y-99250000D01*
X138250000Y-94750000D02*
X137100000Y-94750000D01*
X138250000Y-94750000D02*
X138250000Y-98400000D01*
X138250000Y-98400000D02*
X137400000Y-99250000D01*
D12*
%TO.C,C3*%
X123515000Y-106738748D02*
X123515000Y-107261252D01*
X124985000Y-106738748D02*
X124985000Y-107261252D01*
%TO.C,U2*%
X101455000Y-122490000D02*
X101720000Y-122490000D01*
X101455000Y-130210000D02*
X101455000Y-122490000D01*
X101720000Y-130210000D02*
X101455000Y-130210000D01*
X116810000Y-122490000D02*
X117075000Y-122490000D01*
X117075000Y-122490000D02*
X117075000Y-130210000D01*
X117075000Y-130210000D02*
X116810000Y-130210000D01*
X101715000Y-131000000D02*
X101245000Y-131340000D01*
X101245000Y-130660000D01*
X101715000Y-131000000D01*
G36*
X101715000Y-131000000D02*
G01*
X101245000Y-131340000D01*
X101245000Y-130660000D01*
X101715000Y-131000000D01*
G37*
D15*
%TO.C,G\u002A\u002A\u002A*%
G36*
X112641630Y-80608985D02*
G01*
X112682244Y-80611262D01*
X112614044Y-80997931D01*
X112545843Y-81384599D01*
X112502954Y-81386851D01*
X112478500Y-81387529D01*
X112465557Y-81385671D01*
X112460707Y-81380377D01*
X112460254Y-81375589D01*
X112461584Y-81364822D01*
X112465265Y-81341310D01*
X112470995Y-81306748D01*
X112478471Y-81262829D01*
X112487389Y-81211248D01*
X112497447Y-81153699D01*
X112508342Y-81091878D01*
X112519771Y-81027478D01*
X112531432Y-80962194D01*
X112543020Y-80897720D01*
X112554234Y-80835751D01*
X112564771Y-80777980D01*
X112574327Y-80726104D01*
X112582600Y-80681815D01*
X112589287Y-80646809D01*
X112594085Y-80622779D01*
X112596691Y-80611421D01*
X112596967Y-80610757D01*
X112606132Y-80608892D01*
X112625374Y-80608418D01*
X112641630Y-80608985D01*
G37*
G36*
X112904434Y-80608985D02*
G01*
X112945068Y-80611262D01*
X112886938Y-80937866D01*
X112874766Y-81006663D01*
X112863439Y-81071460D01*
X112853231Y-81130643D01*
X112844413Y-81182594D01*
X112837259Y-81225698D01*
X112832041Y-81258339D01*
X112829031Y-81278901D01*
X112828386Y-81285117D01*
X112827963Y-81305764D01*
X113031022Y-81305764D01*
X113234082Y-81305764D01*
X113229332Y-81333919D01*
X113227227Y-81348726D01*
X113225419Y-81360597D01*
X113222375Y-81369852D01*
X113216564Y-81376814D01*
X113206455Y-81381804D01*
X113190515Y-81385144D01*
X113167212Y-81387156D01*
X113135016Y-81388161D01*
X113092393Y-81388482D01*
X113037813Y-81388438D01*
X112970111Y-81388353D01*
X112902547Y-81388309D01*
X112848503Y-81388123D01*
X112806482Y-81387715D01*
X112774989Y-81387006D01*
X112752527Y-81385916D01*
X112737599Y-81384367D01*
X112728710Y-81382277D01*
X112724364Y-81379569D01*
X112723063Y-81376161D01*
X112723038Y-81375214D01*
X112724370Y-81364484D01*
X112728053Y-81341006D01*
X112733786Y-81306475D01*
X112741265Y-81262585D01*
X112750187Y-81211030D01*
X112760248Y-81153506D01*
X112771146Y-81091708D01*
X112782578Y-81027329D01*
X112794241Y-80962064D01*
X112805831Y-80897608D01*
X112817046Y-80835656D01*
X112827582Y-80777902D01*
X112837137Y-80726041D01*
X112845407Y-80681767D01*
X112852089Y-80646776D01*
X112856880Y-80622761D01*
X112859478Y-80611417D01*
X112859751Y-80610757D01*
X112868916Y-80608892D01*
X112888159Y-80608418D01*
X112904434Y-80608985D01*
G37*
G36*
X109006514Y-80608030D02*
G01*
X109020079Y-80610215D01*
X109024760Y-80614989D01*
X109024321Y-80620647D01*
X109019697Y-80642466D01*
X109013417Y-80675517D01*
X109005844Y-80717577D01*
X108997342Y-80766427D01*
X108988272Y-80819845D01*
X108978999Y-80875609D01*
X108969886Y-80931499D01*
X108961296Y-80985292D01*
X108953592Y-81034769D01*
X108947138Y-81077707D01*
X108942296Y-81111885D01*
X108939430Y-81135083D01*
X108938794Y-81143703D01*
X108944252Y-81198074D01*
X108960519Y-81242038D01*
X108987631Y-81275628D01*
X109025623Y-81298879D01*
X109074530Y-81311825D01*
X109117771Y-81314789D01*
X109167900Y-81312686D01*
X109208683Y-81305139D01*
X109245199Y-81290865D01*
X109271203Y-81276018D01*
X109307995Y-81244423D01*
X109340038Y-81199933D01*
X109366008Y-81144507D01*
X109370738Y-81127964D01*
X109377553Y-81098688D01*
X109386032Y-81058752D01*
X109395756Y-81010229D01*
X109406306Y-80955193D01*
X109417262Y-80895715D01*
X109424170Y-80856979D01*
X109468075Y-80607556D01*
X109511247Y-80607532D01*
X109538795Y-80608910D01*
X109552446Y-80613207D01*
X109554345Y-80616893D01*
X109552954Y-80629006D01*
X109549129Y-80653682D01*
X109543268Y-80688737D01*
X109535772Y-80731987D01*
X109527041Y-80781249D01*
X109517473Y-80834340D01*
X109507470Y-80889076D01*
X109497431Y-80943273D01*
X109487756Y-80994747D01*
X109478844Y-81041316D01*
X109471096Y-81080796D01*
X109464910Y-81111002D01*
X109460688Y-81129752D01*
X109459903Y-81132684D01*
X109434513Y-81199178D01*
X109399472Y-81259976D01*
X109371628Y-81295382D01*
X109324807Y-81336654D01*
X109268326Y-81368487D01*
X109204743Y-81390167D01*
X109136620Y-81400980D01*
X109066517Y-81400211D01*
X109021133Y-81393170D01*
X108969038Y-81376040D01*
X108924789Y-81349559D01*
X108891156Y-81315485D01*
X108885519Y-81307242D01*
X108872507Y-81285026D01*
X108862308Y-81262788D01*
X108854940Y-81238974D01*
X108850424Y-81212033D01*
X108848780Y-81180410D01*
X108850028Y-81142552D01*
X108854187Y-81096907D01*
X108861278Y-81041921D01*
X108871321Y-80976040D01*
X108884335Y-80897713D01*
X108891312Y-80857153D01*
X108934570Y-80607508D01*
X108981007Y-80607508D01*
X109006514Y-80608030D01*
G37*
G36*
X110363406Y-79561738D02*
G01*
X110430270Y-79576945D01*
X110490582Y-79603305D01*
X110542343Y-79640532D01*
X110545127Y-79643099D01*
X110563761Y-79663254D01*
X110582619Y-79688136D01*
X110599868Y-79714637D01*
X110613679Y-79739649D01*
X110622218Y-79760063D01*
X110623656Y-79772770D01*
X110622551Y-79774510D01*
X110613098Y-79778588D01*
X110592768Y-79785096D01*
X110565269Y-79792883D01*
X110553000Y-79796121D01*
X110522615Y-79804014D01*
X110496827Y-79810781D01*
X110479838Y-79815317D01*
X110476647Y-79816202D01*
X110464182Y-79813374D01*
X110459545Y-79805389D01*
X110448248Y-79785902D01*
X110427652Y-79763290D01*
X110401816Y-79741289D01*
X110374800Y-79723633D01*
X110365821Y-79719172D01*
X110329535Y-79708543D01*
X110285260Y-79703824D01*
X110238818Y-79705034D01*
X110196033Y-79712189D01*
X110176274Y-79718622D01*
X110116618Y-79750508D01*
X110067073Y-79793088D01*
X110028348Y-79845346D01*
X110001151Y-79906266D01*
X109986192Y-79974832D01*
X109984419Y-79993440D01*
X109985241Y-80055564D01*
X109997380Y-80107851D01*
X110020942Y-80150454D01*
X110056033Y-80183523D01*
X110102758Y-80207211D01*
X110140266Y-80217832D01*
X110193037Y-80221891D01*
X110248546Y-80213177D01*
X110303733Y-80192767D01*
X110355534Y-80161740D01*
X110393887Y-80128570D01*
X110433740Y-80087884D01*
X110500878Y-80105400D01*
X110530159Y-80113676D01*
X110552971Y-80121333D01*
X110566093Y-80127230D01*
X110568016Y-80129230D01*
X110562967Y-80142267D01*
X110549363Y-80162756D01*
X110529521Y-80187789D01*
X110505759Y-80214459D01*
X110480391Y-80239858D01*
X110478382Y-80241730D01*
X110415603Y-80290058D01*
X110345079Y-80327056D01*
X110269325Y-80352027D01*
X110190855Y-80364274D01*
X110112185Y-80363098D01*
X110066857Y-80355862D01*
X110001019Y-80334679D01*
X109944736Y-80302290D01*
X109898614Y-80259550D01*
X109863262Y-80207313D01*
X109839287Y-80146434D01*
X109827296Y-80077768D01*
X109826722Y-80018120D01*
X109838511Y-79934259D01*
X109863403Y-79855348D01*
X109900369Y-79782790D01*
X109948380Y-79717990D01*
X110006406Y-79662354D01*
X110073417Y-79617286D01*
X110143491Y-79585879D01*
X110218017Y-79565920D01*
X110291988Y-79557968D01*
X110363406Y-79561738D01*
G37*
G36*
X109883226Y-80609130D02*
G01*
X109948516Y-80610825D01*
X110000912Y-80613519D01*
X110042528Y-80617736D01*
X110075476Y-80624001D01*
X110101871Y-80632840D01*
X110123827Y-80644776D01*
X110143458Y-80660336D01*
X110161116Y-80678120D01*
X110186866Y-80716574D01*
X110201300Y-80761727D01*
X110205000Y-80811118D01*
X110198548Y-80862285D01*
X110182529Y-80912769D01*
X110157525Y-80960108D01*
X110124118Y-81001843D01*
X110082893Y-81035513D01*
X110075334Y-81040149D01*
X110039694Y-81058652D01*
X110002589Y-81072472D01*
X109960841Y-81082315D01*
X109911268Y-81088888D01*
X109850690Y-81092895D01*
X109834793Y-81093531D01*
X109720991Y-81097646D01*
X109708839Y-81166041D01*
X109701714Y-81206174D01*
X109693453Y-81252761D01*
X109685533Y-81297468D01*
X109683400Y-81309518D01*
X109670113Y-81384599D01*
X109627282Y-81386851D01*
X109602297Y-81387373D01*
X109589093Y-81385145D01*
X109584583Y-81379504D01*
X109584451Y-81377681D01*
X109585713Y-81368563D01*
X109589297Y-81346388D01*
X109594901Y-81312887D01*
X109602224Y-81269787D01*
X109610962Y-81218819D01*
X109620815Y-81161711D01*
X109631481Y-81100192D01*
X109642656Y-81035992D01*
X109646447Y-81014293D01*
X109734720Y-81014293D01*
X109849166Y-81011634D01*
X109894994Y-81010321D01*
X109928894Y-81008566D01*
X109953955Y-81005966D01*
X109973264Y-81002118D01*
X109989909Y-80996618D01*
X110001152Y-80991789D01*
X110045226Y-80965651D01*
X110077502Y-80932379D01*
X110098651Y-80890741D01*
X110109340Y-80839505D01*
X110110781Y-80789841D01*
X110103082Y-80762834D01*
X110086699Y-80739140D01*
X110066306Y-80720376D01*
X110041391Y-80706768D01*
X110009654Y-80697765D01*
X109968797Y-80692819D01*
X109916521Y-80691380D01*
X109888164Y-80691742D01*
X109791878Y-80693851D01*
X109767474Y-80832752D01*
X109759488Y-80878075D01*
X109752136Y-80919570D01*
X109745911Y-80954459D01*
X109741310Y-80979967D01*
X109738895Y-80992972D01*
X109734720Y-81014293D01*
X109646447Y-81014293D01*
X109654040Y-80970840D01*
X109665329Y-80906464D01*
X109676223Y-80844594D01*
X109686419Y-80786958D01*
X109695615Y-80735287D01*
X109703510Y-80691309D01*
X109709800Y-80656752D01*
X109714184Y-80633347D01*
X109716150Y-80623671D01*
X109720250Y-80606047D01*
X109883226Y-80609130D01*
G37*
G36*
X114524061Y-80635329D02*
G01*
X114527368Y-80648252D01*
X114533910Y-80674180D01*
X114543295Y-80711547D01*
X114555130Y-80758786D01*
X114569024Y-80814330D01*
X114584585Y-80876614D01*
X114601419Y-80944070D01*
X114618591Y-81012947D01*
X114636129Y-81083269D01*
X114652648Y-81149398D01*
X114667777Y-81209852D01*
X114681143Y-81263152D01*
X114692374Y-81307817D01*
X114701100Y-81342365D01*
X114706948Y-81365316D01*
X114709546Y-81375189D01*
X114709554Y-81375214D01*
X114709997Y-81382316D01*
X114703953Y-81386294D01*
X114688462Y-81388015D01*
X114664769Y-81388353D01*
X114616023Y-81388353D01*
X114591580Y-81283240D01*
X114567137Y-81178126D01*
X114367650Y-81178403D01*
X114168164Y-81178679D01*
X114108099Y-81283240D01*
X114048034Y-81387800D01*
X114001108Y-81388077D01*
X113976793Y-81387739D01*
X113959834Y-81386586D01*
X113954182Y-81385054D01*
X113957942Y-81378202D01*
X113968773Y-81359610D01*
X113986007Y-81330403D01*
X114008971Y-81291707D01*
X114036997Y-81244647D01*
X114069414Y-81190350D01*
X114105550Y-81129941D01*
X114131789Y-81086151D01*
X114226642Y-81086151D01*
X114228487Y-81089356D01*
X114237911Y-81091790D01*
X114256376Y-81093538D01*
X114285347Y-81094687D01*
X114326286Y-81095324D01*
X114380658Y-81095535D01*
X114385602Y-81095536D01*
X114439045Y-81095463D01*
X114479266Y-81095144D01*
X114508062Y-81094431D01*
X114527228Y-81093175D01*
X114538557Y-81091228D01*
X114543846Y-81088441D01*
X114544890Y-81084666D01*
X114544392Y-81082397D01*
X114541513Y-81071572D01*
X114535600Y-81048410D01*
X114527218Y-81015155D01*
X114516930Y-80974050D01*
X114505300Y-80927337D01*
X114498600Y-80900325D01*
X114486495Y-80851657D01*
X114475425Y-80807523D01*
X114465952Y-80770131D01*
X114458636Y-80741687D01*
X114454038Y-80724397D01*
X114452868Y-80720434D01*
X114448130Y-80723549D01*
X114436707Y-80738513D01*
X114419372Y-80764144D01*
X114396900Y-80799259D01*
X114370067Y-80842675D01*
X114339699Y-80893121D01*
X114311355Y-80940857D01*
X114285479Y-80984632D01*
X114263084Y-81022718D01*
X114245184Y-81053387D01*
X114232791Y-81074909D01*
X114226916Y-81085556D01*
X114226642Y-81086151D01*
X114131789Y-81086151D01*
X114144736Y-81064545D01*
X114185570Y-80996508D01*
X114416958Y-80611262D01*
X114466745Y-80609051D01*
X114516533Y-80606839D01*
X114524061Y-80635329D01*
G37*
G36*
X110795427Y-80607696D02*
G01*
X110828940Y-80608642D01*
X110853058Y-80610532D01*
X110869186Y-80613664D01*
X110878728Y-80618340D01*
X110883089Y-80624860D01*
X110883675Y-80633523D01*
X110881889Y-80644631D01*
X110879136Y-80658483D01*
X110878556Y-80661830D01*
X110873921Y-80689874D01*
X110655718Y-80691863D01*
X110437515Y-80693851D01*
X110420491Y-80791457D01*
X110413701Y-80830320D01*
X110407463Y-80865904D01*
X110402429Y-80894499D01*
X110399251Y-80912390D01*
X110399057Y-80913464D01*
X110394648Y-80937866D01*
X110564262Y-80937866D01*
X110733875Y-80937866D01*
X110729125Y-80966021D01*
X110726464Y-80983539D01*
X110723909Y-80996858D01*
X110719574Y-81006548D01*
X110711574Y-81013182D01*
X110698027Y-81017328D01*
X110677046Y-81019558D01*
X110646748Y-81020442D01*
X110605247Y-81020551D01*
X110550660Y-81020455D01*
X110549336Y-81020455D01*
X110381506Y-81020455D01*
X110377099Y-81041102D01*
X110371995Y-81066592D01*
X110365784Y-81099980D01*
X110359002Y-81138086D01*
X110352187Y-81177729D01*
X110345874Y-81215729D01*
X110340601Y-81248905D01*
X110336903Y-81274075D01*
X110335319Y-81288060D01*
X110335296Y-81288871D01*
X110335264Y-81305764D01*
X110550228Y-81305764D01*
X110765192Y-81305764D01*
X110760538Y-81333919D01*
X110757409Y-81356104D01*
X110755840Y-81373565D01*
X110755802Y-81375214D01*
X110754959Y-81378708D01*
X110751510Y-81381523D01*
X110744001Y-81383732D01*
X110730979Y-81385409D01*
X110710990Y-81386626D01*
X110682580Y-81387455D01*
X110644298Y-81387969D01*
X110594687Y-81388241D01*
X110532297Y-81388343D01*
X110492935Y-81388353D01*
X110422257Y-81388283D01*
X110365202Y-81388033D01*
X110320377Y-81387544D01*
X110286389Y-81386758D01*
X110261847Y-81385617D01*
X110245356Y-81384062D01*
X110235524Y-81382034D01*
X110230958Y-81379475D01*
X110230150Y-81377307D01*
X110231411Y-81368270D01*
X110234993Y-81346176D01*
X110240594Y-81312755D01*
X110247911Y-81269735D01*
X110256643Y-81218845D01*
X110266489Y-81161814D01*
X110277144Y-81100371D01*
X110288309Y-81036244D01*
X110299681Y-80971163D01*
X110310957Y-80906856D01*
X110321837Y-80845052D01*
X110332017Y-80787480D01*
X110341196Y-80735869D01*
X110349072Y-80691948D01*
X110355343Y-80657445D01*
X110359707Y-80634090D01*
X110361666Y-80624401D01*
X110365582Y-80607508D01*
X110624470Y-80607508D01*
X110694597Y-80607429D01*
X110751114Y-80607391D01*
X110795427Y-80607696D01*
G37*
G36*
X113911301Y-80607696D02*
G01*
X113944814Y-80608642D01*
X113968932Y-80610532D01*
X113985059Y-80613664D01*
X113994602Y-80618340D01*
X113998963Y-80624860D01*
X113999548Y-80633523D01*
X113997762Y-80644631D01*
X113995009Y-80658483D01*
X113994430Y-80661830D01*
X113989794Y-80689874D01*
X113771592Y-80691863D01*
X113553389Y-80693851D01*
X113536364Y-80791457D01*
X113529574Y-80830320D01*
X113523336Y-80865904D01*
X113518302Y-80894499D01*
X113515125Y-80912390D01*
X113514931Y-80913464D01*
X113510522Y-80937866D01*
X113680135Y-80937866D01*
X113849749Y-80937866D01*
X113844999Y-80966021D01*
X113842338Y-80983539D01*
X113839782Y-80996858D01*
X113835447Y-81006548D01*
X113827448Y-81013182D01*
X113813900Y-81017328D01*
X113792919Y-81019558D01*
X113762621Y-81020442D01*
X113721120Y-81020551D01*
X113666533Y-81020455D01*
X113665210Y-81020455D01*
X113497379Y-81020455D01*
X113492972Y-81041102D01*
X113487868Y-81066592D01*
X113481657Y-81099980D01*
X113474876Y-81138086D01*
X113468060Y-81177729D01*
X113461747Y-81215729D01*
X113456474Y-81248905D01*
X113452777Y-81274075D01*
X113451192Y-81288060D01*
X113451169Y-81288871D01*
X113451137Y-81305764D01*
X113666101Y-81305764D01*
X113881065Y-81305764D01*
X113876412Y-81333919D01*
X113873282Y-81356104D01*
X113871714Y-81373565D01*
X113871675Y-81375214D01*
X113870832Y-81378708D01*
X113867383Y-81381523D01*
X113859874Y-81383732D01*
X113846852Y-81385409D01*
X113826863Y-81386626D01*
X113798454Y-81387455D01*
X113760171Y-81387969D01*
X113710561Y-81388241D01*
X113648170Y-81388343D01*
X113608808Y-81388353D01*
X113538130Y-81388283D01*
X113481075Y-81388033D01*
X113436250Y-81387544D01*
X113402263Y-81386758D01*
X113377720Y-81385617D01*
X113361229Y-81384062D01*
X113351397Y-81382034D01*
X113346832Y-81379475D01*
X113346024Y-81377307D01*
X113347285Y-81368270D01*
X113350866Y-81346176D01*
X113356467Y-81312755D01*
X113363785Y-81269735D01*
X113372517Y-81218845D01*
X113382362Y-81161814D01*
X113393018Y-81100371D01*
X113404183Y-81036244D01*
X113415554Y-80971163D01*
X113426831Y-80906856D01*
X113437710Y-80845052D01*
X113447890Y-80787480D01*
X113457070Y-80735869D01*
X113464946Y-80691948D01*
X113471216Y-80657445D01*
X113475580Y-80634090D01*
X113477539Y-80624401D01*
X113481456Y-80607508D01*
X113740343Y-80607508D01*
X113810470Y-80607429D01*
X113866988Y-80607391D01*
X113911301Y-80607696D01*
G37*
G36*
X116238820Y-80607696D02*
G01*
X116272334Y-80608642D01*
X116296452Y-80610532D01*
X116312579Y-80613664D01*
X116322122Y-80618340D01*
X116326483Y-80624860D01*
X116327068Y-80633523D01*
X116325282Y-80644631D01*
X116322529Y-80658483D01*
X116321950Y-80661830D01*
X116317314Y-80689874D01*
X116099112Y-80691863D01*
X115880909Y-80693851D01*
X115863884Y-80791457D01*
X115857094Y-80830320D01*
X115850856Y-80865904D01*
X115845822Y-80894499D01*
X115842644Y-80912390D01*
X115842451Y-80913464D01*
X115838042Y-80937866D01*
X116007655Y-80937866D01*
X116177269Y-80937866D01*
X116172519Y-80966021D01*
X116169858Y-80983539D01*
X116167302Y-80996858D01*
X116162967Y-81006548D01*
X116154968Y-81013182D01*
X116141420Y-81017328D01*
X116120439Y-81019558D01*
X116090141Y-81020442D01*
X116048640Y-81020551D01*
X115994053Y-81020455D01*
X115992730Y-81020455D01*
X115824899Y-81020455D01*
X115820492Y-81041102D01*
X115815388Y-81066592D01*
X115809177Y-81099980D01*
X115802396Y-81138086D01*
X115795580Y-81177729D01*
X115789267Y-81215729D01*
X115783994Y-81248905D01*
X115780297Y-81274075D01*
X115778712Y-81288060D01*
X115778689Y-81288871D01*
X115778657Y-81305764D01*
X115993621Y-81305764D01*
X116208585Y-81305764D01*
X116203932Y-81333919D01*
X116200802Y-81356104D01*
X116199234Y-81373565D01*
X116199195Y-81375214D01*
X116198352Y-81378708D01*
X116194903Y-81381523D01*
X116187394Y-81383732D01*
X116174372Y-81385409D01*
X116154383Y-81386626D01*
X116125974Y-81387455D01*
X116087691Y-81387969D01*
X116038081Y-81388241D01*
X115975690Y-81388343D01*
X115936328Y-81388353D01*
X115865650Y-81388283D01*
X115808595Y-81388033D01*
X115763770Y-81387544D01*
X115729783Y-81386758D01*
X115705240Y-81385617D01*
X115688749Y-81384062D01*
X115678917Y-81382034D01*
X115674352Y-81379475D01*
X115673544Y-81377307D01*
X115674805Y-81368270D01*
X115678386Y-81346176D01*
X115683987Y-81312755D01*
X115691305Y-81269735D01*
X115700037Y-81218845D01*
X115709882Y-81161814D01*
X115720538Y-81100371D01*
X115731703Y-81036244D01*
X115743074Y-80971163D01*
X115754351Y-80906856D01*
X115765230Y-80845052D01*
X115775410Y-80787480D01*
X115784589Y-80735869D01*
X115792465Y-80691948D01*
X115798736Y-80657445D01*
X115803100Y-80634090D01*
X115805059Y-80624401D01*
X115808976Y-80607508D01*
X116067863Y-80607508D01*
X116137990Y-80607429D01*
X116194508Y-80607391D01*
X116238820Y-80607696D01*
G37*
G36*
X111197148Y-80609130D02*
G01*
X111252068Y-80610297D01*
X111294383Y-80611606D01*
X111326507Y-80613290D01*
X111350850Y-80615580D01*
X111369826Y-80618708D01*
X111385847Y-80622908D01*
X111401323Y-80628411D01*
X111402595Y-80628908D01*
X111440840Y-80649536D01*
X111474683Y-80678142D01*
X111500479Y-80711075D01*
X111513428Y-80739991D01*
X111521248Y-80794785D01*
X111516187Y-80851731D01*
X111499164Y-80907064D01*
X111471096Y-80957014D01*
X111455943Y-80975808D01*
X111431049Y-80999167D01*
X111400595Y-81021470D01*
X111368646Y-81040311D01*
X111339271Y-81053285D01*
X111316952Y-81057990D01*
X111305797Y-81060663D01*
X111303813Y-81063636D01*
X111306595Y-81071891D01*
X111314399Y-81091961D01*
X111326407Y-81121825D01*
X111341801Y-81159462D01*
X111359766Y-81202854D01*
X111370604Y-81228815D01*
X111437395Y-81388353D01*
X111383231Y-81388353D01*
X111329068Y-81388353D01*
X111268485Y-81236314D01*
X111207902Y-81084274D01*
X111122572Y-81082175D01*
X111037241Y-81080076D01*
X111010839Y-81232338D01*
X110984436Y-81384599D01*
X110941405Y-81386851D01*
X110916350Y-81387377D01*
X110903082Y-81385170D01*
X110898517Y-81379573D01*
X110898374Y-81377681D01*
X110899635Y-81368563D01*
X110903219Y-81346388D01*
X110908824Y-81312887D01*
X110916146Y-81269787D01*
X110924885Y-81218819D01*
X110934738Y-81161711D01*
X110945403Y-81100192D01*
X110956579Y-81035992D01*
X110961917Y-81005439D01*
X111050776Y-81005439D01*
X111152893Y-81005255D01*
X111193945Y-81004614D01*
X111232690Y-81002994D01*
X111265063Y-81000631D01*
X111286995Y-80997760D01*
X111288796Y-80997378D01*
X111337131Y-80979289D01*
X111376260Y-80949693D01*
X111405167Y-80909672D01*
X111422839Y-80860303D01*
X111424253Y-80853280D01*
X111427947Y-80807027D01*
X111419913Y-80769085D01*
X111399722Y-80737877D01*
X111390524Y-80728968D01*
X111366652Y-80712700D01*
X111336462Y-80701255D01*
X111297799Y-80694220D01*
X111248506Y-80691179D01*
X111195151Y-80691466D01*
X111105259Y-80693851D01*
X111095795Y-80750162D01*
X111090696Y-80780000D01*
X111083837Y-80819449D01*
X111076121Y-80863347D01*
X111068553Y-80905956D01*
X111050776Y-81005439D01*
X110961917Y-81005439D01*
X110967962Y-80970840D01*
X110979252Y-80906464D01*
X110990146Y-80844594D01*
X111000342Y-80786958D01*
X111009538Y-80735287D01*
X111017432Y-80691309D01*
X111023723Y-80656752D01*
X111028107Y-80633347D01*
X111030073Y-80623671D01*
X111034173Y-80606047D01*
X111197148Y-80609130D01*
G37*
G36*
X109056349Y-79571758D02*
G01*
X109078825Y-79573120D01*
X109091240Y-79575844D01*
X109096064Y-79580300D01*
X109096423Y-79582656D01*
X109095150Y-79592604D01*
X109091545Y-79615451D01*
X109085925Y-79649315D01*
X109078610Y-79692314D01*
X109069917Y-79742567D01*
X109060165Y-79798192D01*
X109055244Y-79826010D01*
X109040013Y-79909719D01*
X109026182Y-79980200D01*
X109013167Y-80039110D01*
X109000385Y-80088104D01*
X108987252Y-80128839D01*
X108973187Y-80162973D01*
X108957606Y-80192161D01*
X108939925Y-80218059D01*
X108919562Y-80242326D01*
X108902427Y-80260203D01*
X108850180Y-80302277D01*
X108788817Y-80334494D01*
X108721208Y-80356040D01*
X108650222Y-80366105D01*
X108578730Y-80363876D01*
X108551383Y-80359509D01*
X108491919Y-80341297D01*
X108442933Y-80312330D01*
X108404449Y-80272632D01*
X108376492Y-80222225D01*
X108360501Y-80168472D01*
X108357302Y-80150113D01*
X108355397Y-80131061D01*
X108354964Y-80109671D01*
X108356184Y-80084297D01*
X108359234Y-80053293D01*
X108364296Y-80015012D01*
X108371548Y-79967810D01*
X108381169Y-79910039D01*
X108393339Y-79840055D01*
X108401030Y-79796630D01*
X108440422Y-79575140D01*
X108516900Y-79573001D01*
X108551914Y-79572323D01*
X108574495Y-79572861D01*
X108587201Y-79574935D01*
X108592589Y-79578869D01*
X108593378Y-79582629D01*
X108592104Y-79593182D01*
X108588534Y-79616229D01*
X108583048Y-79649488D01*
X108576027Y-79690677D01*
X108567851Y-79737515D01*
X108563649Y-79761210D01*
X108549942Y-79838504D01*
X108538778Y-79902523D01*
X108529948Y-79954752D01*
X108523245Y-79996679D01*
X108518462Y-80029789D01*
X108515392Y-80055570D01*
X108513826Y-80075509D01*
X108513558Y-80091091D01*
X108514380Y-80103804D01*
X108515089Y-80109245D01*
X108528284Y-80151442D01*
X108553158Y-80186026D01*
X108577846Y-80205011D01*
X108604892Y-80214815D01*
X108640738Y-80219781D01*
X108679903Y-80219720D01*
X108716909Y-80214442D01*
X108731383Y-80210319D01*
X108771527Y-80188913D01*
X108807255Y-80155125D01*
X108836659Y-80111376D01*
X108857829Y-80060089D01*
X108862097Y-80044398D01*
X108865020Y-80030460D01*
X108869998Y-80004709D01*
X108876631Y-79969365D01*
X108884520Y-79926646D01*
X108893268Y-79878769D01*
X108902474Y-79827954D01*
X108911741Y-79776418D01*
X108920668Y-79726380D01*
X108928857Y-79680059D01*
X108935910Y-79639672D01*
X108941428Y-79607438D01*
X108945010Y-79585575D01*
X108946260Y-79576345D01*
X108953238Y-79574264D01*
X108972052Y-79572612D01*
X108999524Y-79571601D01*
X109021341Y-79571386D01*
X109056349Y-79571758D01*
G37*
G36*
X115398207Y-80607433D02*
G01*
X115461464Y-80631449D01*
X115516290Y-80666789D01*
X115530555Y-80679249D01*
X115550225Y-80700573D01*
X115569294Y-80726167D01*
X115585806Y-80752677D01*
X115597803Y-80776749D01*
X115603328Y-80795028D01*
X115602405Y-80802414D01*
X115593782Y-80807240D01*
X115576002Y-80813199D01*
X115554076Y-80819045D01*
X115533012Y-80823530D01*
X115517819Y-80825408D01*
X115513409Y-80824572D01*
X115508649Y-80816847D01*
X115498936Y-80800269D01*
X115490763Y-80786080D01*
X115459293Y-80745408D01*
X115418309Y-80714344D01*
X115369839Y-80692887D01*
X115315909Y-80681040D01*
X115258548Y-80678801D01*
X115199781Y-80686172D01*
X115141636Y-80703153D01*
X115086141Y-80729744D01*
X115035321Y-80765946D01*
X115013922Y-80785980D01*
X114972961Y-80836470D01*
X114940702Y-80893923D01*
X114917742Y-80955635D01*
X114904680Y-81018899D01*
X114902115Y-81081010D01*
X114910645Y-81139262D01*
X114926293Y-81182161D01*
X114958119Y-81231230D01*
X114999953Y-81269296D01*
X115051286Y-81296073D01*
X115111611Y-81311278D01*
X115163626Y-81314921D01*
X115236759Y-81309561D01*
X115303524Y-81292424D01*
X115367147Y-81262422D01*
X115416165Y-81229764D01*
X115440210Y-81210801D01*
X115456235Y-81194142D01*
X115466810Y-81175371D01*
X115474504Y-81150075D01*
X115481041Y-81118344D01*
X115491032Y-81065504D01*
X115375354Y-81065504D01*
X115259676Y-81065504D01*
X115264768Y-81029840D01*
X115268803Y-81007647D01*
X115273237Y-80991991D01*
X115275145Y-80988389D01*
X115283929Y-80986738D01*
X115305402Y-80985469D01*
X115337241Y-80984637D01*
X115377121Y-80984295D01*
X115422719Y-80984500D01*
X115434153Y-80984635D01*
X115587875Y-80986668D01*
X115552289Y-81185634D01*
X115542876Y-81238251D01*
X115534366Y-81285784D01*
X115527107Y-81326303D01*
X115521444Y-81357876D01*
X115517723Y-81378573D01*
X115516291Y-81386461D01*
X115516288Y-81386476D01*
X115509270Y-81387537D01*
X115491739Y-81388218D01*
X115477373Y-81388353D01*
X115438872Y-81388353D01*
X115443787Y-81356444D01*
X115448202Y-81328888D01*
X115452710Y-81302346D01*
X115453381Y-81298584D01*
X115458060Y-81272633D01*
X115425024Y-81301011D01*
X115367989Y-81340813D01*
X115301976Y-81371346D01*
X115230475Y-81391703D01*
X115156979Y-81400979D01*
X115084980Y-81398270D01*
X115063219Y-81394799D01*
X114998742Y-81375157D01*
X114941189Y-81343087D01*
X114892118Y-81300104D01*
X114853084Y-81247725D01*
X114825642Y-81187465D01*
X114816703Y-81154610D01*
X114810063Y-81093441D01*
X114814004Y-81026285D01*
X114827693Y-80956917D01*
X114850299Y-80889111D01*
X114880990Y-80826640D01*
X114893291Y-80807028D01*
X114946822Y-80739705D01*
X115008915Y-80684628D01*
X115078943Y-80642165D01*
X115156280Y-80612685D01*
X115240298Y-80596558D01*
X115252962Y-80595353D01*
X115328159Y-80595235D01*
X115398207Y-80607433D01*
G37*
G36*
X108594485Y-80600655D02*
G01*
X108634974Y-80608754D01*
X108639554Y-80610177D01*
X108689582Y-80633371D01*
X108728597Y-80666078D01*
X108755832Y-80707444D01*
X108770354Y-80755573D01*
X108772588Y-80768562D01*
X108772727Y-80777423D01*
X108768418Y-80783826D01*
X108757310Y-80789438D01*
X108737048Y-80795927D01*
X108705280Y-80804961D01*
X108697605Y-80807144D01*
X108689051Y-80805792D01*
X108683376Y-80793907D01*
X108680438Y-80779230D01*
X108668692Y-80747825D01*
X108645980Y-80718410D01*
X108616200Y-80695091D01*
X108589455Y-80683456D01*
X108551914Y-80677107D01*
X108507102Y-80675530D01*
X108461949Y-80678612D01*
X108423674Y-80686153D01*
X108384475Y-80703743D01*
X108353463Y-80729307D01*
X108331289Y-80760415D01*
X108318604Y-80794637D01*
X108316059Y-80829542D01*
X108324308Y-80862700D01*
X108343999Y-80891679D01*
X108364274Y-80907767D01*
X108381533Y-80915724D01*
X108409748Y-80925755D01*
X108445222Y-80936657D01*
X108484254Y-80947228D01*
X108490217Y-80948718D01*
X108541166Y-80961680D01*
X108580069Y-80972688D01*
X108609589Y-80982794D01*
X108632393Y-80993050D01*
X108651146Y-81004510D01*
X108668512Y-81018224D01*
X108670395Y-81019866D01*
X108698846Y-81054420D01*
X108715651Y-81096677D01*
X108720650Y-81144669D01*
X108713684Y-81196424D01*
X108694593Y-81249973D01*
X108689888Y-81259587D01*
X108657463Y-81308245D01*
X108614972Y-81346236D01*
X108561638Y-81374196D01*
X108540821Y-81381553D01*
X108497798Y-81391664D01*
X108447122Y-81398128D01*
X108394386Y-81400658D01*
X108345184Y-81398967D01*
X108308069Y-81393488D01*
X108250668Y-81374318D01*
X108204192Y-81346452D01*
X108169433Y-81310576D01*
X108147186Y-81267373D01*
X108142447Y-81250403D01*
X108136583Y-81219040D01*
X108136949Y-81198608D01*
X108145011Y-81185799D01*
X108162233Y-81177303D01*
X108176686Y-81173128D01*
X108202612Y-81166602D01*
X108217211Y-81164528D01*
X108223733Y-81167755D01*
X108225428Y-81177133D01*
X108225480Y-81185875D01*
X108232573Y-81223447D01*
X108252193Y-81258191D01*
X108281852Y-81287223D01*
X108319061Y-81307657D01*
X108334824Y-81312609D01*
X108375435Y-81318910D01*
X108422827Y-81320348D01*
X108469922Y-81317054D01*
X108509070Y-81309333D01*
X108555044Y-81288524D01*
X108590843Y-81257006D01*
X108615483Y-81215941D01*
X108627712Y-81168765D01*
X108626487Y-81131932D01*
X108612500Y-81100963D01*
X108585352Y-81075488D01*
X108544646Y-81055136D01*
X108489982Y-81039536D01*
X108488412Y-81039199D01*
X108414041Y-81021462D01*
X108353619Y-81002549D01*
X108306087Y-80981695D01*
X108270384Y-80958137D01*
X108245451Y-80931113D01*
X108230226Y-80899859D01*
X108223649Y-80863611D01*
X108223197Y-80848273D01*
X108230429Y-80786951D01*
X108250845Y-80732013D01*
X108283538Y-80684650D01*
X108327602Y-80646054D01*
X108382131Y-80617418D01*
X108404689Y-80609612D01*
X108445399Y-80601144D01*
X108494240Y-80596837D01*
X108545754Y-80596679D01*
X108594485Y-80600655D01*
G37*
G36*
X109663286Y-79597665D02*
G01*
X109706174Y-79626173D01*
X109736027Y-79661931D01*
X109752558Y-79704246D01*
X109755478Y-79752429D01*
X109746919Y-79797908D01*
X109730298Y-79836279D01*
X109704853Y-79872953D01*
X109674372Y-79903237D01*
X109648467Y-79919917D01*
X109631650Y-79928524D01*
X109622531Y-79934408D01*
X109621992Y-79935213D01*
X109628117Y-79939738D01*
X109643776Y-79948307D01*
X109655982Y-79954400D01*
X109693321Y-79979766D01*
X109719586Y-80012934D01*
X109735102Y-80051929D01*
X109740194Y-80094778D01*
X109735187Y-80139506D01*
X109720407Y-80184140D01*
X109696178Y-80226706D01*
X109662825Y-80265229D01*
X109620674Y-80297737D01*
X109597310Y-80310674D01*
X109571255Y-80322767D01*
X109546539Y-80332290D01*
X109520901Y-80339542D01*
X109492079Y-80344824D01*
X109457810Y-80348433D01*
X109415833Y-80350669D01*
X109363886Y-80351832D01*
X109299707Y-80352220D01*
X109283101Y-80352232D01*
X109103931Y-80352232D01*
X109104375Y-80335338D01*
X109105741Y-80324793D01*
X109109491Y-80300947D01*
X109115373Y-80265280D01*
X109123065Y-80219682D01*
X109276705Y-80219682D01*
X109283723Y-80221806D01*
X109303042Y-80223248D01*
X109331956Y-80223912D01*
X109367761Y-80223697D01*
X109379854Y-80223436D01*
X109422484Y-80222120D01*
X109453252Y-80220349D01*
X109475314Y-80217644D01*
X109491823Y-80213526D01*
X109505935Y-80207516D01*
X109514116Y-80203061D01*
X109546545Y-80176365D01*
X109568092Y-80141128D01*
X109576843Y-80100614D01*
X109576943Y-80095727D01*
X109574077Y-80066124D01*
X109564475Y-80043505D01*
X109546633Y-80027078D01*
X109519047Y-80016049D01*
X109480212Y-80009626D01*
X109428624Y-80007017D01*
X109408251Y-80006858D01*
X109372638Y-80006998D01*
X109343191Y-80007381D01*
X109322755Y-80007951D01*
X109314170Y-80008650D01*
X109314071Y-80008735D01*
X109312761Y-80016384D01*
X109309229Y-80036067D01*
X109303968Y-80065049D01*
X109297474Y-80100596D01*
X109295388Y-80111971D01*
X109288594Y-80149412D01*
X109282899Y-80181570D01*
X109278806Y-80205550D01*
X109276816Y-80218458D01*
X109276705Y-80219682D01*
X109123065Y-80219682D01*
X109123134Y-80219274D01*
X109132523Y-80164411D01*
X109143287Y-80102171D01*
X109155175Y-80034037D01*
X109167933Y-79961490D01*
X109170529Y-79946793D01*
X109179821Y-79894236D01*
X109334764Y-79894236D01*
X109403726Y-79894236D01*
X109439187Y-79893284D01*
X109473252Y-79890752D01*
X109500067Y-79887122D01*
X109506264Y-79885781D01*
X109542578Y-79870422D01*
X109570647Y-79846264D01*
X109588829Y-79816057D01*
X109595482Y-79782550D01*
X109588963Y-79748491D01*
X109588691Y-79747832D01*
X109577361Y-79728485D01*
X109560575Y-79714711D01*
X109536075Y-79705732D01*
X109501600Y-79700771D01*
X109454890Y-79699051D01*
X109446746Y-79699024D01*
X109368623Y-79699024D01*
X109356700Y-79764721D01*
X109350562Y-79799042D01*
X109344844Y-79831882D01*
X109340559Y-79857396D01*
X109339770Y-79862326D01*
X109334764Y-79894236D01*
X109179821Y-79894236D01*
X109236238Y-79575140D01*
X109427238Y-79575140D01*
X109618238Y-79575140D01*
X109663286Y-79597665D01*
G37*
G36*
X111795595Y-80607534D02*
G01*
X111885677Y-80843402D01*
X111912089Y-80911802D01*
X111934747Y-80968902D01*
X111953412Y-81014138D01*
X111967843Y-81046948D01*
X111977801Y-81066767D01*
X111983047Y-81073032D01*
X111983283Y-81072909D01*
X111989295Y-81065612D01*
X112003169Y-81047574D01*
X112023883Y-81020161D01*
X112050413Y-80984739D01*
X112081737Y-80942673D01*
X112116833Y-80895329D01*
X112154678Y-80844073D01*
X112159739Y-80837204D01*
X112328672Y-80607858D01*
X112376104Y-80607683D01*
X112401892Y-80608072D01*
X112415686Y-80610073D01*
X112420494Y-80614577D01*
X112419871Y-80620647D01*
X112417895Y-80630425D01*
X112413603Y-80653545D01*
X112407254Y-80688555D01*
X112399107Y-80734004D01*
X112389420Y-80788440D01*
X112378454Y-80850410D01*
X112366466Y-80918465D01*
X112353716Y-80991150D01*
X112350231Y-81011070D01*
X112284256Y-81388353D01*
X112240768Y-81388353D01*
X112214412Y-81387261D01*
X112200690Y-81383626D01*
X112197280Y-81378011D01*
X112198573Y-81368297D01*
X112202213Y-81345814D01*
X112207844Y-81312563D01*
X112215109Y-81270544D01*
X112223649Y-81221759D01*
X112233109Y-81168209D01*
X112243131Y-81111895D01*
X112253357Y-81054818D01*
X112263431Y-80998979D01*
X112272995Y-80946380D01*
X112281693Y-80899022D01*
X112289166Y-80858905D01*
X112295059Y-80828031D01*
X112298570Y-80810492D01*
X112303436Y-80785436D01*
X112306286Y-80767015D01*
X112306512Y-80759287D01*
X112301468Y-80763879D01*
X112290025Y-80778122D01*
X112274320Y-80799307D01*
X112268109Y-80808005D01*
X112253824Y-80827943D01*
X112232246Y-80857730D01*
X112205000Y-80895135D01*
X112173715Y-80937929D01*
X112140018Y-80983881D01*
X112108980Y-81026086D01*
X112072676Y-81075321D01*
X112044065Y-81113786D01*
X112021946Y-81142811D01*
X112005118Y-81163724D01*
X111992379Y-81177856D01*
X111982529Y-81186534D01*
X111974367Y-81191089D01*
X111966690Y-81192848D01*
X111958297Y-81193142D01*
X111957988Y-81193142D01*
X111930028Y-81193142D01*
X111878116Y-81059873D01*
X111858932Y-81010307D01*
X111838994Y-80958250D01*
X111819996Y-80908156D01*
X111803629Y-80864481D01*
X111794697Y-80840260D01*
X111781220Y-80804243D01*
X111771612Y-80781094D01*
X111765121Y-80769394D01*
X111760996Y-80767724D01*
X111758887Y-80772687D01*
X111756510Y-80784927D01*
X111752012Y-80809814D01*
X111745773Y-80845188D01*
X111738170Y-80888890D01*
X111729581Y-80938759D01*
X111720761Y-80990423D01*
X111710637Y-81049827D01*
X111700283Y-81110302D01*
X111690283Y-81168460D01*
X111681221Y-81220912D01*
X111673680Y-81264270D01*
X111669690Y-81286994D01*
X111652440Y-81384599D01*
X111609519Y-81386851D01*
X111584502Y-81387375D01*
X111571269Y-81385156D01*
X111566734Y-81379535D01*
X111566597Y-81377681D01*
X111567858Y-81368598D01*
X111571439Y-81346459D01*
X111577040Y-81312992D01*
X111584356Y-81269928D01*
X111593088Y-81218996D01*
X111602933Y-81161925D01*
X111613588Y-81100444D01*
X111624753Y-81036283D01*
X111636124Y-80971171D01*
X111647401Y-80906837D01*
X111658281Y-80845011D01*
X111668463Y-80787421D01*
X111677644Y-80735798D01*
X111685522Y-80691870D01*
X111691796Y-80657367D01*
X111696164Y-80634018D01*
X111698113Y-80624401D01*
X111701731Y-80615090D01*
X111709593Y-80610005D01*
X111725438Y-80607899D01*
X111748812Y-80607521D01*
X111795595Y-80607534D01*
G37*
G36*
X108476081Y-79048539D02*
G01*
X108514410Y-79050769D01*
X108567045Y-79054458D01*
X108634157Y-79059611D01*
X108715915Y-79066232D01*
X108787455Y-79072207D01*
X109324441Y-79119756D01*
X109871674Y-79172604D01*
X110425490Y-79230394D01*
X110624327Y-79252179D01*
X111021145Y-79297333D01*
X111406127Y-79343435D01*
X111779129Y-79390455D01*
X112140011Y-79438361D01*
X112488628Y-79487125D01*
X112824840Y-79536717D01*
X113148504Y-79587106D01*
X113459477Y-79638263D01*
X113757617Y-79690157D01*
X114042782Y-79742758D01*
X114314830Y-79796038D01*
X114573618Y-79849965D01*
X114819004Y-79904510D01*
X115050846Y-79959642D01*
X115269001Y-80015332D01*
X115473327Y-80071551D01*
X115663681Y-80128267D01*
X115839923Y-80185450D01*
X116001908Y-80243072D01*
X116149495Y-80301102D01*
X116282541Y-80359510D01*
X116400905Y-80418266D01*
X116504444Y-80477340D01*
X116534879Y-80496603D01*
X116614207Y-80554708D01*
X116678964Y-80616406D01*
X116729180Y-80681775D01*
X116764883Y-80750893D01*
X116786103Y-80823836D01*
X116792868Y-80900682D01*
X116785207Y-80981509D01*
X116763149Y-81066393D01*
X116755190Y-81088786D01*
X116725375Y-81153169D01*
X116683244Y-81221405D01*
X116630361Y-81291619D01*
X116568293Y-81361940D01*
X116498604Y-81430493D01*
X116422860Y-81495407D01*
X116401164Y-81512381D01*
X116369373Y-81536129D01*
X116335907Y-81560064D01*
X116302220Y-81583288D01*
X116269767Y-81604900D01*
X116240002Y-81624003D01*
X116214380Y-81639697D01*
X116194355Y-81651083D01*
X116181382Y-81657262D01*
X116176915Y-81657335D01*
X116182410Y-81650403D01*
X116192244Y-81641515D01*
X116206385Y-81629847D01*
X116228832Y-81611838D01*
X116256016Y-81590340D01*
X116274262Y-81576057D01*
X116323084Y-81535434D01*
X116375926Y-81487082D01*
X116429282Y-81434530D01*
X116479650Y-81381306D01*
X116523524Y-81330940D01*
X116546783Y-81301562D01*
X116590260Y-81238455D01*
X116629124Y-81171724D01*
X116660836Y-81106042D01*
X116679154Y-81057996D01*
X116697105Y-80980678D01*
X116700271Y-80904572D01*
X116688871Y-80830303D01*
X116663124Y-80758497D01*
X116623251Y-80689777D01*
X116569470Y-80624770D01*
X116507180Y-80568205D01*
X116442637Y-80520535D01*
X116371582Y-80475868D01*
X116293060Y-80433854D01*
X116206115Y-80394143D01*
X116109791Y-80356384D01*
X116003132Y-80320226D01*
X115885183Y-80285318D01*
X115754988Y-80251310D01*
X115611591Y-80217852D01*
X115470824Y-80187994D01*
X115264314Y-80148100D01*
X115068677Y-80114893D01*
X114881454Y-80088149D01*
X114700187Y-80067645D01*
X114522415Y-80053159D01*
X114345682Y-80044467D01*
X114167526Y-80041347D01*
X113985489Y-80043576D01*
X113905379Y-80046125D01*
X113821569Y-80048905D01*
X113733312Y-80051194D01*
X113642326Y-80052992D01*
X113550328Y-80054298D01*
X113459035Y-80055113D01*
X113370163Y-80055436D01*
X113285430Y-80055269D01*
X113206553Y-80054610D01*
X113135248Y-80053460D01*
X113073233Y-80051819D01*
X113022224Y-80049688D01*
X112983939Y-80047065D01*
X112974371Y-80046090D01*
X112923827Y-80040178D01*
X112879167Y-80034537D01*
X112838471Y-80028725D01*
X112799817Y-80022302D01*
X112761284Y-80014825D01*
X112720951Y-80005853D01*
X112676897Y-79994946D01*
X112627201Y-79981662D01*
X112569941Y-79965560D01*
X112503196Y-79946198D01*
X112425046Y-79923136D01*
X112377475Y-79909003D01*
X112185190Y-79851834D01*
X112006790Y-79798868D01*
X111841788Y-79749963D01*
X111689694Y-79704975D01*
X111550021Y-79663765D01*
X111422280Y-79626188D01*
X111305982Y-79592105D01*
X111200640Y-79561371D01*
X111105764Y-79533846D01*
X111020866Y-79509388D01*
X110945458Y-79487854D01*
X110879052Y-79469102D01*
X110821158Y-79452991D01*
X110771289Y-79439379D01*
X110728956Y-79428123D01*
X110693671Y-79419081D01*
X110684539Y-79416816D01*
X110599790Y-79397075D01*
X110500597Y-79375938D01*
X110387456Y-79353489D01*
X110260867Y-79329813D01*
X110121327Y-79304994D01*
X109969335Y-79279118D01*
X109805389Y-79252267D01*
X109629987Y-79224526D01*
X109443628Y-79195980D01*
X109246809Y-79166713D01*
X109040028Y-79136810D01*
X108983801Y-79128815D01*
X108910298Y-79118400D01*
X108836339Y-79107922D01*
X108764371Y-79097728D01*
X108696837Y-79088165D01*
X108636184Y-79079577D01*
X108584857Y-79072312D01*
X108545301Y-79066716D01*
X108537067Y-79065551D01*
X108493113Y-79059120D01*
X108462448Y-79054122D01*
X108445244Y-79050559D01*
X108441668Y-79048439D01*
X108451890Y-79047764D01*
X108476081Y-79048539D01*
G37*
D12*
%TO.C,U4*%
X113940000Y-109690000D02*
X114035000Y-109690000D01*
X113940000Y-113810000D02*
X113940000Y-109690000D01*
X114035000Y-113810000D02*
X113940000Y-113810000D01*
X118965000Y-109690000D02*
X119060000Y-109690000D01*
X119060000Y-109690000D02*
X119060000Y-113810000D01*
X119060000Y-113810000D02*
X118965000Y-113810000D01*
X119300000Y-109390000D02*
X118970000Y-109150000D01*
X119300000Y-108910000D01*
X119300000Y-109390000D01*
G36*
X119300000Y-109390000D02*
G01*
X118970000Y-109150000D01*
X119300000Y-108910000D01*
X119300000Y-109390000D01*
G37*
D11*
%TO.C,RN7*%
X105936000Y-136773560D02*
X105936000Y-136397640D01*
X110101600Y-136773560D02*
X110101600Y-136397640D01*
D12*
%TO.C,R1*%
X129272936Y-90765000D02*
X129727064Y-90765000D01*
X129272936Y-92235000D02*
X129727064Y-92235000D01*
D11*
%TO.C,RN6*%
X105452201Y-86562040D02*
X105452201Y-86937960D01*
X109617801Y-86562040D02*
X109617801Y-86937960D01*
%TO.C,RN8*%
X105167200Y-115812040D02*
X105167200Y-116187960D01*
X109332800Y-115812040D02*
X109332800Y-116187960D01*
D12*
%TO.C,J7*%
X110620000Y-109080000D02*
X112000000Y-109080000D01*
X110620000Y-110460000D02*
X110620000Y-109080000D01*
X110620000Y-111730000D02*
X110620000Y-114380000D01*
X110620000Y-111730000D02*
X113380000Y-111730000D01*
X110620000Y-114380000D02*
X113380000Y-114380000D01*
X113380000Y-111730000D02*
X113380000Y-114380000D01*
D11*
%TO.C,RN1*%
X96182641Y-91900878D02*
X96558561Y-91900878D01*
X96182641Y-96066478D02*
X96558561Y-96066478D01*
D12*
%TO.C,R2*%
X124977064Y-90765000D02*
X124522936Y-90765000D01*
X124977064Y-92235000D02*
X124522936Y-92235000D01*
D13*
%TO.C,J3*%
X78280000Y-78300000D02*
X78280000Y-105900000D01*
X78280000Y-105900000D02*
X88180000Y-105900000D01*
X88180000Y-78300000D02*
X78280000Y-78300000D01*
X88180000Y-80470000D02*
X88180000Y-78300000D01*
X88180000Y-105900000D02*
X88180000Y-103730000D01*
D14*
X87300000Y-106600000D02*
G75*
G02*
X87100000Y-106600000I-100000J0D01*
G01*
X87100000Y-106600000D02*
G75*
G02*
X87300000Y-106600000I100000J0D01*
G01*
D11*
%TO.C,RN4*%
X96476440Y-127176790D02*
X96852360Y-127176790D01*
X96476440Y-131342390D02*
X96852360Y-131342390D01*
D12*
%TO.C,J5*%
X115060000Y-137880000D02*
X115060000Y-136500000D01*
X116440000Y-137880000D02*
X115060000Y-137880000D01*
X117710000Y-135120000D02*
X125440000Y-135120000D01*
X117710000Y-137880000D02*
X117710000Y-135120000D01*
X117710000Y-137880000D02*
X125440000Y-137880000D01*
X125440000Y-137880000D02*
X125440000Y-135120000D01*
%TO.C,R4*%
X132177064Y-102265000D02*
X131722936Y-102265000D01*
X132177064Y-103735000D02*
X131722936Y-103735000D01*
%TO.C,C4*%
X123511252Y-97265000D02*
X122988748Y-97265000D01*
X123511252Y-98735000D02*
X122988748Y-98735000D01*
%TO.C,C1*%
X129015000Y-95761252D02*
X129015000Y-95238748D01*
X130485000Y-95761252D02*
X130485000Y-95238748D01*
%TO.C,J6*%
X128600000Y-133380000D02*
X128600000Y-132000000D01*
X129980000Y-133380000D02*
X128600000Y-133380000D01*
X131250000Y-130620000D02*
X138980000Y-130620000D01*
X131250000Y-133380000D02*
X131250000Y-130620000D01*
X131250000Y-133380000D02*
X138980000Y-133380000D01*
X138980000Y-133380000D02*
X138980000Y-130620000D01*
D11*
%TO.C,RN3*%
X96476440Y-121436000D02*
X96852360Y-121436000D01*
X96476440Y-125601600D02*
X96852360Y-125601600D01*
D12*
%TO.C,R5*%
X123477064Y-102515000D02*
X123022936Y-102515000D01*
X123477064Y-103985000D02*
X123022936Y-103985000D01*
D13*
%TO.C,J2*%
X129700000Y-121075000D02*
X129700000Y-121800000D01*
X129700000Y-121075000D02*
X139610000Y-121075000D01*
X129700000Y-127925000D02*
X129700000Y-127200000D01*
X130410000Y-120100000D02*
X130710000Y-120600000D01*
X130710000Y-120600000D02*
X131010000Y-120100000D01*
X131010000Y-120100000D02*
X130410000Y-120100000D01*
X139610000Y-121075000D02*
X139610000Y-127925000D01*
X139610000Y-127925000D02*
X129700000Y-127925000D01*
D12*
%TO.C,R3*%
X133427064Y-105015000D02*
X132972936Y-105015000D01*
X133427064Y-106485000D02*
X132972936Y-106485000D01*
%TO.C,R6*%
X123477064Y-99765000D02*
X123022936Y-99765000D01*
X123477064Y-101235000D02*
X123022936Y-101235000D01*
%TD*%
M02*
