%TF.GenerationSoftware,KiCad,Pcbnew,9.0.5*%
%TF.CreationDate,2025-12-12T19:00:14-08:00*%
%TF.ProjectId,FCP_CVM,4643505f-4356-44d2-9e6b-696361645f70,rev?*%
%TF.SameCoordinates,Original*%
%TF.FileFunction,Soldermask,Top*%
%TF.FilePolarity,Negative*%
%FSLAX46Y46*%
G04 Gerber Fmt 4.6, Leading zero omitted, Abs format (unit mm)*
G04 Created by KiCad (PCBNEW 9.0.5) date 2025-12-12 19:00:14*
%MOMM*%
%LPD*%
G01*
G04 APERTURE LIST*
G04 Aperture macros list*
%AMRoundRect*
0 Rectangle with rounded corners*
0 $1 Rounding radius*
0 $2 $3 $4 $5 $6 $7 $8 $9 X,Y pos of 4 corners*
0 Add a 4 corners polygon primitive as box body*
4,1,4,$2,$3,$4,$5,$6,$7,$8,$9,$2,$3,0*
0 Add four circle primitives for the rounded corners*
1,1,$1+$1,$2,$3*
1,1,$1+$1,$4,$5*
1,1,$1+$1,$6,$7*
1,1,$1+$1,$8,$9*
0 Add four rect primitives between the rounded corners*
20,1,$1+$1,$2,$3,$4,$5,0*
20,1,$1+$1,$4,$5,$6,$7,0*
20,1,$1+$1,$6,$7,$8,$9,0*
20,1,$1+$1,$8,$9,$2,$3,0*%
G04 Aperture macros list end*
%ADD10C,0.836200*%
%ADD11C,1.576200*%
%ADD12C,0.010000*%
%ADD13R,0.863600X0.787400*%
%ADD14R,0.355600X0.787400*%
%ADD15R,0.787400X0.863600*%
%ADD16R,0.787400X0.355600*%
%ADD17RoundRect,0.150000X0.150000X-0.875000X0.150000X0.875000X-0.150000X0.875000X-0.150000X-0.875000X0*%
%ADD18C,3.050000*%
%ADD19RoundRect,0.102000X-0.802500X0.802500X-0.802500X-0.802500X0.802500X-0.802500X0.802500X0.802500X0*%
%ADD20C,1.809000*%
%ADD21R,0.549999X0.249999*%
%ADD22R,0.549999X0.200000*%
%ADD23R,0.299999X0.575000*%
%ADD24C,3.000000*%
%ADD25RoundRect,0.102000X-0.800000X1.300000X-0.800000X-1.300000X0.800000X-1.300000X0.800000X1.300000X0*%
%ADD26RoundRect,0.250000X-0.475000X0.337500X-0.475000X-0.337500X0.475000X-0.337500X0.475000X0.337500X0*%
%ADD27RoundRect,0.150000X-0.150000X0.825000X-0.150000X-0.825000X0.150000X-0.825000X0.150000X0.825000X0*%
%ADD28C,3.200000*%
%ADD29RoundRect,0.250000X-0.350000X-0.450000X0.350000X-0.450000X0.350000X0.450000X-0.350000X0.450000X0*%
%ADD30R,1.700000X1.700000*%
%ADD31C,1.700000*%
%ADD32RoundRect,0.250000X0.350000X0.450000X-0.350000X0.450000X-0.350000X-0.450000X0.350000X-0.450000X0*%
%ADD33RoundRect,0.250000X0.337500X0.475000X-0.337500X0.475000X-0.337500X-0.475000X0.337500X-0.475000X0*%
%ADD34RoundRect,0.250000X0.475000X-0.337500X0.475000X0.337500X-0.475000X0.337500X-0.475000X-0.337500X0*%
G04 APERTURE END LIST*
D10*
%TO.C,J1*%
X128118100Y-112500000D02*
G75*
G02*
X127281900Y-112500000I-418100J0D01*
G01*
X127281900Y-112500000D02*
G75*
G02*
X128118100Y-112500000I418100J0D01*
G01*
X128118100Y-115500000D02*
G75*
G02*
X127281900Y-115500000I-418100J0D01*
G01*
X127281900Y-115500000D02*
G75*
G02*
X128118100Y-115500000I418100J0D01*
G01*
X131118100Y-115500000D02*
G75*
G02*
X130281900Y-115500000I-418100J0D01*
G01*
X130281900Y-115500000D02*
G75*
G02*
X131118100Y-115500000I418100J0D01*
G01*
D11*
X135788100Y-114000000D02*
G75*
G02*
X134211900Y-114000000I-788100J0D01*
G01*
X134211900Y-114000000D02*
G75*
G02*
X135788100Y-114000000I788100J0D01*
G01*
D12*
X131536200Y-113336200D02*
X129863800Y-113336200D01*
X129863800Y-111663800D01*
X131536200Y-111663800D01*
X131536200Y-113336200D01*
G36*
X131536200Y-113336200D02*
G01*
X129863800Y-113336200D01*
X129863800Y-111663800D01*
X131536200Y-111663800D01*
X131536200Y-113336200D01*
G37*
D10*
%TO.C,J2*%
X128128100Y-123000000D02*
G75*
G02*
X127291900Y-123000000I-418100J0D01*
G01*
X127291900Y-123000000D02*
G75*
G02*
X128128100Y-123000000I418100J0D01*
G01*
X128128100Y-126000000D02*
G75*
G02*
X127291900Y-126000000I-418100J0D01*
G01*
X127291900Y-126000000D02*
G75*
G02*
X128128100Y-126000000I418100J0D01*
G01*
X131128100Y-126000000D02*
G75*
G02*
X130291900Y-126000000I-418100J0D01*
G01*
X130291900Y-126000000D02*
G75*
G02*
X131128100Y-126000000I418100J0D01*
G01*
D11*
X135798100Y-124500000D02*
G75*
G02*
X134221900Y-124500000I-788100J0D01*
G01*
X134221900Y-124500000D02*
G75*
G02*
X135798100Y-124500000I788100J0D01*
G01*
D12*
X131546200Y-123836200D02*
X129873800Y-123836200D01*
X129873800Y-122163800D01*
X131546200Y-122163800D01*
X131546200Y-123836200D01*
G36*
X131546200Y-123836200D02*
G01*
X129873800Y-123836200D01*
X129873800Y-122163800D01*
X131546200Y-122163800D01*
X131546200Y-123836200D01*
G37*
%TD*%
D13*
%TO.C,RN5*%
X105803801Y-107914400D03*
D14*
X106551323Y-107914400D03*
X107044845Y-107914400D03*
X107538367Y-107914400D03*
X108031889Y-107914400D03*
X108525411Y-107914400D03*
X109018933Y-107914400D03*
D13*
X109766201Y-107914400D03*
X109766201Y-106085600D03*
D14*
X109018933Y-106085600D03*
X108525411Y-106085600D03*
X108031889Y-106085600D03*
X107538367Y-106085600D03*
X107044845Y-106085600D03*
X106551323Y-106085600D03*
D13*
X105803801Y-106085600D03*
%TD*%
D15*
%TO.C,RN2*%
X95456201Y-97752478D03*
D16*
X95456201Y-98500000D03*
X95456201Y-98993522D03*
X95456201Y-99487044D03*
X95456201Y-99980566D03*
X95456201Y-100474088D03*
X95456201Y-100967610D03*
D15*
X95456201Y-101714878D03*
X97285001Y-101714878D03*
D16*
X97285001Y-100967610D03*
X97285001Y-100474088D03*
X97285001Y-99980566D03*
X97285001Y-99487044D03*
X97285001Y-98993522D03*
X97285001Y-98500000D03*
D15*
X97285001Y-97752478D03*
%TD*%
D17*
%TO.C,U1*%
X102085001Y-101250000D03*
X103355001Y-101250000D03*
X104625001Y-101250000D03*
X105895001Y-101250000D03*
X107165001Y-101250000D03*
X108435001Y-101250000D03*
X109705001Y-101250000D03*
X110975001Y-101250000D03*
X112245001Y-101250000D03*
X113515001Y-101250000D03*
X114785001Y-101250000D03*
X116055001Y-101250000D03*
X116055001Y-91950000D03*
X114785001Y-91950000D03*
X113515001Y-91950000D03*
X112245001Y-91950000D03*
X110975001Y-91950000D03*
X109705001Y-91950000D03*
X108435001Y-91950000D03*
X107165001Y-91950000D03*
X105895001Y-91950000D03*
X104625001Y-91950000D03*
X103355001Y-91950000D03*
X102085001Y-91950000D03*
%TD*%
D18*
%TO.C,J4*%
X82800000Y-113000000D03*
X82800000Y-129700000D03*
D19*
X87120000Y-131850000D03*
D20*
X87120000Y-128850000D03*
X87120000Y-125850000D03*
X87120000Y-122850000D03*
X87120000Y-119850000D03*
X87120000Y-116850000D03*
X87120000Y-113850000D03*
X87120000Y-110850000D03*
X90120000Y-131850000D03*
X90120000Y-128850000D03*
X90120000Y-125850000D03*
X90120000Y-122850000D03*
X90120000Y-119850000D03*
X90120000Y-116850000D03*
X90120000Y-113850000D03*
X90120000Y-110850000D03*
%TD*%
D21*
%TO.C,U3*%
X129025000Y-98999999D03*
D22*
X129025000Y-99500000D03*
X129025000Y-100000000D03*
D21*
X129025000Y-100500001D03*
D23*
X129700000Y-100662500D03*
D21*
X130375000Y-100500001D03*
D22*
X130375000Y-100000000D03*
X130375000Y-99500000D03*
D21*
X130375000Y-98999999D03*
D23*
X129700000Y-98837500D03*
%TD*%
D24*
%TO.C,J1*%
X135000000Y-114000000D03*
%TD*%
D25*
%TO.C,C5*%
X136000000Y-98800000D03*
X136000000Y-95200000D03*
%TD*%
D26*
%TO.C,C3*%
X124250000Y-105962500D03*
X124250000Y-108037500D03*
%TD*%
D17*
%TO.C,U2*%
X102280000Y-131000000D03*
X103550000Y-131000000D03*
X104820000Y-131000000D03*
X106090000Y-131000000D03*
X107360000Y-131000000D03*
X108630000Y-131000000D03*
X109900000Y-131000000D03*
X111170000Y-131000000D03*
X112440000Y-131000000D03*
X113710000Y-131000000D03*
X114980000Y-131000000D03*
X116250000Y-131000000D03*
X116250000Y-121700000D03*
X114980000Y-121700000D03*
X113710000Y-121700000D03*
X112440000Y-121700000D03*
X111170000Y-121700000D03*
X109900000Y-121700000D03*
X108630000Y-121700000D03*
X107360000Y-121700000D03*
X106090000Y-121700000D03*
X104820000Y-121700000D03*
X103550000Y-121700000D03*
X102280000Y-121700000D03*
%TD*%
D27*
%TO.C,U4*%
X118405000Y-109275000D03*
X117135000Y-109275000D03*
X115865000Y-109275000D03*
X114595000Y-109275000D03*
X114595000Y-114225000D03*
X115865000Y-114225000D03*
X117135000Y-114225000D03*
X118405000Y-114225000D03*
%TD*%
D28*
%TO.C,H1*%
X81750000Y-140250000D03*
%TD*%
D13*
%TO.C,RN7*%
X106037600Y-137500000D03*
D14*
X106785122Y-137500000D03*
X107278644Y-137500000D03*
X107772166Y-137500000D03*
X108265688Y-137500000D03*
X108759210Y-137500000D03*
X109252732Y-137500000D03*
D13*
X110000000Y-137500000D03*
X110000000Y-135671200D03*
D14*
X109252732Y-135671200D03*
X108759210Y-135671200D03*
X108265688Y-135671200D03*
X107772166Y-135671200D03*
X107278644Y-135671200D03*
X106785122Y-135671200D03*
D13*
X106037600Y-135671200D03*
%TD*%
D29*
%TO.C,R1*%
X128500000Y-91500000D03*
X130500000Y-91500000D03*
%TD*%
D13*
%TO.C,RN6*%
X109516201Y-85835600D03*
D14*
X108768679Y-85835600D03*
X108275157Y-85835600D03*
X107781635Y-85835600D03*
X107288113Y-85835600D03*
X106794591Y-85835600D03*
X106301069Y-85835600D03*
D13*
X105553801Y-85835600D03*
X105553801Y-87664400D03*
D14*
X106301069Y-87664400D03*
X106794591Y-87664400D03*
X107288113Y-87664400D03*
X107781635Y-87664400D03*
X108275157Y-87664400D03*
X108768679Y-87664400D03*
D13*
X109516201Y-87664400D03*
%TD*%
%TO.C,RN8*%
X109231200Y-115085600D03*
D14*
X108483678Y-115085600D03*
X107990156Y-115085600D03*
X107496634Y-115085600D03*
X107003112Y-115085600D03*
X106509590Y-115085600D03*
X106016068Y-115085600D03*
D13*
X105268800Y-115085600D03*
X105268800Y-116914400D03*
D14*
X106016068Y-116914400D03*
X106509590Y-116914400D03*
X107003112Y-116914400D03*
X107496634Y-116914400D03*
X107990156Y-116914400D03*
X108483678Y-116914400D03*
D13*
X109231200Y-116914400D03*
%TD*%
D30*
%TO.C,J7*%
X112000000Y-110460000D03*
D31*
X112000000Y-113000000D03*
%TD*%
D15*
%TO.C,RN1*%
X95456201Y-92002478D03*
D16*
X95456201Y-92750000D03*
X95456201Y-93243522D03*
X95456201Y-93737044D03*
X95456201Y-94230566D03*
X95456201Y-94724088D03*
X95456201Y-95217610D03*
D15*
X95456201Y-95964878D03*
X97285001Y-95964878D03*
D16*
X97285001Y-95217610D03*
X97285001Y-94724088D03*
X97285001Y-94230566D03*
X97285001Y-93737044D03*
X97285001Y-93243522D03*
X97285001Y-92750000D03*
D15*
X97285001Y-92002478D03*
%TD*%
D32*
%TO.C,R2*%
X125750000Y-91500000D03*
X123750000Y-91500000D03*
%TD*%
D18*
%TO.C,J3*%
X82880000Y-83750000D03*
X82880000Y-100450000D03*
D19*
X87200000Y-102600000D03*
D20*
X87200000Y-99600000D03*
X87200000Y-96600000D03*
X87200000Y-93600000D03*
X87200000Y-90600000D03*
X87200000Y-87600000D03*
X87200000Y-84600000D03*
X87200000Y-81600000D03*
X90200000Y-102600000D03*
X90200000Y-99600000D03*
X90200000Y-96600000D03*
X90200000Y-93600000D03*
X90200000Y-90600000D03*
X90200000Y-87600000D03*
X90200000Y-84600000D03*
X90200000Y-81600000D03*
%TD*%
D28*
%TO.C,H2*%
X136250000Y-140250000D03*
%TD*%
%TO.C,H3*%
X136205184Y-81750000D03*
%TD*%
D15*
%TO.C,RN4*%
X95750000Y-127278390D03*
D16*
X95750000Y-128025912D03*
X95750000Y-128519434D03*
X95750000Y-129012956D03*
X95750000Y-129506478D03*
X95750000Y-130000000D03*
X95750000Y-130493522D03*
D15*
X95750000Y-131240790D03*
X97578800Y-131240790D03*
D16*
X97578800Y-130493522D03*
X97578800Y-130000000D03*
X97578800Y-129506478D03*
X97578800Y-129012956D03*
X97578800Y-128519434D03*
X97578800Y-128025912D03*
D15*
X97578800Y-127278390D03*
%TD*%
D30*
%TO.C,J5*%
X116440000Y-136500000D03*
D31*
X118980000Y-136500000D03*
X121520000Y-136500000D03*
X124060000Y-136500000D03*
%TD*%
D32*
%TO.C,R4*%
X132950000Y-103000000D03*
X130950000Y-103000000D03*
%TD*%
D33*
%TO.C,C4*%
X124287500Y-98000000D03*
X122212500Y-98000000D03*
%TD*%
D34*
%TO.C,C1*%
X129750000Y-96537500D03*
X129750000Y-94462500D03*
%TD*%
D30*
%TO.C,J6*%
X129980000Y-132000000D03*
D31*
X132520000Y-132000000D03*
X135060000Y-132000000D03*
X137600000Y-132000000D03*
%TD*%
D15*
%TO.C,RN3*%
X95750000Y-121537600D03*
D16*
X95750000Y-122285122D03*
X95750000Y-122778644D03*
X95750000Y-123272166D03*
X95750000Y-123765688D03*
X95750000Y-124259210D03*
X95750000Y-124752732D03*
D15*
X95750000Y-125500000D03*
X97578800Y-125500000D03*
D16*
X97578800Y-124752732D03*
X97578800Y-124259210D03*
X97578800Y-123765688D03*
X97578800Y-123272166D03*
X97578800Y-122778644D03*
X97578800Y-122285122D03*
D15*
X97578800Y-121537600D03*
%TD*%
D32*
%TO.C,R5*%
X124250000Y-103250000D03*
X122250000Y-103250000D03*
%TD*%
D24*
%TO.C,J2*%
X135010000Y-124500000D03*
%TD*%
D32*
%TO.C,R3*%
X134200000Y-105750000D03*
X132200000Y-105750000D03*
%TD*%
%TO.C,R6*%
X124250000Y-100500000D03*
X122250000Y-100500000D03*
%TD*%
M02*
