%TF.GenerationSoftware,KiCad,Pcbnew,9.0.5*%
%TF.CreationDate,2025-12-12T19:00:14-08:00*%
%TF.ProjectId,FCP_CVM,4643505f-4356-44d2-9e6b-696361645f70,rev?*%
%TF.SameCoordinates,Original*%
%TF.FileFunction,Soldermask,Bot*%
%TF.FilePolarity,Negative*%
%FSLAX46Y46*%
G04 Gerber Fmt 4.6, Leading zero omitted, Abs format (unit mm)*
G04 Created by KiCad (PCBNEW 9.0.5) date 2025-12-12 19:00:14*
%MOMM*%
%LPD*%
G01*
G04 APERTURE LIST*
G04 Aperture macros list*
%AMRoundRect*
0 Rectangle with rounded corners*
0 $1 Rounding radius*
0 $2 $3 $4 $5 $6 $7 $8 $9 X,Y pos of 4 corners*
0 Add a 4 corners polygon primitive as box body*
4,1,4,$2,$3,$4,$5,$6,$7,$8,$9,$2,$3,0*
0 Add four circle primitives for the rounded corners*
1,1,$1+$1,$2,$3*
1,1,$1+$1,$4,$5*
1,1,$1+$1,$6,$7*
1,1,$1+$1,$8,$9*
0 Add four rect primitives between the rounded corners*
20,1,$1+$1,$2,$3,$4,$5,0*
20,1,$1+$1,$4,$5,$6,$7,0*
20,1,$1+$1,$6,$7,$8,$9,0*
20,1,$1+$1,$8,$9,$2,$3,0*%
G04 Aperture macros list end*
%ADD10C,0.836200*%
%ADD11C,1.576200*%
%ADD12C,0.010000*%
%ADD13C,3.050000*%
%ADD14RoundRect,0.102000X-0.802500X0.802500X-0.802500X-0.802500X0.802500X-0.802500X0.802500X0.802500X0*%
%ADD15C,1.809000*%
%ADD16C,3.000000*%
%ADD17C,3.200000*%
%ADD18R,1.700000X1.700000*%
%ADD19C,1.700000*%
G04 APERTURE END LIST*
D10*
%TO.C,J1*%
X128118100Y-112500000D02*
G75*
G02*
X127281900Y-112500000I-418100J0D01*
G01*
X127281900Y-112500000D02*
G75*
G02*
X128118100Y-112500000I418100J0D01*
G01*
X128118100Y-115500000D02*
G75*
G02*
X127281900Y-115500000I-418100J0D01*
G01*
X127281900Y-115500000D02*
G75*
G02*
X128118100Y-115500000I418100J0D01*
G01*
X131118100Y-115500000D02*
G75*
G02*
X130281900Y-115500000I-418100J0D01*
G01*
X130281900Y-115500000D02*
G75*
G02*
X131118100Y-115500000I418100J0D01*
G01*
D11*
X135788100Y-114000000D02*
G75*
G02*
X134211900Y-114000000I-788100J0D01*
G01*
X134211900Y-114000000D02*
G75*
G02*
X135788100Y-114000000I788100J0D01*
G01*
D12*
X131536200Y-113336200D02*
X129863800Y-113336200D01*
X129863800Y-111663800D01*
X131536200Y-111663800D01*
X131536200Y-113336200D01*
G36*
X131536200Y-113336200D02*
G01*
X129863800Y-113336200D01*
X129863800Y-111663800D01*
X131536200Y-111663800D01*
X131536200Y-113336200D01*
G37*
D10*
%TO.C,J2*%
X128128100Y-123000000D02*
G75*
G02*
X127291900Y-123000000I-418100J0D01*
G01*
X127291900Y-123000000D02*
G75*
G02*
X128128100Y-123000000I418100J0D01*
G01*
X128128100Y-126000000D02*
G75*
G02*
X127291900Y-126000000I-418100J0D01*
G01*
X127291900Y-126000000D02*
G75*
G02*
X128128100Y-126000000I418100J0D01*
G01*
X131128100Y-126000000D02*
G75*
G02*
X130291900Y-126000000I-418100J0D01*
G01*
X130291900Y-126000000D02*
G75*
G02*
X131128100Y-126000000I418100J0D01*
G01*
D11*
X135798100Y-124500000D02*
G75*
G02*
X134221900Y-124500000I-788100J0D01*
G01*
X134221900Y-124500000D02*
G75*
G02*
X135798100Y-124500000I788100J0D01*
G01*
D12*
X131546200Y-123836200D02*
X129873800Y-123836200D01*
X129873800Y-122163800D01*
X131546200Y-122163800D01*
X131546200Y-123836200D01*
G36*
X131546200Y-123836200D02*
G01*
X129873800Y-123836200D01*
X129873800Y-122163800D01*
X131546200Y-122163800D01*
X131546200Y-123836200D01*
G37*
%TD*%
D13*
%TO.C,J4*%
X82800000Y-113000000D03*
X82800000Y-129700000D03*
D14*
X87120000Y-131850000D03*
D15*
X87120000Y-128850000D03*
X87120000Y-125850000D03*
X87120000Y-122850000D03*
X87120000Y-119850000D03*
X87120000Y-116850000D03*
X87120000Y-113850000D03*
X87120000Y-110850000D03*
X90120000Y-131850000D03*
X90120000Y-128850000D03*
X90120000Y-125850000D03*
X90120000Y-122850000D03*
X90120000Y-119850000D03*
X90120000Y-116850000D03*
X90120000Y-113850000D03*
X90120000Y-110850000D03*
%TD*%
D16*
%TO.C,J1*%
X135000000Y-114000000D03*
%TD*%
D17*
%TO.C,H1*%
X81750000Y-140250000D03*
%TD*%
D18*
%TO.C,J7*%
X112000000Y-110460000D03*
D19*
X112000000Y-113000000D03*
%TD*%
D13*
%TO.C,J3*%
X82880000Y-83750000D03*
X82880000Y-100450000D03*
D14*
X87200000Y-102600000D03*
D15*
X87200000Y-99600000D03*
X87200000Y-96600000D03*
X87200000Y-93600000D03*
X87200000Y-90600000D03*
X87200000Y-87600000D03*
X87200000Y-84600000D03*
X87200000Y-81600000D03*
X90200000Y-102600000D03*
X90200000Y-99600000D03*
X90200000Y-96600000D03*
X90200000Y-93600000D03*
X90200000Y-90600000D03*
X90200000Y-87600000D03*
X90200000Y-84600000D03*
X90200000Y-81600000D03*
%TD*%
D17*
%TO.C,H2*%
X136250000Y-140250000D03*
%TD*%
%TO.C,H3*%
X136205184Y-81750000D03*
%TD*%
D18*
%TO.C,J5*%
X116440000Y-136500000D03*
D19*
X118980000Y-136500000D03*
X121520000Y-136500000D03*
X124060000Y-136500000D03*
%TD*%
D18*
%TO.C,J6*%
X129980000Y-132000000D03*
D19*
X132520000Y-132000000D03*
X135060000Y-132000000D03*
X137600000Y-132000000D03*
%TD*%
D16*
%TO.C,J2*%
X135010000Y-124500000D03*
%TD*%
M02*
