%TF.GenerationSoftware,KiCad,Pcbnew,9.0.5*%
%TF.CreationDate,2025-12-12T18:36:18-08:00*%
%TF.ProjectId,Current_sensing_INA228_board,43757272-656e-4745-9f73-656e73696e67,rev?*%
%TF.SameCoordinates,Original*%
%TF.FileFunction,Legend,Bot*%
%TF.FilePolarity,Positive*%
%FSLAX46Y46*%
G04 Gerber Fmt 4.6, Leading zero omitted, Abs format (unit mm)*
G04 Created by KiCad (PCBNEW 9.0.5) date 2025-12-12 18:36:18*
%MOMM*%
%LPD*%
G01*
G04 APERTURE LIST*
%ADD10C,0.508000*%
%ADD11C,2.000000*%
%ADD12C,4.300000*%
%ADD13C,2.032000*%
%ADD14C,1.524000*%
G04 APERTURE END LIST*
D10*
%TO.C,J1*%
X119470800Y-114500000D02*
G75*
G02*
X118708800Y-114500000I-381000J0D01*
G01*
X118708800Y-114500000D02*
G75*
G02*
X119470800Y-114500000I381000J0D01*
G01*
%TO.C,J2*%
X143050300Y-114443100D02*
G75*
G02*
X142288300Y-114443100I-381000J0D01*
G01*
X142288300Y-114443100D02*
G75*
G02*
X143050300Y-114443100I381000J0D01*
G01*
%TO.C,J3*%
X146563999Y-82716800D02*
G75*
G02*
X145801999Y-82716800I-381000J0D01*
G01*
X145801999Y-82716800D02*
G75*
G02*
X146563999Y-82716800I381000J0D01*
G01*
%TD*%
%LPC*%
D11*
%TO.C,TP7*%
X142500000Y-102750000D03*
%TD*%
D12*
%TO.C,H2*%
X152250000Y-100500000D03*
%TD*%
D11*
%TO.C,TP6*%
X140000000Y-91250000D03*
%TD*%
D13*
%TO.C,J1*%
X121960000Y-114500000D03*
X124500000Y-114500000D03*
X127040000Y-114500000D03*
X121960000Y-111960000D03*
X124500000Y-111960000D03*
X127040000Y-111960000D03*
X121960000Y-109420000D03*
X124500000Y-109420000D03*
X127040000Y-109420000D03*
%TD*%
D11*
%TO.C,TP3*%
X123750000Y-91750000D03*
%TD*%
D13*
%TO.C,J2*%
X145539500Y-114443100D03*
X148079500Y-114443100D03*
X150619500Y-114443100D03*
X145539500Y-111903100D03*
X148079500Y-111903100D03*
X150619500Y-111903100D03*
X145539500Y-109363100D03*
X148079500Y-109363100D03*
X150619500Y-109363100D03*
%TD*%
D11*
%TO.C,TP5*%
X130250000Y-91750000D03*
%TD*%
%TO.C,TP4*%
X135000000Y-88750000D03*
%TD*%
D14*
%TO.C,J3*%
X146182999Y-85660401D03*
X146182999Y-88660400D03*
X146182999Y-91660399D03*
X143183000Y-85660401D03*
X143183000Y-88660400D03*
X143183000Y-91660399D03*
%TD*%
D12*
%TO.C,H1*%
X120750000Y-100500000D03*
%TD*%
D11*
%TO.C,TP1*%
X132500000Y-107500000D03*
%TD*%
%TO.C,TP2*%
X140750000Y-107500000D03*
%TD*%
%LPD*%
M02*
