%TF.GenerationSoftware,KiCad,Pcbnew,9.0.5*%
%TF.CreationDate,2025-12-12T18:57:15-08:00*%
%TF.ProjectId,switch_board,73776974-6368-45f6-926f-6172642e6b69,rev?*%
%TF.SameCoordinates,Original*%
%TF.FileFunction,Paste,Top*%
%TF.FilePolarity,Positive*%
%FSLAX46Y46*%
G04 Gerber Fmt 4.6, Leading zero omitted, Abs format (unit mm)*
G04 Created by KiCad (PCBNEW 9.0.5) date 2025-12-12 18:57:15*
%MOMM*%
%LPD*%
G01*
G04 APERTURE LIST*
G04 Aperture macros list*
%AMRoundRect*
0 Rectangle with rounded corners*
0 $1 Rounding radius*
0 $2 $3 $4 $5 $6 $7 $8 $9 X,Y pos of 4 corners*
0 Add a 4 corners polygon primitive as box body*
4,1,4,$2,$3,$4,$5,$6,$7,$8,$9,$2,$3,0*
0 Add four circle primitives for the rounded corners*
1,1,$1+$1,$2,$3*
1,1,$1+$1,$4,$5*
1,1,$1+$1,$6,$7*
1,1,$1+$1,$8,$9*
0 Add four rect primitives between the rounded corners*
20,1,$1+$1,$2,$3,$4,$5,0*
20,1,$1+$1,$4,$5,$6,$7,0*
20,1,$1+$1,$6,$7,$8,$9,0*
20,1,$1+$1,$8,$9,$2,$3,0*%
G04 Aperture macros list end*
%ADD10C,0.000000*%
%ADD11R,4.450000X4.500000*%
%ADD12R,1.005599X0.949998*%
%ADD13RoundRect,0.250000X0.350000X0.450000X-0.350000X0.450000X-0.350000X-0.450000X0.350000X-0.450000X0*%
G04 APERTURE END LIST*
D10*
%TO.C,U3*%
G36*
X147982499Y-54800000D02*
G01*
X147982499Y-55200000D01*
X147932499Y-55249999D01*
X147532500Y-55249999D01*
X147482500Y-55200000D01*
X147482500Y-54800000D01*
X147532500Y-54750000D01*
X147932499Y-54750000D01*
X147982499Y-54800000D01*
G37*
G36*
X147982499Y-52260000D02*
G01*
X147982499Y-52660000D01*
X147932499Y-52710000D01*
X147532500Y-52710000D01*
X147482500Y-52660000D01*
X147482500Y-52260000D01*
X147532500Y-52210001D01*
X147932499Y-52210001D01*
X147982499Y-52260000D01*
G37*
G36*
X147982499Y-50990000D02*
G01*
X147982499Y-51390000D01*
X147932499Y-51440000D01*
X147532500Y-51440000D01*
X147482500Y-51390000D01*
X147482500Y-50990000D01*
X147532500Y-50940001D01*
X147932499Y-50940001D01*
X147982499Y-50990000D01*
G37*
G36*
X147982499Y-53530000D02*
G01*
X147982499Y-53930000D01*
X147932499Y-53979999D01*
X147532500Y-53979999D01*
X147482500Y-53930000D01*
X147482500Y-53530000D01*
X147532500Y-53480000D01*
X147932499Y-53480000D01*
X147982499Y-53530000D01*
G37*
G36*
X150322499Y-53454999D02*
G01*
X150322499Y-54924999D01*
X150272499Y-54974999D01*
X149137498Y-54974999D01*
X149087498Y-54924999D01*
X149087498Y-53454999D01*
X149137498Y-53404999D01*
X150272499Y-53404999D01*
X150322499Y-53454999D01*
G37*
G36*
X150322499Y-51265001D02*
G01*
X150322499Y-52735001D01*
X150272499Y-52785001D01*
X149137498Y-52785001D01*
X149087498Y-52735001D01*
X149087498Y-51265001D01*
X149137498Y-51215001D01*
X150272499Y-51215001D01*
X150322499Y-51265001D01*
G37*
G36*
X152407499Y-51265001D02*
G01*
X152407499Y-52735001D01*
X152357499Y-52785001D01*
X150872498Y-52785001D01*
X150822498Y-52735001D01*
X150822498Y-51265001D01*
X150872498Y-51215001D01*
X152357499Y-51215001D01*
X152407499Y-51265001D01*
G37*
G36*
X152407499Y-53454999D02*
G01*
X152407499Y-54924999D01*
X152357499Y-54974999D01*
X150872498Y-54974999D01*
X150822498Y-54924999D01*
X150822498Y-53454999D01*
X150872498Y-53404999D01*
X152357499Y-53404999D01*
X152407499Y-53454999D01*
G37*
G36*
X153522498Y-50990000D02*
G01*
X153522498Y-51390000D01*
X153472498Y-51440000D01*
X153072499Y-51440000D01*
X153022499Y-51390000D01*
X153022499Y-50990000D01*
X153072499Y-50940001D01*
X153472498Y-50940001D01*
X153522498Y-50990000D01*
G37*
G36*
X153522498Y-52260000D02*
G01*
X153522498Y-52660000D01*
X153472498Y-52710000D01*
X153072499Y-52710000D01*
X153022499Y-52660000D01*
X153022499Y-52260000D01*
X153072499Y-52210001D01*
X153472498Y-52210001D01*
X153522498Y-52260000D01*
G37*
G36*
X153522498Y-53530000D02*
G01*
X153522498Y-53930000D01*
X153472498Y-53979999D01*
X153072499Y-53979999D01*
X153022499Y-53930000D01*
X153022499Y-53530000D01*
X153072499Y-53480000D01*
X153472498Y-53480000D01*
X153522498Y-53530000D01*
G37*
G36*
X153522498Y-54800000D02*
G01*
X153522498Y-55200000D01*
X153472498Y-55249999D01*
X153072499Y-55249999D01*
X153022499Y-55200000D01*
X153022499Y-54800000D01*
X153072499Y-54750000D01*
X153472498Y-54750000D01*
X153522498Y-54800000D01*
G37*
%TO.C,U1*%
G36*
X148187750Y-36284998D02*
G01*
X148187750Y-36684998D01*
X148137750Y-36734997D01*
X147737751Y-36734997D01*
X147687751Y-36684998D01*
X147687751Y-36284998D01*
X147737751Y-36234998D01*
X148137750Y-36234998D01*
X148187750Y-36284998D01*
G37*
G36*
X148187750Y-33744998D02*
G01*
X148187750Y-34144998D01*
X148137750Y-34194998D01*
X147737751Y-34194998D01*
X147687751Y-34144998D01*
X147687751Y-33744998D01*
X147737751Y-33694999D01*
X148137750Y-33694999D01*
X148187750Y-33744998D01*
G37*
G36*
X148187750Y-32474998D02*
G01*
X148187750Y-32874998D01*
X148137750Y-32924998D01*
X147737751Y-32924998D01*
X147687751Y-32874998D01*
X147687751Y-32474998D01*
X147737751Y-32424999D01*
X148137750Y-32424999D01*
X148187750Y-32474998D01*
G37*
G36*
X148187750Y-35014998D02*
G01*
X148187750Y-35414998D01*
X148137750Y-35464997D01*
X147737751Y-35464997D01*
X147687751Y-35414998D01*
X147687751Y-35014998D01*
X147737751Y-34964998D01*
X148137750Y-34964998D01*
X148187750Y-35014998D01*
G37*
G36*
X150527750Y-34939997D02*
G01*
X150527750Y-36409997D01*
X150477750Y-36459997D01*
X149342749Y-36459997D01*
X149292749Y-36409997D01*
X149292749Y-34939997D01*
X149342749Y-34889997D01*
X150477750Y-34889997D01*
X150527750Y-34939997D01*
G37*
G36*
X150527750Y-32749999D02*
G01*
X150527750Y-34219999D01*
X150477750Y-34269999D01*
X149342749Y-34269999D01*
X149292749Y-34219999D01*
X149292749Y-32749999D01*
X149342749Y-32699999D01*
X150477750Y-32699999D01*
X150527750Y-32749999D01*
G37*
G36*
X152612750Y-32749999D02*
G01*
X152612750Y-34219999D01*
X152562750Y-34269999D01*
X151077749Y-34269999D01*
X151027749Y-34219999D01*
X151027749Y-32749999D01*
X151077749Y-32699999D01*
X152562750Y-32699999D01*
X152612750Y-32749999D01*
G37*
G36*
X152612750Y-34939997D02*
G01*
X152612750Y-36409997D01*
X152562750Y-36459997D01*
X151077749Y-36459997D01*
X151027749Y-36409997D01*
X151027749Y-34939997D01*
X151077749Y-34889997D01*
X152562750Y-34889997D01*
X152612750Y-34939997D01*
G37*
G36*
X153727749Y-32474998D02*
G01*
X153727749Y-32874998D01*
X153677749Y-32924998D01*
X153277750Y-32924998D01*
X153227750Y-32874998D01*
X153227750Y-32474998D01*
X153277750Y-32424999D01*
X153677749Y-32424999D01*
X153727749Y-32474998D01*
G37*
G36*
X153727749Y-33744998D02*
G01*
X153727749Y-34144998D01*
X153677749Y-34194998D01*
X153277750Y-34194998D01*
X153227750Y-34144998D01*
X153227750Y-33744998D01*
X153277750Y-33694999D01*
X153677749Y-33694999D01*
X153727749Y-33744998D01*
G37*
G36*
X153727749Y-35014998D02*
G01*
X153727749Y-35414998D01*
X153677749Y-35464997D01*
X153277750Y-35464997D01*
X153227750Y-35414998D01*
X153227750Y-35014998D01*
X153277750Y-34964998D01*
X153677749Y-34964998D01*
X153727749Y-35014998D01*
G37*
G36*
X153727749Y-36284998D02*
G01*
X153727749Y-36684998D01*
X153677749Y-36734997D01*
X153277750Y-36734997D01*
X153227750Y-36684998D01*
X153227750Y-36284998D01*
X153277750Y-36234998D01*
X153677749Y-36234998D01*
X153727749Y-36284998D01*
G37*
%TO.C,U4*%
G36*
X147826499Y-63985000D02*
G01*
X147826499Y-64385000D01*
X147776499Y-64434999D01*
X147376500Y-64434999D01*
X147326500Y-64385000D01*
X147326500Y-63985000D01*
X147376500Y-63935000D01*
X147776499Y-63935000D01*
X147826499Y-63985000D01*
G37*
G36*
X147826499Y-61445000D02*
G01*
X147826499Y-61845000D01*
X147776499Y-61895000D01*
X147376500Y-61895000D01*
X147326500Y-61845000D01*
X147326500Y-61445000D01*
X147376500Y-61395001D01*
X147776499Y-61395001D01*
X147826499Y-61445000D01*
G37*
G36*
X147826499Y-60175000D02*
G01*
X147826499Y-60575000D01*
X147776499Y-60625000D01*
X147376500Y-60625000D01*
X147326500Y-60575000D01*
X147326500Y-60175000D01*
X147376500Y-60125001D01*
X147776499Y-60125001D01*
X147826499Y-60175000D01*
G37*
G36*
X147826499Y-62715000D02*
G01*
X147826499Y-63115000D01*
X147776499Y-63164999D01*
X147376500Y-63164999D01*
X147326500Y-63115000D01*
X147326500Y-62715000D01*
X147376500Y-62665000D01*
X147776499Y-62665000D01*
X147826499Y-62715000D01*
G37*
G36*
X150166499Y-62639999D02*
G01*
X150166499Y-64109999D01*
X150116499Y-64159999D01*
X148981498Y-64159999D01*
X148931498Y-64109999D01*
X148931498Y-62639999D01*
X148981498Y-62589999D01*
X150116499Y-62589999D01*
X150166499Y-62639999D01*
G37*
G36*
X150166499Y-60450001D02*
G01*
X150166499Y-61920001D01*
X150116499Y-61970001D01*
X148981498Y-61970001D01*
X148931498Y-61920001D01*
X148931498Y-60450001D01*
X148981498Y-60400001D01*
X150116499Y-60400001D01*
X150166499Y-60450001D01*
G37*
G36*
X152251499Y-60450001D02*
G01*
X152251499Y-61920001D01*
X152201499Y-61970001D01*
X150716498Y-61970001D01*
X150666498Y-61920001D01*
X150666498Y-60450001D01*
X150716498Y-60400001D01*
X152201499Y-60400001D01*
X152251499Y-60450001D01*
G37*
G36*
X152251499Y-62639999D02*
G01*
X152251499Y-64109999D01*
X152201499Y-64159999D01*
X150716498Y-64159999D01*
X150666498Y-64109999D01*
X150666498Y-62639999D01*
X150716498Y-62589999D01*
X152201499Y-62589999D01*
X152251499Y-62639999D01*
G37*
G36*
X153366498Y-60175000D02*
G01*
X153366498Y-60575000D01*
X153316498Y-60625000D01*
X152916499Y-60625000D01*
X152866499Y-60575000D01*
X152866499Y-60175000D01*
X152916499Y-60125001D01*
X153316498Y-60125001D01*
X153366498Y-60175000D01*
G37*
G36*
X153366498Y-61445000D02*
G01*
X153366498Y-61845000D01*
X153316498Y-61895000D01*
X152916499Y-61895000D01*
X152866499Y-61845000D01*
X152866499Y-61445000D01*
X152916499Y-61395001D01*
X153316498Y-61395001D01*
X153366498Y-61445000D01*
G37*
G36*
X153366498Y-62715000D02*
G01*
X153366498Y-63115000D01*
X153316498Y-63164999D01*
X152916499Y-63164999D01*
X152866499Y-63115000D01*
X152866499Y-62715000D01*
X152916499Y-62665000D01*
X153316498Y-62665000D01*
X153366498Y-62715000D01*
G37*
G36*
X153366498Y-63985000D02*
G01*
X153366498Y-64385000D01*
X153316498Y-64434999D01*
X152916499Y-64434999D01*
X152866499Y-64385000D01*
X152866499Y-63985000D01*
X152916499Y-63935000D01*
X153316498Y-63935000D01*
X153366498Y-63985000D01*
G37*
%TO.C,U2*%
G36*
X147982499Y-45550000D02*
G01*
X147982499Y-45950000D01*
X147932499Y-45999999D01*
X147532500Y-45999999D01*
X147482500Y-45950000D01*
X147482500Y-45550000D01*
X147532500Y-45500000D01*
X147932499Y-45500000D01*
X147982499Y-45550000D01*
G37*
G36*
X147982499Y-43010000D02*
G01*
X147982499Y-43410000D01*
X147932499Y-43460000D01*
X147532500Y-43460000D01*
X147482500Y-43410000D01*
X147482500Y-43010000D01*
X147532500Y-42960001D01*
X147932499Y-42960001D01*
X147982499Y-43010000D01*
G37*
G36*
X147982499Y-41740000D02*
G01*
X147982499Y-42140000D01*
X147932499Y-42190000D01*
X147532500Y-42190000D01*
X147482500Y-42140000D01*
X147482500Y-41740000D01*
X147532500Y-41690001D01*
X147932499Y-41690001D01*
X147982499Y-41740000D01*
G37*
G36*
X147982499Y-44280000D02*
G01*
X147982499Y-44680000D01*
X147932499Y-44729999D01*
X147532500Y-44729999D01*
X147482500Y-44680000D01*
X147482500Y-44280000D01*
X147532500Y-44230000D01*
X147932499Y-44230000D01*
X147982499Y-44280000D01*
G37*
G36*
X150322499Y-44204999D02*
G01*
X150322499Y-45674999D01*
X150272499Y-45724999D01*
X149137498Y-45724999D01*
X149087498Y-45674999D01*
X149087498Y-44204999D01*
X149137498Y-44154999D01*
X150272499Y-44154999D01*
X150322499Y-44204999D01*
G37*
G36*
X150322499Y-42015001D02*
G01*
X150322499Y-43485001D01*
X150272499Y-43535001D01*
X149137498Y-43535001D01*
X149087498Y-43485001D01*
X149087498Y-42015001D01*
X149137498Y-41965001D01*
X150272499Y-41965001D01*
X150322499Y-42015001D01*
G37*
G36*
X152407499Y-42015001D02*
G01*
X152407499Y-43485001D01*
X152357499Y-43535001D01*
X150872498Y-43535001D01*
X150822498Y-43485001D01*
X150822498Y-42015001D01*
X150872498Y-41965001D01*
X152357499Y-41965001D01*
X152407499Y-42015001D01*
G37*
G36*
X152407499Y-44204999D02*
G01*
X152407499Y-45674999D01*
X152357499Y-45724999D01*
X150872498Y-45724999D01*
X150822498Y-45674999D01*
X150822498Y-44204999D01*
X150872498Y-44154999D01*
X152357499Y-44154999D01*
X152407499Y-44204999D01*
G37*
G36*
X153522498Y-41740000D02*
G01*
X153522498Y-42140000D01*
X153472498Y-42190000D01*
X153072499Y-42190000D01*
X153022499Y-42140000D01*
X153022499Y-41740000D01*
X153072499Y-41690001D01*
X153472498Y-41690001D01*
X153522498Y-41740000D01*
G37*
G36*
X153522498Y-43010000D02*
G01*
X153522498Y-43410000D01*
X153472498Y-43460000D01*
X153072499Y-43460000D01*
X153022499Y-43410000D01*
X153022499Y-43010000D01*
X153072499Y-42960001D01*
X153472498Y-42960001D01*
X153522498Y-43010000D01*
G37*
G36*
X153522498Y-44280000D02*
G01*
X153522498Y-44680000D01*
X153472498Y-44729999D01*
X153072499Y-44729999D01*
X153022499Y-44680000D01*
X153022499Y-44280000D01*
X153072499Y-44230000D01*
X153472498Y-44230000D01*
X153522498Y-44280000D01*
G37*
G36*
X153522498Y-45550000D02*
G01*
X153522498Y-45950000D01*
X153472498Y-45999999D01*
X153072499Y-45999999D01*
X153022499Y-45950000D01*
X153022499Y-45550000D01*
X153072499Y-45500000D01*
X153472498Y-45500000D01*
X153522498Y-45550000D01*
G37*
%TD*%
D11*
%TO.C,U3*%
X150952499Y-53045000D03*
%TD*%
%TO.C,U1*%
X151157750Y-34529998D03*
%TD*%
D12*
%TO.C,C3*%
X141272201Y-82272201D03*
X142727799Y-82272201D03*
%TD*%
D13*
%TO.C,R8*%
X139495416Y-63375000D03*
X137495416Y-63375000D03*
%TD*%
%TO.C,R4*%
X139495416Y-48625000D03*
X137495416Y-48625000D03*
%TD*%
D12*
%TO.C,C1*%
X170544402Y-82750000D03*
X172000000Y-82750000D03*
%TD*%
D11*
%TO.C,U4*%
X150796499Y-62230000D03*
%TD*%
D13*
%TO.C,R7*%
X139495416Y-59875000D03*
X137495416Y-59875000D03*
%TD*%
%TO.C,R6*%
X139495416Y-56125000D03*
X137495416Y-56125000D03*
%TD*%
%TO.C,R1*%
X139495416Y-38035850D03*
X137495416Y-38035850D03*
%TD*%
D11*
%TO.C,U2*%
X150952499Y-43795000D03*
%TD*%
D12*
%TO.C,C7*%
X127772201Y-82750000D03*
X129227799Y-82750000D03*
%TD*%
D13*
%TO.C,R3*%
X139495416Y-45125000D03*
X137495416Y-45125000D03*
%TD*%
D12*
%TO.C,C5*%
X155772201Y-82250000D03*
X157227799Y-82250000D03*
%TD*%
D13*
%TO.C,R5*%
X139495416Y-52375000D03*
X137495416Y-52375000D03*
%TD*%
%TO.C,R2*%
X139495416Y-41625000D03*
X137495416Y-41625000D03*
%TD*%
M02*
