%TF.GenerationSoftware,KiCad,Pcbnew,9.0.5*%
%TF.CreationDate,2025-12-12T18:57:15-08:00*%
%TF.ProjectId,switch_board,73776974-6368-45f6-926f-6172642e6b69,rev?*%
%TF.SameCoordinates,Original*%
%TF.FileFunction,Legend,Top*%
%TF.FilePolarity,Positive*%
%FSLAX46Y46*%
G04 Gerber Fmt 4.6, Leading zero omitted, Abs format (unit mm)*
G04 Created by KiCad (PCBNEW 9.0.5) date 2025-12-12 18:57:15*
%MOMM*%
%LPD*%
G01*
G04 APERTURE LIST*
G04 Aperture macros list*
%AMRoundRect*
0 Rectangle with rounded corners*
0 $1 Rounding radius*
0 $2 $3 $4 $5 $6 $7 $8 $9 X,Y pos of 4 corners*
0 Add a 4 corners polygon primitive as box body*
4,1,4,$2,$3,$4,$5,$6,$7,$8,$9,$2,$3,0*
0 Add four circle primitives for the rounded corners*
1,1,$1+$1,$2,$3*
1,1,$1+$1,$4,$5*
1,1,$1+$1,$6,$7*
1,1,$1+$1,$8,$9*
0 Add four rect primitives between the rounded corners*
20,1,$1+$1,$2,$3,$4,$5,0*
20,1,$1+$1,$4,$5,$6,$7,0*
20,1,$1+$1,$6,$7,$8,$9,0*
20,1,$1+$1,$8,$9,$2,$3,0*%
G04 Aperture macros list end*
%ADD10C,0.125000*%
%ADD11C,0.300000*%
%ADD12C,0.150000*%
%ADD13C,0.152400*%
%ADD14C,0.127000*%
%ADD15C,0.200000*%
%ADD16C,0.120000*%
%ADD17C,0.250000*%
%ADD18C,0.000000*%
%ADD19C,0.508000*%
%ADD20C,3.200000*%
%ADD21C,1.828800*%
%ADD22C,2.460000*%
%ADD23RoundRect,0.076200X-0.802500X-0.802500X0.802500X-0.802500X0.802500X0.802500X-0.802500X0.802500X0*%
%ADD24C,1.757400*%
%ADD25R,1.700000X1.700000*%
%ADD26C,1.700000*%
%ADD27R,0.750001X0.675000*%
%ADD28R,4.450000X4.500000*%
%ADD29C,0.599999*%
%ADD30R,1.524000X1.524000*%
%ADD31C,1.524000*%
%ADD32R,1.005599X0.949998*%
%ADD33RoundRect,0.250000X0.350000X0.450000X-0.350000X0.450000X-0.350000X-0.450000X0.350000X-0.450000X0*%
%ADD34C,2.971800*%
%ADD35C,1.574800*%
%ADD36RoundRect,0.076200X-0.802500X0.802500X-0.802500X-0.802500X0.802500X-0.802500X0.802500X0.802500X0*%
G04 APERTURE END LIST*
D10*
G36*
X159237037Y-34422315D02*
G01*
X159244945Y-34307155D01*
X159248791Y-34279036D01*
X159256638Y-34254874D01*
X159267506Y-34238767D01*
X159281819Y-34228206D01*
X159297090Y-34224876D01*
X159311067Y-34228321D01*
X159320812Y-34238584D01*
X159325151Y-34253952D01*
X159323163Y-34277998D01*
X159314737Y-34307155D01*
X159275109Y-34422315D01*
X159269704Y-34432274D01*
X159262235Y-34437864D01*
X159252089Y-34439809D01*
X159243036Y-34437805D01*
X159238272Y-34432390D01*
X159237037Y-34422315D01*
G37*
G36*
X159118427Y-34422315D02*
G01*
X159126304Y-34307155D01*
X159130456Y-34277663D01*
X159138121Y-34254446D01*
X159149079Y-34238584D01*
X159163461Y-34228147D01*
X159178510Y-34224876D01*
X159192487Y-34228321D01*
X159202233Y-34238584D01*
X159206627Y-34253839D01*
X159204797Y-34276991D01*
X159196157Y-34307155D01*
X159156529Y-34422315D01*
X159151107Y-34432277D01*
X159143637Y-34437866D01*
X159133509Y-34439809D01*
X159124452Y-34437805D01*
X159119678Y-34432389D01*
X159118427Y-34422315D01*
G37*
G36*
X159363280Y-34258093D02*
G01*
X159368989Y-34230737D01*
X159466442Y-34232691D01*
X159570123Y-34230737D01*
X159564414Y-34258093D01*
X159532089Y-34260628D01*
X159520359Y-34263588D01*
X159513625Y-34269058D01*
X159509918Y-34277602D01*
X159508469Y-34299129D01*
X159507750Y-34389068D01*
X159508452Y-34567609D01*
X159631520Y-34386931D01*
X159735812Y-34230737D01*
X159765548Y-34230737D01*
X159831005Y-34584340D01*
X159931297Y-34371971D01*
X159959206Y-34308026D01*
X159969033Y-34277235D01*
X159969017Y-34267688D01*
X159965003Y-34262733D01*
X159954743Y-34260279D01*
X159918841Y-34258093D01*
X159924550Y-34230737D01*
X160002647Y-34232691D01*
X160075248Y-34230737D01*
X160069539Y-34258093D01*
X160044169Y-34262007D01*
X160032475Y-34266824D01*
X160023767Y-34275898D01*
X160010951Y-34297416D01*
X159906568Y-34511739D01*
X159812595Y-34711407D01*
X159749123Y-34711407D01*
X159686994Y-34367361D01*
X159562888Y-34551459D01*
X159458443Y-34711407D01*
X159410663Y-34711407D01*
X159408190Y-34455013D01*
X159406053Y-34295004D01*
X159403958Y-34273640D01*
X159400344Y-34266122D01*
X159391668Y-34262412D01*
X159363280Y-34258093D01*
G37*
G36*
X159996174Y-34709453D02*
G01*
X160001853Y-34682098D01*
X160034723Y-34679263D01*
X160044351Y-34676969D01*
X160050641Y-34670802D01*
X160055752Y-34656697D01*
X160067371Y-34608093D01*
X160094238Y-34481972D01*
X160130294Y-34298973D01*
X160133639Y-34270871D01*
X160131851Y-34262489D01*
X160123515Y-34258989D01*
X160090422Y-34256139D01*
X160095703Y-34230737D01*
X160118429Y-34229156D01*
X160156062Y-34223166D01*
X160194246Y-34214596D01*
X160222496Y-34205703D01*
X160235075Y-34201428D01*
X160238400Y-34202891D01*
X160238738Y-34207901D01*
X160238250Y-34210282D01*
X160232052Y-34235439D01*
X160207017Y-34344646D01*
X160187539Y-34436512D01*
X160239532Y-34398807D01*
X160263559Y-34384336D01*
X160283475Y-34379113D01*
X160306485Y-34377283D01*
X160333005Y-34379336D01*
X160352911Y-34384838D01*
X160367683Y-34393128D01*
X160378415Y-34404028D01*
X160385406Y-34417518D01*
X160389430Y-34435240D01*
X160389837Y-34458465D01*
X160385528Y-34488719D01*
X160355608Y-34624487D01*
X160349655Y-34657619D01*
X160348953Y-34669398D01*
X160350689Y-34673928D01*
X160355059Y-34677641D01*
X160363703Y-34679850D01*
X160391756Y-34682098D01*
X160386078Y-34709453D01*
X160313324Y-34707500D01*
X160251072Y-34709453D01*
X160247928Y-34703622D01*
X160266781Y-34637194D01*
X160281786Y-34572983D01*
X160292759Y-34512002D01*
X160295687Y-34479337D01*
X160294334Y-34464264D01*
X160286431Y-34449930D01*
X160272977Y-34441167D01*
X160251744Y-34437855D01*
X160231686Y-34440351D01*
X160212909Y-34447839D01*
X160196674Y-34459086D01*
X160185799Y-34471439D01*
X160178021Y-34488292D01*
X160168976Y-34522608D01*
X160148338Y-34628365D01*
X160142939Y-34660879D01*
X160142812Y-34671077D01*
X160147086Y-34676236D01*
X160157185Y-34679025D01*
X160189279Y-34682098D01*
X160183600Y-34709453D01*
X160103489Y-34707500D01*
X159996174Y-34709453D01*
G37*
G36*
X160470983Y-34412454D02*
G01*
X160476661Y-34385099D01*
X160574480Y-34387053D01*
X160658744Y-34385099D01*
X160653066Y-34412454D01*
X160624738Y-34414730D01*
X160615177Y-34417095D01*
X160609935Y-34421365D01*
X160607087Y-34427872D01*
X160607955Y-34446338D01*
X160620123Y-34522699D01*
X160636885Y-34617221D01*
X160683474Y-34542575D01*
X160738086Y-34451173D01*
X160749297Y-34426834D01*
X160749050Y-34420580D01*
X160745542Y-34416759D01*
X160737358Y-34414652D01*
X160710524Y-34412454D01*
X160716202Y-34385099D01*
X160737085Y-34385923D01*
X160781598Y-34387053D01*
X160844796Y-34385099D01*
X160839118Y-34412454D01*
X160823513Y-34413826D01*
X160811335Y-34417583D01*
X160802115Y-34425124D01*
X160790368Y-34441685D01*
X160740321Y-34519646D01*
X160647875Y-34665520D01*
X160562024Y-34800434D01*
X160533987Y-34838153D01*
X160514702Y-34858472D01*
X160495067Y-34873174D01*
X160475654Y-34883110D01*
X160455086Y-34889130D01*
X160432911Y-34891170D01*
X160410480Y-34888373D01*
X160387207Y-34879630D01*
X160401206Y-34846047D01*
X160412547Y-34814112D01*
X160422195Y-34811058D01*
X160433689Y-34823100D01*
X160447222Y-34830131D01*
X160463503Y-34832552D01*
X160484281Y-34828906D01*
X160502948Y-34817836D01*
X160522537Y-34795546D01*
X160565443Y-34732657D01*
X160531188Y-34539033D01*
X160511710Y-34435047D01*
X160507984Y-34423831D01*
X160503650Y-34418438D01*
X160495526Y-34415519D01*
X160470983Y-34412454D01*
G37*
G36*
X161054509Y-34600033D02*
G01*
X161048735Y-34639641D01*
X161048647Y-34649003D01*
X161055976Y-34661534D01*
X161071118Y-34673519D01*
X161090630Y-34681251D01*
X161115875Y-34684052D01*
X161137331Y-34682319D01*
X161154307Y-34677561D01*
X161167716Y-34670191D01*
X161178909Y-34659875D01*
X161186772Y-34647752D01*
X161191560Y-34633463D01*
X161192192Y-34615145D01*
X161186309Y-34602292D01*
X161172948Y-34592966D01*
X161140330Y-34582478D01*
X161090084Y-34568707D01*
X161069378Y-34559733D01*
X161056303Y-34547823D01*
X161047487Y-34530851D01*
X161044111Y-34510686D01*
X161046663Y-34485025D01*
X161056691Y-34455304D01*
X161073621Y-34429276D01*
X161096604Y-34407798D01*
X161125828Y-34391144D01*
X161147463Y-34383772D01*
X161173593Y-34379001D01*
X161205054Y-34377283D01*
X161237681Y-34379212D01*
X161267016Y-34384775D01*
X161293501Y-34393739D01*
X161283330Y-34425079D01*
X161269443Y-34478888D01*
X161243034Y-34478888D01*
X161246885Y-34445933D01*
X161246270Y-34436115D01*
X161241211Y-34427472D01*
X161230639Y-34419598D01*
X161212280Y-34412838D01*
X161191102Y-34410500D01*
X161164804Y-34413907D01*
X161144818Y-34423353D01*
X161130023Y-34438076D01*
X161122592Y-34455685D01*
X161121844Y-34467340D01*
X161124569Y-34476665D01*
X161130652Y-34484414D01*
X161147666Y-34493536D01*
X161193148Y-34505297D01*
X161225238Y-34512595D01*
X161240958Y-34517937D01*
X161253915Y-34526043D01*
X161263547Y-34535974D01*
X161270298Y-34547917D01*
X161274764Y-34569026D01*
X161272130Y-34597743D01*
X161263609Y-34625280D01*
X161250545Y-34648887D01*
X161232818Y-34669172D01*
X161209909Y-34686464D01*
X161175383Y-34703555D01*
X161138714Y-34713797D01*
X161099267Y-34717269D01*
X161078865Y-34716146D01*
X161055822Y-34712568D01*
X161005569Y-34698829D01*
X161001722Y-34693120D01*
X161011825Y-34659151D01*
X161026116Y-34600033D01*
X161054509Y-34600033D01*
G37*
G36*
X161346715Y-34412454D02*
G01*
X161352394Y-34385099D01*
X161456899Y-34387053D01*
X161539820Y-34385099D01*
X161534141Y-34412454D01*
X161512220Y-34413492D01*
X161496329Y-34414764D01*
X161489597Y-34416912D01*
X161485460Y-34420761D01*
X161483125Y-34426468D01*
X161484132Y-34477759D01*
X161491215Y-34601193D01*
X161589157Y-34451594D01*
X161636021Y-34377283D01*
X161671436Y-34377283D01*
X161685559Y-34452577D01*
X161719399Y-34601193D01*
X161768156Y-34509907D01*
X161800162Y-34446716D01*
X161807479Y-34428177D01*
X161807253Y-34421276D01*
X161803510Y-34416912D01*
X161795562Y-34415123D01*
X161762630Y-34412454D01*
X161768309Y-34385099D01*
X161841734Y-34387053D01*
X161907314Y-34385099D01*
X161901635Y-34412454D01*
X161877782Y-34414450D01*
X161868632Y-34416912D01*
X161858648Y-34426468D01*
X161840864Y-34454460D01*
X161788306Y-34547795D01*
X161703920Y-34709453D01*
X161649118Y-34709453D01*
X161629354Y-34610563D01*
X161602254Y-34496138D01*
X161523544Y-34613662D01*
X161464043Y-34709453D01*
X161408906Y-34709453D01*
X161406167Y-34641811D01*
X161399655Y-34541842D01*
X161391752Y-34446945D01*
X161388908Y-34426468D01*
X161383596Y-34418255D01*
X161374878Y-34415495D01*
X161346715Y-34412454D01*
G37*
G36*
X162082069Y-34215106D02*
G01*
X162095580Y-34216906D01*
X162106494Y-34222028D01*
X162115439Y-34230554D01*
X162121518Y-34241361D01*
X162124047Y-34253644D01*
X162122858Y-34268046D01*
X162114983Y-34287999D01*
X162099930Y-34305201D01*
X162080463Y-34316862D01*
X162059843Y-34320619D01*
X162046329Y-34318823D01*
X162035404Y-34313710D01*
X162026443Y-34305201D01*
X162020344Y-34294380D01*
X162017807Y-34282201D01*
X162018963Y-34268046D01*
X162026909Y-34247786D01*
X162041953Y-34230554D01*
X162061447Y-34218869D01*
X162082069Y-34215106D01*
G37*
G36*
X161886126Y-34709453D02*
G01*
X161891804Y-34682098D01*
X161926049Y-34679720D01*
X161936379Y-34677305D01*
X161941908Y-34671777D01*
X161947919Y-34658010D01*
X161955576Y-34629813D01*
X161970450Y-34562389D01*
X161981747Y-34503221D01*
X161989135Y-34462951D01*
X161991465Y-34444863D01*
X161990051Y-34438374D01*
X161984701Y-34435154D01*
X161968619Y-34433032D01*
X161943797Y-34431994D01*
X161949079Y-34406592D01*
X162003356Y-34400170D01*
X162049219Y-34390230D01*
X162087779Y-34377283D01*
X162094709Y-34384153D01*
X162076175Y-34457345D01*
X162050409Y-34574784D01*
X162037566Y-34640417D01*
X162034534Y-34662223D01*
X162035296Y-34671672D01*
X162037862Y-34675931D01*
X162045782Y-34678262D01*
X162080543Y-34682098D01*
X162074864Y-34709453D01*
X161981716Y-34707500D01*
X161886126Y-34709453D01*
G37*
G36*
X162162639Y-34435718D02*
G01*
X162213136Y-34406592D01*
X162232157Y-34300744D01*
X162279792Y-34284803D01*
X162325244Y-34265908D01*
X162333640Y-34273755D01*
X162316524Y-34327747D01*
X162295996Y-34406592D01*
X162326007Y-34408546D01*
X162359308Y-34407519D01*
X162387923Y-34404638D01*
X162390548Y-34406653D01*
X162384992Y-34418774D01*
X162370459Y-34453487D01*
X162313795Y-34449579D01*
X162286653Y-34451533D01*
X162273342Y-34512380D01*
X162254289Y-34616209D01*
X162252887Y-34642928D01*
X162257089Y-34651167D01*
X162265810Y-34656506D01*
X162281372Y-34658651D01*
X162297553Y-34656941D01*
X162316787Y-34652178D01*
X162319718Y-34665215D01*
X162270686Y-34713117D01*
X162247300Y-34716231D01*
X162228066Y-34717269D01*
X162201739Y-34714547D01*
X162183186Y-34707347D01*
X162169043Y-34695683D01*
X162161113Y-34681671D01*
X162158761Y-34664072D01*
X162162334Y-34634746D01*
X162181965Y-34548436D01*
X162203794Y-34451533D01*
X162186880Y-34450831D01*
X162158945Y-34453487D01*
X162162639Y-34435718D01*
G37*
G36*
X162637447Y-34500382D02*
G01*
X162609726Y-34500382D01*
X162614167Y-34463511D01*
X162613817Y-34453426D01*
X162609125Y-34444810D01*
X162597880Y-34435963D01*
X162582869Y-34430259D01*
X162561274Y-34428086D01*
X162538523Y-34430581D01*
X162520210Y-34437582D01*
X162505342Y-34448877D01*
X162493985Y-34464118D01*
X162483238Y-34488028D01*
X162473591Y-34523585D01*
X162468561Y-34558924D01*
X162468901Y-34587466D01*
X162473589Y-34610525D01*
X162482017Y-34629220D01*
X162494893Y-34645495D01*
X162510512Y-34656920D01*
X162529392Y-34663969D01*
X162552451Y-34666467D01*
X162585027Y-34663383D01*
X162613450Y-34654438D01*
X162617541Y-34662009D01*
X162597025Y-34694921D01*
X162572517Y-34704780D01*
X162548604Y-34711682D01*
X162524557Y-34715891D01*
X162501160Y-34717269D01*
X162464805Y-34714261D01*
X162436210Y-34706011D01*
X162413768Y-34693240D01*
X162396318Y-34676023D01*
X162383980Y-34654876D01*
X162376718Y-34629169D01*
X162375038Y-34597645D01*
X162380107Y-34558756D01*
X162387144Y-34531543D01*
X162396013Y-34507923D01*
X162406996Y-34486343D01*
X162418575Y-34469241D01*
X162431583Y-34454451D01*
X162444190Y-34443351D01*
X162509556Y-34405371D01*
X162541164Y-34388560D01*
X162557702Y-34381741D01*
X162573240Y-34378521D01*
X162594888Y-34377283D01*
X162633356Y-34380367D01*
X162668527Y-34389587D01*
X162672893Y-34395754D01*
X162651546Y-34452082D01*
X162637447Y-34500382D01*
G37*
G36*
X162657445Y-34709453D02*
G01*
X162663123Y-34682098D01*
X162695994Y-34679263D01*
X162705621Y-34676969D01*
X162711911Y-34670802D01*
X162717022Y-34656697D01*
X162728641Y-34608093D01*
X162755508Y-34481972D01*
X162791564Y-34298973D01*
X162794909Y-34270871D01*
X162793121Y-34262489D01*
X162784786Y-34258989D01*
X162751692Y-34256139D01*
X162756974Y-34230737D01*
X162779699Y-34229156D01*
X162817332Y-34223166D01*
X162855516Y-34214596D01*
X162883766Y-34205703D01*
X162896345Y-34201428D01*
X162899670Y-34202891D01*
X162900008Y-34207901D01*
X162899520Y-34210282D01*
X162893322Y-34235439D01*
X162868287Y-34344646D01*
X162848809Y-34436512D01*
X162900802Y-34398807D01*
X162924829Y-34384336D01*
X162944745Y-34379113D01*
X162967755Y-34377283D01*
X162994275Y-34379336D01*
X163014181Y-34384838D01*
X163028953Y-34393128D01*
X163039685Y-34404028D01*
X163046676Y-34417518D01*
X163050700Y-34435240D01*
X163051107Y-34458465D01*
X163046798Y-34488719D01*
X163016878Y-34624487D01*
X163010925Y-34657619D01*
X163010223Y-34669398D01*
X163011959Y-34673928D01*
X163016329Y-34677641D01*
X163024973Y-34679850D01*
X163053026Y-34682098D01*
X163047348Y-34709453D01*
X162974594Y-34707500D01*
X162912342Y-34709453D01*
X162909198Y-34703622D01*
X162928051Y-34637194D01*
X162943056Y-34572983D01*
X162954029Y-34512002D01*
X162956957Y-34479337D01*
X162955604Y-34464264D01*
X162947702Y-34449930D01*
X162934247Y-34441167D01*
X162913014Y-34437855D01*
X162892956Y-34440351D01*
X162874180Y-34447839D01*
X162857944Y-34459086D01*
X162847069Y-34471439D01*
X162839291Y-34488292D01*
X162830246Y-34522608D01*
X162809608Y-34628365D01*
X162804209Y-34660879D01*
X162804082Y-34671077D01*
X162808356Y-34676236D01*
X162818455Y-34679025D01*
X162850549Y-34682098D01*
X162844870Y-34709453D01*
X162764759Y-34707500D01*
X162657445Y-34709453D01*
G37*
G36*
X163191665Y-34359698D02*
G01*
X163171362Y-34357744D01*
X163169164Y-34352157D01*
X163191057Y-34306929D01*
X163210471Y-34259497D01*
X163238581Y-34243219D01*
X163264083Y-34232936D01*
X163290650Y-34226962D01*
X163320869Y-34224876D01*
X163350586Y-34227125D01*
X163374252Y-34233308D01*
X163393049Y-34242858D01*
X163407881Y-34255620D01*
X163419393Y-34271768D01*
X163426256Y-34289509D01*
X163428655Y-34309388D01*
X163426229Y-34332129D01*
X163416478Y-34361315D01*
X163399332Y-34389190D01*
X163374098Y-34415373D01*
X163328899Y-34449976D01*
X163274697Y-34488870D01*
X163254313Y-34506488D01*
X163242584Y-34522283D01*
X163236972Y-34537049D01*
X163236296Y-34548556D01*
X163239048Y-34564037D01*
X163213799Y-34574631D01*
X163207316Y-34556263D01*
X163205008Y-34539232D01*
X163206472Y-34523096D01*
X163211804Y-34506724D01*
X163221768Y-34488872D01*
X163237187Y-34469538D01*
X163269731Y-34435657D01*
X163299719Y-34404092D01*
X163314672Y-34384977D01*
X163324548Y-34366929D01*
X163329937Y-34350203D01*
X163331303Y-34333655D01*
X163328361Y-34320243D01*
X163321449Y-34309048D01*
X163311189Y-34300717D01*
X163296829Y-34295293D01*
X163276967Y-34293264D01*
X163262132Y-34294223D01*
X163250130Y-34296866D01*
X163238568Y-34301761D01*
X163223874Y-34310727D01*
X163191665Y-34359698D01*
G37*
G36*
X163218257Y-34607848D02*
G01*
X163232413Y-34609715D01*
X163243725Y-34615000D01*
X163252878Y-34623755D01*
X163259046Y-34634894D01*
X163261594Y-34647606D01*
X163260327Y-34662559D01*
X163252156Y-34683310D01*
X163236575Y-34701210D01*
X163223203Y-34710312D01*
X163209616Y-34715542D01*
X163195481Y-34717269D01*
X163181576Y-34715403D01*
X163170321Y-34710083D01*
X163161073Y-34701210D01*
X163154795Y-34689950D01*
X163152193Y-34677279D01*
X163153410Y-34662559D01*
X163161583Y-34641813D01*
X163177163Y-34623938D01*
X163190537Y-34614818D01*
X163204123Y-34609578D01*
X163218257Y-34607848D01*
G37*
G36*
X163617288Y-34422315D02*
G01*
X163625196Y-34307155D01*
X163629043Y-34279036D01*
X163636890Y-34254874D01*
X163647758Y-34238767D01*
X163662070Y-34228206D01*
X163677342Y-34224876D01*
X163691318Y-34228321D01*
X163701064Y-34238584D01*
X163705402Y-34253952D01*
X163703415Y-34277998D01*
X163694988Y-34307155D01*
X163655360Y-34422315D01*
X163649955Y-34432274D01*
X163642486Y-34437864D01*
X163632340Y-34439809D01*
X163623287Y-34437805D01*
X163618523Y-34432390D01*
X163617288Y-34422315D01*
G37*
G36*
X163498678Y-34422315D02*
G01*
X163506555Y-34307155D01*
X163510707Y-34277663D01*
X163518372Y-34254446D01*
X163529330Y-34238584D01*
X163543712Y-34228147D01*
X163558762Y-34224876D01*
X163572738Y-34228321D01*
X163582484Y-34238584D01*
X163586878Y-34253839D01*
X163585048Y-34276991D01*
X163576408Y-34307155D01*
X163536780Y-34422315D01*
X163531359Y-34432277D01*
X163523888Y-34437866D01*
X163513760Y-34439809D01*
X163504704Y-34437805D01*
X163499930Y-34432389D01*
X163498678Y-34422315D01*
G37*
G36*
X157385628Y-32918237D02*
G01*
X157426600Y-33077972D01*
X157363066Y-33096046D01*
X157339698Y-33059925D01*
X157315683Y-33032709D01*
X157290984Y-33012973D01*
X157263193Y-32998186D01*
X157234790Y-32989514D01*
X157205286Y-32986625D01*
X157177983Y-32989896D01*
X157159002Y-32998593D01*
X157149077Y-33007467D01*
X157143771Y-33016209D01*
X157142088Y-33025185D01*
X157145700Y-33040854D01*
X157157445Y-33056265D01*
X157176287Y-33068623D01*
X157212796Y-33081850D01*
X157304326Y-33108503D01*
X157342992Y-33121623D01*
X157373046Y-33135811D01*
X157395943Y-33150803D01*
X157412923Y-33166480D01*
X157430844Y-33192276D01*
X157441442Y-33220307D01*
X157445040Y-33251385D01*
X157441958Y-33281094D01*
X157432914Y-33307977D01*
X157417778Y-33332712D01*
X157395856Y-33355737D01*
X157367161Y-33376068D01*
X157335255Y-33390682D01*
X157299537Y-33399689D01*
X157259233Y-33402815D01*
X157222296Y-33400355D01*
X157189562Y-33393290D01*
X157158072Y-33380860D01*
X157123312Y-33360836D01*
X157108291Y-33395000D01*
X157057397Y-33395000D01*
X157023569Y-33210993D01*
X157087438Y-33195697D01*
X157105284Y-33231007D01*
X157128562Y-33262009D01*
X157157628Y-33289151D01*
X157182502Y-33305797D01*
X157208032Y-33317390D01*
X157234513Y-33324292D01*
X157262316Y-33326612D01*
X157286721Y-33324843D01*
X157304845Y-33320139D01*
X157320033Y-33312125D01*
X157330277Y-33302096D01*
X157336775Y-33290113D01*
X157338825Y-33278282D01*
X157336732Y-33265618D01*
X157330383Y-33254089D01*
X157319011Y-33243233D01*
X157294661Y-33230062D01*
X157248669Y-33214290D01*
X157169077Y-33191087D01*
X157120045Y-33171792D01*
X157091455Y-33156497D01*
X157072570Y-33142208D01*
X157057697Y-33125032D01*
X157045093Y-33102732D01*
X157036900Y-33078000D01*
X157034163Y-33051960D01*
X157036505Y-33027284D01*
X157043458Y-33004120D01*
X157055168Y-32982046D01*
X157070957Y-32962652D01*
X157091737Y-32945401D01*
X157118335Y-32930266D01*
X157147057Y-32919363D01*
X157178067Y-32912703D01*
X157211789Y-32910422D01*
X157252053Y-32914022D01*
X157289044Y-32924595D01*
X157323469Y-32942173D01*
X157336780Y-32918237D01*
X157385628Y-32918237D01*
G37*
G36*
X157487050Y-32918237D02*
G01*
X157719631Y-32918237D01*
X157719631Y-32984672D01*
X157698107Y-32984672D01*
X157681824Y-32985781D01*
X157673866Y-32988244D01*
X157668307Y-32992598D01*
X157664645Y-32998441D01*
X157662813Y-33006977D01*
X157661928Y-33027139D01*
X157661928Y-33109724D01*
X157835432Y-33109724D01*
X157835432Y-33021033D01*
X157833387Y-32998929D01*
X157829591Y-32991921D01*
X157824136Y-32987725D01*
X157815709Y-32985670D01*
X157795468Y-32984672D01*
X157777363Y-32984672D01*
X157777363Y-32918237D01*
X158010646Y-32918237D01*
X158010646Y-32984672D01*
X157991168Y-32984672D01*
X157973060Y-32985703D01*
X157964881Y-32987908D01*
X157959351Y-32991951D01*
X157955844Y-32997464D01*
X157954133Y-33005866D01*
X157953279Y-33027261D01*
X157953279Y-33284938D01*
X157954337Y-33306715D01*
X157956516Y-33315804D01*
X157960666Y-33321786D01*
X157966438Y-33325665D01*
X157975221Y-33327608D01*
X157996999Y-33328565D01*
X158010646Y-33328565D01*
X158010646Y-33395000D01*
X157777363Y-33395000D01*
X157777363Y-33328565D01*
X157792720Y-33328565D01*
X157812503Y-33327491D01*
X157821938Y-33325146D01*
X157828549Y-33320854D01*
X157832532Y-33315254D01*
X157834470Y-33306603D01*
X157835432Y-33284815D01*
X157835432Y-33183974D01*
X157661928Y-33183974D01*
X157661928Y-33284815D01*
X157663974Y-33314552D01*
X157668458Y-33321784D01*
X157674568Y-33325848D01*
X157683561Y-33327696D01*
X157703572Y-33328565D01*
X157719631Y-33328565D01*
X157719631Y-33395000D01*
X157487050Y-33395000D01*
X157487050Y-33328565D01*
X157502773Y-33328565D01*
X157521044Y-33327523D01*
X157530403Y-33325177D01*
X157537199Y-33320932D01*
X157541181Y-33315621D01*
X157543135Y-33307660D01*
X157544081Y-33288693D01*
X157544081Y-33030345D01*
X157543138Y-33008222D01*
X157541181Y-32998807D01*
X157537398Y-32992387D01*
X157532113Y-32988091D01*
X157524482Y-32985746D01*
X157508238Y-32984672D01*
X157487050Y-32984672D01*
X157487050Y-32918237D01*
G37*
G36*
X158062242Y-32918237D02*
G01*
X158459808Y-32918237D01*
X158514122Y-33068966D01*
X158452298Y-33091192D01*
X158434627Y-33056858D01*
X158415570Y-33031719D01*
X158393011Y-33012676D01*
X158369103Y-33001799D01*
X158342519Y-32996399D01*
X158309874Y-32994441D01*
X158237120Y-32994441D01*
X158237120Y-33113632D01*
X158261025Y-33113632D01*
X158285786Y-33112378D01*
X158297387Y-33109663D01*
X158305533Y-33104506D01*
X158310881Y-33097237D01*
X158313674Y-33086643D01*
X158314972Y-33063562D01*
X158314972Y-33045244D01*
X158375789Y-33045244D01*
X158375789Y-33248454D01*
X158314972Y-33248454D01*
X158314972Y-33227632D01*
X158313508Y-33207970D01*
X158310027Y-33196735D01*
X158304033Y-33188426D01*
X158296532Y-33183546D01*
X158285417Y-33181206D01*
X158258644Y-33180066D01*
X158237120Y-33180066D01*
X158237120Y-33289670D01*
X158238830Y-33310919D01*
X158245485Y-33316750D01*
X158266826Y-33318796D01*
X158306790Y-33318796D01*
X158336472Y-33317213D01*
X158361390Y-33312797D01*
X158382261Y-33305942D01*
X158401695Y-33295808D01*
X158419925Y-33282091D01*
X158437094Y-33264421D01*
X158458167Y-33233516D01*
X158474158Y-33196338D01*
X158536653Y-33217893D01*
X158474158Y-33395000D01*
X158062242Y-33395000D01*
X158062242Y-33328565D01*
X158074180Y-33328565D01*
X158096121Y-33327490D01*
X158106267Y-33325177D01*
X158113258Y-33320507D01*
X158117899Y-33313239D01*
X158119609Y-33284266D01*
X158119609Y-33025216D01*
X158118669Y-33005912D01*
X158116708Y-32997616D01*
X158112981Y-32991942D01*
X158107641Y-32987908D01*
X158099979Y-32985695D01*
X158083400Y-32984672D01*
X158062242Y-32984672D01*
X158062242Y-32918237D01*
G37*
G36*
X158567703Y-32918237D02*
G01*
X158800649Y-32918237D01*
X158800649Y-32984672D01*
X158780163Y-32984672D01*
X158758640Y-32986381D01*
X158751481Y-32990743D01*
X158746702Y-32996762D01*
X158744058Y-33004874D01*
X158742947Y-33019079D01*
X158742947Y-33290525D01*
X158744474Y-33310644D01*
X158750793Y-33316598D01*
X158769234Y-33318796D01*
X158799715Y-33317269D01*
X158823880Y-33313121D01*
X158842842Y-33306889D01*
X158868901Y-33291654D01*
X158893034Y-33268573D01*
X158906492Y-33250082D01*
X158919351Y-33226481D01*
X158931472Y-33196857D01*
X158994334Y-33218412D01*
X158931472Y-33395000D01*
X158567703Y-33395000D01*
X158567703Y-33328565D01*
X158590601Y-33328565D01*
X158603642Y-33327485D01*
X158611758Y-33324810D01*
X158618037Y-33320336D01*
X158622169Y-33314766D01*
X158624440Y-33307230D01*
X158625436Y-33292784D01*
X158625436Y-33023537D01*
X158624453Y-33007700D01*
X158622169Y-32998990D01*
X158618144Y-32992391D01*
X158612949Y-32988091D01*
X158605911Y-32985697D01*
X158592982Y-32984672D01*
X158567703Y-32984672D01*
X158567703Y-32918237D01*
G37*
G36*
X159015644Y-32918237D02*
G01*
X159248591Y-32918237D01*
X159248591Y-32984672D01*
X159228105Y-32984672D01*
X159206581Y-32986381D01*
X159199423Y-32990743D01*
X159194644Y-32996762D01*
X159191999Y-33004874D01*
X159190888Y-33019079D01*
X159190888Y-33290525D01*
X159192415Y-33310644D01*
X159198735Y-33316598D01*
X159217175Y-33318796D01*
X159247656Y-33317269D01*
X159271822Y-33313121D01*
X159290784Y-33306889D01*
X159316842Y-33291654D01*
X159340976Y-33268573D01*
X159354434Y-33250082D01*
X159367292Y-33226481D01*
X159379413Y-33196857D01*
X159442275Y-33218412D01*
X159379413Y-33395000D01*
X159015644Y-33395000D01*
X159015644Y-33328565D01*
X159038542Y-33328565D01*
X159051583Y-33327485D01*
X159059699Y-33324810D01*
X159065978Y-33320336D01*
X159070110Y-33314766D01*
X159072381Y-33307230D01*
X159073377Y-33292784D01*
X159073377Y-33023537D01*
X159072394Y-33007700D01*
X159070110Y-32998990D01*
X159066085Y-32992391D01*
X159060890Y-32988091D01*
X159053853Y-32985697D01*
X159040923Y-32984672D01*
X159015644Y-32984672D01*
X159015644Y-32918237D01*
G37*
G36*
X159700135Y-32918237D02*
G01*
X160097701Y-32918237D01*
X160152015Y-33068966D01*
X160090191Y-33091192D01*
X160072519Y-33056858D01*
X160053463Y-33031719D01*
X160030903Y-33012676D01*
X160006995Y-33001799D01*
X159980411Y-32996399D01*
X159947766Y-32994441D01*
X159875013Y-32994441D01*
X159875013Y-33113632D01*
X159898918Y-33113632D01*
X159923678Y-33112378D01*
X159935280Y-33109663D01*
X159943426Y-33104506D01*
X159948774Y-33097237D01*
X159951566Y-33086643D01*
X159952865Y-33063562D01*
X159952865Y-33045244D01*
X160013681Y-33045244D01*
X160013681Y-33248454D01*
X159952865Y-33248454D01*
X159952865Y-33227632D01*
X159951400Y-33207970D01*
X159947919Y-33196735D01*
X159941925Y-33188426D01*
X159934425Y-33183546D01*
X159923310Y-33181206D01*
X159896536Y-33180066D01*
X159875013Y-33180066D01*
X159875013Y-33289670D01*
X159876722Y-33310919D01*
X159883378Y-33316750D01*
X159904719Y-33318796D01*
X159944683Y-33318796D01*
X159974365Y-33317213D01*
X159999283Y-33312797D01*
X160020154Y-33305942D01*
X160039587Y-33295808D01*
X160057817Y-33282091D01*
X160074986Y-33264421D01*
X160096059Y-33233516D01*
X160112050Y-33196338D01*
X160174546Y-33217893D01*
X160112050Y-33395000D01*
X159700135Y-33395000D01*
X159700135Y-33328565D01*
X159712072Y-33328565D01*
X159734014Y-33327490D01*
X159744159Y-33325177D01*
X159751150Y-33320507D01*
X159755792Y-33313239D01*
X159757501Y-33284266D01*
X159757501Y-33025216D01*
X159756562Y-33005912D01*
X159754601Y-32997616D01*
X159750873Y-32991942D01*
X159745533Y-32987908D01*
X159737871Y-32985695D01*
X159721292Y-32984672D01*
X159700135Y-32984672D01*
X159700135Y-32918237D01*
G37*
G36*
X160571441Y-32918237D02*
G01*
X160619923Y-32918237D01*
X160666726Y-33090032D01*
X160603192Y-33108564D01*
X160580288Y-33068306D01*
X160560496Y-33040278D01*
X160543414Y-33021796D01*
X160515928Y-33001797D01*
X160488058Y-32990382D01*
X160459058Y-32986625D01*
X160437483Y-32988665D01*
X160416930Y-32994754D01*
X160397051Y-33005066D01*
X160379502Y-33018948D01*
X160364272Y-33036852D01*
X160351286Y-33059379D01*
X160342124Y-33083823D01*
X160336384Y-33111637D01*
X160334372Y-33143399D01*
X160336930Y-33179764D01*
X160344342Y-33212596D01*
X160356400Y-33242447D01*
X160373146Y-33269764D01*
X160394547Y-33293376D01*
X160418229Y-33309622D01*
X160444682Y-33319358D01*
X160474751Y-33322704D01*
X160500770Y-33320217D01*
X160526251Y-33312707D01*
X160551596Y-33299836D01*
X160580644Y-33279014D01*
X160607129Y-33253752D01*
X160631188Y-33223663D01*
X160684128Y-33262742D01*
X160647625Y-33308251D01*
X160616468Y-33339797D01*
X160589850Y-33360317D01*
X160555983Y-33378897D01*
X160520467Y-33392108D01*
X160482947Y-33400101D01*
X160442999Y-33402815D01*
X160399032Y-33399142D01*
X160358676Y-33388380D01*
X160321214Y-33370575D01*
X160287523Y-33346369D01*
X160258656Y-33316483D01*
X160234294Y-33280327D01*
X160216305Y-33240595D01*
X160205500Y-33198601D01*
X160201840Y-33153718D01*
X160205435Y-33109067D01*
X160215984Y-33067839D01*
X160233439Y-33029368D01*
X160257219Y-32994477D01*
X160285779Y-32965474D01*
X160319504Y-32941837D01*
X160356915Y-32924493D01*
X160397170Y-32914002D01*
X160440954Y-32910422D01*
X160485519Y-32913766D01*
X160524968Y-32923391D01*
X160560144Y-32938968D01*
X160571441Y-32918237D01*
G37*
G36*
X161022544Y-32913412D02*
G01*
X161062914Y-32922012D01*
X161099030Y-32935871D01*
X161131498Y-32954916D01*
X161160768Y-32979359D01*
X161185884Y-33008284D01*
X161205298Y-33039985D01*
X161219320Y-33074856D01*
X161227966Y-33113447D01*
X161230957Y-33156435D01*
X161228846Y-33192630D01*
X161222697Y-33225947D01*
X161212684Y-33256770D01*
X161198839Y-33285426D01*
X161181148Y-33312122D01*
X161160593Y-33335334D01*
X161137034Y-33355336D01*
X161110210Y-33372285D01*
X161081657Y-33385210D01*
X161049729Y-33394754D01*
X161013948Y-33400730D01*
X160973770Y-33402815D01*
X160931311Y-33400280D01*
X160893362Y-33392986D01*
X160859310Y-33381260D01*
X160828638Y-33365227D01*
X160800937Y-33344808D01*
X160771750Y-33315045D01*
X160749295Y-33282023D01*
X160733104Y-33245291D01*
X160723106Y-33204173D01*
X160719710Y-33158817D01*
X160851831Y-33158817D01*
X160854491Y-33199352D01*
X160861956Y-33233476D01*
X160873674Y-33262229D01*
X160889414Y-33286464D01*
X160907050Y-33304125D01*
X160926870Y-33316490D01*
X160949324Y-33324006D01*
X160975113Y-33326612D01*
X161001098Y-33323995D01*
X161023609Y-33316461D01*
X161043369Y-33304095D01*
X161060842Y-33286464D01*
X161076781Y-33261715D01*
X161088601Y-33232639D01*
X161096099Y-33198440D01*
X161098761Y-33158145D01*
X161096757Y-33120686D01*
X161091172Y-33089346D01*
X161082519Y-33063196D01*
X161069905Y-33038861D01*
X161055277Y-33019963D01*
X161038647Y-33005676D01*
X161019498Y-32995016D01*
X160999587Y-32988732D01*
X160978532Y-32986625D01*
X160952227Y-32989273D01*
X160929512Y-32996885D01*
X160909639Y-33009364D01*
X160892131Y-33027139D01*
X160875017Y-33053520D01*
X160862469Y-33083773D01*
X160854599Y-33118588D01*
X160851831Y-33158817D01*
X160719710Y-33158817D01*
X160719635Y-33157809D01*
X160722666Y-33114581D01*
X160731427Y-33075772D01*
X160745642Y-33040699D01*
X160765335Y-33008805D01*
X160790832Y-32979695D01*
X160820497Y-32955161D01*
X160853432Y-32936024D01*
X160890095Y-32922086D01*
X160931099Y-32913432D01*
X160977189Y-32910422D01*
X161022544Y-32913412D01*
G37*
G36*
X161288660Y-33180066D02*
G01*
X161473796Y-33180066D01*
X161473796Y-33262131D01*
X161288660Y-33262131D01*
X161288660Y-33180066D01*
G37*
G36*
X161534093Y-32918237D02*
G01*
X161749607Y-32918237D01*
X161832283Y-33208001D01*
X161918012Y-32918237D01*
X162137281Y-32918237D01*
X162137281Y-32984672D01*
X162113712Y-32984672D01*
X162096545Y-32986997D01*
X162087242Y-32992701D01*
X162082118Y-33002811D01*
X162079915Y-33022834D01*
X162079915Y-33292784D01*
X162081960Y-33314918D01*
X162085753Y-33320853D01*
X162090509Y-33324474D01*
X162098746Y-33327444D01*
X162110293Y-33328565D01*
X162137281Y-33328565D01*
X162137281Y-33395000D01*
X161908090Y-33395000D01*
X161908090Y-33328565D01*
X161925859Y-33328565D01*
X161943744Y-33327602D01*
X161952145Y-33325512D01*
X161958121Y-33321593D01*
X161962220Y-33316140D01*
X161964472Y-33308439D01*
X161965487Y-33292753D01*
X161965487Y-33000150D01*
X161849350Y-33395000D01*
X161783435Y-33395000D01*
X161671052Y-33012790D01*
X161671052Y-33301974D01*
X161672046Y-33311175D01*
X161674624Y-33317330D01*
X161684883Y-33325665D01*
X161692572Y-33327699D01*
X161706223Y-33328565D01*
X161729121Y-33328565D01*
X161729121Y-33395000D01*
X161534093Y-33395000D01*
X161534093Y-33328565D01*
X161553205Y-33328565D01*
X161569851Y-33327557D01*
X161577965Y-33325329D01*
X161583741Y-33321180D01*
X161587857Y-33315102D01*
X161590108Y-33306617D01*
X161591124Y-33289364D01*
X161591124Y-33022834D01*
X161590346Y-33006033D01*
X161588743Y-32998990D01*
X161584804Y-32992411D01*
X161579492Y-32988091D01*
X161572377Y-32985678D01*
X161560044Y-32984672D01*
X161534093Y-32984672D01*
X161534093Y-32918237D01*
G37*
G36*
X162613433Y-33285915D02*
G01*
X162625758Y-33311748D01*
X162634071Y-33321818D01*
X162645266Y-33326515D01*
X162667380Y-33328565D01*
X162667380Y-33395000D01*
X162441944Y-33395000D01*
X162441944Y-33328565D01*
X162455621Y-33328230D01*
X162472848Y-33326738D01*
X162481908Y-33323284D01*
X162487680Y-33317591D01*
X162489449Y-33311163D01*
X162482946Y-33285915D01*
X162468933Y-33242592D01*
X162323791Y-33242592D01*
X162306023Y-33290708D01*
X162300558Y-33310827D01*
X162301516Y-33315984D01*
X162304466Y-33320719D01*
X162309280Y-33324365D01*
X162317288Y-33327192D01*
X162349406Y-33328565D01*
X162349406Y-33395000D01*
X162164942Y-33395000D01*
X162164942Y-33328565D01*
X162181497Y-33327654D01*
X162190893Y-33325512D01*
X162198439Y-33321620D01*
X162204387Y-33316292D01*
X162209396Y-33308649D01*
X162216202Y-33293425D01*
X162262973Y-33174204D01*
X162348704Y-33174204D01*
X162444020Y-33174204D01*
X162397553Y-33044175D01*
X162348704Y-33174204D01*
X162262973Y-33174204D01*
X162363389Y-32918237D01*
X162470307Y-32918237D01*
X162613433Y-33285915D01*
G37*
G36*
X163016337Y-32919459D02*
G01*
X163049406Y-32923367D01*
X163081622Y-32931652D01*
X163110192Y-32945959D01*
X163134463Y-32965848D01*
X163152385Y-32990075D01*
X163160645Y-33008363D01*
X163165678Y-33028303D01*
X163167406Y-33050251D01*
X163164872Y-33076703D01*
X163157568Y-33099785D01*
X163145604Y-33120176D01*
X163128633Y-33138331D01*
X163101370Y-33158083D01*
X163070976Y-33172697D01*
X163036919Y-33182264D01*
X163134952Y-33295928D01*
X163139043Y-33301027D01*
X163156446Y-33318216D01*
X163172169Y-33326184D01*
X163194059Y-33328565D01*
X163214545Y-33328565D01*
X163214545Y-33395000D01*
X163061863Y-33395000D01*
X162908845Y-33189836D01*
X162869216Y-33189836D01*
X162869216Y-33284357D01*
X162870119Y-33306649D01*
X162871933Y-33315468D01*
X162875519Y-33321279D01*
X162880665Y-33325329D01*
X162888194Y-33327537D01*
X162904754Y-33328565D01*
X162926613Y-33328565D01*
X162926613Y-33395000D01*
X162693667Y-33395000D01*
X162693667Y-33328565D01*
X162714855Y-33328565D01*
X162730313Y-33327485D01*
X162738577Y-33324993D01*
X162744667Y-33320529D01*
X162748988Y-33314247D01*
X162750697Y-33288693D01*
X162750697Y-33119494D01*
X162869216Y-33119494D01*
X162939924Y-33119494D01*
X162978921Y-33117243D01*
X163002267Y-33111830D01*
X163020805Y-33102171D01*
X163033347Y-33089818D01*
X163041060Y-33074282D01*
X163043758Y-33055044D01*
X163041249Y-33037375D01*
X163034019Y-33022834D01*
X163022469Y-33011266D01*
X163006359Y-33002868D01*
X162985574Y-32998347D01*
X162947771Y-32996395D01*
X162869216Y-32996395D01*
X162869216Y-33119494D01*
X162750697Y-33119494D01*
X162750697Y-33021064D01*
X162749918Y-33006515D01*
X162748133Y-32998746D01*
X162744677Y-32993158D01*
X162739767Y-32990045D01*
X162731173Y-32987267D01*
X162720991Y-32986290D01*
X162711435Y-32986625D01*
X162693667Y-32986625D01*
X162693667Y-32918237D01*
X162987399Y-32918237D01*
X163016337Y-32919459D01*
G37*
G36*
X163663189Y-33285915D02*
G01*
X163675514Y-33311748D01*
X163683827Y-33321818D01*
X163695021Y-33326515D01*
X163717136Y-33328565D01*
X163717136Y-33395000D01*
X163491700Y-33395000D01*
X163491700Y-33328565D01*
X163505377Y-33328230D01*
X163522604Y-33326738D01*
X163531664Y-33323284D01*
X163537435Y-33317591D01*
X163539205Y-33311163D01*
X163532702Y-33285915D01*
X163518688Y-33242592D01*
X163373547Y-33242592D01*
X163355778Y-33290708D01*
X163350314Y-33310827D01*
X163351271Y-33315984D01*
X163354221Y-33320719D01*
X163359036Y-33324365D01*
X163367044Y-33327192D01*
X163399162Y-33328565D01*
X163399162Y-33395000D01*
X163214698Y-33395000D01*
X163214698Y-33328565D01*
X163231252Y-33327654D01*
X163240648Y-33325512D01*
X163248195Y-33321620D01*
X163254143Y-33316292D01*
X163259151Y-33308649D01*
X163265958Y-33293425D01*
X163312729Y-33174204D01*
X163398460Y-33174204D01*
X163493776Y-33174204D01*
X163447308Y-33044175D01*
X163398460Y-33174204D01*
X163312729Y-33174204D01*
X163413145Y-32918237D01*
X163520062Y-32918237D01*
X163663189Y-33285915D01*
G37*
G36*
X163777922Y-32902606D02*
G01*
X163823015Y-32902606D01*
X163827808Y-32918237D01*
X164096598Y-32918237D01*
X164102398Y-32902606D01*
X164147827Y-32902606D01*
X164206904Y-33069027D01*
X164143370Y-33091161D01*
X164123253Y-33053304D01*
X164112992Y-33036848D01*
X164093238Y-33014286D01*
X164071318Y-32997555D01*
X164053240Y-32989234D01*
X164036147Y-32986625D01*
X164028840Y-32987748D01*
X164024851Y-32990564D01*
X164022786Y-32995812D01*
X164021798Y-33008485D01*
X164021798Y-33282465D01*
X164023508Y-33312873D01*
X164029309Y-33322612D01*
X164040574Y-33327375D01*
X164078829Y-33328565D01*
X164078829Y-33395000D01*
X163846584Y-33395000D01*
X163846584Y-33328565D01*
X163860598Y-33328565D01*
X163881734Y-33327608D01*
X163890273Y-33325665D01*
X163895925Y-33321741D01*
X163900196Y-33315437D01*
X163902515Y-33306094D01*
X163903615Y-33284846D01*
X163903615Y-33004730D01*
X163902718Y-32993964D01*
X163900867Y-32989709D01*
X163897204Y-32987568D01*
X163889266Y-32986625D01*
X163871418Y-32989650D01*
X163849637Y-32999967D01*
X163829332Y-33015669D01*
X163810711Y-33037520D01*
X163781677Y-33091161D01*
X163719181Y-33069027D01*
X163777922Y-32902606D01*
G37*
G36*
X164233038Y-32918237D02*
G01*
X164465618Y-32918237D01*
X164465618Y-32984672D01*
X164444094Y-32984672D01*
X164427812Y-32985781D01*
X164419853Y-32988244D01*
X164414294Y-32992598D01*
X164410633Y-32998441D01*
X164408800Y-33006977D01*
X164407916Y-33027139D01*
X164407916Y-33109724D01*
X164581420Y-33109724D01*
X164581420Y-33021033D01*
X164579374Y-32998929D01*
X164575578Y-32991921D01*
X164570123Y-32987725D01*
X164561696Y-32985670D01*
X164541455Y-32984672D01*
X164523351Y-32984672D01*
X164523351Y-32918237D01*
X164756633Y-32918237D01*
X164756633Y-32984672D01*
X164737155Y-32984672D01*
X164719048Y-32985703D01*
X164710868Y-32987908D01*
X164705339Y-32991951D01*
X164701831Y-32997464D01*
X164700121Y-33005866D01*
X164699267Y-33027261D01*
X164699267Y-33284938D01*
X164700324Y-33306715D01*
X164702503Y-33315804D01*
X164706653Y-33321786D01*
X164712425Y-33325665D01*
X164721209Y-33327608D01*
X164742986Y-33328565D01*
X164756633Y-33328565D01*
X164756633Y-33395000D01*
X164523351Y-33395000D01*
X164523351Y-33328565D01*
X164538708Y-33328565D01*
X164558490Y-33327491D01*
X164567925Y-33325146D01*
X164574537Y-33320854D01*
X164578519Y-33315254D01*
X164580458Y-33306603D01*
X164581420Y-33284815D01*
X164581420Y-33183974D01*
X164407916Y-33183974D01*
X164407916Y-33284815D01*
X164409961Y-33314552D01*
X164414446Y-33321784D01*
X164420555Y-33325848D01*
X164429548Y-33327696D01*
X164449559Y-33328565D01*
X164465618Y-33328565D01*
X164465618Y-33395000D01*
X164233038Y-33395000D01*
X164233038Y-33328565D01*
X164248761Y-33328565D01*
X164267032Y-33327523D01*
X164276391Y-33325177D01*
X164283186Y-33320932D01*
X164287168Y-33315621D01*
X164289123Y-33307660D01*
X164290068Y-33288693D01*
X164290068Y-33030345D01*
X164289125Y-33008222D01*
X164287168Y-32998807D01*
X164283385Y-32992387D01*
X164278101Y-32988091D01*
X164270470Y-32985746D01*
X164254226Y-32984672D01*
X164233038Y-32984672D01*
X164233038Y-32918237D01*
G37*
G36*
X165108727Y-32913412D02*
G01*
X165149096Y-32922012D01*
X165185213Y-32935871D01*
X165217681Y-32954916D01*
X165246951Y-32979359D01*
X165272066Y-33008284D01*
X165291481Y-33039985D01*
X165305503Y-33074856D01*
X165314149Y-33113447D01*
X165317140Y-33156435D01*
X165315029Y-33192630D01*
X165308880Y-33225947D01*
X165298867Y-33256770D01*
X165285022Y-33285426D01*
X165267331Y-33312122D01*
X165246776Y-33335334D01*
X165223216Y-33355336D01*
X165196393Y-33372285D01*
X165167840Y-33385210D01*
X165135911Y-33394754D01*
X165100131Y-33400730D01*
X165059952Y-33402815D01*
X165017494Y-33400280D01*
X164979544Y-33392986D01*
X164945493Y-33381260D01*
X164914821Y-33365227D01*
X164887120Y-33344808D01*
X164857933Y-33315045D01*
X164835478Y-33282023D01*
X164819287Y-33245291D01*
X164809289Y-33204173D01*
X164805893Y-33158817D01*
X164938014Y-33158817D01*
X164940674Y-33199352D01*
X164948139Y-33233476D01*
X164959856Y-33262229D01*
X164975597Y-33286464D01*
X164993233Y-33304125D01*
X165013053Y-33316490D01*
X165035507Y-33324006D01*
X165061296Y-33326612D01*
X165087281Y-33323995D01*
X165109791Y-33316461D01*
X165129552Y-33304095D01*
X165147025Y-33286464D01*
X165162964Y-33261715D01*
X165174784Y-33232639D01*
X165182282Y-33198440D01*
X165184944Y-33158145D01*
X165182939Y-33120686D01*
X165177355Y-33089346D01*
X165168702Y-33063196D01*
X165156088Y-33038861D01*
X165141460Y-33019963D01*
X165124829Y-33005676D01*
X165105681Y-32995016D01*
X165085769Y-32988732D01*
X165064715Y-32986625D01*
X165038410Y-32989273D01*
X165015695Y-32996885D01*
X164995822Y-33009364D01*
X164978314Y-33027139D01*
X164961200Y-33053520D01*
X164948652Y-33083773D01*
X164940782Y-33118588D01*
X164938014Y-33158817D01*
X164805893Y-33158817D01*
X164805818Y-33157809D01*
X164808849Y-33114581D01*
X164817610Y-33075772D01*
X164831825Y-33040699D01*
X164851518Y-33008805D01*
X164877015Y-32979695D01*
X164906680Y-32955161D01*
X164939615Y-32936024D01*
X164976277Y-32922086D01*
X165017282Y-32913432D01*
X165063372Y-32910422D01*
X165108727Y-32913412D01*
G37*
G36*
X165368034Y-32918237D02*
G01*
X165561688Y-32918237D01*
X165701395Y-33196338D01*
X165701395Y-33026590D01*
X165700593Y-33006790D01*
X165699014Y-32999326D01*
X165694820Y-32992171D01*
X165689763Y-32987908D01*
X165682554Y-32985688D01*
X165667232Y-32984672D01*
X165643998Y-32984672D01*
X165643998Y-32918237D01*
X165840736Y-32918237D01*
X165840736Y-32984672D01*
X165818876Y-32984672D01*
X165803723Y-32985799D01*
X165795459Y-32988427D01*
X165789457Y-32992945D01*
X165785720Y-32998685D01*
X165783887Y-33007018D01*
X165783003Y-33026651D01*
X165783003Y-33395000D01*
X165685000Y-33395000D01*
X165508077Y-33043961D01*
X165508077Y-33289029D01*
X165508926Y-33308266D01*
X165510642Y-33315956D01*
X165514132Y-33321064D01*
X165519862Y-33325177D01*
X165527783Y-33327533D01*
X165542912Y-33328565D01*
X165565779Y-33328565D01*
X165565779Y-33395000D01*
X165368034Y-33395000D01*
X165368034Y-33328565D01*
X165388520Y-33328565D01*
X165404225Y-33327662D01*
X165411906Y-33325665D01*
X165417489Y-33321798D01*
X165421981Y-33315621D01*
X165424650Y-33307466D01*
X165425737Y-33294127D01*
X165425737Y-33021491D01*
X165424725Y-33006894D01*
X165422317Y-32998471D01*
X165418187Y-32992035D01*
X165413097Y-32987908D01*
X165406248Y-32985643D01*
X165393649Y-32984672D01*
X165368034Y-32984672D01*
X165368034Y-32918237D01*
G37*
G36*
X157033461Y-35700066D02*
G01*
X157218597Y-35700066D01*
X157218597Y-35782131D01*
X157033461Y-35782131D01*
X157033461Y-35700066D01*
G37*
G36*
X157515413Y-35438237D02*
G01*
X157747688Y-35438237D01*
X157747688Y-35504672D01*
X157732331Y-35504672D01*
X157712188Y-35505485D01*
X157704976Y-35507053D01*
X157697822Y-35511622D01*
X157693191Y-35517525D01*
X157690732Y-35525822D01*
X157689619Y-35542896D01*
X157689619Y-35668375D01*
X157838180Y-35532546D01*
X157850148Y-35519998D01*
X157852193Y-35514319D01*
X157851197Y-35510077D01*
X157848255Y-35507083D01*
X157842828Y-35505483D01*
X157828288Y-35504672D01*
X157809176Y-35504672D01*
X157809176Y-35438237D01*
X158024690Y-35438237D01*
X158024690Y-35504672D01*
X158017515Y-35504672D01*
X157996663Y-35506198D01*
X157982497Y-35512854D01*
X157960820Y-35529554D01*
X157845721Y-35629144D01*
X157983016Y-35814127D01*
X158000241Y-35835112D01*
X158008967Y-35842429D01*
X158021275Y-35846824D01*
X158040413Y-35848565D01*
X158049633Y-35848565D01*
X158049633Y-35915000D01*
X157809176Y-35915000D01*
X157809176Y-35848565D01*
X157818732Y-35848565D01*
X157842552Y-35847739D01*
X157850667Y-35846184D01*
X157855070Y-35843243D01*
X157856284Y-35840047D01*
X157854555Y-35834917D01*
X157845721Y-35820661D01*
X157762037Y-35701745D01*
X157689619Y-35764210D01*
X157689619Y-35811776D01*
X157690673Y-35827939D01*
X157693039Y-35836079D01*
X157697236Y-35841909D01*
X157702778Y-35845696D01*
X157710700Y-35847650D01*
X157728210Y-35848565D01*
X157747688Y-35848565D01*
X157747688Y-35915000D01*
X157515413Y-35915000D01*
X157515413Y-35848565D01*
X157532846Y-35848565D01*
X157551319Y-35847539D01*
X157559835Y-35845329D01*
X157565708Y-35841128D01*
X157569726Y-35834918D01*
X157571556Y-35827128D01*
X157572474Y-35806983D01*
X157572474Y-35547261D01*
X157571494Y-35527883D01*
X157569391Y-35518990D01*
X157565385Y-35512709D01*
X157559499Y-35508244D01*
X157551245Y-35505771D01*
X157534891Y-35504672D01*
X157515413Y-35504672D01*
X157515413Y-35438237D01*
G37*
G36*
X158226892Y-35567198D02*
G01*
X158226892Y-35616474D01*
X158254125Y-35591057D01*
X158274184Y-35577578D01*
X158294277Y-35569663D01*
X158312622Y-35567198D01*
X158328637Y-35569144D01*
X158342511Y-35574800D01*
X158354219Y-35583940D01*
X158363333Y-35596537D01*
X158369100Y-35611174D01*
X158371026Y-35626854D01*
X158367520Y-35646971D01*
X158356830Y-35665292D01*
X158346319Y-35674709D01*
X158333316Y-35680446D01*
X158317049Y-35682480D01*
X158304928Y-35681534D01*
X158282549Y-35675245D01*
X158267864Y-35672711D01*
X158257883Y-35674850D01*
X158238494Y-35683915D01*
X158238494Y-35816661D01*
X158239326Y-35832149D01*
X158241058Y-35838735D01*
X158244379Y-35843084D01*
X158249424Y-35846184D01*
X158256916Y-35847789D01*
X158274703Y-35848565D01*
X158289724Y-35848565D01*
X158289724Y-35915000D01*
X158078973Y-35915000D01*
X158078973Y-35848565D01*
X158096406Y-35848565D01*
X158119792Y-35846550D01*
X158126783Y-35839406D01*
X158128406Y-35832752D01*
X158129195Y-35816692D01*
X158129195Y-35660987D01*
X158078973Y-35660987D01*
X158078973Y-35595744D01*
X158115645Y-35591240D01*
X158154137Y-35581870D01*
X158194774Y-35567198D01*
X158226892Y-35567198D01*
G37*
G36*
X158502337Y-35418698D02*
G01*
X158518906Y-35420724D01*
X158533473Y-35426650D01*
X158546545Y-35436650D01*
X158556760Y-35449548D01*
X158562781Y-35463861D01*
X158564833Y-35480095D01*
X158562772Y-35496530D01*
X158556744Y-35510940D01*
X158546545Y-35523845D01*
X158533473Y-35533844D01*
X158518906Y-35539770D01*
X158502337Y-35541796D01*
X158485767Y-35539771D01*
X158471190Y-35533845D01*
X158458099Y-35523845D01*
X158447902Y-35510948D01*
X158441891Y-35496636D01*
X158439842Y-35480400D01*
X158441922Y-35464429D01*
X158448077Y-35450119D01*
X158458618Y-35436986D01*
X158472015Y-35426712D01*
X158486438Y-35420718D01*
X158502337Y-35418698D01*
G37*
G36*
X158557658Y-35567198D02*
G01*
X158557658Y-35818005D01*
X158559704Y-35840078D01*
X158567031Y-35846367D01*
X158590814Y-35848565D01*
X158609255Y-35848565D01*
X158609255Y-35915000D01*
X158398168Y-35915000D01*
X158398168Y-35848565D01*
X158416272Y-35848565D01*
X158438987Y-35846734D01*
X158446314Y-35840505D01*
X158447962Y-35835022D01*
X158448726Y-35823042D01*
X158448726Y-35662941D01*
X158398168Y-35662941D01*
X158398168Y-35596507D01*
X158449917Y-35590859D01*
X158494125Y-35580509D01*
X158525204Y-35567198D01*
X158557658Y-35567198D01*
G37*
G36*
X158880608Y-35575013D02*
G01*
X158925366Y-35575013D01*
X158953026Y-35670146D01*
X158888485Y-35696158D01*
X158867513Y-35669883D01*
X158842201Y-35650271D01*
X158823137Y-35640797D01*
X158804861Y-35635386D01*
X158787063Y-35633632D01*
X158770329Y-35635336D01*
X158760075Y-35639585D01*
X158753256Y-35646364D01*
X158751190Y-35653782D01*
X158752680Y-35660303D01*
X158757510Y-35666696D01*
X158765748Y-35672080D01*
X158783613Y-35679244D01*
X158877555Y-35712644D01*
X158901984Y-35722599D01*
X158925366Y-35734748D01*
X158945753Y-35749837D01*
X158959682Y-35767233D01*
X158968164Y-35787691D01*
X158971131Y-35812295D01*
X158968857Y-35834640D01*
X158962252Y-35854385D01*
X158951318Y-35872096D01*
X158935624Y-35888133D01*
X158913938Y-35903066D01*
X158889732Y-35913840D01*
X158862546Y-35920500D01*
X158831790Y-35922815D01*
X158797101Y-35919713D01*
X158766388Y-35910739D01*
X158738886Y-35896040D01*
X158729330Y-35915000D01*
X158683901Y-35915000D01*
X158641892Y-35805029D01*
X158706433Y-35778224D01*
X158724066Y-35801039D01*
X158743933Y-35820035D01*
X158766181Y-35835529D01*
X158790549Y-35847653D01*
X158812114Y-35854306D01*
X158831454Y-35856381D01*
X158848828Y-35854177D01*
X158862534Y-35847985D01*
X158869863Y-35840384D01*
X158872090Y-35832171D01*
X158870351Y-35824870D01*
X158864580Y-35817363D01*
X158854529Y-35810843D01*
X158831454Y-35801549D01*
X158757663Y-35775995D01*
X158717358Y-35759546D01*
X158690804Y-35744298D01*
X158674467Y-35730260D01*
X158662214Y-35712997D01*
X158654938Y-35693980D01*
X158652455Y-35672619D01*
X158654618Y-35652009D01*
X158660960Y-35633419D01*
X158671572Y-35616364D01*
X158686954Y-35600537D01*
X158707449Y-35586124D01*
X158730151Y-35575775D01*
X158755473Y-35569405D01*
X158783949Y-35567198D01*
X158817435Y-35569936D01*
X158846427Y-35577759D01*
X158871724Y-35590370D01*
X158880608Y-35575013D01*
G37*
G36*
X159174860Y-35412836D02*
G01*
X159174860Y-35604323D01*
X159208182Y-35586221D01*
X159234638Y-35575563D01*
X159260530Y-35569229D01*
X159284861Y-35567198D01*
X159315974Y-35570732D01*
X159342746Y-35580936D01*
X159365275Y-35596838D01*
X159380146Y-35615405D01*
X159388825Y-35638255D01*
X159392114Y-35670726D01*
X159392114Y-35812234D01*
X159393824Y-35837361D01*
X159397641Y-35842864D01*
X159404051Y-35846856D01*
X159428292Y-35848565D01*
X159444351Y-35848565D01*
X159444351Y-35915000D01*
X159243523Y-35915000D01*
X159243523Y-35848565D01*
X159253781Y-35848565D01*
X159267287Y-35847721D01*
X159273931Y-35845848D01*
X159278606Y-35842515D01*
X159281441Y-35838216D01*
X159283487Y-35814341D01*
X159283487Y-35697379D01*
X159282560Y-35676270D01*
X159280587Y-35666727D01*
X159276590Y-35659850D01*
X159270145Y-35654179D01*
X159261967Y-35650564D01*
X159251369Y-35649263D01*
X159235251Y-35650813D01*
X159217725Y-35655705D01*
X159199587Y-35664104D01*
X159174860Y-35679427D01*
X159174860Y-35814341D01*
X159176905Y-35838399D01*
X159179780Y-35842522D01*
X159184752Y-35845848D01*
X159191878Y-35847715D01*
X159206642Y-35848565D01*
X159214153Y-35848565D01*
X159214153Y-35915000D01*
X159015369Y-35915000D01*
X159015369Y-35848565D01*
X159034481Y-35848565D01*
X159055822Y-35846367D01*
X159062814Y-35838857D01*
X159064460Y-35832241D01*
X159065225Y-35817852D01*
X159065225Y-35508579D01*
X159015369Y-35508579D01*
X159015369Y-35442145D01*
X159044426Y-35438998D01*
X159079056Y-35432345D01*
X159113375Y-35423186D01*
X159142742Y-35412836D01*
X159174860Y-35412836D01*
G37*
G36*
X159701020Y-35438237D02*
G01*
X159927494Y-35438237D01*
X159927494Y-35504672D01*
X159920320Y-35504672D01*
X159892812Y-35506381D01*
X159887360Y-35508988D01*
X159882737Y-35513556D01*
X159879627Y-35519221D01*
X159878646Y-35524822D01*
X159880073Y-35533652D01*
X159886492Y-35554161D01*
X159970878Y-35790497D01*
X160060698Y-35548177D01*
X160067171Y-35523173D01*
X160065498Y-35514666D01*
X160060851Y-35509129D01*
X160052643Y-35506098D01*
X160033709Y-35504672D01*
X160019024Y-35504672D01*
X160019024Y-35438237D01*
X160203458Y-35438237D01*
X160203458Y-35504672D01*
X160182555Y-35506276D01*
X160172714Y-35509801D01*
X160162090Y-35521237D01*
X160148809Y-35548025D01*
X160006049Y-35915000D01*
X159898796Y-35915000D01*
X159753624Y-35545674D01*
X159739946Y-35517555D01*
X159734353Y-35512243D01*
X159726452Y-35508060D01*
X159716713Y-35505655D01*
X159701020Y-35504672D01*
X159701020Y-35438237D01*
G37*
G36*
X160433249Y-35569075D02*
G01*
X160459940Y-35574355D01*
X160482658Y-35582646D01*
X160503841Y-35594402D01*
X160518920Y-35606689D01*
X160529095Y-35619496D01*
X160535832Y-35634455D01*
X160540478Y-35655601D01*
X160542254Y-35684801D01*
X160542254Y-35807563D01*
X160543040Y-35828187D01*
X160544635Y-35836536D01*
X160548206Y-35842278D01*
X160554893Y-35847680D01*
X160563129Y-35851263D01*
X160572326Y-35852473D01*
X160582549Y-35851306D01*
X160597941Y-35847008D01*
X160597941Y-35913595D01*
X160569040Y-35920586D01*
X160542254Y-35922815D01*
X160512284Y-35920091D01*
X160488642Y-35912588D01*
X160468322Y-35899846D01*
X160451395Y-35881844D01*
X160417500Y-35901517D01*
X160389419Y-35913442D01*
X160361636Y-35920543D01*
X160335624Y-35922815D01*
X160304125Y-35919524D01*
X160278218Y-35910232D01*
X160256703Y-35895216D01*
X160239907Y-35875202D01*
X160230032Y-35852794D01*
X160226661Y-35827133D01*
X160227902Y-35816692D01*
X160339715Y-35816692D01*
X160342264Y-35829129D01*
X160349943Y-35839406D01*
X160361571Y-35846133D01*
X160377634Y-35848565D01*
X160389205Y-35847252D01*
X160403768Y-35842795D01*
X160437076Y-35825851D01*
X160437076Y-35766500D01*
X160395708Y-35773662D01*
X160373879Y-35779567D01*
X160357342Y-35787490D01*
X160347561Y-35796175D01*
X160341582Y-35806563D01*
X160339715Y-35816692D01*
X160227902Y-35816692D01*
X160229297Y-35804958D01*
X160237072Y-35784940D01*
X160249772Y-35767234D01*
X160268152Y-35751326D01*
X160292073Y-35738703D01*
X160332021Y-35725772D01*
X160377641Y-35716563D01*
X160437076Y-35709836D01*
X160437076Y-35684556D01*
X160435911Y-35663766D01*
X160433321Y-35653446D01*
X160428198Y-35645811D01*
X160419644Y-35639280D01*
X160408951Y-35635137D01*
X160395067Y-35633632D01*
X160384131Y-35634608D01*
X160374550Y-35637418D01*
X160366067Y-35641856D01*
X160359865Y-35647065D01*
X160354642Y-35654507D01*
X160347226Y-35669841D01*
X160336547Y-35688962D01*
X160325183Y-35700524D01*
X160311414Y-35707450D01*
X160294958Y-35709836D01*
X160274810Y-35706304D01*
X160259084Y-35696097D01*
X160248627Y-35680773D01*
X160245102Y-35662056D01*
X160248692Y-35640308D01*
X160259451Y-35621145D01*
X160273479Y-35606969D01*
X160292182Y-35594006D01*
X160316482Y-35582341D01*
X160342175Y-35574088D01*
X160370510Y-35568970D01*
X160401875Y-35567198D01*
X160433249Y-35569075D01*
G37*
G36*
X160868257Y-35575013D02*
G01*
X160913014Y-35575013D01*
X160940675Y-35670146D01*
X160876133Y-35696158D01*
X160855161Y-35669883D01*
X160829849Y-35650271D01*
X160810785Y-35640797D01*
X160792509Y-35635386D01*
X160774712Y-35633632D01*
X160757977Y-35635336D01*
X160747723Y-35639585D01*
X160740905Y-35646364D01*
X160738838Y-35653782D01*
X160740328Y-35660303D01*
X160745158Y-35666696D01*
X160753397Y-35672080D01*
X160771262Y-35679244D01*
X160865204Y-35712644D01*
X160889632Y-35722599D01*
X160913014Y-35734748D01*
X160933402Y-35749837D01*
X160947330Y-35767233D01*
X160955812Y-35787691D01*
X160958779Y-35812295D01*
X160956505Y-35834640D01*
X160949901Y-35854385D01*
X160938967Y-35872096D01*
X160923272Y-35888133D01*
X160901586Y-35903066D01*
X160877380Y-35913840D01*
X160850194Y-35920500D01*
X160819439Y-35922815D01*
X160784749Y-35919713D01*
X160754036Y-35910739D01*
X160726535Y-35896040D01*
X160716979Y-35915000D01*
X160671550Y-35915000D01*
X160629540Y-35805029D01*
X160694081Y-35778224D01*
X160711715Y-35801039D01*
X160731582Y-35820035D01*
X160753829Y-35835529D01*
X160778197Y-35847653D01*
X160799762Y-35854306D01*
X160819103Y-35856381D01*
X160836476Y-35854177D01*
X160850183Y-35847985D01*
X160857512Y-35840384D01*
X160859739Y-35832171D01*
X160857999Y-35824870D01*
X160852228Y-35817363D01*
X160842177Y-35810843D01*
X160819103Y-35801549D01*
X160745311Y-35775995D01*
X160705007Y-35759546D01*
X160678452Y-35744298D01*
X160662116Y-35730260D01*
X160649863Y-35712997D01*
X160642586Y-35693980D01*
X160640103Y-35672619D01*
X160642266Y-35652009D01*
X160648608Y-35633419D01*
X160659221Y-35616364D01*
X160674603Y-35600537D01*
X160695097Y-35586124D01*
X160717799Y-35575775D01*
X160743121Y-35569405D01*
X160771598Y-35567198D01*
X160805083Y-35569936D01*
X160834076Y-35577759D01*
X160859372Y-35590370D01*
X160868257Y-35575013D01*
G37*
G36*
X161162508Y-35412836D02*
G01*
X161162508Y-35604323D01*
X161195830Y-35586221D01*
X161222287Y-35575563D01*
X161248178Y-35569229D01*
X161272509Y-35567198D01*
X161303622Y-35570732D01*
X161330395Y-35580936D01*
X161352923Y-35596838D01*
X161367794Y-35615405D01*
X161376474Y-35638255D01*
X161379762Y-35670726D01*
X161379762Y-35812234D01*
X161381472Y-35837361D01*
X161385290Y-35842864D01*
X161391700Y-35846856D01*
X161415941Y-35848565D01*
X161432000Y-35848565D01*
X161432000Y-35915000D01*
X161231171Y-35915000D01*
X161231171Y-35848565D01*
X161241429Y-35848565D01*
X161254935Y-35847721D01*
X161261579Y-35845848D01*
X161266255Y-35842515D01*
X161269090Y-35838216D01*
X161271135Y-35814341D01*
X161271135Y-35697379D01*
X161270208Y-35676270D01*
X161268235Y-35666727D01*
X161264238Y-35659850D01*
X161257793Y-35654179D01*
X161249615Y-35650564D01*
X161239017Y-35649263D01*
X161222899Y-35650813D01*
X161205373Y-35655705D01*
X161187235Y-35664104D01*
X161162508Y-35679427D01*
X161162508Y-35814341D01*
X161164554Y-35838399D01*
X161167429Y-35842522D01*
X161172400Y-35845848D01*
X161179526Y-35847715D01*
X161194290Y-35848565D01*
X161201801Y-35848565D01*
X161201801Y-35915000D01*
X161003018Y-35915000D01*
X161003018Y-35848565D01*
X161022130Y-35848565D01*
X161043470Y-35846367D01*
X161050462Y-35838857D01*
X161052108Y-35832241D01*
X161052874Y-35817852D01*
X161052874Y-35508579D01*
X161003018Y-35508579D01*
X161003018Y-35442145D01*
X161032074Y-35438998D01*
X161066704Y-35432345D01*
X161101023Y-35423186D01*
X161130390Y-35412836D01*
X161162508Y-35412836D01*
G37*
G36*
X161581263Y-35418698D02*
G01*
X161597832Y-35420724D01*
X161612398Y-35426650D01*
X161625471Y-35436650D01*
X161635685Y-35449548D01*
X161641706Y-35463861D01*
X161643758Y-35480095D01*
X161641698Y-35496530D01*
X161635669Y-35510940D01*
X161625471Y-35523845D01*
X161612398Y-35533844D01*
X161597832Y-35539770D01*
X161581263Y-35541796D01*
X161564693Y-35539771D01*
X161550115Y-35533845D01*
X161537024Y-35523845D01*
X161526828Y-35510948D01*
X161520816Y-35496636D01*
X161518767Y-35480400D01*
X161520848Y-35464429D01*
X161527002Y-35450119D01*
X161537543Y-35436986D01*
X161550941Y-35426712D01*
X161565364Y-35420718D01*
X161581263Y-35418698D01*
G37*
G36*
X161636584Y-35567198D02*
G01*
X161636584Y-35818005D01*
X161638629Y-35840078D01*
X161645956Y-35846367D01*
X161669740Y-35848565D01*
X161688180Y-35848565D01*
X161688180Y-35915000D01*
X161477093Y-35915000D01*
X161477093Y-35848565D01*
X161495198Y-35848565D01*
X161517912Y-35846734D01*
X161525239Y-35840505D01*
X161526887Y-35835022D01*
X161527651Y-35823042D01*
X161527651Y-35662941D01*
X161477093Y-35662941D01*
X161477093Y-35596507D01*
X161528842Y-35590859D01*
X161573050Y-35580509D01*
X161604130Y-35567198D01*
X161636584Y-35567198D01*
G37*
G36*
X161959534Y-35575013D02*
G01*
X162004291Y-35575013D01*
X162031952Y-35670146D01*
X161967411Y-35696158D01*
X161946438Y-35669883D01*
X161921127Y-35650271D01*
X161902062Y-35640797D01*
X161883786Y-35635386D01*
X161865989Y-35633632D01*
X161849254Y-35635336D01*
X161839000Y-35639585D01*
X161832182Y-35646364D01*
X161830116Y-35653782D01*
X161831605Y-35660303D01*
X161836435Y-35666696D01*
X161844674Y-35672080D01*
X161862539Y-35679244D01*
X161956481Y-35712644D01*
X161980909Y-35722599D01*
X162004291Y-35734748D01*
X162024679Y-35749837D01*
X162038607Y-35767233D01*
X162047089Y-35787691D01*
X162050056Y-35812295D01*
X162047782Y-35834640D01*
X162041178Y-35854385D01*
X162030244Y-35872096D01*
X162014549Y-35888133D01*
X161992863Y-35903066D01*
X161968657Y-35913840D01*
X161941471Y-35920500D01*
X161910716Y-35922815D01*
X161876026Y-35919713D01*
X161845313Y-35910739D01*
X161817812Y-35896040D01*
X161808256Y-35915000D01*
X161762827Y-35915000D01*
X161720817Y-35805029D01*
X161785358Y-35778224D01*
X161802992Y-35801039D01*
X161822859Y-35820035D01*
X161845106Y-35835529D01*
X161869474Y-35847653D01*
X161891039Y-35854306D01*
X161910380Y-35856381D01*
X161927753Y-35854177D01*
X161941460Y-35847985D01*
X161948789Y-35840384D01*
X161951016Y-35832171D01*
X161949276Y-35824870D01*
X161943505Y-35817363D01*
X161933454Y-35810843D01*
X161910380Y-35801549D01*
X161836588Y-35775995D01*
X161796284Y-35759546D01*
X161769729Y-35744298D01*
X161753393Y-35730260D01*
X161741140Y-35712997D01*
X161733863Y-35693980D01*
X161731380Y-35672619D01*
X161733543Y-35652009D01*
X161739885Y-35633419D01*
X161750498Y-35616364D01*
X161765880Y-35600537D01*
X161786375Y-35586124D01*
X161809076Y-35575775D01*
X161834398Y-35569405D01*
X161862875Y-35567198D01*
X161896360Y-35569936D01*
X161925353Y-35577759D01*
X161950649Y-35590370D01*
X161959534Y-35575013D01*
G37*
G36*
X162245267Y-35457777D02*
G01*
X162245267Y-35575013D01*
X162355238Y-35575013D01*
X162355238Y-35647309D01*
X162245267Y-35647309D01*
X162245267Y-35768057D01*
X162246675Y-35805396D01*
X162249542Y-35820630D01*
X162255561Y-35830985D01*
X162265417Y-35839193D01*
X162281678Y-35846166D01*
X162300588Y-35848565D01*
X162323389Y-35846117D01*
X162346575Y-35838573D01*
X162370594Y-35825332D01*
X162370594Y-35897780D01*
X162341291Y-35909933D01*
X162316800Y-35917228D01*
X162292140Y-35921375D01*
X162264715Y-35922815D01*
X162234040Y-35920690D01*
X162208539Y-35914755D01*
X162185602Y-35904777D01*
X162166865Y-35891705D01*
X162151914Y-35875779D01*
X162142960Y-35859862D01*
X162138228Y-35841046D01*
X162136304Y-35811044D01*
X162136304Y-35647309D01*
X162085075Y-35647309D01*
X162085075Y-35580875D01*
X162110778Y-35569994D01*
X162131847Y-35555688D01*
X162149374Y-35537679D01*
X162163110Y-35516304D01*
X162172714Y-35491403D01*
X162179352Y-35457777D01*
X162245267Y-35457777D01*
G37*
D11*
X125304510Y-37800828D02*
X125304510Y-36300828D01*
X125304510Y-36300828D02*
X125804510Y-37372257D01*
X125804510Y-37372257D02*
X126304510Y-36300828D01*
X126304510Y-36300828D02*
X126304510Y-37800828D01*
X127875939Y-37657971D02*
X127804511Y-37729400D01*
X127804511Y-37729400D02*
X127590225Y-37800828D01*
X127590225Y-37800828D02*
X127447368Y-37800828D01*
X127447368Y-37800828D02*
X127233082Y-37729400D01*
X127233082Y-37729400D02*
X127090225Y-37586542D01*
X127090225Y-37586542D02*
X127018796Y-37443685D01*
X127018796Y-37443685D02*
X126947368Y-37157971D01*
X126947368Y-37157971D02*
X126947368Y-36943685D01*
X126947368Y-36943685D02*
X127018796Y-36657971D01*
X127018796Y-36657971D02*
X127090225Y-36515114D01*
X127090225Y-36515114D02*
X127233082Y-36372257D01*
X127233082Y-36372257D02*
X127447368Y-36300828D01*
X127447368Y-36300828D02*
X127590225Y-36300828D01*
X127590225Y-36300828D02*
X127804511Y-36372257D01*
X127804511Y-36372257D02*
X127875939Y-36443685D01*
X128518796Y-36300828D02*
X128518796Y-37515114D01*
X128518796Y-37515114D02*
X128590225Y-37657971D01*
X128590225Y-37657971D02*
X128661654Y-37729400D01*
X128661654Y-37729400D02*
X128804511Y-37800828D01*
X128804511Y-37800828D02*
X129090225Y-37800828D01*
X129090225Y-37800828D02*
X129233082Y-37729400D01*
X129233082Y-37729400D02*
X129304511Y-37657971D01*
X129304511Y-37657971D02*
X129375939Y-37515114D01*
X129375939Y-37515114D02*
X129375939Y-36300828D01*
D12*
X168761905Y-34454819D02*
X168761905Y-33454819D01*
X168761905Y-33454819D02*
X169000000Y-33454819D01*
X169000000Y-33454819D02*
X169142857Y-33502438D01*
X169142857Y-33502438D02*
X169238095Y-33597676D01*
X169238095Y-33597676D02*
X169285714Y-33692914D01*
X169285714Y-33692914D02*
X169333333Y-33883390D01*
X169333333Y-33883390D02*
X169333333Y-34026247D01*
X169333333Y-34026247D02*
X169285714Y-34216723D01*
X169285714Y-34216723D02*
X169238095Y-34311961D01*
X169238095Y-34311961D02*
X169142857Y-34407200D01*
X169142857Y-34407200D02*
X169000000Y-34454819D01*
X169000000Y-34454819D02*
X168761905Y-34454819D01*
X170285714Y-34454819D02*
X169714286Y-34454819D01*
X170000000Y-34454819D02*
X170000000Y-33454819D01*
X170000000Y-33454819D02*
X169904762Y-33597676D01*
X169904762Y-33597676D02*
X169809524Y-33692914D01*
X169809524Y-33692914D02*
X169714286Y-33740533D01*
D11*
X125054510Y-54050828D02*
X125054510Y-52550828D01*
X125054510Y-52550828D02*
X125625939Y-52550828D01*
X125625939Y-52550828D02*
X125768796Y-52622257D01*
X125768796Y-52622257D02*
X125840225Y-52693685D01*
X125840225Y-52693685D02*
X125911653Y-52836542D01*
X125911653Y-52836542D02*
X125911653Y-53050828D01*
X125911653Y-53050828D02*
X125840225Y-53193685D01*
X125840225Y-53193685D02*
X125768796Y-53265114D01*
X125768796Y-53265114D02*
X125625939Y-53336542D01*
X125625939Y-53336542D02*
X125054510Y-53336542D01*
X126411653Y-52550828D02*
X126768796Y-54050828D01*
X126768796Y-54050828D02*
X127054510Y-52979400D01*
X127054510Y-52979400D02*
X127340225Y-54050828D01*
X127340225Y-54050828D02*
X127697368Y-52550828D01*
X129125939Y-54050828D02*
X128625939Y-53336542D01*
X128268796Y-54050828D02*
X128268796Y-52550828D01*
X128268796Y-52550828D02*
X128840225Y-52550828D01*
X128840225Y-52550828D02*
X128983082Y-52622257D01*
X128983082Y-52622257D02*
X129054511Y-52693685D01*
X129054511Y-52693685D02*
X129125939Y-52836542D01*
X129125939Y-52836542D02*
X129125939Y-53050828D01*
X129125939Y-53050828D02*
X129054511Y-53193685D01*
X129054511Y-53193685D02*
X128983082Y-53265114D01*
X128983082Y-53265114D02*
X128840225Y-53336542D01*
X128840225Y-53336542D02*
X128268796Y-53336542D01*
D12*
X168761905Y-42454819D02*
X168761905Y-41454819D01*
X168761905Y-41454819D02*
X169000000Y-41454819D01*
X169000000Y-41454819D02*
X169142857Y-41502438D01*
X169142857Y-41502438D02*
X169238095Y-41597676D01*
X169238095Y-41597676D02*
X169285714Y-41692914D01*
X169285714Y-41692914D02*
X169333333Y-41883390D01*
X169333333Y-41883390D02*
X169333333Y-42026247D01*
X169333333Y-42026247D02*
X169285714Y-42216723D01*
X169285714Y-42216723D02*
X169238095Y-42311961D01*
X169238095Y-42311961D02*
X169142857Y-42407200D01*
X169142857Y-42407200D02*
X169000000Y-42454819D01*
X169000000Y-42454819D02*
X168761905Y-42454819D01*
X169714286Y-41550057D02*
X169761905Y-41502438D01*
X169761905Y-41502438D02*
X169857143Y-41454819D01*
X169857143Y-41454819D02*
X170095238Y-41454819D01*
X170095238Y-41454819D02*
X170190476Y-41502438D01*
X170190476Y-41502438D02*
X170238095Y-41550057D01*
X170238095Y-41550057D02*
X170285714Y-41645295D01*
X170285714Y-41645295D02*
X170285714Y-41740533D01*
X170285714Y-41740533D02*
X170238095Y-41883390D01*
X170238095Y-41883390D02*
X169666667Y-42454819D01*
X169666667Y-42454819D02*
X170285714Y-42454819D01*
X176916666Y-80704819D02*
X176916666Y-81419104D01*
X176916666Y-81419104D02*
X176869047Y-81561961D01*
X176869047Y-81561961D02*
X176773809Y-81657200D01*
X176773809Y-81657200D02*
X176630952Y-81704819D01*
X176630952Y-81704819D02*
X176535714Y-81704819D01*
X177869047Y-80704819D02*
X177392857Y-80704819D01*
X177392857Y-80704819D02*
X177345238Y-81181009D01*
X177345238Y-81181009D02*
X177392857Y-81133390D01*
X177392857Y-81133390D02*
X177488095Y-81085771D01*
X177488095Y-81085771D02*
X177726190Y-81085771D01*
X177726190Y-81085771D02*
X177821428Y-81133390D01*
X177821428Y-81133390D02*
X177869047Y-81181009D01*
X177869047Y-81181009D02*
X177916666Y-81276247D01*
X177916666Y-81276247D02*
X177916666Y-81514342D01*
X177916666Y-81514342D02*
X177869047Y-81609580D01*
X177869047Y-81609580D02*
X177821428Y-81657200D01*
X177821428Y-81657200D02*
X177726190Y-81704819D01*
X177726190Y-81704819D02*
X177488095Y-81704819D01*
X177488095Y-81704819D02*
X177392857Y-81657200D01*
X177392857Y-81657200D02*
X177345238Y-81609580D01*
X126456666Y-32954819D02*
X126456666Y-33669104D01*
X126456666Y-33669104D02*
X126409047Y-33811961D01*
X126409047Y-33811961D02*
X126313809Y-33907200D01*
X126313809Y-33907200D02*
X126170952Y-33954819D01*
X126170952Y-33954819D02*
X126075714Y-33954819D01*
X126837619Y-32954819D02*
X127504285Y-32954819D01*
X127504285Y-32954819D02*
X127075714Y-33954819D01*
X134261666Y-80179819D02*
X134261666Y-80894104D01*
X134261666Y-80894104D02*
X134214047Y-81036961D01*
X134214047Y-81036961D02*
X134118809Y-81132200D01*
X134118809Y-81132200D02*
X133975952Y-81179819D01*
X133975952Y-81179819D02*
X133880714Y-81179819D01*
X134690238Y-80275057D02*
X134737857Y-80227438D01*
X134737857Y-80227438D02*
X134833095Y-80179819D01*
X134833095Y-80179819D02*
X135071190Y-80179819D01*
X135071190Y-80179819D02*
X135166428Y-80227438D01*
X135166428Y-80227438D02*
X135214047Y-80275057D01*
X135214047Y-80275057D02*
X135261666Y-80370295D01*
X135261666Y-80370295D02*
X135261666Y-80465533D01*
X135261666Y-80465533D02*
X135214047Y-80608390D01*
X135214047Y-80608390D02*
X134642619Y-81179819D01*
X134642619Y-81179819D02*
X135261666Y-81179819D01*
X149646594Y-48814819D02*
X149646594Y-49624342D01*
X149646594Y-49624342D02*
X149694213Y-49719580D01*
X149694213Y-49719580D02*
X149741832Y-49767200D01*
X149741832Y-49767200D02*
X149837070Y-49814819D01*
X149837070Y-49814819D02*
X150027546Y-49814819D01*
X150027546Y-49814819D02*
X150122784Y-49767200D01*
X150122784Y-49767200D02*
X150170403Y-49719580D01*
X150170403Y-49719580D02*
X150218022Y-49624342D01*
X150218022Y-49624342D02*
X150218022Y-48814819D01*
X150598975Y-48814819D02*
X151218022Y-48814819D01*
X151218022Y-48814819D02*
X150884689Y-49195771D01*
X150884689Y-49195771D02*
X151027546Y-49195771D01*
X151027546Y-49195771D02*
X151122784Y-49243390D01*
X151122784Y-49243390D02*
X151170403Y-49291009D01*
X151170403Y-49291009D02*
X151218022Y-49386247D01*
X151218022Y-49386247D02*
X151218022Y-49624342D01*
X151218022Y-49624342D02*
X151170403Y-49719580D01*
X151170403Y-49719580D02*
X151122784Y-49767200D01*
X151122784Y-49767200D02*
X151027546Y-49814819D01*
X151027546Y-49814819D02*
X150741832Y-49814819D01*
X150741832Y-49814819D02*
X150646594Y-49767200D01*
X150646594Y-49767200D02*
X150598975Y-49719580D01*
X134160683Y-68609580D02*
X134113064Y-68657200D01*
X134113064Y-68657200D02*
X133970207Y-68704819D01*
X133970207Y-68704819D02*
X133874969Y-68704819D01*
X133874969Y-68704819D02*
X133732112Y-68657200D01*
X133732112Y-68657200D02*
X133636874Y-68561961D01*
X133636874Y-68561961D02*
X133589255Y-68466723D01*
X133589255Y-68466723D02*
X133541636Y-68276247D01*
X133541636Y-68276247D02*
X133541636Y-68133390D01*
X133541636Y-68133390D02*
X133589255Y-67942914D01*
X133589255Y-67942914D02*
X133636874Y-67847676D01*
X133636874Y-67847676D02*
X133732112Y-67752438D01*
X133732112Y-67752438D02*
X133874969Y-67704819D01*
X133874969Y-67704819D02*
X133970207Y-67704819D01*
X133970207Y-67704819D02*
X134113064Y-67752438D01*
X134113064Y-67752438D02*
X134160683Y-67800057D01*
X134732112Y-68133390D02*
X134636874Y-68085771D01*
X134636874Y-68085771D02*
X134589255Y-68038152D01*
X134589255Y-68038152D02*
X134541636Y-67942914D01*
X134541636Y-67942914D02*
X134541636Y-67895295D01*
X134541636Y-67895295D02*
X134589255Y-67800057D01*
X134589255Y-67800057D02*
X134636874Y-67752438D01*
X134636874Y-67752438D02*
X134732112Y-67704819D01*
X134732112Y-67704819D02*
X134922588Y-67704819D01*
X134922588Y-67704819D02*
X135017826Y-67752438D01*
X135017826Y-67752438D02*
X135065445Y-67800057D01*
X135065445Y-67800057D02*
X135113064Y-67895295D01*
X135113064Y-67895295D02*
X135113064Y-67942914D01*
X135113064Y-67942914D02*
X135065445Y-68038152D01*
X135065445Y-68038152D02*
X135017826Y-68085771D01*
X135017826Y-68085771D02*
X134922588Y-68133390D01*
X134922588Y-68133390D02*
X134732112Y-68133390D01*
X134732112Y-68133390D02*
X134636874Y-68181009D01*
X134636874Y-68181009D02*
X134589255Y-68228628D01*
X134589255Y-68228628D02*
X134541636Y-68323866D01*
X134541636Y-68323866D02*
X134541636Y-68514342D01*
X134541636Y-68514342D02*
X134589255Y-68609580D01*
X134589255Y-68609580D02*
X134636874Y-68657200D01*
X134636874Y-68657200D02*
X134732112Y-68704819D01*
X134732112Y-68704819D02*
X134922588Y-68704819D01*
X134922588Y-68704819D02*
X135017826Y-68657200D01*
X135017826Y-68657200D02*
X135065445Y-68609580D01*
X135065445Y-68609580D02*
X135113064Y-68514342D01*
X135113064Y-68514342D02*
X135113064Y-68323866D01*
X135113064Y-68323866D02*
X135065445Y-68228628D01*
X135065445Y-68228628D02*
X135017826Y-68181009D01*
X135017826Y-68181009D02*
X134922588Y-68133390D01*
X149784594Y-30684819D02*
X149784594Y-31494342D01*
X149784594Y-31494342D02*
X149832213Y-31589580D01*
X149832213Y-31589580D02*
X149879832Y-31637200D01*
X149879832Y-31637200D02*
X149975070Y-31684819D01*
X149975070Y-31684819D02*
X150165546Y-31684819D01*
X150165546Y-31684819D02*
X150260784Y-31637200D01*
X150260784Y-31637200D02*
X150308403Y-31589580D01*
X150308403Y-31589580D02*
X150356022Y-31494342D01*
X150356022Y-31494342D02*
X150356022Y-30684819D01*
X151356022Y-31684819D02*
X150784594Y-31684819D01*
X151070308Y-31684819D02*
X151070308Y-30684819D01*
X151070308Y-30684819D02*
X150975070Y-30827676D01*
X150975070Y-30827676D02*
X150879832Y-30922914D01*
X150879832Y-30922914D02*
X150784594Y-30970533D01*
X141659133Y-81131781D02*
X141611514Y-81179401D01*
X141611514Y-81179401D02*
X141468657Y-81227020D01*
X141468657Y-81227020D02*
X141373419Y-81227020D01*
X141373419Y-81227020D02*
X141230562Y-81179401D01*
X141230562Y-81179401D02*
X141135324Y-81084162D01*
X141135324Y-81084162D02*
X141087705Y-80988924D01*
X141087705Y-80988924D02*
X141040086Y-80798448D01*
X141040086Y-80798448D02*
X141040086Y-80655591D01*
X141040086Y-80655591D02*
X141087705Y-80465115D01*
X141087705Y-80465115D02*
X141135324Y-80369877D01*
X141135324Y-80369877D02*
X141230562Y-80274639D01*
X141230562Y-80274639D02*
X141373419Y-80227020D01*
X141373419Y-80227020D02*
X141468657Y-80227020D01*
X141468657Y-80227020D02*
X141611514Y-80274639D01*
X141611514Y-80274639D02*
X141659133Y-80322258D01*
X141992467Y-80227020D02*
X142611514Y-80227020D01*
X142611514Y-80227020D02*
X142278181Y-80607972D01*
X142278181Y-80607972D02*
X142421038Y-80607972D01*
X142421038Y-80607972D02*
X142516276Y-80655591D01*
X142516276Y-80655591D02*
X142563895Y-80703210D01*
X142563895Y-80703210D02*
X142611514Y-80798448D01*
X142611514Y-80798448D02*
X142611514Y-81036543D01*
X142611514Y-81036543D02*
X142563895Y-81131781D01*
X142563895Y-81131781D02*
X142516276Y-81179401D01*
X142516276Y-81179401D02*
X142421038Y-81227020D01*
X142421038Y-81227020D02*
X142135324Y-81227020D01*
X142135324Y-81227020D02*
X142040086Y-81179401D01*
X142040086Y-81179401D02*
X141992467Y-81131781D01*
X162333333Y-68859580D02*
X162285714Y-68907200D01*
X162285714Y-68907200D02*
X162142857Y-68954819D01*
X162142857Y-68954819D02*
X162047619Y-68954819D01*
X162047619Y-68954819D02*
X161904762Y-68907200D01*
X161904762Y-68907200D02*
X161809524Y-68811961D01*
X161809524Y-68811961D02*
X161761905Y-68716723D01*
X161761905Y-68716723D02*
X161714286Y-68526247D01*
X161714286Y-68526247D02*
X161714286Y-68383390D01*
X161714286Y-68383390D02*
X161761905Y-68192914D01*
X161761905Y-68192914D02*
X161809524Y-68097676D01*
X161809524Y-68097676D02*
X161904762Y-68002438D01*
X161904762Y-68002438D02*
X162047619Y-67954819D01*
X162047619Y-67954819D02*
X162142857Y-67954819D01*
X162142857Y-67954819D02*
X162285714Y-68002438D01*
X162285714Y-68002438D02*
X162333333Y-68050057D01*
X163190476Y-67954819D02*
X163000000Y-67954819D01*
X163000000Y-67954819D02*
X162904762Y-68002438D01*
X162904762Y-68002438D02*
X162857143Y-68050057D01*
X162857143Y-68050057D02*
X162761905Y-68192914D01*
X162761905Y-68192914D02*
X162714286Y-68383390D01*
X162714286Y-68383390D02*
X162714286Y-68764342D01*
X162714286Y-68764342D02*
X162761905Y-68859580D01*
X162761905Y-68859580D02*
X162809524Y-68907200D01*
X162809524Y-68907200D02*
X162904762Y-68954819D01*
X162904762Y-68954819D02*
X163095238Y-68954819D01*
X163095238Y-68954819D02*
X163190476Y-68907200D01*
X163190476Y-68907200D02*
X163238095Y-68859580D01*
X163238095Y-68859580D02*
X163285714Y-68764342D01*
X163285714Y-68764342D02*
X163285714Y-68526247D01*
X163285714Y-68526247D02*
X163238095Y-68431009D01*
X163238095Y-68431009D02*
X163190476Y-68383390D01*
X163190476Y-68383390D02*
X163095238Y-68335771D01*
X163095238Y-68335771D02*
X162904762Y-68335771D01*
X162904762Y-68335771D02*
X162809524Y-68383390D01*
X162809524Y-68383390D02*
X162761905Y-68431009D01*
X162761905Y-68431009D02*
X162714286Y-68526247D01*
X138328749Y-62329819D02*
X137995416Y-61853628D01*
X137757321Y-62329819D02*
X137757321Y-61329819D01*
X137757321Y-61329819D02*
X138138273Y-61329819D01*
X138138273Y-61329819D02*
X138233511Y-61377438D01*
X138233511Y-61377438D02*
X138281130Y-61425057D01*
X138281130Y-61425057D02*
X138328749Y-61520295D01*
X138328749Y-61520295D02*
X138328749Y-61663152D01*
X138328749Y-61663152D02*
X138281130Y-61758390D01*
X138281130Y-61758390D02*
X138233511Y-61806009D01*
X138233511Y-61806009D02*
X138138273Y-61853628D01*
X138138273Y-61853628D02*
X137757321Y-61853628D01*
X138900178Y-61758390D02*
X138804940Y-61710771D01*
X138804940Y-61710771D02*
X138757321Y-61663152D01*
X138757321Y-61663152D02*
X138709702Y-61567914D01*
X138709702Y-61567914D02*
X138709702Y-61520295D01*
X138709702Y-61520295D02*
X138757321Y-61425057D01*
X138757321Y-61425057D02*
X138804940Y-61377438D01*
X138804940Y-61377438D02*
X138900178Y-61329819D01*
X138900178Y-61329819D02*
X139090654Y-61329819D01*
X139090654Y-61329819D02*
X139185892Y-61377438D01*
X139185892Y-61377438D02*
X139233511Y-61425057D01*
X139233511Y-61425057D02*
X139281130Y-61520295D01*
X139281130Y-61520295D02*
X139281130Y-61567914D01*
X139281130Y-61567914D02*
X139233511Y-61663152D01*
X139233511Y-61663152D02*
X139185892Y-61710771D01*
X139185892Y-61710771D02*
X139090654Y-61758390D01*
X139090654Y-61758390D02*
X138900178Y-61758390D01*
X138900178Y-61758390D02*
X138804940Y-61806009D01*
X138804940Y-61806009D02*
X138757321Y-61853628D01*
X138757321Y-61853628D02*
X138709702Y-61948866D01*
X138709702Y-61948866D02*
X138709702Y-62139342D01*
X138709702Y-62139342D02*
X138757321Y-62234580D01*
X138757321Y-62234580D02*
X138804940Y-62282200D01*
X138804940Y-62282200D02*
X138900178Y-62329819D01*
X138900178Y-62329819D02*
X139090654Y-62329819D01*
X139090654Y-62329819D02*
X139185892Y-62282200D01*
X139185892Y-62282200D02*
X139233511Y-62234580D01*
X139233511Y-62234580D02*
X139281130Y-62139342D01*
X139281130Y-62139342D02*
X139281130Y-61948866D01*
X139281130Y-61948866D02*
X139233511Y-61853628D01*
X139233511Y-61853628D02*
X139185892Y-61806009D01*
X139185892Y-61806009D02*
X139090654Y-61758390D01*
X138328749Y-47579819D02*
X137995416Y-47103628D01*
X137757321Y-47579819D02*
X137757321Y-46579819D01*
X137757321Y-46579819D02*
X138138273Y-46579819D01*
X138138273Y-46579819D02*
X138233511Y-46627438D01*
X138233511Y-46627438D02*
X138281130Y-46675057D01*
X138281130Y-46675057D02*
X138328749Y-46770295D01*
X138328749Y-46770295D02*
X138328749Y-46913152D01*
X138328749Y-46913152D02*
X138281130Y-47008390D01*
X138281130Y-47008390D02*
X138233511Y-47056009D01*
X138233511Y-47056009D02*
X138138273Y-47103628D01*
X138138273Y-47103628D02*
X137757321Y-47103628D01*
X139185892Y-46913152D02*
X139185892Y-47579819D01*
X138947797Y-46532200D02*
X138709702Y-47246485D01*
X138709702Y-47246485D02*
X139328749Y-47246485D01*
X148083333Y-68859580D02*
X148035714Y-68907200D01*
X148035714Y-68907200D02*
X147892857Y-68954819D01*
X147892857Y-68954819D02*
X147797619Y-68954819D01*
X147797619Y-68954819D02*
X147654762Y-68907200D01*
X147654762Y-68907200D02*
X147559524Y-68811961D01*
X147559524Y-68811961D02*
X147511905Y-68716723D01*
X147511905Y-68716723D02*
X147464286Y-68526247D01*
X147464286Y-68526247D02*
X147464286Y-68383390D01*
X147464286Y-68383390D02*
X147511905Y-68192914D01*
X147511905Y-68192914D02*
X147559524Y-68097676D01*
X147559524Y-68097676D02*
X147654762Y-68002438D01*
X147654762Y-68002438D02*
X147797619Y-67954819D01*
X147797619Y-67954819D02*
X147892857Y-67954819D01*
X147892857Y-67954819D02*
X148035714Y-68002438D01*
X148035714Y-68002438D02*
X148083333Y-68050057D01*
X148940476Y-68288152D02*
X148940476Y-68954819D01*
X148702381Y-67907200D02*
X148464286Y-68621485D01*
X148464286Y-68621485D02*
X149083333Y-68621485D01*
X171083333Y-81609580D02*
X171035714Y-81657200D01*
X171035714Y-81657200D02*
X170892857Y-81704819D01*
X170892857Y-81704819D02*
X170797619Y-81704819D01*
X170797619Y-81704819D02*
X170654762Y-81657200D01*
X170654762Y-81657200D02*
X170559524Y-81561961D01*
X170559524Y-81561961D02*
X170511905Y-81466723D01*
X170511905Y-81466723D02*
X170464286Y-81276247D01*
X170464286Y-81276247D02*
X170464286Y-81133390D01*
X170464286Y-81133390D02*
X170511905Y-80942914D01*
X170511905Y-80942914D02*
X170559524Y-80847676D01*
X170559524Y-80847676D02*
X170654762Y-80752438D01*
X170654762Y-80752438D02*
X170797619Y-80704819D01*
X170797619Y-80704819D02*
X170892857Y-80704819D01*
X170892857Y-80704819D02*
X171035714Y-80752438D01*
X171035714Y-80752438D02*
X171083333Y-80800057D01*
X172035714Y-81704819D02*
X171464286Y-81704819D01*
X171750000Y-81704819D02*
X171750000Y-80704819D01*
X171750000Y-80704819D02*
X171654762Y-80847676D01*
X171654762Y-80847676D02*
X171559524Y-80942914D01*
X171559524Y-80942914D02*
X171464286Y-80990533D01*
X132916666Y-42704819D02*
X132916666Y-43419104D01*
X132916666Y-43419104D02*
X132869047Y-43561961D01*
X132869047Y-43561961D02*
X132773809Y-43657200D01*
X132773809Y-43657200D02*
X132630952Y-43704819D01*
X132630952Y-43704819D02*
X132535714Y-43704819D01*
X133821428Y-42704819D02*
X133630952Y-42704819D01*
X133630952Y-42704819D02*
X133535714Y-42752438D01*
X133535714Y-42752438D02*
X133488095Y-42800057D01*
X133488095Y-42800057D02*
X133392857Y-42942914D01*
X133392857Y-42942914D02*
X133345238Y-43133390D01*
X133345238Y-43133390D02*
X133345238Y-43514342D01*
X133345238Y-43514342D02*
X133392857Y-43609580D01*
X133392857Y-43609580D02*
X133440476Y-43657200D01*
X133440476Y-43657200D02*
X133535714Y-43704819D01*
X133535714Y-43704819D02*
X133726190Y-43704819D01*
X133726190Y-43704819D02*
X133821428Y-43657200D01*
X133821428Y-43657200D02*
X133869047Y-43609580D01*
X133869047Y-43609580D02*
X133916666Y-43514342D01*
X133916666Y-43514342D02*
X133916666Y-43276247D01*
X133916666Y-43276247D02*
X133869047Y-43181009D01*
X133869047Y-43181009D02*
X133821428Y-43133390D01*
X133821428Y-43133390D02*
X133726190Y-43085771D01*
X133726190Y-43085771D02*
X133535714Y-43085771D01*
X133535714Y-43085771D02*
X133440476Y-43133390D01*
X133440476Y-43133390D02*
X133392857Y-43181009D01*
X133392857Y-43181009D02*
X133345238Y-43276247D01*
X149582095Y-58329819D02*
X149582095Y-59139342D01*
X149582095Y-59139342D02*
X149629714Y-59234580D01*
X149629714Y-59234580D02*
X149677333Y-59282200D01*
X149677333Y-59282200D02*
X149772571Y-59329819D01*
X149772571Y-59329819D02*
X149963047Y-59329819D01*
X149963047Y-59329819D02*
X150058285Y-59282200D01*
X150058285Y-59282200D02*
X150105904Y-59234580D01*
X150105904Y-59234580D02*
X150153523Y-59139342D01*
X150153523Y-59139342D02*
X150153523Y-58329819D01*
X151058285Y-58663152D02*
X151058285Y-59329819D01*
X150820190Y-58282200D02*
X150582095Y-58996485D01*
X150582095Y-58996485D02*
X151201142Y-58996485D01*
X138328749Y-58829819D02*
X137995416Y-58353628D01*
X137757321Y-58829819D02*
X137757321Y-57829819D01*
X137757321Y-57829819D02*
X138138273Y-57829819D01*
X138138273Y-57829819D02*
X138233511Y-57877438D01*
X138233511Y-57877438D02*
X138281130Y-57925057D01*
X138281130Y-57925057D02*
X138328749Y-58020295D01*
X138328749Y-58020295D02*
X138328749Y-58163152D01*
X138328749Y-58163152D02*
X138281130Y-58258390D01*
X138281130Y-58258390D02*
X138233511Y-58306009D01*
X138233511Y-58306009D02*
X138138273Y-58353628D01*
X138138273Y-58353628D02*
X137757321Y-58353628D01*
X138662083Y-57829819D02*
X139328749Y-57829819D01*
X139328749Y-57829819D02*
X138900178Y-58829819D01*
X168761905Y-59204819D02*
X168761905Y-58204819D01*
X168761905Y-58204819D02*
X169000000Y-58204819D01*
X169000000Y-58204819D02*
X169142857Y-58252438D01*
X169142857Y-58252438D02*
X169238095Y-58347676D01*
X169238095Y-58347676D02*
X169285714Y-58442914D01*
X169285714Y-58442914D02*
X169333333Y-58633390D01*
X169333333Y-58633390D02*
X169333333Y-58776247D01*
X169333333Y-58776247D02*
X169285714Y-58966723D01*
X169285714Y-58966723D02*
X169238095Y-59061961D01*
X169238095Y-59061961D02*
X169142857Y-59157200D01*
X169142857Y-59157200D02*
X169000000Y-59204819D01*
X169000000Y-59204819D02*
X168761905Y-59204819D01*
X170190476Y-58538152D02*
X170190476Y-59204819D01*
X169952381Y-58157200D02*
X169714286Y-58871485D01*
X169714286Y-58871485D02*
X170333333Y-58871485D01*
X138328749Y-55079819D02*
X137995416Y-54603628D01*
X137757321Y-55079819D02*
X137757321Y-54079819D01*
X137757321Y-54079819D02*
X138138273Y-54079819D01*
X138138273Y-54079819D02*
X138233511Y-54127438D01*
X138233511Y-54127438D02*
X138281130Y-54175057D01*
X138281130Y-54175057D02*
X138328749Y-54270295D01*
X138328749Y-54270295D02*
X138328749Y-54413152D01*
X138328749Y-54413152D02*
X138281130Y-54508390D01*
X138281130Y-54508390D02*
X138233511Y-54556009D01*
X138233511Y-54556009D02*
X138138273Y-54603628D01*
X138138273Y-54603628D02*
X137757321Y-54603628D01*
X139185892Y-54079819D02*
X138995416Y-54079819D01*
X138995416Y-54079819D02*
X138900178Y-54127438D01*
X138900178Y-54127438D02*
X138852559Y-54175057D01*
X138852559Y-54175057D02*
X138757321Y-54317914D01*
X138757321Y-54317914D02*
X138709702Y-54508390D01*
X138709702Y-54508390D02*
X138709702Y-54889342D01*
X138709702Y-54889342D02*
X138757321Y-54984580D01*
X138757321Y-54984580D02*
X138804940Y-55032200D01*
X138804940Y-55032200D02*
X138900178Y-55079819D01*
X138900178Y-55079819D02*
X139090654Y-55079819D01*
X139090654Y-55079819D02*
X139185892Y-55032200D01*
X139185892Y-55032200D02*
X139233511Y-54984580D01*
X139233511Y-54984580D02*
X139281130Y-54889342D01*
X139281130Y-54889342D02*
X139281130Y-54651247D01*
X139281130Y-54651247D02*
X139233511Y-54556009D01*
X139233511Y-54556009D02*
X139185892Y-54508390D01*
X139185892Y-54508390D02*
X139090654Y-54460771D01*
X139090654Y-54460771D02*
X138900178Y-54460771D01*
X138900178Y-54460771D02*
X138804940Y-54508390D01*
X138804940Y-54508390D02*
X138757321Y-54556009D01*
X138757321Y-54556009D02*
X138709702Y-54651247D01*
X138328749Y-36829819D02*
X137995416Y-36353628D01*
X137757321Y-36829819D02*
X137757321Y-35829819D01*
X137757321Y-35829819D02*
X138138273Y-35829819D01*
X138138273Y-35829819D02*
X138233511Y-35877438D01*
X138233511Y-35877438D02*
X138281130Y-35925057D01*
X138281130Y-35925057D02*
X138328749Y-36020295D01*
X138328749Y-36020295D02*
X138328749Y-36163152D01*
X138328749Y-36163152D02*
X138281130Y-36258390D01*
X138281130Y-36258390D02*
X138233511Y-36306009D01*
X138233511Y-36306009D02*
X138138273Y-36353628D01*
X138138273Y-36353628D02*
X137757321Y-36353628D01*
X139281130Y-36829819D02*
X138709702Y-36829819D01*
X138995416Y-36829819D02*
X138995416Y-35829819D01*
X138995416Y-35829819D02*
X138900178Y-35972676D01*
X138900178Y-35972676D02*
X138804940Y-36067914D01*
X138804940Y-36067914D02*
X138709702Y-36115533D01*
X132916666Y-57579819D02*
X132916666Y-58294104D01*
X132916666Y-58294104D02*
X132869047Y-58436961D01*
X132869047Y-58436961D02*
X132773809Y-58532200D01*
X132773809Y-58532200D02*
X132630952Y-58579819D01*
X132630952Y-58579819D02*
X132535714Y-58579819D01*
X133916666Y-58579819D02*
X133345238Y-58579819D01*
X133630952Y-58579819D02*
X133630952Y-57579819D01*
X133630952Y-57579819D02*
X133535714Y-57722676D01*
X133535714Y-57722676D02*
X133440476Y-57817914D01*
X133440476Y-57817914D02*
X133345238Y-57865533D01*
X149740594Y-39799819D02*
X149740594Y-40609342D01*
X149740594Y-40609342D02*
X149788213Y-40704580D01*
X149788213Y-40704580D02*
X149835832Y-40752200D01*
X149835832Y-40752200D02*
X149931070Y-40799819D01*
X149931070Y-40799819D02*
X150121546Y-40799819D01*
X150121546Y-40799819D02*
X150216784Y-40752200D01*
X150216784Y-40752200D02*
X150264403Y-40704580D01*
X150264403Y-40704580D02*
X150312022Y-40609342D01*
X150312022Y-40609342D02*
X150312022Y-39799819D01*
X150740594Y-39895057D02*
X150788213Y-39847438D01*
X150788213Y-39847438D02*
X150883451Y-39799819D01*
X150883451Y-39799819D02*
X151121546Y-39799819D01*
X151121546Y-39799819D02*
X151216784Y-39847438D01*
X151216784Y-39847438D02*
X151264403Y-39895057D01*
X151264403Y-39895057D02*
X151312022Y-39990295D01*
X151312022Y-39990295D02*
X151312022Y-40085533D01*
X151312022Y-40085533D02*
X151264403Y-40228390D01*
X151264403Y-40228390D02*
X150692975Y-40799819D01*
X150692975Y-40799819D02*
X151312022Y-40799819D01*
X124916666Y-64534819D02*
X124916666Y-65249104D01*
X124916666Y-65249104D02*
X124869047Y-65391961D01*
X124869047Y-65391961D02*
X124773809Y-65487200D01*
X124773809Y-65487200D02*
X124630952Y-65534819D01*
X124630952Y-65534819D02*
X124535714Y-65534819D01*
X125535714Y-64963390D02*
X125440476Y-64915771D01*
X125440476Y-64915771D02*
X125392857Y-64868152D01*
X125392857Y-64868152D02*
X125345238Y-64772914D01*
X125345238Y-64772914D02*
X125345238Y-64725295D01*
X125345238Y-64725295D02*
X125392857Y-64630057D01*
X125392857Y-64630057D02*
X125440476Y-64582438D01*
X125440476Y-64582438D02*
X125535714Y-64534819D01*
X125535714Y-64534819D02*
X125726190Y-64534819D01*
X125726190Y-64534819D02*
X125821428Y-64582438D01*
X125821428Y-64582438D02*
X125869047Y-64630057D01*
X125869047Y-64630057D02*
X125916666Y-64725295D01*
X125916666Y-64725295D02*
X125916666Y-64772914D01*
X125916666Y-64772914D02*
X125869047Y-64868152D01*
X125869047Y-64868152D02*
X125821428Y-64915771D01*
X125821428Y-64915771D02*
X125726190Y-64963390D01*
X125726190Y-64963390D02*
X125535714Y-64963390D01*
X125535714Y-64963390D02*
X125440476Y-65011009D01*
X125440476Y-65011009D02*
X125392857Y-65058628D01*
X125392857Y-65058628D02*
X125345238Y-65153866D01*
X125345238Y-65153866D02*
X125345238Y-65344342D01*
X125345238Y-65344342D02*
X125392857Y-65439580D01*
X125392857Y-65439580D02*
X125440476Y-65487200D01*
X125440476Y-65487200D02*
X125535714Y-65534819D01*
X125535714Y-65534819D02*
X125726190Y-65534819D01*
X125726190Y-65534819D02*
X125821428Y-65487200D01*
X125821428Y-65487200D02*
X125869047Y-65439580D01*
X125869047Y-65439580D02*
X125916666Y-65344342D01*
X125916666Y-65344342D02*
X125916666Y-65153866D01*
X125916666Y-65153866D02*
X125869047Y-65058628D01*
X125869047Y-65058628D02*
X125821428Y-65011009D01*
X125821428Y-65011009D02*
X125726190Y-64963390D01*
X162071666Y-80429819D02*
X162071666Y-81144104D01*
X162071666Y-81144104D02*
X162024047Y-81286961D01*
X162024047Y-81286961D02*
X161928809Y-81382200D01*
X161928809Y-81382200D02*
X161785952Y-81429819D01*
X161785952Y-81429819D02*
X161690714Y-81429819D01*
X162976428Y-80763152D02*
X162976428Y-81429819D01*
X162738333Y-80382200D02*
X162500238Y-81096485D01*
X162500238Y-81096485D02*
X163119285Y-81096485D01*
X168511905Y-50954819D02*
X168511905Y-49954819D01*
X168511905Y-49954819D02*
X168750000Y-49954819D01*
X168750000Y-49954819D02*
X168892857Y-50002438D01*
X168892857Y-50002438D02*
X168988095Y-50097676D01*
X168988095Y-50097676D02*
X169035714Y-50192914D01*
X169035714Y-50192914D02*
X169083333Y-50383390D01*
X169083333Y-50383390D02*
X169083333Y-50526247D01*
X169083333Y-50526247D02*
X169035714Y-50716723D01*
X169035714Y-50716723D02*
X168988095Y-50811961D01*
X168988095Y-50811961D02*
X168892857Y-50907200D01*
X168892857Y-50907200D02*
X168750000Y-50954819D01*
X168750000Y-50954819D02*
X168511905Y-50954819D01*
X169416667Y-49954819D02*
X170035714Y-49954819D01*
X170035714Y-49954819D02*
X169702381Y-50335771D01*
X169702381Y-50335771D02*
X169845238Y-50335771D01*
X169845238Y-50335771D02*
X169940476Y-50383390D01*
X169940476Y-50383390D02*
X169988095Y-50431009D01*
X169988095Y-50431009D02*
X170035714Y-50526247D01*
X170035714Y-50526247D02*
X170035714Y-50764342D01*
X170035714Y-50764342D02*
X169988095Y-50859580D01*
X169988095Y-50859580D02*
X169940476Y-50907200D01*
X169940476Y-50907200D02*
X169845238Y-50954819D01*
X169845238Y-50954819D02*
X169559524Y-50954819D01*
X169559524Y-50954819D02*
X169464286Y-50907200D01*
X169464286Y-50907200D02*
X169416667Y-50859580D01*
X176110683Y-68859580D02*
X176063064Y-68907200D01*
X176063064Y-68907200D02*
X175920207Y-68954819D01*
X175920207Y-68954819D02*
X175824969Y-68954819D01*
X175824969Y-68954819D02*
X175682112Y-68907200D01*
X175682112Y-68907200D02*
X175586874Y-68811961D01*
X175586874Y-68811961D02*
X175539255Y-68716723D01*
X175539255Y-68716723D02*
X175491636Y-68526247D01*
X175491636Y-68526247D02*
X175491636Y-68383390D01*
X175491636Y-68383390D02*
X175539255Y-68192914D01*
X175539255Y-68192914D02*
X175586874Y-68097676D01*
X175586874Y-68097676D02*
X175682112Y-68002438D01*
X175682112Y-68002438D02*
X175824969Y-67954819D01*
X175824969Y-67954819D02*
X175920207Y-67954819D01*
X175920207Y-67954819D02*
X176063064Y-68002438D01*
X176063064Y-68002438D02*
X176110683Y-68050057D01*
X176491636Y-68050057D02*
X176539255Y-68002438D01*
X176539255Y-68002438D02*
X176634493Y-67954819D01*
X176634493Y-67954819D02*
X176872588Y-67954819D01*
X176872588Y-67954819D02*
X176967826Y-68002438D01*
X176967826Y-68002438D02*
X177015445Y-68050057D01*
X177015445Y-68050057D02*
X177063064Y-68145295D01*
X177063064Y-68145295D02*
X177063064Y-68240533D01*
X177063064Y-68240533D02*
X177015445Y-68383390D01*
X177015445Y-68383390D02*
X176444017Y-68954819D01*
X176444017Y-68954819D02*
X177063064Y-68954819D01*
X128333333Y-81609580D02*
X128285714Y-81657200D01*
X128285714Y-81657200D02*
X128142857Y-81704819D01*
X128142857Y-81704819D02*
X128047619Y-81704819D01*
X128047619Y-81704819D02*
X127904762Y-81657200D01*
X127904762Y-81657200D02*
X127809524Y-81561961D01*
X127809524Y-81561961D02*
X127761905Y-81466723D01*
X127761905Y-81466723D02*
X127714286Y-81276247D01*
X127714286Y-81276247D02*
X127714286Y-81133390D01*
X127714286Y-81133390D02*
X127761905Y-80942914D01*
X127761905Y-80942914D02*
X127809524Y-80847676D01*
X127809524Y-80847676D02*
X127904762Y-80752438D01*
X127904762Y-80752438D02*
X128047619Y-80704819D01*
X128047619Y-80704819D02*
X128142857Y-80704819D01*
X128142857Y-80704819D02*
X128285714Y-80752438D01*
X128285714Y-80752438D02*
X128333333Y-80800057D01*
X128666667Y-80704819D02*
X129333333Y-80704819D01*
X129333333Y-80704819D02*
X128904762Y-81704819D01*
X148311666Y-80429819D02*
X148311666Y-81144104D01*
X148311666Y-81144104D02*
X148264047Y-81286961D01*
X148264047Y-81286961D02*
X148168809Y-81382200D01*
X148168809Y-81382200D02*
X148025952Y-81429819D01*
X148025952Y-81429819D02*
X147930714Y-81429819D01*
X148692619Y-80429819D02*
X149311666Y-80429819D01*
X149311666Y-80429819D02*
X148978333Y-80810771D01*
X148978333Y-80810771D02*
X149121190Y-80810771D01*
X149121190Y-80810771D02*
X149216428Y-80858390D01*
X149216428Y-80858390D02*
X149264047Y-80906009D01*
X149264047Y-80906009D02*
X149311666Y-81001247D01*
X149311666Y-81001247D02*
X149311666Y-81239342D01*
X149311666Y-81239342D02*
X149264047Y-81334580D01*
X149264047Y-81334580D02*
X149216428Y-81382200D01*
X149216428Y-81382200D02*
X149121190Y-81429819D01*
X149121190Y-81429819D02*
X148835476Y-81429819D01*
X148835476Y-81429819D02*
X148740238Y-81382200D01*
X148740238Y-81382200D02*
X148692619Y-81334580D01*
X138328749Y-43829819D02*
X137995416Y-43353628D01*
X137757321Y-43829819D02*
X137757321Y-42829819D01*
X137757321Y-42829819D02*
X138138273Y-42829819D01*
X138138273Y-42829819D02*
X138233511Y-42877438D01*
X138233511Y-42877438D02*
X138281130Y-42925057D01*
X138281130Y-42925057D02*
X138328749Y-43020295D01*
X138328749Y-43020295D02*
X138328749Y-43163152D01*
X138328749Y-43163152D02*
X138281130Y-43258390D01*
X138281130Y-43258390D02*
X138233511Y-43306009D01*
X138233511Y-43306009D02*
X138138273Y-43353628D01*
X138138273Y-43353628D02*
X137757321Y-43353628D01*
X138662083Y-42829819D02*
X139281130Y-42829819D01*
X139281130Y-42829819D02*
X138947797Y-43210771D01*
X138947797Y-43210771D02*
X139090654Y-43210771D01*
X139090654Y-43210771D02*
X139185892Y-43258390D01*
X139185892Y-43258390D02*
X139233511Y-43306009D01*
X139233511Y-43306009D02*
X139281130Y-43401247D01*
X139281130Y-43401247D02*
X139281130Y-43639342D01*
X139281130Y-43639342D02*
X139233511Y-43734580D01*
X139233511Y-43734580D02*
X139185892Y-43782200D01*
X139185892Y-43782200D02*
X139090654Y-43829819D01*
X139090654Y-43829819D02*
X138804940Y-43829819D01*
X138804940Y-43829819D02*
X138709702Y-43782200D01*
X138709702Y-43782200D02*
X138662083Y-43734580D01*
X156311132Y-81109580D02*
X156263513Y-81157200D01*
X156263513Y-81157200D02*
X156120656Y-81204819D01*
X156120656Y-81204819D02*
X156025418Y-81204819D01*
X156025418Y-81204819D02*
X155882561Y-81157200D01*
X155882561Y-81157200D02*
X155787323Y-81061961D01*
X155787323Y-81061961D02*
X155739704Y-80966723D01*
X155739704Y-80966723D02*
X155692085Y-80776247D01*
X155692085Y-80776247D02*
X155692085Y-80633390D01*
X155692085Y-80633390D02*
X155739704Y-80442914D01*
X155739704Y-80442914D02*
X155787323Y-80347676D01*
X155787323Y-80347676D02*
X155882561Y-80252438D01*
X155882561Y-80252438D02*
X156025418Y-80204819D01*
X156025418Y-80204819D02*
X156120656Y-80204819D01*
X156120656Y-80204819D02*
X156263513Y-80252438D01*
X156263513Y-80252438D02*
X156311132Y-80300057D01*
X157215894Y-80204819D02*
X156739704Y-80204819D01*
X156739704Y-80204819D02*
X156692085Y-80681009D01*
X156692085Y-80681009D02*
X156739704Y-80633390D01*
X156739704Y-80633390D02*
X156834942Y-80585771D01*
X156834942Y-80585771D02*
X157073037Y-80585771D01*
X157073037Y-80585771D02*
X157168275Y-80633390D01*
X157168275Y-80633390D02*
X157215894Y-80681009D01*
X157215894Y-80681009D02*
X157263513Y-80776247D01*
X157263513Y-80776247D02*
X157263513Y-81014342D01*
X157263513Y-81014342D02*
X157215894Y-81109580D01*
X157215894Y-81109580D02*
X157168275Y-81157200D01*
X157168275Y-81157200D02*
X157073037Y-81204819D01*
X157073037Y-81204819D02*
X156834942Y-81204819D01*
X156834942Y-81204819D02*
X156739704Y-81157200D01*
X156739704Y-81157200D02*
X156692085Y-81109580D01*
X138328749Y-51329819D02*
X137995416Y-50853628D01*
X137757321Y-51329819D02*
X137757321Y-50329819D01*
X137757321Y-50329819D02*
X138138273Y-50329819D01*
X138138273Y-50329819D02*
X138233511Y-50377438D01*
X138233511Y-50377438D02*
X138281130Y-50425057D01*
X138281130Y-50425057D02*
X138328749Y-50520295D01*
X138328749Y-50520295D02*
X138328749Y-50663152D01*
X138328749Y-50663152D02*
X138281130Y-50758390D01*
X138281130Y-50758390D02*
X138233511Y-50806009D01*
X138233511Y-50806009D02*
X138138273Y-50853628D01*
X138138273Y-50853628D02*
X137757321Y-50853628D01*
X139233511Y-50329819D02*
X138757321Y-50329819D01*
X138757321Y-50329819D02*
X138709702Y-50806009D01*
X138709702Y-50806009D02*
X138757321Y-50758390D01*
X138757321Y-50758390D02*
X138852559Y-50710771D01*
X138852559Y-50710771D02*
X139090654Y-50710771D01*
X139090654Y-50710771D02*
X139185892Y-50758390D01*
X139185892Y-50758390D02*
X139233511Y-50806009D01*
X139233511Y-50806009D02*
X139281130Y-50901247D01*
X139281130Y-50901247D02*
X139281130Y-51139342D01*
X139281130Y-51139342D02*
X139233511Y-51234580D01*
X139233511Y-51234580D02*
X139185892Y-51282200D01*
X139185892Y-51282200D02*
X139090654Y-51329819D01*
X139090654Y-51329819D02*
X138852559Y-51329819D01*
X138852559Y-51329819D02*
X138757321Y-51282200D01*
X138757321Y-51282200D02*
X138709702Y-51234580D01*
X138328749Y-40329819D02*
X137995416Y-39853628D01*
X137757321Y-40329819D02*
X137757321Y-39329819D01*
X137757321Y-39329819D02*
X138138273Y-39329819D01*
X138138273Y-39329819D02*
X138233511Y-39377438D01*
X138233511Y-39377438D02*
X138281130Y-39425057D01*
X138281130Y-39425057D02*
X138328749Y-39520295D01*
X138328749Y-39520295D02*
X138328749Y-39663152D01*
X138328749Y-39663152D02*
X138281130Y-39758390D01*
X138281130Y-39758390D02*
X138233511Y-39806009D01*
X138233511Y-39806009D02*
X138138273Y-39853628D01*
X138138273Y-39853628D02*
X137757321Y-39853628D01*
X138709702Y-39425057D02*
X138757321Y-39377438D01*
X138757321Y-39377438D02*
X138852559Y-39329819D01*
X138852559Y-39329819D02*
X139090654Y-39329819D01*
X139090654Y-39329819D02*
X139185892Y-39377438D01*
X139185892Y-39377438D02*
X139233511Y-39425057D01*
X139233511Y-39425057D02*
X139281130Y-39520295D01*
X139281130Y-39520295D02*
X139281130Y-39615533D01*
X139281130Y-39615533D02*
X139233511Y-39758390D01*
X139233511Y-39758390D02*
X138662083Y-40329819D01*
X138662083Y-40329819D02*
X139281130Y-40329819D01*
D13*
%TO.C,D2*%
X164424700Y-42718700D02*
X164424700Y-48281300D01*
X164424700Y-48281300D02*
X174178300Y-48281300D01*
X174178300Y-42718700D02*
X164424700Y-42718700D01*
X174178300Y-48281300D02*
X174178300Y-42718700D01*
X180629900Y-45500000D02*
X181899900Y-45500000D01*
X180883900Y-46135000D02*
X180883900Y-44865000D01*
X181645900Y-45500000D02*
X180883900Y-44865000D01*
X181645900Y-45500000D02*
X180883900Y-44992000D01*
X181645900Y-45500000D02*
X180883900Y-45119000D01*
X181645900Y-45500000D02*
X180883900Y-45246000D01*
X181645900Y-45500000D02*
X180883900Y-45373000D01*
X181645900Y-45500000D02*
X180883900Y-45627000D01*
X181645900Y-45500000D02*
X180883900Y-45754000D01*
X181645900Y-45500000D02*
X180883900Y-45881000D01*
X181645900Y-45500000D02*
X180883900Y-46008000D01*
X181645900Y-45500000D02*
X180883900Y-46135000D01*
X181645900Y-46135000D02*
X181645900Y-44865000D01*
D14*
%TO.C,J5*%
X173675000Y-85510000D02*
X173675000Y-89270000D01*
X173675000Y-85510000D02*
X176120000Y-85510000D01*
X173675000Y-92370000D02*
X173675000Y-95420000D01*
X173675000Y-95420000D02*
X180825000Y-95420000D01*
X178380000Y-85510000D02*
X180825000Y-85510000D01*
X180825000Y-89270000D02*
X180825000Y-85510000D01*
X180825000Y-95420000D02*
X180825000Y-92370000D01*
D15*
X181750000Y-86350000D02*
G75*
G02*
X181550000Y-86350000I-100000J0D01*
G01*
X181550000Y-86350000D02*
G75*
G02*
X181750000Y-86350000I100000J0D01*
G01*
D16*
%TO.C,J7*%
X127790000Y-34880000D02*
X127790000Y-33500000D01*
X129170000Y-34880000D02*
X127790000Y-34880000D01*
X130440000Y-32120000D02*
X138170000Y-32120000D01*
X130440000Y-34880000D02*
X130440000Y-32120000D01*
X130440000Y-34880000D02*
X138170000Y-34880000D01*
X138170000Y-34880000D02*
X138170000Y-32120000D01*
D14*
%TO.C,J2*%
X130775000Y-84940000D02*
X130775000Y-88700000D01*
X130775000Y-84940000D02*
X133220000Y-84940000D01*
X130775000Y-91800000D02*
X130775000Y-94850000D01*
X130775000Y-94850000D02*
X137925000Y-94850000D01*
X135480000Y-84940000D02*
X137925000Y-84940000D01*
X137925000Y-88700000D02*
X137925000Y-84940000D01*
X137925000Y-94850000D02*
X137925000Y-91800000D01*
D15*
X138850000Y-85780000D02*
G75*
G02*
X138650000Y-85780000I-100000J0D01*
G01*
X138650000Y-85780000D02*
G75*
G02*
X138850000Y-85780000I100000J0D01*
G01*
D12*
%TO.C,U3*%
X147602500Y-50469999D02*
X153402498Y-50469999D01*
X147602500Y-55720001D02*
X153402498Y-55720001D01*
D17*
X146927500Y-51190000D02*
G75*
G02*
X146677498Y-51190000I-125001J0D01*
G01*
X146677498Y-51190000D02*
G75*
G02*
X146927500Y-51190000I125001J0D01*
G01*
D13*
%TO.C,C8*%
X127716300Y-74250000D02*
X128986300Y-74250000D01*
X128351300Y-73615000D02*
X128351300Y-74885000D01*
X139374900Y-74250000D02*
G75*
G02*
X129113300Y-74250000I-5130800J0D01*
G01*
X129113300Y-74250000D02*
G75*
G02*
X139374900Y-74250000I5130800J0D01*
G01*
D12*
%TO.C,U1*%
X147807751Y-31954997D02*
X153607749Y-31954997D01*
X147807751Y-37204999D02*
X153607749Y-37204999D01*
D17*
X147132751Y-32674998D02*
G75*
G02*
X146882749Y-32674998I-125001J0D01*
G01*
X146882749Y-32674998D02*
G75*
G02*
X147132751Y-32674998I125001J0D01*
G01*
D13*
%TO.C,C6*%
X156138950Y-74250000D02*
X157408950Y-74250000D01*
X156773950Y-73615000D02*
X156773950Y-74885000D01*
X167797550Y-74250000D02*
G75*
G02*
X157535950Y-74250000I-5130800J0D01*
G01*
X157535950Y-74250000D02*
G75*
G02*
X167797550Y-74250000I5130800J0D01*
G01*
%TO.C,D1*%
X164174700Y-34968700D02*
X164174700Y-40531300D01*
X164174700Y-40531300D02*
X173928300Y-40531300D01*
X173928300Y-34968700D02*
X164174700Y-34968700D01*
X173928300Y-40531300D02*
X173928300Y-34968700D01*
X180379900Y-37750000D02*
X181649900Y-37750000D01*
X180633900Y-38385000D02*
X180633900Y-37115000D01*
X181395900Y-37750000D02*
X180633900Y-37115000D01*
X181395900Y-37750000D02*
X180633900Y-37242000D01*
X181395900Y-37750000D02*
X180633900Y-37369000D01*
X181395900Y-37750000D02*
X180633900Y-37496000D01*
X181395900Y-37750000D02*
X180633900Y-37623000D01*
X181395900Y-37750000D02*
X180633900Y-37877000D01*
X181395900Y-37750000D02*
X180633900Y-38004000D01*
X181395900Y-37750000D02*
X180633900Y-38131000D01*
X181395900Y-37750000D02*
X180633900Y-38258000D01*
X181395900Y-37750000D02*
X180633900Y-38385000D01*
X181395900Y-38385000D02*
X181395900Y-37115000D01*
D18*
%TO.C,G\u002A\u002A\u002A*%
G36*
X186884979Y-77959721D02*
G01*
X186870060Y-77978130D01*
X186809553Y-78050889D01*
X186737419Y-78139793D01*
X186657518Y-78239859D01*
X186573705Y-78346102D01*
X186489841Y-78453538D01*
X186409781Y-78557182D01*
X186337384Y-78652051D01*
X186276508Y-78733160D01*
X186231010Y-78795524D01*
X186204749Y-78834159D01*
X186199818Y-78844090D01*
X186215518Y-78871669D01*
X186254727Y-78907995D01*
X186272717Y-78921100D01*
X186332655Y-78969639D01*
X186408881Y-79042622D01*
X186493526Y-79131566D01*
X186578720Y-79227992D01*
X186656594Y-79323416D01*
X186700348Y-79381994D01*
X186826763Y-79585163D01*
X186936894Y-79812838D01*
X187024656Y-80050496D01*
X187083964Y-80283612D01*
X187088529Y-80308583D01*
X187105218Y-80441318D01*
X187114926Y-80600004D01*
X187117510Y-80770329D01*
X187112826Y-80937985D01*
X187100732Y-81088661D01*
X187096650Y-81121151D01*
X187039381Y-81392625D01*
X186944386Y-81657303D01*
X186814677Y-81911219D01*
X186653266Y-82150408D01*
X186463165Y-82370905D01*
X186247386Y-82568744D01*
X186008940Y-82739960D01*
X185765460Y-82873732D01*
X185508314Y-82974337D01*
X185230903Y-83043973D01*
X184940844Y-83081509D01*
X184645753Y-83085812D01*
X184448670Y-83069495D01*
X184314128Y-83046139D01*
X184160775Y-83008715D01*
X184003375Y-82961647D01*
X183856693Y-82909363D01*
X183735495Y-82856289D01*
X183732607Y-82854832D01*
X183670869Y-82825810D01*
X183621492Y-82806624D01*
X183601389Y-82802010D01*
X183574786Y-82814035D01*
X183524728Y-82846444D01*
X183459343Y-82893733D01*
X183411844Y-82930340D01*
X183244255Y-83062279D01*
X183100001Y-83175108D01*
X182980629Y-83267640D01*
X182887682Y-83338690D01*
X182822706Y-83387072D01*
X182787246Y-83411598D01*
X182781153Y-83414550D01*
X182769466Y-83399474D01*
X182769453Y-83398722D01*
X182781598Y-83378877D01*
X182815675Y-83331773D01*
X182868148Y-83262072D01*
X182935483Y-83174438D01*
X183014143Y-83073532D01*
X183065534Y-83008267D01*
X183361615Y-82633640D01*
X183264610Y-82550717D01*
X183045963Y-82339582D01*
X182856287Y-82106251D01*
X182698128Y-81855142D01*
X182574034Y-81590677D01*
X182486550Y-81317275D01*
X182450688Y-81137942D01*
X182420662Y-80815448D01*
X182423243Y-80729582D01*
X182456355Y-80729582D01*
X182457829Y-80889360D01*
X182464974Y-81021382D01*
X182479646Y-81138548D01*
X182503702Y-81253760D01*
X182539000Y-81379920D01*
X182559210Y-81444212D01*
X182669811Y-81722502D01*
X182816465Y-81986372D01*
X182995327Y-82230116D01*
X183202555Y-82448027D01*
X183282857Y-82518630D01*
X183339010Y-82563522D01*
X183374821Y-82584457D01*
X183399785Y-82585358D01*
X183418050Y-82574509D01*
X183427503Y-82572826D01*
X183414575Y-82597741D01*
X183393244Y-82628457D01*
X183350009Y-82685859D01*
X183288917Y-82765263D01*
X183216477Y-82858384D01*
X183139198Y-82956938D01*
X183063590Y-83052640D01*
X182996163Y-83137207D01*
X182943426Y-83202353D01*
X182922588Y-83227440D01*
X182890173Y-83269734D01*
X182886490Y-83286249D01*
X182911999Y-83276758D01*
X182967158Y-83241036D01*
X183052427Y-83178856D01*
X183109157Y-83135732D01*
X183285731Y-82999014D01*
X183451285Y-82868619D01*
X183556189Y-82784525D01*
X183613643Y-82738195D01*
X183645589Y-82714161D01*
X183658441Y-82709258D01*
X183658613Y-82720316D01*
X183654610Y-82735912D01*
X183656412Y-82759385D01*
X183679186Y-82783148D01*
X183729357Y-82812283D01*
X183784635Y-82838789D01*
X184071213Y-82949336D01*
X184366489Y-83021855D01*
X184666280Y-83056000D01*
X184966403Y-83051427D01*
X185262673Y-83007789D01*
X185403376Y-82972554D01*
X185539800Y-82926280D01*
X185692503Y-82862469D01*
X185848729Y-82787399D01*
X185995722Y-82707348D01*
X186120727Y-82628592D01*
X186159885Y-82600253D01*
X186286854Y-82493673D01*
X186419659Y-82364848D01*
X186547005Y-82225826D01*
X186657600Y-82088658D01*
X186711739Y-82011460D01*
X186822023Y-81828005D01*
X186909616Y-81647017D01*
X186979547Y-81455907D01*
X187036842Y-81242087D01*
X187057847Y-81144944D01*
X187092630Y-80876451D01*
X187091162Y-80598627D01*
X187054865Y-80317898D01*
X186985162Y-80040688D01*
X186883476Y-79773425D01*
X186751228Y-79522532D01*
X186672090Y-79402412D01*
X186623919Y-79340631D01*
X186556854Y-79262630D01*
X186478611Y-79176558D01*
X186396904Y-79090563D01*
X186319451Y-79012795D01*
X186253966Y-78951402D01*
X186213894Y-78918480D01*
X186173500Y-78892339D01*
X186147825Y-78890235D01*
X186119269Y-78911242D01*
X186116909Y-78913372D01*
X186086847Y-78948430D01*
X186077170Y-78971911D01*
X186092087Y-78995085D01*
X186131257Y-79034433D01*
X186186304Y-79081568D01*
X186188135Y-79083032D01*
X186360841Y-79243759D01*
X186519901Y-79436974D01*
X186660739Y-79655349D01*
X186778782Y-79891558D01*
X186869455Y-80138272D01*
X186888379Y-80204721D01*
X186908870Y-80285873D01*
X186923340Y-80357668D01*
X186932803Y-80430363D01*
X186938276Y-80514216D01*
X186940772Y-80619484D01*
X186941312Y-80739791D01*
X186940615Y-80872816D01*
X186937846Y-80975276D01*
X186931991Y-81057429D01*
X186922035Y-81129533D01*
X186906964Y-81201844D01*
X186888379Y-81274861D01*
X186792277Y-81558552D01*
X186661968Y-81822639D01*
X186499958Y-82064546D01*
X186308751Y-82281699D01*
X186090855Y-82471519D01*
X185848773Y-82631432D01*
X185585012Y-82758861D01*
X185374396Y-82831587D01*
X185099960Y-82892730D01*
X184826028Y-82918009D01*
X184560494Y-82906717D01*
X184550208Y-82905501D01*
X184327119Y-82868777D01*
X184114253Y-82815205D01*
X183924740Y-82748243D01*
X183881939Y-82729536D01*
X183814271Y-82702780D01*
X183756713Y-82687355D01*
X183726619Y-82686066D01*
X183695205Y-82690973D01*
X183688263Y-82688367D01*
X183703608Y-82674194D01*
X183746991Y-82637903D01*
X183814432Y-82582725D01*
X183901953Y-82511891D01*
X184005576Y-82428632D01*
X184121322Y-82336179D01*
X184152773Y-82311143D01*
X184278695Y-82210899D01*
X184400533Y-82113758D01*
X184512792Y-82024114D01*
X184609979Y-81946357D01*
X184686597Y-81884879D01*
X184737154Y-81844073D01*
X184739791Y-81841928D01*
X184787943Y-81803033D01*
X184862624Y-81743090D01*
X184958387Y-81666453D01*
X185069786Y-81577476D01*
X185191376Y-81480511D01*
X185317710Y-81379912D01*
X185331913Y-81368612D01*
X185801527Y-80995016D01*
X185439107Y-80989440D01*
X185322568Y-80986999D01*
X185221590Y-80983647D01*
X185142664Y-80979700D01*
X185092275Y-80975475D01*
X185076688Y-80971718D01*
X185082416Y-80958796D01*
X185101130Y-80933580D01*
X185135119Y-80893553D01*
X185186676Y-80836199D01*
X185258091Y-80759003D01*
X185351655Y-80659448D01*
X185469661Y-80535018D01*
X185576104Y-80423312D01*
X185724681Y-80267514D01*
X185847339Y-80138634D01*
X185946437Y-80034128D01*
X186024335Y-79951452D01*
X186083392Y-79888065D01*
X186125968Y-79841422D01*
X186154422Y-79808980D01*
X186171114Y-79788197D01*
X186178403Y-79776529D01*
X186179260Y-79773194D01*
X186159917Y-79768892D01*
X186106181Y-79765158D01*
X186024497Y-79762230D01*
X185921306Y-79760342D01*
X185811736Y-79759727D01*
X185694342Y-79758921D01*
X185592474Y-79756682D01*
X185512573Y-79753279D01*
X185461078Y-79748979D01*
X185444326Y-79744413D01*
X185456369Y-79722668D01*
X185488494Y-79677425D01*
X185534860Y-79616741D01*
X185559108Y-79586174D01*
X185614012Y-79517472D01*
X185686053Y-79426944D01*
X185767089Y-79324838D01*
X185848981Y-79221402D01*
X185875359Y-79188022D01*
X185967146Y-79072079D01*
X186072186Y-78939821D01*
X186178144Y-78806758D01*
X186272684Y-78688398D01*
X186281353Y-78677572D01*
X186406152Y-78521604D01*
X186507508Y-78394547D01*
X186587631Y-78293539D01*
X186648734Y-78215720D01*
X186693025Y-78158227D01*
X186722716Y-78118199D01*
X186740017Y-78092774D01*
X186747139Y-78079092D01*
X186747064Y-78074744D01*
X186729143Y-78084789D01*
X186682201Y-78118678D01*
X186608815Y-78174383D01*
X186511558Y-78249877D01*
X186393005Y-78343129D01*
X186255729Y-78452114D01*
X186102306Y-78574801D01*
X185935310Y-78709162D01*
X185757315Y-78853170D01*
X185699437Y-78900160D01*
X185583184Y-78994541D01*
X185455045Y-79098439D01*
X185327663Y-79201611D01*
X185213680Y-79293815D01*
X185170530Y-79328674D01*
X185063654Y-79415235D01*
X184947119Y-79510058D01*
X184834269Y-79602260D01*
X184738452Y-79680956D01*
X184729595Y-79688264D01*
X184650187Y-79753501D01*
X184547897Y-79837071D01*
X184431656Y-79931704D01*
X184310393Y-80030131D01*
X184193040Y-80125081D01*
X184190353Y-80127251D01*
X183848992Y-80402894D01*
X184209020Y-80408475D01*
X184342014Y-80411098D01*
X184438935Y-80414531D01*
X184504542Y-80419222D01*
X184543598Y-80425616D01*
X184560862Y-80434161D01*
X184562538Y-80441627D01*
X184547232Y-80462534D01*
X184506850Y-80508996D01*
X184444811Y-80577317D01*
X184364534Y-80663798D01*
X184269438Y-80764745D01*
X184162942Y-80876460D01*
X184095597Y-80946495D01*
X183935423Y-81112684D01*
X183801602Y-81251892D01*
X183692005Y-81366397D01*
X183604498Y-81458478D01*
X183536951Y-81530413D01*
X183487232Y-81584482D01*
X183453210Y-81622963D01*
X183432752Y-81648134D01*
X183423728Y-81662275D01*
X183422829Y-81665679D01*
X183442142Y-81670057D01*
X183495659Y-81673831D01*
X183576752Y-81676747D01*
X183678790Y-81678550D01*
X183769935Y-81679019D01*
X183883843Y-81679693D01*
X183982046Y-81681561D01*
X184057916Y-81684392D01*
X184104823Y-81687953D01*
X184117042Y-81691134D01*
X184104968Y-81710934D01*
X184071506Y-81757314D01*
X184020792Y-81824979D01*
X183956963Y-81908635D01*
X183884155Y-82002988D01*
X183806506Y-82102741D01*
X183728152Y-82202602D01*
X183653230Y-82297274D01*
X183585878Y-82381463D01*
X183530231Y-82449874D01*
X183490427Y-82497212D01*
X183471253Y-82517684D01*
X183446669Y-82535701D01*
X183447801Y-82526526D01*
X183452656Y-82518165D01*
X183453029Y-82483834D01*
X183431053Y-82461479D01*
X183400889Y-82435954D01*
X183349691Y-82388870D01*
X183285298Y-82327549D01*
X183232138Y-82275710D01*
X183038737Y-82056874D01*
X182876179Y-81813331D01*
X182747225Y-81550021D01*
X182654638Y-81271886D01*
X182641812Y-81219614D01*
X182610534Y-81031661D01*
X182596380Y-80821760D01*
X182599164Y-80604780D01*
X182618701Y-80395588D01*
X182654445Y-80210435D01*
X182748184Y-79926943D01*
X182876318Y-79662765D01*
X183036404Y-79420538D01*
X183225999Y-79202896D01*
X183442659Y-79012477D01*
X183683942Y-78851918D01*
X183947404Y-78723853D01*
X184075995Y-78676373D01*
X184353879Y-78600152D01*
X184624161Y-78560919D01*
X184891637Y-78558879D01*
X185161100Y-78594238D01*
X185437348Y-78667203D01*
X185644507Y-78743700D01*
X185793758Y-78804907D01*
X185844363Y-78757366D01*
X185894968Y-78709825D01*
X185807411Y-78663978D01*
X185603507Y-78573423D01*
X185375090Y-78499847D01*
X185136165Y-78446662D01*
X184900733Y-78417280D01*
X184775302Y-78412495D01*
X184621972Y-78420160D01*
X184447760Y-78442043D01*
X184268971Y-78475484D01*
X184101908Y-78517821D01*
X184069696Y-78527639D01*
X183794067Y-78635317D01*
X183534845Y-78777758D01*
X183295603Y-78951545D01*
X183079913Y-79153261D01*
X182891349Y-79379489D01*
X182733483Y-79626812D01*
X182609887Y-79891814D01*
X182591477Y-79941347D01*
X182539392Y-80095611D01*
X182502256Y-80229842D01*
X182477737Y-80357650D01*
X182463501Y-80492648D01*
X182457215Y-80648446D01*
X182456355Y-80729582D01*
X182423243Y-80729582D01*
X182430077Y-80502271D01*
X182478545Y-80199694D01*
X182565677Y-79909003D01*
X182691084Y-79631484D01*
X182854379Y-79368420D01*
X183055172Y-79121097D01*
X183062999Y-79112606D01*
X183247518Y-78939240D01*
X183462902Y-78781412D01*
X183700648Y-78643813D01*
X183952252Y-78531133D01*
X184209210Y-78448061D01*
X184310871Y-78424322D01*
X184427865Y-78407077D01*
X184572796Y-78396254D01*
X184733269Y-78391867D01*
X184896889Y-78393927D01*
X185051263Y-78402449D01*
X185183997Y-78417445D01*
X185218660Y-78423381D01*
X185354028Y-78454784D01*
X185504110Y-78498912D01*
X185652993Y-78550478D01*
X185784764Y-78604194D01*
X185835920Y-78628507D01*
X185931567Y-78676903D01*
X186405436Y-78299018D01*
X186560033Y-78176516D01*
X186684388Y-78079758D01*
X186779429Y-78008103D01*
X186846081Y-77960913D01*
X186885273Y-77937545D01*
X186897930Y-77937361D01*
X186884979Y-77959721D01*
G37*
D16*
%TO.C,R8*%
X138722480Y-62640000D02*
X138268352Y-62640000D01*
X138722480Y-64110000D02*
X138268352Y-64110000D01*
%TO.C,R4*%
X138722480Y-47890000D02*
X138268352Y-47890000D01*
X138722480Y-49360000D02*
X138268352Y-49360000D01*
D13*
%TO.C,C4*%
X141888950Y-74500000D02*
X143158950Y-74500000D01*
X142523950Y-73865000D02*
X142523950Y-75135000D01*
X153547550Y-74500000D02*
G75*
G02*
X143285950Y-74500000I-5130800J0D01*
G01*
X143285950Y-74500000D02*
G75*
G02*
X153547550Y-74500000I5130800J0D01*
G01*
%TO.C,J6*%
X119271301Y-38382600D02*
X119271301Y-48796600D01*
X119271301Y-48796600D02*
X123054510Y-48796600D01*
X123054510Y-38382600D02*
X119271301Y-38382600D01*
X124934089Y-48796600D02*
X129431301Y-48796600D01*
X129431301Y-38382600D02*
X124934089Y-38382600D01*
X129431301Y-48796600D02*
X129431301Y-38382600D01*
D19*
X128695301Y-49741501D02*
G75*
G02*
X127933301Y-49741501I-381000J0D01*
G01*
X127933301Y-49741501D02*
G75*
G02*
X128695301Y-49741501I381000J0D01*
G01*
D12*
%TO.C,U4*%
X147446500Y-59654999D02*
X153246498Y-59654999D01*
X147446500Y-64905001D02*
X153246498Y-64905001D01*
D17*
X146771500Y-60375000D02*
G75*
G02*
X146521498Y-60375000I-125001J0D01*
G01*
X146521498Y-60375000D02*
G75*
G02*
X146771500Y-60375000I125001J0D01*
G01*
D16*
%TO.C,R7*%
X138722480Y-59140000D02*
X138268352Y-59140000D01*
X138722480Y-60610000D02*
X138268352Y-60610000D01*
D13*
%TO.C,D4*%
X164174700Y-59468700D02*
X164174700Y-65031300D01*
X164174700Y-65031300D02*
X173928300Y-65031300D01*
X173928300Y-59468700D02*
X164174700Y-59468700D01*
X173928300Y-65031300D02*
X173928300Y-59468700D01*
X180379900Y-62250000D02*
X181649900Y-62250000D01*
X180633900Y-62885000D02*
X180633900Y-61615000D01*
X181395900Y-62250000D02*
X180633900Y-61615000D01*
X181395900Y-62250000D02*
X180633900Y-61742000D01*
X181395900Y-62250000D02*
X180633900Y-61869000D01*
X181395900Y-62250000D02*
X180633900Y-61996000D01*
X181395900Y-62250000D02*
X180633900Y-62123000D01*
X181395900Y-62250000D02*
X180633900Y-62377000D01*
X181395900Y-62250000D02*
X180633900Y-62504000D01*
X181395900Y-62250000D02*
X180633900Y-62631000D01*
X181395900Y-62250000D02*
X180633900Y-62758000D01*
X181395900Y-62250000D02*
X180633900Y-62885000D01*
X181395900Y-62885000D02*
X181395900Y-61615000D01*
D16*
%TO.C,R6*%
X138722480Y-55390000D02*
X138268352Y-55390000D01*
X138722480Y-56860000D02*
X138268352Y-56860000D01*
%TO.C,R1*%
X138722480Y-37300850D02*
X138268352Y-37300850D01*
X138722480Y-38770850D02*
X138268352Y-38770850D01*
D14*
%TO.C,J1*%
X119385000Y-54550000D02*
X119385000Y-61700000D01*
X119385000Y-61700000D02*
X122435000Y-61700000D01*
X122435000Y-54550000D02*
X119385000Y-54550000D01*
X125535000Y-61700000D02*
X129295000Y-61700000D01*
X129295000Y-54550000D02*
X125535000Y-54550000D01*
X129295000Y-54550000D02*
X129295000Y-56995000D01*
X129295000Y-59255000D02*
X129295000Y-61700000D01*
D15*
X128555000Y-62525000D02*
G75*
G02*
X128355000Y-62525000I-100000J0D01*
G01*
X128355000Y-62525000D02*
G75*
G02*
X128555000Y-62525000I100000J0D01*
G01*
D12*
%TO.C,U2*%
X147602500Y-41219999D02*
X153402498Y-41219999D01*
X147602500Y-46470001D02*
X153402498Y-46470001D01*
D17*
X146927500Y-41940000D02*
G75*
G02*
X146677498Y-41940000I-125001J0D01*
G01*
X146677498Y-41940000D02*
G75*
G02*
X146927500Y-41940000I125001J0D01*
G01*
D16*
%TO.C,J8*%
X123870000Y-66080000D02*
X125250000Y-66080000D01*
X123870000Y-67460000D02*
X123870000Y-66080000D01*
X123870000Y-68730000D02*
X123870000Y-71380000D01*
X123870000Y-68730000D02*
X126630000Y-68730000D01*
X123870000Y-71380000D02*
X126630000Y-71380000D01*
X126630000Y-68730000D02*
X126630000Y-71380000D01*
D14*
%TO.C,J4*%
X159075000Y-85190000D02*
X159075000Y-88950000D01*
X159075000Y-85190000D02*
X161520000Y-85190000D01*
X159075000Y-92050000D02*
X159075000Y-95100000D01*
X159075000Y-95100000D02*
X166225000Y-95100000D01*
X163780000Y-85190000D02*
X166225000Y-85190000D01*
X166225000Y-88950000D02*
X166225000Y-85190000D01*
X166225000Y-95100000D02*
X166225000Y-92050000D01*
D15*
X167150000Y-86030000D02*
G75*
G02*
X166950000Y-86030000I-100000J0D01*
G01*
X166950000Y-86030000D02*
G75*
G02*
X167150000Y-86030000I100000J0D01*
G01*
D13*
%TO.C,D3*%
X164424700Y-51218700D02*
X164424700Y-56781300D01*
X164424700Y-56781300D02*
X174178300Y-56781300D01*
X174178300Y-51218700D02*
X164424700Y-51218700D01*
X174178300Y-56781300D02*
X174178300Y-51218700D01*
X180629900Y-54000000D02*
X181899900Y-54000000D01*
X180883900Y-54635000D02*
X180883900Y-53365000D01*
X181645900Y-54000000D02*
X180883900Y-53365000D01*
X181645900Y-54000000D02*
X180883900Y-53492000D01*
X181645900Y-54000000D02*
X180883900Y-53619000D01*
X181645900Y-54000000D02*
X180883900Y-53746000D01*
X181645900Y-54000000D02*
X180883900Y-53873000D01*
X181645900Y-54000000D02*
X180883900Y-54127000D01*
X181645900Y-54000000D02*
X180883900Y-54254000D01*
X181645900Y-54000000D02*
X180883900Y-54381000D01*
X181645900Y-54000000D02*
X180883900Y-54508000D01*
X181645900Y-54000000D02*
X180883900Y-54635000D01*
X181645900Y-54635000D02*
X181645900Y-53365000D01*
%TO.C,C2*%
X169916300Y-74500000D02*
X171186300Y-74500000D01*
X170551300Y-73865000D02*
X170551300Y-75135000D01*
X181574900Y-74500000D02*
G75*
G02*
X171313300Y-74500000I-5130800J0D01*
G01*
X171313300Y-74500000D02*
G75*
G02*
X181574900Y-74500000I5130800J0D01*
G01*
D18*
%TO.C,G\u002A\u002A\u002A*%
G36*
X161491630Y-31508985D02*
G01*
X161532244Y-31511262D01*
X161464044Y-31897931D01*
X161395843Y-32284599D01*
X161352954Y-32286851D01*
X161328500Y-32287529D01*
X161315557Y-32285671D01*
X161310707Y-32280377D01*
X161310254Y-32275589D01*
X161311584Y-32264822D01*
X161315265Y-32241310D01*
X161320995Y-32206748D01*
X161328471Y-32162829D01*
X161337389Y-32111248D01*
X161347447Y-32053699D01*
X161358342Y-31991878D01*
X161369771Y-31927478D01*
X161381432Y-31862194D01*
X161393020Y-31797720D01*
X161404234Y-31735751D01*
X161414771Y-31677980D01*
X161424327Y-31626104D01*
X161432600Y-31581815D01*
X161439287Y-31546809D01*
X161444085Y-31522779D01*
X161446691Y-31511421D01*
X161446967Y-31510757D01*
X161456132Y-31508892D01*
X161475374Y-31508418D01*
X161491630Y-31508985D01*
G37*
G36*
X161754434Y-31508985D02*
G01*
X161795068Y-31511262D01*
X161736938Y-31837866D01*
X161724766Y-31906663D01*
X161713439Y-31971460D01*
X161703231Y-32030643D01*
X161694413Y-32082594D01*
X161687259Y-32125698D01*
X161682041Y-32158339D01*
X161679031Y-32178901D01*
X161678386Y-32185117D01*
X161677963Y-32205764D01*
X161881022Y-32205764D01*
X162084082Y-32205764D01*
X162079332Y-32233919D01*
X162077227Y-32248726D01*
X162075419Y-32260597D01*
X162072375Y-32269852D01*
X162066564Y-32276814D01*
X162056455Y-32281804D01*
X162040515Y-32285144D01*
X162017212Y-32287156D01*
X161985016Y-32288161D01*
X161942393Y-32288482D01*
X161887813Y-32288438D01*
X161820111Y-32288353D01*
X161752547Y-32288309D01*
X161698503Y-32288123D01*
X161656482Y-32287715D01*
X161624989Y-32287006D01*
X161602527Y-32285916D01*
X161587599Y-32284367D01*
X161578710Y-32282277D01*
X161574364Y-32279569D01*
X161573063Y-32276161D01*
X161573038Y-32275214D01*
X161574370Y-32264484D01*
X161578053Y-32241006D01*
X161583786Y-32206475D01*
X161591265Y-32162585D01*
X161600187Y-32111030D01*
X161610248Y-32053506D01*
X161621146Y-31991708D01*
X161632578Y-31927329D01*
X161644241Y-31862064D01*
X161655831Y-31797608D01*
X161667046Y-31735656D01*
X161677582Y-31677902D01*
X161687137Y-31626041D01*
X161695407Y-31581767D01*
X161702089Y-31546776D01*
X161706880Y-31522761D01*
X161709478Y-31511417D01*
X161709751Y-31510757D01*
X161718916Y-31508892D01*
X161738159Y-31508418D01*
X161754434Y-31508985D01*
G37*
G36*
X157856514Y-31508030D02*
G01*
X157870079Y-31510215D01*
X157874760Y-31514989D01*
X157874321Y-31520647D01*
X157869697Y-31542466D01*
X157863417Y-31575517D01*
X157855844Y-31617577D01*
X157847342Y-31666427D01*
X157838272Y-31719845D01*
X157828999Y-31775609D01*
X157819886Y-31831499D01*
X157811296Y-31885292D01*
X157803592Y-31934769D01*
X157797138Y-31977707D01*
X157792296Y-32011885D01*
X157789430Y-32035083D01*
X157788794Y-32043703D01*
X157794252Y-32098074D01*
X157810519Y-32142038D01*
X157837631Y-32175628D01*
X157875623Y-32198879D01*
X157924530Y-32211825D01*
X157967771Y-32214789D01*
X158017900Y-32212686D01*
X158058683Y-32205139D01*
X158095199Y-32190865D01*
X158121203Y-32176018D01*
X158157995Y-32144423D01*
X158190038Y-32099933D01*
X158216008Y-32044507D01*
X158220738Y-32027964D01*
X158227553Y-31998688D01*
X158236032Y-31958752D01*
X158245756Y-31910229D01*
X158256306Y-31855193D01*
X158267262Y-31795715D01*
X158274170Y-31756979D01*
X158318075Y-31507556D01*
X158361247Y-31507532D01*
X158388795Y-31508910D01*
X158402446Y-31513207D01*
X158404345Y-31516893D01*
X158402954Y-31529006D01*
X158399129Y-31553682D01*
X158393268Y-31588737D01*
X158385772Y-31631987D01*
X158377041Y-31681249D01*
X158367473Y-31734340D01*
X158357470Y-31789076D01*
X158347431Y-31843273D01*
X158337756Y-31894747D01*
X158328844Y-31941316D01*
X158321096Y-31980796D01*
X158314910Y-32011002D01*
X158310688Y-32029752D01*
X158309903Y-32032684D01*
X158284513Y-32099178D01*
X158249472Y-32159976D01*
X158221628Y-32195382D01*
X158174807Y-32236654D01*
X158118326Y-32268487D01*
X158054743Y-32290167D01*
X157986620Y-32300980D01*
X157916517Y-32300211D01*
X157871133Y-32293170D01*
X157819038Y-32276040D01*
X157774789Y-32249559D01*
X157741156Y-32215485D01*
X157735519Y-32207242D01*
X157722507Y-32185026D01*
X157712308Y-32162788D01*
X157704940Y-32138974D01*
X157700424Y-32112033D01*
X157698780Y-32080410D01*
X157700028Y-32042552D01*
X157704187Y-31996907D01*
X157711278Y-31941921D01*
X157721321Y-31876040D01*
X157734335Y-31797713D01*
X157741312Y-31757153D01*
X157784570Y-31507508D01*
X157831007Y-31507508D01*
X157856514Y-31508030D01*
G37*
G36*
X159213406Y-30461738D02*
G01*
X159280270Y-30476945D01*
X159340582Y-30503305D01*
X159392343Y-30540532D01*
X159395127Y-30543099D01*
X159413761Y-30563254D01*
X159432619Y-30588136D01*
X159449868Y-30614637D01*
X159463679Y-30639649D01*
X159472218Y-30660063D01*
X159473656Y-30672770D01*
X159472551Y-30674510D01*
X159463098Y-30678588D01*
X159442768Y-30685096D01*
X159415269Y-30692883D01*
X159403000Y-30696121D01*
X159372615Y-30704014D01*
X159346827Y-30710781D01*
X159329838Y-30715317D01*
X159326647Y-30716202D01*
X159314182Y-30713374D01*
X159309545Y-30705389D01*
X159298248Y-30685902D01*
X159277652Y-30663290D01*
X159251816Y-30641289D01*
X159224800Y-30623633D01*
X159215821Y-30619172D01*
X159179535Y-30608543D01*
X159135260Y-30603824D01*
X159088818Y-30605034D01*
X159046033Y-30612189D01*
X159026274Y-30618622D01*
X158966618Y-30650508D01*
X158917073Y-30693088D01*
X158878348Y-30745346D01*
X158851151Y-30806266D01*
X158836192Y-30874832D01*
X158834419Y-30893440D01*
X158835241Y-30955564D01*
X158847380Y-31007851D01*
X158870942Y-31050454D01*
X158906033Y-31083523D01*
X158952758Y-31107211D01*
X158990266Y-31117832D01*
X159043037Y-31121891D01*
X159098546Y-31113177D01*
X159153733Y-31092767D01*
X159205534Y-31061740D01*
X159243887Y-31028570D01*
X159283740Y-30987884D01*
X159350878Y-31005400D01*
X159380159Y-31013676D01*
X159402971Y-31021333D01*
X159416093Y-31027230D01*
X159418016Y-31029230D01*
X159412967Y-31042267D01*
X159399363Y-31062756D01*
X159379521Y-31087789D01*
X159355759Y-31114459D01*
X159330391Y-31139858D01*
X159328382Y-31141730D01*
X159265603Y-31190058D01*
X159195079Y-31227056D01*
X159119325Y-31252027D01*
X159040855Y-31264274D01*
X158962185Y-31263098D01*
X158916857Y-31255862D01*
X158851019Y-31234679D01*
X158794736Y-31202290D01*
X158748614Y-31159550D01*
X158713262Y-31107313D01*
X158689287Y-31046434D01*
X158677296Y-30977768D01*
X158676722Y-30918120D01*
X158688511Y-30834259D01*
X158713403Y-30755348D01*
X158750369Y-30682790D01*
X158798380Y-30617990D01*
X158856406Y-30562354D01*
X158923417Y-30517286D01*
X158993491Y-30485879D01*
X159068017Y-30465920D01*
X159141988Y-30457968D01*
X159213406Y-30461738D01*
G37*
G36*
X158733226Y-31509130D02*
G01*
X158798516Y-31510825D01*
X158850912Y-31513519D01*
X158892528Y-31517736D01*
X158925476Y-31524001D01*
X158951871Y-31532840D01*
X158973827Y-31544776D01*
X158993458Y-31560336D01*
X159011116Y-31578120D01*
X159036866Y-31616574D01*
X159051300Y-31661727D01*
X159055000Y-31711118D01*
X159048548Y-31762285D01*
X159032529Y-31812769D01*
X159007525Y-31860108D01*
X158974118Y-31901843D01*
X158932893Y-31935513D01*
X158925334Y-31940149D01*
X158889694Y-31958652D01*
X158852589Y-31972472D01*
X158810841Y-31982315D01*
X158761268Y-31988888D01*
X158700690Y-31992895D01*
X158684793Y-31993531D01*
X158570991Y-31997646D01*
X158558839Y-32066041D01*
X158551714Y-32106174D01*
X158543453Y-32152761D01*
X158535533Y-32197468D01*
X158533400Y-32209518D01*
X158520113Y-32284599D01*
X158477282Y-32286851D01*
X158452297Y-32287373D01*
X158439093Y-32285145D01*
X158434583Y-32279504D01*
X158434451Y-32277681D01*
X158435713Y-32268563D01*
X158439297Y-32246388D01*
X158444901Y-32212887D01*
X158452224Y-32169787D01*
X158460962Y-32118819D01*
X158470815Y-32061711D01*
X158481481Y-32000192D01*
X158492656Y-31935992D01*
X158496447Y-31914293D01*
X158584720Y-31914293D01*
X158699166Y-31911634D01*
X158744994Y-31910321D01*
X158778894Y-31908566D01*
X158803955Y-31905966D01*
X158823264Y-31902118D01*
X158839909Y-31896618D01*
X158851152Y-31891789D01*
X158895226Y-31865651D01*
X158927502Y-31832379D01*
X158948651Y-31790741D01*
X158959340Y-31739505D01*
X158960781Y-31689841D01*
X158953082Y-31662834D01*
X158936699Y-31639140D01*
X158916306Y-31620376D01*
X158891391Y-31606768D01*
X158859654Y-31597765D01*
X158818797Y-31592819D01*
X158766521Y-31591380D01*
X158738164Y-31591742D01*
X158641878Y-31593851D01*
X158617474Y-31732752D01*
X158609488Y-31778075D01*
X158602136Y-31819570D01*
X158595911Y-31854459D01*
X158591310Y-31879967D01*
X158588895Y-31892972D01*
X158584720Y-31914293D01*
X158496447Y-31914293D01*
X158504040Y-31870840D01*
X158515329Y-31806464D01*
X158526223Y-31744594D01*
X158536419Y-31686958D01*
X158545615Y-31635287D01*
X158553510Y-31591309D01*
X158559800Y-31556752D01*
X158564184Y-31533347D01*
X158566150Y-31523671D01*
X158570250Y-31506047D01*
X158733226Y-31509130D01*
G37*
G36*
X163374061Y-31535329D02*
G01*
X163377368Y-31548252D01*
X163383910Y-31574180D01*
X163393295Y-31611547D01*
X163405130Y-31658786D01*
X163419024Y-31714330D01*
X163434585Y-31776614D01*
X163451419Y-31844070D01*
X163468591Y-31912947D01*
X163486129Y-31983269D01*
X163502648Y-32049398D01*
X163517777Y-32109852D01*
X163531143Y-32163152D01*
X163542374Y-32207817D01*
X163551100Y-32242365D01*
X163556948Y-32265316D01*
X163559546Y-32275189D01*
X163559554Y-32275214D01*
X163559997Y-32282316D01*
X163553953Y-32286294D01*
X163538462Y-32288015D01*
X163514769Y-32288353D01*
X163466023Y-32288353D01*
X163441580Y-32183240D01*
X163417137Y-32078126D01*
X163217650Y-32078403D01*
X163018164Y-32078679D01*
X162958099Y-32183240D01*
X162898034Y-32287800D01*
X162851108Y-32288077D01*
X162826793Y-32287739D01*
X162809834Y-32286586D01*
X162804182Y-32285054D01*
X162807942Y-32278202D01*
X162818773Y-32259610D01*
X162836007Y-32230403D01*
X162858971Y-32191707D01*
X162886997Y-32144647D01*
X162919414Y-32090350D01*
X162955550Y-32029941D01*
X162981789Y-31986151D01*
X163076642Y-31986151D01*
X163078487Y-31989356D01*
X163087911Y-31991790D01*
X163106376Y-31993538D01*
X163135347Y-31994687D01*
X163176286Y-31995324D01*
X163230658Y-31995535D01*
X163235602Y-31995536D01*
X163289045Y-31995463D01*
X163329266Y-31995144D01*
X163358062Y-31994431D01*
X163377228Y-31993175D01*
X163388557Y-31991228D01*
X163393846Y-31988441D01*
X163394890Y-31984666D01*
X163394392Y-31982397D01*
X163391513Y-31971572D01*
X163385600Y-31948410D01*
X163377218Y-31915155D01*
X163366930Y-31874050D01*
X163355300Y-31827337D01*
X163348600Y-31800325D01*
X163336495Y-31751657D01*
X163325425Y-31707523D01*
X163315952Y-31670131D01*
X163308636Y-31641687D01*
X163304038Y-31624397D01*
X163302868Y-31620434D01*
X163298130Y-31623549D01*
X163286707Y-31638513D01*
X163269372Y-31664144D01*
X163246900Y-31699259D01*
X163220067Y-31742675D01*
X163189699Y-31793121D01*
X163161355Y-31840857D01*
X163135479Y-31884632D01*
X163113084Y-31922718D01*
X163095184Y-31953387D01*
X163082791Y-31974909D01*
X163076916Y-31985556D01*
X163076642Y-31986151D01*
X162981789Y-31986151D01*
X162994736Y-31964545D01*
X163035570Y-31896508D01*
X163266958Y-31511262D01*
X163316745Y-31509051D01*
X163366533Y-31506839D01*
X163374061Y-31535329D01*
G37*
G36*
X159645427Y-31507696D02*
G01*
X159678940Y-31508642D01*
X159703058Y-31510532D01*
X159719186Y-31513664D01*
X159728728Y-31518340D01*
X159733089Y-31524860D01*
X159733675Y-31533523D01*
X159731889Y-31544631D01*
X159729136Y-31558483D01*
X159728556Y-31561830D01*
X159723921Y-31589874D01*
X159505718Y-31591863D01*
X159287515Y-31593851D01*
X159270491Y-31691457D01*
X159263701Y-31730320D01*
X159257463Y-31765904D01*
X159252429Y-31794499D01*
X159249251Y-31812390D01*
X159249057Y-31813464D01*
X159244648Y-31837866D01*
X159414262Y-31837866D01*
X159583875Y-31837866D01*
X159579125Y-31866021D01*
X159576464Y-31883539D01*
X159573909Y-31896858D01*
X159569574Y-31906548D01*
X159561574Y-31913182D01*
X159548027Y-31917328D01*
X159527046Y-31919558D01*
X159496748Y-31920442D01*
X159455247Y-31920551D01*
X159400660Y-31920455D01*
X159399336Y-31920455D01*
X159231506Y-31920455D01*
X159227099Y-31941102D01*
X159221995Y-31966592D01*
X159215784Y-31999980D01*
X159209002Y-32038086D01*
X159202187Y-32077729D01*
X159195874Y-32115729D01*
X159190601Y-32148905D01*
X159186903Y-32174075D01*
X159185319Y-32188060D01*
X159185296Y-32188871D01*
X159185264Y-32205764D01*
X159400228Y-32205764D01*
X159615192Y-32205764D01*
X159610538Y-32233919D01*
X159607409Y-32256104D01*
X159605840Y-32273565D01*
X159605802Y-32275214D01*
X159604959Y-32278708D01*
X159601510Y-32281523D01*
X159594001Y-32283732D01*
X159580979Y-32285409D01*
X159560990Y-32286626D01*
X159532580Y-32287455D01*
X159494298Y-32287969D01*
X159444687Y-32288241D01*
X159382297Y-32288343D01*
X159342935Y-32288353D01*
X159272257Y-32288283D01*
X159215202Y-32288033D01*
X159170377Y-32287544D01*
X159136389Y-32286758D01*
X159111847Y-32285617D01*
X159095356Y-32284062D01*
X159085524Y-32282034D01*
X159080958Y-32279475D01*
X159080150Y-32277307D01*
X159081411Y-32268270D01*
X159084993Y-32246176D01*
X159090594Y-32212755D01*
X159097911Y-32169735D01*
X159106643Y-32118845D01*
X159116489Y-32061814D01*
X159127144Y-32000371D01*
X159138309Y-31936244D01*
X159149681Y-31871163D01*
X159160957Y-31806856D01*
X159171837Y-31745052D01*
X159182017Y-31687480D01*
X159191196Y-31635869D01*
X159199072Y-31591948D01*
X159205343Y-31557445D01*
X159209707Y-31534090D01*
X159211666Y-31524401D01*
X159215582Y-31507508D01*
X159474470Y-31507508D01*
X159544597Y-31507429D01*
X159601114Y-31507391D01*
X159645427Y-31507696D01*
G37*
G36*
X162761301Y-31507696D02*
G01*
X162794814Y-31508642D01*
X162818932Y-31510532D01*
X162835059Y-31513664D01*
X162844602Y-31518340D01*
X162848963Y-31524860D01*
X162849548Y-31533523D01*
X162847762Y-31544631D01*
X162845009Y-31558483D01*
X162844430Y-31561830D01*
X162839794Y-31589874D01*
X162621592Y-31591863D01*
X162403389Y-31593851D01*
X162386364Y-31691457D01*
X162379574Y-31730320D01*
X162373336Y-31765904D01*
X162368302Y-31794499D01*
X162365125Y-31812390D01*
X162364931Y-31813464D01*
X162360522Y-31837866D01*
X162530135Y-31837866D01*
X162699749Y-31837866D01*
X162694999Y-31866021D01*
X162692338Y-31883539D01*
X162689782Y-31896858D01*
X162685447Y-31906548D01*
X162677448Y-31913182D01*
X162663900Y-31917328D01*
X162642919Y-31919558D01*
X162612621Y-31920442D01*
X162571120Y-31920551D01*
X162516533Y-31920455D01*
X162515210Y-31920455D01*
X162347379Y-31920455D01*
X162342972Y-31941102D01*
X162337868Y-31966592D01*
X162331657Y-31999980D01*
X162324876Y-32038086D01*
X162318060Y-32077729D01*
X162311747Y-32115729D01*
X162306474Y-32148905D01*
X162302777Y-32174075D01*
X162301192Y-32188060D01*
X162301169Y-32188871D01*
X162301137Y-32205764D01*
X162516101Y-32205764D01*
X162731065Y-32205764D01*
X162726412Y-32233919D01*
X162723282Y-32256104D01*
X162721714Y-32273565D01*
X162721675Y-32275214D01*
X162720832Y-32278708D01*
X162717383Y-32281523D01*
X162709874Y-32283732D01*
X162696852Y-32285409D01*
X162676863Y-32286626D01*
X162648454Y-32287455D01*
X162610171Y-32287969D01*
X162560561Y-32288241D01*
X162498170Y-32288343D01*
X162458808Y-32288353D01*
X162388130Y-32288283D01*
X162331075Y-32288033D01*
X162286250Y-32287544D01*
X162252263Y-32286758D01*
X162227720Y-32285617D01*
X162211229Y-32284062D01*
X162201397Y-32282034D01*
X162196832Y-32279475D01*
X162196024Y-32277307D01*
X162197285Y-32268270D01*
X162200866Y-32246176D01*
X162206467Y-32212755D01*
X162213785Y-32169735D01*
X162222517Y-32118845D01*
X162232362Y-32061814D01*
X162243018Y-32000371D01*
X162254183Y-31936244D01*
X162265554Y-31871163D01*
X162276831Y-31806856D01*
X162287710Y-31745052D01*
X162297890Y-31687480D01*
X162307070Y-31635869D01*
X162314946Y-31591948D01*
X162321216Y-31557445D01*
X162325580Y-31534090D01*
X162327539Y-31524401D01*
X162331456Y-31507508D01*
X162590343Y-31507508D01*
X162660470Y-31507429D01*
X162716988Y-31507391D01*
X162761301Y-31507696D01*
G37*
G36*
X165088820Y-31507696D02*
G01*
X165122334Y-31508642D01*
X165146452Y-31510532D01*
X165162579Y-31513664D01*
X165172122Y-31518340D01*
X165176483Y-31524860D01*
X165177068Y-31533523D01*
X165175282Y-31544631D01*
X165172529Y-31558483D01*
X165171950Y-31561830D01*
X165167314Y-31589874D01*
X164949112Y-31591863D01*
X164730909Y-31593851D01*
X164713884Y-31691457D01*
X164707094Y-31730320D01*
X164700856Y-31765904D01*
X164695822Y-31794499D01*
X164692644Y-31812390D01*
X164692451Y-31813464D01*
X164688042Y-31837866D01*
X164857655Y-31837866D01*
X165027269Y-31837866D01*
X165022519Y-31866021D01*
X165019858Y-31883539D01*
X165017302Y-31896858D01*
X165012967Y-31906548D01*
X165004968Y-31913182D01*
X164991420Y-31917328D01*
X164970439Y-31919558D01*
X164940141Y-31920442D01*
X164898640Y-31920551D01*
X164844053Y-31920455D01*
X164842730Y-31920455D01*
X164674899Y-31920455D01*
X164670492Y-31941102D01*
X164665388Y-31966592D01*
X164659177Y-31999980D01*
X164652396Y-32038086D01*
X164645580Y-32077729D01*
X164639267Y-32115729D01*
X164633994Y-32148905D01*
X164630297Y-32174075D01*
X164628712Y-32188060D01*
X164628689Y-32188871D01*
X164628657Y-32205764D01*
X164843621Y-32205764D01*
X165058585Y-32205764D01*
X165053932Y-32233919D01*
X165050802Y-32256104D01*
X165049234Y-32273565D01*
X165049195Y-32275214D01*
X165048352Y-32278708D01*
X165044903Y-32281523D01*
X165037394Y-32283732D01*
X165024372Y-32285409D01*
X165004383Y-32286626D01*
X164975974Y-32287455D01*
X164937691Y-32287969D01*
X164888081Y-32288241D01*
X164825690Y-32288343D01*
X164786328Y-32288353D01*
X164715650Y-32288283D01*
X164658595Y-32288033D01*
X164613770Y-32287544D01*
X164579783Y-32286758D01*
X164555240Y-32285617D01*
X164538749Y-32284062D01*
X164528917Y-32282034D01*
X164524352Y-32279475D01*
X164523544Y-32277307D01*
X164524805Y-32268270D01*
X164528386Y-32246176D01*
X164533987Y-32212755D01*
X164541305Y-32169735D01*
X164550037Y-32118845D01*
X164559882Y-32061814D01*
X164570538Y-32000371D01*
X164581703Y-31936244D01*
X164593074Y-31871163D01*
X164604351Y-31806856D01*
X164615230Y-31745052D01*
X164625410Y-31687480D01*
X164634589Y-31635869D01*
X164642465Y-31591948D01*
X164648736Y-31557445D01*
X164653100Y-31534090D01*
X164655059Y-31524401D01*
X164658976Y-31507508D01*
X164917863Y-31507508D01*
X164987990Y-31507429D01*
X165044508Y-31507391D01*
X165088820Y-31507696D01*
G37*
G36*
X160047148Y-31509130D02*
G01*
X160102068Y-31510297D01*
X160144383Y-31511606D01*
X160176507Y-31513290D01*
X160200850Y-31515580D01*
X160219826Y-31518708D01*
X160235847Y-31522908D01*
X160251323Y-31528411D01*
X160252595Y-31528908D01*
X160290840Y-31549536D01*
X160324683Y-31578142D01*
X160350479Y-31611075D01*
X160363428Y-31639991D01*
X160371248Y-31694785D01*
X160366187Y-31751731D01*
X160349164Y-31807064D01*
X160321096Y-31857014D01*
X160305943Y-31875808D01*
X160281049Y-31899167D01*
X160250595Y-31921470D01*
X160218646Y-31940311D01*
X160189271Y-31953285D01*
X160166952Y-31957990D01*
X160155797Y-31960663D01*
X160153813Y-31963636D01*
X160156595Y-31971891D01*
X160164399Y-31991961D01*
X160176407Y-32021825D01*
X160191801Y-32059462D01*
X160209766Y-32102854D01*
X160220604Y-32128815D01*
X160287395Y-32288353D01*
X160233231Y-32288353D01*
X160179068Y-32288353D01*
X160118485Y-32136314D01*
X160057902Y-31984274D01*
X159972572Y-31982175D01*
X159887241Y-31980076D01*
X159860839Y-32132338D01*
X159834436Y-32284599D01*
X159791405Y-32286851D01*
X159766350Y-32287377D01*
X159753082Y-32285170D01*
X159748517Y-32279573D01*
X159748374Y-32277681D01*
X159749635Y-32268563D01*
X159753219Y-32246388D01*
X159758824Y-32212887D01*
X159766146Y-32169787D01*
X159774885Y-32118819D01*
X159784738Y-32061711D01*
X159795403Y-32000192D01*
X159806579Y-31935992D01*
X159811917Y-31905439D01*
X159900776Y-31905439D01*
X160002893Y-31905255D01*
X160043945Y-31904614D01*
X160082690Y-31902994D01*
X160115063Y-31900631D01*
X160136995Y-31897760D01*
X160138796Y-31897378D01*
X160187131Y-31879289D01*
X160226260Y-31849693D01*
X160255167Y-31809672D01*
X160272839Y-31760303D01*
X160274253Y-31753280D01*
X160277947Y-31707027D01*
X160269913Y-31669085D01*
X160249722Y-31637877D01*
X160240524Y-31628968D01*
X160216652Y-31612700D01*
X160186462Y-31601255D01*
X160147799Y-31594220D01*
X160098506Y-31591179D01*
X160045151Y-31591466D01*
X159955259Y-31593851D01*
X159945795Y-31650162D01*
X159940696Y-31680000D01*
X159933837Y-31719449D01*
X159926121Y-31763347D01*
X159918553Y-31805956D01*
X159900776Y-31905439D01*
X159811917Y-31905439D01*
X159817962Y-31870840D01*
X159829252Y-31806464D01*
X159840146Y-31744594D01*
X159850342Y-31686958D01*
X159859538Y-31635287D01*
X159867432Y-31591309D01*
X159873723Y-31556752D01*
X159878107Y-31533347D01*
X159880073Y-31523671D01*
X159884173Y-31506047D01*
X160047148Y-31509130D01*
G37*
G36*
X157906349Y-30471758D02*
G01*
X157928825Y-30473120D01*
X157941240Y-30475844D01*
X157946064Y-30480300D01*
X157946423Y-30482656D01*
X157945150Y-30492604D01*
X157941545Y-30515451D01*
X157935925Y-30549315D01*
X157928610Y-30592314D01*
X157919917Y-30642567D01*
X157910165Y-30698192D01*
X157905244Y-30726010D01*
X157890013Y-30809719D01*
X157876182Y-30880200D01*
X157863167Y-30939110D01*
X157850385Y-30988104D01*
X157837252Y-31028839D01*
X157823187Y-31062973D01*
X157807606Y-31092161D01*
X157789925Y-31118059D01*
X157769562Y-31142326D01*
X157752427Y-31160203D01*
X157700180Y-31202277D01*
X157638817Y-31234494D01*
X157571208Y-31256040D01*
X157500222Y-31266105D01*
X157428730Y-31263876D01*
X157401383Y-31259509D01*
X157341919Y-31241297D01*
X157292933Y-31212330D01*
X157254449Y-31172632D01*
X157226492Y-31122225D01*
X157210501Y-31068472D01*
X157207302Y-31050113D01*
X157205397Y-31031061D01*
X157204964Y-31009671D01*
X157206184Y-30984297D01*
X157209234Y-30953293D01*
X157214296Y-30915012D01*
X157221548Y-30867810D01*
X157231169Y-30810039D01*
X157243339Y-30740055D01*
X157251030Y-30696630D01*
X157290422Y-30475140D01*
X157366900Y-30473001D01*
X157401914Y-30472323D01*
X157424495Y-30472861D01*
X157437201Y-30474935D01*
X157442589Y-30478869D01*
X157443378Y-30482629D01*
X157442104Y-30493182D01*
X157438534Y-30516229D01*
X157433048Y-30549488D01*
X157426027Y-30590677D01*
X157417851Y-30637515D01*
X157413649Y-30661210D01*
X157399942Y-30738504D01*
X157388778Y-30802523D01*
X157379948Y-30854752D01*
X157373245Y-30896679D01*
X157368462Y-30929789D01*
X157365392Y-30955570D01*
X157363826Y-30975509D01*
X157363558Y-30991091D01*
X157364380Y-31003804D01*
X157365089Y-31009245D01*
X157378284Y-31051442D01*
X157403158Y-31086026D01*
X157427846Y-31105011D01*
X157454892Y-31114815D01*
X157490738Y-31119781D01*
X157529903Y-31119720D01*
X157566909Y-31114442D01*
X157581383Y-31110319D01*
X157621527Y-31088913D01*
X157657255Y-31055125D01*
X157686659Y-31011376D01*
X157707829Y-30960089D01*
X157712097Y-30944398D01*
X157715020Y-30930460D01*
X157719998Y-30904709D01*
X157726631Y-30869365D01*
X157734520Y-30826646D01*
X157743268Y-30778769D01*
X157752474Y-30727954D01*
X157761741Y-30676418D01*
X157770668Y-30626380D01*
X157778857Y-30580059D01*
X157785910Y-30539672D01*
X157791428Y-30507438D01*
X157795010Y-30485575D01*
X157796260Y-30476345D01*
X157803238Y-30474264D01*
X157822052Y-30472612D01*
X157849524Y-30471601D01*
X157871341Y-30471386D01*
X157906349Y-30471758D01*
G37*
G36*
X164248207Y-31507433D02*
G01*
X164311464Y-31531449D01*
X164366290Y-31566789D01*
X164380555Y-31579249D01*
X164400225Y-31600573D01*
X164419294Y-31626167D01*
X164435806Y-31652677D01*
X164447803Y-31676749D01*
X164453328Y-31695028D01*
X164452405Y-31702414D01*
X164443782Y-31707240D01*
X164426002Y-31713199D01*
X164404076Y-31719045D01*
X164383012Y-31723530D01*
X164367819Y-31725408D01*
X164363409Y-31724572D01*
X164358649Y-31716847D01*
X164348936Y-31700269D01*
X164340763Y-31686080D01*
X164309293Y-31645408D01*
X164268309Y-31614344D01*
X164219839Y-31592887D01*
X164165909Y-31581040D01*
X164108548Y-31578801D01*
X164049781Y-31586172D01*
X163991636Y-31603153D01*
X163936141Y-31629744D01*
X163885321Y-31665946D01*
X163863922Y-31685980D01*
X163822961Y-31736470D01*
X163790702Y-31793923D01*
X163767742Y-31855635D01*
X163754680Y-31918899D01*
X163752115Y-31981010D01*
X163760645Y-32039262D01*
X163776293Y-32082161D01*
X163808119Y-32131230D01*
X163849953Y-32169296D01*
X163901286Y-32196073D01*
X163961611Y-32211278D01*
X164013626Y-32214921D01*
X164086759Y-32209561D01*
X164153524Y-32192424D01*
X164217147Y-32162422D01*
X164266165Y-32129764D01*
X164290210Y-32110801D01*
X164306235Y-32094142D01*
X164316810Y-32075371D01*
X164324504Y-32050075D01*
X164331041Y-32018344D01*
X164341032Y-31965504D01*
X164225354Y-31965504D01*
X164109676Y-31965504D01*
X164114768Y-31929840D01*
X164118803Y-31907647D01*
X164123237Y-31891991D01*
X164125145Y-31888389D01*
X164133929Y-31886738D01*
X164155402Y-31885469D01*
X164187241Y-31884637D01*
X164227121Y-31884295D01*
X164272719Y-31884500D01*
X164284153Y-31884635D01*
X164437875Y-31886668D01*
X164402289Y-32085634D01*
X164392876Y-32138251D01*
X164384366Y-32185784D01*
X164377107Y-32226303D01*
X164371444Y-32257876D01*
X164367723Y-32278573D01*
X164366291Y-32286461D01*
X164366288Y-32286476D01*
X164359270Y-32287537D01*
X164341739Y-32288218D01*
X164327373Y-32288353D01*
X164288872Y-32288353D01*
X164293787Y-32256444D01*
X164298202Y-32228888D01*
X164302710Y-32202346D01*
X164303381Y-32198584D01*
X164308060Y-32172633D01*
X164275024Y-32201011D01*
X164217989Y-32240813D01*
X164151976Y-32271346D01*
X164080475Y-32291703D01*
X164006979Y-32300979D01*
X163934980Y-32298270D01*
X163913219Y-32294799D01*
X163848742Y-32275157D01*
X163791189Y-32243087D01*
X163742118Y-32200104D01*
X163703084Y-32147725D01*
X163675642Y-32087465D01*
X163666703Y-32054610D01*
X163660063Y-31993441D01*
X163664004Y-31926285D01*
X163677693Y-31856917D01*
X163700299Y-31789111D01*
X163730990Y-31726640D01*
X163743291Y-31707028D01*
X163796822Y-31639705D01*
X163858915Y-31584628D01*
X163928943Y-31542165D01*
X164006280Y-31512685D01*
X164090298Y-31496558D01*
X164102962Y-31495353D01*
X164178159Y-31495235D01*
X164248207Y-31507433D01*
G37*
G36*
X157444485Y-31500655D02*
G01*
X157484974Y-31508754D01*
X157489554Y-31510177D01*
X157539582Y-31533371D01*
X157578597Y-31566078D01*
X157605832Y-31607444D01*
X157620354Y-31655573D01*
X157622588Y-31668562D01*
X157622727Y-31677423D01*
X157618418Y-31683826D01*
X157607310Y-31689438D01*
X157587048Y-31695927D01*
X157555280Y-31704961D01*
X157547605Y-31707144D01*
X157539051Y-31705792D01*
X157533376Y-31693907D01*
X157530438Y-31679230D01*
X157518692Y-31647825D01*
X157495980Y-31618410D01*
X157466200Y-31595091D01*
X157439455Y-31583456D01*
X157401914Y-31577107D01*
X157357102Y-31575530D01*
X157311949Y-31578612D01*
X157273674Y-31586153D01*
X157234475Y-31603743D01*
X157203463Y-31629307D01*
X157181289Y-31660415D01*
X157168604Y-31694637D01*
X157166059Y-31729542D01*
X157174308Y-31762700D01*
X157193999Y-31791679D01*
X157214274Y-31807767D01*
X157231533Y-31815724D01*
X157259748Y-31825755D01*
X157295222Y-31836657D01*
X157334254Y-31847228D01*
X157340217Y-31848718D01*
X157391166Y-31861680D01*
X157430069Y-31872688D01*
X157459589Y-31882794D01*
X157482393Y-31893050D01*
X157501146Y-31904510D01*
X157518512Y-31918224D01*
X157520395Y-31919866D01*
X157548846Y-31954420D01*
X157565651Y-31996677D01*
X157570650Y-32044669D01*
X157563684Y-32096424D01*
X157544593Y-32149973D01*
X157539888Y-32159587D01*
X157507463Y-32208245D01*
X157464972Y-32246236D01*
X157411638Y-32274196D01*
X157390821Y-32281553D01*
X157347798Y-32291664D01*
X157297122Y-32298128D01*
X157244386Y-32300658D01*
X157195184Y-32298967D01*
X157158069Y-32293488D01*
X157100668Y-32274318D01*
X157054192Y-32246452D01*
X157019433Y-32210576D01*
X156997186Y-32167373D01*
X156992447Y-32150403D01*
X156986583Y-32119040D01*
X156986949Y-32098608D01*
X156995011Y-32085799D01*
X157012233Y-32077303D01*
X157026686Y-32073128D01*
X157052612Y-32066602D01*
X157067211Y-32064528D01*
X157073733Y-32067755D01*
X157075428Y-32077133D01*
X157075480Y-32085875D01*
X157082573Y-32123447D01*
X157102193Y-32158191D01*
X157131852Y-32187223D01*
X157169061Y-32207657D01*
X157184824Y-32212609D01*
X157225435Y-32218910D01*
X157272827Y-32220348D01*
X157319922Y-32217054D01*
X157359070Y-32209333D01*
X157405044Y-32188524D01*
X157440843Y-32157006D01*
X157465483Y-32115941D01*
X157477712Y-32068765D01*
X157476487Y-32031932D01*
X157462500Y-32000963D01*
X157435352Y-31975488D01*
X157394646Y-31955136D01*
X157339982Y-31939536D01*
X157338412Y-31939199D01*
X157264041Y-31921462D01*
X157203619Y-31902549D01*
X157156087Y-31881695D01*
X157120384Y-31858137D01*
X157095451Y-31831113D01*
X157080226Y-31799859D01*
X157073649Y-31763611D01*
X157073197Y-31748273D01*
X157080429Y-31686951D01*
X157100845Y-31632013D01*
X157133538Y-31584650D01*
X157177602Y-31546054D01*
X157232131Y-31517418D01*
X157254689Y-31509612D01*
X157295399Y-31501144D01*
X157344240Y-31496837D01*
X157395754Y-31496679D01*
X157444485Y-31500655D01*
G37*
G36*
X158513286Y-30497665D02*
G01*
X158556174Y-30526173D01*
X158586027Y-30561931D01*
X158602558Y-30604246D01*
X158605478Y-30652429D01*
X158596919Y-30697908D01*
X158580298Y-30736279D01*
X158554853Y-30772953D01*
X158524372Y-30803237D01*
X158498467Y-30819917D01*
X158481650Y-30828524D01*
X158472531Y-30834408D01*
X158471992Y-30835213D01*
X158478117Y-30839738D01*
X158493776Y-30848307D01*
X158505982Y-30854400D01*
X158543321Y-30879766D01*
X158569586Y-30912934D01*
X158585102Y-30951929D01*
X158590194Y-30994778D01*
X158585187Y-31039506D01*
X158570407Y-31084140D01*
X158546178Y-31126706D01*
X158512825Y-31165229D01*
X158470674Y-31197737D01*
X158447310Y-31210674D01*
X158421255Y-31222767D01*
X158396539Y-31232290D01*
X158370901Y-31239542D01*
X158342079Y-31244824D01*
X158307810Y-31248433D01*
X158265833Y-31250669D01*
X158213886Y-31251832D01*
X158149707Y-31252220D01*
X158133101Y-31252232D01*
X157953931Y-31252232D01*
X157954375Y-31235338D01*
X157955741Y-31224793D01*
X157959491Y-31200947D01*
X157965373Y-31165280D01*
X157973065Y-31119682D01*
X158126705Y-31119682D01*
X158133723Y-31121806D01*
X158153042Y-31123248D01*
X158181956Y-31123912D01*
X158217761Y-31123697D01*
X158229854Y-31123436D01*
X158272484Y-31122120D01*
X158303252Y-31120349D01*
X158325314Y-31117644D01*
X158341823Y-31113526D01*
X158355935Y-31107516D01*
X158364116Y-31103061D01*
X158396545Y-31076365D01*
X158418092Y-31041128D01*
X158426843Y-31000614D01*
X158426943Y-30995727D01*
X158424077Y-30966124D01*
X158414475Y-30943505D01*
X158396633Y-30927078D01*
X158369047Y-30916049D01*
X158330212Y-30909626D01*
X158278624Y-30907017D01*
X158258251Y-30906858D01*
X158222638Y-30906998D01*
X158193191Y-30907381D01*
X158172755Y-30907951D01*
X158164170Y-30908650D01*
X158164071Y-30908735D01*
X158162761Y-30916384D01*
X158159229Y-30936067D01*
X158153968Y-30965049D01*
X158147474Y-31000596D01*
X158145388Y-31011971D01*
X158138594Y-31049412D01*
X158132899Y-31081570D01*
X158128806Y-31105550D01*
X158126816Y-31118458D01*
X158126705Y-31119682D01*
X157973065Y-31119682D01*
X157973134Y-31119274D01*
X157982523Y-31064411D01*
X157993287Y-31002171D01*
X158005175Y-30934037D01*
X158017933Y-30861490D01*
X158020529Y-30846793D01*
X158029821Y-30794236D01*
X158184764Y-30794236D01*
X158253726Y-30794236D01*
X158289187Y-30793284D01*
X158323252Y-30790752D01*
X158350067Y-30787122D01*
X158356264Y-30785781D01*
X158392578Y-30770422D01*
X158420647Y-30746264D01*
X158438829Y-30716057D01*
X158445482Y-30682550D01*
X158438963Y-30648491D01*
X158438691Y-30647832D01*
X158427361Y-30628485D01*
X158410575Y-30614711D01*
X158386075Y-30605732D01*
X158351600Y-30600771D01*
X158304890Y-30599051D01*
X158296746Y-30599024D01*
X158218623Y-30599024D01*
X158206700Y-30664721D01*
X158200562Y-30699042D01*
X158194844Y-30731882D01*
X158190559Y-30757396D01*
X158189770Y-30762326D01*
X158184764Y-30794236D01*
X158029821Y-30794236D01*
X158086238Y-30475140D01*
X158277238Y-30475140D01*
X158468238Y-30475140D01*
X158513286Y-30497665D01*
G37*
G36*
X160645595Y-31507534D02*
G01*
X160735677Y-31743402D01*
X160762089Y-31811802D01*
X160784747Y-31868902D01*
X160803412Y-31914138D01*
X160817843Y-31946948D01*
X160827801Y-31966767D01*
X160833047Y-31973032D01*
X160833283Y-31972909D01*
X160839295Y-31965612D01*
X160853169Y-31947574D01*
X160873883Y-31920161D01*
X160900413Y-31884739D01*
X160931737Y-31842673D01*
X160966833Y-31795329D01*
X161004678Y-31744073D01*
X161009739Y-31737204D01*
X161178672Y-31507858D01*
X161226104Y-31507683D01*
X161251892Y-31508072D01*
X161265686Y-31510073D01*
X161270494Y-31514577D01*
X161269871Y-31520647D01*
X161267895Y-31530425D01*
X161263603Y-31553545D01*
X161257254Y-31588555D01*
X161249107Y-31634004D01*
X161239420Y-31688440D01*
X161228454Y-31750410D01*
X161216466Y-31818465D01*
X161203716Y-31891150D01*
X161200231Y-31911070D01*
X161134256Y-32288353D01*
X161090768Y-32288353D01*
X161064412Y-32287261D01*
X161050690Y-32283626D01*
X161047280Y-32278011D01*
X161048573Y-32268297D01*
X161052213Y-32245814D01*
X161057844Y-32212563D01*
X161065109Y-32170544D01*
X161073649Y-32121759D01*
X161083109Y-32068209D01*
X161093131Y-32011895D01*
X161103357Y-31954818D01*
X161113431Y-31898979D01*
X161122995Y-31846380D01*
X161131693Y-31799022D01*
X161139166Y-31758905D01*
X161145059Y-31728031D01*
X161148570Y-31710492D01*
X161153436Y-31685436D01*
X161156286Y-31667015D01*
X161156512Y-31659287D01*
X161151468Y-31663879D01*
X161140025Y-31678122D01*
X161124320Y-31699307D01*
X161118109Y-31708005D01*
X161103824Y-31727943D01*
X161082246Y-31757730D01*
X161055000Y-31795135D01*
X161023715Y-31837929D01*
X160990018Y-31883881D01*
X160958980Y-31926086D01*
X160922676Y-31975321D01*
X160894065Y-32013786D01*
X160871946Y-32042811D01*
X160855118Y-32063724D01*
X160842379Y-32077856D01*
X160832529Y-32086534D01*
X160824367Y-32091089D01*
X160816690Y-32092848D01*
X160808297Y-32093142D01*
X160807988Y-32093142D01*
X160780028Y-32093142D01*
X160728116Y-31959873D01*
X160708932Y-31910307D01*
X160688994Y-31858250D01*
X160669996Y-31808156D01*
X160653629Y-31764481D01*
X160644697Y-31740260D01*
X160631220Y-31704243D01*
X160621612Y-31681094D01*
X160615121Y-31669394D01*
X160610996Y-31667724D01*
X160608887Y-31672687D01*
X160606510Y-31684927D01*
X160602012Y-31709814D01*
X160595773Y-31745188D01*
X160588170Y-31788890D01*
X160579581Y-31838759D01*
X160570761Y-31890423D01*
X160560637Y-31949827D01*
X160550283Y-32010302D01*
X160540283Y-32068460D01*
X160531221Y-32120912D01*
X160523680Y-32164270D01*
X160519690Y-32186994D01*
X160502440Y-32284599D01*
X160459519Y-32286851D01*
X160434502Y-32287375D01*
X160421269Y-32285156D01*
X160416734Y-32279535D01*
X160416597Y-32277681D01*
X160417858Y-32268598D01*
X160421439Y-32246459D01*
X160427040Y-32212992D01*
X160434356Y-32169928D01*
X160443088Y-32118996D01*
X160452933Y-32061925D01*
X160463588Y-32000444D01*
X160474753Y-31936283D01*
X160486124Y-31871171D01*
X160497401Y-31806837D01*
X160508281Y-31745011D01*
X160518463Y-31687421D01*
X160527644Y-31635798D01*
X160535522Y-31591870D01*
X160541796Y-31557367D01*
X160546164Y-31534018D01*
X160548113Y-31524401D01*
X160551731Y-31515090D01*
X160559593Y-31510005D01*
X160575438Y-31507899D01*
X160598812Y-31507521D01*
X160645595Y-31507534D01*
G37*
G36*
X157326081Y-29948539D02*
G01*
X157364410Y-29950769D01*
X157417045Y-29954458D01*
X157484157Y-29959611D01*
X157565915Y-29966232D01*
X157637455Y-29972207D01*
X158174441Y-30019756D01*
X158721674Y-30072604D01*
X159275490Y-30130394D01*
X159474327Y-30152179D01*
X159871145Y-30197333D01*
X160256127Y-30243435D01*
X160629129Y-30290455D01*
X160990011Y-30338361D01*
X161338628Y-30387125D01*
X161674840Y-30436717D01*
X161998504Y-30487106D01*
X162309477Y-30538263D01*
X162607617Y-30590157D01*
X162892782Y-30642758D01*
X163164830Y-30696038D01*
X163423618Y-30749965D01*
X163669004Y-30804510D01*
X163900846Y-30859642D01*
X164119001Y-30915332D01*
X164323327Y-30971551D01*
X164513681Y-31028267D01*
X164689923Y-31085450D01*
X164851908Y-31143072D01*
X164999495Y-31201102D01*
X165132541Y-31259510D01*
X165250905Y-31318266D01*
X165354444Y-31377340D01*
X165384879Y-31396603D01*
X165464207Y-31454708D01*
X165528964Y-31516406D01*
X165579180Y-31581775D01*
X165614883Y-31650893D01*
X165636103Y-31723836D01*
X165642868Y-31800682D01*
X165635207Y-31881509D01*
X165613149Y-31966393D01*
X165605190Y-31988786D01*
X165575375Y-32053169D01*
X165533244Y-32121405D01*
X165480361Y-32191619D01*
X165418293Y-32261940D01*
X165348604Y-32330493D01*
X165272860Y-32395407D01*
X165251164Y-32412381D01*
X165219373Y-32436129D01*
X165185907Y-32460064D01*
X165152220Y-32483288D01*
X165119767Y-32504900D01*
X165090002Y-32524003D01*
X165064380Y-32539697D01*
X165044355Y-32551083D01*
X165031382Y-32557262D01*
X165026915Y-32557335D01*
X165032410Y-32550403D01*
X165042244Y-32541515D01*
X165056385Y-32529847D01*
X165078832Y-32511838D01*
X165106016Y-32490340D01*
X165124262Y-32476057D01*
X165173084Y-32435434D01*
X165225926Y-32387082D01*
X165279282Y-32334530D01*
X165329650Y-32281306D01*
X165373524Y-32230940D01*
X165396783Y-32201562D01*
X165440260Y-32138455D01*
X165479124Y-32071724D01*
X165510836Y-32006042D01*
X165529154Y-31957996D01*
X165547105Y-31880678D01*
X165550271Y-31804572D01*
X165538871Y-31730303D01*
X165513124Y-31658497D01*
X165473251Y-31589777D01*
X165419470Y-31524770D01*
X165357180Y-31468205D01*
X165292637Y-31420535D01*
X165221582Y-31375868D01*
X165143060Y-31333854D01*
X165056115Y-31294143D01*
X164959791Y-31256384D01*
X164853132Y-31220226D01*
X164735183Y-31185318D01*
X164604988Y-31151310D01*
X164461591Y-31117852D01*
X164320824Y-31087994D01*
X164114314Y-31048100D01*
X163918677Y-31014893D01*
X163731454Y-30988149D01*
X163550187Y-30967645D01*
X163372415Y-30953159D01*
X163195682Y-30944467D01*
X163017526Y-30941347D01*
X162835489Y-30943576D01*
X162755379Y-30946125D01*
X162671569Y-30948905D01*
X162583312Y-30951194D01*
X162492326Y-30952992D01*
X162400328Y-30954298D01*
X162309035Y-30955113D01*
X162220163Y-30955436D01*
X162135430Y-30955269D01*
X162056553Y-30954610D01*
X161985248Y-30953460D01*
X161923233Y-30951819D01*
X161872224Y-30949688D01*
X161833939Y-30947065D01*
X161824371Y-30946090D01*
X161773827Y-30940178D01*
X161729167Y-30934537D01*
X161688471Y-30928725D01*
X161649817Y-30922302D01*
X161611284Y-30914825D01*
X161570951Y-30905853D01*
X161526897Y-30894946D01*
X161477201Y-30881662D01*
X161419941Y-30865560D01*
X161353196Y-30846198D01*
X161275046Y-30823136D01*
X161227475Y-30809003D01*
X161035190Y-30751834D01*
X160856790Y-30698868D01*
X160691788Y-30649963D01*
X160539694Y-30604975D01*
X160400021Y-30563765D01*
X160272280Y-30526188D01*
X160155982Y-30492105D01*
X160050640Y-30461371D01*
X159955764Y-30433846D01*
X159870866Y-30409388D01*
X159795458Y-30387854D01*
X159729052Y-30369102D01*
X159671158Y-30352991D01*
X159621289Y-30339379D01*
X159578956Y-30328123D01*
X159543671Y-30319081D01*
X159534539Y-30316816D01*
X159449790Y-30297075D01*
X159350597Y-30275938D01*
X159237456Y-30253489D01*
X159110867Y-30229813D01*
X158971327Y-30204994D01*
X158819335Y-30179118D01*
X158655389Y-30152267D01*
X158479987Y-30124526D01*
X158293628Y-30095980D01*
X158096809Y-30066713D01*
X157890028Y-30036810D01*
X157833801Y-30028815D01*
X157760298Y-30018400D01*
X157686339Y-30007922D01*
X157614371Y-29997728D01*
X157546837Y-29988165D01*
X157486184Y-29979577D01*
X157434857Y-29972312D01*
X157395301Y-29966716D01*
X157387067Y-29965551D01*
X157343113Y-29959120D01*
X157312448Y-29954122D01*
X157295244Y-29950559D01*
X157291668Y-29948439D01*
X157301890Y-29947764D01*
X157326081Y-29948539D01*
G37*
D14*
%TO.C,J3*%
X144825000Y-85190000D02*
X144825000Y-88950000D01*
X144825000Y-85190000D02*
X147270000Y-85190000D01*
X144825000Y-92050000D02*
X144825000Y-95100000D01*
X144825000Y-95100000D02*
X151975000Y-95100000D01*
X149530000Y-85190000D02*
X151975000Y-85190000D01*
X151975000Y-88950000D02*
X151975000Y-85190000D01*
X151975000Y-95100000D02*
X151975000Y-92050000D01*
D15*
X152900000Y-86030000D02*
G75*
G02*
X152700000Y-86030000I-100000J0D01*
G01*
X152700000Y-86030000D02*
G75*
G02*
X152900000Y-86030000I100000J0D01*
G01*
D16*
%TO.C,R3*%
X138722480Y-44390000D02*
X138268352Y-44390000D01*
X138722480Y-45860000D02*
X138268352Y-45860000D01*
%TO.C,R5*%
X138722480Y-51640000D02*
X138268352Y-51640000D01*
X138722480Y-53110000D02*
X138268352Y-53110000D01*
%TO.C,R2*%
X138722480Y-40890000D02*
X138268352Y-40890000D01*
X138722480Y-42360000D02*
X138268352Y-42360000D01*
%TD*%
%LPC*%
D18*
%TO.C,U3*%
G36*
X153629998Y-51527497D02*
G01*
X152974999Y-51527497D01*
X152974999Y-52122498D01*
X153629998Y-52122498D01*
X153629998Y-52797497D01*
X152974999Y-52797497D01*
X152974999Y-53392497D01*
X153629998Y-53392497D01*
X153629998Y-54067500D01*
X152974999Y-54067500D01*
X152974999Y-54662500D01*
X153629998Y-54662500D01*
X153629998Y-55337500D01*
X148679998Y-55337500D01*
X148679998Y-50852500D01*
X153629998Y-50852498D01*
X153629998Y-51527497D01*
G37*
%TO.C,U1*%
G36*
X153835249Y-33012495D02*
G01*
X153180250Y-33012495D01*
X153180250Y-33607496D01*
X153835249Y-33607496D01*
X153835249Y-34282495D01*
X153180250Y-34282495D01*
X153180250Y-34877495D01*
X153835249Y-34877495D01*
X153835249Y-35552498D01*
X153180250Y-35552498D01*
X153180250Y-36147498D01*
X153835249Y-36147498D01*
X153835249Y-36822498D01*
X148885249Y-36822498D01*
X148885249Y-32337498D01*
X153835249Y-32337496D01*
X153835249Y-33012495D01*
G37*
%TO.C,U4*%
G36*
X153473998Y-60712497D02*
G01*
X152818999Y-60712497D01*
X152818999Y-61307498D01*
X153473998Y-61307498D01*
X153473998Y-61982497D01*
X152818999Y-61982497D01*
X152818999Y-62577497D01*
X153473998Y-62577497D01*
X153473998Y-63252500D01*
X152818999Y-63252500D01*
X152818999Y-63847500D01*
X153473998Y-63847500D01*
X153473998Y-64522500D01*
X148523998Y-64522500D01*
X148523998Y-60037500D01*
X153473998Y-60037498D01*
X153473998Y-60712497D01*
G37*
%TO.C,U2*%
G36*
X153629998Y-42277497D02*
G01*
X152974999Y-42277497D01*
X152974999Y-42872498D01*
X153629998Y-42872498D01*
X153629998Y-43547497D01*
X152974999Y-43547497D01*
X152974999Y-44142497D01*
X153629998Y-44142497D01*
X153629998Y-44817500D01*
X152974999Y-44817500D01*
X152974999Y-45412500D01*
X153629998Y-45412500D01*
X153629998Y-46087500D01*
X148679998Y-46087500D01*
X148679998Y-41602500D01*
X153629998Y-41602498D01*
X153629998Y-42277497D01*
G37*
%TD*%
D20*
%TO.C,H3*%
X122900000Y-33100000D03*
%TD*%
%TO.C,H3*%
X184500000Y-33500000D03*
%TD*%
%TO.C,H3*%
X184900000Y-91600000D03*
%TD*%
%TO.C,H3*%
X123200000Y-91300000D03*
%TD*%
D21*
%TO.C,D2*%
X179334500Y-45500000D03*
X159268500Y-45500000D03*
%TD*%
D22*
%TO.C,J5*%
X175100000Y-90820000D03*
X179400000Y-90820000D03*
D23*
X177250000Y-86500000D03*
D24*
X177250000Y-83500000D03*
%TD*%
D25*
%TO.C,J7*%
X129170000Y-33500000D03*
D26*
X131710000Y-33500000D03*
X134250000Y-33500000D03*
X136790000Y-33500000D03*
%TD*%
D22*
%TO.C,J2*%
X132200000Y-90250000D03*
X136500000Y-90250000D03*
D23*
X134350000Y-85930000D03*
D24*
X134350000Y-82930000D03*
%TD*%
D27*
%TO.C,U3*%
X147750000Y-51190000D03*
X147750000Y-52460000D03*
X147750000Y-53730000D03*
X147750000Y-55000000D03*
D28*
X150952499Y-53045000D03*
D29*
X153296499Y-55000000D03*
X153296499Y-53730000D03*
X153296499Y-52460000D03*
X153296499Y-51190000D03*
%TD*%
D30*
%TO.C,C8*%
X131488200Y-74250000D03*
D31*
X137000000Y-74250000D03*
%TD*%
D27*
%TO.C,U1*%
X147955251Y-32674998D03*
X147955251Y-33944998D03*
X147955251Y-35214998D03*
X147955251Y-36484998D03*
D28*
X151157750Y-34529998D03*
D29*
X153501750Y-36484998D03*
X153501750Y-35214998D03*
X153501750Y-33944998D03*
X153501750Y-32674998D03*
%TD*%
D32*
%TO.C,C3*%
X141272201Y-82272201D03*
X142727799Y-82272201D03*
%TD*%
D30*
%TO.C,C6*%
X159910850Y-74250000D03*
D31*
X165422650Y-74250000D03*
%TD*%
D21*
%TO.C,D1*%
X179084500Y-37750000D03*
X159018500Y-37750000D03*
%TD*%
D33*
%TO.C,R8*%
X139495416Y-63375000D03*
X137495416Y-63375000D03*
%TD*%
%TO.C,R4*%
X139495416Y-48625000D03*
X137495416Y-48625000D03*
%TD*%
D30*
%TO.C,C4*%
X145660850Y-74500000D03*
D31*
X151172650Y-74500000D03*
%TD*%
D32*
%TO.C,C1*%
X170544402Y-82750000D03*
X172000000Y-82750000D03*
%TD*%
D34*
%TO.C,J6*%
X123994299Y-39939600D03*
X123994299Y-47239601D03*
D35*
X128314301Y-45089600D03*
X128314301Y-42089601D03*
X131314300Y-45089600D03*
X131314300Y-42089601D03*
%TD*%
D27*
%TO.C,U4*%
X147594000Y-60375000D03*
X147594000Y-61645000D03*
X147594000Y-62915000D03*
X147594000Y-64185000D03*
D28*
X150796499Y-62230000D03*
D29*
X153140499Y-64185000D03*
X153140499Y-62915000D03*
X153140499Y-61645000D03*
X153140499Y-60375000D03*
%TD*%
D33*
%TO.C,R7*%
X139495416Y-59875000D03*
X137495416Y-59875000D03*
%TD*%
D21*
%TO.C,D4*%
X179084500Y-62250000D03*
X159018500Y-62250000D03*
%TD*%
D33*
%TO.C,R6*%
X139495416Y-56125000D03*
X137495416Y-56125000D03*
%TD*%
%TO.C,R1*%
X139495416Y-38035850D03*
X137495416Y-38035850D03*
%TD*%
D22*
%TO.C,J1*%
X123985000Y-55975000D03*
X123985000Y-60275000D03*
D36*
X128305000Y-58125000D03*
D24*
X131305000Y-58125000D03*
%TD*%
D27*
%TO.C,U2*%
X147750000Y-41940000D03*
X147750000Y-43210000D03*
X147750000Y-44480000D03*
X147750000Y-45750000D03*
D28*
X150952499Y-43795000D03*
D29*
X153296499Y-45750000D03*
X153296499Y-44480000D03*
X153296499Y-43210000D03*
X153296499Y-41940000D03*
%TD*%
D25*
%TO.C,J8*%
X125250000Y-67460000D03*
D26*
X125250000Y-70000000D03*
%TD*%
D22*
%TO.C,J4*%
X160500000Y-90500000D03*
X164800000Y-90500000D03*
D23*
X162650000Y-86180000D03*
D24*
X162650000Y-83180000D03*
%TD*%
D21*
%TO.C,D3*%
X179334500Y-54000000D03*
X159268500Y-54000000D03*
%TD*%
D30*
%TO.C,C2*%
X173688200Y-74500000D03*
D31*
X179200000Y-74500000D03*
%TD*%
D32*
%TO.C,C7*%
X127772201Y-82750000D03*
X129227799Y-82750000D03*
%TD*%
D22*
%TO.C,J3*%
X146250000Y-90500000D03*
X150550000Y-90500000D03*
D23*
X148400000Y-86180000D03*
D24*
X148400000Y-83180000D03*
%TD*%
D33*
%TO.C,R3*%
X139495416Y-45125000D03*
X137495416Y-45125000D03*
%TD*%
D32*
%TO.C,C5*%
X155772201Y-82250000D03*
X157227799Y-82250000D03*
%TD*%
D33*
%TO.C,R5*%
X139495416Y-52375000D03*
X137495416Y-52375000D03*
%TD*%
%TO.C,R2*%
X139495416Y-41625000D03*
X137495416Y-41625000D03*
%TD*%
%LPD*%
M02*
