%TF.GenerationSoftware,KiCad,Pcbnew,9.0.5*%
%TF.CreationDate,2025-12-12T18:57:16-08:00*%
%TF.ProjectId,switch_board,73776974-6368-45f6-926f-6172642e6b69,rev?*%
%TF.SameCoordinates,Original*%
%TF.FileFunction,Soldermask,Top*%
%TF.FilePolarity,Negative*%
%FSLAX46Y46*%
G04 Gerber Fmt 4.6, Leading zero omitted, Abs format (unit mm)*
G04 Created by KiCad (PCBNEW 9.0.5) date 2025-12-12 18:57:16*
%MOMM*%
%LPD*%
G01*
G04 APERTURE LIST*
G04 Aperture macros list*
%AMRoundRect*
0 Rectangle with rounded corners*
0 $1 Rounding radius*
0 $2 $3 $4 $5 $6 $7 $8 $9 X,Y pos of 4 corners*
0 Add a 4 corners polygon primitive as box body*
4,1,4,$2,$3,$4,$5,$6,$7,$8,$9,$2,$3,0*
0 Add four circle primitives for the rounded corners*
1,1,$1+$1,$2,$3*
1,1,$1+$1,$4,$5*
1,1,$1+$1,$6,$7*
1,1,$1+$1,$8,$9*
0 Add four rect primitives between the rounded corners*
20,1,$1+$1,$2,$3,$4,$5,0*
20,1,$1+$1,$4,$5,$6,$7,0*
20,1,$1+$1,$6,$7,$8,$9,0*
20,1,$1+$1,$8,$9,$2,$3,0*%
G04 Aperture macros list end*
%ADD10C,0.000000*%
%ADD11C,3.200000*%
%ADD12C,1.828800*%
%ADD13C,2.460000*%
%ADD14RoundRect,0.076200X-0.802500X-0.802500X0.802500X-0.802500X0.802500X0.802500X-0.802500X0.802500X0*%
%ADD15C,1.757400*%
%ADD16R,1.700000X1.700000*%
%ADD17C,1.700000*%
%ADD18R,0.750001X0.675000*%
%ADD19R,4.450000X4.500000*%
%ADD20C,0.599999*%
%ADD21R,1.524000X1.524000*%
%ADD22C,1.524000*%
%ADD23R,1.005599X0.949998*%
%ADD24RoundRect,0.250000X0.350000X0.450000X-0.350000X0.450000X-0.350000X-0.450000X0.350000X-0.450000X0*%
%ADD25C,2.971800*%
%ADD26C,1.574800*%
%ADD27RoundRect,0.076200X-0.802500X0.802500X-0.802500X-0.802500X0.802500X-0.802500X0.802500X0.802500X0*%
G04 APERTURE END LIST*
D10*
%TO.C,U3*%
G36*
X153629998Y-51527497D02*
G01*
X152974999Y-51527497D01*
X152974999Y-52122498D01*
X153629998Y-52122498D01*
X153629998Y-52797497D01*
X152974999Y-52797497D01*
X152974999Y-53392497D01*
X153629998Y-53392497D01*
X153629998Y-54067500D01*
X152974999Y-54067500D01*
X152974999Y-54662500D01*
X153629998Y-54662500D01*
X153629998Y-55337500D01*
X148679998Y-55337500D01*
X148679998Y-50852500D01*
X153629998Y-50852498D01*
X153629998Y-51527497D01*
G37*
%TO.C,U1*%
G36*
X153835249Y-33012495D02*
G01*
X153180250Y-33012495D01*
X153180250Y-33607496D01*
X153835249Y-33607496D01*
X153835249Y-34282495D01*
X153180250Y-34282495D01*
X153180250Y-34877495D01*
X153835249Y-34877495D01*
X153835249Y-35552498D01*
X153180250Y-35552498D01*
X153180250Y-36147498D01*
X153835249Y-36147498D01*
X153835249Y-36822498D01*
X148885249Y-36822498D01*
X148885249Y-32337498D01*
X153835249Y-32337496D01*
X153835249Y-33012495D01*
G37*
%TO.C,U4*%
G36*
X153473998Y-60712497D02*
G01*
X152818999Y-60712497D01*
X152818999Y-61307498D01*
X153473998Y-61307498D01*
X153473998Y-61982497D01*
X152818999Y-61982497D01*
X152818999Y-62577497D01*
X153473998Y-62577497D01*
X153473998Y-63252500D01*
X152818999Y-63252500D01*
X152818999Y-63847500D01*
X153473998Y-63847500D01*
X153473998Y-64522500D01*
X148523998Y-64522500D01*
X148523998Y-60037500D01*
X153473998Y-60037498D01*
X153473998Y-60712497D01*
G37*
%TO.C,U2*%
G36*
X153629998Y-42277497D02*
G01*
X152974999Y-42277497D01*
X152974999Y-42872498D01*
X153629998Y-42872498D01*
X153629998Y-43547497D01*
X152974999Y-43547497D01*
X152974999Y-44142497D01*
X153629998Y-44142497D01*
X153629998Y-44817500D01*
X152974999Y-44817500D01*
X152974999Y-45412500D01*
X153629998Y-45412500D01*
X153629998Y-46087500D01*
X148679998Y-46087500D01*
X148679998Y-41602500D01*
X153629998Y-41602498D01*
X153629998Y-42277497D01*
G37*
%TD*%
D11*
%TO.C,H3*%
X122900000Y-33100000D03*
%TD*%
%TO.C,H3*%
X184500000Y-33500000D03*
%TD*%
%TO.C,H3*%
X184900000Y-91600000D03*
%TD*%
%TO.C,H3*%
X123200000Y-91300000D03*
%TD*%
D12*
%TO.C,D2*%
X179334500Y-45500000D03*
X159268500Y-45500000D03*
%TD*%
D13*
%TO.C,J5*%
X175100000Y-90820000D03*
X179400000Y-90820000D03*
D14*
X177250000Y-86500000D03*
D15*
X177250000Y-83500000D03*
%TD*%
D16*
%TO.C,J7*%
X129170000Y-33500000D03*
D17*
X131710000Y-33500000D03*
X134250000Y-33500000D03*
X136790000Y-33500000D03*
%TD*%
D13*
%TO.C,J2*%
X132200000Y-90250000D03*
X136500000Y-90250000D03*
D14*
X134350000Y-85930000D03*
D15*
X134350000Y-82930000D03*
%TD*%
D18*
%TO.C,U3*%
X147750000Y-51190000D03*
X147750000Y-52460000D03*
X147750000Y-53730000D03*
X147750000Y-55000000D03*
D19*
X150952499Y-53045000D03*
D20*
X153296499Y-55000000D03*
X153296499Y-53730000D03*
X153296499Y-52460000D03*
X153296499Y-51190000D03*
%TD*%
D21*
%TO.C,C8*%
X131488200Y-74250000D03*
D22*
X137000000Y-74250000D03*
%TD*%
D18*
%TO.C,U1*%
X147955251Y-32674998D03*
X147955251Y-33944998D03*
X147955251Y-35214998D03*
X147955251Y-36484998D03*
D19*
X151157750Y-34529998D03*
D20*
X153501750Y-36484998D03*
X153501750Y-35214998D03*
X153501750Y-33944998D03*
X153501750Y-32674998D03*
%TD*%
D23*
%TO.C,C3*%
X141272201Y-82272201D03*
X142727799Y-82272201D03*
%TD*%
D21*
%TO.C,C6*%
X159910850Y-74250000D03*
D22*
X165422650Y-74250000D03*
%TD*%
D12*
%TO.C,D1*%
X179084500Y-37750000D03*
X159018500Y-37750000D03*
%TD*%
D24*
%TO.C,R8*%
X139495416Y-63375000D03*
X137495416Y-63375000D03*
%TD*%
%TO.C,R4*%
X139495416Y-48625000D03*
X137495416Y-48625000D03*
%TD*%
D21*
%TO.C,C4*%
X145660850Y-74500000D03*
D22*
X151172650Y-74500000D03*
%TD*%
D23*
%TO.C,C1*%
X170544402Y-82750000D03*
X172000000Y-82750000D03*
%TD*%
D25*
%TO.C,J6*%
X123994299Y-39939600D03*
X123994299Y-47239601D03*
D26*
X128314301Y-45089600D03*
X128314301Y-42089601D03*
X131314300Y-45089600D03*
X131314300Y-42089601D03*
%TD*%
D18*
%TO.C,U4*%
X147594000Y-60375000D03*
X147594000Y-61645000D03*
X147594000Y-62915000D03*
X147594000Y-64185000D03*
D19*
X150796499Y-62230000D03*
D20*
X153140499Y-64185000D03*
X153140499Y-62915000D03*
X153140499Y-61645000D03*
X153140499Y-60375000D03*
%TD*%
D24*
%TO.C,R7*%
X139495416Y-59875000D03*
X137495416Y-59875000D03*
%TD*%
D12*
%TO.C,D4*%
X179084500Y-62250000D03*
X159018500Y-62250000D03*
%TD*%
D24*
%TO.C,R6*%
X139495416Y-56125000D03*
X137495416Y-56125000D03*
%TD*%
%TO.C,R1*%
X139495416Y-38035850D03*
X137495416Y-38035850D03*
%TD*%
D13*
%TO.C,J1*%
X123985000Y-55975000D03*
X123985000Y-60275000D03*
D27*
X128305000Y-58125000D03*
D15*
X131305000Y-58125000D03*
%TD*%
D18*
%TO.C,U2*%
X147750000Y-41940000D03*
X147750000Y-43210000D03*
X147750000Y-44480000D03*
X147750000Y-45750000D03*
D19*
X150952499Y-43795000D03*
D20*
X153296499Y-45750000D03*
X153296499Y-44480000D03*
X153296499Y-43210000D03*
X153296499Y-41940000D03*
%TD*%
D16*
%TO.C,J8*%
X125250000Y-67460000D03*
D17*
X125250000Y-70000000D03*
%TD*%
D13*
%TO.C,J4*%
X160500000Y-90500000D03*
X164800000Y-90500000D03*
D14*
X162650000Y-86180000D03*
D15*
X162650000Y-83180000D03*
%TD*%
D12*
%TO.C,D3*%
X179334500Y-54000000D03*
X159268500Y-54000000D03*
%TD*%
D21*
%TO.C,C2*%
X173688200Y-74500000D03*
D22*
X179200000Y-74500000D03*
%TD*%
D23*
%TO.C,C7*%
X127772201Y-82750000D03*
X129227799Y-82750000D03*
%TD*%
D13*
%TO.C,J3*%
X146250000Y-90500000D03*
X150550000Y-90500000D03*
D14*
X148400000Y-86180000D03*
D15*
X148400000Y-83180000D03*
%TD*%
D24*
%TO.C,R3*%
X139495416Y-45125000D03*
X137495416Y-45125000D03*
%TD*%
D23*
%TO.C,C5*%
X155772201Y-82250000D03*
X157227799Y-82250000D03*
%TD*%
D24*
%TO.C,R5*%
X139495416Y-52375000D03*
X137495416Y-52375000D03*
%TD*%
%TO.C,R2*%
X139495416Y-41625000D03*
X137495416Y-41625000D03*
%TD*%
M02*
